<?xml version="1.0" standalone="no"?>
<!DOCTYPE svg PUBLIC "-//W3C//DTD SVG 1.1//EN" "http://www.w3.org/Graphics/SVG/1.1/DTD/svg11.dtd" >
<svg xmlns="http://www.w3.org/2000/svg" xmlns:xlink="http://www.w3.org/1999/xlink" version="1.1">
<metadata>
Created by FontForge 20170924 at Thu Dec 30 04:20:21 2010
 By www-data
</metadata>
<defs>
<font id="attackofthecucumbers" horiz-adv-x="500" >
  <font-face 
    font-family="attack of the cucumbers"
    font-weight="400"
    font-stretch="normal"
    units-per-em="1000"
    panose-1="0 0 0 0 0 0 0 0 0 0"
    ascent="750"
    descent="-250"
    x-height="520"
    cap-height="902.5"
    bbox="-174.526 -377.462 1024.12 917"
    underline-thickness="50"
    underline-position="-100"
    unicode-range="U+0020-2044"
  />
<missing-glyph 
 />
    <glyph glyph-name=".notdef" 
 />
    <glyph glyph-name="b" unicode="b" horiz-adv-x="582" 
d="M-18 848q-1 10 4.5 16.5t12 8t13.5 -2.5t9 -14q3 -14 13.5 -26t16.5 -26q15 -33 19 -75t7 -78q6 -62 7.5 -123.5t0.5 -123.5q13 18 22.5 29.5t19.5 20.5t23 17.5t34 20.5q36 21 82 19t92.5 -19t86.5 -44.5t64 -57.5q43 -53 43.5 -102t-27.5 -92t-76.5 -78.5t-103.5 -61
t-110 -41t-94 -18.5l-58 -4v-4q-1 -18 -11.5 -28t-23 -11t-24 8t-14.5 27q0 3 -0.5 5.5t-0.5 5.5v13q-5 2 -9 7t-7 10q-8 14 -3 25.5t17 20.5q0 48 3 96q3 68 7.5 136t7.5 136t3.5 136t-5.5 136q-2 19 -4 38.5t-8 36.5q-5 16 -15.5 30t-13.5 31zM97 225q-8 -31 -11 -61
t-4 -62q13 -2 15.5 -15.5t-11.5 -21.5l-5 -3v-21q36 -1 73 9t69 21q45 16 88.5 37t82.5 49q12 8 25.5 19t25.5 24t21.5 28t13.5 30q10 38 -11 69.5t-56.5 55t-75.5 36.5t-68 14q-27 1 -49.5 -9.5t-41.5 -29.5q-34 -32 -52 -78t-29 -91z" />
    <glyph glyph-name="c" unicode="c" horiz-adv-x="653" 
d="M551 452q6 -9 5 -16.5t-6.5 -12t-14 -4.5t-15.5 7q-5 8 -10 14.5t-10 13.5q-35 2 -65.5 -1t-59.5 -11t-58 -20.5t-61 -29.5q-23 -12 -45 -25.5t-43 -30.5q-18 -14 -35.5 -30t-31.5 -36q-19 -26 -25.5 -53t-0.5 -51t23.5 -43.5t47.5 -30.5q37 -14 81 -19t90.5 -4.5t91.5 5
t84 9.5q7 1 23 3t35 5.5t37.5 8t30.5 10.5q-8 13 0 24t24 7q11 -5 19 -10q7 -4 9 -9t2 -13q-5 -16 -23.5 -29t-44.5 -23.5t-56 -18.5t-59.5 -13.5t-54.5 -9t-40 -5.5q-52 -7 -102 -7t-102 5q-17 1 -45.5 8.5t-57.5 20t-51.5 30.5t-27.5 41t-8 45t-7 45q-3 15 0.5 31.5
t10 32.5t16 30t20.5 24q37 36 68.5 61t64.5 43.5t71 34t89 33.5q6 2 33 7.5t59.5 8.5t61.5 1t38 -15q7 -9 13 -18.5t12 -19.5z" />
    <glyph glyph-name="d" unicode="d" horiz-adv-x="725" 
d="M560 454q6 -9 5 -16.5t-6.5 -12t-14 -4.5t-15.5 7q-7 8 -12 17.5t-15 12.5q-27 9 -68.5 7.5t-87.5 -12t-94 -28t-89 -40.5t-71 -50t-41 -56q-10 -26 -3.5 -47t21 -38.5t33 -33t33.5 -30.5q2 -2 9 -6t14.5 -7.5t13.5 -7l6 -3.5q27 -13 58 -25t63.5 -17.5t64 -1.5t59.5 23
q36 24 61 66t42 90t28 97t18 87l8 46q-1 19 -2.5 42.5t-3 47.5t-2.5 46t-2 39q-2 52 0 100t16 98q8 13 16 17.5t22 4.5h3q14 -4 20.5 -10.5t10.5 -20.5q10 -51 13 -105.5t0.5 -109.5t-9 -109.5t-15.5 -104.5l-4 -24l7 -201q0 -11 2 -36t5.5 -53t8.5 -55t12 -43
q6 -2 10.5 -7.5t4.5 -14.5q0 -2 -0.5 -4.5t-0.5 -4.5q-8 -24 -31 -13q-11 10 -19 25.5t-13.5 33t-9 35.5t-6.5 32q-6 34 -10 68t-7 69q-12 -34 -26.5 -66t-32 -59t-37 -45.5t-41.5 -25.5q-29 -9 -57 -20.5t-58 -10.5q-27 1 -64.5 9t-75 21.5t-71 31t-52.5 38.5
q-12 14 -28.5 27t-30.5 26.5t-24.5 29t-10.5 34.5q0 25 -3 50t6 48q15 40 52 71.5t83 55.5t94 39.5t85 24.5q18 4 47 8.5t60 7t60.5 0.5t49.5 -11q14 -6 22 -19t17 -24z" />
    <glyph glyph-name="e" unicode="e" horiz-adv-x="753" 
d="M185 249q-17 6 -33 15.5t-33 17.5l-12 -14q-39 -48 -39.5 -79t23.5 -50.5t64 -31t81 -18.5q35 -6 69.5 -9.5t69.5 -5.5t69.5 -2.5t69.5 0.5q25 1 56 3.5t62.5 6.5t61.5 10.5t55 15.5q17 6 31 16t28 19q9 3 15.5 1t10.5 -7t4 -12.5t-6 -14.5q-17 -11 -32 -24t-35 -19
q-97 -29 -193.5 -43.5t-199.5 -12.5q-38 1 -75.5 2t-74.5 9q-23 5 -52.5 11t-59 15.5t-55.5 24t-42 36.5q-12 17 -14.5 36.5t-7.5 39.5q-2 6 -2 12.5t3 11.5q13 28 22.5 57.5t31.5 50.5l3 3q-2 8 3 16.5t18 8.5h5q39 37 79.5 64.5t99.5 41.5q25 6 53.5 13t58 12.5t59 7
t55.5 -3.5q19 -3 42.5 -7.5t47 -12.5t42.5 -21.5t29 -34.5q8 -16 6.5 -34t-1.5 -36q1 -19 -11.5 -34t-26.5 -27q-21 -18 -54.5 -28t-70 -14.5t-72.5 -5t-62 0.5q-40 2 -83 6t-81 17zM156 314q12 -7 23.5 -12.5t21.5 -8.5q31 -9 66.5 -12.5t71.5 -3t71 4.5t67 10q8 1 24 4.5
t32 9.5t28.5 14t15.5 20q2 8 0.5 15.5t-2.5 15.5q-7 5 -13.5 12t-15.5 10q-43 16 -91.5 17t-97 -8.5t-94 -28t-82.5 -42.5z" />
    <glyph glyph-name="f" unicode="f" horiz-adv-x="658" 
d="M-51 487q10 0 17 -7q40 2 80 6t80 9v2h-2h2l-3 42q-2 30 -4.5 64t-2.5 68.5t4 68t15 62.5q20 51 62 73t92 25t102 -7t91 -23q10 -3 24.5 -7.5t28.5 -11.5t26.5 -15.5t19.5 -18.5q5 -8 6 -15.5t2 -15.5q4 -4 5.5 -10t-1.5 -14q-2 -4 -9 -11q-21 -12 -33 10q-2 6 -2 12
t-1 12v-1q-1 -2 -1 1.5t-1 5.5q-1 3 -6.5 5t-7.5 3q-14 6 -29.5 11t-31.5 10q-26 7 -66.5 13.5t-81.5 5t-74.5 -16t-45.5 -48.5q-8 -25 -10 -55t-1 -61.5t4 -61.5t4 -54q0 -10 0.5 -19.5t1.5 -20.5q40 2 88 3.5t93 0t82 -6.5t56 -15q23 -14 5 -37q-8 -6 -13 -7.5t-16 -3.5
q-18 -3 -25 10q-19 0 -41 -1.5t-44 -4t-41 -5t-32 -3.5q-27 -2 -54 -3.5t-54 -3.5q3 -57 7 -118t8.5 -119.5t10 -112.5t12.5 -97q2 -5 2.5 -8.5t3.5 -19.5q0 -9 -4.5 -14.5t-11 -7.5t-13.5 0.5t-12 9.5l-2 -1v4q-20 52 -28 113t-15 115q-8 63 -16.5 126.5t-14.5 127.5
q-50 -1 -98 2t-96 12q-8 2 -13 4.5t-9 10.5l-2 4q0 15 10 24l12 4t12 3zM119 497q-4 0 -5 -0.5t2 0.5h3z" />
    <glyph glyph-name="g" unicode="g" horiz-adv-x="703" 
d="M494 445q5 9 13 11t14 -1t9.5 -10.5t-0.5 -17.5q-3 -8 -4.5 -15t-3.5 -15q19 -3 33 -10q17 -8 33.5 -15.5t28.5 -20.5q22 -22 27.5 -48t1 -53t-16 -52.5t-23.5 -47.5q-4 -7 -9 -13t-10 -11q8 -20 15.5 -41t15.5 -41q13 -35 24.5 -71.5t22.5 -72.5q9 -29 9.5 -58.5t-8 -58
t-24.5 -54t-38 -44.5q-39 -33 -98 -46t-124 -15.5t-127.5 1.5t-107.5 7q-10 1 -40.5 1.5t-65.5 3.5t-68.5 9.5t-50 19.5t-9.5 34t53 52q9 3 15.5 1t10.5 -7t4 -12.5t-6 -14.5q-8 -6 -15 -11t-12 -12q14 -7 31.5 -6t31.5 1l251 2q54 1 105 3.5t103 17.5q61 18 90 59t19 107
q-8 49 -25 98t-36 99q-48 -41 -115 -61t-137 -17t-132.5 30t-101.5 80q-23 31 -33.5 67.5t-9 74t15 73t39.5 64.5q20 23 44.5 39.5t47.5 33.5q20 15 47 24.5t56.5 16t59.5 10t56 5.5q19 1 49 2t60.5 -3t56 -15t34.5 -33q4 -8 5 -16.5t3 -17.5q0 -19 -15 -21.5t-24 13.5
q-2 5 -2.5 10.5t-3.5 10.5q-8 13 -29 18t-46 5t-48 -2.5t-34 -4.5q-30 -4 -65.5 -13t-71.5 -23.5t-68 -34.5t-55 -46t-33 -58.5t-1 -72.5q11 -47 38 -76.5t64 -45t80.5 -18t86.5 5t83 23t70 36.5l5 4q-19 53 -30.5 105.5t-6.5 106.5q-6 1 -12 1.5t-11 2.5q-16 9 -13.5 24
t21.5 15q5 -1 10.5 -1h11.5q5 23 15 47zM559 194q15 20 25 42.5t10 43t-13 37.5t-44 28z" />
    <glyph glyph-name="h" unicode="h" horiz-adv-x="637" 
d="M6 502q8 14 20.5 11.5t16.5 -13.5q4 0 7 0.5t7 1.5q8 88 16.5 174t8.5 172q-1 5 -1.5 10t-0.5 10q2 14 16 19q15 3 25 -9q9 -13 2 -25q15 -84 16 -167.5t-4 -168.5q36 6 72 9.5t72 2.5q85 -2 146 -32.5t101 -81.5t59 -119.5t19 -147.5q0 -20 -2.5 -39.5t-5.5 -39.5
q0 1 0.5 5.5t0.5 9v7.5v0l-2 -22t-1 -22q6 -3 9 -10t-1 -17l-6 -18q-10 -10 -24 -10l-5 2q-6 3 -8.5 5.5t-5.5 8.5q-8 41 -8 81.5t-3 81.5v1q-11 40 -18.5 81t-29.5 78q-29 48 -68.5 75t-85 40t-96 15t-100.5 1q-8 0 -12 -1q-5 -57 -10 -114.5t-7 -114.5q-1 -16 -1.5 -36.5
t-0.5 -42v-41.5t1 -35q1 -17 4 -35t5 -35q5 -2 9 -7.5t4 -14.5q-2 -8 -3.5 -16t-6.5 -16q-9 -12 -20.5 -10t-18.5 15q-20 60 -30 121.5t-12.5 123.5t0.5 125t8 126q-10 0 -19.5 1t-17.5 4q-9 5 -14 14q-3 9 -2 15t6 14z" />
    <glyph glyph-name="i" unicode="i" horiz-adv-x="211" 
d="M44 448q2 12 0 27q-2 6 -2 10q0 7 -1 11q4 16 17.5 19t22.5 -11q5 -8 8 -19.5t5.5 -23.5t4 -23t3.5 -20q16 -79 14.5 -159.5t-5.5 -161.5q-1 -20 -3 -40.5t-2 -40.5q2 -2 4 -9q2 -9 1.5 -18t-5.5 -17q-10 -12 -21.5 -10.5t-19.5 15.5q-3 6 -5 16.5t-3.5 21t-3 19
t-1.5 10.5q-17 104 -14.5 210.5t5.5 211.5q0 3 0.5 -0.5t0.5 -8v-8t0 -1.5zM27 678q-10 1 -15 7t-4.5 13t6 13t15.5 6q34 15 58.5 12.5t56.5 -21.5q9 -2 13 -7.5t4 -12t-5 -12.5t-14 -7q-17 -8 -31 -10.5t-27.5 -1t-27 7t-29.5 13.5z" />
    <glyph glyph-name="j" unicode="j" horiz-adv-x="318" 
d="M132 527q1 9 7 14t12.5 5t12 -4t7.5 -13q3 -47 10.5 -93.5t18 -92.5t23 -91.5t23.5 -91.5q10 -40 20.5 -80.5t17 -82t7 -83t-9.5 -82.5q-6 -24 -21 -44l-30 -40q-28 -35 -65.5 -57t-80 -32.5t-87 -10t-86.5 10.5q-19 5 -40.5 10t-36.5 19q-18 18 2 34l9 4q11 5 19 0
t10 -13q11 -3 24.5 -4t22.5 -3q42 -6 86.5 0t84.5 23.5t71 48t45 74.5q7 22 7 50.5t-4 59t-9.5 59t-9.5 50.5q-11 57 -22.5 113.5t-21 113.5t-14.5 114t-2 115zM129 762q10 0 16 -6v2q0 1 7 -2t12 -11t8 -20t1 -21q3 -10 -1 -17t-10.5 -9t-14 0.5t-12.5 11.5q-5 5 -11.5 3.5
t-7.5 -2.5q-3 -2 4.5 -3.5t6.5 -5.5l-5 2t-11.5 6.5t-12 11.5t-6.5 17q-10 21 1 40q7 2 10.5 4t6.5 3.5t7 0.5t12 -5zM142 726q-5 -3 -9 -3l-5 -5q5 3 8.5 3t2.5 -9zM154 747q-1 2 -2 2.5t-3 2.5q0 -2 1 -3q4 -4 4 -2z" />
    <glyph glyph-name="k" unicode="k" horiz-adv-x="702" 
d="M392 652q3 -12 -3 -20q5 -20 8 -35.5t10 -33.5q14 -39 31.5 -77.5t37.5 -76.5q14 -27 31 -53t32 -54q0 -1 -1 0q20 -30 41.5 -59.5t38.5 -60.5q7 -13 22.5 -41.5t26 -60.5t11.5 -61.5t-20 -44.5q-10 -7 -18.5 -4t-13.5 13l-2 5q-1 8 1.5 12.5t6.5 8.5q-5 25 -14 45.5
t-21 40.5l-1 1q-37 45 -72 92.5t-66 97.5t-55 103.5t-39 110.5q-2 6 -5 18t-6.5 27.5t-6.5 32.5t-4 33q-42 -39 -85 -76.5t-87 -74.5q2 -63 2 -126t-4 -126q-2 -41 -4.5 -81.5t-5.5 -81.5q-1 -17 -0.5 -34.5t-7.5 -34.5q-5 -6 -10 -7.5t-14 -1.5q-1 1 -3 1q-12 7 -13.5 17
t5.5 17q2 9 -0.5 20.5t-3.5 20.5l-10 162q-2 48 -3.5 96t-3.5 96l-39 -34q-1 -1 -1 0q-5 -5 -9 -10.5t-8 -11.5q6 -13 -3 -23.5t-25 -2.5q-2 2 -8 4q-6 6 -7.5 11.5t-0.5 13.5q3 16 11.5 33.5t20.5 33.5t25.5 30t25.5 25l16 16q-2 108 -6 216q-1 22 -2.5 42.5t-5.5 41.5
q-2 7 -9 24t-12.5 34.5t-5.5 32t13 17.5q15 5 24 -4t5 -20q4 -8 9 -15.5t10 -15.5q17 -34 25.5 -74t13.5 -78q4 -33 7.5 -66t5.5 -66q51 47 101 92t104 89q27 22 55.5 44.5t57.5 42.5q-3 -3 -5.5 -6t-0.5 -1q4 4 13 10t15 12q0 11 10 17t23 -3l4 -3q8 -11 3 -25
q-8 -15 -24 -33t-34.5 -36.5t-37 -36t-31.5 -30.5l-27 -28q0 -2 2 -4zM490 823q-2 -2 -4 -2q2 2 4 2.5t0 -0.5z" />
    <glyph glyph-name="l" unicode="l" horiz-adv-x="158" 
d="M21 807q0 9 3.5 15.5t9.5 8.5t12.5 0t12.5 -10q12 -24 19.5 -57.5t12.5 -68.5t8 -69.5t5 -60.5q10 -140 1.5 -278.5t-18.5 -278.5q0 -2 -0.5 -3t-0.5 -3q-3 -8 -7 -12q-9 -7 -18 -4q-9 2 -13 10q-2 6 -2 10q-9 141 -11 278t-2 278v64.5t-0.5 71.5t-3 64.5t-8.5 44.5z" />
    <glyph glyph-name="m" unicode="m" horiz-adv-x="732" 
d="M7 143q-7 72 -1 143.5t11 143.5q-10 4 -12 14.5t9 20.5q1 1 2 1.5t2 2.5q-1 14 -2 27.5t-3 26.5q-5 5 -5 14v11q4 16 17.5 19t22.5 -11q7 -11 10 -24.5t6 -24.5q0 -2 2 -8q13 7 25.5 12t23.5 10q27 11 54 21t56 15q58 9 93.5 -11t55.5 -58q17 10 35 17.5t37 15.5l40 16
t41 12q44 8 72.5 0.5t46 -27t25 -50.5t10.5 -70q7 -100 3.5 -201.5t-11.5 -202.5q0 -12 -7.5 -18.5t-19.5 -4.5q-6 3 -12.5 6t-12.5 7q-11 11 -7.5 22t14.5 13l-20 297q0 2 -1 25t-3 51t-5.5 51.5t-7.5 26.5q-16 10 -29.5 8t-30.5 0h-1q-35 -5 -71 -14t-69 -23
q10 -35 13 -75t2.5 -79.5t-4.5 -75.5t-7 -64q0 1 0.5 6.5t1 10.5t0.5 8v0q-5 -38 -5.5 -77t1.5 -77q2 -6 2 -11q0 -10 -1 -15q-5 -16 -18.5 -16.5t-21.5 14.5q-1 1 -1 2t-1 3v1q-9 44 -12 88t-4 88.5t-1.5 88.5t-5.5 89q-2 13 -3.5 31t-5.5 36t-11 34t-18 25
q-13 10 -38 10.5t-53 -4.5t-53.5 -12.5t-38.5 -12.5l-30 -12q7 -36 8 -68t-0.5 -64t-4.5 -67t-5 -77t3 -84t1 -85q0 -10 -6 -15.5t-13 -6t-13 4.5t-7 15q-2 14 -6.5 28.5t-9.5 31t-10 36.5t-7 45z" />
    <glyph glyph-name="n" unicode="n" horiz-adv-x="518" 
d="M21 482q0 26 -1.5 51.5t-6.5 50.5q-8 6 -7 17.5t15 16.5q4 2 5 2q8 0 13 -2t10 -9q13 -26 21.5 -58t14.5 -67q27 23 62.5 41.5t72.5 31t71 19t60 5.5q23 -1 44.5 -12.5t38.5 -25.5q20 -16 29 -46.5t11 -69t-1 -81.5t-8.5 -82.5t-11.5 -73t-9 -53.5q-2 -15 -4.5 -30.5
t-4.5 -30.5q-2 -11 -2 -22t-1 -22q0 -7 1.5 -11.5t0.5 -6.5q2 -8 3.5 -17t-3.5 -17q-12 -15 -29 -6l-4 3q-9 11 -6 23l-6 14q-8 30 -6.5 65t3.5 65q1 30 6.5 78.5t7.5 100t-2 97.5t-22 71q-7 10 -19.5 14.5t-26.5 5t-28 -1.5t-24 -4q-17 -3 -41.5 -9.5t-50.5 -16.5
t-51 -23.5t-43 -29.5q3 -39 4 -79t-0.5 -78t-4.5 -72.5t-7 -62.5q-4 -23 -5.5 -45t-6.5 -44q10 -7 10 -20q-2 -15 -5.5 -27.5t-14.5 -23.5q-8 -5 -14 -5.5t-15 4.5q-14 8 -18.5 34t-4.5 54.5t2.5 52.5t2.5 28q2 91 3.5 180t1.5 180q0 3 0 -1t0.5 -9t0.5 -8.5t0 -1.5z" />
    <glyph glyph-name="o" unicode="o" horiz-adv-x="708" 
d="M438 476q-10 1 -15 6.5t-5 12.5q-15 3 -35 0.5t-41 -7.5t-39.5 -11t-28.5 -11q-24 -11 -56.5 -37t-62.5 -59.5t-52 -72t-26 -75t15 -67t72 -49.5q22 -8 45 -11.5t46 -5.5q53 -3 105 6.5t101 28.5q17 7 36 16t37 20t34 25t26 30q3 4 4 14.5t1 22v22t1 15.5q-10 11 -18 24
t-22 21q-58 33 -117.5 49t-125.5 18q-5 0 -7 1q-8 3 -11 9q0 2 -1 3q0 2 -0.5 3t-0.5 3q0 14 14 19q2 0 4 0.5t4 0.5h1q32 2 65 1.5t63 -11.5q35 -11 70.5 -22t70.5 -23q24 -8 42.5 -32.5t28.5 -55t9 -62t-14 -54.5q-11 -20 -29 -36t-35 -33q-21 -20 -48 -32.5t-54 -23.5
q-35 -15 -82.5 -28t-98 -18t-98 0.5t-82.5 27.5q-20 13 -43.5 24t-36.5 31q-10 15 -20.5 30.5t-15.5 32.5q-11 35 -5 72.5t24 73t45 69t57 61t61 48.5t57 33q18 8 47.5 16t60.5 11t59.5 -2t46.5 -21q9 -10 3 -25q-5 -10 -12 -12t-18 -4z" />
    <glyph glyph-name="t" unicode="t" 
d="M18 466q-9 1 -14 6t-5.5 11.5t3.5 12.5t12 9q45 8 89.5 18.5t89.5 18.5l-3 61l-6 146q0 8 -2.5 14.5t-1.5 14.5q-3 8 -1.5 14.5t7 10.5t12.5 4.5t14 -4.5q9 -8 14.5 -27t9.5 -41.5t6 -44t4 -32.5q5 -27 9 -53.5t8 -53.5q20 1 40.5 0.5t40.5 -2.5q9 -1 27 -4.5t37.5 -9.5
t36 -14.5t21.5 -20.5q4 -14 -5 -25l-1 -1q-8 -5 -15.5 -3.5t-12.5 6.5q-10 2 -20 3l-20 2q-13 1 -25.5 0t-25.5 -2q-18 -1 -35.5 -2t-34.5 -3q5 -51 7 -101.5t1 -101.5q-1 -45 -2.5 -88.5t-4.5 -88.5q-1 -14 -1 -25v-25v-5l2 -2q10 -14 8.5 -32.5t-18.5 -26.5q-9 -2 -14.5 0
t-11.5 8q-9 11 -14 31.5t-7 43t-2.5 43.5t-1.5 34q-5 83 -8 165t-7 165q-45 -4 -89 -5.5t-90 2.5zM437 475q1 0 0.5 0.5t-2.5 0.5q1 0 1 -0.5t1 -0.5z" />
    <glyph glyph-name="s" unicode="s" horiz-adv-x="599" 
d="M495 479q5 -7 5 -14.5t-4.5 -12.5t-11.5 -6.5t-15 2.5q-16 13 -48 18.5t-72 4.5t-82.5 -8.5t-79.5 -20t-64.5 -29.5t-35.5 -37q7 -11 22 -17t33 -9.5t34.5 -5t26.5 -2.5q23 -3 59.5 -5t77 -7.5t80.5 -15t72 -27t51 -44.5t16 -66q-2 -24 -14 -43.5t-29 -35.5t-37 -29.5
t-37 -25.5q-47 -32 -101 -37.5t-109 4t-109 28t-100 35.5q-9 5 -11.5 12.5t-0.5 14t9 10.5t17 1q44 -13 91 -26t93.5 -19t92.5 0.5t88 32.5q10 6 23 14.5t25.5 19t22.5 22.5t14 24q-3 8 -5 16t-8 13q-12 12 -33 20t-45 13t-49.5 8t-47.5 5q5 0 3 1q-26 3 -51 6t-51 5
q-32 4 -58.5 7.5t-48.5 12t-40 24t-34 42.5q-3 7 -5 10.5t-2 11.5q1 20 10 37.5t22.5 31.5t30.5 24t34 15q22 7 53.5 15t68 14t75 8.5t74 0t65.5 -12t50 -28.5zM264 258q8 -2 13 -2q-5 0 -13 2zM292 255h-6.5t-6.5 1q5 -1 13 -1zM260 259q0 -1 1 -1q-3 1 -3.5 1t2.5 0z
M295 255q1 -1 3 -1h-2q-1 0 -1 1z" />
    <glyph glyph-name="r" unicode="r" horiz-adv-x="444" 
d="M8 544q1 9 7 14t12.5 5t12 -4t7.5 -13q2 -26 5.5 -52.5t7.5 -52.5q35 43 85.5 70.5t105.5 29.5q18 0 42 -9t45 -24.5t34.5 -35.5t11.5 -41q0 -10 -6 -15.5t-13 -6t-13 4.5t-7 15l-5 5q-23 16 -39.5 24t-33 9.5t-34.5 -4t-43 -15.5q-8 -3 -19 -9t-21 -11.5t-17 -9l-7 -3.5
q-13 -8 -29 -17t-28 -20q6 -45 11.5 -90t9.5 -90q5 -51 2.5 -102t-7.5 -102q0 -10 -6 -15.5t-13 -6t-13 4.5t-7 15q-9 69 -18.5 138t-16.5 137.5t-8.5 137.5t5.5 139z" />
    <glyph glyph-name="q" unicode="q" horiz-adv-x="647" 
d="M521 402l-2 -2q21 -6 40 -16.5t30 -29.5t14.5 -42t0.5 -45.5t-12.5 -44t-24.5 -37.5q-16 -17 -31 -34.5t-31 -34.5q0 -8 0.5 -13.5t0.5 -9.5q2 -50 2 -100v-100.5t2.5 -100.5t9.5 -99q33 6 63 20t61 25q10 4 17.5 0.5t10.5 -9.5t1 -14t-11 -13q-15 -7 -36.5 -20.5
t-45 -26t-47 -20t-41.5 -1.5t-28 26t-15 45t-7 49t-3 38q-7 71 -7.5 139.5t2.5 138.5q-42 -18 -95 -31t-105.5 -15t-97 8.5t-69.5 37.5q-15 16 -32 30.5t-24 34.5q-17 52 -8.5 96t33.5 80t63.5 63.5t82.5 47t90 31t87 14.5q8 1 27 2.5t40.5 1t43.5 -3t37.5 -10t20.5 -21
t-7 -34.5zM442 408q15 0 21.5 0.5t19.5 -1.5q-3 7 0 14q-42 0 -84 -3.5t-83 -12.5t-79.5 -25.5t-74.5 -42.5q-19 -14 -37.5 -32.5t-31 -41t-16.5 -47.5t7 -52q6 -14 18.5 -24.5t27 -17.5t30 -11.5t28.5 -6.5q28 -4 60.5 -3.5t65 6t64.5 16.5t60 27l7 143q0 18 -0.5 36.5
t2.5 36.5q-2 0 -3 0.5t-3 0.5q-8 1 -17 0t-16 4l-3 3q-7 7 -7 15t3.5 13.5t10.5 7t15 -2.5q5 0 8 0.5t7 0.5zM521 348q-7 4 -13.5 6.5t-14.5 4.5q1 -26 3 -70.5t4 -89.5q11 11 21 26t18 32t10.5 34t-3.5 32t-25 25z" />
    <glyph glyph-name="p" unicode="p" horiz-adv-x="684" 
d="M18 495q1 9 7 14t12.5 5t12 -4t7.5 -13q3 -19 6 -37.5t5 -37.5q8 7 19 13q27 15 43.5 23t31 13t32.5 9t48 11q48 10 107 1.5t113 -34t96 -65.5t56 -92q8 -28 14 -50t7.5 -43t-4.5 -43.5t-22 -50.5q-19 -34 -58 -57t-84.5 -36.5t-92.5 -19.5t-81 -7q-14 0 -42.5 1.5
t-60.5 5.5t-61.5 11t-45.5 17q0 -5 0.5 -11t0.5 -11q3 -146 3 -292q0 -10 -6 -15.5t-13 -6t-13 4.5t-7 15q-17 102 -30 205t-13 206q0 94 6.5 186t6.5 185zM73 363q6 -69 7.5 -138t2.5 -138q5 -4 10.5 -7.5t11.5 -5.5q26 -9 64 -13.5t81 -4t87.5 6t84.5 17.5t71.5 30
t48.5 44q9 14 12 30.5t1.5 33.5t-5.5 33.5t-10 30.5q-17 43 -49.5 72.5t-72.5 48t-85 25.5t-87 5q-43 -2 -68 -8.5t-42 -15.5t-30.5 -21t-32.5 -25z" />
    <glyph glyph-name="u" unicode="u" 
d="M16 472q-1 9 -5 22v8q2 15 16 18.5t22 -10.5q8 -20 10.5 -40t3 -40t0 -40.5t2.5 -40.5q0 -2 0.5 1.5t0.5 8v7.5t0 1q1 -30 1 -62.5t1.5 -64.5t7 -63.5t17.5 -59.5q10 -25 20.5 -36t22.5 -15.5t26.5 -6t32.5 -5.5q48 4 90.5 29t63.5 71q15 32 17 71.5t-1 80.5t-8 82t-6 76
q1 9 7 14t12.5 5t12 -4t7.5 -13q3 -28 11 -65t15 -77t11 -80t-1 -74l13 -38h1q18 -30 24.5 -69t14.5 -74q3 -10 -1 -17t-10.5 -9t-14 0.5t-12.5 11.5q-22 27 -37 50.5t-23 48.5q-10 -12 -21.5 -23t-31.5 -28q-27 -23 -66 -36t-79 -12t-76 16.5t-57 50.5q-29 48 -38 101.5
t-8 109t6.5 111t5.5 108.5zM446 112q1 -2 0.5 -1t-1.5 4q0 -2 1 -3z" />
    <glyph glyph-name="v" unicode="v" 
d="M21 489l-6 6t-6 7q-10 10 -6 22t21 12q10 0 22.5 -11.5t25 -27t22.5 -31t15 -22.5q35 -48 62 -99.5t50 -105.5q9 -20 19.5 -47.5t22.5 -54.5q10 33 23.5 65.5t27.5 66.5q29 70 59 138t59 137q5 9 13 11t14 -1t9.5 -10.5t-0.5 -17.5q-30 -92 -58.5 -184t-60.5 -184
q-1 -2 -1 -1q-11 -34 -17.5 -65.5t-6.5 -68.5q-5 -27 -27 -34.5t-44 13.5q-29 41 -50 87.5t-39 95t-35.5 97t-39.5 93.5q-11 23 -23.5 44t-26.5 42q-4 8 -8.5 14.5t-9.5 13.5zM325 30q0 -5 -1 -7q0 2 0.5 4.5t0.5 5.5v-3z" />
    <glyph glyph-name="w" unicode="w" horiz-adv-x="798" 
d="M15 482q-9 5 -11.5 12.5t-0.5 14t9 10.5t17 1q31 -11 51.5 -30t36 -43.5t28.5 -52.5t29 -56q21 -37 40 -76t37 -78v1q9 56 18.5 111t26.5 109q3 10 10.5 27.5t16 36.5t15.5 36.5t9 26.5q-2 11 6 18t22 4q1 0 2 -1q12 -8 11 -22q-2 -9 -3.5 -18t-4.5 -17q12 -33 29.5 -64
t36.5 -62t37.5 -61.5t33.5 -62.5q11 -23 21.5 -47.5t15.5 -49.5q8 20 13.5 35t5.5 16q21 58 45.5 113t48.5 112q9 20 21 39.5t22 39.5q-5 12 8 24l7 3q14 5 22.5 -1t8.5 -20q-10 -37 -25 -72t-27 -72q-1 -2 -1 -3t-1 -2q2 2 2 5q0 -2 -1.5 -6.5t-2.5 -8.5t-2 -6t0 0
q-13 -42 -27.5 -83t-28.5 -83q-3 -8 -6.5 -28t-9 -44t-13.5 -47.5t-19 -39.5t-26 -21t-34 9q-14 10 -22.5 23.5t-13.5 28.5t-8.5 30.5t-6.5 29.5q-8 41 -23 78.5t-31 75.5q-17 39 -35.5 78.5t-34.5 79.5v-1q-3 -11 -5.5 -20.5t-4.5 -20.5q-5 -26 -7.5 -42t-5.5 -42l-39 -172
l-5 -43q0 -1 -0.5 -2t-0.5 -3q2 -12 1.5 -24.5t1.5 -23.5q-1 -18 -10 -29t-21 -13.5t-24.5 4t-21.5 21.5q-25 75 -46.5 146.5t-54.5 142.5q-11 24 -18.5 49.5t-17.5 49t-25 43t-40 30.5zM702 361q-2 -8 -4 -14q2 6 4 14z" />
    <glyph glyph-name="x" unicode="x" 
d="M26 518q15 5 23 -5t3 -22l5 -11h1v-1q33 -35 64.5 -72t64.5 -74l29 -31q45 58 93.5 111t108.5 103q9 6 16.5 4.5t12 -7t5 -13.5t-6.5 -15q-51 -56 -92.5 -116.5t-84.5 -121.5q51 -54 96 -112.5t77 -124.5q10 -7 10 -21l-1 -2q-4 -10 -10 -12.5t-17 -0.5q-11 7 -23 18.5
t-24 25t-23.5 28t-21.5 26.5q-19 18 -47.5 47t-62.5 64l-28 -36t-29 -35q-5 -5 -19.5 -19t-31.5 -31t-32 -34.5t-21 -29.5q11 -12 4 -24t-24 -10q-24 10 -25 28.5t8.5 39t24.5 39.5t24 31l98 137q-30 33 -57.5 68t-49.5 68t-37 62.5t-18 53.5q0 9 2 13.5t9 9.5zM67 466l-5 7
l4 -6t1 -1z" />
    <glyph glyph-name="y" unicode="y" horiz-adv-x="646" 
d="M603 485q4 -14 -4 -21.5t-19 -5.5q-15 -16 -26.5 -35.5t-21.5 -40.5t-18.5 -43t-17.5 -42q-5 -10 -12 -23.5t-14.5 -27t-14.5 -25t-10 -16.5q-14 -23 -33 -49t-40 -55q9 -17 18 -30l4 -5q3 -10 0 -17.5t-9 -11t-14.5 -2.5t-15.5 8l-14 16q-38 -50 -78.5 -103t-74.5 -103
t-58 -94t-30 -77q10 -2 14 -9t2.5 -13.5t-8 -12t-16.5 -4.5q-28 4 -32.5 27.5t2 51.5t18.5 53.5t16 35.5q36 84 86.5 159t105.5 148q-28 30 -54.5 59.5t-52.5 61.5q-26 33 -50.5 67t-49.5 68q-21 29 -40.5 58t-47.5 52q-7 7 -7 15.5t4.5 14t12 6.5t16.5 -5q36 -20 77 -58
t81.5 -85t79 -99.5t70.5 -101.5q29 38 57.5 77t54.5 79q4 7 12.5 23t20.5 36.5t26.5 42.5t29.5 39t29.5 27.5t27.5 7.5q11 -2 16 -11l2 -7v0z" />
    <glyph glyph-name="z" unicode="z" horiz-adv-x="684" 
d="M32 470q-10 -2 -16.5 2.5t-8.5 11t1 13.5t13 11q34 14 81 17.5t96.5 1.5t97.5 -8t84 -11h21q25 0 49 -0.5t49 0.5h2q2 1 6 1q1 -1 3 -1q14 2 20.5 -10t-3.5 -25q-32 -30 -61 -62.5t-57 -66l-56 -67t-58 -65.5q-51 -56 -107 -106.5t-108 -105.5q34 3 67.5 5.5t66.5 4.5
q-3 0 -5.5 -0.5t-0.5 0.5q106 14 206.5 14.5t204.5 -8.5l2 -1h1q3 -1 7 -5q2 -1 2.5 -2t1.5 -2t1 -2q2 -2 2 -4q1 -3 1 -10q0 -1 -0.5 -1.5t-0.5 -1.5q-1 -1 -1 -2l-4 -5l-1 -1q-1 0 -1 -0.5t-1 -0.5q-4 -2 -5 -2q-1 -1 -3 -1q-1 0 -2 -1q-88 -8 -176.5 -19.5t-176.5 -14.5
q-61 -2 -121 3.5t-121 10.5q-14 3 -19 14l-1 1q0 1 -0.5 2t-0.5 2v5q0 1 0.5 1.5t0.5 1.5t0.5 1.5t0.5 2.5q2 3 5 5q2 2 3 2l3 2q2 1 7 1l2 3q37 56 83 116.5t98 119t107.5 113.5t112.5 101q-57 -9 -111 -6.5t-123 10.5q-19 2 -39 6.5t-40.5 8t-40.5 5t-39 -1.5zM233 11
q-2 0 -6 -0.5t-9 -0.5q10 0 15 1zM365 508q-2 -1 -1 -0.5t3 0.5h-2z" />
    <glyph glyph-name="A" unicode="A" horiz-adv-x="717" 
d="M382 779q15 -54 32.5 -107t35.5 -106l10 -30t10 -29q24 -2 46.5 -5.5t43.5 -11.5q27 -6 17 -34l-16 -18q-11 -13 -23 -8.5t-14 17.5q-8 0 -16 -0.5t-16 -1.5q29 -82 58.5 -164t59.5 -163q7 -19 17.5 -36t21.5 -33.5l22 -33t19 -34.5q5 -14 -3 -22.5t-22 -6.5
q-11 6 -15 10t-17 16q-6 6 -7 12.5t1 11.5q-17 24 -35 47.5t-30 49.5q-36 82 -71.5 164.5t-68.5 167.5q-7 -2 -14 -3l-14 -2q-96 -18 -193 -27l-65 -154q-20 -46 -41.5 -91.5t-42.5 -91.5q-1 -2 0 1l2.5 7.5t3 7.5t0.5 1q-1 -3 -4.5 -10t-6.5 -15.5t-5.5 -17t-2.5 -13.5
q0 -19 -15 -21.5t-24 13.5q-4 20 6 54t25 71t31 72t24 57l45 125q-10 0 -19.5 2t-17.5 10q-10 10 -7.5 20.5t15.5 15.5h5q2 0 3.5 -0.5t3.5 -0.5t6 -2q6 2 14 3.5t16 4.5q17 51 33 101t31 101q11 39 15.5 66t10 49.5t17.5 44t38 51.5q3 13 10 21q15 13 28.5 13.5t29.5 -10.5
l3 -3q9 -13 10 -23.5t-4 -24.5q-1 -1 -1 -3l7 -35v-1l3 -11l-2 10q2 -8 2 -10q0 -1 0.5 -1.5t0.5 -1.5v-1zM283 629q-23 -77 -54 -157q38 10 80 19t85 14l-39 109q-8 21 -22 56t-25 73q-3 -14 -4 -28t-3 -25q-7 -30 -18 -61z" />
    <glyph glyph-name="B" unicode="B" horiz-adv-x="737" 
d="M61 798q-15 8 -13.5 22.5t17.5 16.5l5 2.5t6 2.5q0 3 0.5 5.5t0.5 5.5q1 9 6.5 14t12 5t12.5 -4t8 -13q22 7 44 11.5t33 6.5q42 6 84.5 1.5t84 -18t79 -35t68.5 -48.5q24 -21 32.5 -49.5t4.5 -58.5t-19 -57.5t-38 -44.5q-31 -23 -67.5 -44t-76.5 -38q42 2 86.5 0
t86.5 -10t78 -23.5t60 -40.5q13 -12 21 -28.5t16 -32.5q4 -6 4 -11.5t-1 -12.5q-3 -36 -11.5 -63t-22.5 -49.5t-35 -43.5t-50 -43q-46 -36 -96 -61t-102.5 -43t-108 -30t-112.5 -22l-20 -3l-9 -4q-11 -2 -17 2q-26 -2 -54 0t-45 13q-3 2 -7 8l-8 12l-8 14q-3 6 -3.5 10
t0.5 11l26 52q5 9 13 11t14 -1t9.5 -10.5t-0.5 -17.5l-16 -39l6 -9q11 -2 22.5 -2h23.5q-9 35 -10 73t-4 70q-6 62 -9 122.5t-4 122.5q-4 -1 -7.5 -1.5t-8.5 -0.5q-10 -2 -20 2.5t-20 6.5q-18 8 -14 29l8 30q9 16 23.5 11.5t14.5 -22.5q0 -2 -0.5 -4.5t-0.5 -4.5q12 -2 25 1
q1 87 5 173.5t10 174.5q-8 0 -12 1zM133 247q0 -15 -1 -43t-1.5 -61t-0.5 -66.5t3 -57.5q51 7 107 23t108.5 38.5t99.5 49t80 54.5q13 10 35 31t38.5 45t20.5 49t-19 45q-33 28 -76.5 43.5t-90.5 21t-94.5 4t-89.5 -5.5q-24 -2 -48.5 -6.5t-48.5 -10.5q-6 -1 -12 -4t-11 -7
q0 -3 -1 -4zM119 804q5 -85 7 -167.5t4 -167.5q37 13 79 31.5t80 37t69 35t47 25.5q15 9 30.5 23.5t24.5 31t8.5 34.5t-15.5 35q-21 24 -54 43.5t-71 32.5t-76.5 18.5t-69.5 2.5q-14 -2 -30 -6.5t-33 -8.5z" />
    <glyph glyph-name="C" unicode="C" horiz-adv-x="844" 
d="M685 725q0 -19 -15 -21.5t-24 13.5q-4 22 -26 35.5t-54 19.5t-71.5 6t-79 -4t-75.5 -12.5t-62 -18.5q-32 -12 -60 -31.5t-52 -43.5q-46 -47 -66 -105t-21 -122q0 -86 32 -157t86.5 -121.5t128.5 -75.5t158 -19q54 4 105.5 18t96.5 45q13 9 22 17t15.5 16t12.5 17t15 21
l2 11q6 15 20 16q15 0 21 -11t-2 -21q-1 -17 -13.5 -34t-20.5 -27q-20 -31 -51.5 -53t-67.5 -37t-74.5 -24.5t-73.5 -13.5q-49 -6 -106.5 -0.5t-112.5 24t-101.5 50t-73.5 76.5l-68 123q-20 35 -27.5 79t-0.5 82t11 75t18 72q12 31 35.5 67t54.5 67.5t67 54t71 28.5
q46 7 91 13.5t90 12.5q15 2 39.5 1t51.5 -5.5t55 -12.5t50 -20.5t36 -30t14 -39.5z" />
    <glyph glyph-name="D" unicode="D" horiz-adv-x="759" 
d="M92 827q-2 2 -2 3q-14 10 -11 24t21 14q14 -2 24.5 -15t18.5 -32q32 9 64 13t61 6q64 3 126.5 -13.5t117 -49.5t98 -80.5t69.5 -107.5q18 -41 24 -75.5t10 -78.5q2 -22 -2.5 -43.5t-9.5 -42.5q-8 -48 -38 -94t-71 -85.5t-88.5 -70t-90.5 -47.5q-40 -16 -75 -21.5
t-78 -7.5q-23 -1 -45 4t-44 13q-1 -5 -1 -8.5v-8.5v-2q0 -1 -1 -2q-2 -8 -5 -11l-5 -4q-2 -2 -5 -2q-7 -2 -13 1q-4 2 -6 4l-1 1q-2 3 -3 6t-1 8l-3 38q-12 6 -22.5 12.5t-21.5 13.5l-49 32q-5 3 -15.5 10.5t-8.5 5.5q-14 15 -4 30q0 1 0.5 1t0.5 1q10 8 19.5 5.5
t13.5 -10.5q7 -5 17 -11t20.5 -11t18.5 -9l10 -5l17 -9q-5 87 -7.5 173t-0.5 174q2 74 4 148.5t-11 147.5q-13 -6 -22 -13q-2 -6 -8 -10.5t-16 -3.5l-4 2q-10 5 -13 13.5t4 18.5q20 23 49 37zM180 681q12 -69 14.5 -142.5t-0.5 -148.5t-9 -150t-11 -147q20 -7 41 -11t41 -2
q49 5 98.5 22t94.5 45t83 64.5t63 80.5t35 94t-1 104q-13 69 -49.5 124t-88.5 93.5t-116 59t-132 19.5q-17 0 -38.5 -2.5t-44.5 -7.5q9 -31 13.5 -59t6.5 -36z" />
    <glyph glyph-name="E" unicode="E" horiz-adv-x="650" 
d="M44 21q11 4 20 -1h1l-3 39q-4 39 -4.5 79t-1.5 78q-2 59 -2.5 117.5t-1.5 117.5q-4 0 -5 2q-1 0 0 1h-1q-10 -2 -16.5 2.5t-8.5 11t1 13.5t13 11q9 4 16 5q0 75 1 150t4 151h-18t-18 1v1h-2q-14 8 -13.5 21t15.5 18l39 6v2q1 9 6.5 13.5t12 5t12 -3t7.5 -12.5
q79 10 157 14.5t159 -0.5q17 -1 41 -1t49 -1t47 -5t36 -12q18 -13 10 -34q-2 -6 -8 -10t-13 -6.5t-14.5 -4t-13.5 -2.5q-18 -3 -25 10q-28 -2 -56 -3.5t-56 -2.5q-78 -2 -154 0t-154 4q6 -74 11.5 -147.5t9.5 -148.5q18 0 33 4q3 1 -1.5 0.5t-10.5 -1t-10.5 -1t-1.5 -0.5
q34 7 71 11.5t74.5 6t74 -1.5t71.5 -11q24 -8 15 -32l-4 -6q-7 -8 -15 -9t-13 4q-54 -4 -106.5 -14t-105.5 -15q-18 -2 -34 -1.5t-33 2.5v-10.5t1 -10.5q5 -81 -2 -160.5t-12 -159.5q-2 -17 -1 -33.5t1 -33.5q22 2 44 6q3 1 -2 0.5t-11.5 -1.5t-11.5 -1.5t-2 0.5q18 3 51 9
t72.5 12.5t81.5 13t79.5 10.5t66.5 4.5t41 -3.5q20 -5 19 -27q-3 -17 -14.5 -21t-27.5 -3q-2 0 -3 0.5t-3 0.5l-47 -13q-25 -7 -49.5 -13t-49.5 -12q-60 -14 -119.5 -18t-120.5 0q-7 -11 -18.5 -10.5t-16.5 11.5h-18t-16 3q-18 11 -14 28q5 7 8 10.5t11 6.5zM52 455
q-2 0 -3 -1q1 0 1.5 0.5t1.5 0.5z" />
    <glyph glyph-name="F" unicode="F" horiz-adv-x="599" 
d="M68 583q-1 28 -1 58t-2 59.5t-7 58.5t-15 56h-3q-4 -2 -6 -2h-15q-13 7 -14.5 18t9.5 20q3 2 6 3t8 3q1 13 14 17t23 -9q32 4 68 4h56q38 0 83.5 -0.5t92 -5.5t91.5 -15.5t82 -29.5q8 -6 10 -12.5t0 -12.5t-8.5 -9.5t-15.5 -3.5q-17 7 -40.5 7.5t-43.5 0.5q2 -1 -3.5 -1
h-8.5q-49 2 -97 3t-97 3q-11 0 -27 2t-35 5t-39.5 6t-39.5 5q27 -64 39 -143.5t15 -162.5q40 17 81.5 19t86.5 -2q5 0 14 -0.5t18 -3t15.5 -7t8.5 -12.5q4 -15 -5 -23t-20 -3q4 -5 -7 -4.5t-18 -1.5q-12 -3 -19.5 -5l-15 -4t-16 -3.5t-21.5 -3.5q-11 -2 -34 -3.5t-40 -1.5
q6 0 10 0.5t2 1.5q-22 3 -38 0q0 -59 -2 -113t-5 -99q-2 -24 -3 -48t0 -48q2 -29 6 -61.5t-7 -61.5q-3 -9 -9 -12.5t-12.5 -3t-11.5 6t-6 14.5v4q0 1 -0.5 10t-0.5 19.5t-0.5 20t-1.5 11.5q-4 13 -8 34t-7 46.5t-5 54t-3 55.5q-2 77 -2.5 153t-2.5 153z" />
    <glyph glyph-name="G" unicode="G" horiz-adv-x="863" 
d="M599 731q0 -19 -15 -21.5t-24 13.5q-4 17 -22 25h-1q-32 6 -74 18.5t-86 21.5t-85.5 9.5t-71.5 -17.5q-17 -10 -34 -20.5t-31 -24.5q-39 -41 -57.5 -95.5t-21.5 -114t7.5 -118.5t29.5 -107q9 -23 18 -41.5t19.5 -34.5t24 -31t32.5 -30q30 -25 79.5 -43t102.5 -24t103.5 2
t82.5 36q25 22 36 50t12.5 58.5t-3 61.5t-9.5 60q-3 17 -6 36t-11 34q-4 2 -6 4.5t-4 4.5l-86 -8q2 0 3 0.5t-1 0.5q-23 -1 -36 -2t-21 -1.5t-15.5 -2t-20.5 -4.5q-5 -11 -17 -11.5t-20 13.5q-1 3 -5 9q0 11 3 17.5t14 9.5q73 36 153.5 49.5t161.5 15.5q7 0 21 0.5t29.5 0
t30 -2.5t22.5 -8q7 -5 9.5 -8.5t4.5 -11.5q-3 -25 -19 -32t-38 -12q-17 -3 -24 10q-7 -2 -14 -3l-14 -2q-18 -3 -35.5 -6t-35.5 -5q5 -9 7.5 -19.5t5.5 -20.5q6 -23 14 -58t12.5 -71.5t2.5 -71t-16 -57.5q-11 -16 -20 -33t-24 -30q-48 -41 -107 -55t-120.5 -8t-121.5 27.5
t-108 51.5q-20 14 -36 33t-33 37q-18 20 -29 45l-22 50q-18 46 -27.5 104t-8 118.5t14.5 120t40.5 108t71 83t104.5 45.5q16 3 45 2t63.5 -5.5t71.5 -12t70 -17.5t59.5 -22.5t39.5 -25.5q8 -8 11 -16.5t5 -19.5zM484 434q-6 0 -10.5 -0.5t-6.5 -0.5q4 0 8 0.5t9 0.5z
M494 435h4h-4zM494 435q-2 -1 -5 -0.5t-5 -0.5q2 1 5 0.5t5 0.5z" />
    <glyph glyph-name="H" unicode="H" horiz-adv-x="720" 
d="M575 871q14 11 26 2.5t7 -25.5q1 -2 1 -5.5v-5.5q2 -19 4.5 -37t5.5 -38q9 -53 17 -104.5t12 -105.5v-9q2 0 4 -0.5t4 -0.5t3 -0.5t2 -0.5q11 -8 11 -19t-12 -19q-3 -2 -9 -4q4 -82 0.5 -163.5t-6.5 -164.5q-1 -19 1.5 -37.5l5 -37t4 -37.5t0.5 -38q-1 -25 -27 -23
q-13 5 -16 11t-10 19q-5 9 -2.5 16t8.5 11q-6 29 -15.5 56.5t-11.5 56.5q-4 83 -4.5 165.5t-1.5 165.5q-13 0 -18 -2q-2 -1 1 -1h8q-80 -2 -159 -4.5t-159 -4.5q-14 0 -33 1t-39 1.5t-40 -1.5t-36 -8q4 -46 7 -91.5t8 -91.5q3 -38 8.5 -74.5t10.5 -74.5q7 -54 2 -113
t-13 -114q-6 -17 -20.5 -17t-22.5 15q0 2 -0.5 3t-0.5 2q0 57 -1.5 114t-12.5 112q-1 3 0 -2t2 -12t2 -12t0 -2q-24 109 -34 217t-12 218q-1 60 1.5 119.5t5.5 119.5q1 9 -2.5 22t-14.5 15q-16 9 -13.5 24t21.5 15q24 -5 36.5 -21.5t17.5 -38t5.5 -45t1.5 -41.5
q2 -20 3.5 -40t2.5 -40l9 -119q42 17 101 26.5t119.5 13t115 1.5t86.5 -6q14 -2 27.5 -4.5t27.5 -5.5l-2 61q0 9 -2 29.5t-3.5 46.5t-3 55t-1 54.5t3 45t8.5 27.5z" />
    <glyph glyph-name="I" unicode="I" horiz-adv-x="435" 
d="M37 -20q-9 1 -14 6t-5.5 11.5t3.5 12.5t12 9q65 20 138 25q0 10 1 19.5t0 19.5q-2 43 -6 86t-7 86q-8 106 -15.5 211.5t-5.5 212.5q1 35 2.5 69.5t8.5 68.5q-32 0 -64.5 2t-65.5 5q-9 1 -14 6t-5.5 11.5t3.5 12.5t12 9q43 9 87.5 18t89.5 15t90 6.5t89 -7.5q8 -2 12 -5
t9 -10q2 -15 -3.5 -26t-15.5 -17t-23.5 -7t-26.5 5q-1 0 -2 1q-28 -5 -55.5 -10t-55.5 -7q-5 0 -8.5 -0.5t-7.5 -0.5q-3 -28 -2 -57.5t4 -58.5t7 -58t6 -57q8 -82 15 -164t4 -165v-36t-0.5 -55.5t-2.5 -63t-7 -58.5h25t25 -1h-9t-1 -1q17 -4 40 -6t41 0q18 0 22.5 -14.5
t-11.5 -23.5q-37 -17 -76 -23t-78.5 -6t-79.5 4t-79 6zM281 43h-6.5t-6.5 1q6 0 11 -0.5t2 -0.5zM348 879q1 0 0 -1v1z" />
    <glyph glyph-name="J" unicode="J" horiz-adv-x="524" 
d="M251 833q-10 1 -15 7t-4.5 13t6 13t15.5 6q11 3 32 6.5t43.5 6t42.5 1.5t31 -7q2 -1 -1 -0.5t-7.5 0.5t-8 0.5t-1.5 -0.5q11 -4 24.5 -4.5t25.5 0t19.5 0.5t7.5 -3v-1q13 2 19.5 -9.5t-3.5 -24.5q-5 -5 -11 -6.5t-12 -3.5q-28 -10 -48 -14.5t-38 -4.5q4 -8 7 -19t8 -34
q9 -46 20.5 -102.5t21.5 -119t17.5 -127t8.5 -127t-6 -119t-25 -102.5q-14 -33 -38.5 -52t-55.5 -27.5t-65.5 -7t-68.5 10t-64.5 21.5t-52.5 29q-14 11 -24.5 25.5t-21.5 28.5q-14 17 -20 46t-7 64t2 73t7 74t8 66.5t6 50.5q1 10 7.5 14.5t13.5 4t12.5 -6.5t5.5 -16
q0 -32 -3 -77.5t-3.5 -93t4.5 -91t22 -70.5q9 -14 30.5 -29t48.5 -26.5t57 -18t56.5 -5.5t46 12.5t26.5 35.5q15 52 20.5 105.5t5.5 107.5t-4 107.5t-9 107.5q0 -3 0.5 -11t1.5 -16t1 -12.5t0 -0.5q-7 66 -13.5 132t-14.5 132q-2 17 -6 34.5t-8 34.5q-15 3 -32 8t-40 11z
" />
    <glyph glyph-name="K" unicode="K" horiz-adv-x="799" 
d="M3 837q1 9 7 14t12.5 5t12 -4t7.5 -13q8 -80 22.5 -158t25.5 -158q17 15 35 29l36 28q63 51 127 99t130 95q38 28 77 54.5t68 64.5q7 6 14.5 6t12.5 -4t7 -10.5t-1 -15.5q-26 -45 -62.5 -81t-75.5 -70q-45 -40 -92 -77t-97 -72q28 -20 54 -45t43 -40q81 -72 151 -150.5
t136 -163.5q12 -15 28.5 -33.5t32 -39t28 -41.5t18.5 -41q4 -14 -5.5 -23.5t-24.5 -1.5l-6 3q-8 8 -8 17q-10 17 -24 32.5t-29.5 29.5l-31 28t-28.5 28q-75 79 -148 159t-146 161l3 -3q-18 20 -36.5 40.5t-35.5 40.5q-2 1 -1 0.5t3 -2.5q-3 5 -7 9l-8 8l-26 -17
q-26 -17 -51.5 -32t-51.5 -32l4 -43q5 -60 4 -120t-6 -120q-3 -38 -6.5 -76.5t-13.5 -76.5q-4 -13 -19 -16q-2 0 -3 0.5t-3 0.5q-16 1 -19 13t6 20q3 44 0.5 87.5t-4.5 87.5q-2 51 -6 100t-9 99q-10 2 -14 12t3 21l3 3z" />
    <glyph glyph-name="L" unicode="L" horiz-adv-x="657" 
d="M5 31q-1 14 7.5 21t18.5 2q3 82 2 164t-3 163.5t-3 163.5t1 163q-3 35 -11 68t-8 68q1 9 7 14t12.5 5t12 -4t7.5 -13q5 -27 14 -53.5t17 -53.5q7 -22 10.5 -45.5t5.5 -46.5q17 -147 13 -291.5t-27 -290.5q11 3 19.5 4.5l17 3t19 3t25.5 3.5q56 8 112.5 8.5t111.5 -3.5
q37 -2 61 -3.5t37.5 -2.5t19 -2l5.5 -1h6q17 1 32 1h41q2 1 8 1q3 1 7 1q16 -5 18 -18.5t-13 -21.5q-47 -18 -102.5 -24.5t-113.5 -7t-115 2t-107 3.5q-13 0 -25.5 0.5t-26.5 0.5q-11 1 -23 0.5t-23 -0.5q0 -2 -0.5 -4t-0.5 -4q-6 -15 -19 -15.5t-21 13.5v4h-1v4q-8 2 -15 6
t-10 14zM28 702q0 -3 0.5 -5.5t0.5 -4.5q0 2 -0.5 5t-0.5 5z" />
    <glyph glyph-name="M" unicode="M" horiz-adv-x="898" 
d="M8 825q-9 5 -11.5 12.5t-0.5 14t9 10.5t17 1l6 -3q5 8 16 8.5t19 -10.5q8 -14 8 -31q23 -23 40.5 -50t33.5 -49q73 -103 136.5 -209t125.5 -216l22 -41q5 18 10.5 34.5t12.5 32.5q16 41 37.5 79t45.5 74t50 71.5t51 70.5q32 45 59 88.5t42 94.5q-5 6 -4 14t9 15l2 1v1
l-2 -2l4 11v1q0 2 1 4q8 14 20.5 13t17.5 -13q6 -5 9 -14q11 -112 26.5 -223.5t26.5 -224.5q9 -91 5 -181.5t-4 -181.5q0 -9 -4.5 -14.5t-11 -6.5t-13.5 2t-11 11q-8 31 -11.5 66.5t-6 72t-4.5 72t-6 66.5q-11 106 -19 209t-9 208q-23 -54 -54 -105t-64 -101.5t-63.5 -102
t-51.5 -106.5q-9 -23 -13.5 -38t-6.5 -28.5t-3 -29t-3 -40.5q-1 -9 1.5 -18.5t4 -19.5t0.5 -19.5t-7 -17.5q-13 -14 -26.5 -17.5t-31.5 5.5q-17 10 -26.5 28.5t-16 39.5t-11.5 42t-13 36q-60 117 -122.5 231t-129.5 227q-5 9 -17 29.5t-27 43.5l5 -67l7 -76q11 -120 16 -237
t3 -238q0 -38 1.5 -74.5t-1.5 -74.5q-1 -12 -7.5 -18t-14.5 -6.5t-14.5 5t-7.5 17.5q-1 4 -1 8q0 5 -0.5 9t-0.5 9q0 1 -0.5 1.5t-0.5 1.5v4q-4 29 -8 57.5t-7 57.5q-12 118 -18 237.5t-8 237.5q0 16 0.5 36t1 40.5t1.5 40t2 35.5q1 14 3 26.5t4 26.5q-11 11 -18 14z" />
    <glyph glyph-name="N" unicode="N" horiz-adv-x="632" 
d="M36 868q14 5 23 -2.5t7 -18.5q8 -10 27 -30.5t36 -42.5q25 -31 47 -64t42 -68q54 -94 96 -191t89 -194q26 -55 58 -105.5t63 -102.5q-1 67 -6.5 134.5t-12.5 134.5t-14.5 134t-11.5 134q-4 69 1 136t9 135q0 2 1 3q1 4 5 8q2 3 5 5q6 2 8 2q3 1 10 -1l3 -2q2 -1 2.5 -2
t2.5 -3l1 -1l3 -8q3 -59 7 -117.5t9 -118.5q5 -47 12 -92.5t12 -91.5q14 -112 13 -228t-21 -228q-7 -15 -18 -15q-3 -2 -7 -2h-8q-11 2 -17.5 11.5t-13.5 16.5q-4 7 -3 13q-29 39 -60.5 76t-57.5 79q-34 55 -63.5 113t-56.5 117t-53.5 118.5t-54.5 117.5q-1 0 -1 1
q-17 35 -34.5 68t-39.5 65q-5 7 -15 19q1 -19 3 -40t3.5 -38.5t3 -30t1.5 -15.5l8 -92q13 -146 20.5 -288.5t-1.5 -288.5q0 -4 -2 -8l-3 -7l-4 -4q-2 -2 -3.5 -2.5t-3.5 -1.5q-1 0 -1 -0.5t-1 -0.5h-3q-5 -1 -12 2q-3 1 -7 5l-3 5l-2 6v4q-5 84 -13 167.5t-16 166.5
t-13 166.5t-4 167.5v39.5t1.5 61t5.5 62t12 42.5q1 4 7 8l4 2v0z" />
    <glyph glyph-name="O" unicode="O" horiz-adv-x="981" 
d="M451 893l9 -0.5t19.5 -1t20 -1t11.5 -0.5q16 5 24.5 -4.5t3.5 -20.5q14 -1 26.5 -4.5t29.5 -11t42.5 -19t65.5 -29.5q39 -17 72 -50t53 -71q23 -42 37 -67.5t23 -43t13.5 -31t8.5 -32.5t8 -47.5t11 -75.5q3 -20 0.5 -39t-7.5 -38.5t-11 -39t-10 -38.5q-11 -54 -51 -97.5
t-93.5 -75t-112 -50.5t-106.5 -24q-89 -9 -173.5 8.5t-154.5 60t-120.5 110.5t-70.5 160q-5 23 -8.5 51t-4 56.5t1.5 56t9 49.5q22 73 46.5 120t57.5 81t77.5 60t107.5 56q34 17 70.5 28.5t74.5 14.5zM310 779q-6 -15 -19.5 -15.5t-18.5 13.5q-55 -31 -100 -73t-71 -105
q-23 -59 -27 -126t11 -131.5t49 -121.5t88 -94q51 -35 112.5 -50t122.5 -18q34 -2 75.5 -0.5t73.5 15.5q38 17 76 31.5t70 40.5q49 39 74.5 90t31.5 108.5t-5.5 116.5t-36.5 113.5t-61.5 101t-79.5 77.5q-42 31 -73.5 45t-62.5 18t-67 2.5t-87 -2.5q-9 0 -21 -1.5t-23 -6
t-20 -11.5t-11 -17z" />
    <glyph glyph-name="Q" unicode="Q" horiz-adv-x="956" 
d="M677 768q15 -4 16.5 -15.5t-7.5 -18.5l39 -16q29 -13 56.5 -35.5t50 -50.5t39 -59.5t23.5 -62.5q8 -35 13.5 -74.5t3.5 -79t-14 -76t-40 -64.5q-17 -17 -36.5 -32.5t-36.5 -33.5q-9 -10 -17.5 -18.5l-16.5 -16.5l7 -42q2 -14 4.5 -32t5.5 -37.5t6.5 -37.5t8.5 -32
t11.5 -28t16.5 -25q9 -11 24.5 -19t25.5 -13q8 6 19 0.5t11 -20.5q0 -12 -6 -18.5t-14.5 -8t-18.5 0t-18 5.5q-20 10 -37.5 18t-32.5 18.5t-26.5 26t-20.5 39.5q-14 38 -20.5 75t-11.5 75q-32 -20 -69.5 -32.5t-88.5 -17.5q-66 -7 -115 -2.5t-92 19t-85.5 38t-94.5 53.5
q-16 9 -28 23t-22.5 30t-20.5 33t-21 32t-16 31.5t-8 34.5t-5.5 36.5t-6.5 36.5q-12 55 6.5 114.5t55 113.5t84 97.5t92.5 67.5q62 33 114.5 49t102 16t99.5 -16t107 -47v-1zM605 245q-9 5 -11.5 12.5t-0.5 14t9 10.5t17 1q14 -3 27.5 -5.5t26.5 -6.5q9 -2 16.5 -9t14 -16
t11 -18.5t7.5 -18.5l6 -17l7 7q25 27 45 43t34.5 33t23 40.5t11.5 64.5q2 29 0 59.5t-10 58.5q-15 58 -50 104t-86 76q-14 8 -28.5 14.5t-28.5 12.5q-9 4 -18.5 6t-18 5t-14.5 8.5t-9 18.5q-2 10 5 17l-12 5q-41 15 -77.5 18.5t-72.5 -3.5t-73 -23t-77 -40
q-46 -27 -84.5 -66.5t-64.5 -86.5t-38.5 -98t-7.5 -102t30 -98t73 -86t110 -64t128 -32.5t131 5t118 48.5q-1 8 -3 21t-5.5 26.5t-8.5 25.5t-12 18q-8 8 -19 10.5t-21 6.5z" />
    <glyph glyph-name="R" unicode="R" horiz-adv-x="602" 
d="M17 785q0 4 0.5 7.5t0.5 8.5q-6 5 -7.5 12t3.5 14q-2 2 -2 4q-8 11 -1 23t24 8q9 -3 15 -13l36 19.5t24.5 10t31.5 5t58 6.5q28 3 57 -2t54 -17q22 -11 45.5 -20.5t40.5 -27.5q16 -17 32.5 -32.5t26.5 -35.5q25 -51 17 -93.5t-35 -78t-67.5 -64t-81.5 -49.5
q19 -27 36 -55.5t36 -55.5q24 -34 56.5 -78.5t63.5 -92.5t55.5 -96.5t32.5 -90.5q0 -14 -9.5 -20t-22.5 0l-6 6q-7 7 -7 16q-9 15 -27 40t-39 53l-42 56t-36 49q-3 4 -13.5 20t-23 35.5t-24 38.5t-17.5 29q-16 31 -27.5 63t-25.5 63q-14 -6 -34.5 -15t-43 -16t-44.5 -9.5
t-38 4.5q1 -70 0 -140q-1 -66 -5.5 -132t-4.5 -132q-1 -10 -7 -15.5t-13.5 -5.5t-13.5 5t-7 16q-16 157 -24 314t-5 314q0 13 1 33t2.5 41t2.5 40.5t2 32.5zM76 641q3 -39 5.5 -78t4.5 -78q10 -3 13 -16q0 -2 2 -8q1 -3 1 -5q14 -3 37.5 6t48 23t46 28t32.5 21
q16 10 27.5 16t22.5 13.5t23 19t30 32.5q24 28 27 54.5t-8 49.5t-33.5 42t-49.5 33.5t-55 23.5t-50 12q-26 3 -43.5 3.5t-32 -2.5t-28.5 -9t-33 -14q3 -15 4 -30t1.5 -28t1 -23t0.5 -13q2 -18 3.5 -36.5t2.5 -36.5z" />
    <glyph glyph-name="S" unicode="S" horiz-adv-x="677" 
d="M517 807q6 -9 5 -16.5t-6.5 -12t-14 -4.5t-15.5 7q-4 6 -7.5 13t-9.5 11q-20 12 -46 17t-53 5.5t-53 -2.5t-48 -7q-57 -11 -99 -29.5t-66.5 -48.5t-30 -73t11.5 -103q7 -26 23 -50t45 -29q37 -6 74.5 0.5t74.5 5.5q31 -1 70 -7.5t78 -20t75.5 -33.5t63 -46.5t39 -61
t4.5 -75.5q-11 -53 -42 -101t-75.5 -86t-97 -63.5t-104.5 -32.5q-30 -4 -64 -8t-67.5 -1.5t-64 14.5t-52.5 41q-11 14 -14 33.5t-9 36.5q0 9 3.5 15.5t9.5 8.5t12.5 0t12.5 -10q5 -14 8 -29.5t12 -27.5q19 -24 49 -31.5t66 -4t74.5 15.5t73.5 28t63.5 33.5t44.5 31.5
t33.5 34.5t32 44.5t21.5 49t2 48q-5 22 -20 39t-34.5 30t-41.5 22t-41 15q-59 20 -125 20q-49 1 -93.5 -1t-81 7.5t-64.5 37t-43 86.5q-6 25 -12.5 49.5t-2.5 49.5q3 24 5.5 47.5t10.5 45.5q18 45 56.5 72t85.5 41.5t96 19.5t88 7q7 0 29 -2t47.5 -6.5t48 -12t29.5 -16.5
q5 -7 10 -14.5t10 -15.5z" />
    <glyph glyph-name="U" unicode="U" horiz-adv-x="715" 
d="M22 840q1 9 7 14t12.5 5t12 -4t7.5 -13q1 -81 0 -176.5t7 -191t31 -184t71 -155.5q40 -55 92 -72t104.5 -5.5t99 47.5t74.5 87q23 42 36.5 90t20.5 95q6 34 8.5 55.5t2 39.5t-3 39t-7.5 55q-6 40 -14.5 77t-16 74t-12.5 74.5t-4 79.5v2v1v2l2 6l2 2q0 1 2 3l1 1l2 1
q0 1 1 1l4 2q3 1 9 1q1 -1 2 -1t3 -1q1 -1 2 -1t2 -2q3 -1 4 -4q0 -1 0.5 -1t0.5 -1t0.5 -2t0.5 -2t1 -2q1 -50 11.5 -98t23.5 -95.5t25 -95t18 -96.5q4 -41 4.5 -67t-2.5 -49.5t-9.5 -49t-15.5 -65.5q-14 -62 -46.5 -115.5t-77 -92.5t-97.5 -60t-107.5 -19t-108 30
t-98.5 88q-36 48 -57 107t-32 123.5t-13 132.5t0.5 135t7 131t7.5 120z" />
    <glyph glyph-name="T" unicode="T" horiz-adv-x="673" 
d="M6 837q-12 13 -5 26t21 10q4 0 8 -2h36q43 1 89 0q112 -2 222 -8.5t222 -17.5q9 -2 13 -7.5t4 -12t-5 -12.5t-14 -7q-76 -8 -151.5 -12.5t-150.5 -1.5q1 -18 5 -47t8.5 -58t8 -54t4.5 -37q4 -54 6.5 -99t3.5 -89.5t1 -92.5v-108q0 -57 -3 -113t-1 -113q0 -10 -6 -15.5
t-13 -6t-13 4.5t-7 15q-26 153 -32 306.5t-6 307.5q1 25 1.5 49.5t0.5 49.5v28.5t-1 28.5q0 11 -1.5 22.5t-2.5 22.5q-24 2 -48 4.5t-48 7.5q-5 1 -26 4t-45.5 7.5t-46.5 9.5t-28 10z" />
    <glyph glyph-name="V" unicode="V" horiz-adv-x="643" 
d="M1 829q-5 9 -2.5 16.5t9 11.5t14.5 2.5t14 -10.5q24 -38 42 -78.5t33.5 -82.5t29.5 -84t29 -84q36 -100 75 -195t86 -190l10 64t10 55q23 101 55.5 196.5t73.5 189.5q18 42 34 85t30 87q4 13 5 26t9 24q4 13 15.5 15t21.5 -11q5 -8 -1.5 -39t-17 -67t-21.5 -68.5
t-15 -44.5q-33 -103 -65 -205t-54 -209q-4 -20 -7.5 -53.5t-9 -69.5t-15 -68.5t-24.5 -50.5q-11 -6 -18 -7.5t-20 -0.5q-16 4 -22.5 12.5t-9.5 18.5t-4.5 21.5t-7.5 22.5q-10 21 -20.5 41.5t-20.5 41.5t-19 42.5t-18 43.5q-36 89 -64.5 179.5t-56.5 182.5q-18 63 -34.5 123
t-48.5 117z" />
    <glyph glyph-name="W" unicode="W" horiz-adv-x="1071" 
d="M985 895q1 10 7.5 14.5t13.5 4t12.5 -6.5t5.5 -16q1 -72 -6 -141.5t-19.5 -138t-28.5 -137t-34 -137.5q-20 -80 -36 -160t-30 -161v3q-1 -9 -1.5 -14.5t-1 -10.5t-1 -12t-0.5 -18v-4v-2q0 -3 -1 -4q0 -2 -1 -3q0 -1 -0.5 -1.5t-0.5 -1.5q-5 -9 -15 -9q-3 -1 -9 1l-4 2
l-2 2q-10 2 -16 11l-1 -1q0 2 -0.5 2.5t-0.5 2.5q-23 44 -52 83.5t-53 82.5q-41 70 -74 143t-68 146l-7 15q-13 -35 -25.5 -69t-28.5 -67q-18 -39 -38 -77.5t-38 -77.5t-32 -79.5t-20 -84.5q-6 -15 -20 -15q0 -1 0.5 -1t0.5 -1q0 -19 -15 -21.5t-24 13.5q-17 69 -46 134.5
t-52 132.5q-37 112 -70.5 225t-71.5 225q-8 24 -20.5 47t-24.5 46t-21 47t-12 50q-1 10 4.5 16.5t12 8t13.5 -2.5t9 -14q8 -37 31.5 -69.5t43.5 -64.5q15 -23 25.5 -46t20.5 -49q46 -114 80 -230.5t64 -235.5q10 -35 19.5 -70.5t18.5 -71.5q7 44 20 86.5t29.5 84.5
t34.5 83.5t33 83.5q14 37 26.5 74t24.5 74l11 33q-2 20 1.5 39.5t16.5 36.5q17 15 34.5 13t30.5 -21q3 -16 2.5 -31.5t-3.5 -30.5q5 -44 21.5 -82.5l34.5 -80.5q25 -59 48.5 -117.5t50.5 -116.5q14 -29 30 -57t32 -57q1 82 13 163.5t29.5 161.5t39 159.5t42.5 158.5
q1 5 0 -2t-3.5 -16t-4 -16.5t-0.5 -2.5q17 63 28 123.5t18 124.5zM871 32q-1 -4 -1 -10q0 4 0.5 6t0.5 4z" />
    <glyph glyph-name="X" unicode="X" horiz-adv-x="664" 
d="M548 855q0 -9 -4.5 -14t-10.5 -7q-13 -23 -25 -51t-23.5 -57t-22.5 -57.5t-21 -52.5q-22 -51 -43.5 -100.5t-42.5 -100.5q64 -94 129.5 -186.5t134.5 -183.5q10 -16 -2 -30v-1q-8 -5 -15.5 -3.5t-12.5 6.5q-38 44 -78.5 84.5t-78.5 84.5q-30 35 -58 70.5t-55 72.5
l-42 -101q4 9 6.5 16.5t0.5 2.5l-15 -38l1 1l7 18q-3 -9 -6 -15.5t-2 -3.5q-13 -34 -25 -66.5t-24 -67.5q-4 -11 -7 -25.5t-6.5 -29.5t-9 -28.5t-14.5 -22.5q-16 -9 -27 2t-2 27q8 8 8 26t2 31q10 51 22 100.5t27 97.5q12 39 25.5 76.5t28.5 75.5q-32 48 -61 97t-57 100
q-23 42 -46.5 83t-50.5 81q-7 11 -16 24t-17 24q-2 2 -5 4t-5 4q-5 4 -7 10t0 12t7 10t13 4q15 0 27 -13t20 -23q38 -44 72.5 -90t66.5 -95l96 -146q26 59 55 115.5t61 113.5q4 7 16.5 33t28.5 54t33.5 49.5t32.5 19.5q8 -2 11.5 -5.5t5.5 -11.5v-4v0z" />
    <glyph glyph-name="Y" unicode="Y" horiz-adv-x="663" 
d="M7 850q-1 9 3 15t9.5 8.5t12 1t10.5 -7.5v1q-2 2 3.5 0.5t7.5 -3.5q24 -12 49.5 -26.5t48.5 -29.5q44 -29 82.5 -64t76.5 -70q21 -20 45.5 -42t41.5 -48q26 57 58 107q17 26 34 51.5t38 47.5q3 3 -2.5 -3.5t-7.5 -11.5q2 5 6 9q3 4 6 8.5t7 9.5q5 7 9.5 17t10 19.5
t12 17.5t14.5 12q11 5 20 1t11 -16v-7q0 -17 -12 -20q-3 -8 -5 -18.5t-4.5 -22t-5 -22t-6.5 -17.5q-32 -61 -75 -113t-87 -106q-1 -2 -1 -3.5t-2 -3.5q-1 -1 -1 -2l16 -128t7 -129q0 -23 -3.5 -62.5t-5.5 -83t-1 -84.5t9 -68q6 -6 6 -16v-6q-5 -13 -15.5 -15.5t-21.5 7.5
q-12 15 -20 40.5t-13 53.5t-7 54.5t-3 43.5q-6 103 -4.5 207t10.5 206q-16 17 -45 35.5t-60 44.5q-61 50 -117.5 103.5t-116.5 104.5q-8 4 -14 9t-8 14zM45 860q0 -1 1 -2z" />
    <glyph glyph-name="Z" unicode="Z" horiz-adv-x="830" 
d="M26 -32q-9 1 -13.5 6t-5.5 11t2 11.5t9 8.5l-6 8q0 3 -1 4q0 20 14 24q44 46 81 98.5t77 100.5q66 80 133 157t130 158q43 54 86.5 103.5t89.5 100.5q11 11 29 32.5t35 34.5q-95 -2 -190 -14.5t-189 -15.5q-2 0 -24.5 -0.5t-49.5 -1t-50 -1t-24 0.5q-1 0 -1 1
q-12 -2 -24.5 -4t-25.5 -2q-14 0 -29 1.5t-29 -2.5q-9 -2 -15.5 1.5t-9.5 9t-1.5 12.5t8.5 13q17 7 34 10l8 1.5t17.5 3t18 3t9.5 1.5q35 10 66.5 14.5t65.5 7.5q62 8 120 12.5t114.5 5.5t114 -3t118.5 -13q16 -4 17 -17t-10 -20q12 -14 -2 -28q-9 -13 -20.5 -25.5
t-22.5 -24.5v-1v1q0 -1 -1 -2v1l-1 -2q-18 -27 -39 -53t-41 -52q4 5 7 8t1 1q-92 -139 -199.5 -264t-222.5 -246q-33 -34 -65.5 -69.5t-68.5 -65.5q15 1 30 1.5t29 4.5q-2 0 -8 -1t-4 1q7 3 19.5 6t26.5 5t27.5 4t22.5 3q46 5 92.5 5t91.5 3h-14q49 3 97.5 3.5t97.5 5.5
q27 2 53 6.5t51.5 9t51.5 7t53 0.5q12 -5 15 -12q1 -1 1 -3l1 -1v-3q2 -11 -7 -17l-3 -2l-6 -2h-2q-27 -2 -39.5 -4t-23 -6t-24 -9.5t-41.5 -15.5q-29 -11 -60 -15t-61 -8q-80 -11 -157.5 -9.5t-158.5 1.5q-45 0 -87.5 -0.5t-87.5 2.5zM363 40q-5 -1 -15 -1q-4 0 1.5 0
t13.5 1zM271 867q-2 0 -3 -0.5t-3 -0.5q3 0 6 1z" />
    <glyph glyph-name="P" unicode="P" horiz-adv-x="658" 
d="M34 701q-9 -5 -17 -3t-12.5 8t-3.5 13.5t9 14.5q18 15 39 30l6 92q1 9 7 14t12.5 5t12 -4t7.5 -13q1 -15 1.5 -30t2.5 -30q35 22 73 39.5t77.5 26.5t80 8.5t81.5 -15.5q19 -7 31.5 -11t22 -7t17.5 -7t19 -12q13 -10 31 -23.5t34.5 -29.5t27.5 -34.5t11 -39.5
q1 -20 1.5 -39.5t-4.5 -39.5q-5 -23 -20.5 -41.5t-29.5 -38.5q-20 -29 -52.5 -49.5t-70 -35t-76 -23t-71.5 -12.5q-16 -2 -37.5 -4.5t-45 -4.5t-46.5 -1.5t-42 4.5q-2 -100 -7.5 -200.5t-4.5 -201.5q1 -2 1 -5v-22q-7 -17 -22 -15.5t-19 18.5h-2q0 1 0.5 1.5t0.5 1.5
q-16 116 -20 231.5t-2 232.5q-15 22 -14 39.5t16 28.5q3 96 9 192zM101 745q5 -72 7.5 -142.5t1.5 -142.5q26 -4 53.5 0t43.5 6q79 11 152 35t131 80q21 20 31.5 45.5t3.5 54.5q-5 22 -20 40.5t-35 32t-42.5 23t-42.5 14.5q-75 20 -146.5 5t-137.5 -51z" />
    <glyph glyph-name="zero" unicode="0" horiz-adv-x="598" 
d="M402 824q3 -10 -1 -17t-10.5 -9t-14 0.5t-12.5 11.5q-3 11 -17.5 18t-32 9.5t-34.5 1t-25 -6.5q-25 -14 -51 -26t-46 -32q-35 -36 -55 -85t-28 -105.5t-5.5 -117t12.5 -118.5t26 -110.5t35 -93.5q8 -17 18.5 -35.5t24 -36t29.5 -31.5t36 -21q42 -15 76 -8t60.5 28.5
t45.5 53.5t32 68.5t20.5 73t9.5 66.5q2 24 2.5 42t-1 34.5t-4 33.5t-6.5 40q-9 50 -26 99t-36 96q-4 9 -10.5 21t-13.5 23q-8 12 -17 26q-6 7 -7 14t2 12.5t9.5 8t15.5 0.5q17 -8 34 -34.5t31.5 -57.5t25.5 -60.5t16 -44.5q18 -51 31.5 -107.5t18 -114.5t-4 -114.5
t-33.5 -107.5q-22 -44 -50 -82t-64 -63t-81 -32t-100 10q-28 9 -52.5 27.5t-45 42.5t-35.5 50.5t-24 51.5q-23 66 -36.5 117.5t-20.5 100.5t-8.5 101t0.5 118q2 38 14.5 73.5t22.5 71.5q10 32 32.5 58.5t42.5 54.5q10 14 32.5 28t52 24.5t62 16t61 2.5t49.5 -17t28 -41z" />
    <glyph glyph-name="one" unicode="1" horiz-adv-x="370" 
d="M29 0q-16 9 -13.5 24t21.5 15q24 5 51 8.5t56 5.5q-3 41 -7 75.5t-7.5 67.5t-5.5 68t-2 77q2 72 2.5 150.5t8.5 150.5q3 34 8 67t9 66q-26 -20 -54.5 -31.5t-59.5 -22.5q-9 -5 -17 -3t-12.5 8t-3.5 13.5t9 14.5q32 36 65.5 61.5t81.5 36.5q5 10 14.5 12t16.5 -6
q2 0 2.5 -0.5t1.5 -0.5q9 -2 13 -7t4 -11t-3 -11t-9 -8q0 -1 -0.5 -1t-0.5 -1q2 -22 3 -43.5t1 -44.5q-1 -25 -3 -49.5t0 -49.5v16q5 -28 6 -69t-0.5 -84.5t-3.5 -83.5t-3 -66q-2 -41 -3 -76t-2 -69t-2.5 -69.5t-3.5 -76.5q16 -1 31 -2.5t29 -5.5q4 -1 -3 -0.5t-11 -0.5h5
q10 0 19.5 -1t19.5 -4q-7 2 -9 0q-1 -1 7 -2t17 -1v-1h3q1 1 3 1q9 -3 13.5 -8.5t4 -12t-5.5 -12.5t-14 -8q-33 -14 -66.5 -17.5t-67 -0.5t-67 10t-66.5 13zM282 38q-2 0 -3 0.5t-2 0.5q3 0 5 -1t0 0z" />
    <glyph glyph-name="two" unicode="2" horiz-adv-x="678" 
d="M85 748q2 -9 -0.5 -15.5t-8 -9.5t-12.5 -2t-14 7q-15 24 -4 48t33 44t48 36t41 25q42 25 91 20.5t92.5 -29t76 -64t40.5 -83.5q9 -45 0.5 -85t-27.5 -77t-43.5 -72t-48.5 -69q-24 -35 -47 -70l-46 -70q-31 -48 -58.5 -97.5t-55.5 -100.5l-14 -27q17 0 31.5 -0.5
t24.5 -0.5q43 0 86.5 -2l87 -4t86.5 -3t87 2q15 2 30.5 1t29.5 4q18 0 22.5 -14.5t-11.5 -23.5q-5 -2 -15.5 -4t-21 -3t-19 -2t-9.5 -1q-87 -11 -172.5 -10t-173.5 -3q-12 -1 -26 -1t-29 -0.5t-29.5 -2.5t-27.5 -7q-18 -17 -37.5 -10t-22.5 33q1 11 8 21q4 5 5.5 7.5
l4.5 7.5q-2 -4 -4 -6.5t-1 -0.5q48 101 103 198.5t119 188.5q19 27 43 56t46 59.5t38.5 63t20.5 67.5q4 29 -4 53t-25 48q-48 69 -104 76.5t-125 -36.5q-23 -14 -35.5 -23t-26.5 -32zM42 50q1 2 -1 -1t-4 -8z" />
    <glyph glyph-name="three" unicode="3" horiz-adv-x="682" 
d="M205 814q-20 0 -43 -7.5t-43 -17.5q-2 -8 -11 -13q-8 -2 -16 -4.5t-17 -0.5q-13 7 -14.5 18.5t9.5 20.5q39 31 84 47.5t92.5 18t93.5 -13t87 -44.5q20 -15 42.5 -33.5t31.5 -44.5q5 -13 10 -26.5t5 -27.5q1 -29 -12.5 -54t-36 -47t-49.5 -40.5t-53 -33.5
q75 -15 138 -62.5t99 -116.5q21 -40 27.5 -73t2 -65t-18 -64.5t-31.5 -71.5q-6 -13 -17 -23t-24 -18l-26 -16t-25 -17q-28 -21 -71 -32.5t-92.5 -14t-100.5 5.5t-95 26t-77 46.5t-46 68.5q-3 10 -1.5 21t5.5 21.5t9 21t8 21.5q9 16 23.5 11.5t14.5 -22.5q-3 -16 -6 -31.5
t-7 -31.5q8 -10 14 -21.5t16 -19.5q35 -25 79.5 -34.5t84.5 -11.5q51 -2 102 5.5t96 32.5q70 38 94 89.5t14.5 105.5t-46.5 104t-89 84q-23 16 -47 23t-51 14h-1l-18 0.5t-40.5 3t-44 8t-30.5 16.5q-8 8 -3.5 20t20.5 12q14 2 28.5 1t27.5 3q1 0 -1 0h-5h-5t-1 0
q10 4 21 3.5t21 4.5q17 9 44.5 23t53 32t42 38.5t11.5 42.5q-8 36 -33.5 62.5t-60 44t-72.5 25.5t-70 8z" />
    <glyph glyph-name="four" unicode="4" horiz-adv-x="555" 
d="M380 859q1 9 7 14t12.5 5t12 -4t7.5 -13q8 -86 19.5 -171t19.5 -171q19 0 39 -3q9 -3 12 -8q6 -8 5 -17v-2q0 -1 -0.5 -1.5t-0.5 -1.5l-1 -1q-2 -5 -5 -6l-3 -2q-6 -2 -8 -2q-18 -2 -34 -6l3 -39q7 -106 -2 -210t-15 -210v-2q-2 -9 -6 -13l-3 -3l-4 -3q-2 0 -2.5 -0.5
t-2.5 -0.5q-4 -2 -7 0h-2l-4 2q-7 4 -9 9l-2 4q0 2 -0.5 3t-0.5 3q-5 87 -6.5 172.5t-7.5 172.5q-2 25 -3.5 50t-2.5 50h-4q-46 -3 -92 -1.5t-93 1.5q-42 0 -81.5 -1t-81.5 4q-14 1 -18 11t1 18q-14 69 -9 137t16 138q4 22 5.5 46t8.5 44q1 10 7.5 14.5t13.5 4t12.5 -6.5
t5.5 -16q0 -20 5 -41.5t7 -41.5q5 -53 -1.5 -106.5t-16.5 -105.5q1 9 1 8q-8 -30 -9 -60l1 1q74 26 157.5 28.5t160.5 -7.5q-8 0 -10 -1q-3 -1 1.5 -0.5t9.5 -0.5v1l-1 1h1q-4 85 -5 168.5t3 168.5zM80 503q-1 0 -2 -0.5t-3 -0.5q3 0 5 1zM62 500h1h-1zM70 549v3v-3z" />
    <glyph glyph-name="five" unicode="5" horiz-adv-x="643" 
d="M505 845q8 -6 10 -12.5t0 -12.5t-8.5 -9.5t-15.5 -3.5q-22 5 -49 7l-99 -11q-44 -5 -88.5 -11.5t-88.5 -4.5q-20 1 -39 2.5t-38 3.5l-5 -2q-1 -5 0.5 -13.5t2.5 -12.5q5 -21 11 -42t11 -42q6 -23 12.5 -48t9.5 -51q30 26 64 43.5t76 14.5q28 -2 44.5 -3.5t30.5 -4.5
t29.5 -9.5t41.5 -17.5q57 -25 100 -73.5t64.5 -107t18.5 -121.5t-36 -118q-29 -47 -69.5 -81t-87.5 -56.5t-99.5 -34t-106.5 -13.5q-11 0 -42 8.5t-64 22.5t-58 33.5t-25 41.5q-9 10 -5 21.5t21 11.5q3 0 6 -0.5t6 -0.5q23 -6 15 -30l3 -3q9 -8 19.5 -14t21.5 -11
q26 -12 49.5 -18t52.5 -7q43 -1 87 11t84 34.5t73 53.5t55 68q21 37 23.5 77.5t-9.5 80t-37 75t-57.5 62t-71.5 41t-80 12.5q-24 -2 -44.5 -10t-38.5 -20t-34.5 -27t-33.5 -31q-11 -6 -20.5 -5.5t-16.5 5.5t-10 14t-1 21v1l-2 1l3 3q3 16 2.5 40t-4 52t-9 58t-10.5 57
q-3 16 -5.5 34t0.5 34q-12 5 -11.5 18.5t15.5 18.5q36 7 93.5 19.5t122.5 19.5t129 2.5t112 -30.5z" />
    <glyph glyph-name="six" unicode="6" horiz-adv-x="658" 
d="M326 867q10 4 17.5 0.5t10.5 -9.5t1 -14t-11 -13q-32 -16 -56.5 -47t-45.5 -59q-37 -50 -70.5 -101.5t-57.5 -106.5t-35.5 -114.5t-3.5 -124.5q4 -39 18 -76.5t38 -65.5t58 -44t79 -11q27 3 53.5 10t50.5 18q35 17 68.5 37.5t61.5 47.5q28 28 32.5 58t-7 58.5t-33.5 53
t-47 41.5q-18 13 -41 24.5t-47.5 20t-50 13t-48.5 2.5q-17 -2 -33.5 -10.5t-33.5 -15.5l-32 -81q-6 -7 -13 -8.5t-12.5 1.5t-9 9.5t-1.5 15.5q8 24 12.5 49.5t21.5 45.5q19 23 44.5 33.5t54.5 12.5t59.5 -4t59.5 -15t55 -19.5t46 -19.5q28 -12 48 -35t42 -43t32 -53.5
t7.5 -69t-16 -67.5t-37.5 -49q-18 -13 -36 -28t-36 -29.5t-37 -26.5t-41 -19q-47 -15 -73 -24t-48 -11.5t-47 1t-70 11.5q-22 4 -44.5 21t-42 39.5t-34 47t-19.5 44.5q-6 23 -11 47l-10 48q-7 31 -6 63.5t8 63.5q6 26 11 52.5t14 51.5q13 36 32.5 70.5t42 66.5t47.5 62.5
t49 59.5q26 32 55.5 65t67.5 49z" />
    <glyph glyph-name="seven" unicode="7" horiz-adv-x="605" 
d="M47 806q-2 0 -5 -0.5t-5 -0.5q-8 -9 -20.5 -6t-13.5 19q0 20 18 29t42 12t48 2t35 -1q70 2 142 -2t141 -13q-4 0 -6 -2t10 -1.5t29 0.5h21t22 1q11 11 23 3q1 0 1.5 0.5t1.5 0.5q10 4 17.5 0.5t10.5 -9.5t1 -14t-11 -13l-16 -9q-14 -63 -34.5 -125t-44 -123.5t-48.5 -122
t-48 -120.5q-13 -34 -22 -69.5t-20 -70.5q-8 -26 -16.5 -50.5t-18.5 -50.5q0 -1 -5 -9.5t-10 -17.5q3 -13 -11 -22l-6 -3q-11 -3 -18.5 3t-9.5 17q5 24 14 48t14 48q9 41 13.5 81t15.5 80q14 54 33.5 106t40.5 103q30 72 66 141t64 142q-35 -7 -76.5 -8.5t-81.5 0t-75.5 4.5
t-57.5 5l-96 12q-24 4 -48 6zM42 814q-1 -1 -1 -3q5 2 5 5.5t-3 0.5q0 -2 -1 -3zM444 843q-5 0 -15 2q7 0 13 -1.5t2 -0.5z" />
    <glyph glyph-name="eight" unicode="8" horiz-adv-x="641" 
d="M395 832q25 -4 51.5 -13.5t47 -25t31.5 -37t5 -49.5q-5 -25 -22.5 -51t-43 -50.5t-58 -45.5t-66.5 -36q32 -7 62 -15.5t60 -17.5q25 -8 45.5 -28t41.5 -36q19 -15 27.5 -38.5t19.5 -45.5q22 -43 12 -97t-39.5 -105t-71.5 -90t-83 -52q-15 -5 -30 -10.5t-30.5 -10.5
t-31 -8.5t-31.5 -2.5q-38 2 -77.5 2t-76.5 11q-26 8 -52 26t-46.5 42t-32.5 52.5t-9 58.5l12 104q4 33 17.5 64.5t33.5 60.5t44.5 55t50.5 49q-5 8 2 17q-5 3 -10.5 6.5t-10.5 8.5q-2 2 -10 9t-17 16t-17 18.5t-9 15.5q-3 16 -5.5 31.5t-1.5 30.5q1 27 14.5 55t34 53.5
t44.5 45t46 30.5q12 6 36.5 17t52.5 19.5t53 9.5t37 -14q9 -10 3 -25zM535 252q6 39 -5 73t-34.5 61.5t-56 48.5t-69.5 34t-76 18t-75 1q-27 -21 -50.5 -48.5t-41.5 -58.5t-31.5 -64t-21.5 -65q-12 -53 -5 -91.5t28 -64t53.5 -39t71 -16t80 5t81.5 24.5q22 9 41.5 21.5
t36.5 27.5q29 26 49 60t25 72zM354 796q-14 1 -18 10.5t1 17.5q-30 -9 -63 -29t-61 -45.5t-46 -53.5t-19 -52.5t20 -43t72 -23.5q22 -2 47 5t49 19t45.5 27t37.5 28q6 5 17 14.5t20 21.5t13.5 25t-2.5 24q-17 25 -49.5 39t-63.5 16z" />
    <glyph glyph-name="nine" unicode="9" horiz-adv-x="650" 
d="M426 886q21 0 41.5 -2.5t38.5 -13.5l4 5q7 9 18 12.5t21.5 1t19.5 -9.5t12 -17q6 -17 5.5 -37t-5 -40t-12 -39.5t-14.5 -35.5q0 -9 0.5 -18t0.5 -18v-26.5t-0.5 -32.5t-1 -22t-1.5 6l-1 1l-4 -172q-3 -99 -8.5 -197t-2.5 -198q6 -6 7 -12q2 -14 2 -30t-8 -30
q-11 -12 -24 -8.5t-15 20.5q-11 82 -11.5 165.5t-2.5 165.5q-1 78 -1.5 153t-0.5 154q-11 -10 -21 -19.5t-21 -17.5q-44 -36 -91 -63.5t-101 -47.5q-27 -10 -56 -11.5t-56.5 5t-52 22t-42.5 39.5q-33 46 -39 86t7.5 74t42.5 62t65.5 51t76.5 41t76 31q8 3 29.5 8.5t46.5 11
t47.5 7.5t31.5 -3v-1zM488 831q-5 3 -9 9q-11 5 -27.5 5.5t-33.5 -1t-32 -4.5t-24 -4q-26 -6 -63.5 -18t-76 -30t-73.5 -42t-55.5 -53t-22 -62.5t27.5 -70.5q21 -27 49.5 -33.5t60.5 1t65 25.5t63 39.5t55 43.5t40 38q16 17 28 32.5t22 33.5q0 18 0.5 36.5t2.5 36.5z" />
    <glyph glyph-name="exclam" unicode="!" horiz-adv-x="177" 
d="M24 892q0 9 3.5 15.5t9.5 8.5t12.5 0t12.5 -10q26 -45 34 -100.5t6 -114.5t-9.5 -117t-10.5 -107q-2 -35 2.5 -66t7.5 -66q5 -40 3.5 -80.5t-6.5 -81.5q-3 -9 -9.5 -12.5t-13.5 -3t-12 5.5t-6 14q0 39 -6.5 77t-14 75.5t-14 75.5t-5.5 77q2 63 10 124t15 123
q1 12 3.5 28.5t4 33.5t1.5 33.5t-3 29.5q-2 11 -6.5 19.5t-8.5 18.5zM55 69q9 0 17 -6q10 10 21.5 7.5t21 -12t14 -24t1.5 -28t-16 -24t-40 -12.5q-33 -2 -48.5 14t-17 35.5t10.5 35.5t36 14zM88 21q-2 -1 -7 -1q1 -1 2 -1q13 -1 11 1t-6 1zM68 24q-1 0 -1 1q-2 -8 -1 -6
q2 2 2 5zM71 33l-1 -1l-1 -2v-1l1 1h1v3zM64 27q0 1 -1 1q0 -3 1 -2v1z" />
    <glyph glyph-name="quotedbl" unicode="&#x22;" horiz-adv-x="300" 
d="M182 830q1 9 7 14t12.5 5t12 -4t7.5 -13q17 -69 24 -134.5t-7 -136.5q0 -10 -6 -15.5t-13 -6t-13 4.5t-7 15q-7 34 -13 67.5t-9 67t-2.5 67.5t7.5 69zM20 835q1 9 7 14t12.5 5t12 -4t7.5 -13q11 -48 20 -98.5t4 -100.5q0 -2 -0.5 2t-1 9t-1 9t-0.5 1q1 -13 1.5 -20
t1.5 -12t3.5 -10.5t6.5 -15.5q2 -9 -0.5 -15.5t-8 -9.5t-12.5 -2t-14 7q-26 26 -38.5 56.5t-15 63.5t2.5 67t13 67z" />
    <glyph glyph-name="numbersign" unicode="#" horiz-adv-x="574" 
d="M5 297q-1 15 9 22t21 0q16 1 32.5 4t28.5 5q3 1 -1 0.5t-9.5 -1.5t-10 -1.5t-1.5 0.5l30 7q-3 32 -6 63t-5 63h1q-1 4 -1 12h-42q-7 0 -10.5 2.5t-6.5 -1.5q-16 -9 -27 2t-2 27q12 13 33 15q2 0 3.5 0.5t3.5 0.5q-3 0 0.5 1.5t10.5 3t16 3t17 3.5q-2 35 -2 70.5t3 71.5
q1 9 7 14t12.5 5t12 -4t7.5 -13q5 -34 12 -67l14 -66q17 2 32.5 2.5t30.5 1.5q40 1 81 0q1 35 3 70.5t5 70.5q1 9 7 14t12.5 5t12 -4t7.5 -13l10 -74l10 -74q32 -4 63.5 -8t63.5 -9q9 -2 13 -7.5t4 -12t-5 -12.5t-14 -7q-29 -3 -58 -5.5t-58 -4.5l12 -99h4q28 -3 41.5 -5
t22.5 -3.5t19 -1.5t33 2h4h3q9 -3 13 -8.5t4 -12t-5 -12t-14 -7.5q-29 -4 -57.5 -9t-57.5 -10q4 -28 6.5 -51t2.5 -43t-3.5 -39t-11.5 -39l-2 -4q-1 -2 -2 -3.5t-2 -3.5q-2 -2 -4 -3l-4 -2q-1 0 -1.5 -0.5t-1.5 -0.5h-7l-1 1q-2 0 -2.5 0.5t-1.5 0.5l-3 2q-1 0 -3 2l-1 1
l-3 4l-1 1q0 1 -0.5 2t-0.5 2q-1 1 -1 3t-0.5 2.5t-0.5 1.5q0 4 1 7q7 37 -1 70.5t-20 74.5q-38 -7 -77 -13t-77 -8q-4 -29 -9 -58t-11 -57q-3 -8 -9 -12t-12.5 -3.5t-11.5 5.5t-6 14q0 27 -1.5 54.5t-3.5 54.5q-21 1 -42 3t-41 7q-13 1 -21 14q0 3 -1 4zM176 415
q2 -17 2 -32.5v-32.5q33 7 66.5 12.5t65.5 8.5q0 2 -0.5 5t-0.5 5q-6 44 -9 88q-32 -1 -65 -1.5t-66 0.5q2 -13 3.5 -26t3.5 -27z" />
    <glyph glyph-name="dollar" unicode="$" horiz-adv-x="445" 
d="M135 826q1 9 7 14t12.5 5t12 -4t7.5 -13l6 -80q42 -4 84 -14.5t84 -15.5q9 -2 13 -7.5t4 -12t-5 -12.5t-14 -7q-42 0 -81.5 7t-79.5 8q5 -55 9 -110t6 -110q28 -15 55.5 -29t53 -31.5t47 -41.5t36.5 -58q24 -54 13 -91t-43.5 -60t-78 -33.5t-88.5 -10.5h-1
q-2 -20 -3.5 -44t1.5 -42q-1 -16 -13 -21t-24 7l-3 5v1l-2 3q-6 12 -1 20q-2 19 -4 37.5t-4 36.5q-21 2 -41.5 7t-43.5 11q-11 4 -20.5 11t-20.5 13q-5 5 -6 8.5t-3 9.5l2 23q1 9 7 14t12.5 5t12 -4t7.5 -13v-12q20 -10 42.5 -15.5t47.5 -7.5q-5 66 -8 130.5t-5 130.5
q-29 19 -55 41t-47 52q-16 22 -20 52.5t2 60t22 55t42 37.5q15 8 30.5 11.5t31.5 5.5zM324 288q-2 -2 -2 0t-4 9q-4 4 -3 5q-2 4 -6 9t-11 12q1 -2 -1 0.5t-4 4.5l4 -3q-2 4 -6.5 9.5t-4.5 1.5q-20 15 -41.5 28t-42.5 25v-43q0 -88 -3 -173q30 3 58 11.5t51 22.5
q16 10 20.5 26t3 31.5t-6.5 26.5t-9 11h-1q1 -2 2 -2.5t1 -2.5q3 -2 5.5 -4.5t0.5 -4.5zM124 521q0 42 1 83t3 83q-4 -2 -8.5 -2.5t-9.5 -2.5q-26 -10 -32.5 -34.5t-4.5 -50.5q2 -19 11 -33.5t23 -27.5zM293 328q-2 2 -4.5 3t-2.5 4h1z" />
    <glyph glyph-name="percent" unicode="%" horiz-adv-x="788" 
d="M237 712q0 -2 0.5 -2.5t0.5 -2.5q16 -11 32.5 -22t30 -24.5t23.5 -30.5t13 -39q4 -31 -8.5 -55.5t-35 -41t-52.5 -25.5t-60.5 -10.5t-59.5 5.5t-49 22q-26 19 -45.5 50.5t-25.5 65.5t4.5 66t44.5 52q20 12 47 22t54 12.5t50 -6.5t36 -36zM628 452q19 -2 36 -8t33 -20
q32 -30 45 -61.5t11 -61t-18 -54t-43 -40t-62 -20t-76 7.5q-40 12 -64 41.5t-32 66t0.5 74.5t34.5 66q9 11 21 17.5t24 13.5q7 5 23 9t31.5 3t26.5 -8t9 -24v-2zM491 792q9 3 16.5 0.5t11 -8.5t2.5 -13t-8 -13q-2 -2 -2 -4q-2 -9 -3.5 -18.5t-3.5 -19.5q-5 -34 -14.5 -70
t-20.5 -68q-32 -90 -67 -175t-79 -170q-19 -36 -41 -70t-41 -71l-2 -6q-6 -7 -13.5 -8.5t-13.5 1t-9.5 8.5t-2.5 15v1l1 2q9 31 22 60t24 58q38 97 79 192.5t81 192.5q1 2 6 15.5t12.5 33.5t16.5 42.5t18 42.5t17 34t14 16zM203 683q-7 7 -7 15q-10 9 -25 8.5t-30.5 -6.5
t-29.5 -14.5t-21 -16.5q-11 -11 -14.5 -21.5t-3 -21.5t5 -23t9.5 -25q8 -21 35 -31.5t58 -10.5t58 9t35 27q8 17 1.5 33t-19.5 30.5t-28 26.5t-24 21zM587 416q-12 7 -14 19l-9 -4q-29 -16 -39 -44.5t-2 -56t33 -47t66 -17.5q27 1 42.5 13.5t20.5 30.5t-1.5 38.5t-24.5 37.5
q-10 9 -17.5 14t-15 7.5t-17 4t-22.5 4.5z" />
    <glyph glyph-name="ampersand" unicode="&#x26;" horiz-adv-x="549" 
d="M488 -44q-16 -2 -23.5 8.5t0.5 21.5l-3 7q-20 26 -43.5 48t-47.5 45q-32 -33 -72.5 -54.5t-87.5 -27.5q-20 -3 -44.5 -3.5t-47.5 4t-43.5 15t-33.5 31.5q-9 16 -19 31.5t-15 32.5q-9 29 -2 59.5t25 62t43.5 63.5t52.5 63q0 1 -0.5 1.5t-0.5 1.5q-16 21 -32.5 43
t-32.5 45.5t-29 48t-22 49.5q-9 27 -3.5 53t20.5 49.5t36 43t41 34.5q11 8 25 11.5t28 6.5q20 6 40 3t39 -11t36 -20t31 -25q12 -11 21 -26.5t13 -32.5q12 -47 6 -86t-24.5 -73t-45.5 -65t-57 -61q37 -51 75 -99.5t80 -95.5q38 50 48 112q1 10 7.5 14.5t13.5 4t12.5 -6.5
t5.5 -16q-4 -38 -18 -74.5t-37 -68.5q3 -4 6.5 -7t7.5 -7q1 -1 12 -11.5t24.5 -25.5t27 -33t21 -34.5t5.5 -29.5t-19 -19zM275 81q33 16 60 39l-19 20q-38 40 -73.5 82t-70.5 85q-5 -6 -10 -11.5t-10 -11.5q-11 -14 -26 -31.5t-28 -38t-20 -41.5t-3 -42q6 -32 32 -53
q3 -2 7.5 -3.5t9 -2.5t7 -3t1.5 -5q11 -2 21.5 -2.5t21.5 -2.5h-15q30 0 59 4t56 18zM76 592q3 -24 13 -47.5t24 -46t29.5 -44t29.5 -40.5q33 38 59.5 72.5t35.5 66.5q6 22 0.5 45t-19.5 41.5t-34.5 28.5t-44.5 7q-11 -2 -18 -4.5t-13 -6t-12 -9.5t-15 -13
q-10 -11 -18.5 -23.5t-16.5 -26.5z" />
    <glyph glyph-name="quotesingle" unicode="'" horiz-adv-x="145" 
d="M20 842q1 9 7 14t12.5 5t12 -4t7.5 -13q13 -42 20.5 -81.5t-0.5 -84.5q-1 -5 -2 -15.5t-4 -20.5t-8 -17.5t-14 -7.5q-15 -2 -22.5 7t-2.5 19q-14 53 -17 99t11 100zM36 653l4 2h-3z" />
    <glyph glyph-name="parenleft" unicode="(" horiz-adv-x="401" 
d="M261 820q7 5 15 8.5t16 8.5q9 14 23 9.5t14 -21.5q-2 -8 -7 -13.5t-11 -9.5t-12 -7.5t-12 -9.5q-18 -18 -42 -36.5t-49 -42.5t-47 -54.5t-37 -72.5q-10 -30 -16.5 -72.5t-8 -91t1.5 -100t11.5 -98.5t23 -87t34.5 -66q16 -20 34.5 -35t37.5 -30q-5 2 -10.5 6t-2.5 2
l16 -11l-1 1l1 -1l71 -46l25 -18l12 -9q1 0 3 -0.5t1 -0.5q-2 0 -4.5 1t-1.5 0q9 -2 13 -7.5t4 -12t-5 -12.5t-14 -7q-8 0 -24 7.5t-34 17.5t-33.5 19.5t-22.5 12.5q-38 21 -73 46.5t-61 60.5q-16 23 -27 54.5t-19 55.5q-15 53 -24.5 110t-10.5 114.5t8 113.5t30 109
q23 55 59 96t84 73q18 12 36 23.5t36 22.5z" />
    <glyph glyph-name="parenright" unicode=")" horiz-adv-x="403" 
d="M92 -80q-7 -5 -15 -8.5t-16 -8.5q-9 -14 -23 -9.5t-14 21.5q4 16 17.5 22.5t24.5 17.5q18 18 42 36.5t49 42.5t47 54.5t37 72.5q10 30 16.5 72.5t8 91t-1.5 100t-11.5 98.5t-23 87t-34.5 66q-16 20 -34.5 35t-37.5 30q5 -2 10.5 -6t2.5 -2l-16 11l1 -1l-1 1l-71 46
l-25 18l-12 9q-1 0 -3 0.5t-1 0.5q2 0 4.5 -1t1.5 0q-9 2 -13 7.5t-4 12t5 12t14 7.5q8 0 24 -7.5t34 -17.5t33.5 -19.5t22.5 -12.5q38 -21 73 -46.5t61 -60.5q16 -23 27 -54.5t19 -55.5q15 -53 24.5 -110t10.5 -114.5t-8 -114t-30 -108.5q-23 -55 -59 -96t-84 -73
q-18 -12 -36 -23.5t-36 -22.5z" />
    <glyph glyph-name="asterisk" unicode="*" horiz-adv-x="541" 
d="M104 624q-6 7 -7 14t2 12.5t9.5 8t15.5 0.5q19 -8 39.5 -22t41.5 -33l7 71l4 42q1 1 1 3v0q2 -6 2.5 -7t0 1t-1.5 5.5t-1 5.5q-7 7 -6.5 15t5 13.5t12 6.5t16.5 -5q8 -5 13 -15t7 -21.5t3 -22.5t1 -18q2 -25 4 -48.5t4 -47.5q29 23 58.5 40.5t58.5 28.5q10 4 17.5 0.5
t10.5 -9.5t1 -14t-11 -13q-24 -17 -45 -38.5t-41 -44.5q51 -2 102 -9q3 0 -1 0h-10h-10.5t-1.5 0q14 -2 35 -3.5t36 1.5q18 0 22.5 -14.5t-11.5 -23.5q-16 -8 -34 -10t-35 -5q-20 -4 -40.5 -6t-40.5 -4q20 -27 35.5 -50.5t23.5 -38.5q4 -7 4 -14.5t-4 -12.5t-10.5 -7
t-15.5 3q-1 1 -2 1q-2 1 -4 5l-24 23q-35 24 -66 54q-1 -23 -2.5 -46.5t-1.5 -46.5q-1 -11 -2.5 -24.5t0.5 -25.5h-1v-6q-5 -17 -18.5 -16.5t-21.5 14.5q-8 36 -14.5 70t-10.5 72q-26 -21 -51.5 -42t-45.5 -46q-7 -8 -14.5 -9t-13.5 3.5t-8 12.5t3 17q13 26 32.5 54t43.5 57
q-31 2 -61.5 5.5t-62.5 7.5q-10 1 -15 7t-4.5 13t6 13t15.5 6q38 5 76 9t76 7q-27 36 -52 76q-2 2 0.5 -0.5t6.5 -7.5q-13 18 -28 29z" />
    <glyph glyph-name="comma" unicode="," horiz-adv-x="165" 
d="M35 -3q-9 -2 -15.5 1.5t-9.5 9t-1.5 12.5t8.5 13q11 8 19 16t19 16q9 0 14.5 -1.5t13.5 -6.5q20 -14 30 -43.5t8.5 -60t-15 -56.5t-39.5 -34q-17 -3 -24.5 9.5t3.5 24.5q-1 2 1 8q-6 22 -3.5 46t-1.5 47q-4 0 -7 -1z" />
    <glyph glyph-name="hyphen" unicode="-" horiz-adv-x="342" 
d="M21 383q-10 1 -15 7t-4.5 13t6 13t15.5 6q73 14 135 11.5t133 -19.5q9 -2 13 -7.5t4 -12t-5 -12.5t-14 -7q-69 -14 -133.5 -10.5t-134.5 18.5z" />
    <glyph glyph-name="period" unicode="." horiz-adv-x="196" 
d="M33 20q-10 -1 -16.5 4.5t-8 12t2 13.5t14.5 9q19 17 36.5 23.5t42.5 -1.5v-3l7 3q22 -7 22.5 -26t-19.5 -29q-19 -18 -38.5 -16t-42.5 10z" />
    <glyph glyph-name="slash" unicode="/" horiz-adv-x="303" 
d="M230 760q9 16 23.5 11.5t14.5 -22.5q-20 -82 -36.5 -164.5t-38.5 -164.5q-22 -83 -49.5 -160.5t-61.5 -156.5q-7 -17 -10.5 -28t-7 -19.5t-7.5 -17t-13 -21.5q-8 -11 -19 -9t-18 14q0 3 -2 7q-1 12 7 20q25 89 48.5 179t49 179.5t55 178t65.5 174.5z" />
    <glyph glyph-name="plus" unicode="+" horiz-adv-x="468" 
d="M24 320q-10 1 -15 7t-4.5 13t6 13t15.5 6l58 9q3 1 -1.5 0.5t-10.5 -1.5t-10.5 -1.5t-1.5 0.5q26 6 53 10.5t54 6.5q0 80 9 163q1 9 7 14t12.5 5t12 -4t7.5 -13q6 -41 13 -81t12 -81q87 0 171 -12q9 -2 13 -7.5t4 -12t-5 -12.5t-14 -7q-43 -7 -82.5 -12.5t-79.5 -8.5
q1 -5 1 -11v-11q0 -20 -4 -40.5t-8.5 -41t-7 -40.5t0.5 -38q4 -6 5 -10q2 -8 -0.5 -13t-7.5 -11q-22 -13 -33 10q-9 16 -12 33.5t-4 36t-0.5 37.5t-1.5 37q-2 15 -3 29.5t-2 29.5q-70 -1 -146 9z" />
    <glyph glyph-name="semicolon" unicode=";" horiz-adv-x="175" 
d="M35 -3q-9 -2 -15.5 1.5t-9.5 9t-1.5 12.5t8.5 13q11 8 19 16t19 16q9 0 14.5 -1.5t13.5 -6.5q20 -14 30 -43.5t8.5 -60t-15 -56.5t-39.5 -34q-17 -3 -24.5 9.5t3.5 24.5q-1 2 1 8q-6 22 -3.5 46t-1.5 47q-4 0 -7 -1zM57 529q11 0 19 -8l8 8q0 -16 -2 -28.5t-7 -27.5
q-1 -6 -5 -15t-8.5 -17.5t-9 -15t-5.5 -8.5q-3 -8 -9 -12t-12.5 -3.5t-11.5 5.5t-6 14q-14 31 -10.5 58t35.5 44q8 5 10.5 6.5t13.5 -0.5z" />
    <glyph glyph-name="colon" unicode=":" horiz-adv-x="150" 
d="M57 529q11 0 19 -8l8 8q0 -16 -2 -28.5t-7 -27.5q-1 -6 -5 -15t-8.5 -17.5t-9 -15t-5.5 -8.5q-3 -8 -9 -12t-12.5 -3.5t-11.5 5.5t-6 14q-14 31 -10.5 58t35.5 44q8 5 10.5 6.5t13.5 -0.5zM23 90q-1 10 4.5 16.5t12 8t13.5 -2.5t9 -14q17 -19 23.5 -36.5t-1.5 -42.5h-3
l3 -7q-7 -22 -26 -22.5t-29 19.5q-18 19 -16 38.5t10 42.5z" />
    <glyph glyph-name="fraction" unicode="&#x2044;" horiz-adv-x="471" 
d="M394 683q13 13 25.5 5.5t8.5 -25.5q-40 -75 -75.5 -150.5t-77.5 -150.5q-41 -75 -86.5 -143t-97.5 -137q-11 -15 -17 -24.5t-11.5 -17.5t-11.5 -15.5t-18 -17.5q-11 -8 -21 -3.5t-14 17.5q2 3 0 8q1 12 12 17q46 81 90.5 162.5t91 162.5t96.5 159.5t106 152.5z" />
    <glyph glyph-name="less" unicode="&#x3c;" horiz-adv-x="618" 
d="M469 577q0 -14 -8.5 -19t-17.5 -2q-2 -1 -3 -1t-2 -1q-6 -5 -12 -8.5t-12 -7.5q-69 -57 -140 -111t-142 -109q17 -6 34 -12.5t34 -11.5q70 -23 135 -49.5t126 -67.5q8 -5 23 -12.5t30.5 -16t28 -17t15.5 -14.5q6 -9 5 -16.5t-6.5 -12t-14 -4.5t-15.5 7q-5 6 -12.5 7.5
t-18.5 5.5q3 -2 6 -3t1 0q-27 8 -53.5 24t-52.5 27q-20 9 -41 16l-42 14q-57 19 -115 36l-116 34q-7 2 -17.5 3t-16.5 3q-1 0 -1 1h-4q-16 2 -25.5 10t-12.5 19t1 23t15 22q84 59 167 116.5t170 110.5q5 3 22.5 14.5t37 19.5t35 6.5t15.5 -23.5zM66 257q1 1 -5.5 1t-11.5 1
q2 -1 8 -2.5t9 0.5zM399 528q-2 -1 0 0t5 3z" />
    <glyph glyph-name="equal" unicode="=" horiz-adv-x="615" 
d="M43 241q-9 -5 -17 -3t-12.5 8t-3.5 13.5t9 14.5q14 12 34 16.5t42 6t42.5 1.5t35.5 5h1v1q54 5 108 7.5t108 0.5q38 -2 75 -8.5t75 -6.5q10 0 16 -5.5t6.5 -12.5t-4 -13.5t-14.5 -7.5q-23 -7 -50.5 -8t-50.5 -3q-70 -7 -139 -10.5t-141 -2.5q-23 1 -46.5 4t-46.5 4
q-26 2 -27 -1zM43 414q-10 -2 -16.5 2.5t-8.5 11t1 13.5t13 11q42 17 84.5 21t87.5 6q-1 0 -0.5 0.5t1.5 0.5q70 12 143.5 10t143.5 -11q9 -2 13 -7.5t4 -12t-5 -12.5t-14 -7q-58 -8 -115 -19t-116 -14q-35 -2 -67 0t-60 4t-50.5 3.5t-38.5 -0.5zM132 300q-5 0 0.5 0.5
t14.5 1.5t17 1.5t10 0.5zM229 481q-2 0 -5.5 -0.5t-8.5 -0.5q9 0 14 1z" />
    <glyph glyph-name="greater" unicode="&#x3e;" horiz-adv-x="619" 
d="M98 577q0 22 15.5 23.5t35 -6.5t37 -19.5t22.5 -14.5q87 -53 170 -110.5t167 -116.5q11 -10 15 -22t1 -23t-12.5 -19t-25.5 -10h-4q0 -1 -1 -1q-6 -2 -16.5 -3t-17.5 -3l-116 -34t-115 -36l-42 -14t-41 -16q-26 -11 -52.5 -27t-53.5 -24q-2 -1 1 0t6 3q-11 -4 -18.5 -5.5
t-12.5 -7.5q-8 -7 -16 -7t-13.5 4.5t-6.5 12t5 16.5q3 6 15.5 14.5t28 17t30.5 16t23 12.5q61 41 126 67.5t135 49.5q17 5 34 11.5t34 12.5q-71 55 -142 109t-140 111q-6 4 -12 7.5t-12 8.5q-1 1 -2 1t-3 1q-9 -3 -17.5 2t-8.5 19zM501 257q3 -2 9 -0.5t8 2.5
q-5 -1 -11.5 -1t-5.5 -1zM168 528l-5 3q3 -2 5 -3t0 0z" />
    <glyph glyph-name="question" unicode="?" 
d="M33 767q-6 -7 -13 -8.5t-12.5 1.5t-9 9.5t-1.5 15.5q8 19 35.5 36.5t60 31t62 23t41.5 13.5q26 8 57.5 1.5t56.5 -17.5q48 -21 82 -60.5t50 -87t12.5 -99.5t-29.5 -98q-12 -22 -31 -38.5t-37 -34.5q-11 -10 -24.5 -15.5t-28.5 -8.5t-30.5 -5.5t-29.5 -6.5
q-11 -4 -28.5 -8t-36.5 -7q7 -21 11.5 -35.5t7.5 -27.5t4 -27.5t1 -35.5q0 -2 -0.5 1.5t-1.5 8t-1.5 8t-0.5 0.5q0 -10 3.5 -28t7.5 -28q3 -9 0 -16.5t-9 -11t-13.5 -2.5t-14.5 8q-27 27 -38.5 51t-13.5 46.5t1 44.5t5 44q-2 1 -3 1t-2 1q-16 10 -13 27l3 6q5 9 13 11t15 -2
q8 3 18 -2q18 4 36 10.5t32 12.5q23 9 46 16.5t43 21.5q39 27 53 71t8 89t-31.5 84.5t-66.5 57.5q-18 8 -37 12.5t-39 2.5q-19 -1 -46.5 -8t-54 -16t-46 -18.5t-22.5 -14.5zM214 84q10 -9 10 -19q2 -2 2.5 -4.5t2.5 -6.5q7 -16 -0.5 -32.5t-22 -26.5t-33 -9t-31.5 19
q-14 18 -9.5 41t17.5 38.5t31 18t33 -18.5zM199 47l-5 2q-3 1 -5.5 2.5t-5.5 1.5l1 -2q2 0 5 -0.5t3 -2.5l-1 -1q1 0 1 -1v-1q2 2 4 0q1 0 -3 -4v-1zM181 47h1v-1q0 1 -1 1zM187 47q1 0 1 1h-1v-1zM184 43v-1h1z" />
    <glyph glyph-name="at" unicode="@" horiz-adv-x="769" 
d="M498 299q-2 -31 -13.5 -61.5t-26.5 -47.5l-2 -2q24 -1 47.5 6t43.5 16q28 12 47.5 21.5t31.5 22.5t17 32t4 50q0 14 -2 30t-8 28q-11 20 -20.5 41t-25.5 37q-28 29 -67 46.5t-83 24t-90.5 3t-90 -16.5t-80.5 -34t-63 -50q-33 -37 -45.5 -80t-8 -86t23 -84t47.5 -76
t66 -61.5t78 -39.5q35 -12 70 -13t69.5 5t68.5 17t67 24q10 4 17.5 1t11 -9.5t1 -14.5t-11.5 -13l-6 -5q-5 -11 -14 -13t-17 3q-33 -13 -66.5 -23.5t-68 -15.5t-69.5 -4t-72 12q-52 15 -97.5 47t-80 74.5t-56 93.5t-25.5 104t11 105t54 98q40 47 100.5 77.5t128.5 43
t138 6.5t129.5 -32.5t102 -75t56.5 -119.5q6 -28 7 -58.5t-6 -59.5q-4 -17 -11.5 -35t-20.5 -32q-19 -20 -52 -39t-70.5 -32.5t-74.5 -19t-64 2.5q-11 4 -20.5 9.5t-19.5 11.5q-3 1 -7 5q-20 -6 -41 -9.5t-41 -3t-37.5 6t-29.5 16.5q-13 12 -21.5 21t-14.5 18t-10.5 20.5
t-10.5 28.5q-10 32 -3 67t26 65t47 51t61 25q32 5 62.5 -0.5t60.5 -14.5q24 -7 44 -19.5t31.5 -30t12 -39t-15.5 -45.5zM363 209q0 28 7 59.5t19 57t28 40.5t35 11q-8 5 -16.5 8t-16.5 6q-27 9 -54 12t-51.5 -3t-44.5 -22t-33 -46q-8 -17 -9.5 -37t2.5 -38q6 -25 19.5 -38.5
t31 -18t37.5 -2.5t40 7q-1 2 6 4zM566 12l-1 -1q1 0 1 1z" />
    <glyph glyph-name="bracketleft" unicode="[" horiz-adv-x="295" 
d="M169 798q9 -2 13 -7.5t4 -12t-5 -12.5t-14 -7q-24 -1 -48.5 1t-48.5 0q1 -10 2 -26t1.5 -31t0.5 -26v-12q2 -42 4 -82.5t7 -82.5q5 -50 7 -98.5t7 -98.5q6 -69 6 -143t-14 -141q-1 -2 -1 -0.5t0.5 5.5t1 8.5t0.5 7.5l-3 -39q19 -5 30.5 -7t22.5 -1.5t25.5 2t38.5 3.5
q10 0 16 -5.5t6.5 -12.5t-4 -13.5t-14.5 -7.5q-17 -5 -36 -7t-37 -4q-42 -3 -64 2t-31.5 20.5t-9.5 42t2 64.5q3 54 0 107t-11 106q-1 7 -0.5 19.5l1 25t1 24t-0.5 17.5q-11 72 -14 143t-1 143q0 9 -1 29.5t0 43.5t6 43t17 27q11 6 29.5 6.5t38.5 -2t39 -6.5t31 -5z" />
    <glyph glyph-name="backslash" unicode="\" horiz-adv-x="324" 
d="M42 24q-9 -16 -23.5 -11.5t-14.5 22.5q20 82 36.5 164.5t38.5 164.5q22 83 49.5 160.5t61.5 156.5q7 17 10.5 28t7 19.5t7.5 17t13 21.5q8 11 19 9t18 -14q0 -3 2 -7q1 -12 -7 -20q-25 -89 -48.5 -179t-49 -179.5t-55 -178t-65.5 -174.5z" />
    <glyph glyph-name="bracketright" unicode="]" horiz-adv-x="277" 
d="M65 -37q-9 2 -13 7.5t-4 12t5 12t14 7.5q24 1 48.5 -1t48.5 0q-1 10 -2 25.5t-1.5 30.5t-0.5 26.5v12.5q-2 42 -4 82.5t-7 82.5q-5 50 -7 98.5t-7 98.5q-6 69 -6 143t14 141q1 4 0.5 -5t-1.5 -16l3 39q-19 5 -30.5 7t-22.5 1.5t-25.5 -2t-38.5 -3.5q-10 0 -16 5.5
t-6.5 12.5t3.5 13t15 8q17 5 36 7t37 4q42 3 64 -2t31.5 -20.5t9.5 -42t-2 -64.5q-3 -54 0 -107t11 -106q1 -8 0.5 -20t-1 -24.5t-1 -24t0.5 -17.5q11 -72 14 -143t1 -143q0 -9 1 -29.5t0 -43.5t-6 -43t-17 -27q-11 -6 -29.5 -6.5t-39 2t-39 6t-30.5 5.5z" />
    <glyph glyph-name="asciicircum" unicode="^" horiz-adv-x="557" 
d="M35 366q-18 -3 -24.5 10t4.5 23q5 11 12.5 23t15.5 23t14.5 19.5t8.5 11.5q28 44 56 86.5t55 87.5v1q14 24 27.5 45t33.5 38q15 5 25 3.5t23 -9.5q10 -11 17 -23t12.5 -25l11 -26t13.5 -25q17 -24 40 -43.5t42 -42.5q23 -26 34.5 -54t25.5 -59q5 -10 9.5 -18.5t9.5 -16.5
q0 -1 1 -1q1 -2 1 -3t1 -2l5 -11q2 -5 4 -15q0 -1 1 -1q-2 -21 -17.5 -24t-26.5 14v1q-1 7 -6 17q-13 18 -22 32t-16 25.5t-13.5 21t-13.5 18.5q-2 3 -12 13.5t-21 22t-21 20.5t-11 9t-1 -1l20 -17q2 -2 -1 0t-7 5t-8 6.5t-4 5.5q-17 15 -34.5 31.5t-28.5 35.5q-5 8 -8.5 16
t-7.5 16q-29 -51 -69 -96t-77 -88l-55 -65q-5 -5 -7.5 -9t-10.5 -6z" />
    <glyph glyph-name="underscore" unicode="_" 
d="M22 -69q-10 1 -15 7t-4.5 13t6 13t15.5 6q84 4 166 9t165 5q26 0 51.5 -5t51.5 -9q9 -2 13 -7.5t4 -12t-5 -12.5t-14 -7q-26 -4 -52 -9t-52 -5q-83 0 -165 5t-165 9z" />
    <glyph glyph-name="grave" unicode="`" horiz-adv-x="221" 
d="M13 712q-9 5 -11.5 12.5t-0.5 14t9 10.5t17 1q30 -1 49.5 -13t33.5 -29.5t26.5 -38t28.5 -38.5q11 -7 11 -21v-3q-2 -10 -12 -15t-28.5 3.5t-38.5 23.5t-37.5 32.5t-23.5 31.5q-1 2 1 -1t5 -6.5t5.5 -6.5t1.5 -1q-4 10 -15.5 24.5t-20.5 19.5z" />
    <glyph glyph-name="braceleft" unicode="{" horiz-adv-x="308" 
d="M17 421q-12 1 -16.5 9t-1.5 16q-2 7 1 14.5t13 11.5q10 2 13.5 2.5t5.5 1.5t5 3.5t12 8.5q12 8 27 23q5 10 10 16.5t8 12t3.5 12.5t-2.5 18q-6 19 -21.5 41t-30.5 45.5t-23.5 48t1.5 49.5q6 14 16.5 30t24.5 23q8 4 35 15.5t58 20.5t59 11t37 -13q6 -8 5 -15.5t-5.5 -12
t-11.5 -6t-14 3.5q-6 0 -15 -4q3 1 8 2t3 0q-14 -8 -34 -13.5t-39 -13t-34.5 -19t-19.5 -30.5q-1 -5 8.5 -23.5t21.5 -41t23.5 -43.5t14.5 -30q9 -21 6.5 -41.5t-13 -39t-27 -33.5t-35.5 -26q17 -10 33.5 -19.5t33.5 -20.5q21 -14 31 -42t12 -63.5t-1.5 -74t-8.5 -73.5
t-10.5 -63t-7.5 -42t-2.5 -28.5t1.5 -28.5q3 -18 9 -26.5t15 -13.5t21.5 -7.5t27.5 -8.5q10 -2 14 -9t2.5 -13.5t-8 -12t-16.5 -4.5q-18 4 -36.5 6.5t-36.5 6.5q-4 2 -8 5t-6 5q-21 28 -32 50.5t-15 44t-2.5 43t6 47t9.5 56t9 69.5q8 91 -18 139.5t-92 43.5z" />
    <glyph glyph-name="bar" unicode="|" horiz-adv-x="140" 
d="M29 805q1 9 7 14t12.5 5t12 -4t7.5 -13q4 -63 5 -124.5t3 -124.5q0 -5 0.5 2t0.5 16.5v16t0 2.5q2 -80 1.5 -159.5t5.5 -160.5q2 -23 5.5 -47t4.5 -48q4 -50 -1.5 -100t-9.5 -99q0 -4 -1 -6v-2l-3 -6l-7 -6q-9 -5 -20 1q-2 1 -2.5 2t-1.5 2q-2 2 -2 3q-2 2 -2 3
q-1 1 -1 3q-1 1 -1 4q-3 47 -4.5 93t-8.5 93v-2q-11 24 -13 53.5t-5 55.5q-7 67 -7 134t4 133.5t10 132.5t11 133z" />
    <glyph glyph-name="braceright" unicode="}" horiz-adv-x="326" 
d="M253 421q-66 5 -92 -43.5t-18 -139.5q5 -59 13.5 -99t10.5 -73t-8 -64.5t-41 -73.5q-2 -2 -6 -5t-8 -5q-18 -4 -36.5 -6.5t-36.5 -6.5q-10 -1 -16.5 4.5t-8 12t2 13.5t14.5 9q15 6 27 8.5t21 7.5t15.5 13.5t9.5 26.5q2 14 1.5 28.5t-2.5 28.5t-7.5 42t-10.5 63t-8.5 73.5
t-1.5 74t12 63.5t31 42q17 11 33.5 20.5t33.5 19.5q-20 11 -36 26t-26.5 33.5t-13 39t6.5 41.5q3 9 14.5 30t23.5 43.5t21.5 41t8.5 23.5q-5 19 -20 30.5t-34 19t-39 13t-34 13.5q-2 1 3 0t8 -2q-9 4 -15 4q-7 -5 -14 -3.5t-11.5 6t-5.5 12t5 15.5q9 15 37 13t59 -11
t58 -20.5t35 -15.5q14 -7 24.5 -23t16.5 -30q10 -25 1.5 -49.5t-23.5 -48t-30.5 -45.5t-21.5 -41q-3 -11 -2.5 -18t3.5 -12.5t8 -12t10 -16.5q15 -15 27 -23q9 -6 12 -8.5t5 -3.5t5.5 -1.5t13.5 -2.5q10 -4 13 -11.5t1 -14.5q3 -8 -1.5 -16t-16.5 -9z" />
    <glyph glyph-name="asciitilde" unicode="~" horiz-adv-x="554" 
d="M16 402q7 5 12 5l2 2q20 17 39 34.5t39 34.5q14 12 38.5 15t43.5 0q34 -5 56.5 -25.5t40 -46.5t35 -53t41.5 -43q9 -6 22 -4.5t25 7.5t21.5 15t12.5 18q0 1 1.5 9.5t5 21t9.5 26t15 24.5q7 6 14.5 6t12.5 -4t7 -10.5t-1 -15.5q-5 -8 -6 -9t-3 -6h1q4 -15 -0.5 -38.5
t-11.5 -39.5q-12 -26 -27 -40.5t-33 -22t-38.5 -8.5t-43.5 1q-7 1 -12 1.5t-10 5.5q-13 11 -25.5 21.5t-23.5 23.5q-8 10 -19 28.5t-24 36.5t-27.5 33t-28.5 18q-23 5 -41 -2.5t-34.5 -19.5t-33 -25t-35.5 -19q-17 -4 -28 14v2q-1 11 4 20l8 9v0z" />
    <glyph glyph-name="quoteleft" unicode="&#x2018;" horiz-adv-x="207" 
d="M120 837q5 9 13 11t14 -1t9.5 -10.5t-0.5 -17.5q-7 -21 -23 -46t-32 -51t-26.5 -51.5t-5.5 -47.5q2 -8 6 -16.5t7 -16.5q2 -9 -0.5 -15.5t-8 -9.5t-12.5 -2t-14 7q0 1 -5 5t-11 10t-11.5 13t-6.5 12q-11 34 -7 67t19 62.5t39 53.5t54 42l2 2v0z" />
    <glyph glyph-name="quoteright" unicode="&#x2019;" horiz-adv-x="187" 
d="M30 837l2 -2q30 -18 54 -42t39 -53.5t19 -62.5t-7 -67q-2 -5 -7 -12t-11 -13t-11 -10t-5 -5q-7 -6 -14 -7t-12.5 2t-8 9.5t-0.5 15.5q3 8 7 16.5t6 16.5q4 22 -6 47.5t-26 51.5t-32 51t-23 46q-4 10 -0.5 17.5t9.5 10.5t14 1t13 -11z" />
    <glyph glyph-name="quotedblleft" unicode="&#x201c;" horiz-adv-x="276" 
d="M117 829q0 -13 -8 -18l-8 -29q-5 -16 -11.5 -31.5t-13.5 -31.5l-1 -1q-6 -18 -5 -32.5t21 -29.5q8 -6 10 -12.5t0 -12.5t-8.5 -9.5t-15.5 -3.5q-36 7 -55.5 27.5t-24 46.5t5 54.5t31.5 52.5q-2 -2 -2.5 -3.5t1.5 -1.5q1 0 7.5 8.5t15 18.5t17 18.5t13.5 9.5q24 9 32 -15
q0 -3 -1 -5zM185 832q7 6 14.5 6t12.5 -4t7 -10.5t-1 -15.5q-9 -21 -12.5 -30t-5 -16t-1.5 -15.5t-1 -28.5q0 -6 0.5 -13t0.5 -14v-11.5v-4.5q8 -14 18 -23q8 -6 10 -12.5t0 -12.5t-8.5 -9.5t-15.5 -3.5q-44 9 -63 36t-19 60t17.5 66.5t46.5 55.5zM38 804l-4 -5zM197 704v4
v-4z" />
    <glyph glyph-name="quotedblright" unicode="&#x201d;" horiz-adv-x="279" 
d="M111 829q-1 2 -1 5q8 24 32 15q5 -1 13.5 -9.5t17 -18.5t15 -18.5t7.5 -8.5q2 0 1.5 1.5t-2.5 3.5q22 -24 31.5 -52.5t5 -54.5t-24 -46.5t-55.5 -27.5q-9 0 -15.5 3.5t-8.5 9.5t0 12.5t10 12.5q20 15 21 29.5t-5 32.5l-1 1q-7 16 -13.5 31.5t-11.5 31.5l-8 29q-8 5 -8 18
zM43 832q29 -22 46.5 -55.5t17.5 -66.5t-19 -60t-63 -36q-9 0 -15.5 3.5t-8.5 9.5t0 12.5t10 12.5q10 9 18 23v4.5v11.5t0.5 14t0.5 13q-2 20 -1.5 28.5t-1 15.5t-5 16t-12.5 30q-3 9 -1 15.5t7 10.5t12.5 4t14.5 -6z" />
    <glyph glyph-name="bullet" unicode="&#x2022;" horiz-adv-x="321" 
d="M113 514q11 5 19 -0.5t10 -13.5q30 4 60.5 -4t51 -25.5t25 -43t-16.5 -57.5q-32 -47 -84.5 -59.5t-103.5 10.5q-19 9 -37 25.5t-28.5 37t-10 43t17.5 43.5q12 14 25 21t25.5 10.5t24.5 5.5t22 7zM131 403q11 0 20.5 7t15.5 15q-15 2 -27 -2t-9 -20zM57 422q1 4 1 8t2 9
q-3 -5 -3 -7v-10z" />
    <glyph glyph-name="copyright" unicode="&#xa9;" horiz-adv-x="663" 
d="M330 572q11 0 17.5 -7t5.5 -15q9 6 20.5 6t23.5 -2.5t24 -6.5l21 -7q75 -21 113.5 -72t49.5 -127q4 -25 3.5 -58t-8 -66t-21.5 -61.5t-37 -44.5l-134 -87q-17 -11 -38 -16t-43 -6t-44 2t-41 9q-32 11 -61 30.5t-59 37.5q-21 13 -45 45.5t-42.5 71t-28.5 77t-3 64.5
q4 15 5 31.5t3.5 32.5t7.5 30t17 24q35 30 55.5 48t36 28t29.5 14.5t35 7.5t53.5 6t84.5 11zM371 514q-13 -2 -21 5t-6 17q-5 -3 -10 -3q-39 -9 -74 -13.5t-66 -14t-57.5 -28.5t-48.5 -56q-23 -39 -22 -82t18.5 -84t49 -77t71 -59.5t82.5 -32t84 4.5q104 34 148.5 111
t16.5 179q-14 53 -47.5 81t-82.5 43q-1 0 -6 2t-11 3.5t-11.5 3t-6.5 0.5zM352 404q6 -5 10.5 -10.5t9.5 -11.5q7 -1 12.5 -7t5.5 -16q0 -3 -1 -5q-3 -10 -9 -13t-17 -3q-9 0 -18 7t-17 12q-2 1 -4.5 2t-5.5 2l-9 -3q-15 -8 -22 -22q-5 -8 -10 -19q-2 -6 -1 -13t-4 -11
q-1 -1 -2 0q0 -9 4 -13q8 -10 21.5 -16t24.5 -12l19 -9q3 -1 8.5 -0.5t3.5 -2.5q-2 -2 -9.5 0t-4.5 0q13 -3 15 -2.5t5 7.5q9 16 23.5 11.5t14.5 -22.5q-3 -22 -19 -33.5t-39 -13t-49 5.5t-47 22t-35 38t-12 53q1 16 9 35t21 35.5t29.5 28.5t33.5 15q20 3 35.5 0.5
t29.5 -16.5z" />
    <glyph glyph-name="registered" unicode="&#xae;" 
d="M330 572q11 0 17.5 -7t5.5 -15q9 6 20.5 6t23.5 -2.5t24 -6.5l21 -7q75 -21 113.5 -72t49.5 -127q4 -25 3.5 -58t-8 -66t-21.5 -61.5t-37 -44.5l-134 -87q-17 -11 -38 -16t-43 -6t-44 2t-41 9q-32 11 -61 30.5t-59 37.5q-21 13 -45 45.5t-42.5 71t-28.5 77t-3 64.5
q4 15 5 31.5t3.5 32.5t7.5 30t17 24q35 30 55.5 48t36 28t29.5 14.5t35 7.5t53.5 6t84.5 11zM371 514q-13 -2 -21 5t-6 17q-5 -3 -10 -3q-39 -9 -74 -13.5t-66 -14t-57.5 -28.5t-48.5 -56q-23 -39 -22 -82t18.5 -84t49 -77t71 -59.5t82.5 -32t84 4.5q104 34 148.5 111
t16.5 179q-14 53 -47.5 81t-82.5 43q-1 0 -6 2t-11 3.5t-11.5 3t-6.5 0.5zM196 300q-3 32 -4 64.5t4 65.5q-3 5 -2 12t9 13q45 25 91.5 37.5t97.5 -4.5q19 -6 37 -16.5t29.5 -24.5t13 -32.5t-12.5 -39.5q-15 -23 -45.5 -39.5t-63.5 -29.5q13 -15 27 -29.5t19 -33.5
q1 -2 -0.5 1t-4 7.5t-4 8t-1.5 0.5q4 -14 12.5 -30.5t14.5 -30.5q6 -9 5 -16.5t-6.5 -12t-14 -4.5t-15.5 7q-35 20 -59 48t-27 66l-18 -7q-2 -1 -5 -1q0 -12 -1.5 -24.5t-5.5 -22.5q-2 -8 -6.5 -14.5t-7.5 -14.5q-1 -2 -1 -5t-2 -1v-3q-2 2 -1.5 4t-0.5 4t-0.5 -0.5
t0.5 -4.5l2 -7q5 -11 -2 -20t-21 -8q-14 5 -19 16.5t-5.5 25.5t1 28t0.5 23v-5t-0.5 -8t-1 -6.5t-0.5 -0.5q-2 13 -2 25.5t-1 26.5l-1 1v1q-1 3 -1 10v1zM241 423q8 -25 16.5 -49.5t13.5 -50.5q13 8 29 18t32.5 21.5t31.5 23.5t24 24q-11 10 -29 14.5t-39 5.5t-42 -1.5
t-37 -5.5zM249 201q1 2 1 5z" />
    <glyph glyph-name="space" unicode=" " 
 />
    <glyph glyph-name="a" unicode="a" horiz-adv-x="659" 
d="M587 490q10 -2 14 -9t2.5 -13.5t-8 -12t-16.5 -4.5q-65 12 -126.5 15t-127.5 -13q-42 -10 -86 -27t-79 -43q-26 -19 -50 -50.5t-36 -67t-6.5 -71.5t38.5 -64q25 -21 62.5 -28t81 -3t90 16t88.5 30q10 88 42 172q8 20 21 32.5t29.5 18t34.5 4t36 -10.5q21 -10 35 -32.5
t23 -43.5q5 -9 3.5 -17t-4.5 -16q-11 -27 -20 -47t-22 -36.5t-31.5 -31t-48.5 -28.5q-14 -7 -27.5 -14t-27.5 -14q-5 -44 -6 -83t1 -67q8 -5 10.5 -13.5t-5.5 -19.5q-1 0 -3 -2q-15 -10 -29 4q-9 9 -12.5 22.5t-5 28.5t-1 29t0.5 24v27.5t1 27.5q-2 0 -2.5 -0.5t-1.5 -0.5
q-55 -20 -119.5 -31t-124 -3t-107 41.5t-68.5 104.5q-7 26 -2.5 52.5t6.5 52.5q1 11 6.5 25t12.5 26.5t13.5 22.5t8.5 13q21 40 66.5 69.5t100.5 49t109.5 28t93.5 6.5q29 -1 45.5 -1.5t27 -1.5t17.5 -2t17 -3t25 -6.5t41 -10.5zM543 303q-20 -19 -34 -53.5t-23 -77.5
q49 28 75 55q8 8 10.5 18.5t6.5 20.5q-5 9 -11 17.5t-12 17.5q-8 2 -12 2z" />
    </font>
</defs>
</svg>
