<?xml version="1.0" standalone="no"?>
<!DOCTYPE svg PUBLIC "-//W3C//DTD SVG 1.1//EN" "http://www.w3.org/Graphics/SVG/1.1/DTD/svg11.dtd" >
<svg xmlns="http://www.w3.org/2000/svg" xmlns:xlink="http://www.w3.org/1999/xlink" version="1.1">
<metadata>
Created by FontForge 20170924 at Sun Oct 11 18:01:22 2020
 By www-data
Christmas Surprise (c) AEN Creative Studio 2020. All Rights Reserved
</metadata>
<defs>
<font id="ChristmasSurprise" horiz-adv-x="1088" >
  <font-face 
    font-family="Christmas Surprise"
    font-weight="400"
    font-stretch="normal"
    units-per-em="2048"
    panose-1="2 0 5 0 0 0 0 0 0 0"
    ascent="1638"
    descent="-410"
    x-height="1210"
    cap-height="1972"
    bbox="-726 -920 2761 3010"
    underline-thickness="150"
    underline-position="-292"
    unicode-range="U+000D-E213"
  />
<missing-glyph horiz-adv-x="1024" 
d="M100 0v1434h824v-1434h-824zM150 50q177 80 358 80t366 -80v1334q-192 -59 -373 -59t-351 59v-1334zM419 334l57 58q11 10 20 10q10 0 22 -11l56 -60q9 -11 9 -20q0 -11 -10 -22l-56 -62q-14 -14 -21 -14q-11 0 -20 10l-61 71q-7 9 -7 18q0 10 11 22zM413 1191
q53 30 112 30q92 0 148 -47.5t56 -127.5q0 -49 -23 -98.5t-87 -129.5q-63 -80 -99 -132t-36 -99q0 -38 24 -133h-32q-35 97 -35 148q0 76 81.5 218t81.5 217q0 57 -33 90t-91 33q-8 0 -16 -1l32 -51q5 -9 5 -17v-4q-2 -11 -14 -20l-66 -50q-16 -10 -23 -10h-1q-10 2 -17 14
l-47 81q-4 7 -4 14q0 2 1 5q1 10 28.5 32.5t54.5 37.5z" />
    <glyph glyph-name="uniE078" unicode="a__" horiz-adv-x="2957" 
 />
    <glyph glyph-name="uniE079" unicode="b__" horiz-adv-x="2739" 
 />
    <glyph glyph-name="uniE080" unicode="c__" horiz-adv-x="2884" 
 />
    <glyph glyph-name="uniE081" unicode="d__" horiz-adv-x="2942" 
 />
    <glyph glyph-name="uniE082" unicode="e__" horiz-adv-x="2862" 
 />
    <glyph glyph-name="uniE083" unicode="f__" horiz-adv-x="2802" 
 />
    <glyph glyph-name="uniE084" unicode="g__" horiz-adv-x="2811" 
 />
    <glyph glyph-name="uniE085" unicode="h__" horiz-adv-x="3044" 
 />
    <glyph glyph-name="uniE086" unicode="i__" horiz-adv-x="2406" 
 />
    <glyph glyph-name="uniE087" unicode="j__" horiz-adv-x="2182" 
 />
    <glyph glyph-name="uniE088" unicode="k__" horiz-adv-x="3110" 
 />
    <glyph glyph-name="uniE089" unicode="l__" horiz-adv-x="2403" 
 />
    <glyph glyph-name="uniE090" unicode="m__" horiz-adv-x="3531" 
 />
    <glyph glyph-name="uniE091" unicode="n__" horiz-adv-x="2997" 
 />
    <glyph glyph-name="uniE092" unicode="o__" horiz-adv-x="2722" 
 />
    <glyph glyph-name="uniE093" unicode="p__" horiz-adv-x="2731" 
 />
    <glyph glyph-name="uniE094" unicode="q__" horiz-adv-x="2781" 
 />
    <glyph glyph-name="uniE095" unicode="r__" horiz-adv-x="2983" 
 />
    <glyph glyph-name="uniE096" unicode="s__" horiz-adv-x="2836" 
d="M2 259q-5 15 -5 26q0 19 10 35.5t29 24.5l235 103q14 6 27 6q26 0 45.5 -19.5t19.5 -45.5q0 -19 -10.5 -35.5t-29.5 -24.5l-47 -21q5 -34 27 -55.5t52 -34.5t64.5 -18t62.5 -5q32 0 75 7t82 23.5t66.5 44.5t27.5 69l-1 16q-7 35 -26 60t-47 44.5t-63 34t-74 26.5
q-37 13 -78 29t-81 37.5t-77 48t-64.5 59t-44 71.5t-16.5 85q0 30 8 62q18 57 55.5 103.5t87 80t107 51.5t116.5 18q91 0 155 -44t90 -132l37 17q14 6 27 6q38 0 60 -39q6 -12 6 -26q0 -37 -39 -60l-234 -106q-13 -6 -27 -6q-37 0 -60 39q-6 14 -6 27q0 38 39 59l40 19
q-8 42 -28.5 59.5t-60.5 17.5q-28 0 -59.5 -9.5t-60 -26t-50.5 -40t-31 -51.5q-1 -4 -1.5 -7.5t-0.5 -8.5q0 -37 55 -83q42 -30 91.5 -51.5t101.5 -39.5q110 -34 199 -92q87 -57 118 -187q342 402 491 654q-19 23 -30.5 40.5t-19 32.5t-12 30t-9.5 32.5t-11.5 39.5t-17.5 52
l-38 12q-36 11 -80.5 25.5t-86 35.5t-75 49t-49.5 66l10 30l1 -1q2 -6 7 -6l4 1l29 -19q47 -94 269 -143l-19 110q-20 6 -52.5 15.5t-69.5 23t-74.5 30.5t-67.5 37t-49 43t-19 48q0 9 3 18q38 -10 69 -45q23 -22 51 -42q89 -50 194 -78q-1 27 -9 45t-20.5 29.5t-30.5 18
t-39 11.5q-75 16 -180 86q-29 19 -46.5 41.5t-17.5 51.5q0 18 6 34q26 -13 43 -41q22 -31 54 -56t69 -43.5t76 -31.5t75 -19l-11 102l-51 21q-57 21 -108 46.5t-107 72.5l-14 11q-14 12 -21 19t-7 14q0 12 15 34q43 -20 83 -54q33 -28 79 -57t116 -52q1 11 1.5 23t0.5 24
q0 65 -32 97q-25 7 -59 18.5t-70 28t-71.5 36.5t-63.5 44.5t-45 52.5t-17 60q0 14 3 26q22 -10 36 -25.5t27 -34.5q20 -35 52 -61.5t69.5 -46t77.5 -33t76 -23.5l3 113l-9 28l-39 -3q-46 13 -90.5 33.5t-82.5 49t-68 65t-48 81.5q-5 13 -9 17q-2 2 -2 5t2.5 10.5t5.5 20.5
q27 -13 44.5 -34t31.5 -46q20 -38 45 -64.5t56 -45t67 -29.5t76 -19q15 38 15 61q0 29 -18.5 44.5t-47.5 29.5q-43 20 -90 63q-18 20 -40 46t-41 54.5t-32 57t-13 52.5q0 10 1 14q27 -8 45.5 -32t36.5 -56q12 -21 26 -43.5t33.5 -44t45 -41.5t58.5 -36l35 -27l16 36l-2 -2
q-3 -3 -6 -3q-5 0 -6 10q3 30 3 45q0 18 -5 24t-18 13q-26 14 -54 38t-51.5 53.5t-38.5 62t-15 62.5q0 17 4 30q24 -7 34.5 -21.5t17.5 -36.5q9 -26 30.5 -61t75.5 -77q6 -4 6 -10q0 -4 -10 -5l3 -1q3 -1 10.5 -2.5t23.5 -4.5l-5 37l1 13q0 25 -10.5 42t-26.5 34
q-23 24 -43 66q-7 18 -15.5 41.5t-15 49t-11.5 51t-6 47.5q5 12 5.5 15.5t1.5 4.5t3.5 1.5t10.5 5.5q5 -10 12 -15.5t11 -12.5q8 -72 34 -134t60 -105q15 48 15 79q0 27 -7.5 48t-18.5 42q-12 21 -22 49t-10 73l1 23q6 11 7.5 15t2.5 5t3.5 1t9.5 3q2 -5 12 -20l6 -10
q6 -122 58 -155l85 229q25 -19 25 -49q0 -20 -8 -44.5t-19 -55.5q-14 -34 -26.5 -75.5t-23.5 -92.5q50 24 73.5 55.5t37.5 64.5l15 29q18 31 21 49l2 5l4 -1q7 -5 37 -11q-21 -62 -51 -118t-86 -94q-23 -16 -43 -37t-36 -60l-4 -62q12 4 18.5 5t9.5 1.5t4 1t2 1.5q3 8 21 30
q38 26 72.5 64t54.5 80l15 26q16 32 18.5 41.5t6.5 10.5q4 2 11 3t18 4q0 -1 1 -2.5t1 -6.5l-1 -9l1 -13q0 -30 -42 -96q-35 -52 -72.5 -86.5t-72.5 -58.5q-35 -25 -57.5 -48t-22.5 -55q0 -23 17 -59q39 10 69.5 26.5t55 40.5t45 55.5t40.5 71.5q5 9 8.5 16.5t5.5 14.5
q6 20 15 28.5t36 8.5l1 -12q0 -22 -12.5 -51t-29.5 -57.5t-35.5 -53t-29.5 -38.5q-28 -30 -56.5 -46t-56.5 -26q-43 -16 -76 -43l6 -70q57 6 100.5 29.5t85.5 61.5q72 70 98 118q14 22 27 37t32 21q1 -10 1.5 -16t0.5 -21q0 -9 -8 -23.5t-18.5 -30t-21 -29t-15.5 -19.5
q-32 -37 -61 -68t-61 -53.5t-70.5 -36t-88.5 -16.5l6 -191q44 9 86.5 34t78.5 59.5t64 75.5t43 82q27 17 27 26v2t3 1.5t10 2t22 4.5l-20 -51q-43 -112 -134 -185t-168 -91l1 -96h9q89 0 192 117q20 23 36 42t29 35l21 26q17 18 18 25q0 1 3 1q4 0 9.5 0.5t12.5 1.5
q3 -7 3 -19q0 -25 -16.5 -53.5t-43.5 -57t-61 -56t-70 -51t-70 -41.5t-60 -27l2 -35q0 -13 1 -23t3.5 -19t7.5 -18.5t14 -21.5l43 31q28 18 58 40.5t57.5 48.5t50.5 56.5t38 64.5l51 14l-10 -41q-21 -40 -47.5 -73t-55.5 -60t-59.5 -49.5t-60.5 -42.5q-18 -13 -34.5 -25
t-32.5 -24l15 -67q32 9 64 22t60 31t51 43t36 58q10 21 22.5 36.5t36.5 21.5q5 -18 5 -31q0 -27 -13.5 -52.5t-35.5 -48.5t-50 -42.5t-57 -36t-57.5 -29t-50.5 -20.5l12 -85q50 5 80 14.5t47.5 21t25 24t11.5 24.5q5 16 15 28t35 19l-8 -76q-4 -7 -11 -16t-14.5 -17.5
t-15 -16t-12.5 -11.5q-19 -11 -54 -22t-88 -21q7 -54 21.5 -99t45.5 -77l10 9l23 25q94 152 149 242t72 119q98 161 168 318l-5 5q-8 8 -24 25.5t-31.5 42.5t-27.5 54.5t-12 61.5q0 43 32 89q17 -11 23 -15.5t6 -7.5q0 -4 -6 -13t-6 -38q0 -51 17.5 -90t65.5 -62l14 31
q10 19 10 29q0 6 -10 19q-19 23 -36.5 55t-30.5 66.5t-20.5 69.5t-7.5 65q0 38 15 69q15 -10 22 -16t10 -10t3 -7v-6l-1 -26q0 -62 22 -120t59 -106q15 32 15 46q0 11 -12 29q-13 19 -23.5 46.5t-20.5 64.5l-5 20q-18 68 -18 109q0 50 27 71q23 -34 26 -96q2 -28 7.5 -58
t15.5 -64l40 -70l59 134q-46 47 -67 131l-3 115q4 14 5 19t2.5 7.5t5 4t10.5 8.5q22 -25 22 -53q0 -10 -1.5 -22t-1.5 -27q3 -52 18 -96l11 -38q57 35 57 96q0 17 -8.5 41.5t-19.5 52.5q-13 33 -24.5 67.5t-11.5 63.5q0 28 14 48q23 -13 28.5 -26t8 -32t8 -47.5t26.5 -73.5
l19 -26l23 65q-7 22 -15 45t-19 46q-36 72 -48 152q6 11 7 15t2 5t3 1.5t10 3.5q5 -9 11.5 -14.5t10.5 -11.5q6 -27 10.5 -43.5t9 -28.5t11 -23t15.5 -26l18 -31q23 35 23 111q0 26 -1.5 51.5t-1.5 50.5q0 24 2.5 45.5t10 38t20.5 27.5t34 14q1 -5 1 -16q0 -27 -12 -57
q-15 -48 -15 -81q0 -24 7 -49q28 42 53 88t48 99l17 37l34 -10q-15 -63 -37.5 -107.5t-47.5 -83.5q-31 -48 -57 -105q36 19 54.5 45.5t32 51.5t28 44t42.5 23q1 -5 1.5 -9t0.5 -9q0 -21 -9 -43t-23.5 -44t-33.5 -43.5t-39 -42.5q-50 -53 -75 -97q32 20 55 44t39.5 47.5
t29.5 44t26 32.5q10 9 10 11l17 5q5 -13 8 -16l2 -2l-1 -1q-3 -6 -9 -27q-4 -14 -19 -38l-10 -15q-56 -78 -140 -143q-42 -31 -52 -51q-23 -52 -23 -54q0 -1 1 -1l2 1q4 2 8 2q6 0 10 -10l32 27q14 11 30.5 25.5t33 31t31 33t23.5 31.5q3 5 5 8t6 6t11.5 5t21.5 5v-2
q2 -8 2 -12q0 -23 -20.5 -51.5t-49 -55.5t-58.5 -48.5t-50 -30.5q-25 -12 -38.5 -14.5t-22 -8.5t-14.5 -21t-15 -51q35 14 71.5 37t75.5 54q36 28 66.5 48t49.5 22l1 -6q0 -15 -14 -34.5t-36.5 -40.5t-50.5 -42t-56 -38t-52 -29t-40 -15q-13 -3 -20 -3t-13 -3q-6 -2 -23 -38
l-34 -51q27 5 43.5 9.5t28.5 11t23.5 17.5t29.5 29q44 30 60 51q9 10 18.5 13.5t24.5 6.5l-3 -43q-12 -20 -41.5 -43.5t-64.5 -44.5t-69 -36.5t-56 -19.5q-11 -2 -17 -14t-15 -31q3 -4 3 -7q0 -4 -1.5 -5t-1.5 -2q0 -2 43 -6q9 2 12 2t5 1l5 2.5t10 5.5q8 5 16.5 12.5
t18.5 13.5q6 -11 9 -11q-3 -3 -7 -21q-21 -26 -45 -36.5t-66 -12.5l-27 2l-17 -23l-1 -9q15 1 21.5 1.5t9.5 2t6 5t12 10.5q18 -13 23 -15h1l-1 -2q-3 -4 -3 -23q-25 -15 -42 -20.5t-30 -11t-24.5 -15.5t-26.5 -35l-244 -451q16 8 32 18t33 21q32 20 63.5 37t63.5 30
q0 20 -2.5 47t-2.5 56q0 82 43 110q8 -8 13.5 -13t5.5 -11t-3 -17q-7 -20 -16 -129l16 3q17 2 28 5.5t18.5 13t10.5 27.5t3 51q0 43 4.5 86.5t24.5 88.5l27 -2l1 -58l-17 -105l5 -31q9 3 12.5 3.5t6.5 2t7 5.5l14 14q-1 29 -5 50t-4 44q0 25 7 53v59l28 56q16 -10 22 -16.5
t6 -15.5t-2.5 -20.5t-5 -32.5t-5 -53t-2.5 -82q9 3 17 2.5t14 3.5t9.5 18t3.5 45q-1 10 -2 23t-3 29q-9 50 -9 100q0 78 39 100q5 -17 8 -25.5t4 -14.5t1.5 -12.5t1.5 -20.5q0 -20 -1.5 -34.5t-1.5 -38.5q0 -33 6 -104q36 17 49.5 42t13.5 55q0 35 -9 75t-9 82q0 55 27 92
q12 -7 17 -9.5t6.5 -5t1.5 -8t2 -20.5l-2 -32q-3 -46 -3 -64q0 -57 6 -104q37 13 50 25.5t13 28.5q0 13 -5 31q-8 26 -8 59q0 23 6 56.5t18 66.5t30 60t42 36q3 -10 3 -21q0 -14 -4 -29t-9 -30t-11 -28t-9 -22q-17 -63 -17 -111l1 -21q27 11 43.5 25t25.5 30.5t12.5 35.5
t4.5 40q1 36 14 78l4 33q2 36 12 66.5t45 57.5l-3 -31l-33 -162l12 -29l9 1.5t3 3.5l-1 1q0 7 9 17l61 212l26 16l28 1l-14 -46l-16 -37q-12 -24 -21 -49t-9 -52l1 -12q17 -3 26 -3q24 0 33.5 10.5t17 25.5t18 30.5t35.5 25.5q7 -14 7 -29q0 -56 -95 -112q-21 -12 -41.5 -29
t-38.5 -48q52 9 80.5 26t46.5 34q15 13 30 22.5t39 9.5l1 -12q0 -24 -16 -42.5t-41.5 -33t-56 -26t-60.5 -20.5q-71 -21 -96 -43l-27 -27l37 9l14 -1q31 0 57 8t48 18q31 16 57 16q21 0 39 -22q-40 -35 -86.5 -45.5t-92.5 -13.5q-26 -1 -50 -4.5t-44.5 -11.5t-38 -22
t-29.5 -38q49 -10 87 -10q36 0 60.5 7t42.5 15q23 13 51 13q16 0 37 -8q-35 -68 -172 -68q-41 0 -80.5 3t-78.5 10l-82 -84q74 -28 134 -28q33 0 57 5t47 5q17 0 33 -4q-6 -32 -32 -44t-68 -12q-18 0 -39 1.5t-42.5 5t-42 9t-36.5 13.5q-25 12 -44 12q-15 0 -29 -11t-32 -40
q19 -9 35 -16t31.5 -11.5t32 -7.5t37.5 -3l69 -1q12 0 17 -0.5t6.5 -1t1 -1.5t-0.5 -3q1 -4 2 -7.5t3 -8.5q-34 -24 -85 -24q-17 0 -38 3t-42 8.5t-40 13t-34 16.5q-22 14 -38 14q-11 0 -23.5 -9t-30.5 -31q33 -30 70 -46t70 -26q51 -14 71 -34q-22 -19 -51 -19
q-21 0 -43.5 7t-44.5 17t-42 22t-35 22q-11 7 -18 11t-11 5l-24 7l1 -1q0 -8 -32 -22q32 -38 64 -55.5t61 -26.5q49 -14 79 -47q-18 -12 -42 -12q-27 0 -58 13.5t-60 31.5t-52.5 36.5t-34.5 28.5l-75 -51q33 -36 55.5 -57t39 -31.5t28.5 -13.5t23 -5q14 -2 29.5 -6t36.5 -16
q12 -7 16 -8q-1 2 -1 5q0 2 2 2q1 0 3 -2t2 -4t-2 -2t-4 1q1 -3 5 -13q-30 -15 -59 -15q-35 0 -67 18t-60 42.5t-52 50t-42 39.5q-43 -31 -101 -57q-73 -31 -111 -71q-25 -33 -50 -70.5t-50 -79.5q-14 -23 -28 -45.5t-28 -42.5l-333 -462l-31 -22q14 -3 21 -5t10 -2.5t4 -1
l1 -0.5l1 1q2 5 18 11l182 -5l-1 44q0 30 3 54.5t11.5 48t23 48t38.5 52.5l39 2l-25 -42q-10 -26 -18.5 -44.5t-15 -33.5t-10.5 -30t-4 -33q0 -10 1.5 -20.5t3.5 -23.5q25 -14 51 -14q6 0 15.5 1t22.5 3l15 48q16 62 53 134q17 31 29.5 51t21.5 32t15.5 16.5t11.5 4.5
q7 0 13 -4t13 -7l-19 -33q-19 -45 -39 -79q-17 -28 -32.5 -62.5t-29.5 -91.5q19 0 29.5 1t16 4t7 10t2.5 19q6 60 45 150l18 45l23 26l5 9q14 32 27.5 47t43.5 15q2 -8 2 -14q0 -13 -7.5 -27.5t-20.5 -33.5q-22 -31 -49 -85.5t-46 -146.5l100 7q7 81 25 152t60 141
q10 16 15.5 26t9 15t7 7t10.5 2l22 -1v-2q2 -10 2 -15q0 -13 -4.5 -24.5t-12 -23t-17 -25t-18.5 -30.5q-14 -32 -24.5 -61t-15.5 -55q-7 -29 -18 -67l-1 -20q0 -16 5 -16q7 0 17 10l7 5l51 12q8 25 16 49t15 49q8 31 18 61.5t22 60.5l11 26q8 21 17.5 43.5t22.5 42t29 32
t36 12.5q0 -14 -16.5 -55t-38.5 -95q-65 -158 -77 -206q30 1 50.5 7.5t44.5 23.5l8 50q5 32 10 61.5t13 59t19.5 60t28.5 64.5q10 20 17 31t13 17.5t12.5 9.5t13.5 6l5 2q5 -15 5 -25q0 -18 -8 -35.5t-19 -37.5q-31 -53 -48.5 -113.5t-17.5 -122.5q12 -5 22 -5
q22 0 46.5 12.5t47.5 26.5l12 8q6 23 15 54.5t21.5 67t28.5 71.5t35.5 66.5t42.5 52.5t49 29l1 -6q0 -17 -14 -44.5t-35 -62.5q-28 -48 -54 -100.5t-35 -106.5q39 25 62 35q8 3 15 8q6 5 29 44l35 61q12 22 27 45.5t33 43.5t38 35.5t43 21.5q3 -9 3 -18q0 -19 -11 -34
t-27 -30q-36 -33 -58 -87q-7 -5 -10 -5.5t-5.5 -2.5t-6 -8.5t-11.5 -24.5q21 5 29 6q6 0 7 4q5 9 21 27q27 1 37.5 7t21.5 21q26 36 69 68q8 7 17 14.5t19 17.5l33 10l11 -14l-1 -2q-4 -5 -5 -25q-111 -71 -157 -162l-39 -16q6 -13 6 -16q0 7 11 10q12 -4 18.5 -7t8.5 -3
q1 0 2.5 5.5t2.5 10.5q58 10 100 36q19 10 36 17t32 7q10 0 19 -4l-12 -38l-22 -11q-113 -64 -241 -64q-23 0 -45.5 -4.5t-56.5 -23.5l-33 -12q-9 -7 -17 -9q4 -4 9 -13l12 -5l34 7q36 -6 67 -6q58 0 103.5 14.5t87.5 32.5q13 5 25 10t25 10l25 -20l-5 -16
q-57 -41 -126.5 -56.5t-166.5 -17.5q-66 0 -150 12q-19 3 -31 3q-14 0 -27.5 -6t-40.5 -22q-18 -1 -26 -2t-10.5 -1.5t-1.5 -1.5l1 -1q0 -9 -10 -16l38 -22q60 -19 98.5 -31t58.5 -17q30 -7 74 -14t102 -14q7 0 7 -1l-2 -1q-3 -1 -6.5 -3.5t-3.5 -8.5l1 -5l-34 -21l-52 6
q-76 3 -169 33q-25 10 -47.5 20.5t-42.5 23.5q-51 33 -105 41q8 -27 25.5 -46.5t41 -34t52.5 -25.5t59 -20q32 -10 60.5 -22.5t51.5 -26.5l-19 -28l-152 48q-76 31 -122 74q-23 19 -43 32t-41 13t-45 -18q13 -37 35.5 -64t51 -47t62 -34t68.5 -26q17 -4 17 -12q0 -4 -2 -12
t-4 -27q-133 45 -190 96q-58 52 -77 87q-12 18 -21.5 28t-22.5 10q-23 0 -67 -34q8 -21 23.5 -43.5t35 -43.5t41.5 -37.5t43 -25.5l18 -9l68 -45q-20 -14 -40 -14q-28 0 -61 18.5t-63.5 45.5t-54 58t-34.5 57l-10 18t-10 19l-98 -9q12 -36 26 -61t29 -40.5t30.5 -24.5
t30.5 -14q20 -8 33.5 -19t15.5 -35q-13 -5 -26 -5q-25 0 -53.5 16t-54 39t-45 50.5t-26.5 49.5q-6 17 -12.5 26.5t-20.5 9.5q-12 0 -40 -11q3 -26 12 -53t24.5 -52.5t37 -47.5t48.5 -37q5 -8 6 -17.5t4 -16.5q-7 -5 -8.5 -6t-4.5 -5h-1q-3 5 -27 6q-129 91 -134 231
q-20 1 -55.5 1.5t-89.5 0.5l-127 3q-27 0 -44 -4t-29.5 -14t-22.5 -25.5t-22 -38.5q-25 -43 -81 -126q-20 -39 -53 -71q-15 -18 -31 -27q-31 -24 -68.5 -42t-77.5 -29.5t-81.5 -17t-80.5 -5.5q-56 0 -113 11.5t-107.5 36.5t-89 66t-56.5 99q-15 -6 -29 -12.5t-28 -6.5
q-36 0 -59 39z" />
    <glyph glyph-name="uniE098" unicode="u__" horiz-adv-x="2900" 
 />
    <glyph glyph-name="uniE099" unicode="v__" horiz-adv-x="2537" 
 />
    <glyph glyph-name="uniE100" unicode="w__" horiz-adv-x="3129" 
 />
    <glyph glyph-name="uniE101" unicode="x__" horiz-adv-x="3203" 
 />
    <glyph glyph-name="uniE102" unicode="y__" horiz-adv-x="2704" 
 />
    <glyph glyph-name="uniE103" unicode="z__" horiz-adv-x="2943" 
 />
    <glyph glyph-name="uniE104" unicode="__a" horiz-adv-x="2916" 
 />
    <glyph glyph-name="uniE105" unicode="__b" horiz-adv-x="2920" 
 />
    <glyph glyph-name="uniE106" unicode="__c" horiz-adv-x="2921" 
 />
    <glyph glyph-name="uniE107" unicode="__d" horiz-adv-x="2922" 
 />
    <glyph glyph-name="uniE108" unicode="__e" horiz-adv-x="2957" 
 />
    <glyph glyph-name="uniE109" unicode="__f" horiz-adv-x="2882" 
 />
    <glyph glyph-name="uniE110" unicode="__g" horiz-adv-x="2858" 
 />
    <glyph glyph-name="uniE111" unicode="__h" horiz-adv-x="3023" 
 />
    <glyph glyph-name="uniE112" unicode="__i" horiz-adv-x="2386" 
 />
    <glyph glyph-name="uniE113" unicode="__j" horiz-adv-x="2326" 
 />
    <glyph glyph-name="uniE114" unicode="__k" horiz-adv-x="3081" 
 />
    <glyph glyph-name="uniE115" unicode="__l" horiz-adv-x="2404" 
 />
    <glyph glyph-name="uniE116" unicode="__m" horiz-adv-x="3477" 
 />
    <glyph glyph-name="uniE117" unicode="__n" horiz-adv-x="3035" 
 />
    <glyph glyph-name="uniE118" unicode="__o" horiz-adv-x="2810" 
 />
    <glyph glyph-name="uniE119" unicode="__p" horiz-adv-x="2887" 
 />
    <glyph glyph-name="uniE120" unicode="__q" horiz-adv-x="2834" 
 />
    <glyph glyph-name="uniE121" unicode="__r" horiz-adv-x="2970" 
 />
    <glyph glyph-name="uniE122" unicode="__s" horiz-adv-x="2827" 
 />
    <glyph glyph-name="uniE124" unicode="__u" horiz-adv-x="2926" 
 />
    <glyph glyph-name="uniE125" unicode="__v" horiz-adv-x="2636" 
 />
    <glyph glyph-name="uniE126" unicode="__w" horiz-adv-x="3290" 
 />
    <glyph glyph-name="uniE127" unicode="__x" horiz-adv-x="3217" 
 />
    <glyph glyph-name="uniE128" unicode="__y" horiz-adv-x="2845" 
 />
    <glyph glyph-name="uniE129" unicode="__z" horiz-adv-x="2954" 
 />
    <glyph glyph-name="uniE208" unicode="ee" horiz-adv-x="2122" 
 />
    <glyph glyph-name="uniE209" unicode="gg" horiz-adv-x="2080" 
 />
    <glyph glyph-name="uniE210" unicode="ll" horiz-adv-x="912" 
 />
    <glyph glyph-name="uniE211" unicode="oo" horiz-adv-x="1804" 
 />
    <glyph glyph-name="uniE212" unicode="rr" horiz-adv-x="1964" 
 />
    <glyph glyph-name="uniE213" unicode="ss" horiz-adv-x="1885" 
 />
    <glyph glyph-name=".notdef" horiz-adv-x="1024" 
d="M100 0v1434h824v-1434h-824zM150 50q177 80 358 80t366 -80v1334q-192 -59 -373 -59t-351 59v-1334zM419 334l57 58q11 10 20 10q10 0 22 -11l56 -60q9 -11 9 -20q0 -11 -10 -22l-56 -62q-14 -14 -21 -14q-11 0 -20 10l-61 71q-7 9 -7 18q0 10 11 22zM413 1191
q53 30 112 30q92 0 148 -47.5t56 -127.5q0 -49 -23 -98.5t-87 -129.5q-63 -80 -99 -132t-36 -99q0 -38 24 -133h-32q-35 97 -35 148q0 76 81.5 218t81.5 217q0 57 -33 90t-91 33q-8 0 -16 -1l32 -51q5 -9 5 -17v-4q-2 -11 -14 -20l-66 -50q-16 -10 -23 -10h-1q-10 2 -17 14
l-47 81q-4 7 -4 14q0 2 1 5q1 10 28.5 32.5t54.5 37.5z" />
    <glyph glyph-name="uni0000" horiz-adv-x="0" 
 />
    <glyph glyph-name="uni0000" horiz-adv-x="0" 
 />
    <glyph glyph-name="uni000D" unicode="&#xd;" horiz-adv-x="512" 
 />
    <glyph glyph-name="space" unicode=" " horiz-adv-x="695" 
 />
    <glyph glyph-name="space" unicode="&#xa0;" horiz-adv-x="695" 
 />
    <glyph glyph-name="uni001D" horiz-adv-x="0" 
 />
    <glyph glyph-name="uni0009" horiz-adv-x="508" 
 />
    <glyph glyph-name="exclam" unicode="!" horiz-adv-x="487" 
d="M166 -121h-4q-36 2 -59 26t-23 59l59 2010l-49 -2q-27 0 -45.5 19t-19.5 47q0 26 18 45t45 20l259 8q27 0 45.5 -18.5t19.5 -46.5q0 -26 -18 -45t-45 -20l-40 -2q0 -2 -1 -3l-59 -2015q-2 -35 -25.5 -58.5t-57.5 -23.5zM149 -412l-11 1q-39 7 -62.5 35.5t-23.5 69.5
q0 34 23 68q32 42 82 42l18 -2q33 -5 57.5 -31t24.5 -65q0 -32 -23 -68q-34 -50 -85 -50z" />
    <glyph glyph-name="quotedbl" unicode="&#x22;" horiz-adv-x="564" 
d="M109 1254q-34 0 -59 24.5t-25 60.5q0 13 4 26l65 200q9 27 31 42.5t49 15.5q33 0 59 -24t26 -60q0 -13 -4 -26l-65 -201q-10 -27 -32 -42.5t-49 -15.5zM339 1254q-34 0 -59 24.5t-25 60.5q0 13 4 26l65 200q9 27 31 42.5t49 15.5q33 0 59 -24t26 -60q0 -13 -4 -26
l-65 -201q-10 -27 -32 -42.5t-49 -15.5z" />
    <glyph glyph-name="numbersign" unicode="#" horiz-adv-x="1339" 
d="M872 104l-11 1q-33 4 -54.5 28t-21.5 57l24 193l-379 3l-26 -208q-5 -32 -28.5 -53t-55.5 -21q-38 3 -61.5 26t-23.5 58l25 199l-151 2q-34 0 -59 25t-25 60q2 35 26 59t58 24l173 -1l44 344l-171 3q-36 2 -59.5 26t-23.5 58q1 37 25 61t59 24l192 -4l27 205
q4 33 28.5 54t56.5 21q37 -3 60 -26.5t23 -58.5l-25 -199l372 -8l26 217q4 33 28 54t57 21q37 -3 60.5 -27t23.5 -59l-25 -209l121 -3q36 -2 59.5 -26t23.5 -58q-1 -37 -25 -61t-59 -24q-56 0 -78 1t-63 2l-40 -334l152 -1q35 0 59.5 -25t24.5 -60q-2 -36 -26 -60t-59 -24
l-171 2l-24 -203q-5 -33 -28.5 -54t-54.5 -21zM829 552l40 336l-373 8l-44 -341z" />
    <glyph glyph-name="dollar" unicode="$" horiz-adv-x="1136" 
d="M502 -50h-5q-35 3 -57 27t-22 57l6 96q-114 21 -190.5 86t-81.5 177l-62 -2q-29 0 -46.5 19.5t-18.5 48.5q0 25 18 43.5t45 19.5l259 8q27 0 45.5 -18.5t19.5 -46.5q0 -26 -18 -45t-45 -21h-27q4 -38 35.5 -62.5t78.5 -35.5l27 408q-228 214 -228 403q9 210 211 292
q32 14 66 22l8 111q3 34 27 56.5t58 22.5q37 -2 60.5 -26.5t23.5 -58.5l-7 -98q72 -13 129 -48t90.5 -94t33.5 -142l-1 -32l63 1q26 0 44.5 -18.5t19.5 -46.5q0 -26 -18.5 -45t-45.5 -20l-259 -8q-27 0 -45.5 18.5t-19.5 46.5q0 26 18 45t45 20l29 1q0 10 0.5 16.5t1.5 16.5
q0 96 -96 119l-33 -482q10 -9 21 -17q261 -199 261 -370q0 -109 -92.5 -182.5t-234.5 -88.5l-6 -95q-4 -34 -28 -56t-57 -22zM605 296q35 6 68 18.5t55 33t22 48.5q0 69 -126 180zM479 937l21 306q-90 -39 -96 -130q0 -78 75 -176z" />
    <glyph glyph-name="percent" unicode="%" horiz-adv-x="967" 
d="M90 -44q-29 0 -46.5 19t-18.5 48q0 25 18 43.5t44.5 19.5t52.5 2l473 1476l-43 -1q-27 0 -45.5 18.5t-19.5 46.5q0 26 18 45t45 21l259 8q27 0 45.5 -18.5t19.5 -46.5q0 -26 -18 -45.5t-45 -20.5l-37 -1l-473 -1477l28 1q27 0 45.5 -18.5t19.5 -46.5q0 -26 -18 -45
t-45 -20zM249 1301q14 5 21.5 22.5t7.5 35.5q0 24 -7 41h-1q-8 19 -24 20q-18 0 -26 -22.5t-8 -46.5q0 -13 4 -27.5t12 -18.5t21 -4zM255 1132h-16q-98 4 -147 70.5t-49 150.5q1 65 25.5 118.5t69.5 85.5t106 32q133 -6 181 -119h-1q13 -29 18 -55t5 -57q0 -52 -23.5 -104.5
t-66.5 -87t-102 -34.5zM676 259q36 0 37 63q0 20 -8 37.5t-24 18.5q-18 0 -25.5 -21.5t-8.5 -47.5q0 -16 6.5 -33t22.5 -17zM677 90h-2q-100 4 -148.5 70.5t-48.5 150.5q1 65 25.5 118t69 85.5t106.5 32.5q99 -5 151 -70.5t52 -154.5v-9q0 -58 -24.5 -109t-70.5 -82.5
t-110 -31.5z" />
    <glyph glyph-name="ampersand" unicode="&#x26;" horiz-adv-x="1206" 
d="M838 -32q-27 0 -46 20t-19 46q0 28 15.5 42t43.5 28q-50 44 -98 94q-111 -92 -229 -138t-219 -46q-70 0 -129.5 25.5t-95.5 77t-36 130.5q0 103 77 250q61 108 158 230l42 56q-98 194 -98 360q0 117 42 195.5t105 118.5t127 40q59 0 109.5 -32.5t82 -93.5t31.5 -145
q0 -76 -27.5 -152.5t-72.5 -152.5t-98 -150q88 -147 227 -316l8 -9q40 55 64 118l-30 5q-25 5 -40 22.5t-15 41.5q6 66 65 66q11 -1 264 -43q25 -5 40 -22.5t15 -41.5q-7 -66 -66 -66q-27 2 -36.5 4.5t-26.5 5.5l-1 -4q-42 -119 -118 -214q63 -66 131 -121l8 -8l43 23
q15 8 30 8q27 0 46.5 -20t19.5 -46q0 -35 -35 -57l-227 -121q-15 -8 -31 -8zM287 182q72 0 163 37.5t171 102.5q-132 157 -226 304q-91 -116 -145 -209q-58 -110 -58 -166q0 -38 23.5 -53.5t71.5 -15.5zM415 941q51 76 84 148.5t33 135.5q0 47 -16.5 75t-39.5 28
q-36 0 -70 -51.5t-34 -135.5t43 -200z" />
    <glyph glyph-name="quotesingle" unicode="'" horiz-adv-x="334" 
d="M109 1254q-34 0 -59 24.5t-25 60.5q0 13 4 26l65 200q9 27 31 42.5t49 15.5q33 0 59 -24t26 -60q0 -13 -4 -26l-65 -201q-10 -27 -32 -42.5t-49 -15.5z" />
    <glyph glyph-name="parenleft" unicode="(" horiz-adv-x="557" 
d="M391 -171q-28 1 -46.5 20t-18.5 46v38q-99 18 -167 176q-64 144 -99 358.5t-35 441.5l2 91q6 186 40 342t103.5 257.5t180.5 123.5q1 27 1 53.5t19 45.5t46 19t46 -19.5t19 -46.5l-1 -257q0 -27 -19 -46t-46 -19t-46 19t-19 45v28q-69 -47 -109 -199q-47 -175 -47 -412
q0 -276 40 -506t92 -307v31q0 27 19.5 46t46.5 19t46 -19t19 -46l-1 -258q-1 -28 -20 -46.5t-46 -18.5z" />
    <glyph glyph-name="parenright" unicode=")" horiz-adv-x="565" 
d="M126 -171q-28 1 -46.5 20t-18.5 46l1 257q0 27 19 46t46 19t46 -18.5t19 -44.5v-27q51 82 90 313.5t39 474.5l-1 80q-7 198 -48 355.5t-116 199.5l-1 -32q0 -27 -19 -46t-46 -19t-46 19t-19 46l1 257q0 27 19 46t45 19q29 -1 48 -18.5t19 -46.5l-1 -51
q105 -17 174.5 -105.5t106.5 -228.5q30 -113 40.5 -226t12.5 -261q0 -227 -35.5 -440t-99 -356.5t-150.5 -170.5q-6 -2 -14 -2v-40q0 -27 -19 -46t-46 -19z" />
    <glyph glyph-name="asterisk" unicode="*" horiz-adv-x="569" 
d="M277 1237h-7q-33 0 -56.5 21.5t-27.5 55.5l-2 21l-13 -10q-14 -11 -26.5 -17.5t-34.5 -6.5q-34 0 -59.5 25.5t-25.5 59.5q0 26 11.5 43t32.5 32q-42 28 -42 72q0 34 25 59t60 25q12 0 18 -1t13 -3.5t16 -5.5q-2 16 -3 25.5t-2 34.5q0 74 85 84q32 0 55.5 -21.5
t27.5 -54.5l3 -32l12 9q15 11 27.5 17.5t33.5 6.5q34 0 59.5 -25.5t25.5 -59.5q0 -28 -12.5 -45t-36.5 -33q60 -24 60 -81q0 -34 -24 -59.5t-60 -25.5q-14 0 -28.5 5t-30.5 10q1 -11 2 -17.5t1 -22.5q0 -33 -21.5 -57t-55.5 -28z" />
    <glyph glyph-name="plus" unicode="+" horiz-adv-x="771" 
d="M365 253q-35 0 -60 25t-25 59l-1 172l-76 1l-94 -2q-35 0 -59 24t-25 61q0 34 23 58t58 26l93 2l80 -1l-1 151q0 35 24 59t60 26q35 0 59 -24.5t26 -60.5v-154h88l77 1q34 0 58 -23.5t26 -60.5q0 -34 -23 -58t-58 -26q-71 -2 -167 -2l1 -168q0 -35 -24.5 -60t-59.5 -25z
" />
    <glyph glyph-name="comma" unicode="," horiz-adv-x="315" 
d="M110 -69q-34 0 -59.5 25t-25.5 59q0 36 30 65q12 10 15 29q1 10 2 45t25 58.5t57 23.5q37 -1 61.5 -24t24.5 -59v-23q0 -65 -11 -101t-64 -78q-26 -20 -55 -20z" />
    <glyph glyph-name="hyphen" unicode="-" horiz-adv-x="717" 
d="M109 514q-34 0 -58 23.5t-26 59.5q0 35 24.5 60t59.5 25l448 7q36 0 60 -24.5t25 -60.5q0 -34 -24 -58t-59 -26z" />
    <glyph glyph-name="hyphen" unicode="&#xad;" horiz-adv-x="717" 
d="M109 514q-34 0 -58 23.5t-26 59.5q0 35 24.5 60t59.5 25l448 7q36 0 60 -24.5t25 -60.5q0 -34 -24 -58t-59 -26z" />
    <glyph glyph-name="period" unicode="." horiz-adv-x="346" 
d="M151 -54q-52 0 -89 33.5t-37 81.5t33 86.5t89 38.5q13 0 27 -3q48 -10 72.5 -44.5t24.5 -72.5q0 -46 -34 -83t-86 -37z" />
    <glyph glyph-name="slash" unicode="/" horiz-adv-x="1065" 
d="M348 -104l-259 7q-28 1 -46 20.5t-18 46.5q1 27 20 45t45 18l46 -1q3 12 561 1691l-31 1q-27 1 -45.5 20t-18.5 45q1 29 20 47.5t47 18.5l257 -7q28 -1 46 -20.5t18 -46.5q-1 -27 -20 -45.5t-45 -18.5l-51 1l-562 -1690l37 -2q27 0 45.5 -19t18.5 -45q-1 -28 -19.5 -47
t-45.5 -19z" />
    <glyph glyph-name="zero" unicode="0" horiz-adv-x="932" 
d="M440 229q59 0 105 45t78 120t48.5 169t16.5 193q-1 201 -60 346q-66 161 -183 161q-95 0 -155 -103q-46 -78 -71 -193.5t-25 -238.5q1 -138 30 -250.5t84 -180.5t132 -68zM448 60q-34 0 -71 7q-119 26 -197 120.5t-116 235t-39 303.5q0 159 37 307.5t111 252.5t186 135
q49 12 94 12q101 0 176.5 -55.5t125.5 -150t75.5 -215.5t26.5 -254q0 -131 -26 -256t-77 -224.5t-128 -158.5t-178 -59z" />
    <glyph glyph-name="one" unicode="1" horiz-adv-x="695" 
d="M297 44q-27 0 -45.5 18.5t-19.5 46.5q0 26 18 45.5t44 20.5t50 1l41 1075l-140 -84l19 -38q7 -14 7 -29q0 -27 -19.5 -46t-45.5 -19q-36 0 -59 36l-115 230q-7 14 -7 29q0 27 19.5 46t45.5 19q36 0 59 -36l20 -41l263 159q21 12 43 12q35 0 60.5 -25.5t25.5 -58.5
q-1 -9 -48 -1223l41 1q26 0 45.5 -18.5t20.5 -46.5q0 -26 -18.5 -45.5t-45.5 -20.5z" />
    <glyph glyph-name="two" unicode="2" horiz-adv-x="1068" 
d="M926 7q-27 0 -46 19.5t-19 46.5v40l-623 7q-33 0 -62 24q-26 28 -26 61q0 32 24 59q177 184 282 342t149.5 288t44.5 228q0 104 -41 166.5t-101 62.5q-52 0 -103 -54.5t-83 -161.5l-1 -5l33 -13q41 -22 41 -61q0 -26 -19 -45.5t-46 -19.5q-12 0 -24 5l-239 94
q-42 23 -42 61q0 27 19 46.5t47 19.5q12 0 24 -5l48 -19q35 114 91 186t122.5 106.5t133.5 34.5q81 0 151.5 -47t114 -135.5t43.5 -213.5q0 -103 -38 -233t-124.5 -281.5t-231.5 -322.5l437 -5v48q1 28 20 46.5t46 18.5t46 -19.5t19 -46.5l-1 -257q0 -27 -19.5 -46
t-46.5 -19z" />
    <glyph glyph-name="three" unicode="3" horiz-adv-x="951" 
d="M466 57q-141 0 -300 78l-18 -34q-23 -34 -58 -34q-26 0 -45.5 19t-19.5 46q0 16 8 31l121 227q22 35 57 35q26 0 46 -19.5t20 -46.5q0 -16 -8 -31l-24 -44q128 -58 218 -58q87 0 140.5 41.5t78.5 106t25 137.5q0 58 -17.5 111.5t-54 88t-92.5 34.5q-49 0 -116 -32
q-20 -11 -41 -11q-35 0 -60 25.5t-25 58.5q0 45 44 75q117 68 168 147.5t51 149.5q0 66 -36 108t-93 42q-54 0 -127 -45q12 -12 18 -23.5t6 -28.5q0 -27 -19.5 -46t-45.5 -19t-47 20l-176 188q-18 21 -18 45q0 26 20 45.5t46 19.5t47 -20l52 -56q124 90 244 90
q88 0 155 -43.5t105 -116t38 -160.5q0 -135 -89 -260q110 -40 171 -146.5t61 -240.5q-1 -89 -27.5 -170t-78 -145t-128 -101.5t-176.5 -37.5z" />
    <glyph glyph-name="four" unicode="4" horiz-adv-x="1042" 
d="M510 -1q-25 0 -44 18.5t-20 46.5q0 26 18.5 45t45.5 20l42 1l19 473l-461 -8q-34 0 -58.5 24t-26.5 60q0 20 7 36q25 57 69 194l142 450l-43 16q-43 22 -43 62q0 26 19.5 45.5t46.5 19.5q11 0 22 -4l241 -90q43 -22 43 -62q0 -26 -19 -45t-46 -19q-11 0 -23 4l-39 14
l-66 -210q-48 -157 -105 -324l347 6l27 666l-42 -1q-27 0 -45.5 18.5t-19.5 46.5q0 26 18 45t45 21l259 8q29 0 46.5 -19t18.5 -48q0 -26 -18 -44.5t-43.5 -19t-49.5 -1.5l-27 -670l89 2v56q1 28 20 46.5t46 18.5t46 -19t19 -46l-1 -257q0 -27 -19.5 -46t-46.5 -19t-46 19
t-19 46l1 32l-96 -2l-19 -469l48 1q27 0 45.5 -18.5t19.5 -46.5q0 -26 -18 -45t-45 -20z" />
    <glyph glyph-name="five" unicode="5" horiz-adv-x="994" 
d="M464 24q-141 0 -293 91l-23 -44q-23 -35 -58 -35q-26 0 -45.5 19.5t-19.5 46.5q0 15 7 30l121 227q22 35 57 35q26 0 46 -19.5t20 -46.5q0 -15 -8 -31t-17 -33q113 -70 212 -70q91 0 155 51t98 127t34 152q0 60 -23.5 113t-77.5 86t-146 33q-104 0 -258 -54
q-14 -5 -28 -5q-35 0 -60 25t-25 59l36 612q3 34 27 57t57 23l480 7q4 0 5 -1q1 29 1 57t19 47t46 19t46 -19.5t19 -46.5l-1 -257q0 -27 -19.5 -46t-46.5 -19t-46 19.5t-19 46.5l1 31l-405 -6l-24 -407q108 26 195 26q143 0 235 -57.5t136.5 -148.5t44.5 -194
q0 -94 -33 -183t-93.5 -160.5t-144 -114t-184.5 -42.5z" />
    <glyph glyph-name="six" unicode="6" horiz-adv-x="930" 
d="M442 19q-101 0 -196 50.5t-156 158.5t-65 279q0 142 43 319.5t132 352t226 311.5l7 6l-29 32q-17 20 -17 44q0 26 20 48q21 17 45 17q26 0 48 -20l175 -189q17 -20 17 -44q0 -27 -19.5 -46.5t-45.5 -19.5t-48 21l-31 34l-3 -4q-120 -119 -200.5 -278.5t-117.5 -326.5
q125 78 256 78q100 0 181 -44q70 -39 112 -105t60.5 -139.5t18.5 -132.5q0 -122 -59.5 -212t-154.5 -140t-199 -50zM441 188q59 0 115 27t92.5 79.5t36.5 127.5q0 77 -49 176q-46 75 -153 75q-77 -1 -154 -45t-134 -136q5 -110 40.5 -177t90.5 -97t115 -30z" />
    <glyph glyph-name="seven" unicode="7" horiz-adv-x="1123" 
d="M342 -7q-27 0 -46 18.5t-20 46.5q0 27 18.5 46t46.5 20h52l2 6q82 308 194 645l-193 2q-34 0 -58.5 24.5t-24.5 58.5q1 37 24.5 61.5t60.5 24.5l246 -2q74 224 129 411l-597 -2q-10 0 -20 3v-44q0 -27 -19.5 -46t-46.5 -19t-46 19.5t-19 46.5l1 257q0 27 19.5 46t46.5 19
t46 -19.5t19 -46.5v-49q8 2 727 4q35 0 59.5 -24.5t24.5 -59.5q0 -10 -3 -21h1q-55 -206 -145 -477l143 -1q36 -2 60 -26t24 -59t-24.5 -59.5t-58.5 -24.5q-79 0 -110 0.5t-89 1.5q-110 -333 -197 -648l29 1q27 0 46 -18.5t20 -46.5q0 -27 -18.5 -46t-46.5 -20z" />
    <glyph glyph-name="eight" unicode="8" horiz-adv-x="1011" 
d="M528 14q-111 0 -211 48t-154 134q-6 9 -9 20l-42 -15q-11 -4 -23 -4q-27 0 -45.5 20.5t-18.5 45.5q0 39 43 61l242 87q11 4 23 4q27 0 45.5 -20t18.5 -46q0 -40 -43 -61l-40 -14q33 -42 92 -66.5t126 -24.5q64 0 116 25t83 73t31 117q0 74 -34.5 130.5t-88.5 102.5
t-115 87q-81 -58 -146 -121t-90 -135q-9 -27 -31.5 -43t-49.5 -16q-34 0 -59.5 25t-25.5 60q0 12 4 25q33 97 101.5 171.5t154.5 138.5q-50 41 -90 88t-63 105.5t-23 131.5l1 25q6 111 56 186t127.5 113.5t164.5 38.5q128 0 220 -70q15 -12 24 -29l49 18q12 4 22 4
q29 0 47.5 -20t18.5 -46q0 -40 -43 -61l-242 -88q-10 -4 -22 -4q-27 0 -46.5 19.5t-19.5 46.5q0 35 34 57q-13 3 -28 3h-16q-70 0 -121.5 -44t-55.5 -143q0 -70 41.5 -124.5t104.5 -101.5q75 56 129.5 115t67.5 126q6 31 29 50.5t54 19.5q85 -10 85 -85l-1 -13
q-19 -100 -78.5 -176t-142.5 -140q71 -50 131.5 -108t98 -132.5t37.5 -175.5q0 -34 -5 -71q-16 -110 -75 -182t-144.5 -107t-179.5 -35z" />
    <glyph glyph-name="nine" unicode="9" horiz-adv-x="1011" 
d="M354 904q10 0 21 4q65 24 152.5 129.5t197.5 315.5q-36 4 -68 4q-99 0 -169 -31.5t-114 -81.5t-64 -108.5t-20 -111.5q0 -46 15 -83t49 -37zM519 18l-21 1q-129 7 -225.5 87.5t-116.5 228.5q-59 -14 -66 -14q-28 0 -46.5 19.5t-18.5 45.5q0 22 13.5 39.5t35.5 23.5
l249 64q8 2 16 2q29 0 47 -19.5t18 -45.5q0 -22 -13.5 -39.5t-35.5 -23.5l-33 -9q1 -1 1 -5q5 -95 61 -139.5t134 -45.5q69 0 130 45t79 141l26 690q-221 -334 -416 -334q-97 0 -156.5 83t-59.5 208q0 83 31 172t96.5 164t166 122.5t240.5 47.5q96 0 212 -28q29 -8 49 -30
t20 -54q-1 -9 -40 -1053l-1 -9q-17 -111 -73.5 -185.5t-137 -112t-165.5 -37.5z" />
    <glyph glyph-name="colon" unicode=":" horiz-adv-x="364" 
d="M169 654q-17 0 -26 3q-50 11 -75 43.5t-25 71.5q0 45 33.5 83.5t88.5 38.5q54 0 89 -37t35 -85l-2 -19q-8 -41 -40 -70t-78 -29zM148 210l-21 2l-2 1q-51 11 -75.5 43.5t-24.5 71.5q0 44 32.5 83t88.5 39q54 0 89 -36t35 -82q0 -48 -33 -85t-89 -37z" />
    <glyph glyph-name="semicolon" unicode=";" horiz-adv-x="370" 
d="M175 640q-53 0 -89.5 34t-36.5 83q0 46 33.5 84.5t87.5 38.5q53 0 89 -36t36 -84q0 -42 -32 -81t-88 -39zM110 82q-36 0 -65 30q-20 26 -20 54q0 37 30 66q10 7 13 18.5t3 55.5q2 36 26.5 59t58.5 23q36 -1 60 -26t24 -57v-23q0 -65 -11 -100.5t-64 -78.5
q-26 -21 -55 -21z" />
    <glyph glyph-name="semicolon" unicode="&#x37e;" horiz-adv-x="370" 
d="M175 640q-53 0 -89.5 34t-36.5 83q0 46 33.5 84.5t87.5 38.5q53 0 89 -36t36 -84q0 -42 -32 -81t-88 -39zM110 82q-36 0 -65 30q-20 26 -20 54q0 37 30 66q10 7 13 18.5t3 55.5q2 36 26.5 59t58.5 23q36 -1 60 -26t24 -57v-23q0 -65 -11 -100.5t-64 -78.5
q-26 -21 -55 -21z" />
    <glyph glyph-name="less" unicode="&#x3c;" horiz-adv-x="562" 
d="M402 268q-26 0 -49 16l-293 215q-35 26 -35 68q0 38 33 67l281 219q24 18 51 18q34 0 59.5 -25t25.5 -59q0 -38 -33 -67l-192 -150l202 -149q35 -30 35 -69q0 -34 -25.5 -59t-59.5 -25z" />
    <glyph glyph-name="equal" unicode="=" horiz-adv-x="640" 
d="M482 578l-373 1q-35 2 -59.5 26.5t-24.5 58.5q0 35 25 59.5t60 24.5l370 -2q35 0 60 -24.5t25 -59.5q-2 -36 -25.5 -60t-57.5 -24zM480 339l-371 2q-36 1 -59.5 25t-24.5 60q1 36 25 59.5t60 24.5l370 -2q36 -1 60 -25t25 -59q-2 -36 -25.5 -60t-59.5 -25z" />
    <glyph glyph-name="greater" unicode="&#x3e;" horiz-adv-x="561" 
d="M110 268q-34 0 -59.5 25t-25.5 59q0 39 34 69l203 149l-193 150q-32 29 -32 66q0 35 25.5 60t59.5 25q27 0 51 -18l281 -219q32 -29 32 -66q0 -40 -34 -69l-293 -215q-23 -16 -49 -16z" />
    <glyph glyph-name="question" unicode="?" horiz-adv-x="1129" 
d="M349 -32q-30 0 -53.5 19.5t-28.5 50.5q-9 56 -9 109q0 129 47 247.5t119.5 230t153.5 220.5q100 132 182.5 266t114.5 278q10 52 10 94q0 73 -26.5 118.5t-72.5 66.5t-105 21q-107 0 -212.5 -63.5t-146.5 -178.5l34 -8q23 -5 37.5 -23t14.5 -40q-8 -66 -66 -66
q-14 2 -265 56q-23 6 -37.5 24t-14.5 40q8 66 66 66q27 -3 36.5 -6t28.5 -7q35 118 118 202t191.5 129t215.5 45q98 0 183 -41.5t137.5 -124.5t52.5 -207q0 -60 -14 -130q-38 -170 -129 -321t-197 -291q-75 -101 -140 -200t-106 -199t-41 -204q0 -36 4 -59l3 -30
q0 -36 -25.5 -60t-59.5 -24zM447 -335q-16 0 -21 2q-45 9 -65.5 38t-20.5 62q0 40 29 73t75 33q47 0 77.5 -32.5t30.5 -72.5t-29 -71.5t-76 -31.5z" />
    <glyph glyph-name="at" unicode="@" horiz-adv-x="1478" 
d="M667 -26q-167 0 -288 48.5t-199.5 130.5t-116.5 186.5t-38 215.5q0 167 78 335t227 300q85 72 178 105.5t184 33.5q130 0 243.5 -60.5t183.5 -165.5t70 -241q0 -188 -147 -368q-86 -111 -198 -111q-94 3 -151 68q-73 -80 -150 -80q-62 0 -99.5 36.5t-54.5 87.5t-17 96
q0 92 35 165.5t89.5 122.5t109.5 70t111 23l18 -1q34 -5 55.5 -29t21.5 -56q-2 -37 -26 -60.5t-59 -23.5l-12 1q-24 -3 -49.5 -12.5t-56.5 -36.5q-33 -30 -49.5 -68t-19.5 -97q1 -10 1.5 -20.5t6.5 -22.5q40 26 107 156q13 29 32.5 43.5t48.5 14.5q34 0 59 -25t25 -60
q0 -23 -9 -38.5t-9 -32.5q0 -23 13 -37t31 -15q12 0 29.5 11t35.5 38q109 133 109 262q0 88 -47 154.5t-122 104t-159 37.5q-138 0 -251 -97q-118 -104 -182.5 -239t-64.5 -269q0 -110 49 -203.5t153.5 -150t268.5 -56.5q67 0 141 13t158 58t181 140l-38 36q-21 23 -21 48
q0 26 19.5 45.5t46.5 19.5q24 0 45 -18l186 -177q20 -21 20 -48q0 -26 -19 -45.5t-46 -19.5q-24 0 -45 18l-26 24q-117 -114 -221 -171.5t-197.5 -75t-181.5 -17.5z" />
    <glyph glyph-name="A" unicode="A" horiz-adv-x="1583" 
d="M1141 -40q-30 0 -51 20.5t-23 53.5q0 31 20.5 52t53 22.5t64.5 2.5l1 124q-408 -191 -677 -191q-76 0 -137 15q-168 43 -244 166q-65 106 -65 239l1 30q9 159 89.5 322t213.5 287q105 97 226 148q106 44 221 44h14q171 -2 346 -128l-4 169q-3 112 -41.5 196t-102.5 140
q-84 74 -193 93q-38 7 -77 7q-71 0 -141 -24q-79 -28 -147.5 -90t-116.5 -159l59 -33q38 -26 38 -66q0 -18 -9 -36q-27 -38 -66 -38q-18 0 -36 9l-294 165q-38 26 -38 66q0 18 9 36q26 38 66 38q18 0 36 -9l71 -40q66 130 160 213t205 122q101 35 203 35q57 0 112 -11
q159 -29 284 -137q91 -80 146.5 -199t60.5 -274q13 -476 16 -952l-1 -273l85 2q30 0 51.5 -20.5t23.5 -53.5q0 -31 -21 -52t-52 -23zM536 232q248 0 670 212q-1 251 -6 463q-95 105 -187 153q-89 46 -181 47q-150 0 -293 -121q-13 -10 -24 -21q-107 -100 -171 -228
q-70 -138 -72 -271q0 -82 35.5 -141t127.5 -82q45 -11 101 -11z" />
    <glyph glyph-name="B" unicode="B" horiz-adv-x="1486" 
d="M234 -24q-39 0 -66.5 27.5t-27.5 66.5v71q0 512 13 1024l3 141q4 288 16 580l-72 -2q-31 0 -52.5 21t-22.5 53q0 31 21 52.5t52 23.5l339 8q30 0 51 -21t23 -53q0 -32 -21 -53.5t-52 -22.5l-77 -2l-4 -110q133 114 289 114q124 0 220 -72q53 -40 83 -98.5t30 -130.5
q0 -43 -12 -91q-26 -108 -138 -235q91 -2 169 -25q148 -45 238.5 -151t106.5 -252q3 -26 3 -52q0 -125 -61.5 -262t-192.5 -271q-105 -103 -226.5 -160.5t-243.5 -82.5q-118 -24 -219 -29.5t-169 -5.5zM341 1144l70 32q178 107 267 202q113 120 113 211q0 55 -41.5 85.5
t-100.5 30.5q-110 0 -200 -98q-66 -72 -103 -206l-2 -104q-3 -71 -3 -153zM328 166q114 1 254 29q228 47 376 192q103 105 151 207t48 191l-2 34q-9 88 -62.5 151t-147.5 91q-61 18 -135 18q-137 0 -314 -71q-73 -43 -159 -86q-7 -469 -9 -756z" />
    <glyph glyph-name="C" unicode="C" horiz-adv-x="1502" 
d="M628 -13q-27 0 -54 3q-198 21 -319 135.5t-175.5 291.5t-54.5 378q0 287 90.5 563t236.5 432q128 131 262 176q62 20 120 20q95 0 177 -45.5t145 -118.5t100.5 -159.5t45.5 -171.5l88 2q38 0 65.5 -26.5t29.5 -66.5q0 -39 -26.5 -66t-65.5 -29l-339 -8q-37 0 -64.5 26.5
t-29.5 66.5q0 38 26.5 65.5t65.5 29.5l61 1q-4 44 -27.5 97t-62 101.5t-88 80.5t-106.5 32q-27 0 -56 -9q-90 -31 -186 -129q-116 -125 -193 -372.5t-77 -499.5q0 -156 36.5 -290t119.5 -220t218 -100q16 -1 33 -1q89 0 178 40q104 48 179 153l-40 9q-34 9 -53.5 34.5
t-19.5 57.5q0 11 2 21q9 34 34.5 53.5t57.5 19.5q11 0 21 -2l328 -76q34 -8 53.5 -34t19.5 -58q0 -11 -2 -21q-8 -33 -33.5 -53t-57.5 -20q-11 0 -22 3l-95 21q-112 -196 -292 -279q-126 -58 -254 -58z" />
    <glyph glyph-name="D" unicode="D" horiz-adv-x="1432" 
d="M233 -9q-39 0 -66.5 27.5t-27.5 68.5v84q0 172 2 458q7 900 23 1266l-64 -2q-30 0 -51.5 21t-23.5 52q0 32 21 53.5t53 23.5l338 8q30 0 51.5 -21t23.5 -52q0 -31 -21 -53t-53 -24l-85 -2q-3 -61 -6 -163q215 188 398 196l30 1q147 0 265.5 -99t184.5 -264
q80 -200 80 -438q0 -133 -27 -267.5t-84 -258.5q-185 -390 -511 -527q-92 -40 -177 -59q-131 -29 -273 -29zM327 183q474 32 696 502q95 207 95 447q0 200 -67 367q-50 122 -130 190q-64 56 -147 56l-18 -1q-85 -4 -189.5 -73t-226.5 -215q-3 -120 -4 -250q-9 -575 -9 -1023
z" />
    <glyph glyph-name="E" unicode="E" horiz-adv-x="1615" 
d="M589 40q-130 0 -247 65q-167 93 -251 335q-66 203 -66 428q0 57 4 112v8q6 74 17 144q34 204 104.5 373t157.5 278q100 122 226 173q75 30 151 30q194 0 329 -186q104 -143 143 -419l1 -15q0 -25 -12 -47.5t-36 -35.5q-48 -27 -168 -75q-94 -39 -301 -120
q-261 -100 -427 -172l-1 -49q0 -196 57 -369q60 -170 167 -230q72 -40 155 -40q26 0 53 4q123 19 239 102q100 72 175.5 182t111.5 251l-73 26q-49 25 -49 71q0 12 4 25q9 23 28 36t42 13q13 0 26 -4l316 -114q23 -9 36 -28t13 -42q0 -13 -4 -26q-9 -23 -28 -36t-42 -13
q-13 0 -26 4l-65 23q-47 -168 -140 -300.5t-215 -220.5q-154 -110 -322 -135q-42 -6 -83 -6zM236 1130l337 134q300 118 388 155q-34 181 -101 273q-77 106 -176 106q-40 0 -81 -17q-160 -65 -277 -342q-58 -139 -90 -309z" />
    <glyph glyph-name="F" unicode="F" horiz-adv-x="1353" 
d="M99 -19q-30 0 -51 21t-23 53q0 31 21 52.5t52 23.5l72 1l37 1716q0 39 27.5 66.5t66.5 27.5h880l-1 44q0 32 21.5 54t53.5 22q31 0 52 -21.5t23 -52.5l4 -269q0 -31 -21 -52.5t-53 -23.5q-31 0 -53.5 21.5t-22.5 52.5l-1 37h-790l-13 -597l670 32l-1 55q0 32 21 53.5
t53 22.5q31 0 52.5 -21t23.5 -53l3 -271q0 -30 -21 -51t-53 -23q-31 0 -53 21.5t-22 52.5l-1 26l-676 -33l-18 -831l78 2q31 0 52.5 -21t22.5 -53q0 -32 -21 -53.5t-52 -22.5z" />
    <glyph glyph-name="G" unicode="G" horiz-adv-x="1491" 
d="M1025 -40q-31 0 -52.5 20.5t-22.5 53.5q0 31 21 52t53 22.5t64 2.5l-1 12l2 152q-104 -114 -235 -180q-143 -73 -298 -75q-138 0 -258 68q-110 65 -182 195q-91 164 -91 452q0 248 64.5 454t169 360t229.5 249q129 98 261 130q56 13 110 13q81 0 154 -30
q106 -45 175.5 -153.5t88.5 -286.5l75 18q9 2 18 2q25 0 45 -15.5t27 -41.5q2 -9 2 -18q0 -25 -15.5 -45.5t-41.5 -26.5l-327 -79q-9 -2 -18 -2q-25 0 -46 15q-29 23 -29 59q0 25 15.5 45.5t42.5 27.5l67 16l-2 12q-10 126 -50 200q-62 114 -181 114q-32 0 -67 -8
q-93 -21 -189 -95q-105 -80 -193 -211.5t-142.5 -308.5t-54.5 -393q0 -231 62 -352q90 -176 281 -176q106 1 213 55q123 62 212.5 177t113.5 268v55l-490 -9q-37 0 -64 26.5t-29 66.5q0 39 26.5 66t65.5 29l588 11q40 -2 66.5 -29t26.5 -66l-10 -743l87 2q30 0 51 -20.5
t23 -53.5q0 -31 -21 -52t-52 -23z" />
    <glyph glyph-name="H" unicode="H" horiz-adv-x="1507" 
d="M1027 -28q-30 0 -51 21t-23 53q0 31 21 52.5t52 23.5l81 2l19 864h-755l-19 -856l84 2q30 0 51.5 -21t23.5 -53q0 -32 -21 -53.5t-52 -22.5l-339 -8q-30 0 -51 21t-23 53q0 31 20.5 52.5t53 23t65.5 1.5l36 1660l-72 -2q-31 0 -52.5 21t-23.5 54q0 31 21 52t52 23l338 8
q31 0 52.5 -21t22.5 -53q0 -31 -21 -52t-52 -23l-77 -2l-13 -616h755l14 655l-97 -2q-30 0 -51 21t-23 53q0 31 20.5 52t52.5 23l338 9q30 0 51.5 -21t23.5 -54q0 -31 -21 -52t-52 -23l-54 -1l-37 -1708l69 2q31 0 52.5 -21t22.5 -53q0 -32 -21 -53.5t-52 -22.5z" />
    <glyph glyph-name="I" unicode="I" horiz-adv-x="569" 
d="M100 -40q-30 0 -51.5 20.5t-23.5 53.5q0 31 21 52t52 23l78 2l-1 9l37 1696l-72 -2q-31 0 -52.5 21t-22.5 53q0 32 21 53.5t52 22.5l339 8q30 0 51 -21t23 -53q0 -31 -21 -52.5t-52 -23.5l-78 -2l-37 -1704l74 1q30 0 51 -20.5t23 -53.5q0 -31 -20.5 -52t-52.5 -23z" />
    <glyph glyph-name="J" unicode="J" horiz-adv-x="1464" 
d="M637 2h-5q-138 0 -253 77q-131 88 -179 274q-8 36 -11 83l-1 4l-61 -23q-13 -5 -27 -5q-45 0 -70 48q-5 13 -5 27q0 45 49 70l314 120q14 5 27 5q23 0 42 -12.5t28 -35.5q5 -13 5 -26q0 -23 -13 -42.5t-36 -28.5l-68 -26q4 -85 11 -115q29 -112 102 -162q66 -44 144 -44
h5q87 0 177 52q70 41 128 113.5t93 176.5q32 108 41.5 346.5t9.5 484.5l-2 453l-78 -2q-30 0 -51 21t-23 53q0 32 20.5 53.5t52.5 22.5l338 8q30 0 51.5 -21t23.5 -53q0 -31 -21 -52.5t-52 -23.5l-73 -1l2 -461q0 -256 -11 -509t-49 -379q-48 -140 -127.5 -238t-177.5 -154
q-132 -76 -270 -78z" />
    <glyph glyph-name="K" unicode="K" horiz-adv-x="1606" 
d="M1181 -26q-35 0 -62 33q-13 20 -13 42q0 35 32 62l56 39l-829 653l-7 -667l79 2q30 0 52 -21.5t22 -52.5q0 -32 -20.5 -53.5t-52.5 -22.5l-338 -8q-30 0 -51.5 21t-23.5 53q0 31 21 52.5t55 23t69 1.5q8 866 9 870l8 829l-54 -1q-31 0 -52.5 21t-22.5 53q0 31 21 52.5
t52 23.5l338 8q31 0 52.5 -21t22.5 -53q0 -32 -21 -53.5t-52 -22.5l-96 -2l-6 -634l761 651l-58 40q-32 26 -32 62q0 22 13 42q26 32 62 32q22 0 43 -13l275 -193q32 -26 32 -62q0 -22 -13 -43q-26 -32 -62 -32q-22 0 -43 14l-58 41l-868 -742l933 -735l59 41q20 14 43 14
q35 0 62 -33q13 -20 13 -42q0 -35 -32 -62l-275 -193q-20 -14 -43 -14z" />
    <glyph glyph-name="L" unicode="L" horiz-adv-x="1541" 
d="M1372 -106q-38 0 -65 26.5t-29 65.5l-2 54l-1004 -83q-39 0 -66.5 27.5t-27.5 66.5l15 1724l-76 -1q-37 0 -63.5 26t-28.5 66q0 39 26.5 66.5t65.5 29.5l338 8q38 0 65.5 -27t28.5 -69q0 -37 -26.5 -63.5t-64.5 -28t-77 -2.5l-15 -1635l906 83l-1 65q0 38 26.5 64.5
t66.5 28.5q39 0 66 -26.5t29 -65.5l7 -306q0 -38 -26.5 -65t-67.5 -29z" />
    <glyph glyph-name="M" unicode="M" horiz-adv-x="2270" 
d="M1784 -33q-30 0 -51.5 20.5t-23.5 53.5q0 31 21 52t52.5 22.5t63.5 2.5q-1 8 -1 18q24 1261 24 1295q0 211 -63 294q-21 28 -44 31l-9 1q-25 0 -57 -18q-217 -118 -363 -748q-73 -308 -128 -865v-4l80 2q30 0 51.5 -21t23.5 -53q0 -31 -21 -52t-52 -23l-339 -8
q-30 0 -51 20.5t-23 53.5q0 31 20.5 52t52.5 23l72 2q-2 8 -2 15q-7 505 -7 908q0 219 -1 429q-5 186 -77 266q-38 45 -83 45q-83 0 -156 -144q-82 -179 -168 -565q-95 -441 -165 -950l76 2q31 0 52.5 -21t22.5 -53q0 -31 -21 -52t-52 -23l-338 -8q-31 0 -52.5 20.5
t-22.5 53.5q0 31 21 52t52 23l76 2q-1 8 -1 17l22 1706l-63 -2q-30 0 -51.5 21t-23.5 53q0 32 21 53.5t52 22.5l339 8q30 0 51 -21t23 -53q0 -31 -20.5 -52.5t-52.5 -23.5l-87 -2l-8 -590q75 306 149 464q91 178 217 228q54 23 109 23q129 0 226 -112q54 -63 86.5 -160.5
t34.5 -226.5q1 -121 1 -244q50 173 94 273q66 153 147 255q151 190 313 190q123 0 205 -107q100 -134 100 -410v-35q-24 -1260 -25 -1271l89 2q30 0 51 -21t23 -53q0 -31 -20.5 -52t-52.5 -23z" />
    <glyph glyph-name="N" unicode="N" horiz-adv-x="1697" 
d="M1211 -31q-31 0 -52.5 21t-22.5 53q0 31 21 52t52 23l81 2q-3 19 -3 159q1 143 4 294t3 302q0 351 -36 576q-32 184 -112 286q-58 73 -122 73q-105 0 -223 -183q-108 -178 -220 -565q-125 -433 -215 -937l71 2q30 0 51 -21t23 -54q0 -31 -20.5 -52t-52.5 -23l-338 -8
q-30 0 -51.5 21t-23.5 53q0 31 21 52t52 23l81 2l-1 15l28 1671l-66 -1q-31 0 -52.5 20.5t-22.5 53.5q0 31 21 52t52 23l339 8q30 0 51 -20.5t23 -53.5q0 -31 -21 -52t-52 -23l-84 -2l-13 -764l20 68q118 411 241 613q113 174 231 233q76 38 150 38q43 0 84 -12
q106 -33 185 -133q112 -140 152 -373q38 -240 38 -606q0 -153 -3 -306q-3 -148 -4 -288q0 -74 2 -145q0 -6 -1 -11l71 2q31 0 52.5 -21t22.5 -54q0 -31 -21 -52t-52 -23z" />
    <glyph glyph-name="O" unicode="O" horiz-adv-x="1386" 
d="M605 235q84 0 152 39q133 75 213 263q92 220 92 492q0 251 -76 448q-47 121 -123.5 199.5t-181.5 93.5l-24 1q-72 0 -154 -48q-97 -60 -159 -167l-1 -1q-1 -8 -3 -12l-4 -8t-5 -9q-24 -66 -24 -155l2 -47q6 -84 40 -156q31 -64 92 -99q47 -29 123 -29l42 2l30 77
q25 48 70 48q13 0 26 -5q23 -9 35.5 -28.5t12.5 -41.5q0 -14 -5 -27l-121 -314q-9 -23 -28 -35.5t-42 -12.5q-13 0 -27 5q-47 25 -47 70q0 13 5 27l18 48q-208 14 -317 172q-2 -43 -2 -86q0 -171 38 -329q30 -123 85 -213.5t136 -133.5q56 -28 132 -28zM611 45
q-121 0 -222 50q-122 63 -201 185.5t-119 283.5q-44 181 -44 376q0 138 21 273q32 213 111 385q10 27 22 49q86 151 227 236q127 77 253 77q23 0 45 -3q156 -22 266.5 -124t177.5 -258q102 -239 102 -543q0 -312 -107 -568q-52 -124 -129 -218q-164 -201 -403 -201z" />
    <glyph glyph-name="P" unicode="P" horiz-adv-x="1367" 
d="M524 742q67 0 139 22q173 54 298 185q39 44 68 90q113 194 113 363q0 116 -50.5 199t-131.5 120q-56 26 -120 26q-146 0 -278 -131q-108 -108 -183 -318q-3 -9 -8 -17l-1 -497q66 -42 154 -42zM107 -31q-31 0 -52.5 20.5t-22.5 53.5q0 31 21 52t52 23l76 2l3 1798l-85 -2
q-30 0 -51 21t-23 53q0 31 21 52.5t52 23.5l338 8q31 0 52.5 -21t22.5 -53q0 -32 -21 -53.5t-53 -22t-66 -1.5l1 -9l-1 -232q86 107 182 167q139 86 286 86q105 0 199 -43q136 -61 216 -195q76 -125 76 -294q0 -220 -139 -459q-39 -64 -93 -123q-160 -167 -381 -237
q-98 -30 -193 -30q-80 0 -154 23l-1 -452l74 1q31 0 52.5 -20.5t22.5 -53.5q0 -31 -21 -52t-52 -23z" />
    <glyph glyph-name="Q" unicode="Q" horiz-adv-x="1499" 
d="M1168 -98q-27 0 -50 19q-25 25 -25 56q0 27 19 50l48 54l-180 144q-156 -169 -376 -169q-123 0 -219 50q-121 63 -200 187t-118 286q-42 181 -42 376q0 141 21 280q26 198 103.5 373t250.5 286q126 77 254 77q22 0 45 -3q155 -22 266 -124t177 -258q103 -239 103 -546
q0 -308 -108 -565q-21 -51 -47 -97l196 -157l50 57q25 24 56 24q27 0 50 -19q25 -24 25 -55q0 -27 -19 -50l-225 -251q-24 -25 -55 -25zM598 246q132 0 233 99l-147 117q-35 33 -35 74q0 31 20 58q32 35 73 35q31 0 59 -20l139 -112q14 26 24 51q92 221 92 496q0 89 -11 177
q-18 145 -65 266.5t-123.5 200t-181.5 93.5l-24 1q-72 0 -154 -49q-161 -101 -223 -327q-61 -217 -61 -451q0 -173 37 -331q30 -124 84.5 -216t134.5 -134q53 -28 129 -28z" />
    <glyph glyph-name="R" unicode="R" horiz-adv-x="1488" 
d="M1107 -93q-38 0 -65 36q-11 19 -11 38q0 38 36 65l43 26l-757 525l-1 -452l85 2q30 0 51.5 -21t23.5 -52q0 -31 -21 -53t-53 -24l-338 -8q-30 0 -51.5 21t-23.5 52q0 32 21 53.5t53.5 23t64.5 1.5v110q0 194 3 517l-1 11l1 15l-1 11q1 11 7 494q7 457 19 664l-72 -2
q-31 0 -52.5 21t-22.5 53q0 31 21 52.5t52 23.5l339 8q30 0 51 -21t23 -53q0 -32 -21 -53.5t-52 -22.5l-76 -2q-6 -69 -10 -199q146 165 305 196q46 10 91 10q85 0 162 -34q117 -53 189 -171q77 -126 77 -296q0 -209 -121 -442q-32 -63 -79 -117q-147 -169 -349 -235
q-28 -9 -57 -16l695 -483l69 43q19 11 39 11q38 0 64 -36q11 -20 11 -40q0 -38 -36 -63l-287 -176q-19 -11 -38 -11zM455 834q63 0 134 23q152 50 263 176q33 39 56 84q100 193 100 355q0 119 -50 199q-41 68 -105 96q-39 18 -85 18q-124 0 -241 -125q-93 -101 -164 -294
q-4 -146 -7 -512q44 -20 99 -20z" />
    <glyph glyph-name="S" unicode="S" horiz-adv-x="1518" 
d="M738 0q-106 0 -206 28q-135 39 -229.5 132t-119.5 242l-60 -19q-12 -4 -23 -4q-23 0 -43 14t-28 38q-4 12 -4 23q0 24 14 43.5t38 27.5l320 104q12 4 23 4q24 0 44 -14q31 -22 31 -61q0 -24 -13.5 -44t-38.5 -28l-77 -25q7 -100 68 -163t152 -89q71 -21 147 -21
q139 0 255 58q80 40 130 107.5t50 160.5q0 24 -4 50q-16 96 -67 157.5t-125.5 103.5t-160.5 79l-4 2q-96 41 -191.5 94t-182.5 136q-172 171 -172 363q0 91 37 175q82 178 253 272q124 68 251 68q156 0 261 -103q68 -68 101 -187l71 31q15 7 31 7q43 0 68 -45q6 -15 6 -30
q0 -43 -45 -69l-307 -136q-15 -7 -31 -7q-43 0 -68 45q-7 15 -7 31q0 21 12 40t33 28l62 27q-16 78 -51 119.5t-82 53.5q-26 7 -55 7q-77 0 -160 -46q-116 -63 -170 -179q-20 -46 -20 -98q0 -120 114 -233q69 -66 153 -111.5t170 -82.5q111 -47 207.5 -103t164 -145.5
t91.5 -235.5q6 -43 6 -83q0 -101 -36 -183q-71 -159 -247 -248q-157 -78 -336 -78z" />
    <glyph glyph-name="T" unicode="T" horiz-adv-x="1350" 
d="M594 -46q-31 0 -52.5 20.5t-22.5 53.5q0 31 21 52t52 23l86 2l45 1628l-542 -17l1 -76q0 -30 -21 -51t-53 -23q-32 0 -53.5 21.5t-21.5 51.5l-8 337q0 31 21 52.5t54 23.5q31 0 52 -21t23 -52l2 -75l1338 40l-2 66q0 31 21 52.5t54 22.5q31 0 52 -21t23 -53l7 -338
q0 -30 -21 -51t-53 -23q-32 0 -53.5 21t-22.5 52l-1 85q-10 -1 -608 -19l-45 -1628l65 1q30 0 51 -20.5t23 -53.5q0 -31 -21 -52t-52 -23z" />
    <glyph glyph-name="U" unicode="U" horiz-adv-x="1556" 
d="M1060 -38q-30 0 -51 21t-23 53q0 31 21 52t53 22.5t65 2.5l9 363l-20 -48q-96 -213 -238 -301q-116 -72 -233 -72h-19q-130 6 -235 89q-112 88 -163 247q-70 241 -70 879q0 332 13 533l-69 -2q-31 0 -52.5 21t-22.5 53q0 32 21 53.5t52 22.5l339 8q30 0 51 -21t23 -53
q0 -31 -21 -52.5t-52 -23.5l-80 -2q-14 -197 -14 -542q0 -147 5 -298q10 -337 58 -522q32 -102 99 -154q60 -47 135 -48q65 0 132 41q97 60 168 219q73 163 136 522q53 309 85 787l-64 -2q-30 0 -51 21t-23 53q0 31 20.5 52.5t52.5 23.5l338 8q30 0 51.5 -21t23.5 -53
q0 -32 -21 -53.5t-52 -22.5l-86 -2q-21 -1010 -38 -1698l82 2q32 0 53.5 -21t23.5 -54q0 -31 -21 -52t-52 -23z" />
    <glyph glyph-name="V" unicode="V" horiz-adv-x="1461" 
d="M600 -67q-30 0 -51 21t-23 53q0 32 21 53.5t53 22.5l64 2q-152 426 -266 852q-116 440 -218 874l-80 -2q-31 0 -52.5 21t-22.5 53q0 31 21 52.5t52 23.5l339 8q30 0 51 -21t23 -53q0 -32 -20.5 -53.5t-52.5 -22.5t-65 -2q98 -417 207 -829q89 -330 199 -660
q211 490 398 984l197 507l-68 -2q-31 0 -52.5 21t-22.5 53q0 31 21 52.5t52 23.5l339 8q30 0 51 -21t23 -53q0 -32 -21 -53.5t-53 -22t-65 -1.5q-1 -6 -4 -11q-61 -153 -202 -517q-115 -303 -236 -604.5t-257 -599.5l58 1q31 0 52.5 -21t22.5 -53q0 -31 -21.5 -53t-51.5 -22
z" />
    <glyph glyph-name="W" unicode="W" horiz-adv-x="2245" 
d="M1533 10h-6q-109 0 -208 58q-120 73 -174 226q-40 128 -63 281q-29 -151 -73 -257q-81 -180 -226 -247q-75 -35 -153 -35q-136 0 -244 97q-59 55 -100 141.5t-54 205.5q-20 200 -30 577q-13 399 -28 726l-75 -2q-30 0 -51 21t-23 53q0 31 20.5 52.5t52.5 23.5l338 8
q30 0 51.5 -21t23.5 -53q0 -32 -21 -53.5t-52 -22.5l-76 -2q14 -315 22 -557l6 -169q10 -368 29 -561q21 -163 96 -229q41 -37 90 -45l23 -2q38 0 76 18q81 36 132 149q49 119 80 327.5t64 520.5q37 332 66 565l-75 -1q-30 0 -51 20.5t-23 53.5q0 31 21 52t52 23l338 8
q31 0 52.5 -20.5t22.5 -53.5q0 -31 -21 -52t-52 -23l-73 -2l-1 -71q-5 -309 -5 -450q0 -279 18.5 -518.5t74.5 -417.5q31 -85 94 -123q53 -31 111 -31q60 2 113 38q75 49 112 170q56 192 85.5 499t64.5 898l-75 -2q-30 0 -51.5 21t-23.5 53q0 31 21.5 53t52.5 22l338 9
q30 0 52 -21.5t22 -52.5q0 -32 -20.5 -53.5t-52.5 -22.5l-74 -2q-35 -601 -66 -921q-32 -326 -92 -532q-58 -189 -186 -273q-101 -68 -216 -71z" />
    <glyph glyph-name="X" unicode="X" horiz-adv-x="1747" 
d="M1261 4q-31 0 -52.5 20.5t-22.5 53.5q0 31 21 52t52 23l51 2l-442 771l-470 -760l39 1q30 0 51 -21t23 -53q0 -32 -21 -53.5t-52 -22.5l-338 -8q-31 0 -52.5 21t-22.5 53q0 31 21 52.5t52 23.5l77 1q1 5 586 952l-386 675l-78 -2q-30 0 -51 21t-23 53q0 31 21 52t52 23
l336 9q32 0 53.5 -21t23.5 -54q0 -31 -21 -52t-52 -23l-47 -1l285 -498l308 499l-47 -1q-31 0 -52.5 21t-22.5 53q0 31 21.5 53t51.5 22l339 9q30 0 51 -21t23 -53q0 -32 -21 -53.5t-53 -22.5t-66 -2q-6 -11 -426 -689q539 -939 544 -949l73 1q31 0 52.5 -20.5t22.5 -53.5
q0 -31 -21 -52t-52 -23z" />
    <glyph glyph-name="Y" unicode="Y" horiz-adv-x="1407" 
d="M646 -8h-8q-169 6 -288 101q-55 47 -91 109q-25 48 -42 102l-71 -31q-15 -7 -31 -7q-43 0 -68 44q-7 15 -7 31q0 43 45 68l307 137q15 7 31 7q21 0 40 -12t28 -33q7 -15 7 -30q0 -22 -11.5 -40.5t-32.5 -27.5l-63 -28q24 -97 78 -144q72 -57 180 -58q69 0 139 29
q220 90 234 429q8 329 12 561q-117 -226 -247 -338q-118 -103 -237 -103h-6q-134 1 -229 133q-63 90 -100.5 258.5t-37.5 423.5q0 101 7 217l-85 -2q-30 0 -51 21t-23 53q0 32 21 53.5t52 22.5l338 8q31 0 52.5 -21t22.5 -53q0 -31 -21 -52.5t-52.5 -22.5t-64.5 -2
q-7 -125 -7 -231q0 -417 104 -566q38 -51 78 -52q51 0 117 58q113 97 215.5 306.5t166.5 506.5l-79 -2q-31 0 -52.5 21t-22.5 53q0 32 21 53.5t52 22.5l339 8q30 0 51 -21t23 -53q0 -31 -21 -52.5t-53 -22.5t-65 -2q-14 -326 -20 -737l-10 -451q-7 -282 -148 -448
q-87 -104 -197 -149t-219 -45z" />
    <glyph glyph-name="Z" unicode="Z" horiz-adv-x="1661" 
d="M1499 -80q-31 0 -53 21.5t-22 51.5l-1 47h-1305q-27 0 -51 16q-42 33 -42 78q0 27 16 52q305 451 1077 1567h-690l1 -53q0 -30 -21 -51t-54 -23q-31 0 -52 21t-23 52l-7 339q0 30 21 51t53 23q32 0 53.5 -21t22.5 -53l2 -96h873q39 0 66.5 -27.5t27.5 -66.5
q0 -33 -20 -59l-300 -435q-373 -540 -774 -1126h1122l-3 101q0 32 21 53.5t53 23.5q31 0 52.5 -21t23.5 -53l7 -338q0 -30 -21.5 -52t-52.5 -22z" />
    <glyph glyph-name="bracketleft" unicode="[" horiz-adv-x="625" 
d="M471 -178q-27 0 -45.5 19t-18.5 45v38h-300q-36 2 -59 26.5t-23 58.5l37 1559q-1 1 -1 5q0 35 25 60t60 25h273v49q0 27 19.5 46t46.5 19t46 -19t19 -46l-1 -258q0 -27 -19.5 -46t-46.5 -19q-28 1 -46.5 20t-18.5 46v38h-189l-33 -1394h211q1 26 1 52t19 45t46 19
t46 -19.5t19 -46.5l-1 -257q0 -27 -19 -46t-47 -19z" />
    <glyph glyph-name="backslash" unicode="\" horiz-adv-x="886" 
d="M489 -88q-26 0 -45.5 18.5t-20.5 46.5q0 26 18.5 45.5t45.5 20.5l39 1l-386 1490l-50 -2q-27 0 -45.5 18.5t-19.5 47.5q0 26 18 45t45 20l259 8q27 0 45.5 -18.5t19.5 -46.5q0 -26 -18 -45t-45 -21l-36 -1l386 -1490l47 2q27 0 45.5 -18.5t19.5 -46.5q0 -26 -18 -45.5
t-45 -20.5z" />
    <glyph glyph-name="bracketright" unicode="]" horiz-adv-x="650" 
d="M25 1450l1 257q1 28 19.5 46t46.5 19q28 -1 46 -19.5t19 -45.5v-49h296q35 0 60 -25t25 -60l37 -1564q0 -34 -23.5 -58.5t-59.5 -26.5h-336v-53q-1 -27 -19.5 -45.5t-46.5 -19.5q-27 1 -45.5 19.5t-19.5 46.5l1 257q1 28 19.5 46t46.5 19q25 -1 42.5 -16.5t21.5 -39.5
q1 -3 1 -10v-34h247l-33 1394h-215v-39q-1 -27 -19.5 -45.5t-46.5 -19.5q-27 1 -45.5 19.5t-19.5 46.5z" />
    <glyph glyph-name="asciicircum" unicode="^" horiz-adv-x="528" 
d="M110 1339q-34 0 -59.5 24.5t-25.5 59.5q0 19 9 38l126 249q29 46 75 46t75 -44l133 -247q10 -20 10 -40q0 -35 -25.5 -60t-58.5 -25q-45 0 -75 45l-56 104l-53 -104q-12 -22 -32 -34t-43 -12z" />
    <glyph glyph-name="underscore" unicode="_" horiz-adv-x="743" 
d="M583 -4h-473q-35 0 -60 24.5t-25 59.5t25 60t60 25h473q35 0 60 -25t25 -60t-25 -59.5t-60 -24.5z" />
    <glyph glyph-name="grave" unicode="`" horiz-adv-x="367" 
d="M208 1355q-24 0 -45 12.5t-32 35.5l-98 206q-8 18 -8 36q0 36 25.5 60.5t59.5 24.5q47 0 76 -48l98 -206q8 -18 8 -37q0 -35 -25 -59.5t-59 -24.5z" />
    <glyph glyph-name="a" unicode="a" 
d="M717 51q-25 0 -42.5 17t-18.5 44q0 26 17 43.5t42.5 18.5t50.5 2q-3 11 -3 23l1 42q-228 -111 -393 -111q-79 0 -135 23q-88 36 -128.5 105.5t-40.5 148.5q1 99 55 193.5t153 154.5q132 72 290 72q106 0 190 -32l-3 52q-11 114 -88 178q-80 70 -180 70q-116 0 -177 -97
l24 -12q33 -21 33 -55q0 -15 -7 -29q-22 -33 -55 -33q-14 0 -28 7l-216 113q-33 22 -33 55q0 14 7 28q22 33 55 33q14 0 28 -7l50 -25q73 120 191 161q62 21 127 21q45 0 90 -10q109 -25 196 -99q60 -52 98 -125t45 -164q8 -129 12 -516q-1 -152 -3 -160l40 1q25 0 42.5 -17
t19.5 -44q0 -26 -17 -43.5t-43 -18.5zM376 288q145 0 387 134q0 77 -3 188q-71 57 -195 57q-117 0 -210 -50q-60 -37 -93.5 -93t-34.5 -113q0 -37 16 -68q16 -26 50.5 -40.5t82.5 -14.5z" />
    <glyph glyph-name="b" unicode="b" horiz-adv-x="1075" 
d="M351 62h-23q-142 0 -178 45q-17 23 -17 51v607q2 647 10 964l1 3l-54 -2q-26 0 -45 18.5t-20 46.5q0 27 18 46t45 20l259 8q26 0 45.5 -18.5t19.5 -48.5q0 -25 -18 -43.5t-45 -19.5l-37 -2v-12q-7 -298 -9 -698q98 75 212 75q42 0 83 -10q102 -24 184 -92
q74 -62 119.5 -147t49.5 -179v-24q0 -85 -18 -156q-56 -214 -238 -328q-167 -101 -344 -104zM347 230q132 3 257 78q127 80 165 227q13 52 13 113v22q-9 116 -108 199q-52 44 -113 58q-22 5 -44 5q-34 0 -67 -13q-84 -32 -148 -176v-512q21 -1 45 -1z" />
    <glyph glyph-name="c" unicode="c" horiz-adv-x="1056" 
d="M458 73q-81 0 -146 19q-116 33 -183 110q-104 118 -104 306q0 37 4 74q26 208 131 377q52 82 112 137q82 74 184 98q35 8 71 8q63 0 127 -26q17 -7 41.5 -23t47 -38.5t40.5 -49.5l55 27q14 7 29 7q36 0 59 -37q6 -14 6 -28q0 -36 -36 -59l-231 -113q-14 -7 -29 -7
q-36 0 -59 37q-6 14 -6 28q0 28 14.5 42t42.5 27l-4 6q-22 20 -34 25q-32 13 -63 13q-18 0 -35 -4q-105 -26 -189 -159q-85 -137 -106 -305q-3 -28 -3 -55q0 -166 104 -232q23 -14 63.5 -25.5t92.5 -11.5q32 0 68 6q87 13 179 79l-37 23q-31 23 -31 56q0 17 10 34
q23 31 56 31q17 0 34 -10l218 -137q30 -23 30 -55q0 -18 -10 -35q-23 -31 -55 -31q-18 0 -33.5 10t-30.5 19q-75 -67 -152 -103q-119 -55 -242 -55z" />
    <glyph glyph-name="d" unicode="d" horiz-adv-x="1028" 
d="M628 32q-25 0 -43.5 18t-19.5 46q0 27 18 46t44.5 20t51.5 2q-2 8 -2 150q-178 -159 -340 -159q-35 0 -67 7q-104 27 -167 116q-78 111 -78 288q0 162 62 292q80 172 228 249q106 51 190 51q89 0 171 -48q-1 359 -9 627l-49 -2q-26 0 -45 18.5t-21 46.5q0 27 18.5 46
t45.5 20l259 8q26 0 45 -18t20 -46q0 -27 -18 -46t-45 -21l-41 -1q10 -348 10 -1242q0 -249 1 -323l-1 -8l41 1q26 0 45 -18t21 -46q0 -27 -18.5 -46t-45.5 -20zM339 323q37 0 84 21q112 45 254 215v342q-36 31 -81 57t-101 26q-47 0 -103 -27q-95 -50 -152 -169
q-45 -96 -45 -219q0 -127 46 -193q36 -53 98 -53z" />
    <glyph glyph-name="e" unicode="e" horiz-adv-x="1130" 
d="M216 747q39 12 206 58q140 39 206 59q-22 70 -60 107q-47 46 -108 46q-72 0 -128 -55q-77 -78 -116 -215zM448 75q-80 0 -154.5 27t-132.5 81.5t-90 139.5q-46 130 -46 258q0 73 13 143q46 227 174 357q87 85 200 102q23 3 46 3q49 0 98 -15q73 -23 131 -80
q93 -89 123 -268q2 -9 2 -17q0 -27 -15.5 -48.5t-41.5 -30.5q-90 -30 -227 -68l-61 -17q-165 -44 -273 -79q3 -91 35 -181q57 -138 223 -138q26 0 52 4q83 14 150 60q80 56 102 149l-47 -1q-26 0 -45.5 18.5t-19.5 48.5q0 25 18 43.5t45 19.5l261 8q25 0 43.5 -18t19.5 -46
q0 -27 -18 -46t-45 -20l-41 -1q-10 -94 -57 -167.5t-119 -124.5q-100 -70 -222 -89q-41 -7 -81 -7z" />
    <glyph glyph-name="f" unicode="f" horiz-adv-x="1108" 
d="M90 -445q-26 0 -45 18t-20 46q0 27 18 46t43.5 20t48.5 2l25 1387q0 35 25 60t60 25h657q1 28 1 55t19 46t46 19t46 -19t19 -46l-1 -257q0 -27 -18.5 -46t-45.5 -19q-28 0 -47 18.5t-19 44.5v35h-574l-9 -442h471l1 45q0 27 19 46t46 19t46 -19t19 -46l-1 -258
q0 -27 -19 -46t-46 -19q-27 1 -46 19.5t-19 44.5v45h-474l-12 -687l43 2q26 0 45 -18.5t20 -46.5q0 -27 -18 -46t-45 -20z" />
    <glyph glyph-name="g" unicode="g" horiz-adv-x="1172" 
d="M578 -741l-31 1q-94 9 -176.5 63t-135.5 148.5t-63 228.5l-63 -19q-10 -3 -19 -3q-21 0 -38 12q-27 20 -27 54q0 42 46 62l255 78q10 3 20 3q42 0 62 -46q3 -10 3 -19q0 -21 -12.5 -38.5t-34.5 -24.5l-24 -7v-12q0 -102 34.5 -171.5t88 -104t117.5 -37.5q113 0 187 106
q44 63 62 166q15 103 22 554q-158 -130 -310 -130q-48 0 -92 13q-109 35 -178 130q-91 127 -91 319q0 160 61 288q82 173 228 249q106 54 212 54q40 0 76 -7q81 -15 144 -55t105 -92q20 -23 20 -55l-1 -123q-5 -1002 -29 -1172q-26 -151 -96.5 -245.5t-165.5 -135.5
q-77 -32 -156 -32zM542 292q137 0 312 205l3 439q-49 49 -130 67q-22 4 -45 4q-63 0 -136 -35q-96 -50 -151 -169q-46 -98 -46 -224q0 -131 59 -214q36 -49 90 -67q20 -6 44 -6z" />
    <glyph glyph-name="h" unicode="h" horiz-adv-x="1130" 
d="M733 34q-26 0 -45 18.5t-21 46.5q0 27 18.5 46t45 20t51.5 2l2 280q0 111 -6 210.5t-25 170.5q-33 122 -119 122q-38 0 -84 -22q-118 -58 -249 -217v-285l-1 -254l47 1q26 0 45 -18t20 -46q0 -27 -18 -46t-45 -20l-259 -9q-26 0 -45 18.5t-20 46.5q0 27 18 46t45 20l43 1
l1 325q2 866 13 1255l-49 -1q-26 0 -45 18t-20 46q0 27 18 46t45 20l259 9q26 0 45.5 -19t19.5 -49q0 -25 -18 -43.5t-45 -19.5l-42 -1q1 -4 1 -11q-10 -331 -11 -783q88 82 175 123q82 39 158 39q87 0 163 -56q68 -54 101 -150t43 -220.5t10 -259.5l-2 -262l39 1
q26 0 45 -18t20 -46q0 -27 -18 -46t-45 -20z" />
    <glyph glyph-name="i" unicode="i" horiz-adv-x="491" 
d="M90 45q-26 0 -45 18t-20 46q0 27 18 46.5t45 20.5l44 1l-3 426q0 214 7 494l-42 -1q-26 0 -45.5 18.5t-19.5 48.5q0 25 18 43.5t45 20.5l259 8q26 0 45 -18.5t20 -46.5q0 -27 -18 -46t-43.5 -19.5t-49.5 -1.5q-7 -267 -7 -476q0 -174 2 -299l1 -146l46 2q26 0 45 -18
t20 -46q0 -27 -18 -46.5t-45 -20.5zM239 1295q-6 0 -11.5 1t-11.5 1q-87 23 -87 98q0 34 19 61q32 46 87 46q11 0 24 -3q69 -18 81 -75q3 -11 3 -23q0 -34 -18 -61q-32 -45 -86 -45z" />
    <glyph glyph-name="j" unicode="j" horiz-adv-x="431" 
d="M-198 -741l-31 1q-96 9 -178 64q-87 57 -141.5 161t-57.5 252l-55 -2q-26 0 -45.5 18.5t-19.5 48.5q0 25 18 43.5t45 19.5l261 8q25 0 43.5 -18t19.5 -46q0 -27 -18 -46t-45 -20l-35 -1q0 -103 34.5 -172.5t88 -104.5t118.5 -38q113 0 187 106q44 63 61 166
q18 123 25 737l5 647l-50 -1q-25 0 -44 19t-19 48q0 25 18 43.5t45 19.5l259 8q26 0 45 -18t20 -46q0 -27 -18 -46t-45 -20l-43 -2q1 -4 1 -10q-2 -61 -2 -204l-1 -74q-5 -947 -29 -1128q-26 -151 -96.5 -245.5t-165.5 -135.5q-77 -32 -155 -32zM151 1286q-6 0 -11.5 1
t-11.5 1q-87 23 -87 98q0 34 20 61q30 46 86 46q12 0 24 -3q84 -22 84 -99q0 -32 -18 -60q-31 -45 -86 -45z" />
    <glyph glyph-name="k" unicode="k" horiz-adv-x="1198" 
d="M91 -3q-26 0 -45.5 18t-20.5 46q0 27 18 46t45 20.5t54 1.5l-1 16q1 49 2 420q1 687 12 1161l-56 -1q-25 0 -43.5 18t-19.5 46q0 27 18 46t45 20l259 8q26 0 45 -18t21 -46q0 -27 -18.5 -46t-45.5 -20l-36 -1q-8 -356 -11 -831l279 279v1l70 70l-21 13q-32 22 -32 55
q0 17 10 34q23 32 56 32q17 0 34 -10l219 -133q32 -23 32 -56q0 -17 -10 -34q-22 -31 -56 -31q-17 0 -33 9l-53 33q-6 -12 -16 -23q-80 -79 -433 -432l639 -444q19 21 39 41.5t47 20.5q23 0 43 -16q22 -22 22 -49q0 -24 -17 -44l-172 -191q-22 -22 -49 -22q-23 0 -43 17
q-22 22 -22 49q0 21 7 32t19 23l12 12l-572 398l-1 -109q0 -213 -1 -284v-8l37 2q26 0 45.5 -18.5t20.5 -46.5q0 -27 -18 -46t-45 -20z" />
    <glyph glyph-name="l" unicode="l" horiz-adv-x="495" 
d="M90 19q-26 0 -45.5 18.5t-19.5 48.5q0 25 18 43.5t45 19.5l38 1l2 277q0 850 12 1300l-43 -1q-26 0 -45 18t-20 46q0 27 18 46t45 20l259 9q26 0 45 -18.5t21 -46.5q0 -27 -18.5 -46t-43.5 -19.5t-49 -1.5q-11 -427 -13 -1306q0 -192 -1 -271l52 1q26 0 45 -18t20 -46
q0 -27 -18 -46t-45 -20z" />
    <glyph glyph-name="m" unicode="m" horiz-adv-x="1623" 
d="M90 40q-26 0 -45 18t-20 46q0 27 18 46t43.5 20t48.5 2l15 964l-60 -2q-26 0 -45 18t-20 46q0 27 18 46t45 20l259 9q26 0 45 -18.5t20 -46.5q0 -27 -18 -46t-45 -20l-31 -1l-3 -198q33 88 65 142q94 151 236 151q33 0 64 -9q69 -20 119 -79q74 -82 74 -246q15 33 28 59
q100 183 227 238q52 24 102 24q101 0 165 -84t64 -235q0 -23 -16 -712l40 1q26 0 45.5 -18.5t19.5 -48.5q0 -25 -18 -43.5t-45 -19.5l-259 -8q-26 0 -45 18t-20 46q0 27 18 46t44 20t51 2l16 717q0 98 -30 134q-12 14 -28 16q-15 0 -35 -9q-75 -34 -145 -162
q-109 -192 -171 -693l39 1q26 0 45 -18t20 -46q0 -27 -18 -46t-45 -20l-259 -8q-26 0 -45.5 18t-20.5 46q0 27 18.5 46t44.5 20t50 2q-5 279 -5 502q0 122 -1 238q0 73 -34 115q-25 27 -53 27q-50 0 -92 -69q-54 -94 -110 -305q-64 -241 -111 -516l43 2q26 0 45.5 -19
t19.5 -49q0 -25 -18 -43.5t-45 -19.5z" />
    <glyph glyph-name="n" unicode="n" horiz-adv-x="1174" 
d="M776 47q-26 0 -45 18t-20 46q0 27 18 46t45 20l65 2q-6 282 -6 508l-1 245q0 66 -33 104q-35 43 -90 43q-72 0 -128 -77q-66 -97 -133 -311q-71 -228 -125 -495l24 1q26 0 45 -18t20 -46q0 -27 -18 -46t-45 -20l-259 -9q-26 0 -45 18.5t-20 46.5q0 27 18 46t46.5 20
t57.5 2l18 955l-42 -1q-26 0 -45 18t-20 46q0 27 18 46t45 20l259 8q26 0 45 -18t21 -46q0 -27 -18.5 -46t-44 -20t-50.5 -2q1 -1 1 -4l-6 -286q56 154 114 239q110 148 266 148q42 0 83 -12q83 -24 140 -94q31 -38 50.5 -91.5t19.5 -117.5q1 -120 1 -246q0 -222 5 -502h28
q25 0 43.5 -18t20.5 -46q0 -27 -18.5 -46t-45.5 -20z" />
    <glyph glyph-name="o" unicode="o" horiz-adv-x="995" 
d="M425 247q79 0 135 48t89 124q49 116 49 252q0 185 -81 301q-54 78 -145 91l-25 1q-59 0 -100 -27t-64 -69q-27 -51 -27 -108q0 -47 22 -90q20 -39 64.5 -63t116.5 -24h18l14 41q20 45 62 45q10 0 21 -4q21 -7 32.5 -24t11.5 -38q0 -10 -3 -20l-82 -244q-7 -21 -24 -33
t-38 -12q-10 0 -20 3q-21 8 -33 25t-12 38q0 10 3 20l12 34q-146 13 -227 91q2 -87 23 -165q33 -120 114 -171q39 -22 94 -22zM429 77q-104 0 -182 45q-139 81 -192 271q-30 110 -30 228q0 63 8 125q21 158 90 282l11 20q43 82 121.5 134t188.5 52q23 0 47 -3
q156 -22 247 -138.5t118 -280.5q12 -69 12 -139q0 -176 -64 -322q-35 -80 -89 -142q-115 -132 -286 -132z" />
    <glyph glyph-name="p" unicode="p" horiz-adv-x="1143" 
d="M90 -575q-26 0 -45 18t-20 47q0 27 18 46t43.5 20t48.5 1l27 1201l-1 15q0 8 1 15l9 359l-52 -1q-26 0 -45.5 18t-20.5 46q0 27 18 46t45 20l261 8q25 0 44 -18t20 -46q0 -27 -18 -46t-45 -20l-38 -1l-2 -77q121 106 263 106q87 0 166 -39q102 -48 169 -145
q81 -118 81 -268q0 -144 -81 -292l-3 -6q-42 -74 -119 -143q-106 -94 -246 -135q-58 -17 -117 -17q-68 0 -134 26l-13 -600l43 1q26 0 45 -18t20 -46q0 -27 -18 -46t-45 -21zM452 307q36 0 72 10q100 30 179 99q54 49 82 98l4 6q58 107 58 209q0 101 -51 173q-41 60 -101 89
q-45 21 -93 21q-86 0 -161 -71q-64 -60 -110 -181l-9 -404q17 -15 35 -25q45 -24 95 -24z" />
    <glyph glyph-name="q" unicode="q" horiz-adv-x="1024" 
d="M648 -607q-26 0 -45 18t-20 46q0 27 18 46t43.5 20t48.5 2l1 698q-148 -120 -294 -120q-53 0 -101 15q-110 39 -179 136q-95 137 -95 327q0 162 62 292q80 173 228 249q92 44 175 44q106 0 207 -62v58l-51 -2q-26 0 -45 18t-20 46q0 27 18 46.5t45 20.5l259 8
q26 0 45.5 -18.5t19.5 -48.5q0 -25 -18 -44t-45 -20l-41 -1l1 -14l-4 -1623l44 2q26 0 45 -18.5t21 -46.5q0 -27 -18.5 -46t-45.5 -20zM399 272q132 0 296 189l1 423q-67 78 -149 104q-27 9 -58 9q-45 0 -97 -25q-95 -50 -152 -169q-45 -96 -45 -219q0 -142 63 -232
q38 -54 93 -73q22 -7 48 -7z" />
    <glyph glyph-name="r" unicode="r" horiz-adv-x="1079" 
d="M91 37q-26 0 -45 18t-21 46q0 27 18.5 46.5t45.5 20.5l43 1l3 598l-1 5l1 195q1 91 1 197l-42 -1q-25 0 -43.5 18t-19.5 46q0 27 18 46t45 20l259 8q26 0 45 -18t20 -46q0 -27 -18 -46t-44 -20t-51 -2v-123q148 152 319 152q96 -3 166 -39q79 -40 121 -99l26 24
q20 16 43 16q27 0 49 -22q17 -20 17 -44q0 -26 -22 -48l-193 -170q-20 -17 -44 -17q-26 0 -48 22q-16 20 -16 43q0 27 22 49l37 33q-13 33 -66 62q-38 19 -93 20q-39 0 -84 -18q-126 -51 -236 -259l-2 -577l47 2q26 0 45 -18t20 -46q0 -27 -18 -46.5t-45 -20.5z" />
    <glyph glyph-name="s" unicode="s" horiz-adv-x="1062" 
d="M513 24q-66 0 -128 15q-87 20 -150.5 69.5t-88.5 128.5q-15 -6 -29 -12.5t-27 -6.5q-38 0 -60 40q-5 13 -5 26q0 37 39 60l235 103q13 5 26 5q39 0 60 -39q6 -13 6 -27q0 -37 -39 -59l-48 -21q5 -40 38 -65q61 -48 172 -48l39 2q66 6 122 32q38 18 62.5 45.5t24.5 63.5
q-8 82 -75 122q-58 35 -137 60q-80 29 -125 50q-58 25 -112 66q-124 96 -124 215q0 31 8 61q40 127 167 198q99 55 201 55q100 0 169 -57q51 -42 74 -118l38 16q13 6 27 6q37 0 59 -38q6 -13 6 -27q0 -37 -39 -60l-234 -106q-13 -5 -27 -5q-37 0 -60 38q-5 13 -5 27
q0 37 38 60l41 18v1q-15 68 -65 74q-13 2 -26 2q-55 0 -114 -33q-68 -39 -86 -94q-2 -7 -2 -15q0 -41 56 -84q40 -30 89 -51t99 -39q92 -33 147 -59q66 -32 113 -87.5t64 -150.5q4 -26 4 -50q0 -90 -51 -154.5t-133 -102.5q-109 -50 -234 -50z" />
    <glyph glyph-name="t" unicode="t" horiz-adv-x="809" 
d="M-486 1378v257q0 27 19 46.5t46 19.5t46 -19.5t19 -46.5v-49q2 1 103.5 1t305.5 1q1 76 2 142.5t3 124.5h-44q-27 0 -46 19t-19 46t19 46t46 19h257q27 0 46 -19t19 -46t-19 -46t-46 -19h-44l-6 -266l398 1l11 -1l-1 52q0 27 19.5 46t46.5 19t46 -19t19 -46v-257
q0 -27 -19 -46.5t-46 -19.5t-46 19.5t-19 46.5v37l-411 -1q-1 -66 -1.5 -132t-0.5 -133l1 -165q4 -533 47 -659q30 -70 68 -90q15 -7 27 -8q55 0 93 68l-28 14q-35 23 -35 57q0 15 8 31q23 35 58 35q16 0 30 -7l228 -120q35 -23 35 -58q0 -14 -8 -30q-23 -35 -58 -35
q-16 0 -30 7l-51 27q-18 -33 -42.5 -62t-54.5 -50t-65.5 -33t-74.5 -12h-14q-45 2 -83 19.5t-68 46t-53 65t-39 75.5q-53 150 -59 718l-1 179l2 251l-395 -1q-8 0 -11 1v-41q0 -27 -19 -46t-46 -19t-46 19t-19 46z" />
    <glyph glyph-name="u" unicode="u" horiz-adv-x="1099" 
d="M698 37q-25 0 -44 19t-19 48q0 25 18 43.5t45 19.5l42 1l5 277q-53 -145 -106 -225q-74 -103 -170 -137q-47 -17 -94 -17q-35 0 -69 9q-81 22 -139 92q-65 79 -77 214q-12 164 -16 342l-2 146q0 117 4 260l-55 -2q-26 0 -45 18t-20 46q0 27 18 46t45 21l259 8
q26 0 45 -18.5t20 -46.5q0 -27 -18 -46t-45 -20l-34 -1v-3q-5 -147 -5 -268l2 -137q4 -165 16 -334q6 -79 38.5 -118t76.5 -39q68 0 125 81q63 97 129 312q72 235 125 508l-39 -2q-26 0 -45 18.5t-20 46.5q0 27 18 46t45 20l259 8q26 0 45 -18t20 -46q0 -27 -18 -46t-43 -20
t-49 -2l-17 -967l48 1q26 0 45 -18t20 -46q0 -27 -18 -46t-45 -20z" />
    <glyph glyph-name="v" unicode="v" horiz-adv-x="935" 
d="M235 44q-26 0 -45 18t-20 46q0 27 18 46t45 21l40 1q-90 226 -156 448q-69 234 -133 479l-2 10l-61 -2q-26 0 -45.5 18t-20.5 46q0 27 18.5 46t45.5 21l259 8q26 0 45 -18t20 -46q0 -28 -18 -47t-45 -20l-25 -1l5 -20q113 -433 215 -716q110 233 211 470l113 260l-41 7
q-25 4 -40.5 22.5t-15.5 42.5q3 31 24 49q19 16 43 16l263 -42q25 -5 40 -23t15 -41l-1 -11q-4 -25 -22 -40t-41 -15l-52 7l-119 -273q-131 -314 -287 -629l27 1q26 0 45 -18.5t20 -46.5q0 -27 -18 -46t-45 -20z" />
    <glyph glyph-name="w" unicode="w" horiz-adv-x="1439" 
d="M928 71h-8q-47 0 -92 15q-117 38 -168 159q-12 31 -21 65q-55 -152 -176 -203q-55 -23 -112 -23q-101 0 -180 72q-76 69 -95 200q-13 108 -19 317q-11 263 -18 393l-45 -2q-26 0 -45.5 18t-20.5 46q0 27 18 46.5t45 20.5l260 8q26 0 45 -18t20 -46q0 -27 -18 -46t-45 -21
l-45 -1q12 -217 17 -375q6 -209 19 -319q16 -110 93 -122l15 -1q23 0 45 9q42 18 67 66q28 59 47 163q14 83 42 289q17 138 39 291l-44 -1q-26 0 -45 18t-21 46q0 27 18.5 46t45.5 21l259 8q26 0 45 -18.5t20 -46.5q0 -27 -18 -46t-45 -20l-42 -1q-4 -124 -4 -273
q0 -151 11.5 -279t45.5 -221q19 -44 63 -59q22 -7 44 -7q88 3 122 93q34 100 53 264.5t38 466.5l-58 -2q-26 0 -45 18.5t-20 46.5q0 27 18 46t45 20l259 8q26 0 45 -18t20 -46q0 -27 -18 -46t-45 -21l-31 -1q-21 -319 -40 -489q-21 -181 -61 -300q-25 -73 -72 -120t-106 -69
q-50 -19 -101 -19z" />
    <glyph glyph-name="x" unicode="x" horiz-adv-x="1285" 
d="M311 -16q-17 0 -33 9l-221 132q-32 23 -32 56q0 17 10 34q22 32 55 32q17 0 34 -10l41 -24l367 484q-238 339 -240 342t-4 8q-18 -11 -35.5 -21.5t-34.5 -10.5q-34 0 -57 32q-9 16 -9 33q0 34 32 56l220 133q16 9 33 9q34 0 57 -32q9 -16 9 -33q0 -34 -32 -56l-39 -24
l207 -294l213 281l-24 15q-32 22 -32 55q0 17 10 34q22 32 56 32q17 0 33 -9l221 -132q32 -23 32 -56q0 -17 -10 -34q-22 -32 -55 -32q-17 0 -34 10l-50 30l-258 -340l322 -458l48 29q16 9 33 9q34 0 57 -32q9 -16 9 -33q0 -34 -32 -56l-220 -133q-16 -9 -33 -9
q-34 0 -57 32q-9 16 -9 33q0 29 14 43q12 10 45 30l-284 404l-323 -426l34 -21q32 -22 32 -55q0 -17 -10 -34q-22 -32 -56 -32z" />
    <glyph glyph-name="y" unicode="y" horiz-adv-x="1074" 
d="M517 -401q-101 0 -185 55q-69 46 -115 127.5t-53 196.5q-38 -8 -52 -10q-22 0 -40 14.5t-23 37.5l-2 14q0 22 14.5 40t37.5 24q251 53 265 55q23 0 41 -15q24 -20 24 -50q0 -23 -14 -41t-37 -23l-46 -10v-4q0 -80 26 -134t68 -81q36 -24 75 -27l15 -1q84 0 140 81
q33 49 47 129q14 98 19 560q-141 -268 -307 -268h-13q-100 8 -169 111q-49 73 -77.5 207.5t-28.5 330.5q0 85 6 181l-43 -2q-26 0 -45 18t-20 46q0 27 18 46.5t45 20.5l259 8q26 0 45.5 -18.5t19.5 -48.5q0 -25 -18 -43.5t-45 -20.5l-46 -1v-3q-7 -106 -7 -195
q0 -163 21.5 -271t57.5 -162q22 -34 41 -35q22 0 56 32q72 66 138.5 225t114.5 407l-48 -1q-26 0 -45 18t-20 46q0 27 18 46t45 20l259 9q26 0 45 -18.5t20 -46.5q0 -27 -18 -46t-45 -20l-40 -1l-5 -536q-6 -512 -21 -622q-22 -127 -82.5 -208t-141.5 -116q-63 -27 -129 -27
z" />
    <glyph glyph-name="z" unicode="z" horiz-adv-x="1030" 
d="M25 166q0 25 14 48q134 197 540 786h-307q-5 0 -9 0.5t-9 1.5v-55q-1 -28 -20 -47t-46 -19q-28 1 -46.5 20t-18.5 46l1 257q0 27 19 46t46 19t46 -18.5t19 -45.5v-38q5 1 9 1.5t9 0.5h468q35 0 60 -25t25 -60q0 -28 -18 -52q-169 -244 -302.5 -438t-235.5 -343h555v47
q1 28 20 46.5t46 18.5t46 -19t19 -46l-1 -257q0 -27 -19.5 -46t-46.5 -19t-46 19t-19 46l1 41h-716q-23 0 -46 14q-37 28 -37 70z" />
    <glyph glyph-name="braceleft" unicode="{" horiz-adv-x="577" 
d="M422 -181q-27 0 -46 19t-19 46l-1 33l-14 -1q-11 0 -22 3q-73 21 -107.5 88.5t-46 165t-15.5 209.5q-4 84 -11 169t-25 163q-7 31 -9 34q-6 8 -43.5 36.5t-37.5 69.5q0 52 50 77q21 9 30.5 17t11.5 26q10 75 18 160q11 130 32 255t67.5 209t135.5 92l-1 42q0 27 19 46
t46 19t46.5 -19t19.5 -46l2 -257q0 -27 -18.5 -46t-46.5 -20q-27 0 -46.5 19t-19.5 46v43q-23 -31 -39 -148t-28 -250l-6 -57q-8 -79 -18.5 -135t-33.5 -85q13 -19 19.5 -38t12.5 -45q20 -80 29 -183q8 -95 12 -188q8 -137 14 -197q7 -75 22 -101v51q0 27 19 46t46 19
t46 -19t19 -46l2 -257q0 -27 -19 -46t-46 -19z" />
    <glyph glyph-name="bar" unicode="|" horiz-adv-x="492" 
d="M94 -141q-27 0 -45.5 18.5t-19.5 46.5q0 26 18 45t45 20l44 2l-1 1626l-44 -1q-26 0 -45.5 18.5t-20.5 46.5q0 26 18.5 45t45.5 20l259 8q27 0 45.5 -18.5t19.5 -46.5q0 -26 -18 -45t-43.5 -20t-49.5 -2q2 -7 3 -1626l46 2q27 0 46 -19t20 -47q0 -26 -18 -45t-46 -20z
" />
    <glyph glyph-name="braceright" unicode="}" horiz-adv-x="577" 
d="M105 -181q-27 0 -46 19t-19 46l2 257q0 27 19 46t46 19t46 -19t19 -46v-51q15 26 23 101q5 60 13 197q4 93 12 188q8 92 27 176q8 31 14.5 51t19.5 39q-23 29 -33.5 85t-18.5 135l-6 57q-12 133 -28 250t-39 148v-43q0 -27 -19.5 -46t-46.5 -19q-27 1 -46 20t-19 46
l2 257q0 27 19.5 46t46.5 19t46 -19t19 -46l-1 -42q89 -8 135.5 -92t67.5 -209t32 -255q8 -85 18 -160q2 -18 11.5 -26t30.5 -17q50 -25 50 -77q0 -41 -37.5 -69.5t-43.5 -36.5l-9 -34q-18 -78 -25 -163t-10 -169q-4 -112 -16 -209.5t-46.5 -165t-107.5 -88.5q-11 -3 -21 -3
q-8 0 -15 1l-1 -33q0 -27 -19 -46t-46 -19z" />
    <glyph glyph-name="asciitilde" unicode="~" horiz-adv-x="726" 
d="M460 499q-45 0 -86.5 15t-81.5 34q-21 10 -41 17.5t-39 7.5q-23 0 -41 -18q-28 -27 -62 -27t-59 25.5t-25 59.5q0 31 22 57q74 79 156 79q39 0 78 -14t79 -32q24 -11 48.5 -20t46.5 -9q29 0 55.5 21.5t57.5 21.5q34 0 58.5 -25.5t24.5 -58.5q0 -35 -28 -63
q-80 -71 -163 -71z" />
    <glyph glyph-name="exclamdown" unicode="&#xa1;" horiz-adv-x="488" 
d="M91 -84q-27 0 -46 18.5t-20 46.5q0 26 18 45t46 20l40 2l60 2018q2 36 26 59t59 23q36 -1 60 -25.5t24 -59.5l-60 -2010l50 1q27 0 45.5 -18.5t19.5 -46.5q0 -26 -18 -45t-45 -20zM280 2223q-40 0 -69.5 28.5t-29.5 69.5q0 32 23 68q34 49 84 49q43 -3 70 -30.5t27 -75.5
q0 -34 -23 -67q-16 -22 -38 -32t-44 -10z" />
    <glyph glyph-name="cent" unicode="&#xa2;" horiz-adv-x="1056" 
d="M224 -129q-33 0 -58.5 24t-25.5 60q0 12 4 25l51 167q-94 67 -132 164t-38 201q0 166 71 328.5t176 259.5q50 45 116 75t131 30l54 176q9 27 31.5 43t50.5 16q33 0 58 -24.5t25 -60.5q0 -12 -3 -24l-52 -167q24 -14 51.5 -38.5t47.5 -57.5l56 28q14 6 28 6
q27 0 46.5 -19.5t19.5 -45.5q0 -37 -37 -59l-231 -112q-14 -7 -29 -7q-22 0 -41 15l-192 -626q24 -3 51 -3q132 0 248 84l-38 24q-30 22 -30 55q0 26 19 45.5t46 19.5q18 0 35 -10l218 -136q30 -23 30 -56q0 -26 -19 -45.5t-46 -19.5q-18 0 -33.5 9.5t-30.5 18.5
q-99 -87 -201.5 -122.5t-193.5 -35.5q-55 0 -104 10l-48 -155q-9 -28 -31.5 -44t-49.5 -16zM249 325l215 699q-115 -51 -192.5 -206t-77.5 -307q0 -117 55 -186z" />
    <glyph glyph-name="sterling" unicode="&#xa3;" horiz-adv-x="947" 
d="M25 676q0 35 25 59.5t60 24.5h101q-27 67 -41.5 121t-14.5 106q0 72 27.5 132t73.5 103t106 67t124 24q102 0 184 -61q21 -15 40 -38.5t33.5 -50.5t23.5 -56t9 -55q0 -36 -25.5 -60t-59.5 -24q-30 0 -53.5 19.5t-28.5 50.5q-12 58 -48 82t-78 24q-28 0 -56 -10
t-50.5 -30.5t-37 -50.5t-14.5 -70q0 -41 15 -86q5 -16 18.5 -50t34.5 -87h172q35 0 59.5 -24.5t24.5 -59.5t-24.5 -60t-59.5 -25h-110q13 -45 13 -86q0 -26 -10.5 -56.5t-26 -61t-33.5 -58t-32 -48.5l39 1q41 0 92.5 -4.5t114.5 -12.5q75 -12 132 -12l44 3q35 0 58 -23.5
t26 -61.5q0 -31 -21 -55t-54 -28q-28 -3 -57 -3q-38 0 -76.5 3t-79.5 10q-112 15 -178 15q-108 0 -195 -35q-19 -9 -39 -9q-17 0 -32 6.5t-26.5 18t-18.5 27t-7 33.5q0 23 14 46l53 74q28 38 49 69t37 56q40 61 58 110l1 6q0 22 -21 76h-169q-35 0 -60 25t-25 60z" />
    <glyph glyph-name="currency" unicode="&#xa4;" horiz-adv-x="831" 
d="M110 341q-35 0 -60 26t-25 59t25 60l70 69q-17 43 -17 96q1 43 9.5 73t29.5 60l-69 93q-17 24 -17 50q0 35 26 60t59 25q39 0 68 -34l69 -93q54 20 123 20q56 -1 108 -19l52 82q30 38 71 38q34 0 59.5 -24.5t25.5 -59.5q0 -24 -13 -46l-61 -94q35 -52 37 -133
q0 -58 -18 -102l63 -53q31 -29 31 -66q0 -34 -25 -59t-59 -25q-29 0 -54 20l-71 58q-32 -19 -73.5 -28t-79.5 -9q-87 0 -163 43l-62 -62q-27 -25 -59 -25zM391 554q29 0 56.5 9.5t45.5 30t18 54.5q-2 47 -36 67.5t-76 20.5q-52 0 -88 -21t-38 -62q0 -34 17.5 -55.5t44 -32
t56.5 -11.5z" />
    <glyph glyph-name="yen" unicode="&#xa5;" horiz-adv-x="1083" 
d="M379 4q-27 0 -46 19t-20 47q0 26 18 45t46 20l36 1l1 264l-122 1q-35 0 -59.5 25t-24.5 60t25 59.5t59 24.5l124 -1l1 46l-139 1q-34 0 -59 25t-25 59q0 35 24.5 59.5t58.5 24.5h125l-244 375q-6 11 -10 22l-58 -2q-27 0 -45.5 19t-19.5 47q0 26 18 45t45 20l259 8
q29 0 46.5 -19t18.5 -48q0 -25 -18 -43.5t-45 -19.5l-8 -1l168 -257l177 244q-28 0 -46.5 18.5t-19.5 46.5q0 26 18 45t45 20l259 9q26 0 45.5 -19t20.5 -47q0 -26 -18.5 -45t-44 -19.5t-50.5 -1.5q-3 -12 -11 -22l-273 -376l95 -1q35 0 59.5 -25t24.5 -60q0 -34 -24.5 -59
t-59.5 -25l-120 1l-1 -46l135 -1q35 0 59.5 -24.5t24.5 -59.5t-25 -60t-60 -25l-137 1v-258l54 2q27 0 45.5 -18.5t19.5 -46.5q0 -26 -18 -45t-45 -20z" />
    <glyph glyph-name="brokenbar" unicode="&#xa6;" horiz-adv-x="502" 
d="M222 763q-36 2 -60 26.5t-24 59.5q3 120 3 228t-2 200q0 7 1 11l-50 -2q-27 0 -45.5 19t-19.5 47q0 26 18 45t45 20l259 8q27 0 45.5 -18.5t19.5 -46.5q0 -26 -18 -45t-45 -20l-42 -2q3 -18 3 -216q0 -111 -3 -231q0 -35 -25 -59t-60 -24zM105 -27q-29 0 -46.5 19.5
t-18.5 48.5q0 25 18 43.5t45 19.5l45 1l-10 450q0 35 24 59t61 25q34 0 58 -24t26 -59l10 -445l45 1q27 0 45.5 -18.5t19.5 -46.5q0 -26 -18 -45t-45 -21z" />
    <glyph glyph-name="section" unicode="&#xa7;" horiz-adv-x="1217" 
d="M539 -110q-96 0 -182.5 29.5t-143 90t-67.5 153.5l-56 -2q-29 0 -46.5 19t-18.5 48q0 25 18 43.5t45 19.5l261 8q26 0 44 -18.5t19 -46.5q0 -26 -18 -45t-45 -20l-33 -1q17 -55 81 -82t141 -27q61 0 123 17t103.5 52t41.5 88q0 44 -25 79t-65 59l-7 3q-61 33 -137 57
q-58 20 -119.5 47t-121.5 72q-70 53 -96.5 106.5t-29.5 118.5q0 93 66 171.5t163 114.5q-38 63 -38 125q0 84 55 156t141 115.5t179 43.5q123 0 198 -86l51 36q18 11 37 11q27 0 46.5 -19.5t19.5 -45.5q0 -31 -28 -54l-212 -146q-18 -12 -37 -12q-27 0 -46 20t-19 45
t12 38.5t35 28.5q-23 16 -56 16q-42 0 -88 -20t-79 -52q-21 -21 -29 -35t-10 -36q0 -30 22 -54t73 -58q14 -5 24 -14q62 -33 128 -61q75 -32 143 -70.5t116.5 -98.5t65.5 -157q4 -24 4 -47q0 -96 -57 -160.5t-143 -92.5q14 -30 24 -70t10 -80q0 -80 -38.5 -139.5t-102 -99.5
t-141 -60.5t-155.5 -20.5zM809 509q71 0 115.5 27t48.5 77q-9 92 -86 143q-69 46 -161 84q-64 28 -127 62l-23 2q-71 0 -136 -48t-65 -103q0 -41 58 -86q44 -32 98 -55.5t111 -43.5q76 -26 143 -58z" />
    <glyph glyph-name="dieresis" unicode="&#xa8;" horiz-adv-x="593" 
d="M134 1299q-49 0 -79 30.5t-30 69.5q0 40 28.5 74t78.5 34q43 0 74.5 -30t31.5 -72q0 -37 -27 -71.5t-77 -34.5zM414 1299q-51 0 -80 31t-29 71q0 39 29 72.5t77 33.5q46 0 76.5 -30t30.5 -74l-2 -19q-7 -33 -32.5 -59t-69.5 -26z" />
    <glyph glyph-name="copyright" unicode="&#xa9;" horiz-adv-x="1367" 
d="M592 194q57 0 123 14q142 32 232 107t133 177t43 212q0 92 -28.5 179.5t-82.5 157.5t-132 112t-178 42q-50 0 -104 -12q-136 -33 -225.5 -116t-133.5 -195t-44 -228q0 -87 24 -167.5t73.5 -144t124 -101t175.5 -37.5zM646 321q-62 0 -100.5 13t-67.5 29q-68 45 -97.5 113
t-29.5 140q0 75 24 151t63 139q50 78 114.5 120t134.5 42q87 0 154 -64q20 -19 30.5 -36.5t17.5 -46.5q6 2 11 3.5l10 3t14 1.5q28 0 47 -20t19 -46q0 -21 -12.5 -38.5t-34.5 -24.5l-195 -58q-10 -3 -20 -3q-27 0 -46 19.5t-19 45.5q0 21 13 38.5t34 24.5l19 6l-2 6t-5 6.5
t-6.5 5.5t-3.5 2q-12 5 -25 5l-14 -1q-61 -19 -103.5 -99.5t-49.5 -179.5q0 -33 9 -62.5t35 -47.5t77 -18q67 0 125 39q-11 14 -16.5 24.5t-5.5 26.5q0 27 19.5 46t45.5 19q29 0 52 -25l117 -151q14 -19 14 -40q0 -27 -19.5 -46.5t-45.5 -19.5q-20 0 -32.5 8t-24.5 24
q-106 -74 -224 -74zM589 24q-145 0 -251 54.5t-175.5 144.5t-103.5 200.5t-34 222.5q0 151 59.5 297t178.5 253.5t298 150.5q77 17 147 17q134 0 242 -55t184 -149t117 -212.5t41 -244.5q0 -145 -57.5 -281.5t-177.5 -237t-307 -142.5q-85 -18 -161 -18z" />
    <glyph glyph-name="ordfeminine" unicode="&#xaa;" horiz-adv-x="724" 
d="M564 994q-43 0 -69 36q-61 -15 -113 -15q-80 0 -134.5 29.5t-83 78t-29.5 106.5q0 48 27 101t82 91l-8 -1q-14 0 -29 8l-147 76q-35 22 -35 58q0 26 18.5 45.5t46.5 19.5q15 0 23.5 -3t16 -8t16.5 -10q51 66 112.5 95t117.5 29q105 0 181.5 -82t86.5 -211l5 -172v-188
q-2 -35 -26 -59t-59 -24zM287 1443q57 22 120 22q17 -1 28 -1.5t36 -4.5q-11 47 -37 75t-57 28q-40 0 -84 -43q10 -16 10 -33q0 -24 -16 -43zM384 1183q40 0 96 19q0 61 -1 78q-16 8 -33 11.5t-42 4.5q-36 0 -58.5 -12t-32.5 -28t-10 -30q1 -9 7 -18t26.5 -17t47.5 -8z" />
    <glyph glyph-name="guillemotleft" unicode="&#xab;" horiz-adv-x="823" 
d="M359 354q-34 0 -61 25l-247 257q-26 27 -26 60q0 31 23 58l234 254q28 28 63 28q34 0 59 -25.5t25 -59.5q0 -31 -22 -57l-181 -196l194 -201q23 -27 23 -59q0 -35 -25 -59.5t-59 -24.5zM664 354q-34 0 -61 25l-247 257q-26 27 -26 61q0 30 22 57l235 254q28 28 62 28
t59.5 -25t25.5 -60q0 -31 -22 -57l-181 -196l194 -201q23 -27 23 -59q0 -34 -25 -59t-59 -25z" />
    <glyph glyph-name="logicalnot" unicode="&#xac;" horiz-adv-x="821" 
d="M662 717q-35 0 -59 23.5t-26 59.5l-3 162l-466 -7q-35 0 -58.5 24t-24.5 61q0 34 23.5 58t59.5 26l548 9q35 0 59.5 -24t26.5 -60l4 -246q0 -35 -24 -59.5t-60 -26.5z" />
    <glyph glyph-name="registered" unicode="&#xae;" horiz-adv-x="1366" 
d="M591 243q57 0 123 14q143 32 233 108t133 178.5t43 210.5q0 92 -29 179.5t-83.5 157.5t-132.5 111.5t-176 41.5q-50 0 -105 -12q-137 -33 -226.5 -117t-133 -196.5t-43.5 -227.5q0 -86 24.5 -166.5t73.5 -143.5t124 -100.5t175 -37.5zM481 301q-34 0 -59 25t-25 59
q0 193 4 467q4 176 14 255q6 33 29.5 53t53.5 20q19 -1 32 -5.5t27 -17.5q64 48 136 48q92 0 158.5 -72.5t66.5 -188.5q0 -61 -21 -128t-65.5 -126t-115.5 -99l170 -118q36 -29 36 -70q0 -33 -24.5 -58.5t-59.5 -25.5q-25 0 -48 15l-224 156l-1 -60l1 -45q0 -34 -25 -59
t-60 -25zM568 719q65 5 126 67q31 41 43 84.5t12 73.5q0 37 -15 64.5t-39 27.5q-34 -4 -64.5 -35.5t-59.5 -109.5q-3 -127 -3 -172zM586 74q-170 0 -296.5 82.5t-195.5 223t-69 312.5q0 152 59 298.5t177.5 254.5t298.5 152q76 17 146 17q141 0 250 -58.5t184 -154.5
t113 -213.5t38 -235.5q0 -145 -57.5 -281t-177.5 -236.5t-307 -142.5q-86 -18 -163 -18z" />
    <glyph glyph-name="macron" unicode="&#xaf;" horiz-adv-x="734" 
d="M111 1369q-35 0 -59.5 24t-26.5 59q0 35 24 59.5t60 26.5l465 7q36 0 60 -24.5t25 -61.5q0 -34 -24.5 -58.5t-58.5 -24.5z" />
    <glyph glyph-name="degree" unicode="&#xb0;" horiz-adv-x="500" 
d="M232 1226q14 3 24 53q-2 12 -4 17t-5 6.5t-6.5 2t-6.5 1.5q-14 0 -25.5 -9.5t-14.5 -30.5q0 -16 12 -28t26 -12zM230 1057q-80 0 -142.5 61.5t-62.5 148.5q0 85 60.5 146t144.5 61q76 -1 131.5 -46.5t63.5 -143.5q-5 -79 -35 -129t-73.5 -74t-86.5 -24z" />
    <glyph glyph-name="plusminus" unicode="&#xb1;" horiz-adv-x="725" 
d="M123 1000l133 6v118q0 35 24.5 59.5t59.5 24.5t60 -24.5t25 -59.5v-111l141 6q35 0 59 -23.5t25 -60.5q0 -34 -23 -58t-58 -26l-144 -7v-168q0 -35 -24.5 -59.5t-59.5 -24.5t-60 24.5t-25 59.5v161l-130 -6q-35 0 -59 24t-25 61q0 33 23 57.5t58 26.5zM105 558l448 23
q35 0 59.5 -23.5t25.5 -60.5q0 -34 -23 -58.5t-57 -26.5l-449 -23q-36 0 -59 24t-25 61q0 34 22.5 58t57.5 26z" />
    <glyph glyph-name="twosuperior" unicode="&#xb2;" horiz-adv-x="509" 
d="M109 1042q-34 0 -59 25.5t-25 59.5q0 29 21 55q39 44 83 100q48 57 83 128q-25 -24 -58 -24q-35 0 -60.5 24.5t-25.5 60.5q0 11 3 22q17 54 51 82.5t77 33.5q4 1 20 2q40 0 78.5 -21.5t64 -61t25.5 -94.5q0 -52 -29 -109.5t-70 -112.5l61 1q35 0 59 -24.5t26 -59.5
q0 -35 -24.5 -60t-59.5 -25z" />
    <glyph glyph-name="threesuperior" unicode="&#xb3;" horiz-adv-x="468" 
d="M159 1056q-30 0 -62.5 5.5t-52 29t-19.5 54.5q12 84 85 84q14 -1 24.5 -2.5t26.5 -1.5q32 0 47.5 10.5t15.5 20.5q0 8 -9 8q-11 0 -24.5 -3.5t-26.5 -3.5q-36 0 -60.5 26t-24.5 59q0 42 37 70q-55 26 -55 80q0 39 28.5 63.5t66 36.5t64.5 12q44 0 74.5 -21t45.5 -53.5
t15 -67.5q0 -39 -18 -77q28 -24 42 -59.5t14 -67.5q0 -47 -24.5 -93.5t-76.5 -77.5t-133 -31z" />
    <glyph glyph-name="acute" unicode="&#xb4;" horiz-adv-x="308" 
d="M109 1234l-16 2q-31 7 -49.5 30t-18.5 53q2 16 40 207q7 31 30 49.5t52 18.5q34 0 60 -24.5t26 -60.5q-2 -16 -41 -207q-7 -30 -30 -49t-53 -19z" />
    <glyph glyph-name="mu" unicode="&#xb5;" horiz-adv-x="683" 
d="M110 -258h-4q-35 2 -58 26t-23 58q5 137 5 401q-1 627 -3 694q0 34 2 61l6 90q7 31 30 50t53 19q85 -11 85 -86l-2 -36q-1 -20 -2 -37.5t-1.5 -44t-0.5 -75.5q12 -252 83 -354q19 -28 26 -28q47 53 83 179.5t50 405.5q2 35 26 57.5t57 22.5q37 -2 61.5 -24.5t24.5 -59.5
l-1 -684q0 -35 -25 -59.5t-60 -24.5q-34 0 -59 24.5t-25 58.5q-62 -66 -133 -66q-33 2 -56 9.5t-51 29.5v-138q0 -233 -5 -388q-2 -35 -26 -58t-57 -23z" />
    <glyph glyph-name="paragraph" unicode="&#xb6;" horiz-adv-x="1075" 
d="M515 -110q-34 0 -59 25t-25 59l-7 709q-140 14 -228 68t-129.5 134t-41.5 170l1 27q6 105 54.5 201.5t126 159.5t167.5 63l541 7q34 0 58 -24t26 -59l1 -1449q0 -35 -24.5 -60t-59.5 -25h-91q-34 0 -59 25t-25 59l-7 1153l-51 -1l1 -1157q0 -34 -24.5 -59t-59.5 -25z" />
    <glyph glyph-name="periodcentered" unicode="&#xb7;" horiz-adv-x="346" 
d="M149 610l-22 2l-2 1q-52 11 -76 43.5t-24 71.5q0 46 32 84.5t89 38.5q53 0 89 -36t36 -84q0 -43 -33 -82t-89 -39z" />
    <glyph glyph-name="periodcentered" unicode="&#x2219;" horiz-adv-x="346" 
d="M149 610l-22 2l-2 1q-52 11 -76 43.5t-24 71.5q0 46 32 84.5t89 38.5q53 0 89 -36t36 -84q0 -43 -33 -82t-89 -39z" />
    <glyph glyph-name="cedilla" unicode="&#xb8;" horiz-adv-x="394" 
d="M109 -118q-35 0 -59.5 25t-24.5 60q0 39 26.5 61.5t64.5 22.5q-14 16 -18 32.5t-4 40.5l1 65q2 36 26.5 59t58.5 23q37 -1 60.5 -26.5t23.5 -58.5l-1 -36q56 -52 56 -114q0 -68 -62.5 -111t-147.5 -43z" />
    <glyph glyph-name="onesuperior" unicode="&#xb9;" horiz-adv-x="356" 
d="M148 1016h-4q-34 2 -57.5 25.5t-23.5 57.5q6 126 27 275l4 28q-31 7 -50 30.5t-19 52.5q0 31 13.5 47t37.5 34l16 14q21 20 48 38t56 18q36 0 60.5 -26t24.5 -59q-3 -54 -18 -162q-22 -150 -31 -292q-2 -35 -26 -58t-58 -23z" />
    <glyph glyph-name="ordmasculine" unicode="&#xba;" horiz-adv-x="504" 
d="M212 1203q6 0 14.5 19t18 48.5t12.5 54.5t4 57q0 30 -4 47t-11 41q-12 -6 -30 -63.5t-22 -127.5q0 -30 5.5 -52t12.5 -24zM216 1032q-26 0 -55 9q-75 26 -105.5 92t-30.5 141l2 39q8 110 54 203q62 125 176 125q57 0 95.5 -35.5t57.5 -94.5t19 -132q-2 -92 -27 -170.5
t-72 -127.5t-114 -49z" />
    <glyph glyph-name="guillemotright" unicode="&#xbb;" horiz-adv-x="822" 
d="M428 353q-34 0 -59.5 25.5t-25.5 59.5q0 31 23 57l181 196l-194 202q-24 27 -24 58q0 34 25.5 59t59.5 25q33 0 61 -25l246 -256q26 -28 26 -62q0 -31 -22 -57l-235 -254q-28 -28 -62 -28zM123 353q-34 0 -59 25.5t-25 59.5q0 31 22 57l181 196l-194 202q-23 27 -23 58
q0 34 25 61q27 23 59 23q34 0 61 -25l247 -256q26 -27 26 -61q0 -31 -23 -58l-234 -254q-28 -28 -63 -28z" />
    <glyph glyph-name="onequarter" unicode="&#xbc;" horiz-adv-x="910" 
d="M148 888q-35 2 -58.5 26t-23.5 58q6 134 29 292l5 37q-31 5 -53 28.5t-22 55.5q0 39 34 68q13 9 36 30t50.5 40t57.5 19q36 0 60.5 -26.5t24.5 -59.5q0 -18 -16 -135q-33 -249 -37 -351q-2 -36 -26.5 -59t-60.5 -23zM158 109q-34 0 -59 24.5t-25 59.5q0 19 9 37
q28 68 219 836l99 395q8 29 31 46t52 17q34 0 58.5 -24.5t24.5 -60.5q0 -10 -2 -20l-104 -412q-73 -293 -137.5 -543.5t-88.5 -306.5q-11 -23 -32 -35.5t-45 -12.5zM683 135q-35 2 -58.5 26t-23.5 58l6 153l-165 -6q-35 0 -59 23t-26 59q0 14 3 26l71 254q9 28 31.5 44.5
t49.5 16.5q34 0 59.5 -23.5t25.5 -59.5q0 -12 -3 -24l-40 -143l59 2l7 184q2 34 26 57.5t58 23.5q37 -1 61 -25t24 -58l-7 -184q49 -21 53 -78q0 -28 -16.5 -50t-42.5 -31l-6 -163q-2 -36 -26.5 -59t-60.5 -23z" />
    <glyph glyph-name="onehalf" unicode="&#xbd;" horiz-adv-x="871" 
d="M152 883h-4q-36 2 -59 26.5t-23 59.5q10 148 34 327q-32 5 -53.5 28.5t-21.5 54.5t13.5 47.5t37.5 34.5l25 21q21 19 47 36.5t55 17.5q35 0 60 -25t25 -61q-3 -57 -20 -173q-24 -161 -33 -313q-2 -34 -26 -57.5t-57 -23.5zM166 118q-33 0 -59 24.5t-26 59.5q0 18 8 36
q33 82 209 792q59 242 112 443q8 29 30.5 46t51.5 17q34 0 59 -24.5t25 -58.5q0 -11 -3 -22l-80 -318q-76 -308 -149 -591t-102 -354q-11 -24 -31.5 -37t-44.5 -13zM711 172h-7l-249 24q-32 4 -54.5 28t-22.5 57q0 29 21 55q42 47 86 103q94 122 94 165l-1 9
q-28 -53 -79 -53q-34 0 -59 24.5t-25 59.5q0 12 3 24q20 65 59.5 92.5t96.5 30.5q66 0 120 -52.5t54 -133.5q0 -62 -36.5 -128.5t-82.5 -127.5l91 -8q33 -4 54.5 -28t21.5 -57q-2 -37 -25.5 -60.5t-59.5 -23.5z" />
    <glyph glyph-name="threequarters" unicode="&#xbe;" horiz-adv-x="1083" 
d="M199 888q-46 0 -101 14q-29 8 -46 31t-17 51q0 34 24.5 59.5t59.5 25.5q11 0 22 -3q36 -10 60 -10q50 0 50 33q0 16 -6 27.5t-27 11.5q-10 0 -22.5 -4t-26.5 -4q-36 0 -60.5 25t-24.5 59q0 25 14.5 47t39.5 32q44 20 46 46q-7 -3 -24 -16q-24 -16 -50 -16q-34 0 -59.5 25
t-25.5 59q0 40 30.5 66t70 39t68.5 13q72 0 115.5 -50.5t43.5 -119.5q-1 -21 -3.5 -35.5t-10.5 -35.5q80 -64 81 -167q0 -50 -24.5 -96.5t-73.5 -76.5t-123 -30zM856 135q-37 2 -60 26.5t-23 59.5l6 151l-165 -6q-34 0 -58.5 23t-26.5 59q0 14 3 26l72 254q9 28 31 44.5
t50 16.5q33 0 59 -24t26 -60q0 -11 -3 -23l-40 -143l59 2l7 184q2 34 26 57.5t57 23.5q38 -2 62 -26t24 -59l-7 -182q49 -21 53 -78q0 -28 -16.5 -50t-42.5 -31l-7 -163q-2 -36 -26.5 -59t-59.5 -23zM320 150q-34 0 -59.5 24.5t-25.5 60.5q0 16 7 33q29 74 101.5 348.5
t149.5 576.5l69 268q8 29 31 46t52 17q34 0 58.5 -24.5t24.5 -60.5q0 -10 -2 -20l-69 -268q-207 -819 -260 -950q-11 -24 -32 -37.5t-45 -13.5z" />
    <glyph glyph-name="questiondown" unicode="&#xbf;" horiz-adv-x="1129" 
d="M398 -336q-100 0 -184.5 42t-136.5 124.5t-52 206.5q0 60 14 130q38 170 129 320.5t196 290.5q76 101 141 200t106 199t41 205q0 36 -4 59l-3 30q0 36 25.5 60t59.5 24q30 0 53.5 -19.5t28.5 -50.5q9 -56 9 -109q0 -129 -47 -247.5t-119.5 -230t-153.5 -220.5
q-100 -132 -182.5 -266t-114.5 -278q-10 -52 -10 -95q0 -74 27 -119t73.5 -65.5t104.5 -20.5q104 0 209.5 61.5t148.5 180.5l-34 7q-23 6 -37.5 24t-14.5 40q7 66 66 66q14 -2 265 -56q23 -6 37.5 -24t14.5 -40q-8 -66 -66 -66q-27 3 -36.5 6t-28.5 7
q-36 -119 -118.5 -202.5t-191 -128.5t-215.5 -45zM635 1650q-47 0 -77.5 32.5t-30.5 72.5t29 71.5t76 31.5q16 0 21 -2q45 -9 65.5 -38t20.5 -61q0 -40 -28 -73.5t-76 -33.5z" />
    <glyph glyph-name="Agrave" unicode="&#xc0;" horiz-adv-x="1628" 
 />
    <glyph glyph-name="Aacute" unicode="&#xc1;" horiz-adv-x="1628" 
 />
    <glyph glyph-name="Acircumflex" unicode="&#xc2;" horiz-adv-x="1628" 
 />
    <glyph glyph-name="Atilde" unicode="&#xc3;" horiz-adv-x="1628" 
 />
    <glyph glyph-name="Adieresis" unicode="&#xc4;" horiz-adv-x="1628" 
 />
    <glyph glyph-name="Aring" unicode="&#xc5;" horiz-adv-x="1627" 
 />
    <glyph glyph-name="AE" unicode="&#xc6;" horiz-adv-x="2892" 
 />
    <glyph glyph-name="OE" unicode="&#x152;" horiz-adv-x="2700" 
 />
    <glyph glyph-name="Ccedilla" unicode="&#xc7;" horiz-adv-x="1502" 
 />
    <glyph glyph-name="Egrave" unicode="&#xc8;" horiz-adv-x="1615" 
 />
    <glyph glyph-name="Eacute" unicode="&#xc9;" horiz-adv-x="1615" 
 />
    <glyph glyph-name="Ecircumflex" unicode="&#xca;" horiz-adv-x="1615" 
 />
    <glyph glyph-name="Edieresis" unicode="&#xcb;" horiz-adv-x="1615" 
 />
    <glyph glyph-name="Igrave" unicode="&#xcc;" horiz-adv-x="569" 
 />
    <glyph glyph-name="Iacute" unicode="&#xcd;" horiz-adv-x="569" 
 />
    <glyph glyph-name="Icircumflex" unicode="&#xce;" horiz-adv-x="569" 
 />
    <glyph glyph-name="Idieresis" unicode="&#xcf;" horiz-adv-x="569" 
 />
    <glyph glyph-name="Eth" unicode="&#xd0;" horiz-adv-x="1432" 
 />
    <glyph glyph-name="Ntilde" unicode="&#xd1;" horiz-adv-x="1697" 
 />
    <glyph glyph-name="Ograve" unicode="&#xd2;" horiz-adv-x="1386" 
 />
    <glyph glyph-name="Oacute" unicode="&#xd3;" horiz-adv-x="1386" 
 />
    <glyph glyph-name="Ocircumflex" unicode="&#xd4;" horiz-adv-x="1386" 
 />
    <glyph glyph-name="Otilde" unicode="&#xd5;" horiz-adv-x="1386" 
 />
    <glyph glyph-name="Odieresis" unicode="&#xd6;" horiz-adv-x="1386" 
 />
    <glyph glyph-name="multiply" unicode="&#xd7;" horiz-adv-x="790" 
 />
    <glyph glyph-name="Oslash" unicode="&#xd8;" horiz-adv-x="1374" 
 />
    <glyph glyph-name="Ugrave" unicode="&#xd9;" horiz-adv-x="1556" 
 />
    <glyph glyph-name="Uacute" unicode="&#xda;" horiz-adv-x="1556" 
 />
    <glyph glyph-name="Ucircumflex" unicode="&#xdb;" horiz-adv-x="1556" 
 />
    <glyph glyph-name="Udieresis" unicode="&#xdc;" horiz-adv-x="1556" 
 />
    <glyph glyph-name="Yacute" unicode="&#xdd;" horiz-adv-x="1407" 
 />
    <glyph glyph-name="Ydieresis" unicode="&#x178;" horiz-adv-x="1407" 
 />
    <glyph glyph-name="Thorn" unicode="&#xde;" horiz-adv-x="905" 
 />
    <glyph glyph-name="germandbls" unicode="&#xdf;" horiz-adv-x="947" 
 />
    <glyph glyph-name="agrave" unicode="&#xe0;" 
 />
    <glyph glyph-name="aacute" unicode="&#xe1;" 
 />
    <glyph glyph-name="acircumflex" unicode="&#xe2;" 
 />
    <glyph glyph-name="atilde" unicode="&#xe3;" 
 />
    <glyph glyph-name="adieresis" unicode="&#xe4;" 
 />
    <glyph glyph-name="aring" unicode="&#xe5;" 
 />
    <glyph glyph-name="ae" unicode="&#xe6;" horiz-adv-x="1909" 
 />
    <glyph glyph-name="oe" unicode="&#x153;" horiz-adv-x="1812" 
 />
    <glyph glyph-name="ccedilla" unicode="&#xe7;" horiz-adv-x="1056" 
 />
    <glyph glyph-name="egrave" unicode="&#xe8;" horiz-adv-x="1130" 
 />
    <glyph glyph-name="eacute" unicode="&#xe9;" horiz-adv-x="1130" 
 />
    <glyph glyph-name="ecircumflex" unicode="&#xea;" horiz-adv-x="1130" 
 />
    <glyph glyph-name="edieresis" unicode="&#xeb;" horiz-adv-x="1130" 
 />
    <glyph glyph-name="igrave" unicode="&#xec;" horiz-adv-x="491" 
 />
    <glyph glyph-name="iacute" unicode="&#xed;" horiz-adv-x="491" 
 />
    <glyph glyph-name="icircumflex" unicode="&#xee;" horiz-adv-x="491" 
 />
    <glyph glyph-name="idieresis" unicode="&#xef;" horiz-adv-x="491" 
 />
    <glyph glyph-name="eth" unicode="&#xf0;" horiz-adv-x="758" 
 />
    <glyph glyph-name="ntilde" unicode="&#xf1;" horiz-adv-x="1174" 
 />
    <glyph glyph-name="ograve" unicode="&#xf2;" horiz-adv-x="995" 
 />
    <glyph glyph-name="oacute" unicode="&#xf3;" horiz-adv-x="995" 
 />
    <glyph glyph-name="ocircumflex" unicode="&#xf4;" horiz-adv-x="995" 
 />
    <glyph glyph-name="otilde" unicode="&#xf5;" horiz-adv-x="995" 
 />
    <glyph glyph-name="odieresis" unicode="&#xf6;" horiz-adv-x="995" 
 />
    <glyph glyph-name="divide" unicode="&#xf7;" horiz-adv-x="866" 
 />
    <glyph glyph-name="oslash" unicode="&#xf8;" horiz-adv-x="1025" 
 />
    <glyph glyph-name="ugrave" unicode="&#xf9;" horiz-adv-x="1099" 
 />
    <glyph glyph-name="uacute" unicode="&#xfa;" horiz-adv-x="1099" 
 />
    <glyph glyph-name="ucircumflex" unicode="&#xfb;" horiz-adv-x="1099" 
 />
    <glyph glyph-name="udieresis" unicode="&#xfc;" horiz-adv-x="1099" 
 />
    <glyph glyph-name="yacute" unicode="&#xfd;" horiz-adv-x="1074" 
 />
    <glyph glyph-name="thorn" unicode="&#xfe;" horiz-adv-x="780" 
 />
    <glyph glyph-name="ydieresis" unicode="&#xff;" horiz-adv-x="1074" 
 />
    <glyph glyph-name="dotlessi" unicode="&#x131;" horiz-adv-x="292" 
 />
    <glyph glyph-name="circumflex" unicode="&#x2c6;" horiz-adv-x="637" 
 />
    <glyph glyph-name="caron" unicode="&#x2c7;" horiz-adv-x="637" 
 />
    <glyph glyph-name="uni02C9" unicode="&#x2c9;" horiz-adv-x="669" 
 />
    <glyph glyph-name="breve" unicode="&#x2d8;" horiz-adv-x="522" 
 />
    <glyph glyph-name="dotaccent" unicode="&#x2d9;" horiz-adv-x="312" 
 />
    <glyph glyph-name="ring" unicode="&#x2da;" horiz-adv-x="494" 
 />
    <glyph glyph-name="ogonek" unicode="&#x2db;" horiz-adv-x="375" 
 />
    <glyph glyph-name="tilde" unicode="&#x2dc;" horiz-adv-x="710" 
 />
    <glyph glyph-name="hungarumlaut" unicode="&#x2dd;" horiz-adv-x="509" 
 />
    <glyph glyph-name="endash" unicode="&#x2013;" horiz-adv-x="759" 
 />
    <glyph glyph-name="emdash" unicode="&#x2014;" horiz-adv-x="989" 
 />
    <glyph glyph-name="quoteleft" unicode="&#x2018;" horiz-adv-x="327" 
 />
    <glyph glyph-name="quoteright" unicode="&#x2019;" horiz-adv-x="327" 
 />
    <glyph glyph-name="quotesinglbase" unicode="&#x201a;" horiz-adv-x="327" 
 />
    <glyph glyph-name="quotedblleft" unicode="&#x201c;" horiz-adv-x="480" 
 />
    <glyph glyph-name="quotedblright" unicode="&#x201d;" horiz-adv-x="485" 
 />
    <glyph glyph-name="quotedblbase" unicode="&#x201e;" horiz-adv-x="584" 
 />
    <glyph glyph-name="dagger" unicode="&#x2020;" horiz-adv-x="757" 
 />
    <glyph glyph-name="daggerdbl" unicode="&#x2021;" horiz-adv-x="758" 
 />
    <glyph glyph-name="bullet" unicode="&#x2022;" horiz-adv-x="389" 
 />
    <glyph glyph-name="ellipsis" unicode="&#x2026;" horiz-adv-x="802" 
 />
    <glyph glyph-name="guilsinglleft" unicode="&#x2039;" horiz-adv-x="458" 
 />
    <glyph glyph-name="guilsinglright" unicode="&#x203a;" horiz-adv-x="458" 
 />
    <glyph glyph-name="fraction" unicode="&#x2044;" horiz-adv-x="1462" 
 />
    <glyph glyph-name="fraction" unicode="&#x2215;" horiz-adv-x="1462" 
 />
    <glyph glyph-name="franc" unicode="&#x20a3;" horiz-adv-x="1138" 
 />
    <glyph glyph-name="lira" unicode="&#x20a4;" horiz-adv-x="1047" 
 />
    <glyph glyph-name="peseta" unicode="&#x20a7;" horiz-adv-x="1991" 
 />
    <glyph glyph-name="Euro" unicode="&#x20ac;" horiz-adv-x="949" 
 />
    <glyph glyph-name="uni2116" unicode="&#x2116;" horiz-adv-x="1744" 
 />
    <glyph glyph-name="trademark" unicode="&#x2122;" horiz-adv-x="1065" 
 />
    <glyph glyph-name="partialdiff" unicode="&#x2202;" horiz-adv-x="862" 
 />
    <glyph glyph-name="Delta" unicode="&#x2206;" horiz-adv-x="1095" 
 />
    <glyph glyph-name="product" unicode="&#x220f;" horiz-adv-x="1118" 
 />
    <glyph glyph-name="summation" unicode="&#x2211;" horiz-adv-x="1180" 
 />
    <glyph glyph-name="minus" unicode="&#x2212;" horiz-adv-x="783" 
 />
    <glyph glyph-name="radical" unicode="&#x221a;" horiz-adv-x="1529" 
 />
    <glyph glyph-name="infinity" unicode="&#x221e;" horiz-adv-x="1179" 
 />
    <glyph glyph-name="integral" unicode="&#x222b;" horiz-adv-x="713" 
 />
    <glyph glyph-name="approxequal" unicode="&#x2248;" horiz-adv-x="745" 
 />
    <glyph glyph-name="lessequal" unicode="&#x2264;" horiz-adv-x="634" 
 />
    <glyph glyph-name="greaterequal" unicode="&#x2265;" horiz-adv-x="635" 
 />
    <glyph glyph-name="uniE000" unicode="&#xe000;" horiz-adv-x="1589" 
 />
    <glyph glyph-name="uniE001" unicode="&#xe001;" horiz-adv-x="2239" 
 />
    <glyph glyph-name="uniE002" unicode="&#xe002;" horiz-adv-x="1653" 
d="M500 -920q-92 0 -209.5 20.5t-172 42t-68.5 42.5q-7 11 -13 27l-12 25l12 76q15 19 25 34q13 22 31 36q27 22 111 26q30 1 56.5 5.5t47.5 21.5q51 47 70.5 133t26.5 172l5 44l515 -71l-61 -341q-76 0 -137.5 -25.5t-98.5 -79t-37 -137.5q0 -18 2 -37q-30 -14 -93 -14z
M934 -29q-76 0 -206 19q-40 3 -76 11q-163 25 -222 43l6 58q-136 112 -196.5 296.5t-60.5 396.5q0 287 90.5 563t236.5 432q128 131 262 176q62 20 120 20q95 0 177 -45.5t145 -118.5t100.5 -159.5t45.5 -171.5l88 2q38 0 65.5 -26.5t29.5 -66.5q0 -39 -26.5 -66t-65.5 -29
l-339 -8q-37 0 -64.5 26.5t-29.5 66.5q0 39 26.5 66t65.5 29l61 1q-4 44 -27.5 97t-61.5 102t-88 80.5t-106 31.5q-28 0 -57 -9q-90 -31 -186 -129q-116 -125 -193 -372.5t-77 -499.5q0 -156 36.5 -290t119.5 -220t218 -100q16 -1 33 -1q89 0 178 40q104 48 179 153l-40 9
q-34 9 -53.5 34.5t-19.5 57.5q0 11 2 21q9 34 34.5 53.5t57.5 19.5q11 0 21 -2l328 -76q34 -8 53.5 -34t19.5 -58q0 -11 -2 -21q-8 -33 -33.5 -53t-57.5 -20q-11 0 -22 3l-95 22q-112 -198 -292 -280q-30 -14 -62 -25l2 -12q0 -13 -6 -34q-13 -3 -36 -3zM938 -213l-27 59
q-14 22 -16 27t-6 11l67 -5zM421 -161l-6 31l6 57l89 -13q-11 -14 -35 -36q-35 -31 -46 -31q-3 0 -4 1l-1 1q-1 0 -3 -10zM560 -214l-130 19q28 37 61 61l24 19q28 -44 45 -99zM922 -257l-123 10q22 30 42 49t47 41q22 -41 34 -100zM758 -238l-150 16q7 12 7 13.5t2 3.5
t11 12q7 6 11.5 10t22 20.5t42.5 31.5q25 -40 54 -107zM590 -207q-10 11 -22.5 35t-22 48t-10.5 37l116 -16l31 -12l-8 -9q-8 -6 -24 -21q-43 -39 -60 -62zM775 -229q-8 23 -25.5 61t-29.5 61l131 -13l23 -12q-18 -19 -32 -36l-18 -19zM956 -101q-88 9 -189 14
q-91 4 -180 12t-164 26l7 68q173 -34 204 -42l334 -29zM613 -905q1 62 15.5 113.5t51.5 86.5q20 18 65 36t89 18q14 0 26 -2q-23 -113 -84 -178.5t-163 -73.5z" />
    <glyph glyph-name="uniE003" unicode="&#xe003;" horiz-adv-x="1432" 
 />
    <glyph glyph-name="uniE004" unicode="&#xe004;" horiz-adv-x="3370" 
 />
    <glyph glyph-name="uniE005" unicode="&#xe005;" horiz-adv-x="2187" 
 />
    <glyph glyph-name="uniE006" unicode="&#xe006;" horiz-adv-x="1648" 
 />
    <glyph glyph-name="uniE007" unicode="&#xe007;" horiz-adv-x="1804" 
 />
    <glyph glyph-name="uniE008" unicode="&#xe008;" horiz-adv-x="1402" 
 />
    <glyph glyph-name="uniE009" unicode="&#xe009;" horiz-adv-x="1982" 
 />
    <glyph glyph-name="uniE010" unicode="&#xe010;" horiz-adv-x="1935" 
 />
    <glyph glyph-name="uniE011" unicode="&#xe011;" horiz-adv-x="1802" 
 />
    <glyph glyph-name="uniE012" unicode="&#xe012;" horiz-adv-x="4010" 
 />
    <glyph glyph-name="uniE013" unicode="&#xe013;" horiz-adv-x="1704" 
 />
    <glyph glyph-name="uniE014" unicode="&#xe014;" horiz-adv-x="3213" 
 />
    <glyph glyph-name="uniE015" unicode="&#xe015;" horiz-adv-x="1375" 
 />
    <glyph glyph-name="uniE016" unicode="&#xe016;" horiz-adv-x="2015" 
 />
    <glyph glyph-name="uniE017" unicode="&#xe017;" horiz-adv-x="2320" 
 />
    <glyph glyph-name="uniE018" unicode="&#xe018;" horiz-adv-x="1571" 
 />
    <glyph glyph-name="uniE019" unicode="&#xe019;" horiz-adv-x="1345" 
 />
    <glyph glyph-name="uniE020" unicode="&#xe020;" horiz-adv-x="2392" 
 />
    <glyph glyph-name="uniE021" unicode="&#xe021;" horiz-adv-x="2006" 
 />
    <glyph glyph-name="uniE022" unicode="&#xe022;" horiz-adv-x="4055" 
 />
    <glyph glyph-name="uniE023" unicode="&#xe023;" horiz-adv-x="1749" 
 />
    <glyph glyph-name="uniE024" unicode="&#xe024;" horiz-adv-x="1520" 
 />
    <glyph glyph-name="uniE025" unicode="&#xe025;" horiz-adv-x="1671" 
 />
    <glyph glyph-name="uniE026" unicode="&#xe026;" horiz-adv-x="1053" 
d="M-264 1595q27 19 54.5 25t64.5 6l89 -1q167 3 330 21l517 85q4 -8 9.5 -31.5t13.5 -61.5q8 -35 15.5 -74.5t14 -80.5t10.5 -81t4 -75q0 -29 -6 -38q-16 -15 -62 -15q-27 0 -63.5 4.5t-76 11t-79.5 14.5t-75 15.5l-63 13.5t-42 8q-22 3 -29 5t-9 2q-3 0 -4 -7
q-1 -4 -7.5 -27t-17.5 -66q48 13 100 13q84 0 159.5 -30t133.5 -83t94.5 -125.5t42.5 -158.5q8 -132 10 -263.5t2 -263.5q-1 -142 -3 -150l40 2q25 0 43 -17t19 -44q0 -26 -17 -44t-43 -19l-245 -8q-25 0 -43 17t-19 44q0 20 7.5 32t19.5 19.5t27.5 10t31.5 2.5h25
q-3 9 -3 18v48q-228 -112 -395 -112q-64 0 -119 18.5t-95.5 54.5t-64 89t-23.5 121q1 48 15.5 96.5t40.5 93.5t64.5 84t87.5 69q134 72 293 72l46 -2q74 -6 141 -30l-3 51q-10 114 -88 179q-38 32 -84 50.5t-96 18.5q-115 0 -177 -96l24 -13q33 -22 33 -55q0 -15 -7 -28
q-21 -33 -54 -33q-16 0 -29 7l-216 112q-33 23 -33 55q0 16 7 29q21 33 55 33q16 0 29 -7l49 -26q6 10 12 19.5t12 17.5l63 272l-94 22q-40 8 -92.5 20t-106 28t-101 37.5t-76.5 49.5zM-210 1660l341 460l99 -46q69 -33 134 -61t130 -52.5t132.5 -46t142.5 -40.5l18 -106
q-29 -5 -59 -11t-62 -14q-29 -7 -58 -13t-58 -11q-367 -62 -654 -62q-55 0 -106 3zM169 417q0 -58 37 -90t111 -32q145 0 389 133l-3 188q-70 57 -196 57q-118 0 -209 -49q-61 -37 -94.5 -93t-34.5 -114zM247 2264l422 77q7 -13 16 -44t18 -71.5t18 -86.5t16.5 -89
t12.5 -79.5t7 -58.5q-106 24 -207 58t-198 85q-38 20 -86.5 42t-107.5 47q5 9 17 27t26 37t27 35.5t19 20.5zM284 2312q13 20 35.5 53.5t54.5 79.5t65 89.5t65 86.5q64 84 90 106q8 -15 16 -42.5t15.5 -61t14.5 -70t12 -71t9 -62.5t5 -45zM552 2951q14 0 22.5 -3t15.5 -3
q11 0 24.5 12.5t36.5 52.5l16 -4q4 -31 6.5 -48t8 -26.5t15 -14t27.5 -11.5l40 -17l-70 -40q-10 -61 -12 -75l-1 -14q-1 0 -3 2.5t-6 2.5l-7 -2l-22 17q-13 12 -22 17.5t-20 5.5q-16 0 -51 -15q-8 5 -13 5l-6 -1q-1 0 -1 1l8 31q13 32 13 51q0 10 -3 17t-7.5 13.5t-11 15
t-14.5 21.5q23 9 37 9zM565 1399q35 0 60 21t25 58q0 28 -21 52t-65 24l-16 -1q-34 -5 -50.5 -26t-16.5 -47q0 -30 21 -55.5t63 -25.5zM-6 1791q43 -32 77 -32q54 0 62 83q-30 46 -70 46q-20 0 -53 -14zM555 2067q0 -20 19.5 -37t62.5 -17q33 32 33 58q0 21 -15 34t-38 13
q-14 0 -26 -4q-36 -16 -36 -47zM358 1926q0 -15 9 -36l55 -10l17 59q-31 15 -51 15q-29 0 -30 -28zM315 2186q9 -3 15 -3q15 0 18.5 13.5t3.5 30.5l-41 13l-6 -10q-10 -13 -10 -24t20 -20zM519 2469l16 -21l-5 -11q0 -2 3 -3t8 -3l-6 17l3 38l13 5l40 -8q-6 18 -15 18
q-8 0 -19 -7l-6 -3q-13 8 -12 8q-1 0 -1 -13z" />
    <glyph glyph-name="uniE027" unicode="&#xe027;" horiz-adv-x="1721" 
 />
    <glyph glyph-name="uniE028" unicode="&#xe028;" horiz-adv-x="1043" 
 />
    <glyph glyph-name="uniE029" unicode="&#xe029;" horiz-adv-x="990" 
 />
    <glyph glyph-name="uniE030" unicode="&#xe030;" horiz-adv-x="1108" 
d="M205 754l205 58q113 31 207 58q-22 71 -60 107q-47 47 -109 47l-23 -2q-59 -9 -104 -53q-77 -78 -116 -215zM437 81q-80 0 -154.5 27t-132.5 81.5t-90 139.5q-46 130 -46 259q0 73 13 143q38 194 143 322l-116 -19q-15 2 -31 2q-21 0 -42.5 -2t-41.5 -2q-28 0 -49.5 10
t-29.5 41q-4 15 -4 28q0 33 17.5 55t39.5 34.5t39 18.5l17 5l114 377l-226 -62l-2 -37q2 -16 2 -30q0 -44 -16 -67.5t-39.5 -32t-47.5 -8.5q-22 0 -40 4.5t-24 9.5q-48 42 -48 87q0 39 33.5 69t95.5 30q23 0 49 -5l20 24q33 41 79 85l330 299l17 3q64 -90 151 -195
q83 -100 164.5 -210.5t140.5 -225.5l31 3q29 4 42 4q11 0 15 -3t7.5 -10.5t12 -19.5t26.5 -29l9 -58q-31 -26 -84 -42q-59 -18 -163 -41q143 -85 181 -313l2 -16q0 -27 -15.5 -49t-41.5 -32q-114 -37 -289 -84l-58 -16q-129 -35 -214 -63q3 -92 35 -182q56 -137 220 -137
q113 0 205 64q80 55 101 149l-46 -2q-26 0 -45.5 18.5t-20.5 46.5q0 27 18 46t45 20l259 8q27 0 46 -18t20 -46q0 -27 -18 -46t-45 -21l-41 -1q-10 -94 -57 -167.5t-119 -124.5q-100 -70 -222 -89q-41 -7 -81 -7z" />
    <glyph glyph-name="uniE031" unicode="&#xe031;" horiz-adv-x="975" 
 />
    <glyph glyph-name="uniE032" unicode="&#xe032;" horiz-adv-x="1026" 
 />
    <glyph glyph-name="uniE033" unicode="&#xe033;" horiz-adv-x="1007" 
d="M961 1361q-23 0 -40 15t-25.5 35.5t-8.5 35.5q2 31 22 56q10 14 19 33.5t9 54.5q0 41 -19 114l14 2q63 -42 94 -144q10 -32 24 -58v-83q-47 -61 -89 -61zM606 41q-26 0 -45 18t-20 46q0 27 18 46t44.5 20t52.5 2l2 280q0 111 -6 210.5t-25 170.5q-33 123 -120 123
q-38 0 -83 -22q-119 -59 -249 -218l-2 -539l50 1q25 0 43.5 -18t19.5 -46q0 -27 -18 -46t-45 -20l-259 -8q-26 0 -45.5 18t-20.5 46q0 27 18 46t45 20l43 2q1 82 1 260q2 894 13 1319l1 1l-49 -2q-26 0 -45 18.5t-20 46.5q0 27 18 46t45 20l259 8q26 0 45 -18t20 -46
q0 -27 -18 -46t-45 -20l-42 -2v-11q-7 -255 -10 -606q5 9 19.5 14.5t50.5 11.5l43 7q50 13 103 13h10q-41 -71 -63 -105l11 6q82 39 158 39q87 0 164 -57q68 -54 101 -150t43 -220t10 -260l-2 -262l40 1q25 0 43.5 -18t20.5 -46q0 -27 -18.5 -46t-45.5 -20zM863 1575
q-8 0 -20.5 12t-30.5 31q-28 33 -67.5 68t-90.5 53l-44 19q18 7 37 19q4 2 21 14h95l24 -14q20 -9 34 -22q30 -26 47 -89q8 -27 8 -53q0 -19 -6 -35q-3 -3 -7 -3zM418 1512q42 72 95 136q26 26 60 26q29 0 60 -12t56 -25l13 -6q-9 -18 -23.5 -33t-28.5 -35q-8 -14 -18.5 -22
t-34.5 -12q-36 -6 -90.5 -11.5t-88.5 -5.5zM269 1259l-9 8q40 82 68.5 118t68 44.5t114.5 9.5l56 2q-5 -11 -25 -43q-52 -84 -70 -104q-27 -25 -185 -34z" />
    <glyph glyph-name="uniE034" unicode="&#xe034;" horiz-adv-x="375" 
 />
    <glyph glyph-name="uniE035" unicode="&#xe035;" horiz-adv-x="360" 
 />
    <glyph glyph-name="uniE036" unicode="&#xe036;" horiz-adv-x="1948" 
 />
    <glyph glyph-name="uniE037" unicode="&#xe037;" horiz-adv-x="1238" 
 />
    <glyph glyph-name="uniE038" unicode="&#xe038;" horiz-adv-x="1628" 
 />
    <glyph glyph-name="uniE039" unicode="&#xe039;" horiz-adv-x="1201" 
 />
    <glyph glyph-name="uniE040" unicode="&#xe040;" horiz-adv-x="1005" 
 />
    <glyph glyph-name="uniE041" unicode="&#xe041;" horiz-adv-x="1798" 
 />
    <glyph glyph-name="uniE042" unicode="&#xe042;" horiz-adv-x="1012" 
 />
    <glyph glyph-name="uniE043" unicode="&#xe043;" horiz-adv-x="1812" 
 />
    <glyph glyph-name="uniE044" unicode="&#xe044;" horiz-adv-x="1080" 
 />
    <glyph glyph-name="uniE045" unicode="&#xe045;" horiz-adv-x="771" 
d="M-529 1638q0 27 19.5 46.5t46.5 19.5t46 -19.5t19 -46.5v-49l408 2l6 256q-26 3 -52.5 6t-52.5 5l-72 7q-10 2 -19.5 3t-19.5 2q-27 3 -54 7.5t-52 10t-47.5 13.5t-38.5 19l4 59q29 35 33 52q3 7 7.5 12t31.5 5l55 -1q46 121 116 237.5t143 225.5q38 57 71 109.5
t61 101.5l17 -2l358 -264q25 -20 46 -38.5t39 -36.5l24 -23q39 11 69 11q57 0 88 -28.5t31 -67.5q0 -40 -39 -82q-7 -6 -29 -14t-49 -8q-99 0 -99 121q0 8 -6 44l-231 39l151 -363l13 -2q12 -3 31 -9.5t36.5 -19t30.5 -32.5t13 -49q0 -27 -8.5 -42.5t-23.5 -23.5t-34.5 -10
t-41.5 -2h-8q-20 0 -38 -2t-35 -6l-251 15l-5 -234l398 1q7 0 10 -1v52q0 27 19 46t46 19t46.5 -19t19.5 -46v-257q0 -27 -19 -46t-46 -19t-46 19t-19 46v38q-1 0 -411 -2q-1 -66 -1.5 -132t-0.5 -133l1 -165q4 -541 47 -658q6 -15 15 -32t20.5 -31t26.5 -24t33 -12
q54 0 92 68q-29 14 -45.5 28t-16.5 44q0 16 7 30q23 35 59 35q16 0 30 -7l227 -120q35 -23 35 -58q0 -16 -7 -30q-23 -35 -58 -35q-15 0 -31 8l-50 26q-19 -33 -43.5 -62t-54.5 -50t-65 -33t-74 -12h-14q-164 11 -243 206q-55 150 -59 718l-1 165q0 67 0.5 133t1.5 132
l-396 -1l-10 1v-41q0 -27 -19 -46t-46 -19t-46 19t-19 46z" />
    <glyph glyph-name="uniE046" unicode="&#xe046;" horiz-adv-x="1051" 
d="M70 1543q-43 0 -89 61v82q12 25 22 56q31 102 95 146l14 -2q-19 -72 -19 -114q0 -34 9 -53.5t19 -34.5q20 -25 23 -56q0 -24 -20 -54.5t-54 -30.5zM640 40q-26 0 -45 18t-21 46q0 27 18.5 46t45.5 20l42 1l5 277q-53 -144 -106 -225q-74 -103 -170 -137q-47 -17 -94 -17
q-35 0 -69 9q-81 23 -139 92q-65 79 -77 214q-12 165 -16 342l-2 146q0 118 4 260l-55 -2q-26 0 -45.5 18.5t-19.5 48.5q0 25 18 43.5t45 20.5l259 8q26 0 45 -18t20 -46q0 -27 -18 -46.5t-45 -20.5l-35 -1v-3q-4 -143 -4 -260l2 -145q4 -165 16 -334q6 -79 38.5 -118
t76.5 -39q68 0 125 81q63 97 129 312q72 235 125 508l-39 -2q-26 0 -45 18.5t-20 46.5q0 27 18 46t45 20l35 1q-24 37 -43 72l-17 28h10q53 0 103 -13l43 -7q31 -5 45.5 -9.5t20 -11t10 -18.5t19.5 -35l33 1q26 0 45 -18t20 -46q0 -27 -18 -46t-43 -20t-49 -2l-17 -967l48 1
q26 0 45 -18t20 -46q0 -27 -18 -46t-45 -20zM168 1757q-4 0 -7 3q-6 16 -6 35q0 26 7.5 53t17.5 46q16 30 30.5 43t34.5 23l23 13h95q3 -2 4 -3.5t13 -8.5q17 -11 31 -17l9 -5l-44 -19q-50 -18 -89.5 -53t-67.5 -67q-17 -19 -30 -31t-21 -12zM612 1693q-63 0 -178 18
q-24 4 -34.5 11.5t-18.5 21.5q-15 22 -28 35q-16 16 -25 34l15 7q26 13 56 24.5t59 11.5q33 0 59 -26q54 -64 95 -137zM762 1440l-18 1q-153 8 -186 35q-8 9 -29 40q-53 80 -65 107q30 -2 55 -2q75 -1 115 -10t68 -45t69 -118z" />
    <glyph glyph-name="uniE047" unicode="&#xe047;" horiz-adv-x="944" 
 />
    <glyph glyph-name="uniE048" unicode="&#xe048;" horiz-adv-x="1417" 
 />
    <glyph glyph-name="uniE049" unicode="&#xe049;" horiz-adv-x="1234" 
 />
    <glyph glyph-name="uniE050" unicode="&#xe050;" horiz-adv-x="1672" 
 />
    <glyph glyph-name="uniE051" unicode="&#xe051;" horiz-adv-x="1009" 
 />
    <glyph glyph-name="uniE097" unicode="&#xe097;" horiz-adv-x="2625" 
 />
    <glyph glyph-name="uniE123" unicode="&#xe123;" horiz-adv-x="2817" 
 />
    </font>
</defs>
</svg>
