<?xml version="1.0" standalone="no"?>
<!DOCTYPE svg PUBLIC "-//W3C//DTD SVG 1.1//EN" "http://www.w3.org/Graphics/SVG/1.1/DTD/svg11.dtd" >
<svg xmlns="http://www.w3.org/2000/svg" xmlns:xlink="http://www.w3.org/1999/xlink" version="1.1">
<metadata>
Created by FontForge 20170924 at Mon Aug  1 22:55:36 2011
 By www-data
Copyright (c) 2011 by Kimberly Geswein. All rights reserved.
</metadata>
<defs>
<font id="KGHopeForACure" horiz-adv-x="633" >
  <font-face 
    font-family="KG Hope For A Cure"
    font-weight="400"
    font-stretch="normal"
    units-per-em="1024"
    panose-1="3 0 5 6 0 0 0 2 0 3"
    ascent="819"
    descent="-205"
    x-height="484"
    cap-height="864.5"
    bbox="-326.266 -535.273 1002.27 1153.05"
    underline-thickness="0"
    underline-position="0"
    unicode-range="U+0020-2212"
  />
<missing-glyph horiz-adv-x="500" 
 />
    <glyph glyph-name=".notdef" horiz-adv-x="500" 
 />
    <glyph glyph-name=".null" horiz-adv-x="0" 
 />
    <glyph glyph-name="nonmarkingreturn" horiz-adv-x="500" 
 />
    <glyph glyph-name="space" unicode=" " horiz-adv-x="339" 
 />
    <glyph glyph-name="space" unicode="&#xa0;" horiz-adv-x="339" 
 />
    <glyph glyph-name="percent" unicode="%" horiz-adv-x="766" 
d="M306 34q19 38 42 91.5t47 116.5t49 132t48 137t44 132.5t37 118.5q-12 4 -38 -3t-55.5 -17.5t-56.5 -22t-41 -16.5q-21 -8 -39.5 -37t-37 -66.5t-39 -76.5t-46.5 -67.5t-59 -40t-76 7.5q-29 33 -37 73t-1.5 79.5t24.5 77.5t41.5 67.5t48 48.5t45.5 22q18 7 37.5 1.5
t39 -14t37.5 -15t33 -1.5l250 88q6 2 17.5 2.5t22 -2.5t17 -10t2.5 -20l-297 -816q-3 -9 -10.5 -12t-16 0.5t-17.5 13.5t-15 28zM647 56q-35 -10 -57 10t-31.5 51t-6 64.5t20.5 50.5q34 46 62.5 66t50.5 19.5t37 -17t22 -42t5 -56t-14 -59.5t-34 -52.5t-55 -34.5zM603 173
q-2 -34 4 -47t17 -12t24.5 13t25 29t19.5 35.5t8.5 32t-9.5 19.5t-33 -2q-9 -2 -19.5 -11t-19.5 -20t-14 -21.5t-3 -15.5zM250 718q-28 5 -52.5 -9.5t-43 -39t-31 -55.5t-17 -60t-1 -51.5t17 -30t37.5 3.5t60 50q10 11 21 29.5t21.5 38t18.5 37.5t13 28q4 7 -4 12
t-18.5 11.5t-18 14.5t-3.5 21z" />
    <glyph glyph-name="ampersand" unicode="&#x26;" horiz-adv-x="423" 
d="M222 131q2 7 10.5 8.5t18.5 0t19.5 -4t15.5 -4.5l-38 -225q-3 -11 -13.5 -16t-23.5 -5t-23.5 5t-13.5 16zM44 163q-28 19 -33.5 44t3 51.5t28.5 53t42.5 50t44.5 42t36 28.5q-40 5 -46 28.5t13.5 51t58.5 50.5t89 27q1 10 2.5 35t4.5 55.5t8.5 62t15 54t23.5 32t35 -4.5
l-30 -278q-51 1 -85.5 -14t-42 -31.5t18 -27t94.5 -0.5q14 3 20.5 -3.5t7 -16.5t-3 -21.5t-9.5 -17.5q-11 2 -35 -1.5t-53 -13.5t-59.5 -26.5t-54.5 -38.5t-38 -50t-10 -61q27 -8 55 0.5t55 24t52 33t45 28t35 9.5t22 -22q4 -11 -3 -24t-11 -20q-9 -6 -31.5 -19t-48.5 -27
t-49.5 -26t-32.5 -16q-14 -6 -31.5 -10.5t-35.5 -5.5t-35 2.5t-31 13.5z" />
    <glyph glyph-name="quotesingle" unicode="'" horiz-adv-x="236" 
d="M90 361q-1 0 -1 6t1 8q15 25 24.5 48t11.5 45.5t-6.5 45t-29.5 46.5q-10 28 0 43.5t27.5 15.5t36 -16t24.5 -51q3 -6 5 -25.5t1.5 -43.5t-5 -50t-15.5 -45t-29 -28t-45 1z" />
    <glyph glyph-name="parenleft" unicode="(" horiz-adv-x="324" 
d="M182 -12q-56 28 -88 80.5t-45.5 119.5t-9.5 143.5t20.5 153t44 147t61.5 125.5t72.5 89.5t77.5 38.5l7.5 -7.5t6.5 -7.5q-53 -46 -99.5 -119.5t-78.5 -160t-46 -178t-1.5 -174t56 -149t125.5 -101.5q-3 -15 -17.5 -18t-31 0t-32.5 9t-22 9z" />
    <glyph glyph-name="parenright" unicode=")" horiz-adv-x="276" 
d="M125 -27q-6 -3 -22 -9t-32.5 -9t-31 0t-17.5 18q82 35 125.5 101.5t56 149t-1.5 174t-46 178t-78.5 160t-99.5 119.5q1 2 6.5 7.5l7.5 7.5q39 -4 77.5 -38.5t72.5 -89.5t61.5 -125.5t44 -147t20.5 -153t-9.5 -143.5t-45.5 -119.5t-88 -80.5z" />
    <glyph glyph-name="asterisk" unicode="*" horiz-adv-x="637" 
d="M307 400q-53 -82 -81.5 -125t-45.5 -60t-28 -13.5t-27 15.5l124 197h-169l15 53h147q4 12 -2 30.5t-15 40t-18.5 44t-12.5 43t3.5 37t30.5 25.5q9 -6 17 -22.5t15.5 -36.5t14.5 -41.5t13.5 -37t13.5 -23t14 -0.5q24 57 42.5 89t32.5 45.5t23.5 12.5t15 -8.5t6.5 -18.5
t-2 -17l-74 -147h235q5 -19 2 -30t-24.5 -17t-68.5 -8.5t-130 -3.5l104 -133q7 -8 4 -19t-11 -19t-18.5 -11t-18.5 5l-127 154v0z" />
    <glyph glyph-name="plus" unicode="+" horiz-adv-x="478" 
d="M200 254q-44 0 -71.5 3.5t-42.5 10.5t-19 18t1 28l129 5q3 11 3 32.5t0.5 45.5t3 46.5t10 37t21.5 17t38 -13.5l13 -154q31 -9 61.5 -4.5t50.5 6.5q12 1 28.5 -5t27.5 -15.5t10.5 -20t-22.5 -17.5q-11 -1 -34.5 -2.5t-49.5 -2.5t-50 -2t-35 -2q-3 -59 4.5 -93t9 -49
t-11.5 -13.5t-56 13.5z" />
    <glyph glyph-name="comma" unicode="," horiz-adv-x="184" 
d="M49 -101q-1 0 -1 6t1 8q15 25 24.5 48t11.5 45.5t-6.5 45t-29.5 46.5q-10 28 0 43.5t27.5 15.5t36 -16t24.5 -51q3 -6 5 -25.5t1.5 -43.5t-5 -50t-15.5 -45t-29 -28t-45 1z" />
    <glyph glyph-name="hyphen" unicode="-" horiz-adv-x="410" 
d="M88 312q-4 11 -1.5 25t16.5 19l240 10q15 -11 15 -29.5t-15 -29.5q-10 1 -32 -1t-49.5 -4t-57 -4t-54.5 -1.5t-42 4t-20 11.5z" />
    <glyph glyph-name="hyphen" unicode="&#xad;" horiz-adv-x="410" 
d="M88 312q-4 11 -1.5 25t16.5 19l240 10q15 -11 15 -29.5t-15 -29.5q-10 1 -32 -1t-49.5 -4t-57 -4t-54.5 -1.5t-42 4t-20 11.5z" />
    <glyph glyph-name="period" unicode="." horiz-adv-x="151" 
d="M43 34q0 20 13 32.5t29 16.5t29.5 -2t14.5 -23q4 -10 -6.5 -23.5t-26.5 -21t-31.5 -5t-21.5 25.5z" />
    <glyph glyph-name="slash" unicode="/" horiz-adv-x="437" 
d="M27 36q25 60 53.5 131.5t58.5 146.5t60.5 149.5t60 140.5t56.5 118.5t50 85t41.5 39.5t29.5 -18q-78 -162 -133.5 -284t-93.5 -210t-60 -146.5t-34 -94t-16.5 -52t-5.5 -20.5q-2 -5 -11 -9.5t-20.5 -5.5t-22 5t-13.5 24z" />
    <glyph glyph-name="zero" unicode="0" horiz-adv-x="426" 
d="M98 27q-34 27 -51 78.5t-19.5 117t7.5 140t30.5 147t49.5 138t64.5 113.5t75.5 73t82 17q8 -2 13.5 -12t1.5 -18q-43 -6 -80 -40.5t-67 -86.5t-53 -116.5t-38.5 -131.5t-22.5 -132t-5 -117.5t13 -87.5t32 -42.5t52.5 17.5t73.5 92q34 62 54 134t26.5 147t-1.5 149.5
t-29 141.5q14 9 28.5 2.5t27 -19.5t21.5 -29.5t12 -27.5q3 -40 1.5 -96t-9 -118.5t-22 -128t-37.5 -125t-56 -109t-77 -79.5q-27 -11 -51 -10.5t-47 19.5z" />
    <glyph glyph-name="one" unicode="1" horiz-adv-x="223" 
d="M22 29q9 76 20 158.5t25 178t32 207t40 245.5q8 15 16.5 16.5t15 -5t10.5 -18.5t2 -22q-9 -89 -22.5 -182t-28.5 -190t-29 -198t-22 -204q-6 -13 -14.5 -15t-16.5 2t-15.5 12t-12.5 15z" />
    <glyph glyph-name="two" unicode="2" horiz-adv-x="570" 
d="M40 -1q-1 0 -8.5 4.5t-15.5 12t-12.5 16.5t0.5 17q46 29 95 78t97.5 110.5t92 131t78 139t56.5 136t27 122.5q-1 18 -17 21t-41 -2.5t-56 -18.5t-62.5 -28.5t-60.5 -31t-50 -26.5q-17 10 -24 19t-7.5 16.5t3 14.5t9.5 12q99 53 167.5 76t112 21t64 -25t23 -61.5t-11 -90
t-38 -109.5t-58.5 -119.5t-71.5 -121t-77 -113.5t-76.5 -97l343 134q14 5 20.5 -4.5t6.5 -24t-7 -28.5t-19 -18l-482 -162v0z" />
    <glyph glyph-name="three" unicode="3" horiz-adv-x="481" 
d="M57 12q-41 31 -35 50t50 9q39 -10 78.5 5t75.5 44t67 69t52.5 81t31.5 78.5t4.5 63t-28.5 33t-67 -10.5q-23 -12 -41.5 -22t-36.5 -21t-36.5 -24t-40.5 -32q-11 -5 -17 -1t-9.5 12.5t-4 18t1.5 14.5l193 136q33 34 57 82t33 94t1 81t-39 44t-88 -16t-145 -101
q-11 -5 -17 -1t-9.5 12.5t-4 18t1.5 14.5q54 52 96.5 81t77.5 42.5t64 14.5t56 -5q42 -32 57 -76t10 -93t-26.5 -99t-52.5 -92q49 -20 67.5 -57t14.5 -83t-27 -96.5t-57 -98t-76.5 -87.5t-84.5 -65t-80.5 -31.5t-66.5 14.5z" />
    <glyph glyph-name="four" unicode="4" horiz-adv-x="544" 
d="M379 0q-33 -23 -46 -7t-13 56t9.5 96.5t21 113.5t21.5 107.5t11 78.5q-36 -12 -77.5 -27.5t-82 -29t-77 -22.5t-62.5 -8t-39.5 15t-7.5 46l58 302q41 3 52.5 -9.5t5.5 -47t-24 -94t-34 -151.5l284 91l57 375q13 20 25.5 25.5t21 0t12.5 -20t0 -35.5q-1 -7 -3.5 -29
t-5.5 -51t-6.5 -62.5t-6.5 -62.5t-6 -51t-4 -29q31 -5 39.5 -15t3 -24.5t-21.5 -31.5t-34 -36q-18 -55 -27.5 -114t-15.5 -118.5t-12 -118t-16 -112.5z" />
    <glyph glyph-name="five" unicode="5" horiz-adv-x="603" 
d="M51 15q-41 31 -35 50t50 9q36 -9 72.5 3t71 38t64.5 61.5t52.5 73.5t36 75.5t14.5 66t-11.5 45t-42.5 13.5t-78.5 -29t-119.5 -83q-11 -5 -17 -1t-9.5 12.5t-4 18t1.5 14.5l77 328q-29 -10 -39 -4t-6 19t20 29.5t40 28.5l353 74q32 6 42.5 -2t3 -21.5t-31 -28.5
t-58.5 -22q-21 -7 -56 -11t-73 -8.5t-71.5 -13t-51.5 -24.5q-20 -54 -35.5 -121t-25.5 -134q42 37 97 46t109 -2q37 -28 48.5 -69t2.5 -87.5t-34 -95.5t-59.5 -93.5t-75.5 -82t-81.5 -60t-77 -27.5t-62.5 15z" />
    <glyph glyph-name="six" unicode="6" horiz-adv-x="449" 
d="M76 13q-24 9 -33 45.5t-6 90.5t15 120.5t29.5 136.5t38.5 138t41 125.5t37.5 98.5t28.5 57q9 16 20 22.5t20.5 2.5t15 -19t2.5 -42q-7 -7 -21 -31t-31.5 -61.5t-37 -87t-37.5 -105.5t-32.5 -117t-22.5 -122q64 61 113.5 88t86 28t59.5 -19.5t33 -53.5t7 -74t-18 -81.5
t-42 -76t-65.5 -57.5t-89 -25.5t-111.5 19.5zM334 303q-25 17 -53 13.5t-54.5 -21.5t-50 -46.5t-38.5 -61.5t-20.5 -68.5t3.5 -65.5q37 -11 73 -2.5t66.5 30t53 51.5t34 61.5t9 61t-22.5 48.5z" />
    <glyph glyph-name="seven" unicode="7" horiz-adv-x="500" 
d="M325 94q2 -18 -10 -37.5t-27.5 -30.5t-31 -9.5t-20.5 27.5q54 199 85.5 329t47 209.5t18.5 119.5t1 60q-4 1 -27.5 -1t-58 -4t-75.5 -4t-79.5 -2t-70.5 3t-48.5 11t-13.5 21.5t34 34.5q103 -5 201.5 -1t195.5 31q14 2 24 -6.5t6 -23.5l-151 -727v0z" />
    <glyph glyph-name="eight" unicode="8" horiz-adv-x="478" 
d="M169 31q-61 -12 -88.5 6.5t-32 55t9 84t34.5 94t44.5 85t39.5 56.5q-49 21 -80 52.5t-44.5 68t-11 76.5t20.5 77t50.5 69t79.5 54q44 30 87 34.5t72 -4t36.5 -23t-19.5 -22.5q-51 10 -98.5 -4.5t-85 -43.5t-60 -67.5t-23.5 -77t24.5 -72t84.5 -52.5q6 8 19.5 25.5t31 40
t37 48t36.5 48.5t30.5 41t18.5 26q-12 29 -8.5 45t14.5 21.5t26 2.5t27 -11t17.5 -19.5t-3.5 -23.5l-191 -265q-4 -6 6.5 -15.5t27.5 -23.5t36 -33t31 -43.5t12 -55.5t-20 -69.5t-64.5 -84t-123.5 -100.5zM205 368q-48 -60 -73 -113.5t-30 -92t8 -58t40.5 -11t67.5 49
t90 122.5q9 22 2.5 44t-22 37.5t-38 22t-45.5 -0.5z" />
    <glyph glyph-name="nine" unicode="9" horiz-adv-x="503" 
d="M305 0q-14 4 -30 14.5t-14 29.5l104 468q-89 -75 -152 -101t-102 -17.5t-54.5 44.5t-10 85.5t32 105.5t71.5 105t108.5 83.5t142.5 40.5q13 3 20.5 -3.5t10.5 -16.5t2 -21t-4 -18q-77 -1 -135.5 -28.5t-98.5 -67.5t-62 -86t-26 -84.5t10.5 -62.5t46.5 -20t81.5 42.5
t117.5 125.5q13 19 19.5 33t10 26.5t4.5 24t3 24.5q4 12 12.5 16.5t17.5 2t17 -11t12 -22.5v-14.5t-4 -36t-12 -71t-24 -119.5t-40.5 -182t-59.5 -259z" />
    <glyph glyph-name="colon" unicode=":" horiz-adv-x="214" 
d="M65 225q0 20 13 32.5t29 16.5t29.5 -2t14.5 -23q4 -10 -6.5 -23.5t-26.5 -21t-31.5 -5t-21.5 25.5zM66 455q0 20 13 32.5t29 16.5t29.5 -2t14.5 -23q4 -10 -6.5 -23.5t-26.5 -21t-31.5 -5t-21.5 25.5z" />
    <glyph glyph-name="semicolon" unicode=";" horiz-adv-x="223" 
d="M60 370q-9 22 -0.5 32.5t23.5 10t30.5 -11t20.5 -31.5q6 -24 -2 -34t-21.5 -8.5t-28.5 13t-22 29.5zM80 -96q-1 0 -1 6t1 8q15 25 26 52t14.5 54.5t-3.5 54.5t-28 51q-10 28 -2.5 44t21.5 16.5t30 -15t22 -50.5q5 -13 9.5 -39t5 -55t-3.5 -58t-14.5 -49t-29 -27t-47.5 7z
" />
    <glyph glyph-name="less" unicode="&#x3c;" horiz-adv-x="468" 
d="M105 330q-12 9 2 28t42 42.5t65 48.5t71 46t58.5 35t28.5 16q25 -17 27 -32.5t-11 -30.5t-37 -30t-52 -31t-56.5 -32.5t-49.5 -34.5l219 -109q0 -39 -15.5 -50.5t-41 -5.5t-58.5 25t-67 41.5t-66.5 43t-58.5 30.5z" />
    <glyph glyph-name="equal" unicode="=" horiz-adv-x="447" 
d="M79 426q0 5 26 12t65 13t83 9.5t80 0t56.5 -15t12.5 -34.5l-308 -14q-4 2 -9.5 13.5t-5.5 15.5zM82 305q0 5 26 12t65 13t83 9.5t80 0t56.5 -15t12.5 -34.5l-308 -14q-4 2 -9.5 13.5t-5.5 15.5z" />
    <glyph glyph-name="greater" unicode="&#x3e;" horiz-adv-x="404" 
d="M342 340q-26 -10 -58.5 -30.5t-66.5 -43t-67 -41.5t-58.5 -25t-41 5.5t-15.5 50.5l219 109q-21 18 -49.5 34.5t-56.5 32.5t-52 31t-37 30t-11 30.5t27 32.5q4 -2 28.5 -16t58.5 -35t71 -46t65 -48.5t42 -42.5t2 -28z" />
    <glyph glyph-name="question" unicode="?" horiz-adv-x="579" 
d="M116 472q5 7 28 21.5t55 34t69.5 43.5t72.5 49t64 49.5t43 46.5t10 40.5t-34 29.5q-44 9 -82 3t-74.5 -21.5t-73.5 -38t-79 -46.5q-24 -13 -34 -8.5t-5.5 19.5t23 37.5t49.5 44.5t74.5 41t99.5 28q103 10 152 -7.5t57 -52t-20 -81t-78.5 -94.5t-118.5 -93t-140 -76
q-2 -5 -1 -27.5t1.5 -52t0 -61t-6 -55t-17.5 -34.5t-33 2q0 7 -0.5 27t-1 46.5t-0.5 56v56v46.5v27zM89 45q-9 22 -0.5 32.5t23.5 10t30.5 -11t20.5 -31.5q6 -24 -2 -34t-21.5 -8.5t-28.5 13t-22 29.5z" />
    <glyph glyph-name="at" unicode="@" horiz-adv-x="654" 
d="M117 29q-27 18 -43 49t-25 66t-13 71t-7 64q-5 56 3.5 127t29.5 145.5t54.5 146t77.5 130t98.5 97t118.5 46.5q56 7 97 -13.5t67.5 -58t39.5 -89t12.5 -106.5t-13.5 -109.5t-38.5 -99.5t-63 -75.5t-86.5 -37.5q-15 -2 -25.5 6.5t-19 21.5t-15 26t-13.5 20
q-1 1 -13.5 -8.5t-31.5 -22t-42.5 -26t-45.5 -21.5t-41 -8t-29 14t-8.5 45.5t19.5 85.5q11 32 33 62t50 55t60 44t63 30q5 1 17.5 4t26.5 5t26.5 4t17.5 2q18 0 23.5 -14t2.5 -35t-11.5 -46t-17.5 -48t-17 -40.5t-9 -22.5q-2 -7 -1 -16t5 -16t10 -11t15 -1q38 12 62 38.5
t36 61.5t14.5 75t-2 80t-14.5 77t-22 65q-4 9 -15.5 16.5t-25 13t-27 9t-20.5 5.5q-47 9 -91 -11.5t-83 -62.5t-72 -100.5t-57.5 -125.5t-40 -137.5t-20 -135.5t3.5 -121t30 -93.5t60 -52.5t93 2q27 8 45.5 15.5t34 17t31 22.5t36.5 33q6 5 17.5 21t26 34.5t31 36t32 27.5
t30 7.5t25.5 -23.5q2 -4 2 -15t-2 -15q-25 -28 -56.5 -61.5t-69 -65.5t-78.5 -58.5t-83.5 -40t-85 -10.5t-83.5 30zM205 471q-1 -4 -1 -15t1 -15q11 -3 29 6.5t39 27.5t42 41.5t37 47.5t25 46t5 37q-28 1 -56 -17.5t-52 -45.5t-42 -57.5t-27 -55.5z" />
    <glyph glyph-name="A" unicode="A" 
d="M539 290q0 16 0.5 28.5t-3 19.5t-14 8t-32.5 -6l-275 -89l-130 -214q-9 -14 -25 -19.5t-30 -4t-20.5 9t2.5 18.5q39 38 71.5 89t56.5 111q-11 -2 -26 1.5t-25.5 12t-12.5 21t13 28.5q12 -1 30 0.5t37 6.5t35 13.5t24 22.5l284 473q14 13 28 13t25.5 -25.5t20.5 -84.5
t14.5 -164t7 -264t-1.5 -384l-55 -5q1 14 1 44t0.5 68t0.5 80t-0.5 80t-0.5 68v44zM271 330q88 31 138 49t74.5 27.5t30 13t6.5 4.5q2 5 2 27t-1 52t-3.5 63.5t-5 62t-5 47.5t-4.5 19z" />
    <glyph glyph-name="B" unicode="B" horiz-adv-x="603" 
d="M380 108q-36 -30 -72 -64t-69 -65.5t-60.5 -55t-48 -32t-32 1.5t-10.5 48q62 43 124.5 92.5t120.5 105t107.5 116.5t85.5 128q-17 20 -44.5 23t-60 -6.5t-68 -29t-68.5 -43t-61 -48.5t-46 -46q-4 -1 -13 -1.5t-18.5 0.5t-17 5.5t-8.5 13.5l-34 -221q-4 -24 -24.5 -31
t-38.5 4l110 794q4 1 13 4t18 5.5t15 4t6 0.5l-13 -88q83 36 154 58t122.5 25t80.5 -14t29 -58t-33 -108t-105 -164q68 17 107 15t55 -17.5t13 -42.5t-19 -59.5t-41.5 -68.5t-53.5 -70t-55 -63t-47 -48zM166 633q-6 -27 -11.5 -71.5t-10 -93t-9 -95.5t-7.5 -78
q38 23 87 59.5t97 80t88 92t60 95.5q30 54 23.5 83.5t-34.5 39.5t-70.5 3.5t-85 -23.5t-78 -41.5t-49.5 -50.5z" />
    <glyph glyph-name="C" unicode="C" horiz-adv-x="508" 
d="M526 196q-112 -107 -194 -160t-138.5 -64.5t-91 11t-52 67t-21 102.5t2.5 118q13 73 36.5 154.5t55.5 155.5t71 134t83 91t92.5 25.5t98.5 -61.5q2 11 7 29t13 36.5t17 34.5t18 23.5t17 4t13 -23.5q-68 -134 -44 -261q-23 -24 -36 -27.5t-20 6t-9.5 28.5t-5 41t-8 43.5
t-17.5 36.5q-30 47 -66 42t-72 -46t-69.5 -108.5t-59 -145.5t-40 -157.5t-12 -144t24 -105t68.5 -40t122 50t184 165.5l32 -55v0z" />
    <glyph glyph-name="D" unicode="D" horiz-adv-x="530" 
d="M260 783q121 -39 190 -89.5t97.5 -108t22 -118.5t-36.5 -121t-77.5 -115.5t-102.5 -101.5t-110.5 -80t-101.5 -51t-76 -13.5t-33 32.5q25 85 46.5 176t38 183.5t28 183.5t18.5 175q-25 3 -31 16t0.5 30t21.5 35t31 32t30.5 20.5t19.5 0.5q7 -9 8 -20.5t1.5 -24t3 -23.5
t12.5 -18zM107 53q25 2 70.5 24.5t96.5 60t100.5 88t83.5 108.5t45.5 122t-13.5 128q-8 22 -36 46t-65.5 43.5t-79.5 30t-78 4.5z" />
    <glyph glyph-name="E" unicode="E" horiz-adv-x="515" 
d="M442 195q28 -4 27 -16.5t-22.5 -29.5t-58.5 -36t-81 -36.5t-90.5 -30.5t-85.5 -17t-67 2t-36 28q2 12 7.5 36t11.5 54.5t13 64t13 64t10.5 54.5t6.5 36q-14 7 -19 18.5t-2 24.5t14 25t28 20q18 45 31.5 78.5t26.5 64.5t28.5 64.5t38.5 77.5q39 28 90 45t106.5 29t111 23
t104.5 26q3 -14 -4.5 -26t-20.5 -22t-27.5 -17t-25.5 -10q-14 -3 -49.5 -12t-75 -19t-75 -19t-49.5 -12q-33 -18 -55.5 -49.5t-37.5 -66t-23.5 -68t-12.5 -57.5q31 -9 68 2.5t75.5 27.5t77 28t73.5 4q9 -12 -10.5 -25t-54 -27t-77 -28t-80.5 -26.5t-65 -24t-29 -19.5
l-72 -294q-1 -13 18 -16.5t49.5 1.5t68.5 15.5t76.5 25.5t73.5 31.5t58 33.5z" />
    <glyph glyph-name="F" unicode="F" horiz-adv-x="419" 
d="M77 253q3 11 -2 16.5t-13 9t-17 5.5t-14.5 6t-4.5 11.5t12 21.5q1 2 9.5 8.5t18.5 14.5t18 15t10 9q9 15 15.5 51.5t11 78t7 79t4.5 54.5q-14 -3 -19.5 2.5t-5.5 15.5t3.5 21t8.5 17q1 1 6 5t11 8.5t11.5 8.5t5.5 5q6 8 8 20.5t5 26t9 26t18 21.5q20 14 31.5 11t16 -14.5
t3.5 -26.5t-7 -25l365 99l-14 -56l-356 -115q-16 -20 -29.5 -59.5t-21.5 -82.5t-10.5 -81t3.5 -56l298 135q13 6 19.5 0t5 -17t-10 -24t-23.5 -21q-48 -26 -88.5 -41.5t-77 -30.5t-72 -35t-74.5 -54q-1 -6 -5 -25.5t-9 -44.5t-11.5 -53.5t-12 -53.5t-10 -44.5t-6.5 -25.5
q0 -1 -6.5 -18t-17 -33t-23.5 -23t-28 11l55 247v0z" />
    <glyph glyph-name="G" unicode="G" 
d="M383 -143q4 32 14.5 65.5t21.5 67t20.5 66.5t13.5 64q-44 -31 -83 -55t-78.5 -39.5t-80.5 -23.5t-88 -6q-62 13 -86 60t-19.5 113.5t33.5 146.5t75.5 160.5t105.5 154t123 128t128.5 82t121.5 16.5q2 0 4.5 -4.5t4 -12t1 -16t-6.5 -15.5q-69 -3 -134.5 -37t-124 -88.5
t-108 -123t-85.5 -139.5t-57 -139t-21.5 -120.5t20.5 -85t68 -32.5t122.5 38.5t183.5 126.5q9 7 22.5 31.5t28 54t27 56.5t18.5 38q-35 -5 -73.5 -18t-77.5 -25t-78 -19.5t-74 -0.5q-14 7 -11 21.5t20 22.5q94 8 189 38.5t186 87.5q9 -7 18 -16.5t1 -25.5
q-37 -74 -67 -145.5t-56.5 -143t-51 -144t-49.5 -147.5q-3 -11 -10 -20t-16 -13t-18 -0.5t-17 16.5z" />
    <glyph glyph-name="H" unicode="H" horiz-adv-x="508" 
d="M48 35q2 39 12.5 81.5t23 86t23.5 86t15 81.5l-78 -24q-13 1 -19.5 10t-8 19.5t3 19t14.5 7.5l106 23q17 16 28.5 51.5t21.5 79.5t19.5 92.5t22.5 90.5t31 72.5t45 40.5q4 -1 8.5 -6.5t2.5 -8.5q-5 -31 -17.5 -83.5t-28.5 -110.5t-31.5 -113t-25.5 -92l185 25
q3 10 10.5 35.5t17 59.5t20.5 72t20.5 72t17 60.5t10.5 36.5q8 20 23 37.5t28 24.5t19 -0.5t-4 -37.5q-14 -47 -25.5 -89t-21.5 -83t-18.5 -82t-17.5 -84q7 -2 29 3t42.5 6.5t29.5 -5t-10 -30.5q-2 -3 -8 -7.5t-9 -5.5l-97 -34l-77 -392q-2 -7 -10 -9.5t-17 -2.5t-17 1t-9 2
q3 17 7 48t9 68.5t11 79t11.5 78.5t10.5 67t9 45l-187 -31l-87 -321q-2 -6 -12 -13t-21.5 -11t-20.5 -2t-9 16z" />
    <glyph glyph-name="I" unicode="I" 
d="M12 12q-1 4 3 10.5t9 12.5t10 10.5t7 6.5l199 7l162 707q-19 9 -44 6.5t-51.5 -7t-53.5 -7.5t-50 4q1 11 8.5 26t22.5 18l356 58q51 7 76.5 0.5t32.5 -18t-3 -23.5t-31 -14q-15 -2 -32 0t-38 2t-47.5 -5.5t-61.5 -21.5q-15 -35 -32.5 -93.5t-35.5 -127.5t-36 -143.5
t-34.5 -143t-30.5 -124.5t-23 -88q5 -3 25 -1.5t48 5t61 8t65.5 7.5t62 3t49.5 -4q0 -12 -7.5 -25.5t-21.5 -16.5q-15 -2 -56.5 -7.5t-97.5 -11.5t-119 -12t-120.5 -8t-103.5 0t-67 11z" />
    <glyph glyph-name="J" unicode="J" horiz-adv-x="459" 
d="M307 90q-25 -57 -51.5 -82.5t-52.5 -27.5t-51 15.5t-46.5 47t-37.5 66.5t-25 74q-6 23 -5 40t7.5 25t19.5 5.5t31 -18.5q2 -32 8.5 -66t17.5 -61t26.5 -44.5t34.5 -17.5t41.5 21t47.5 71q10 25 25.5 71t32.5 102.5t34 118.5t28.5 118.5t15.5 102.5t-3 71q-22 -4 -47 -10
t-49 -11t-45 -8t-33.5 0t-14.5 12.5t11 29.5q26 8 76 20t108 22.5t116 18.5t100 9t60 -6.5t-5 -27.5q-2 -8 -24.5 -12.5t-54 -9t-65 -10.5t-57.5 -17q-10 -83 -28.5 -169.5t-42 -169t-50 -157.5t-53.5 -136z" />
    <glyph glyph-name="K" unicode="K" horiz-adv-x="561" 
d="M41 1q1 34 12 99t26.5 145t33 165.5t31 159.5t20.5 128.5t2 71.5q1 3 5 7t9 8t10 7t7 3q21 2 27 -21.5t3 -61.5t-12 -85.5t-19 -94t-18.5 -87t-8.5 -64.5q62 61 110.5 109t91 96t82.5 102t84 128q6 13 21 13.5t26 -4.5q-29 -77 -75 -144t-100 -129.5t-110.5 -123.5
t-106.5 -125l329 -235q18 -13 27 -30.5t8.5 -30.5t-11.5 -17t-33 10l-375 261q-3 -20 -6 -58t-9 -78.5t-15 -77t-23 -52.5q-4 -5 -10.5 -8.5t-13 -3.5t-12 4t-7.5 14z" />
    <glyph glyph-name="L" unicode="L" horiz-adv-x="477" 
d="M165 838q17 6 31 8q11 2 21 -1t10 -16l-142 -761q29 -6 64 -2.5t72 12.5t73 20t66.5 20.5t53 14.5t31.5 1q21 -20 5 -36.5t-53 -30t-89 -24.5t-104 -19t-97.5 -14t-69.5 -10z" />
    <glyph glyph-name="M" unicode="M" horiz-adv-x="762" 
d="M708 682l-260 -300q-14 -12 -27.5 -22t-28.5 -9.5t-32.5 15t-37.5 50.5t-44 97t-52 155q-20 -41 -37 -93.5t-32 -110.5t-27.5 -119t-23.5 -118.5t-21 -110t-18 -93.5q-6 -12 -17 -15.5t-21 -0.5t-16 11.5t-3 21.5q18 80 39 172.5t43.5 187.5t45 187t43.5 171q2 6 9 23
t16.5 29.5t20.5 13.5t20 -23q33 -106 55 -177.5t38.5 -114.5t29.5 -60t28 -13.5t34.5 24.5t49.5 54q28 27 59 64.5t61.5 77t59 77t51.5 62.5t39.5 34t23.5 -7l-110 -773q-2 -14 -12.5 -21.5t-21.5 -9t-19.5 3t-6.5 15.5z" />
    <glyph glyph-name="N" unicode="N" horiz-adv-x="650" 
d="M214 731l-122 -688q-10 -21 -22 -31t-22.5 -10.5t-17.5 8.5t-7 26q34 124 57 243t41 220.5t32.5 180.5t31 124.5t37.5 51.5t51 -38q50 -174 84.5 -294t57.5 -198.5t36.5 -122t21.5 -63.5t12 -23t8 -2q18 40 30.5 96.5t22.5 120.5t17.5 131.5t15.5 130.5t17 117t21.5 90.5
t29 51t39.5 -1.5q-11 -51 -17.5 -85.5t-11.5 -62t-9 -52.5t-9 -56.5t-12 -73.5t-17 -103.5t-24.5 -147.5t-35.5 -205q-12 -35 -29 -45.5t-32.5 -8.5t-27 10.5t-11.5 11.5z" />
    <glyph glyph-name="O" unicode="O" horiz-adv-x="503" 
d="M81 10q-36 22 -51.5 76.5t-14 126.5t18.5 155t45.5 162t67 147.5t82.5 111t92 53t97 -26.5q43 -39 62 -100.5t18.5 -134t-19 -151t-49 -150.5t-71.5 -133.5t-87 -101t-95 -50.5t-96 16zM97 72q35 -29 74.5 -23t77.5 37t73 82t62.5 114t45.5 131.5t21.5 134.5t-9 124
t-46.5 99q-28 26 -60.5 16.5t-66.5 -44t-66.5 -89.5t-59.5 -119t-46.5 -133t-27.5 -132t-2 -115t30 -83z" />
    <glyph glyph-name="P" unicode="P" horiz-adv-x="428" 
d="M15 8q8 25 22.5 80.5t30.5 126.5t32.5 151t29 154t19.5 134.5t4 93.5q-10 -4 -19 -2t-15.5 7.5t-11.5 13.5t-8 15q20 24 52 41t68 27.5t72 14t65 1.5q81 -10 127 -38t63.5 -67t10 -85.5t-33.5 -93.5t-67 -90.5t-89.5 -76.5t-101.5 -52t-103 -17l-85 -331q-3 -6 -12.5 -13
t-20.5 -10.5t-19.5 -0.5t-9.5 17zM232 771q-7 -88 -20.5 -175.5t-33.5 -176.5q26 -10 50 -6.5t47 15t45 27.5t45 31q70 56 101 102.5t34.5 83.5t-15 64.5t-48.5 45t-65.5 26t-67 7t-52 -12.5t-20.5 -31z" />
    <glyph glyph-name="Q" unicode="Q" horiz-adv-x="686" 
d="M613 -20q-8 8 -27.5 29t-41 45t-41 45.5t-27.5 30.5q-119 -82 -205 -105.5t-141.5 -4.5t-82.5 74t-28 129t21 160.5t65 170t105 155.5t140 117q83 38 149 26t110 -58t64 -118t12.5 -155t-45 -168.5t-109.5 -158.5q32 -44 67.5 -90.5t80.5 -82.5q1 -17 -3.5 -31t-13 -21
t-21.5 -5t-28 16zM401 780q-54 -18 -100.5 -57.5t-85 -92.5t-67 -115t-45.5 -124t-21.5 -120t6 -103.5t37 -74t70.5 -30.5t106.5 25.5t146.5 94.5q-17 18 -35.5 42.5t-35 52t-30 55.5t-20.5 52q0 13 7.5 20.5t18 10t21.5 1.5t17 -5q8 -12 18 -37.5t22.5 -52t28 -48
t35.5 -25.5q58 56 91 122.5t43 132.5t-1.5 125t-41 99t-77 56t-108.5 -4z" />
    <glyph glyph-name="R" unicode="R" horiz-adv-x="490" 
d="M415 23q-6 3 -19 24t-31.5 52t-41 68t-48 72.5t-53 65t-55.5 45.5l-97 -313q-2 -8 -11 -14t-19.5 -9.5t-20.5 -3.5t-15 4q36 96 62.5 188t50.5 184.5t49.5 188t60.5 200.5q104 54 173.5 55t104 -32t34.5 -90.5t-34.5 -119.5t-103.5 -119t-172 -90l243 -317q9 -14 5.5 -24
t-13.5 -15.5t-23.5 -6t-25.5 6.5zM264 723q-2 -9 -8 -31.5t-14 -52t-17 -62.5t-17 -62.5t-14 -52.5t-8 -32q62 10 113.5 36.5t89.5 61.5t62.5 73.5t33 73.5t0.5 61.5t-34.5 36.5t-73 -0.5t-113.5 -49.5z" />
    <glyph glyph-name="S" unicode="S" horiz-adv-x="419" 
d="M35 16q-2 4 -6 11.5t-6 15t0 13t12 7.5q16 2 47.5 14t68.5 32.5t75 48t67 60t44.5 69t8.5 74.5q-12 15 -37 16t-56 -4t-65.5 -12t-65.5 -6.5t-56.5 12t-38.5 43.5q-9 49 5.5 98.5t43.5 95t68 85.5t80 69.5t79.5 47t66.5 19t41 -15t3 -55.5q-1 10 -17.5 11.5t-43 -5
t-59.5 -20.5t-66 -36t-63.5 -50.5t-51.5 -64t-30 -77t0 -89.5q17 -16 37 -19t42 1t45.5 12t46.5 15t45.5 10t42.5 -4q42 -25 53 -63t-2.5 -81t-47.5 -88t-82 -83.5t-107 -67t-121 -39.5z" />
    <glyph glyph-name="T" unicode="T" horiz-adv-x="396" 
d="M294 734l-281 -39q-18 4 -21 14.5t4.5 21.5t22.5 19.5t32 9.5l605 76q-5 -4 -10 -13t-9 -18.5t-7.5 -16.5t-5.5 -8l-268 -32l-174 -730q-22 -18 -40.5 -14t-21.5 18z" />
    <glyph glyph-name="U" unicode="U" horiz-adv-x="521" 
d="M467 22q-36 -27 -55 -14t-25.5 53.5t-3 100.5t12.5 128q-21 -36 -52 -82.5t-71 -89t-88.5 -74t-104.5 -37.5q-36 16 -54 57.5t-22 99t3.5 126.5t22 140t34.5 139t40 124t38 94.5t30 50.5q8 11 20 15t21.5 1.5t14.5 -10t-1 -20.5q-16 -23 -35.5 -73.5t-39.5 -116
t-37.5 -139t-29 -143t-14.5 -128.5t7 -95t34 -42t68 31q71 45 123.5 121.5t93 171.5t72.5 201.5t61 210.5q3 4 14.5 10t23.5 10t20 2.5t5 -12.5q-58 -189 -90.5 -321.5t-46.5 -221.5t-14.5 -141t5 -79t12.5 -36t8 -12z" />
    <glyph glyph-name="V" unicode="V" horiz-adv-x="361" 
d="M115 16q-22 140 -36.5 257.5t-25 216t-19 180.5t-17.5 152q0 16 7 23.5t16 7t16.5 -8.5t8.5 -22q13 -85 26 -178.5t25 -185.5t22 -177.5t18 -155.5l257 677q3 9 9.5 18.5t14 11.5t16.5 -7.5t17 -39.5l-296 -772q-5 -11 -14 -13.5t-18 -1t-16.5 6.5t-10.5 11z" />
    <glyph glyph-name="W" unicode="W" horiz-adv-x="748" 
d="M47 803q-17 24 -10.5 47.5t21.5 34.5t31 5t19 -42l79 -700l165 540q6 20 17 21t22.5 -7.5t21 -21.5t11.5 -20l108 -557q29 68 66.5 159.5t80 193.5t88.5 209t92 206q19 25 31.5 23t15.5 -20t-5.5 -47t-31.5 -59l-279 -709q-16 -37 -30 -51.5t-26 -13t-22.5 17t-19.5 39
t-17.5 51t-15.5 54.5q-4 13 -10 47.5t-13.5 78.5t-15.5 93.5t-15 94t-13 79t-9 48.5l-175 -543q-2 -7 -12.5 -11t-22.5 -2.5t-22.5 10t-12.5 25.5z" />
    <glyph glyph-name="X" unicode="X" horiz-adv-x="628" 
d="M32 -10q0 1 -6.5 3.5t-14 5t-14 4.5t-5.5 4l324 425q-6 12 -18 40t-27 64.5t-32 77t-32.5 77t-27.5 64.5t-18 40q-3 10 6 18.5t21 13t24 4.5t15 -7l148 -375l327 388q17 -4 25 -12.5t9 -18.5t-4 -18t-14 -10l-317 -369l175 -357l-55 -44l-172 348z" />
    <glyph glyph-name="Y" unicode="Y" horiz-adv-x="388" 
d="M217 439l-222 365q-10 14 -5 24.5t16 15.5t25 3t23 -14l191 -316l192 338q10 15 27.5 23t30.5 6t16 -16t-15 -43l-224 -383l-91 -451q-22 -5 -35 -3.5t-24 18.5z" />
    <glyph glyph-name="Z" unicode="Z" horiz-adv-x="597" 
d="M37 18q-29 12 -23 36t32 52q8 8 25 26t38.5 41.5t45.5 50t46 51.5t39.5 45t26.5 32q-18 -6 -38.5 -4.5t-35.5 8t-21 18.5t6 27q10 8 36 12.5t56 7.5t58 6t41 8q15 7 40 29.5t53.5 52.5t57.5 64.5t53 66.5t39.5 59t17.5 42q3 23 -23.5 28t-69 -0.5t-94 -18t-100.5 -25
t-89 -20.5t-57 -5q-19 4 -18 13t12 19t26 18t24 10q7 2 30 7t53.5 12t64.5 15t64.5 14.5t53.5 11.5t30 7q76 11 110 -2t38.5 -43t-15 -71.5t-51 -86t-69.5 -88t-69 -76.5q20 7 37 13t39 9q22 4 41 5.5t30 -4t12 -19t-12 -38.5l-230 -56q-15 -4 -41.5 -25t-58 -51t-64.5 -65
t-61.5 -67t-49 -57t-26.5 -35q16 -15 49 -17.5t76 3t91.5 16t94.5 21.5t85.5 19.5t64.5 9.5t31 -8t-14 -33q-158 -36 -257 -53.5t-156.5 -23.5t-84 -3t-40.5 9z" />
    <glyph glyph-name="bracketleft" unicode="[" horiz-adv-x="227" 
d="M42 -122q1 57 1 140t-0.5 179.5t-2 198.5t-3 197t-3.5 175t-4 132l162 27q14 -31 15 -41.5t-10.5 -14t-35 -5.5t-59.5 -15q-1 -49 -3.5 -121t-4.5 -156.5t-4 -175t-2 -175.5t2 -159t7 -125q31 -3 61 5.5t50.5 13t29 -4t-1.5 -47.5z" />
    <glyph glyph-name="backslash" unicode="\" horiz-adv-x="481" 
d="M412 15q-23 31 -52.5 87.5t-63 126.5t-70 149t-75 156.5t-77.5 148t-77 123.5q-8 22 0 31.5t21.5 10t29 -7.5t23.5 -20l385 -746q10 -15 10 -33.5t-7 -31t-19.5 -13.5t-27.5 19z" />
    <glyph glyph-name="bracketright" unicode="]" horiz-adv-x="249" 
d="M-49 -85q-7 26 -5.5 37.5t10 14.5t23 -0.5t32 -8.5t38 -8.5t41.5 -1.5q1 50 2 124.5t1.5 161t0.5 178.5t-1 176.5t-3 155.5t-5 116q-36 13 -59.5 15t-35 5.5t-10.5 14t15 41.5l162 -27q-2 -52 -4 -132t-3.5 -175t-3 -197t-2 -198.5t-0.5 -179.5t1 -140z" />
    <glyph glyph-name="asciicircum" unicode="^" horiz-adv-x="347" 
d="M166 548q19 8 30 -5t19.5 -36.5t17 -52.5t23.5 -54q5 -15 15 -30.5t13.5 -28t-4.5 -21t-39 -8.5q-6 -3 -15 10.5t-19.5 34.5t-22 45.5t-23.5 43.5q-14 -29 -27.5 -50t-30.5 -49q-4 -7 -9.5 -16.5t-13 -13.5t-17 2.5t-22.5 32.5z" />
    <glyph glyph-name="underscore" unicode="_" horiz-adv-x="521" 
d="M37 15q-17 7 -15.5 20t15.5 24q57 4 95.5 6.5t68 4.5t54.5 2.5t54.5 0.5t68 -1t95.5 -3q14 -7 25 -19.5t1 -31.5z" />
    <glyph glyph-name="a" unicode="a" horiz-adv-x="428" 
d="M241 23q-8 8 -10.5 19.5t-1.5 23.5t3 24t4 21q-66 -69 -112 -86.5t-73 0t-36 62.5t-1.5 101.5t31 115.5t61.5 105t90 70.5t116 11.5q32 -20 40 -57.5t2 -82t-20 -92.5t-26.5 -88.5t-18 -70t6 -38t45.5 8.5t101 70l30 -15q-8 -8 -23 -24.5t-34.5 -34t-42 -33.5t-46 -24.5
t-45.5 -6.5t-40 20zM264 453q-34 -2 -70 -35.5t-66.5 -81.5t-51.5 -101.5t-25.5 -95t12 -62t61.5 -3.5q7 2 22.5 18.5t35 43t41 59t39.5 66.5t31 67.5t15.5 60t-7.5 44t-37 20.5z" />
    <glyph glyph-name="b" unicode="b" horiz-adv-x="396" 
d="M22 27q19 81 43 181.5t49 207.5t49 214t44 201q1 4 10.5 13.5t20 14.5t19 0.5t8.5 -27.5l-100 -413q42 25 82 27t83 -5q31 -8 44.5 -39t9.5 -74t-24 -91.5t-55.5 -92.5t-86.5 -77.5t-116 -44.5q-10 -1 -21.5 -2.5t-23 -2t-20.5 1.5t-15 8zM290 389q-66 -7 -98.5 -29
t-49.5 -60t-27.5 -93.5t-32.5 -128.5q57 7 101 32.5t75 60t48 72.5t21 70t-5 53.5t-32 22.5z" />
    <glyph glyph-name="c" unicode="c" horiz-adv-x="419" 
d="M66 15q-34 40 -38.5 96.5t10.5 116.5t45.5 117t68 97.5t77 58t72.5 -0.5q15 -3 22.5 -24t10 -45.5t1.5 -47.5t-4 -30l-30 -29q-16 4 -22.5 13t-7 20t1.5 23t2.5 24t-3 21.5t-15.5 15.5q-16 8 -37.5 -6t-43 -42.5t-41.5 -67t-34 -78t-19 -76.5t3 -63t31.5 -36.5t67.5 2.5
q22 7 48 25.5t50.5 41t45 44.5t32.5 36q13 2 20.5 -4.5t10.5 -16.5t2.5 -21t-3.5 -17q-24 -27 -61 -64t-81 -65.5t-91 -37.5t-91 20z" />
    <glyph glyph-name="d" unicode="d" horiz-adv-x="383" 
d="M228 32q-75 -32 -120.5 -28t-67.5 31t-22 72t16 96t46.5 102t69 90t84 60t91.5 13l66 373q17 6 26.5 0.5t13.5 -17t3.5 -26t-2.5 -27.5q-19 -93 -32 -159.5t-22.5 -114.5t-16 -83t-12.5 -65.5t-11.5 -61t-13 -70t-18 -92.5t-25.5 -129q2 -16 -8.5 -27.5t-24 -15.5
t-24 2.5t-8.5 26.5zM94 62q25 -6 43 -6t33 6.5t29 19t31 30.5q2 6 7.5 25.5t13.5 45.5t16.5 55.5t15.5 57t11.5 49.5t4.5 33q2 25 -10.5 29.5t-34 -6.5t-47.5 -35t-51.5 -54.5t-47 -66t-32 -69.5t-8 -64t25.5 -50z" />
    <glyph glyph-name="e" unicode="e" horiz-adv-x="347" 
d="M43 31q-13 19 -18 50t-2.5 68.5t12 79t26 82.5t39.5 79t52 67q30 29 58.5 39.5t52 7t41 -18.5t25.5 -37.5t5 -51.5t-20 -59q-26 -47 -51 -70t-51.5 -36t-56.5 -23t-66 -30q-7 -14 -9 -36.5t3.5 -43t20 -33t41.5 -6.5t67.5 36t98.5 95q11 -6 9 -21.5t-13.5 -35.5t-31 -42
t-43.5 -41.5t-50.5 -34t-52 -19t-48 3t-38.5 31.5zM207 427q-57 -48 -84.5 -94t-25.5 -88q35 1 67 20t57 46t40 55.5t15.5 48.5t-16 25.5t-53.5 -13.5z" />
    <glyph glyph-name="f" unicode="f" horiz-adv-x="396" 
d="M83 4q-3 2 1 29t12 66.5t18 86t19 89t15.5 75.5t7.5 44l-142 -58q-15 -5 -20.5 2t-4.5 18t7.5 22.5t17.5 16.5q8 3 31.5 14t50 23t50 22.5t32.5 13.5q12 69 40 135t63.5 120t75 90.5t75 46t63.5 -13t41 -86.5q0 -2 -5 -3.5t-11 -3t-11.5 -2.5t-7.5 -1q-29 42 -59 43.5
t-58.5 -21.5t-53.5 -64.5t-44.5 -85.5t-31.5 -84t-14 -60q19 7 42 16t48 15.5t52 8t55 -5.5q9 -23 -8.5 -34.5t-50 -20.5t-74.5 -19.5t-81 -31.5l-72 -360q-8 -35 -27 -47.5t-41 5.5z" />
    <glyph glyph-name="g" unicode="g" horiz-adv-x="379" 
d="M-75 -416q-14 10 -27 32.5t-18 47t1 47.5t29 34q16 -5 21.5 -15.5t7.5 -23.5t2.5 -27t5.5 -25t16.5 -18.5t35.5 -7.5q46 0 83.5 30t67.5 78t52 107t35 117.5t17.5 109.5t-0.5 83q-18 -19 -43.5 -39t-51 -33.5t-49 -18t-38.5 6.5q-38 31 -46.5 74t4.5 90t42.5 93
t65.5 82.5t75.5 59t72 22t54 -28.5t23.5 -92q-31 -246 -74.5 -413.5t-99 -262.5t-122 -120.5t-142.5 11.5zM87 143q10 -20 33 -14t50.5 29.5t54.5 59t46.5 73.5t26 74t-7.5 60q-22 9 -46.5 -4t-49 -39t-46 -61t-37 -69t-22.5 -63.5t-2 -45.5z" />
    <glyph glyph-name="h" unicode="h" horiz-adv-x="432" 
d="M71 22q-3 -12 -12.5 -18.5t-18 -5t-13.5 11.5t0 30l142 754q6 28 16.5 38t20.5 8.5t17 -11t5 -20.5l-72 -417q46 53 78.5 72.5t54.5 14t34.5 -31.5t19.5 -63.5t10 -81.5t4.5 -86t4 -77t8.5 -54q14 -12 28 -6t29 16.5t31.5 19t34.5 3.5q-11 -29 -29.5 -43.5t-44.5 -30.5
q-45 -27 -69 -15.5t-35 46.5t-12 84.5t-1 98.5t-2.5 88.5t-14.5 54.5q-23 9 -45 -6.5t-41.5 -46.5t-36.5 -72.5t-31.5 -83.5t-25.5 -81t-19 -65t-11.5 -34.5t-3.5 10.5z" />
    <glyph glyph-name="i" unicode="i" horiz-adv-x="191" 
d="M25 25q2 45 12 103.5t25 119t32.5 118t33.5 100.5q5 8 14 14t18 1q8 -4 8.5 -31t-5.5 -67.5t-16 -89t-23 -96t-27.5 -89t-28 -68t-25 -32.5t-18.5 17zM152 696q-7 18 0 25.5t20 7.5t28 -5.5t23.5 -13t7 -15.5t-21.5 -13q-17 -5 -34 -4t-23 18z" />
    <glyph glyph-name="j" unicode="j" horiz-adv-x="292" 
d="M-235 -25q-8 -62 7.5 -114t45 -86.5t69 -48t79 0t74.5 58.5t56 128q16 85 27 163.5t20 155t18 153.5t23 160q18 6 32.5 -2t11.5 -27l-73 -574q-17 -93 -57 -153.5t-89.5 -89.5t-102.5 -26t-96.5 37.5t-71.5 100.5t-27 164q0 23 5.5 31t13.5 7t16.5 -8t14.5 -14.5
t7.5 -12.5t-3.5 -3zM199 677q-7 7 -1.5 15t15 14.5t19.5 10.5t11 4q14 -11 14.5 -24.5t-7.5 -23t-22 -10.5t-29 14z" />
    <glyph glyph-name="k" unicode="k" horiz-adv-x="401" 
d="M437 62q-12 -6 -25.5 -17t-31 -17.5t-39.5 -4.5t-50.5 22t-66 61.5t-84.5 114.5q-33 -101 -58.5 -155t-38 -57t-8.5 48.5t31 163.5q-12 14 -13.5 28t4.5 27t17 25t22 23l115 491q-6 20 3.5 31.5t23 14t25 -5t7.5 -25.5l-101 -492q28 30 46 45.5t33 28.5t31.5 29t40.5 47
q5 6 11 13t13.5 12.5t16 7t18.5 -3.5q8 -32 -15 -59l-166 -179q16 -49 46 -95t64 -73t65.5 -27.5t51.5 41.5q17 1 24 -4.5t7 -14.5t-6 -21t-13 -23z" />
    <glyph glyph-name="l" unicode="l" horiz-adv-x="196" 
d="M201 831q0 12 7.5 14t16.5 -3t15.5 -16t4.5 -24l-156 -780q-3 -19 -10 -25t-15.5 -4t-17.5 10t-16 19z" />
    <glyph glyph-name="m" unicode="m" horiz-adv-x="615" 
d="M-15 21q-1 5 1.5 12t8 22.5t14 42t21 70t28.5 107t36 153.5l44 -2l-13 -73q40 54 66 67t41 -1t21.5 -47.5t7.5 -72t-0.5 -74.5t-2.5 -56q13 21 38 59t55.5 79t63 78.5t62 59.5t52 21t32.5 -38q-7 -49 -19 -96t-23 -93.5t-17.5 -93t-0.5 -94.5q17 -21 39.5 -21.5t46 8.5
t45 20.5t36.5 14.5l7 -39q-19 -17 -50 -33.5t-64 -23.5t-63.5 -1t-48.5 34q-14 14 -16.5 42t2.5 62.5t15.5 73t21 75t19 66.5t10.5 49q-30 -19 -62 -53.5t-62 -74.5t-57 -79.5t-48 -68.5q-6 -15 -21 -21.5t-29.5 -4t-23.5 14t-2 34.5q11 34 16 71.5t5 70t-5.5 56t-15 31
t-23 -5.5t-30.5 -54l-103 -276q-4 -6 -13 -10t-18 -4t-16 4t-8 13z" />
    <glyph glyph-name="n" unicode="n" horiz-adv-x="390" 
d="M12 30q10 40 26.5 101t34 127.5t35 130t29.5 109.5q3 4 10.5 8.5t15.5 6t13.5 -1.5t4.5 -14l-53 -232q12 8 31 36t43.5 61t54.5 65t63 49q16 8 26.5 -6t16.5 -42.5t8 -68t2 -82.5t-1.5 -86t-3.5 -78t-4 -58.5t-3 -28.5q-2 -13 -12 -18t-21 -4t-19.5 7t-6.5 15l19 339
q-6 26 -23.5 19t-40.5 -34.5t-50 -70t-52.5 -89t-47.5 -91t-36 -75.5q-3 -4 -11.5 -9t-18 -6.5t-18 2.5t-11.5 19z" />
    <glyph glyph-name="o" unicode="o" horiz-adv-x="331" 
d="M73 15q-34 23 -43.5 74t0 112.5t34.5 124t58.5 108t72 64.5t76.5 -6q21 -14 30.5 -46.5t9.5 -75t-9.5 -91t-26 -94.5t-38.5 -86t-48.5 -65.5t-56 -32t-59.5 13.5zM88 88q7 -30 29.5 -20.5t49 42.5t51 81.5t37.5 97t8.5 88.5t-36.5 57q-45 -16 -74 -56t-44.5 -90
t-20 -103.5t-0.5 -96.5z" />
    <glyph glyph-name="p" unicode="p" horiz-adv-x="383" 
d="M-22 -357q-4 -12 -14.5 -15t-21 1t-17.5 13t-3 21q32 77 59.5 180t51.5 215.5t44.5 225.5t38.5 211q71 1 122 -18.5t82 -52.5t43.5 -76t8 -88t-26 -89t-58.5 -79t-88.5 -57.5t-115.5 -24.5zM98 64q70 13 115.5 45t69.5 73t27 85t-12 81.5t-47.5 63t-78.5 29.5z" />
    <glyph glyph-name="q" unicode="q" horiz-adv-x="573" 
d="M368 -387q-75 -93 -115.5 -125t-55.5 -20t-10 60.5t22 117.5t41 149.5t45.5 157.5t36 142t12.5 102q-25 -17 -46.5 -36.5t-43.5 -40.5t-44.5 -41t-48.5 -36q-26 -17 -61 -26t-63 2q-23 10 -24.5 38.5t13.5 67t44 84.5t65.5 91t78.5 86t83 70.5t79 43t67 4.5
q2 -3 -1 -14.5t-6 -14.5q-50 -27 -109.5 -66t-112 -87.5t-89.5 -106.5t-41 -123q-1 -24 19.5 -21t53 26t71.5 61.5t74 84.5t61 95.5t33 93.5q7 9 17.5 12.5t20 1t15.5 -10t3 -21.5q-31 -80 -44 -131.5t-12.5 -81t12 -40t30.5 -9t43 12.5t49 24t49 25t43 17l2 -48l-124 -70
q15 -122 -14 -250.5t-118 -249.5zM243 -449q35 23 66.5 62t57.5 85.5t46 97.5t31.5 98t14 86t-6 62t-28.5 26.5t-54 -21.5z" />
    <glyph glyph-name="r" unicode="r" horiz-adv-x="392" 
d="M88 444q1 12 12 24.5t23.5 21t22.5 9.5t10 -9l-31 -147q25 37 56.5 75t67.5 60.5t76 20t81 -46.5q10 -11 13 -22t-0.5 -19.5t-13 -12.5t-22.5 -1q-30 42 -62.5 39.5t-63.5 -33t-60 -82t-52 -108.5t-40 -111.5t-24 -91.5l-54 18z" />
    <glyph glyph-name="s" unicode="s" horiz-adv-x="412" 
d="M54 -7q-13 16 3 31.5t48 33t72 38t74.5 45.5t56.5 55t17 67q-26 2 -58 -11t-68 -28t-75.5 -24.5t-79.5 -0.5q-20 8 -20.5 30.5t12 53t35.5 65.5t52 68t60 60t59.5 41.5t52 13t35.5 -25.5q1 -3 -18.5 -12.5t-48.5 -25t-62.5 -37t-60.5 -48t-42.5 -57.5t-8.5 -67
q31 -8 62 0t62 21t62.5 25t63.5 12q46 -3 56 -28.5t-6 -61.5t-52.5 -77.5t-84 -76.5t-99.5 -57.5t-99 -21.5z" />
    <glyph glyph-name="t" unicode="t" horiz-adv-x="298" 
d="M59 7q12 60 23.5 130.5t22.5 140.5t21.5 133.5t20.5 110.5q-43 -7 -88.5 -3.5t-88.5 20.5l7 43q3 0 16.5 -1.5t32.5 -3.5t41 -3.5t40 -1.5t30.5 2t13.5 7l40 224q2 12 10 14.5t16.5 0.5t16 -7t8.5 -9l-33 -234l152 11v-55q-27 -2 -53.5 -3.5t-48.5 -3t-36 -4t-16 -6.5
l-87 -490q-2 -6 -11.5 -13.5t-20.5 -12t-20 -2.5t-9 16z" />
    <glyph glyph-name="u" unicode="u" horiz-adv-x="423" 
d="M325 49q3 0 -1 -8t-12 -17.5t-17.5 -18t-17.5 -9.5t-12.5 9t-2.5 36l50 186q-17 -33 -38.5 -67t-47.5 -64.5t-58 -55t-71 -39.5q-32 -5 -47 19t-18 64.5t4 92.5t20 104.5t30 99t34.5 76.5t33 38t24.5 -18q-4 -23 -15.5 -60t-25 -80.5t-27 -88t-22 -82.5t-9.5 -65.5
t10 -34.5q24 -10 52 11.5t56 62t54.5 92.5t49 102.5t39.5 93l25 62.5q1 -1 8.5 -2.5t16.5 -2.5t16 -2t7 -2l-88 -432v0z" />
    <glyph glyph-name="v" unicode="v" horiz-adv-x="347" 
d="M84 40q-8 26 -15.5 62t-14.5 77t-13.5 83.5t-12.5 82.5t-11.5 74t-10.5 57q5 6 13.5 13.5t17.5 11.5t16.5 1.5t12.5 -16.5l54 -375q12 16 27.5 43t32.5 61t34 71.5t32.5 73t29 66t23.5 50.5q3 7 11 13.5t18 9t19 -1t14 -16.5q0 -1 -11.5 -26.5t-29.5 -65t-40 -88.5
t-44 -96.5t-40.5 -89t-29.5 -66.5q-9 -14 -19 -24t-20 -13t-21 3.5t-22 24.5z" />
    <glyph glyph-name="w" unicode="w" horiz-adv-x="544" 
d="M27 21q-2 13 -0.5 41t5 63t8.5 74.5t9.5 75.5t8 65.5t4.5 45.5q2 35 8 54t13 27t15 7.5t14 -4.5t9.5 -9t3.5 -7q-2 -27 -10 -74.5t-17 -98t-15 -96t-3 -70.5q16 10 31 32t30.5 48.5t31.5 54.5t33.5 50t37 35.5t41.5 11.5q27 -36 42 -62t24 -52t15.5 -57.5t16.5 -77.5
q4 8 15 37.5t26 70.5t33.5 89.5t38 95t38.5 86t35.5 62.5t29.5 25.5t20 -25.5q-14 -8 -28.5 -41.5t-38 -98t-58.5 -163.5t-90 -239q-13 -24 -24.5 -23t-20 13.5t-14 28.5t-6.5 21q-5 24 -10.5 58t-13 69t-17 67t-22.5 53q-28 -22 -51 -53t-43.5 -64t-39 -64.5t-37 -53.5
t-37.5 -31t-41 3z" />
    <glyph glyph-name="x" unicode="x" horiz-adv-x="434" 
d="M68 16q-8 -9 -20 -13t-22.5 -3.5t-15.5 6.5t1 17l186 261l-83 195q0 1 5.5 10.5t13 17.5t16 11t15.5 -9l85 -162l175 153l24 -29l-163 -186q55 -134 81 -193t33 -45q-3 -8 -11 -15t-16.5 -12t-16 -6.5t-9.5 0.5l-108 201z" />
    <glyph glyph-name="y" unicode="y" horiz-adv-x="397" 
d="M-217 -509q-55 17 -80 45t-28.5 59.5t9 63t33 55.5t43 36t38.5 6q1 -25 -11.5 -49t-26 -46t-22 -42t2 -36.5t46 -29.5t109.5 -22q90 -12 155.5 20t110 90.5t69.5 135t35 155.5q0 11 2.5 35.5t5.5 56.5t6 68t4.5 70t1.5 63t-3 46q-12 -2 -32.5 -27.5t-42 -58t-41 -62
t-30.5 -39.5l-12 -12t-24 -21t-29.5 -21t-29 -13.5t-22.5 2t-10 26.5q-4 0 -3.5 23t6 61t16.5 85.5t28 96t40.5 94t54.5 79.5q11 5 17.5 -1.5t8.5 -14.5q-16 -26 -31 -61.5t-27.5 -74t-22 -77t-14.5 -69t-4.5 -50t7.5 -21.5q9 6 26 28.5t38.5 54t46 68.5t49 71.5t46 62.5
t37.5 42t24.5 9.5t6.5 -34.5l-45 -532q-10 -114 -53.5 -202.5t-114 -142t-163.5 -68t-201 18.5z" />
    <glyph glyph-name="z" unicode="z" horiz-adv-x="477" 
d="M411 33q-146 -14 -231 -17t-124 1.5t-40 15t20 25.5l147 169l-112 18l12 51l146 -13q13 8 32 25t38.5 38t37 43t26.5 40q-5 -1 -27 -2t-50 -1t-56 2.5t-44.5 9.5t-15.5 19t30 32q11 1 39.5 2.5t60.5 3.5t60.5 4t39.5 2q46 1 58.5 -11t5 -32.5t-28.5 -45t-43 -48
t-38.5 -42.5t-14.5 -27q8 -4 24.5 -5t34 -2.5t33.5 -4t23 -8.5t2.5 -16.5t-28.5 -28.5l-175 -17q-14 -7 -30 -23.5t-32.5 -37t-32.5 -40t-29 -32.5q20 -6 58.5 -4t82 5.5t84.5 6.5t66 -0.5t26 -16t-35 -38.5z" />
    <glyph glyph-name="braceleft" unicode="{" horiz-adv-x="316" 
d="M110 -132q-43 31 -59.5 75.5t-15.5 93.5t15 99t31 92.5t33.5 73t23.5 41.5q-50 11 -65.5 23.5t-11.5 26.5t22 29.5t36 32.5t30 35.5t5 38.5q-50 15 -71 40t-20.5 54.5t18 61.5t42.5 63t53.5 58t51.5 47q5 4 20.5 8.5t29.5 4.5t22.5 -6t0.5 -22q-81 -56 -127 -99.5
t-49 -96.5q4 -9 12.5 -22.5t26 -22.5t47 -9.5t76.5 15.5v-44l-133 -147q10 1 26 0t29.5 -7.5t20 -20t-1.5 -37.5q-13 -15 -35.5 -49t-45 -76.5t-41 -89t-24 -88t6.5 -73t51 -44.5q54 -4 117 -2.5t118 16.5q7 -22 -6 -37.5t-38 -25.5t-58 -15t-65 -5.5t-58.5 2t-39.5 8.5z
" />
    <glyph glyph-name="braceright" unicode="}" horiz-adv-x="290" 
d="M108 -85q-14 -7 -41 -12t-58.5 -7.5t-63.5 -0.5t-55.5 9.5t-34.5 22t-1 36.5q26 -5 55.5 -6t59.5 0.5t60 5t57 7.5q35 20 47.5 55.5t9.5 78t-17 87.5t-31 85t-34 70.5t-25 42.5q-5 23 6.5 36t28.5 19.5t36 8t29 1.5l-79 134l6 44q70 1 100 9.5t36 19.5t-2 23l-14 21
q-16 25 -29.5 44.5t-29 37.5t-34.5 37t-45 43q-6 16 1 21t18 4.5t22.5 -5.5t16.5 -9q22 -19 50 -46.5t52 -58t38.5 -62.5t10 -59.5t-32.5 -49t-90 -31.5q0 -18 16 -36.5t34 -36.5t32.5 -35t13 -32t-25.5 -27.5t-83 -21.5q2 -24 14.5 -61.5t26 -82.5t24 -93t8.5 -92.5
t-20.5 -80.5t-62.5 -57z" />
    <glyph glyph-name="exclam" unicode="!" horiz-adv-x="205" 
d="M46 34q-3 20 7.5 31.5t24 14t26.5 -5t16 -25.5q6 -12 -2 -24t-21.5 -17t-28.5 0t-22 26zM110 820q10 16 22 23t21 5.5t14 -12.5t2 -30l-53 -574q-1 -11 -9 -16t-18 -5.5t-18.5 2.5t-11.5 8z" />
    <glyph glyph-name="quotedbl" unicode="&#x22;" horiz-adv-x="301" 
d="M53 563q0 17 4 50t9 67.5t9.5 63.5t5.5 37q4 22 15 32t21.5 7.5t18 -17t5.5 -40.5q-1 -11 -5 -40t-8.5 -61.5t-9 -61.5t-6.5 -40q-17 -28 -31 -29t-28 32zM164 551q0 17 4 50t9 67.5t9.5 63.5t4.5 37q4 22 15 32t22 8t18.5 -16.5t4.5 -40.5q-1 -12 -5 -41t-8.5 -61
t-8.5 -61t-6 -41q-17 -28 -31.5 -29t-27.5 32z" />
    <glyph glyph-name="numbersign" unicode="#" horiz-adv-x="708" 
d="M428 65q-28 -4 -41 0t-17 14t-0.5 26.5t9 37t11.5 45t7 51.5h-161l-43 -163q-4 -12 -15 -15.5t-22 -1.5t-18.5 10.5t-3.5 20.5q2 8 8.5 28t13.5 42.5t13 42t9 27.5q-63 -11 -96 -8.5t-44.5 13t-7 27t15.5 34.5l141 5l50 192h-21t-36 1t-40 3.5t-33 8.5t-15.5 15.5
t13.5 24.5q22 3 41 3.5t36.5 0.5t33.5 1.5t34 7.5q16 100 32.5 153t31 74.5t25.5 20t16 -10.5l-30 -235h125q7 5 11 28t7.5 53t8 61t13 54t22 31.5t34.5 -6.5q1 -19 -1 -45t-5.5 -53t-7.5 -52.5t-7 -44t-4.5 -27t0.5 -0.5h151q2 -13 -0.5 -24.5t-18 -21t-48.5 -15t-93 -6.5
q1 0 -4.5 -21t-13 -49.5t-14 -59.5t-8.5 -52q11 0 38 0.5t57.5 0.5t57.5 -0.5t38 -0.5q7 -30 -6 -44.5t-36 -19.5t-52 -4t-54 3t-42 1t-16 -10zM397 305l46 197h-140q0 -1 -4 -16t-10 -36.5t-12.5 -46.5t-12.5 -46.5t-10 -36t-4 -15.5h147z" />
    <glyph glyph-name="dollar" unicode="$" horiz-adv-x="618" 
d="M214 94q-7 -2 -27.5 -5t-44 -7t-44 -7.5t-27.5 -5.5q-30 20 -30.5 32t16 19.5t44 12.5t54.5 10t48 12t24 19l50 159q-54 5 -84.5 35.5t-40.5 73t0.5 91t40 89.5t76.5 67.5t111 26.5q10 13 14.5 31t8.5 36t8.5 35t12.5 29t22 17t37 -1l-24 -132q5 -1 21.5 -1t37 -1
t41.5 -3.5t36.5 -8.5t22.5 -17t-2 -28q-4 -8 -19 -7.5t-39 2t-54.5 1t-64.5 -10.5l-73 -269q73 -18 102.5 -43t28.5 -53.5t-25 -57t-57.5 -54t-70.5 -45t-63 -28.5q-7 -9 -10 -26.5t-5.5 -37t-6 -37.5t-11.5 -29.5t-22 -12t-37 15.5zM303 169q21 4 45 17.5t43 31t31 37
t10 36.5t-20.5 28.5t-60.5 13.5q-1 0 -4.5 -12t-9 -30t-11.5 -39t-11 -39.5t-8.5 -31zM370 657q-53 -9 -88 -31t-53.5 -50t-21.5 -58.5t6.5 -56t30 -42.5t50.5 -18z" />
    <glyph glyph-name="bar" unicode="|" horiz-adv-x="642" 
d="M269 289q-65 89 -88.5 167t-16.5 141.5t37.5 111.5t72 77.5t88 39.5t85.5 -2t64.5 -48t24.5 -98.5t-34 -152.5t-111 -211q18 -66 39 -102.5t46 -57t53.5 -31t62.5 -24.5l-38 -138q-18 11 -51.5 22.5t-69.5 35t-68 65t-46 113.5q-3 -8 -9.5 -25t-18.5 -38.5t-30 -43.5
t-42.5 -40.5t-55.5 -30t-70 -11.5l-39 115q24 -2 55 5.5t61.5 27t57 52t41.5 81.5zM341 393q37 70 50.5 123t11.5 89.5t-15.5 55.5t-29.5 20t-31.5 -16t-22 -53t0.5 -90.5t36 -128.5z" />
    <glyph glyph-name="grave" unicode="`" horiz-adv-x="160" 
d="M20 667q19 24 30 30.5t20 -0.5t18.5 -27t26.5 -49q5 -15 15 -30.5t13.5 -28t-4.5 -21t-39 -8.5q-6 -3 -15 10.5t-19.5 34.5t-22 45.5t-23.5 43.5z" />
    <glyph glyph-name="circumflex" unicode="&#x2c6;" horiz-adv-x="347" 
d="M192 784q19 8 30 -5t19.5 -36.5t17 -52.5t23.5 -54q5 -15 15 -30.5t13.5 -28t-4.5 -21t-39 -8.5q-6 -3 -15 10.5t-19.5 34.5t-22 45.5t-23.5 43.5q-14 -29 -27.5 -50t-30.5 -49q-4 -7 -9.5 -16.5t-13 -13.5t-17 2.5t-22.5 32.5z" />
    <glyph glyph-name="acute" unicode="&#xb4;" horiz-adv-x="160" 
d="M145 667q-12 -19 -23.5 -43.5t-22 -45.5t-19.5 -34.5t-15 -10.5q-31 0 -39 8.5t-4.5 21t13.5 28t15 30.5q16 29 26 49t19 27t20 0.5t30 -30.5z" />
    <glyph glyph-name="fraction" unicode="&#x2044;" horiz-adv-x="437" 
d="M27 36q25 60 53.5 131.5t58.5 146.5t60.5 149.5t60 140.5t56.5 118.5t50 85t41.5 39.5t29.5 -18q-78 -162 -133.5 -284t-93.5 -210t-60 -146.5t-34 -94t-16.5 -52t-5.5 -20.5q-2 -5 -11 -9.5t-20.5 -5.5t-22 5t-13.5 24z" />
    <glyph glyph-name="asciitilde" unicode="~" horiz-adv-x="412" 
d="M121 392q-12 -14 -25 -18.5t-22 1t-12 19.5t4 38q8 26 30 42.5t48.5 21t53 -5t43.5 -34.5q27 -29 46 -38.5t32 -7.5t20 12.5t9.5 22t1 21t-5.5 9.5q3 19 11 26.5t17.5 5.5t18 -13.5t11.5 -30.5q6 -34 -8 -61.5t-40.5 -38t-62 0.5t-72.5 53q-30 25 -47.5 29.5t-27 -3
t-14 -22.5t-9.5 -29z" />
    <glyph glyph-name="tilde" unicode="&#x2dc;" horiz-adv-x="412" 
d="M98 602q-12 -14 -25 -18.5t-22 1t-12 19.5t4 38q8 26 30 42.5t48.5 21t53 -5t43.5 -34.5q27 -29 46 -38.5t32 -7.5t20 12.5t9.5 22t1 21t-5.5 9.5q3 19 11 26.5t17.5 5.5t18 -13.5t11.5 -30.5q6 -34 -8 -61.5t-40.5 -38t-62 0.5t-72.5 53q-30 25 -47.5 29.5t-27 -3
t-14 -22.5t-9.5 -29z" />
    <glyph glyph-name="Euro" unicode="&#x20ac;" horiz-adv-x="713" 
d="M32 447q0 3 14 8t36.5 9.5t52 9t59.5 6.5q24 104 71.5 176t104.5 112.5t115 49.5t103 -13.5t69 -76.5t13 -139q-23 -24 -35 -27t-16.5 7.5t-4.5 30.5t-0.5 43t-4.5 45t-16 37q-20 32 -48.5 41.5t-60.5 0.5t-65.5 -34t-64 -63t-56.5 -85.5t-42 -101.5q27 1 63 1.5t72 0
t67.5 -3t49.5 -8t17.5 -14.5t-27.5 -23l-258 -9q-9 -33 -15 -66q29 1 68.5 2.5t78.5 1.5t74 -1.5t55.5 -7t23 -15.5t-23.5 -26l-286 -11q-7 -53 -3 -102.5t22 -86.5t50 -56.5t80.5 -12.5t113.5 44.5t150 114.5l32 -55q-106 -88 -186 -127t-138.5 -41t-96.5 25.5t-60 72.5
t-29 100t-4 108q1 3 1 6.5t1 6.5l-98 -4q-4 2 -9.5 13.5t-5.5 15.5q0 3 10 7t27.5 8t40 8t47.5 7l8 34t9 34l-130 -6q-4 2 -9.5 13.5t-5.5 15.5z" />
    <glyph glyph-name="sterling" unicode="&#xa3;" horiz-adv-x="539" 
d="M-5 379q0 6 27 10t82 10q5 72 20.5 135t40 113.5t58 85.5t75.5 51q58 21 100.5 14.5t70 -26t39.5 -44.5t8 -41.5t-23.5 -15.5t-54.5 33q-30 28 -62.5 29t-63.5 -17.5t-58 -52.5t-47 -77t-31 -90.5t-9 -93.5q25 4 57.5 7t65.5 3.5t62.5 -2t49 -8.5t25.5 -16t-8 -25
l-259 -18q-8 -60 -13.5 -112t-6.5 -89t3.5 -55.5t16.5 -10.5q54 34 108 47t100 9.5t81 -21t52 -44.5v-35q-70 30 -122.5 34.5t-91 -4t-66.5 -24t-49 -25.5t-38 -8.5t-34 27.5q-17 25 -21 61t-2 78t7 86.5t6 85.5l-80 7q-4 2 -9.5 13.5t-5.5 15.5z" />
    <glyph glyph-name="quoteright" unicode="&#x2019;" horiz-adv-x="236" 
d="M90 361q-1 0 -1 6t1 8q15 25 24.5 48t11.5 45.5t-6.5 45t-29.5 46.5q-10 28 0 43.5t27.5 15.5t36 -16t24.5 -51q3 -6 5 -25.5t1.5 -43.5t-5 -50t-15.5 -45t-29 -28t-45 1z" />
    <glyph glyph-name="quoteleft" unicode="&#x2018;" horiz-adv-x="236" 
d="M180 361q-27 -10 -45 -1t-29 28t-15.5 45t-5 50t1.5 43.5t5 25.5q6 35 24.5 51t36 16t27.5 -15.5t0 -43.5q-21 -24 -29.5 -46.5t-6.5 -45t11.5 -45.5t24.5 -48q1 -2 1 -8t-1 -6z" />
    <glyph glyph-name="quotedblleft" unicode="&#x201c;" horiz-adv-x="301" 
d="M53 563q0 17 4 50t9 67.5t9.5 63.5t5.5 37q4 22 15 32t21.5 7.5t18 -17t5.5 -40.5q-1 -11 -5 -40t-8.5 -61.5t-9 -61.5t-6.5 -40q-17 -28 -31 -29t-28 32zM164 551q0 17 4 50t9 67.5t9.5 63.5t4.5 37q4 22 15 32t22 8t18.5 -16.5t4.5 -40.5q-1 -12 -5 -41t-8.5 -61
t-8.5 -61t-6 -41q-17 -28 -31.5 -29t-27.5 32z" />
    <glyph glyph-name="quotedblright" unicode="&#x201d;" horiz-adv-x="301" 
d="M53 563q0 17 4 50t9 67.5t9.5 63.5t5.5 37q4 22 15 32t21.5 7.5t18 -17t5.5 -40.5q-1 -11 -5 -40t-8.5 -61.5t-9 -61.5t-6.5 -40q-17 -28 -31 -29t-28 32zM164 551q0 17 4 50t9 67.5t9.5 63.5t4.5 37q4 22 15 32t22 8t18.5 -16.5t4.5 -40.5q-1 -12 -5 -41t-8.5 -61
t-8.5 -61t-6 -41q-17 -28 -31.5 -29t-27.5 32z" />
    <glyph glyph-name="quotedblbase" unicode="&#x201e;" horiz-adv-x="301" 
d="M53 0q0 17 4 50t9 67.5t9.5 63.5t5.5 37q4 22 15 32t21.5 7.5t18 -17t5.5 -40.5q-1 -11 -5 -40t-8.5 -61.5t-9 -61.5t-6.5 -40q-17 -28 -31 -29t-28 32zM164 -12q0 17 4 50t9 67.5t9.5 63.5t4.5 37q4 22 15 32t22 8t18.5 -16.5t4.5 -40.5q-1 -12 -5 -41t-8.5 -61
t-8.5 -61t-6 -41q-17 -28 -31.5 -29t-27.5 32z" />
    <glyph glyph-name="quotesinglbase" unicode="&#x201a;" horiz-adv-x="236" 
d="M76 -62q-1 0 -1 6t1 8q15 25 24.5 48t11.5 45.5t-6.5 45t-29.5 46.5q-10 28 0 43.5t27.5 15.5t36 -16t24.5 -51q3 -6 5 -25.5t1.5 -43.5t-5 -50t-15.5 -45t-29 -28t-45 1z" />
    <glyph glyph-name="florin" unicode="&#x192;" horiz-adv-x="396" 
d="M-85 -98q-20 22 -18 36t13 19t25.5 0t19.5 -20q3 -9 25.5 -21t51 -16t54 7t34.5 48q2 10 5.5 43t7 78t7.5 96.5t7.5 97t5.5 79.5t3 45l-142 -58q-15 -5 -20.5 2t-4.5 18t7.5 22.5t17.5 16.5q8 3 31.5 14t50 23t50 22.5t32.5 13.5q12 69 40 135t63.5 120t75 90.5t75 46
t63.5 -13t41 -86.5q0 -2 -5 -3.5t-11 -3t-11.5 -2.5t-7.5 -1q-29 42 -59 43.5t-58.5 -21.5t-53.5 -64.5t-44.5 -85.5t-31.5 -84t-14 -60q19 7 42 16t48 15.5t52 8t55 -5.5q9 -23 -8.5 -34.5t-50 -20.5t-74.5 -19.5t-81 -31.5l-58 -473q-9 -41 -28 -63t-43.5 -29.5
t-51.5 -3.5t-52 14.5t-45 24.5t-30 26z" />
    <glyph glyph-name="exclamdown" unicode="&#xa1;" horiz-adv-x="205" 
d="M46 805.002q-3 -19.999 7.5 -31.498t24 -13.999t26.5 5q13 7.49902 16 25.498q6 11.999 -2 23.999q-8 11.999 -21.5 16.998q-13.5 5 -28.5 0q-15 -4.99902 -22 -25.998zM110 19.0498q10 -15.999 22 -22.998q12 -7 21 -5.5t14 12.499q5 11 2 29.998l-53 573.965
q-1 11 -9 16q-8 4.99902 -18 5.49902t-18.5 -2.5q-8.5 -2.99902 -11.5 -7.99902z" />
    <glyph glyph-name="ellipsis" unicode="&#x2026;" horiz-adv-x="453" 
d="M43 34q0 20 13 32.5t29 16.5t29.5 -2t14.5 -23q4 -10 -6.5 -23.5t-26.5 -21t-31.5 -5t-21.5 25.5zM194 34q0 20 13 32.5t29 16.5t29.5 -2t14.5 -23q4 -10 -6.5 -23.5t-26.5 -21t-31.5 -5t-21.5 25.5zM345 34q0 20 13 32.5t29 16.5t29.5 -2t14.5 -23q4 -10 -6.5 -23.5
t-26.5 -21t-31.5 -5t-21.5 25.5z" />
    <glyph glyph-name="minus" unicode="&#x2212;" horiz-adv-x="410" 
d="M88 312q-4 11 -1.5 25t16.5 19l240 10q15 -11 15 -29.5t-15 -29.5q-10 1 -32 -1t-49.5 -4t-57 -4t-54.5 -1.5t-42 4t-20 11.5z" />
    <glyph glyph-name="questiondown" unicode="&#xbf;" horiz-adv-x="579" 
d="M475.007 370.029q-4.99902 -7 -27.998 -21.499t-54.9971 -33.998t-69.4951 -43.4971q-37.498 -23.999 -72.4961 -48.9971q-34.9971 -24.999 -63.9961 -49.4971q-28.998 -24.499 -42.9971 -46.4971q-13.999 -21.999 -9.99902 -40.498q3.99902 -18.499 33.9971 -29.498
q43.998 -8.99902 81.9951 -3q37.998 6 74.4961 21.499q36.4971 15.499 73.4951 37.998q36.998 22.498 78.9951 46.4971q23.999 12.999 33.998 8.49902t5.5 -19.499q-4.5 -14.999 -22.999 -37.4971q-18.499 -22.499 -49.4971 -44.498q-30.998 -21.998 -74.4951 -40.9971
t-99.4941 -27.998q-102.993 -10 -151.99 7.49902t-56.9971 51.9971q-7.99902 34.498 19.999 80.9951t78.4951 94.4941t118.493 92.9941q67.9951 44.998 139.991 75.9961q2 4.99902 1 27.498q-1 22.498 -1.5 51.9971q-0.5 29.498 0 60.9961t6 54.9961
q5.49902 23.499 17.498 34.498q12 10.999 32.998 -2q0 -6.99902 0.5 -26.998t1 -46.4971t0.5 -55.9971v-55.9961v-46.4971v-26.998zM502.006 797.003q8.99902 -21.999 0.5 -32.498q-8.5 -10.499 -23.499 -10q-14.999 0.5 -30.498 11q-15.499 10.499 -20.499 31.498
q-5.99902 23.998 2 33.998q8 9.99902 21.499 8.49902t28.498 -12.999t21.999 -29.498z" />
    <glyph glyph-name="cedilla" unicode="&#xb8;" horiz-adv-x="217" 
d="M37 -137q-1 -6 12 -2.5t29.5 12t31 20.5t17.5 22.5t-11.5 17.5t-55.5 7q-7 0 -11 12t-5.5 28t0.5 32.5t7 27t14 11.5t22 -14l4 -63q44 0 64.5 -11t23.5 -27t-8.5 -34.5t-30.5 -35.5t-43.5 -29t-46.5 -14q-12 -1 -17 2.5t-6 9.5t2 13.5t8 14.5z" />
    <glyph glyph-name="endash" unicode="&#x2013;" horiz-adv-x="410" 
d="M88 312q-4 11 -1.5 25t16.5 19l240 10q15 -11 15 -29.5t-15 -29.5q-10 1 -32 -1t-49.5 -4t-57 -4t-54.5 -1.5t-42 4t-20 11.5z" />
    <glyph glyph-name="divide" unicode="&#xf7;" horiz-adv-x="418" 
d="M165 176q0 20 13 32.5t29 16.5t29.5 -2t14.5 -23q4 -10 -6.5 -23.5t-26.5 -21t-31.5 -5t-21.5 25.5zM166 406q0 20 13 32.5t29 16.5t29.5 -2t14.5 -23q4 -10 -6.5 -23.5t-26.5 -21t-31.5 -5t-21.5 25.5zM77 283q-4 11 -1.5 25t16.5 19l240 10q15 -11 15 -29.5t-15 -29.5
q-10 1 -32 -1t-49.5 -4t-57 -4t-54.5 -1.5t-42 4t-20 11.5z" />
    <glyph glyph-name="dieresis" unicode="&#xa8;" horiz-adv-x="301" 
d="M37 557q0 20 13 32.5t29 16.5t29.5 -2t14.5 -23q4 -10 -6.5 -23.5t-26.5 -21t-31.5 -5t-21.5 25.5zM188 557q0 20 13 32.5t29 16.5t29.5 -2t14.5 -23q4 -10 -6.5 -23.5t-26.5 -21t-31.5 -5t-21.5 25.5z" />
    <glyph glyph-name="thorn" unicode="&#xfe;" horiz-adv-x="394" 
d="M180 822q4 24 16 29t24 -0.5t20 -17t4 -21.5l-45 -163q74 -12 117.5 -51.5t59 -93t4.5 -112t-45.5 -108t-92 -83t-135.5 -34.5l-37 -164q-4 -12 -14.5 -15t-21 1t-17.5 13t-3 21q28 96 47.5 184t37 181.5t36.5 198.5t45 235zM122 221q70 13 115.5 45t69.5 73t27 85
t-12 81.5t-47.5 63t-78.5 29.5z" />
    <glyph glyph-name="Thorn" unicode="&#xde;" horiz-adv-x="396" 
d="M149 570q1 4 10.5 13.5t20 14.5t19 0.5t8.5 -27.5l-42 -152q42 25 82 27t83 -5q32 -8 44.5 -40.5t7.5 -77.5t-27 -95.5t-60 -95.5t-90.5 -78t-118.5 -41l-43 -167q-3 -1 -10.5 -2.5t-14.5 -0.5t-12.5 6t-5.5 17zM290 389q-66 -7 -98.5 -29t-49.5 -60t-27.5 -93.5
t-32.5 -128.5q57 7 101 32.5t75 60t48 72.5t21 70t-5 53.5t-32 22.5z" />
    <glyph glyph-name="germandbls" unicode="&#xdf;" horiz-adv-x="538" 
d="M84 -137q-4 -24 -24.5 -31t-38.5 4l103 876q83 36 153.5 59t121 27.5t78.5 -10.5t27 -54.5t-34.5 -105.5t-105.5 -163q81 22 118.5 11t43.5 -43t-13.5 -78.5t-53 -95.5t-76 -94t-82 -74t-70 -35.5t-41.5 21.5q64 47 114 93t84.5 87t54.5 74t26 55q5 30 -17.5 39t-61 1.5
t-87 -29t-96.5 -53.5l-20 57q35 27 67.5 52t60.5 52t50.5 56t37.5 64q30 54 27.5 83.5t-24 39t-56.5 2.5t-71.5 -24.5t-67.5 -42t-45 -50.5z" />
    <glyph glyph-name="dotaccent" unicode="&#x2d9;" horiz-adv-x="151" 
d="M28 561q0 20 13 32.5t29 16.5t29.5 -2t14.5 -23q4 -10 -6.5 -23.5t-26.5 -21t-31.5 -5t-21.5 25.5z" />
    <glyph glyph-name="breve" unicode="&#x2d8;" horiz-adv-x="341" 
d="M34 645q13 13 22 18t15.5 6t11 -0.5t8.5 -1.5q16 -43 33.5 -62t34.5 -21t33 9t29 26.5t21.5 32t11.5 26.5q31 0 42 -4.5t11 -13t-7 -20t-12 -26.5q-5 -14 -18.5 -31t-33.5 -31t-44.5 -20.5t-51 1t-54 34t-52.5 78.5z" />
    <glyph glyph-name="caron" unicode="&#x2c7;" horiz-adv-x="347" 
d="M67 746q13 25 22.5 31.5t17 3t13 -13t9.5 -16.5q17 -28 30.5 -49t27.5 -50q12 19 23.5 43.5t22 45.5t19.5 34.5t15 10.5q31 0 39 -8.5t4.5 -21t-13.5 -28t-15 -30.5q-15 -25 -23.5 -54t-17 -52.5t-19.5 -36.5t-30 -5z" />
    <glyph glyph-name="dotlessi" unicode="&#x131;" horiz-adv-x="191" 
d="M25 25q2 45 12 103.5t25 119t32.5 118t33.5 100.5q5 8 14 14t18 1q8 -4 8.5 -31t-5.5 -67.5t-16 -89t-23 -96t-27.5 -89t-28 -68t-25 -32.5t-18.5 17z" />
    <glyph glyph-name="hungarumlaut" unicode="&#x2dd;" horiz-adv-x="287" 
d="M145 667q-12 -19 -23.5 -43.5t-22 -45.5t-19.5 -34.5t-15 -10.5q-31 0 -39 8.5t-4.5 21t13.5 28t15 30.5q16 29 26 49t19 27t20 0.5t30 -30.5zM265 657q-12 -19 -23.5 -43.5t-22 -45.5t-19.5 -34.5t-15 -10.5q-31 0 -39 8.5t-4.5 21t13.5 28t15 30.5q16 29 26 49t19 27
t20 0.5t30 -30.5z" />
    <glyph glyph-name="ring" unicode="&#x2da;" horiz-adv-x="274" 
d="M114 535q-36 1 -54.5 17t-22.5 37t6 42.5t31 33.5q60 22 99 20.5t58.5 -16.5t20.5 -39t-15 -46t-47 -37t-76 -12zM80 618q-4 -21 4 -32t22 -14.5t31.5 -0.5t32.5 9.5t25 14.5t9 16q0 19 -8.5 29t-21 13t-28 0.5t-29 -8t-24 -13t-13.5 -14.5z" />
    <glyph glyph-name="ogonek" unicode="&#x2db;" horiz-adv-x="241" 
d="M197 -124q-27 -38 -54 -45.5t-48.5 5t-35.5 40.5t-14.5 60t14.5 64t52 53l5 -62q-17 -17 -18 -43.5t8.5 -45t26 -19.5t34.5 33z" />
    <glyph glyph-name="macron" unicode="&#xaf;" horiz-adv-x="410" 
d="M69 543q-4 11 -1.5 25t16.5 19l240 10q15 -11 15 -29.5t-15 -29.5q-10 1 -32 -1t-49.5 -4t-57 -4t-54.5 -1.5t-42 4t-20 11.5z" />
    <glyph glyph-name="eth" unicode="&#xf0;" horiz-adv-x="471" 
d="M450 515q1 2 -3 2t-15 -5.5t-31.5 -18t-52.5 -34.5q19 -74 34 -149.5t20.5 -138.5t-2.5 -106.5t-33 -53.5q-61 -23 -111.5 -19.5t-89 25.5t-65.5 57.5t-42 76t-18 81.5t7 74t33 53.5t59.5 19.5t86 -28t113.5 -88q-5 45 -14.5 88.5t-21.5 86.5q-25 -11 -48 -20t-35 -10
q-15 11 -15 29.5t15 29.5l65 32q-18 57 -37.5 106.5t-37.5 87.5t-32 62.5t-21 31.5q-3 27 2.5 42t15 19t20.5 -2.5t20 -22.5q9 -13 22 -40.5t28 -66.5t31.5 -88.5t33.5 -106.5l100 55q7 -2 11.5 -10t7 -17.5t2.5 -19t-2 -14.5zM109 301q-20 -19 -22.5 -48.5t9 -61t34 -61.5
t53 -51.5t66.5 -30t73 2.5q9 30 3.5 65.5t-20.5 68.5t-38.5 61.5t-50 46.5t-54.5 21.5t-53 -13.5z" />
    <glyph glyph-name="commaaccent" horiz-adv-x="339" 
d="M107 -299q-1 0 -1 6t1 8q15 25 24.5 48t11.5 45.5t-6.5 45t-29.5 46.5q-10 28 0 43.5t27.5 15.5t36 -16t24.5 -51q3 -6 5 -25.5t1.5 -43.5t-5 -50t-15.5 -45t-29 -28t-45 1z" />
    <glyph glyph-name="Aacute" unicode="&#xc1;" 
d="M539 290q0 16 0.5 28.5t-3 19.5t-14 8t-32.5 -6l-275 -89l-130 -214q-9 -14 -25 -19.5t-30 -4t-20.5 9t2.5 18.5q39 38 71.5 89t56.5 111q-11 -2 -26 1.5t-25.5 12t-12.5 21t13 28.5q12 -1 30 0.5t37 6.5t35 13.5t24 22.5l284 473q14 13 28 13t25.5 -25.5t20.5 -84.5
t14.5 -164t7 -264t-1.5 -384l-55 -5q1 14 1 44t0.5 68t0.5 80t-0.5 80t-0.5 68v44zM271 330q88 31 138 49t74.5 27.5t30 13t6.5 4.5q2 5 2 27t-1 52t-3.5 63.5t-5 62t-5 47.5t-4.5 19zM594 1011q-12 -19 -23.5 -43.5t-22 -45.5t-19.5 -34.5t-15 -10.5q-31 0 -39 8.5t-4.5 21
t13.5 28t15 30.5q16 29 26 49t19 27t20 0.5t30 -30.5z" />
    <glyph glyph-name="Abreve" unicode="&#x102;" 
d="M539 290q0 16 0.5 28.5t-3 19.5t-14 8t-32.5 -6l-275 -89l-130 -214q-9 -14 -25 -19.5t-30 -4t-20.5 9t2.5 18.5q39 38 71.5 89t56.5 111q-11 -2 -26 1.5t-25.5 12t-12.5 21t13 28.5q12 -1 30 0.5t37 6.5t35 13.5t24 22.5l284 473q14 13 28 13t25.5 -25.5t20.5 -84.5
t14.5 -164t7 -264t-1.5 -384l-55 -5q1 14 1 44t0.5 68t0.5 80t-0.5 80t-0.5 68v44zM271 330q88 31 138 49t74.5 27.5t30 13t6.5 4.5q2 5 2 27t-1 52t-3.5 63.5t-5 62t-5 47.5t-4.5 19zM383 993q13 13 22 18t15.5 6t11 -0.5t8.5 -1.5q16 -43 33.5 -62t34.5 -21t33 9t29 26.5
t21.5 32t11.5 26.5q31 0 42 -4.5t11 -13t-7 -20t-12 -26.5q-5 -14 -18.5 -31t-33.5 -31t-44.5 -20.5t-51 1t-54 34t-52.5 78.5z" />
    <glyph glyph-name="Acircumflex" unicode="&#xc2;" 
d="M539 290q0 16 0.5 28.5t-3 19.5t-14 8t-32.5 -6l-275 -89l-130 -214q-9 -14 -25 -19.5t-30 -4t-20.5 9t2.5 18.5q39 38 71.5 89t56.5 111q-11 -2 -26 1.5t-25.5 12t-12.5 21t13 28.5q12 -1 30 0.5t37 6.5t35 13.5t24 22.5l284 473q14 13 28 13t25.5 -25.5t20.5 -84.5
t14.5 -164t7 -264t-1.5 -384l-55 -5q1 14 1 44t0.5 68t0.5 80t-0.5 80t-0.5 68v44zM271 330q88 31 138 49t74.5 27.5t30 13t6.5 4.5q2 5 2 27t-1 52t-3.5 63.5t-5 62t-5 47.5t-4.5 19zM532 1082q19 8 30 -5t19.5 -36.5t17 -52.5t23.5 -54q5 -15 15 -30.5t13.5 -28t-4.5 -21
t-39 -8.5q-6 -3 -15 10.5t-19.5 34.5t-22 45.5t-23.5 43.5q-14 -29 -27.5 -50t-30.5 -49q-4 -7 -9.5 -16.5t-13 -13.5t-17 2.5t-22.5 32.5z" />
    <glyph glyph-name="Agrave" unicode="&#xc0;" 
d="M539 290q0 16 0.5 28.5t-3 19.5t-14 8t-32.5 -6l-275 -89l-130 -214q-9 -14 -25 -19.5t-30 -4t-20.5 9t2.5 18.5q39 38 71.5 89t56.5 111q-11 -2 -26 1.5t-25.5 12t-12.5 21t13 28.5q12 -1 30 0.5t37 6.5t35 13.5t24 22.5l284 473q14 13 28 13t25.5 -25.5t20.5 -84.5
t14.5 -164t7 -264t-1.5 -384l-55 -5q1 14 1 44t0.5 68t0.5 80t-0.5 80t-0.5 68v44zM271 330q88 31 138 49t74.5 27.5t30 13t6.5 4.5q2 5 2 27t-1 52t-3.5 63.5t-5 62t-5 47.5t-4.5 19zM462 1005q19 24 30 30.5t20 -0.5t18.5 -27t26.5 -49q5 -15 15 -30.5t13.5 -28t-4.5 -21
t-39 -8.5q-6 -3 -15 10.5t-19.5 34.5t-22 45.5t-23.5 43.5z" />
    <glyph glyph-name="Adieresis" unicode="&#xc4;" 
d="M539 290q0 16 0.5 28.5t-3 19.5t-14 8t-32.5 -6l-275 -89l-130 -214q-9 -14 -25 -19.5t-30 -4t-20.5 9t2.5 18.5q39 38 71.5 89t56.5 111q-11 -2 -26 1.5t-25.5 12t-12.5 21t13 28.5q12 -1 30 0.5t37 6.5t35 13.5t24 22.5l284 473q14 13 28 13t25.5 -25.5t20.5 -84.5
t14.5 -164t7 -264t-1.5 -384l-55 -5q1 14 1 44t0.5 68t0.5 80t-0.5 80t-0.5 68v44zM271 330q88 31 138 49t74.5 27.5t30 13t6.5 4.5q2 5 2 27t-1 52t-3.5 63.5t-5 62t-5 47.5t-4.5 19zM389 900q0 20 13 32.5t29 16.5t29.5 -2t14.5 -23q4 -10 -6.5 -23.5t-26.5 -21t-31.5 -5
t-21.5 25.5zM540 900q0 20 13 32.5t29 16.5t29.5 -2t14.5 -23q4 -10 -6.5 -23.5t-26.5 -21t-31.5 -5t-21.5 25.5z" />
    <glyph glyph-name="Atilde" unicode="&#xc3;" 
d="M539 290q0 16 0.5 28.5t-3 19.5t-14 8t-32.5 -6l-275 -89l-130 -214q-9 -14 -25 -19.5t-30 -4t-20.5 9t2.5 18.5q39 38 71.5 89t56.5 111q-11 -2 -26 1.5t-25.5 12t-12.5 21t13 28.5q12 -1 30 0.5t37 6.5t35 13.5t24 22.5l284 473q14 13 28 13t25.5 -25.5t20.5 -84.5
t14.5 -164t7 -264t-1.5 -384l-55 -5q1 14 1 44t0.5 68t0.5 80t-0.5 80t-0.5 68v44zM271 330q88 31 138 49t74.5 27.5t30 13t6.5 4.5q2 5 2 27t-1 52t-3.5 63.5t-5 62t-5 47.5t-4.5 19zM383 923q-12 -14 -25 -18.5t-22 1t-12 19.5t4 38q8 26 30 42.5t48.5 21t53 -5
t43.5 -34.5q27 -29 46 -38.5t32 -7.5t20 12.5t9.5 22t1 21t-5.5 9.5q3 19 11 26.5t17.5 5.5t18 -13.5t11.5 -30.5q6 -34 -8 -61.5t-40.5 -38t-62 0.5t-72.5 53q-30 25 -47.5 29.5t-27 -3t-14 -22.5t-9.5 -29z" />
    <glyph glyph-name="Amacron" unicode="&#x100;" 
d="M539 290q0 16 0.5 28.5t-3 19.5t-14 8t-32.5 -6l-275 -89l-130 -214q-9 -14 -25 -19.5t-30 -4t-20.5 9t2.5 18.5q39 38 71.5 89t56.5 111q-11 -2 -26 1.5t-25.5 12t-12.5 21t13 28.5q12 -1 30 0.5t37 6.5t35 13.5t24 22.5l284 473q14 13 28 13t25.5 -25.5t20.5 -84.5
t14.5 -164t7 -264t-1.5 -384l-55 -5q1 14 1 44t0.5 68t0.5 80t-0.5 80t-0.5 68v44zM271 330q88 31 138 49t74.5 27.5t30 13t6.5 4.5q2 5 2 27t-1 52t-3.5 63.5t-5 62t-5 47.5t-4.5 19zM382 882q-4 11 -1.5 25t16.5 19l240 10q15 -11 15 -29.5t-15 -29.5q-10 1 -32 -1
t-49.5 -4t-57 -4t-54.5 -1.5t-42 4t-20 11.5z" />
    <glyph glyph-name="Aogonek" unicode="&#x104;" 
d="M539 290q0 16 0.5 28.5t-3 19.5t-14 8t-32.5 -6l-275 -89l-130 -214q-9 -14 -25 -19.5t-30 -4t-20.5 9t2.5 18.5q39 38 71.5 89t56.5 111q-11 -2 -26 1.5t-25.5 12t-12.5 21t13 28.5q12 -1 30 0.5t37 6.5t35 13.5t24 22.5l284 473q14 13 28 13t25.5 -25.5t20.5 -84.5
t14.5 -164t7 -264t-1.5 -384l-55 -5q1 14 1 44t0.5 68t0.5 80t-0.5 80t-0.5 68v44zM271 330q88 31 138 49t74.5 27.5t30 13t6.5 4.5q2 5 2 27t-1 52t-3.5 63.5t-5 62t-5 47.5t-4.5 19zM633 -169q-27 -38 -54 -45.5t-48.5 5t-35.5 40.5t-14.5 60t14.5 64t52 53l5 -62
q-17 -17 -18 -43.5t8.5 -45t26 -19.5t34.5 33z" />
    <glyph glyph-name="Aring" unicode="&#xc5;" 
d="M539 290q0 16 0.5 28.5t-3 19.5t-14 8t-32.5 -6l-275 -89l-130 -214q-9 -14 -25 -19.5t-30 -4t-20.5 9t2.5 18.5q39 38 71.5 89t56.5 111q-11 -2 -26 1.5t-25.5 12t-12.5 21t13 28.5q12 -1 30 0.5t37 6.5t35 13.5t24 22.5l284 473q14 13 28 13t25.5 -25.5t20.5 -84.5
t14.5 -164t7 -264t-1.5 -384l-55 -5q1 14 1 44t0.5 68t0.5 80t-0.5 80t-0.5 68v44zM271 330q88 31 138 49t74.5 27.5t30 13t6.5 4.5q2 5 2 27t-1 52t-3.5 63.5t-5 62t-5 47.5t-4.5 19zM482 829q-36 1 -54.5 17t-22.5 37t6 42.5t31 33.5q60 22 99 20.5t58.5 -16.5t20.5 -39
t-15 -46t-47 -37t-76 -12zM448 912q-4 -21 4 -32t22 -14.5t31.5 -0.5t32.5 9.5t25 14.5t9 16q0 19 -8.5 29t-21 13t-28 0.5t-29 -8t-24 -13t-13.5 -14.5z" />
    <glyph glyph-name="AE" unicode="&#xc6;" horiz-adv-x="998" 
d="M539 290q0 16 0.5 28.5t-3 19.5t-14 8t-32.5 -6l-275 -89l-130 -214q-9 -14 -25 -19.5t-30 -4t-20.5 9t2.5 18.5q39 38 71.5 89t56.5 111q-11 -2 -26 1.5t-25.5 12t-12.5 21t13 28.5q12 -1 30 0.5t37 6.5t35 13.5t24 22.5l284 473q13 12 26 13t24.5 -20.5t20.5 -71.5
t15 -139q5 25 12 52.5t18 62.5q33 27 80 42.5t99.5 26t106 20t98.5 23.5q6 -14 1 -26t-15.5 -21.5t-23.5 -16t-23 -9.5q-13 -3 -46.5 -11t-71 -17t-71 -17t-46.5 -11q-29 -17 -44.5 -47.5t-22.5 -65t-8 -68t0 -56.5q33 -10 67 0.5t69 25.5t71 26t73 2q11 -12 -5.5 -24.5
t-47.5 -25.5t-71 -26t-75 -25t-59.5 -22.5t-24.5 -18.5l-6 -292q2 -14 21.5 -17.5t49 0.5t65.5 14t71 23.5t66 29.5t51 32q34 -5 30.5 -21.5t-32 -37t-74 -41.5t-96 -36t-98 -21t-79.5 5q0 -25 -0.5 -50t-0.5 -52l-55 -5q1 14 1 44t0.5 68t0.5 80t-0.5 80t-0.5 68v44z
M271 330q88 31 138 49t74.5 27.5t30 13t6.5 4.5q2 5 2 27t-1 52t-3.5 63.5t-5 62t-5 47.5t-4.5 19z" />
    <glyph glyph-name="AEacute" unicode="&#x1fc;" horiz-adv-x="998" 
d="M539 290q0 16 0.5 28.5t-3 19.5t-14 8t-32.5 -6l-275 -89l-130 -214q-9 -14 -25 -19.5t-30 -4t-20.5 9t2.5 18.5q39 38 71.5 89t56.5 111q-11 -2 -26 1.5t-25.5 12t-12.5 21t13 28.5q12 -1 30 0.5t37 6.5t35 13.5t24 22.5l284 473q13 12 26 13t24.5 -20.5t20.5 -71.5
t15 -139q5 25 12 52.5t18 62.5q33 27 80 42.5t99.5 26t106 20t98.5 23.5q6 -14 1 -26t-15.5 -21.5t-23.5 -16t-23 -9.5q-13 -3 -46.5 -11t-71 -17t-71 -17t-46.5 -11q-29 -17 -44.5 -47.5t-22.5 -65t-8 -68t0 -56.5q33 -10 67 0.5t69 25.5t71 26t73 2q11 -12 -5.5 -24.5
t-47.5 -25.5t-71 -26t-75 -25t-59.5 -22.5t-24.5 -18.5l-6 -292q2 -14 21.5 -17.5t49 0.5t65.5 14t71 23.5t66 29.5t51 32q34 -5 30.5 -21.5t-32 -37t-74 -41.5t-96 -36t-98 -21t-79.5 5q0 -25 -0.5 -50t-0.5 -52l-55 -5q1 14 1 44t0.5 68t0.5 80t-0.5 80t-0.5 68v44z
M271 330q88 31 138 49t74.5 27.5t30 13t6.5 4.5q2 5 2 27t-1 52t-3.5 63.5t-5 62t-5 47.5t-4.5 19zM736 961q-12 -19 -23.5 -43.5t-22 -45.5t-19.5 -34.5t-15 -10.5q-31 0 -39 8.5t-4.5 21t13.5 28t15 30.5q16 29 26 49t19 27t20 0.5t30 -30.5z" />
    <glyph glyph-name="Cacute" unicode="&#x106;" horiz-adv-x="508" 
d="M526 196q-112 -107 -194 -160t-138.5 -64.5t-91 11t-52 67t-21 102.5t2.5 118q13 73 36.5 154.5t55.5 155.5t71 134t83 91t92.5 25.5t98.5 -61.5q2 11 7 29t13 36.5t17 34.5t18 23.5t17 4t13 -23.5q-68 -134 -44 -261q-23 -24 -36 -27.5t-20 6t-9.5 28.5t-5 41t-8 43.5
t-17.5 36.5q-30 47 -66 42t-72 -46t-69.5 -108.5t-59 -145.5t-40 -157.5t-12 -144t24 -105t68.5 -40t122 50t184 165.5l32 -55v0zM367 997q-12 -19 -23.5 -43.5t-22 -45.5t-19.5 -34.5t-15 -10.5q-31 0 -39 8.5t-4.5 21t13.5 28t15 30.5q16 29 26 49t19 27t20 0.5t30 -30.5z
" />
    <glyph glyph-name="Ccaron" unicode="&#x10c;" horiz-adv-x="508" 
d="M526 196q-112 -107 -194 -160t-138.5 -64.5t-91 11t-52 67t-21 102.5t2.5 118q13 73 36.5 154.5t55.5 155.5t71 134t83 91t92.5 25.5t98.5 -61.5q2 11 7 29t13 36.5t17 34.5t18 23.5t17 4t13 -23.5q-68 -134 -44 -261q-23 -24 -36 -27.5t-20 6t-9.5 28.5t-5 41t-8 43.5
t-17.5 36.5q-30 47 -66 42t-72 -46t-69.5 -108.5t-59 -145.5t-40 -157.5t-12 -144t24 -105t68.5 -40t122 50t184 165.5l32 -55v0zM170 1053q13 25 22.5 31.5t17 3t13 -13t9.5 -16.5q17 -28 30.5 -49t27.5 -50q12 19 23.5 43.5t22 45.5t19.5 34.5t15 10.5q31 0 39 -8.5
t4.5 -21t-13.5 -28t-15 -30.5q-15 -25 -23.5 -54t-17 -52.5t-19.5 -36.5t-30 -5z" />
    <glyph glyph-name="Ccedilla" unicode="&#xc7;" horiz-adv-x="508" 
d="M526 196q-112 -107 -194 -160t-138.5 -64.5t-91 11t-52 67t-21 102.5t2.5 118q13 73 36.5 154.5t55.5 155.5t71 134t83 91t92.5 25.5t98.5 -61.5q2 11 7 29t13 36.5t17 34.5t18 23.5t17 4t13 -23.5q-68 -134 -44 -261q-23 -24 -36 -27.5t-20 6t-9.5 28.5t-5 41t-8 43.5
t-17.5 36.5q-30 47 -66 42t-72 -46t-69.5 -108.5t-59 -145.5t-40 -157.5t-12 -144t24 -105t68.5 -40t122 50t184 165.5l32 -55v0zM162 -185q-1 -6 12 -2.5t29.5 12t31 20.5t17.5 22.5t-11.5 17.5t-55.5 7q-7 0 -11 12t-5.5 28t0.5 32.5t7 27t14 11.5t22 -14l4 -63
q44 0 64.5 -11t23.5 -27t-8.5 -34.5t-30.5 -35.5t-43.5 -29t-46.5 -14q-12 -1 -17 2.5t-6 9.5t2 13.5t8 14.5z" />
    <glyph glyph-name="Ccircumflex" unicode="&#x108;" horiz-adv-x="508" 
d="M526 196q-112 -107 -194 -160t-138.5 -64.5t-91 11t-52 67t-21 102.5t2.5 118q13 73 36.5 154.5t55.5 155.5t71 134t83 91t92.5 25.5t98.5 -61.5q2 11 7 29t13 36.5t17 34.5t18 23.5t17 4t13 -23.5q-68 -134 -44 -261q-23 -24 -36 -27.5t-20 6t-9.5 28.5t-5 41t-8 43.5
t-17.5 36.5q-30 47 -66 42t-72 -46t-69.5 -108.5t-59 -145.5t-40 -157.5t-12 -144t24 -105t68.5 -40t122 50t184 165.5l32 -55v0zM339 1105q19 8 30 -5t19.5 -36.5t17 -52.5t23.5 -54q5 -15 15 -30.5t13.5 -28t-4.5 -21t-39 -8.5q-6 -3 -15 10.5t-19.5 34.5t-22 45.5
t-23.5 43.5q-14 -29 -27.5 -50t-30.5 -49q-4 -7 -9.5 -16.5t-13 -13.5t-17 2.5t-22.5 32.5z" />
    <glyph glyph-name="Cdotaccent" unicode="&#x10a;" horiz-adv-x="508" 
d="M526 196q-112 -107 -194 -160t-138.5 -64.5t-91 11t-52 67t-21 102.5t2.5 118q13 73 36.5 154.5t55.5 155.5t71 134t83 91t92.5 25.5t98.5 -61.5q2 11 7 29t13 36.5t17 34.5t18 23.5t17 4t13 -23.5q-68 -134 -44 -261q-23 -24 -36 -27.5t-20 6t-9.5 28.5t-5 41t-8 43.5
t-17.5 36.5q-30 47 -66 42t-72 -46t-69.5 -108.5t-59 -145.5t-40 -157.5t-12 -144t24 -105t68.5 -40t122 50t184 165.5l32 -55v0zM316 891q0 20 13 32.5t29 16.5t29.5 -2t14.5 -23q4 -10 -6.5 -23.5t-26.5 -21t-31.5 -5t-21.5 25.5z" />
    <glyph glyph-name="Dcaron" unicode="&#x10e;" horiz-adv-x="530" 
d="M260 783q121 -39 190 -89.5t97.5 -108t22 -118.5t-36.5 -121t-77.5 -115.5t-102.5 -101.5t-110.5 -80t-101.5 -51t-76 -13.5t-33 32.5q25 85 46.5 176t38 183.5t28 183.5t18.5 175q-25 3 -31 16t0.5 30t21.5 35t31 32t30.5 20.5t19.5 0.5q7 -9 8 -20.5t1.5 -24t3 -23.5
t12.5 -18zM107 53q25 2 70.5 24.5t96.5 60t100.5 88t83.5 108.5t45.5 122t-13.5 128q-8 22 -36 46t-65.5 43.5t-79.5 30t-78 4.5zM154 1107q13 25 22.5 31.5t17 3t13 -13t9.5 -16.5q17 -28 30.5 -49t27.5 -50q12 19 23.5 43.5t22 45.5t19.5 34.5t15 10.5q31 0 39 -8.5
t4.5 -21t-13.5 -28t-15 -30.5q-15 -25 -23.5 -54t-17 -52.5t-19.5 -36.5t-30 -5z" />
    <glyph glyph-name="Dcroat" unicode="&#x110;" horiz-adv-x="530" 
d="M260 783q121 -39 190 -89.5t97.5 -108t22 -118.5t-36.5 -121t-77.5 -115.5t-102.5 -101.5t-110.5 -80t-101.5 -51t-76 -13.5t-33 32.5q25 85 46.5 176t38 183.5t28 183.5t18.5 175q-25 3 -31 16t0.5 30t21.5 35t31 32t30.5 20.5t19.5 0.5q7 -9 8 -20.5t1.5 -24t3 -23.5
t12.5 -18zM107 53q25 2 70.5 24.5t96.5 60t100.5 88t83.5 108.5t45.5 122t-13.5 128q-8 22 -36 46t-65.5 43.5t-79.5 30t-78 4.5zM29 393q-4 11 -1.5 25t16.5 19l240 10q15 -11 15 -29.5t-15 -29.5q-10 1 -32 -1t-49.5 -4t-57 -4t-54.5 -1.5t-42 4t-20 11.5z" />
    <glyph glyph-name="Eacute" unicode="&#xc9;" horiz-adv-x="515" 
d="M442 195q28 -4 27 -16.5t-22.5 -29.5t-58.5 -36t-81 -36.5t-90.5 -30.5t-85.5 -17t-67 2t-36 28q2 12 7.5 36t11.5 54.5t13 64t13 64t10.5 54.5t6.5 36q-14 7 -19 18.5t-2 24.5t14 25t28 20q18 45 31.5 78.5t26.5 64.5t28.5 64.5t38.5 77.5q39 28 90 45t106.5 29t111 23
t104.5 26q3 -14 -4.5 -26t-20.5 -22t-27.5 -17t-25.5 -10q-14 -3 -49.5 -12t-75 -19t-75 -19t-49.5 -12q-33 -18 -55.5 -49.5t-37.5 -66t-23.5 -68t-12.5 -57.5q31 -9 68 2.5t75.5 27.5t77 28t73.5 4q9 -12 -10.5 -25t-54 -27t-77 -28t-80.5 -26.5t-65 -24t-29 -19.5
l-72 -294q-1 -13 18 -16.5t49.5 1.5t68.5 15.5t76.5 25.5t73.5 31.5t58 33.5zM473 974q-12 -19 -23.5 -43.5t-22 -45.5t-19.5 -34.5t-15 -10.5q-31 0 -39 8.5t-4.5 21t13.5 28t15 30.5q16 29 26 49t19 27t20 0.5t30 -30.5z" />
    <glyph glyph-name="Ebreve" unicode="&#x114;" horiz-adv-x="515" 
d="M442 195q28 -4 27 -16.5t-22.5 -29.5t-58.5 -36t-81 -36.5t-90.5 -30.5t-85.5 -17t-67 2t-36 28q2 12 7.5 36t11.5 54.5t13 64t13 64t10.5 54.5t6.5 36q-14 7 -19 18.5t-2 24.5t14 25t28 20q18 45 31.5 78.5t26.5 64.5t28.5 64.5t38.5 77.5q39 28 90 45t106.5 29t111 23
t104.5 26q3 -14 -4.5 -26t-20.5 -22t-27.5 -17t-25.5 -10q-14 -3 -49.5 -12t-75 -19t-75 -19t-49.5 -12q-33 -18 -55.5 -49.5t-37.5 -66t-23.5 -68t-12.5 -57.5q31 -9 68 2.5t75.5 27.5t77 28t73.5 4q9 -12 -10.5 -25t-54 -27t-77 -28t-80.5 -26.5t-65 -24t-29 -19.5
l-72 -294q-1 -13 18 -16.5t49.5 1.5t68.5 15.5t76.5 25.5t73.5 31.5t58 33.5zM222 957q13 13 22 18t15.5 6t11 -0.5t8.5 -1.5q16 -43 33.5 -62t34.5 -21t33 9t29 26.5t21.5 32t11.5 26.5q31 0 42 -4.5t11 -13t-7 -20t-12 -26.5q-5 -14 -18.5 -31t-33.5 -31t-44.5 -20.5
t-51 1t-54 34t-52.5 78.5z" />
    <glyph glyph-name="Ecaron" unicode="&#x11a;" horiz-adv-x="515" 
d="M442 195q28 -4 27 -16.5t-22.5 -29.5t-58.5 -36t-81 -36.5t-90.5 -30.5t-85.5 -17t-67 2t-36 28q2 12 7.5 36t11.5 54.5t13 64t13 64t10.5 54.5t6.5 36q-14 7 -19 18.5t-2 24.5t14 25t28 20q18 45 31.5 78.5t26.5 64.5t28.5 64.5t38.5 77.5q39 28 90 45t106.5 29t111 23
t104.5 26q3 -14 -4.5 -26t-20.5 -22t-27.5 -17t-25.5 -10q-14 -3 -49.5 -12t-75 -19t-75 -19t-49.5 -12q-33 -18 -55.5 -49.5t-37.5 -66t-23.5 -68t-12.5 -57.5q31 -9 68 2.5t75.5 27.5t77 28t73.5 4q9 -12 -10.5 -25t-54 -27t-77 -28t-80.5 -26.5t-65 -24t-29 -19.5
l-72 -294q-1 -13 18 -16.5t49.5 1.5t68.5 15.5t76.5 25.5t73.5 31.5t58 33.5zM254 1045q13 25 22.5 31.5t17 3t13 -13t9.5 -16.5q17 -28 30.5 -49t27.5 -50q12 19 23.5 43.5t22 45.5t19.5 34.5t15 10.5q31 0 39 -8.5t4.5 -21t-13.5 -28t-15 -30.5q-15 -25 -23.5 -54
t-17 -52.5t-19.5 -36.5t-30 -5z" />
    <glyph glyph-name="Ecircumflex" unicode="&#xca;" horiz-adv-x="515" 
d="M442 195q28 -4 27 -16.5t-22.5 -29.5t-58.5 -36t-81 -36.5t-90.5 -30.5t-85.5 -17t-67 2t-36 28q2 12 7.5 36t11.5 54.5t13 64t13 64t10.5 54.5t6.5 36q-14 7 -19 18.5t-2 24.5t14 25t28 20q18 45 31.5 78.5t26.5 64.5t28.5 64.5t38.5 77.5q39 28 90 45t106.5 29t111 23
t104.5 26q3 -14 -4.5 -26t-20.5 -22t-27.5 -17t-25.5 -10q-14 -3 -49.5 -12t-75 -19t-75 -19t-49.5 -12q-33 -18 -55.5 -49.5t-37.5 -66t-23.5 -68t-12.5 -57.5q31 -9 68 2.5t75.5 27.5t77 28t73.5 4q9 -12 -10.5 -25t-54 -27t-77 -28t-80.5 -26.5t-65 -24t-29 -19.5
l-72 -294q-1 -13 18 -16.5t49.5 1.5t68.5 15.5t76.5 25.5t73.5 31.5t58 33.5zM415 1114q19 8 30 -5t19.5 -36.5t17 -52.5t23.5 -54q5 -15 15 -30.5t13.5 -28t-4.5 -21t-39 -8.5q-6 -3 -15 10.5t-19.5 34.5t-22 45.5t-23.5 43.5q-14 -29 -27.5 -50t-30.5 -49
q-4 -7 -9.5 -16.5t-13 -13.5t-17 2.5t-22.5 32.5z" />
    <glyph glyph-name="Edieresis" unicode="&#xcb;" horiz-adv-x="515" 
d="M442 195q28 -4 27 -16.5t-22.5 -29.5t-58.5 -36t-81 -36.5t-90.5 -30.5t-85.5 -17t-67 2t-36 28q2 12 7.5 36t11.5 54.5t13 64t13 64t10.5 54.5t6.5 36q-14 7 -19 18.5t-2 24.5t14 25t28 20q18 45 31.5 78.5t26.5 64.5t28.5 64.5t38.5 77.5q39 28 90 45t106.5 29t111 23
t104.5 26q3 -14 -4.5 -26t-20.5 -22t-27.5 -17t-25.5 -10q-14 -3 -49.5 -12t-75 -19t-75 -19t-49.5 -12q-33 -18 -55.5 -49.5t-37.5 -66t-23.5 -68t-12.5 -57.5q31 -9 68 2.5t75.5 27.5t77 28t73.5 4q9 -12 -10.5 -25t-54 -27t-77 -28t-80.5 -26.5t-65 -24t-29 -19.5
l-72 -294q-1 -13 18 -16.5t49.5 1.5t68.5 15.5t76.5 25.5t73.5 31.5t58 33.5zM307 882q0 20 13 32.5t29 16.5t29.5 -2t14.5 -23q4 -10 -6.5 -23.5t-26.5 -21t-31.5 -5t-21.5 25.5zM458 882q0 20 13 32.5t29 16.5t29.5 -2t14.5 -23q4 -10 -6.5 -23.5t-26.5 -21t-31.5 -5
t-21.5 25.5z" />
    <glyph glyph-name="Edotaccent" unicode="&#x116;" horiz-adv-x="515" 
d="M442 195q28 -4 27 -16.5t-22.5 -29.5t-58.5 -36t-81 -36.5t-90.5 -30.5t-85.5 -17t-67 2t-36 28q2 12 7.5 36t11.5 54.5t13 64t13 64t10.5 54.5t6.5 36q-14 7 -19 18.5t-2 24.5t14 25t28 20q18 45 31.5 78.5t26.5 64.5t28.5 64.5t38.5 77.5q39 28 90 45t106.5 29t111 23
t104.5 26q3 -14 -4.5 -26t-20.5 -22t-27.5 -17t-25.5 -10q-14 -3 -49.5 -12t-75 -19t-75 -19t-49.5 -12q-33 -18 -55.5 -49.5t-37.5 -66t-23.5 -68t-12.5 -57.5q31 -9 68 2.5t75.5 27.5t77 28t73.5 4q9 -12 -10.5 -25t-54 -27t-77 -28t-80.5 -26.5t-65 -24t-29 -19.5
l-72 -294q-1 -13 18 -16.5t49.5 1.5t68.5 15.5t76.5 25.5t73.5 31.5t58 33.5zM347 891q0 20 13 32.5t29 16.5t29.5 -2t14.5 -23q4 -10 -6.5 -23.5t-26.5 -21t-31.5 -5t-21.5 25.5z" />
    <glyph glyph-name="Egrave" unicode="&#xc8;" horiz-adv-x="515" 
d="M442 195q28 -4 27 -16.5t-22.5 -29.5t-58.5 -36t-81 -36.5t-90.5 -30.5t-85.5 -17t-67 2t-36 28q2 12 7.5 36t11.5 54.5t13 64t13 64t10.5 54.5t6.5 36q-14 7 -19 18.5t-2 24.5t14 25t28 20q18 45 31.5 78.5t26.5 64.5t28.5 64.5t38.5 77.5q39 28 90 45t106.5 29t111 23
t104.5 26q3 -14 -4.5 -26t-20.5 -22t-27.5 -17t-25.5 -10q-14 -3 -49.5 -12t-75 -19t-75 -19t-49.5 -12q-33 -18 -55.5 -49.5t-37.5 -66t-23.5 -68t-12.5 -57.5q31 -9 68 2.5t75.5 27.5t77 28t73.5 4q9 -12 -10.5 -25t-54 -27t-77 -28t-80.5 -26.5t-65 -24t-29 -19.5
l-72 -294q-1 -13 18 -16.5t49.5 1.5t68.5 15.5t76.5 25.5t73.5 31.5t58 33.5zM350 1005q19 24 30 30.5t20 -0.5t18.5 -27t26.5 -49q5 -15 15 -30.5t13.5 -28t-4.5 -21t-39 -8.5q-6 -3 -15 10.5t-19.5 34.5t-22 45.5t-23.5 43.5z" />
    <glyph glyph-name="Emacron" unicode="&#x112;" horiz-adv-x="515" 
d="M442 195q28 -4 27 -16.5t-22.5 -29.5t-58.5 -36t-81 -36.5t-90.5 -30.5t-85.5 -17t-67 2t-36 28q2 12 7.5 36t11.5 54.5t13 64t13 64t10.5 54.5t6.5 36q-14 7 -19 18.5t-2 24.5t14 25t28 20q18 45 31.5 78.5t26.5 64.5t28.5 64.5t38.5 77.5q39 28 90 45t106.5 29t111 23
t104.5 26q3 -14 -4.5 -26t-20.5 -22t-27.5 -17t-25.5 -10q-14 -3 -49.5 -12t-75 -19t-75 -19t-49.5 -12q-33 -18 -55.5 -49.5t-37.5 -66t-23.5 -68t-12.5 -57.5q31 -9 68 2.5t75.5 27.5t77 28t73.5 4q9 -12 -10.5 -25t-54 -27t-77 -28t-80.5 -26.5t-65 -24t-29 -19.5
l-72 -294q-1 -13 18 -16.5t49.5 1.5t68.5 15.5t76.5 25.5t73.5 31.5t58 33.5zM300 890q-4 11 -1.5 25t16.5 19l240 10q15 -11 15 -29.5t-15 -29.5q-10 1 -32 -1t-49.5 -4t-57 -4t-54.5 -1.5t-42 4t-20 11.5z" />
    <glyph glyph-name="Gcommaaccent" unicode="&#x122;" 
d="M383 -143q4 32 14.5 65.5t21.5 67t20.5 66.5t13.5 64q-44 -31 -83 -55t-78.5 -39.5t-80.5 -23.5t-88 -6q-62 13 -86 60t-19.5 113.5t33.5 146.5t75.5 160.5t105.5 154t123 128t128.5 82t121.5 16.5q2 0 4.5 -4.5t4 -12t1 -16t-6.5 -15.5q-69 -3 -134.5 -37t-124 -88.5
t-108 -123t-85.5 -139.5t-57 -139t-21.5 -120.5t20.5 -85t68 -32.5t122.5 38.5t183.5 126.5q9 7 22.5 31.5t28 54t27 56.5t18.5 38q-35 -5 -73.5 -18t-77.5 -25t-78 -19.5t-74 -0.5q-14 7 -11 21.5t20 22.5q94 8 189 38.5t186 87.5q9 -7 18 -16.5t1 -25.5
q-37 -74 -67 -145.5t-56.5 -143t-51 -144t-49.5 -147.5q-3 -11 -10 -20t-16 -13t-18 -0.5t-17 16.5zM217 -294q-1 0 -1 6t1 8q15 25 24.5 48t11.5 45.5t-6.5 45t-29.5 46.5q-10 28 0 43.5t27.5 15.5t36 -16t24.5 -51q3 -6 5 -25.5t1.5 -43.5t-5 -50t-15.5 -45t-29 -28t-45 1
z" />
    <glyph glyph-name="Eogonek" unicode="&#x118;" horiz-adv-x="515" 
d="M442 195q28 -4 27 -16.5t-22.5 -29.5t-58.5 -36t-81 -36.5t-90.5 -30.5t-85.5 -17t-67 2t-36 28q2 12 7.5 36t11.5 54.5t13 64t13 64t10.5 54.5t6.5 36q-14 7 -19 18.5t-2 24.5t14 25t28 20q18 45 31.5 78.5t26.5 64.5t28.5 64.5t38.5 77.5q39 28 90 45t106.5 29t111 23
t104.5 26q3 -14 -4.5 -26t-20.5 -22t-27.5 -17t-25.5 -10q-14 -3 -49.5 -12t-75 -19t-75 -19t-49.5 -12q-33 -18 -55.5 -49.5t-37.5 -66t-23.5 -68t-12.5 -57.5q31 -9 68 2.5t75.5 27.5t77 28t73.5 4q9 -12 -10.5 -25t-54 -27t-77 -28t-80.5 -26.5t-65 -24t-29 -19.5
l-72 -294q-1 -13 18 -16.5t49.5 1.5t68.5 15.5t76.5 25.5t73.5 31.5t58 33.5zM514 19q-27 -38 -54 -45.5t-48.5 5t-35.5 40.5t-14.5 60t14.5 64t52 53l5 -62q-17 -17 -18 -43.5t8.5 -45t26 -19.5t34.5 33z" />
    <glyph glyph-name="Gbreve" unicode="&#x11e;" 
d="M383 -143q4 32 14.5 65.5t21.5 67t20.5 66.5t13.5 64q-44 -31 -83 -55t-78.5 -39.5t-80.5 -23.5t-88 -6q-62 13 -86 60t-19.5 113.5t33.5 146.5t75.5 160.5t105.5 154t123 128t128.5 82t121.5 16.5q2 0 4.5 -4.5t4 -12t1 -16t-6.5 -15.5q-69 -3 -134.5 -37t-124 -88.5
t-108 -123t-85.5 -139.5t-57 -139t-21.5 -120.5t20.5 -85t68 -32.5t122.5 38.5t183.5 126.5q9 7 22.5 31.5t28 54t27 56.5t18.5 38q-35 -5 -73.5 -18t-77.5 -25t-78 -19.5t-74 -0.5q-14 7 -11 21.5t20 22.5q94 8 189 38.5t186 87.5q9 -7 18 -16.5t1 -25.5
q-37 -74 -67 -145.5t-56.5 -143t-51 -144t-49.5 -147.5q-3 -11 -10 -20t-16 -13t-18 -0.5t-17 16.5zM290 989q13 13 22 18t15.5 6t11 -0.5t8.5 -1.5q16 -43 33.5 -62t34.5 -21t33 9t29 26.5t21.5 32t11.5 26.5q31 0 42 -4.5t11 -13t-7 -20t-12 -26.5q-5 -14 -18.5 -31
t-33.5 -31t-44.5 -20.5t-51 1t-54 34t-52.5 78.5z" />
    <glyph glyph-name="Gcircumflex" unicode="&#x11c;" 
d="M383 -143q4 32 14.5 65.5t21.5 67t20.5 66.5t13.5 64q-44 -31 -83 -55t-78.5 -39.5t-80.5 -23.5t-88 -6q-62 13 -86 60t-19.5 113.5t33.5 146.5t75.5 160.5t105.5 154t123 128t128.5 82t121.5 16.5q2 0 4.5 -4.5t4 -12t1 -16t-6.5 -15.5q-69 -3 -134.5 -37t-124 -88.5
t-108 -123t-85.5 -139.5t-57 -139t-21.5 -120.5t20.5 -85t68 -32.5t122.5 38.5t183.5 126.5q9 7 22.5 31.5t28 54t27 56.5t18.5 38q-35 -5 -73.5 -18t-77.5 -25t-78 -19.5t-74 -0.5q-14 7 -11 21.5t20 22.5q94 8 189 38.5t186 87.5q9 -7 18 -16.5t1 -25.5
q-37 -74 -67 -145.5t-56.5 -143t-51 -144t-49.5 -147.5q-3 -11 -10 -20t-16 -13t-18 -0.5t-17 16.5zM536 1140q19 8 30 -5t19.5 -36.5t17 -52.5t23.5 -54q5 -15 15 -30.5t13.5 -28t-4.5 -21t-39 -8.5q-6 -3 -15 10.5t-19.5 34.5t-22 45.5t-23.5 43.5q-14 -29 -27.5 -50
t-30.5 -49q-4 -7 -9.5 -16.5t-13 -13.5t-17 2.5t-22.5 32.5z" />
    <glyph glyph-name="Gdotaccent" unicode="&#x120;" 
d="M383 -143q4 32 14.5 65.5t21.5 67t20.5 66.5t13.5 64q-44 -31 -83 -55t-78.5 -39.5t-80.5 -23.5t-88 -6q-62 13 -86 60t-19.5 113.5t33.5 146.5t75.5 160.5t105.5 154t123 128t128.5 82t121.5 16.5q2 0 4.5 -4.5t4 -12t1 -16t-6.5 -15.5q-69 -3 -134.5 -37t-124 -88.5
t-108 -123t-85.5 -139.5t-57 -139t-21.5 -120.5t20.5 -85t68 -32.5t122.5 38.5t183.5 126.5q9 7 22.5 31.5t28 54t27 56.5t18.5 38q-35 -5 -73.5 -18t-77.5 -25t-78 -19.5t-74 -0.5q-14 7 -11 21.5t20 22.5q94 8 189 38.5t186 87.5q9 -7 18 -16.5t1 -25.5
q-37 -74 -67 -145.5t-56.5 -143t-51 -144t-49.5 -147.5q-3 -11 -10 -20t-16 -13t-18 -0.5t-17 16.5zM495 918q0 20 13 32.5t29 16.5t29.5 -2t14.5 -23q4 -10 -6.5 -23.5t-26.5 -21t-31.5 -5t-21.5 25.5z" />
    <glyph glyph-name="Hbar" unicode="&#x126;" horiz-adv-x="508" 
d="M57 531q-8 10 -3.5 22.5t30.5 16.5l473 52q27 -10 27 -26t-27 -26q-19 1 -62 -3.5t-96.5 -11.5t-112 -14t-107.5 -11.5t-83 -5t-39 6.5zM21 35q2 39 12.5 81.5t23 86t23.5 86t15 81.5l-78 -24q-13 1 -19.5 10t-8 19.5t3 19t14.5 7.5l106 23q17 16 28.5 51.5t21.5 79.5
t19.5 92.5t22.5 90.5t31 72.5t45 40.5q4 -1 8.5 -6.5t2.5 -8.5q-5 -31 -17.5 -83.5t-28.5 -110.5t-31.5 -113t-25.5 -92l185 25q3 10 10.5 35.5t17 59.5t20.5 72t20.5 72t17 60.5t10.5 36.5q8 20 23 37.5t28 24.5t19 -0.5t-4 -37.5q-14 -47 -25.5 -89t-21.5 -83t-18.5 -82
t-17.5 -84q7 -2 29 3t42.5 6.5t29.5 -5t-10 -30.5q-2 -3 -8 -7.5t-9 -5.5l-97 -34l-77 -392q-2 -7 -10 -9.5t-17 -2.5t-17 1t-9 2q3 17 7 48t9 68.5t11 79t11.5 78.5t10.5 67t9 45l-187 -31l-87 -321q-2 -6 -12 -13t-21.5 -11t-20.5 -2t-9 16z" />
    <glyph glyph-name="Hcircumflex" unicode="&#x124;" horiz-adv-x="508" 
d="M48 35q2 39 12.5 81.5t23 86t23.5 86t15 81.5l-78 -24q-13 1 -19.5 10t-8 19.5t3 19t14.5 7.5l106 23q17 16 28.5 51.5t21.5 79.5t19.5 92.5t22.5 90.5t31 72.5t45 40.5q4 -1 8.5 -6.5t2.5 -8.5q-5 -31 -17.5 -83.5t-28.5 -110.5t-31.5 -113t-25.5 -92l185 25
q3 10 10.5 35.5t17 59.5t20.5 72t20.5 72t17 60.5t10.5 36.5q8 20 23 37.5t28 24.5t19 -0.5t-4 -37.5q-14 -47 -25.5 -89t-21.5 -83t-18.5 -82t-17.5 -84q7 -2 29 3t42.5 6.5t29.5 -5t-10 -30.5q-2 -3 -8 -7.5t-9 -5.5l-97 -34l-77 -392q-2 -7 -10 -9.5t-17 -2.5t-17 1t-9 2
q3 17 7 48t9 68.5t11 79t11.5 78.5t10.5 67t9 45l-187 -31l-87 -321q-2 -6 -12 -13t-21.5 -11t-20.5 -2t-9 16zM420 1140q19 8 30 -5t19.5 -36.5t17 -52.5t23.5 -54q5 -15 15 -30.5t13.5 -28t-4.5 -21t-39 -8.5q-6 -3 -15 10.5t-19.5 34.5t-22 45.5t-23.5 43.5
q-14 -29 -27.5 -50t-30.5 -49q-4 -7 -9.5 -16.5t-13 -13.5t-17 2.5t-22.5 32.5z" />
    <glyph glyph-name="Iacute" unicode="&#xcd;" 
d="M12 12q-1 4 3 10.5t9 12.5t10 10.5t7 6.5l199 7l162 707q-19 9 -44 6.5t-51.5 -7t-53.5 -7.5t-50 4q1 11 8.5 26t22.5 18l356 58q51 7 76.5 0.5t32.5 -18t-3 -23.5t-31 -14q-15 -2 -32 0t-38 2t-47.5 -5.5t-61.5 -21.5q-15 -35 -32.5 -93.5t-35.5 -127.5t-36 -143.5
t-34.5 -143t-30.5 -124.5t-23 -88q5 -3 25 -1.5t48 5t61 8t65.5 7.5t62 3t49.5 -4q0 -12 -7.5 -25.5t-21.5 -16.5q-15 -2 -56.5 -7.5t-97.5 -11.5t-119 -12t-120.5 -8t-103.5 0t-67 11zM492 1027q-12 -19 -23.5 -43.5t-22 -45.5t-19.5 -34.5t-15 -10.5q-31 0 -39 8.5
t-4.5 21t13.5 28t15 30.5q16 29 26 49t19 27t20 0.5t30 -30.5z" />
    <glyph glyph-name="Ibreve" unicode="&#x12c;" 
d="M12 12q-1 4 3 10.5t9 12.5t10 10.5t7 6.5l199 7l162 707q-19 9 -44 6.5t-51.5 -7t-53.5 -7.5t-50 4q1 11 8.5 26t22.5 18l356 58q51 7 76.5 0.5t32.5 -18t-3 -23.5t-31 -14q-15 -2 -32 0t-38 2t-47.5 -5.5t-61.5 -21.5q-15 -35 -32.5 -93.5t-35.5 -127.5t-36 -143.5
t-34.5 -143t-30.5 -124.5t-23 -88q5 -3 25 -1.5t48 5t61 8t65.5 7.5t62 3t49.5 -4q0 -12 -7.5 -25.5t-21.5 -16.5q-15 -2 -56.5 -7.5t-97.5 -11.5t-119 -12t-120.5 -8t-103.5 0t-67 11zM343 1014q13 13 22 18t15.5 6t11 -0.5t8.5 -1.5q16 -43 33.5 -62t34.5 -21t33 9
t29 26.5t21.5 32t11.5 26.5q31 0 42 -4.5t11 -13t-7 -20t-12 -26.5q-5 -14 -18.5 -31t-33.5 -31t-44.5 -20.5t-51 1t-54 34t-52.5 78.5z" />
    <glyph glyph-name="Icircumflex" unicode="&#xce;" 
d="M12 12q-1 4 3 10.5t9 12.5t10 10.5t7 6.5l199 7l162 707q-19 9 -44 6.5t-51.5 -7t-53.5 -7.5t-50 4q1 11 8.5 26t22.5 18l356 58q51 7 76.5 0.5t32.5 -18t-3 -23.5t-31 -14q-15 -2 -32 0t-38 2t-47.5 -5.5t-61.5 -21.5q-15 -35 -32.5 -93.5t-35.5 -127.5t-36 -143.5
t-34.5 -143t-30.5 -124.5t-23 -88q5 -3 25 -1.5t48 5t61 8t65.5 7.5t62 3t49.5 -4q0 -12 -7.5 -25.5t-21.5 -16.5q-15 -2 -56.5 -7.5t-97.5 -11.5t-119 -12t-120.5 -8t-103.5 0t-67 11zM452 1150q19 8 30 -5t19.5 -36.5t17 -52.5t23.5 -54q5 -15 15 -30.5t13.5 -28t-4.5 -21
t-39 -8.5q-6 -3 -15 10.5t-19.5 34.5t-22 45.5t-23.5 43.5q-14 -29 -27.5 -50t-30.5 -49q-4 -7 -9.5 -16.5t-13 -13.5t-17 2.5t-22.5 32.5z" />
    <glyph glyph-name="Idieresis" unicode="&#xcf;" 
d="M12 12q-1 4 3 10.5t9 12.5t10 10.5t7 6.5l199 7l162 707q-19 9 -44 6.5t-51.5 -7t-53.5 -7.5t-50 4q1 11 8.5 26t22.5 18l356 58q51 7 76.5 0.5t32.5 -18t-3 -23.5t-31 -14q-15 -2 -32 0t-38 2t-47.5 -5.5t-61.5 -21.5q-15 -35 -32.5 -93.5t-35.5 -127.5t-36 -143.5
t-34.5 -143t-30.5 -124.5t-23 -88q5 -3 25 -1.5t48 5t61 8t65.5 7.5t62 3t49.5 -4q0 -12 -7.5 -25.5t-21.5 -16.5q-15 -2 -56.5 -7.5t-97.5 -11.5t-119 -12t-120.5 -8t-103.5 0t-67 11zM339 927q0 20 13 32.5t29 16.5t29.5 -2t14.5 -23q4 -10 -6.5 -23.5t-26.5 -21t-31.5 -5
t-21.5 25.5zM490 927q0 20 13 32.5t29 16.5t29.5 -2t14.5 -23q4 -10 -6.5 -23.5t-26.5 -21t-31.5 -5t-21.5 25.5z" />
    <glyph glyph-name="Idotaccent" unicode="&#x130;" 
d="M12 12q-1 4 3 10.5t9 12.5t10 10.5t7 6.5l199 7l162 707q-19 9 -44 6.5t-51.5 -7t-53.5 -7.5t-50 4q1 11 8.5 26t22.5 18l356 58q51 7 76.5 0.5t32.5 -18t-3 -23.5t-31 -14q-15 -2 -32 0t-38 2t-47.5 -5.5t-61.5 -21.5q-15 -35 -32.5 -93.5t-35.5 -127.5t-36 -143.5
t-34.5 -143t-30.5 -124.5t-23 -88q5 -3 25 -1.5t48 5t61 8t65.5 7.5t62 3t49.5 -4q0 -12 -7.5 -25.5t-21.5 -16.5q-15 -2 -56.5 -7.5t-97.5 -11.5t-119 -12t-120.5 -8t-103.5 0t-67 11zM429 926q0 20 13 32.5t29 16.5t29.5 -2t14.5 -23q4 -10 -6.5 -23.5t-26.5 -21t-31.5 -5
t-21.5 25.5z" />
    <glyph glyph-name="Igrave" unicode="&#xcc;" 
d="M12 12q-1 4 3 10.5t9 12.5t10 10.5t7 6.5l199 7l162 707q-19 9 -44 6.5t-51.5 -7t-53.5 -7.5t-50 4q1 11 8.5 26t22.5 18l356 58q51 7 76.5 0.5t32.5 -18t-3 -23.5t-31 -14q-15 -2 -32 0t-38 2t-47.5 -5.5t-61.5 -21.5q-15 -35 -32.5 -93.5t-35.5 -127.5t-36 -143.5
t-34.5 -143t-30.5 -124.5t-23 -88q5 -3 25 -1.5t48 5t61 8t65.5 7.5t62 3t49.5 -4q0 -12 -7.5 -25.5t-21.5 -16.5q-15 -2 -56.5 -7.5t-97.5 -11.5t-119 -12t-120.5 -8t-103.5 0t-67 11zM378 1028q19 24 30 30.5t20 -0.5t18.5 -27t26.5 -49q5 -15 15 -30.5t13.5 -28t-4.5 -21
t-39 -8.5q-6 -3 -15 10.5t-19.5 34.5t-22 45.5t-23.5 43.5z" />
    <glyph glyph-name="Iogonek" unicode="&#x12e;" 
d="M12 12q-1 4 3 10.5t9 12.5t10 10.5t7 6.5l199 7l162 707q-19 9 -44 6.5t-51.5 -7t-53.5 -7.5t-50 4q1 11 8.5 26t22.5 18l356 58q51 7 76.5 0.5t32.5 -18t-3 -23.5t-31 -14q-15 -2 -32 0t-38 2t-47.5 -5.5t-61.5 -21.5q-15 -35 -32.5 -93.5t-35.5 -127.5t-36 -143.5
t-34.5 -143t-30.5 -124.5t-23 -88q5 -3 25 -1.5t48 5t61 8t65.5 7.5t62 3t49.5 -4q0 -12 -7.5 -25.5t-21.5 -16.5q-15 -2 -56.5 -7.5t-97.5 -11.5t-119 -12t-120.5 -8t-103.5 0t-67 11zM613 -88q-27 -38 -54 -45.5t-48.5 5t-35.5 40.5t-14.5 60t14.5 64t52 53l5 -62
q-17 -17 -18 -43.5t8.5 -45t26 -19.5t34.5 33z" />
    <glyph glyph-name="Imacron" 
d="M12 12q-1 4 3 10.5t9 12.5t10 10.5t7 6.5l199 7l162 707q-19 9 -44 6.5t-51.5 -7t-53.5 -7.5t-50 4q1 11 8.5 26t22.5 18l356 58q51 7 76.5 0.5t32.5 -18t-3 -23.5t-31 -14q-15 -2 -32 0t-38 2t-47.5 -5.5t-61.5 -21.5q-15 -35 -32.5 -93.5t-35.5 -127.5t-36 -143.5
t-34.5 -143t-30.5 -124.5t-23 -88q5 -3 25 -1.5t48 5t61 8t65.5 7.5t62 3t49.5 -4q0 -12 -7.5 -25.5t-21.5 -16.5q-15 -2 -56.5 -7.5t-97.5 -11.5t-119 -12t-120.5 -8t-103.5 0t-67 11zM319 913q-4 11 -1.5 25t16.5 19l240 10q15 -11 15 -29.5t-15 -29.5q-10 1 -32 -1
t-49.5 -4t-57 -4t-54.5 -1.5t-42 4t-20 11.5z" />
    <glyph glyph-name="Itilde" unicode="&#x128;" 
d="M12 12q-1 4 3 10.5t9 12.5t10 10.5t7 6.5l199 7l162 707q-19 9 -44 6.5t-51.5 -7t-53.5 -7.5t-50 4q1 11 8.5 26t22.5 18l356 58q51 7 76.5 0.5t32.5 -18t-3 -23.5t-31 -14q-15 -2 -32 0t-38 2t-47.5 -5.5t-61.5 -21.5q-15 -35 -32.5 -93.5t-35.5 -127.5t-36 -143.5
t-34.5 -143t-30.5 -124.5t-23 -88q5 -3 25 -1.5t48 5t61 8t65.5 7.5t62 3t49.5 -4q0 -12 -7.5 -25.5t-21.5 -16.5q-15 -2 -56.5 -7.5t-97.5 -11.5t-119 -12t-120.5 -8t-103.5 0t-67 11zM326 936q-12 -14 -25 -18.5t-22 1t-12 19.5t4 38q8 26 30 42.5t48.5 21t53 -5
t43.5 -34.5q27 -29 46 -38.5t32 -7.5t20 12.5t9.5 22t1 21t-5.5 9.5q3 19 11 26.5t17.5 5.5t18 -13.5t11.5 -30.5q6 -34 -8 -61.5t-40.5 -38t-62 0.5t-72.5 53q-30 25 -47.5 29.5t-27 -3t-14 -22.5t-9.5 -29z" />
    <glyph glyph-name="Jcircumflex" unicode="&#x134;" horiz-adv-x="459" 
d="M307 90q-25 -57 -51.5 -82.5t-52.5 -27.5t-51 15.5t-46.5 47t-37.5 66.5t-25 74q-6 23 -5 40t7.5 25t19.5 5.5t31 -18.5q2 -32 8.5 -66t17.5 -61t26.5 -44.5t34.5 -17.5t41.5 21t47.5 71q10 25 25.5 71t32.5 102.5t34 118.5t28.5 118.5t15.5 102.5t-3 71q-22 -4 -47 -10
t-49 -11t-45 -8t-33.5 0t-14.5 12.5t11 29.5q26 8 76 20t108 22.5t116 18.5t100 9t60 -6.5t-5 -27.5q-2 -8 -24.5 -12.5t-54 -9t-65 -10.5t-57.5 -17q-10 -83 -28.5 -169.5t-42 -169t-50 -157.5t-53.5 -136zM462 1096q19 8 30 -5t19.5 -36.5t17 -52.5t23.5 -54
q5 -15 15 -30.5t13.5 -28t-4.5 -21t-39 -8.5q-6 -3 -15 10.5t-19.5 34.5t-22 45.5t-23.5 43.5q-14 -29 -27.5 -50t-30.5 -49q-4 -7 -9.5 -16.5t-13 -13.5t-17 2.5t-22.5 32.5z" />
    <glyph glyph-name="Kcommaaccent" unicode="&#x136;" horiz-adv-x="561" 
d="M41 1q1 34 12 99t26.5 145t33 165.5t31 159.5t20.5 128.5t2 71.5q1 3 5 7t9 8t10 7t7 3q21 2 27 -21.5t3 -61.5t-12 -85.5t-19 -94t-18.5 -87t-8.5 -64.5q62 61 110.5 109t91 96t82.5 102t84 128q6 13 21 13.5t26 -4.5q-29 -77 -75 -144t-100 -129.5t-110.5 -123.5
t-106.5 -125l329 -235q18 -13 27 -30.5t8.5 -30.5t-11.5 -17t-33 10l-375 261q-3 -20 -6 -58t-9 -78.5t-15 -77t-23 -52.5q-4 -5 -10.5 -8.5t-13 -3.5t-12 4t-7.5 14zM239 -299q-1 0 -1 6t1 8q15 25 24.5 48t11.5 45.5t-6.5 45t-29.5 46.5q-10 28 0 43.5t27.5 15.5t36 -16
t24.5 -51q3 -6 5 -25.5t1.5 -43.5t-5 -50t-15.5 -45t-29 -28t-45 1z" />
    <glyph glyph-name="Lacute" unicode="&#x139;" horiz-adv-x="477" 
d="M165 838q17 6 31 8q11 2 21 -1t10 -16l-142 -761q29 -6 64 -2.5t72 12.5t73 20t66.5 20.5t53 14.5t31.5 1q21 -20 5 -36.5t-53 -30t-89 -24.5t-104 -19t-97.5 -14t-69.5 -10zM431 947q-12 -19 -23.5 -43.5t-22 -45.5t-19.5 -34.5t-15 -10.5q-31 0 -39 8.5t-4.5 21
t13.5 28t15 30.5q16 29 26 49t19 27t20 0.5t30 -30.5z" />
    <glyph glyph-name="Lcaron" unicode="&#x13d;" horiz-adv-x="477" 
d="M165 838q17 6 31 8q11 2 21 -1t10 -16l-142 -761q29 -6 64 -2.5t72 12.5t73 20t66.5 20.5t53 14.5t31.5 1q21 -20 5 -36.5t-53 -30t-89 -24.5t-104 -19t-97.5 -14t-69.5 -10zM313 682q-1 0 -1 6t1 8q15 25 24.5 48t11.5 45.5t-6.5 45t-29.5 46.5q-10 28 0 43.5t27.5 15.5
t36 -16t24.5 -51q3 -6 5 -25.5t1.5 -43.5t-5 -50t-15.5 -45t-29 -28t-45 1z" />
    <glyph glyph-name="Lcommaaccent" unicode="&#x13b;" horiz-adv-x="477" 
d="M165 838q17 6 31 8q11 2 21 -1t10 -16l-142 -761q29 -6 64 -2.5t72 12.5t73 20t66.5 20.5t53 14.5t31.5 1q21 -20 5 -36.5t-53 -30t-89 -24.5t-104 -19t-97.5 -14t-69.5 -10zM197 -299q-1 0 -1 6t1 8q15 25 24.5 48t11.5 45.5t-6.5 45t-29.5 46.5q-10 28 0 43.5
t27.5 15.5t36 -16t24.5 -51q3 -6 5 -25.5t1.5 -43.5t-5 -50t-15.5 -45t-29 -28t-45 1z" />
    <glyph glyph-name="Ldot" unicode="&#x13f;" horiz-adv-x="477" 
d="M165 838q17 6 31 8q11 2 21 -1t10 -16l-142 -761q29 -6 64 -2.5t72 12.5t73 20t66.5 20.5t53 14.5t31.5 1q21 -20 5 -36.5t-53 -30t-89 -24.5t-104 -19t-97.5 -14t-69.5 -10zM293 450q0 20 13 32.5t29 16.5t29.5 -2t14.5 -23q4 -10 -6.5 -23.5t-26.5 -21t-31.5 -5
t-21.5 25.5z" />
    <glyph glyph-name="Lslash" unicode="&#x141;" horiz-adv-x="477" 
d="M-12 312q-4 11 -1.5 25t16.5 19l242 49q15 -11 15 -29.5t-15 -29.5q-10 1 -32.5 -3.5t-50 -11t-57 -13.5t-55 -11t-42.5 -3.5t-20 8.5zM165 838q17 6 31 8q11 2 21 -1t10 -16l-142 -761q29 -6 64 -2.5t72 12.5t73 20t66.5 20.5t53 14.5t31.5 1q21 -20 5 -36.5t-53 -30
t-89 -24.5t-104 -19t-97.5 -14t-69.5 -10z" />
    <glyph glyph-name="Nacute" unicode="&#x143;" horiz-adv-x="650" 
d="M214 731l-122 -688q-10 -21 -22 -31t-22.5 -10.5t-17.5 8.5t-7 26q34 124 57 243t41 220.5t32.5 180.5t31 124.5t37.5 51.5t51 -38q50 -174 84.5 -294t57.5 -198.5t36.5 -122t21.5 -63.5t12 -23t8 -2q18 40 30.5 96.5t22.5 120.5t17.5 131.5t15.5 130.5t17 117t21.5 90.5
t29 51t39.5 -1.5q-11 -51 -17.5 -85.5t-11.5 -62t-9 -52.5t-9 -56.5t-12 -73.5t-17 -103.5t-24.5 -147.5t-35.5 -205q-12 -35 -29 -45.5t-32.5 -8.5t-27 10.5t-11.5 11.5zM508 993q-12 -19 -23.5 -43.5t-22 -45.5t-19.5 -34.5t-15 -10.5q-31 0 -39 8.5t-4.5 21t13.5 28
t15 30.5q16 29 26 49t19 27t20 0.5t30 -30.5z" />
    <glyph glyph-name="Ncaron" unicode="&#x147;" horiz-adv-x="650" 
d="M214 731l-122 -688q-10 -21 -22 -31t-22.5 -10.5t-17.5 8.5t-7 26q34 124 57 243t41 220.5t32.5 180.5t31 124.5t37.5 51.5t51 -38q50 -174 84.5 -294t57.5 -198.5t36.5 -122t21.5 -63.5t12 -23t8 -2q18 40 30.5 96.5t22.5 120.5t17.5 131.5t15.5 130.5t17 117t21.5 90.5
t29 51t39.5 -1.5q-11 -51 -17.5 -85.5t-11.5 -62t-9 -52.5t-9 -56.5t-12 -73.5t-17 -103.5t-24.5 -147.5t-35.5 -205q-12 -35 -29 -45.5t-32.5 -8.5t-27 10.5t-11.5 11.5zM303 1067q13 25 22.5 31.5t17 3t13 -13t9.5 -16.5q17 -28 30.5 -49t27.5 -50q12 19 23.5 43.5
t22 45.5t19.5 34.5t15 10.5q31 0 39 -8.5t4.5 -21t-13.5 -28t-15 -30.5q-15 -25 -23.5 -54t-17 -52.5t-19.5 -36.5t-30 -5z" />
    <glyph glyph-name="Ncommaaccent" unicode="&#x145;" horiz-adv-x="650" 
d="M214 731l-122 -688q-10 -21 -22 -31t-22.5 -10.5t-17.5 8.5t-7 26q34 124 57 243t41 220.5t32.5 180.5t31 124.5t37.5 51.5t51 -38q50 -174 84.5 -294t57.5 -198.5t36.5 -122t21.5 -63.5t12 -23t8 -2q18 40 30.5 96.5t22.5 120.5t17.5 131.5t15.5 130.5t17 117t21.5 90.5
t29 51t39.5 -1.5q-11 -51 -17.5 -85.5t-11.5 -62t-9 -52.5t-9 -56.5t-12 -73.5t-17 -103.5t-24.5 -147.5t-35.5 -205q-12 -35 -29 -45.5t-32.5 -8.5t-27 10.5t-11.5 11.5zM284 -299q-1 0 -1 6t1 8q15 25 24.5 48t11.5 45.5t-6.5 45t-29.5 46.5q-10 28 0 43.5t27.5 15.5
t36 -16t24.5 -51q3 -6 5 -25.5t1.5 -43.5t-5 -50t-15.5 -45t-29 -28t-45 1z" />
    <glyph glyph-name="Ntilde" unicode="&#xd1;" horiz-adv-x="650" 
d="M214 731l-122 -688q-10 -21 -22 -31t-22.5 -10.5t-17.5 8.5t-7 26q34 124 57 243t41 220.5t32.5 180.5t31 124.5t37.5 51.5t51 -38q50 -174 84.5 -294t57.5 -198.5t36.5 -122t21.5 -63.5t12 -23t8 -2q18 40 30.5 96.5t22.5 120.5t17.5 131.5t15.5 130.5t17 117t21.5 90.5
t29 51t39.5 -1.5q-11 -51 -17.5 -85.5t-11.5 -62t-9 -52.5t-9 -56.5t-12 -73.5t-17 -103.5t-24.5 -147.5t-35.5 -205q-12 -35 -29 -45.5t-32.5 -8.5t-27 10.5t-11.5 11.5zM297 932q-12 -14 -25 -18.5t-22 1t-12 19.5t4 38q8 26 30 42.5t48.5 21t53 -5t43.5 -34.5
q27 -29 46 -38.5t32 -7.5t20 12.5t9.5 22t1 21t-5.5 9.5q3 19 11 26.5t17.5 5.5t18 -13.5t11.5 -30.5q6 -34 -8 -61.5t-40.5 -38t-62 0.5t-72.5 53q-30 25 -47.5 29.5t-27 -3t-14 -22.5t-9.5 -29z" />
    <glyph glyph-name="Oacute" unicode="&#xd3;" horiz-adv-x="503" 
d="M81 10q-36 22 -51.5 76.5t-14 126.5t18.5 155t45.5 162t67 147.5t82.5 111t92 53t97 -26.5q43 -39 62 -100.5t18.5 -134t-19 -151t-49 -150.5t-71.5 -133.5t-87 -101t-95 -50.5t-96 16zM97 72q35 -29 74.5 -23t77.5 37t73 82t62.5 114t45.5 131.5t21.5 134.5t-9 124
t-46.5 99q-28 26 -60.5 16.5t-66.5 -44t-66.5 -89.5t-59.5 -119t-46.5 -133t-27.5 -132t-2 -115t30 -83zM360 1019q-12 -19 -23.5 -43.5t-22 -45.5t-19.5 -34.5t-15 -10.5q-31 0 -39 8.5t-4.5 21t13.5 28t15 30.5q16 29 26 49t19 27t20 0.5t30 -30.5z" />
    <glyph glyph-name="Ocircumflex" unicode="&#xd4;" horiz-adv-x="503" 
d="M81 10q-36 22 -51.5 76.5t-14 126.5t18.5 155t45.5 162t67 147.5t82.5 111t92 53t97 -26.5q43 -39 62 -100.5t18.5 -134t-19 -151t-49 -150.5t-71.5 -133.5t-87 -101t-95 -50.5t-96 16zM97 72q35 -29 74.5 -23t77.5 37t73 82t62.5 114t45.5 131.5t21.5 134.5t-9 124
t-46.5 99q-28 26 -60.5 16.5t-66.5 -44t-66.5 -89.5t-59.5 -119t-46.5 -133t-27.5 -132t-2 -115t30 -83zM333 1123q19 8 30 -5t19.5 -36.5t17 -52.5t23.5 -54q5 -15 15 -30.5t13.5 -28t-4.5 -21t-39 -8.5q-6 -3 -15 10.5t-19.5 34.5t-22 45.5t-23.5 43.5q-14 -29 -27.5 -50
t-30.5 -49q-4 -7 -9.5 -16.5t-13 -13.5t-17 2.5t-22.5 32.5z" />
    <glyph glyph-name="Obreve" unicode="&#x14e;" horiz-adv-x="503" 
d="M81 10q-36 22 -51.5 76.5t-14 126.5t18.5 155t45.5 162t67 147.5t82.5 111t92 53t97 -26.5q43 -39 62 -100.5t18.5 -134t-19 -151t-49 -150.5t-71.5 -133.5t-87 -101t-95 -50.5t-96 16zM97 72q35 -29 74.5 -23t77.5 37t73 82t62.5 114t45.5 131.5t21.5 134.5t-9 124
t-46.5 99q-28 26 -60.5 16.5t-66.5 -44t-66.5 -89.5t-59.5 -119t-46.5 -133t-27.5 -132t-2 -115t30 -83zM202 997q13 13 22 18t15.5 6t11 -0.5t8.5 -1.5q16 -43 33.5 -62t34.5 -21t33 9t29 26.5t21.5 32t11.5 26.5q31 0 42 -4.5t11 -13t-7 -20t-12 -26.5q-5 -14 -18.5 -31
t-33.5 -31t-44.5 -20.5t-51 1t-54 34t-52.5 78.5z" />
    <glyph glyph-name="Odieresis" unicode="&#xd6;" horiz-adv-x="503" 
d="M81 10q-36 22 -51.5 76.5t-14 126.5t18.5 155t45.5 162t67 147.5t82.5 111t92 53t97 -26.5q43 -39 62 -100.5t18.5 -134t-19 -151t-49 -150.5t-71.5 -133.5t-87 -101t-95 -50.5t-96 16zM97 72q35 -29 74.5 -23t77.5 37t73 82t62.5 114t45.5 131.5t21.5 134.5t-9 124
t-46.5 99q-28 26 -60.5 16.5t-66.5 -44t-66.5 -89.5t-59.5 -119t-46.5 -133t-27.5 -132t-2 -115t30 -83zM225 909q0 20 13 32.5t29 16.5t29.5 -2t14.5 -23q4 -10 -6.5 -23.5t-26.5 -21t-31.5 -5t-21.5 25.5zM376 909q0 20 13 32.5t29 16.5t29.5 -2t14.5 -23
q4 -10 -6.5 -23.5t-26.5 -21t-31.5 -5t-21.5 25.5z" />
    <glyph glyph-name="Ograve" unicode="&#xd2;" horiz-adv-x="503" 
d="M81 10q-36 22 -51.5 76.5t-14 126.5t18.5 155t45.5 162t67 147.5t82.5 111t92 53t97 -26.5q43 -39 62 -100.5t18.5 -134t-19 -151t-49 -150.5t-71.5 -133.5t-87 -101t-95 -50.5t-96 16zM97 72q35 -29 74.5 -23t77.5 37t73 82t62.5 114t45.5 131.5t21.5 134.5t-9 124
t-46.5 99q-28 26 -60.5 16.5t-66.5 -44t-66.5 -89.5t-59.5 -119t-46.5 -133t-27.5 -132t-2 -115t30 -83zM299 1019q19 24 30 30.5t20 -0.5t18.5 -27t26.5 -49q5 -15 15 -30.5t13.5 -28t-4.5 -21t-39 -8.5q-6 -3 -15 10.5t-19.5 34.5t-22 45.5t-23.5 43.5z" />
    <glyph glyph-name="Ohungarumlaut" unicode="&#x150;" horiz-adv-x="503" 
d="M81 10q-36 22 -51.5 76.5t-14 126.5t18.5 155t45.5 162t67 147.5t82.5 111t92 53t97 -26.5q43 -39 62 -100.5t18.5 -134t-19 -151t-49 -150.5t-71.5 -133.5t-87 -101t-95 -50.5t-96 16zM97 72q35 -29 74.5 -23t77.5 37t73 82t62.5 114t45.5 131.5t21.5 134.5t-9 124
t-46.5 99q-28 26 -60.5 16.5t-66.5 -44t-66.5 -89.5t-59.5 -119t-46.5 -133t-27.5 -132t-2 -115t30 -83zM407 1019q-12 -19 -23.5 -43.5t-22 -45.5t-19.5 -34.5t-15 -10.5q-31 0 -39 8.5t-4.5 21t13.5 28t15 30.5q16 29 26 49t19 27t20 0.5t30 -30.5zM527 1009
q-12 -19 -23.5 -43.5t-22 -45.5t-19.5 -34.5t-15 -10.5q-31 0 -39 8.5t-4.5 21t13.5 28t15 30.5q16 29 26 49t19 27t20 0.5t30 -30.5z" />
    <glyph glyph-name="Omacron" unicode="&#x14c;" horiz-adv-x="503" 
d="M81 10q-36 22 -51.5 76.5t-14 126.5t18.5 155t45.5 162t67 147.5t82.5 111t92 53t97 -26.5q43 -39 62 -100.5t18.5 -134t-19 -151t-49 -150.5t-71.5 -133.5t-87 -101t-95 -50.5t-96 16zM97 72q35 -29 74.5 -23t77.5 37t73 82t62.5 114t45.5 131.5t21.5 134.5t-9 124
t-46.5 99q-28 26 -60.5 16.5t-66.5 -44t-66.5 -89.5t-59.5 -119t-46.5 -133t-27.5 -132t-2 -115t30 -83zM223 904q-4 11 -1.5 25t16.5 19l240 10q15 -11 15 -29.5t-15 -29.5q-10 1 -32 -1t-49.5 -4t-57 -4t-54.5 -1.5t-42 4t-20 11.5z" />
    <glyph glyph-name="Oslash" unicode="&#xd8;" horiz-adv-x="503" 
d="M81 10q-36 22 -51.5 76.5t-14 126.5t18.5 155t45.5 162t67 147.5t82.5 111t92 53t97 -26.5q43 -39 62 -100.5t18.5 -134t-19 -151t-49 -150.5t-71.5 -133.5t-87 -101t-95 -50.5t-96 16zM97 72q35 -29 74.5 -23t77.5 37t73 82t62.5 114t45.5 131.5t21.5 134.5t-9 124
t-46.5 99q-28 26 -60.5 16.5t-66.5 -44t-66.5 -89.5t-59.5 -119t-46.5 -133t-27.5 -132t-2 -115t30 -83zM46 36q25 60 53.5 131.5t58.5 146.5t60.5 149.5t60 140.5t56.5 118.5t50 85t41.5 39.5t29.5 -18q-78 -162 -133.5 -284t-93.5 -210t-60 -146.5t-34 -94t-16.5 -52
t-5.5 -20.5q-2 -5 -11 -9.5t-20.5 -5.5t-22 5t-13.5 24z" />
    <glyph glyph-name="Oslashacute" unicode="&#x1fe;" horiz-adv-x="503" 
d="M81 10q-36 22 -51.5 76.5t-14 126.5t18.5 155t45.5 162t67 147.5t82.5 111t92 53t97 -26.5q43 -39 62 -100.5t18.5 -134t-19 -151t-49 -150.5t-71.5 -133.5t-87 -101t-95 -50.5t-96 16zM97 72q35 -29 74.5 -23t77.5 37t73 82t62.5 114t45.5 131.5t21.5 134.5t-9 124
t-46.5 99q-28 26 -60.5 16.5t-66.5 -44t-66.5 -89.5t-59.5 -119t-46.5 -133t-27.5 -132t-2 -115t30 -83zM46 36q25 60 53.5 131.5t58.5 146.5t60.5 149.5t60 140.5t56.5 118.5t50 85t41.5 39.5t29.5 -18q-78 -162 -133.5 -284t-93.5 -210t-60 -146.5t-34 -94t-16.5 -52
t-5.5 -20.5q-2 -5 -11 -9.5t-20.5 -5.5t-22 5t-13.5 24zM404 1014q-12 -19 -23.5 -43.5t-22 -45.5t-19.5 -34.5t-15 -10.5q-31 0 -39 8.5t-4.5 21t13.5 28t15 30.5q16 29 26 49t19 27t20 0.5t30 -30.5z" />
    <glyph glyph-name="Otilde" unicode="&#xd5;" horiz-adv-x="503" 
d="M81 10q-36 22 -51.5 76.5t-14 126.5t18.5 155t45.5 162t67 147.5t82.5 111t92 53t97 -26.5q43 -39 62 -100.5t18.5 -134t-19 -151t-49 -150.5t-71.5 -133.5t-87 -101t-95 -50.5t-96 16zM97 72q35 -29 74.5 -23t77.5 37t73 82t62.5 114t45.5 131.5t21.5 134.5t-9 124
t-46.5 99q-28 26 -60.5 16.5t-66.5 -44t-66.5 -89.5t-59.5 -119t-46.5 -133t-27.5 -132t-2 -115t30 -83zM273 932q-12 -14 -25 -18.5t-22 1t-12 19.5t4 38q8 26 30 42.5t48.5 21t53 -5t43.5 -34.5q27 -29 46 -38.5t32 -7.5t20 12.5t9.5 22t1 21t-5.5 9.5q3 19 11 26.5
t17.5 5.5t18 -13.5t11.5 -30.5q6 -34 -8 -61.5t-40.5 -38t-62 0.5t-72.5 53q-30 25 -47.5 29.5t-27 -3t-14 -22.5t-9.5 -29z" />
    <glyph glyph-name="OE" unicode="&#x152;" horiz-adv-x="878" 
d="M775 200q28 -4 27 -16.5t-22.5 -29.5t-58.5 -36t-81 -36.5t-90.5 -30.5t-85.5 -17t-67 2t-36 28q2 11 7.5 35.5t11.5 55t13 64t13 64t10.5 54.5t6.5 36q4 4 8 14t7 23t4.5 26.5t1.5 24.5q18 45 31.5 78.5t26.5 64.5t28.5 64.5t38.5 77.5q39 28 90 45t106.5 29t111 23
t104.5 26q3 -14 -4.5 -26t-20.5 -22t-27.5 -17t-25.5 -10q-14 -3 -49.5 -12t-75 -19t-75 -19t-49.5 -12q-33 -18 -55.5 -49.5t-37.5 -66t-23.5 -68t-12.5 -57.5q31 -9 68 2.5t75.5 27.5t77 28t73.5 4q9 -12 -10.5 -25t-54 -27t-77 -28t-80.5 -27t-65 -24t-29 -19l-72 -294
q-1 -14 18 -17t49.5 2t68.5 15.5t76.5 25.5t73.5 31.5t58 33.5zM81 10q-36 22 -51.5 76.5t-14 126.5t18.5 155t45.5 162t67 147.5t82.5 111t92 53t97 -26.5q43 -39 62 -100.5t18.5 -134t-19 -151t-49 -150.5t-71.5 -133.5t-87 -101t-95 -50.5t-96 16zM97 72q35 -29 74.5 -23
t77.5 37t73 82t62.5 114t45.5 131.5t21.5 134.5t-9 124t-46.5 99q-28 26 -60.5 16.5t-66.5 -44t-66.5 -89.5t-59.5 -119t-46.5 -133t-27.5 -132t-2 -115t30 -83z" />
    <glyph glyph-name="Racute" unicode="&#x154;" horiz-adv-x="490" 
d="M415 23q-6 3 -19 24t-31.5 52t-41 68t-48 72.5t-53 65t-55.5 45.5l-97 -313q-2 -8 -11 -14t-19.5 -9.5t-20.5 -3.5t-15 4q36 96 62.5 188t50.5 184.5t49.5 188t60.5 200.5q104 54 173.5 55t104 -32t34.5 -90.5t-34.5 -119.5t-103.5 -119t-172 -90l243 -317q9 -14 5.5 -24
t-13.5 -15.5t-23.5 -6t-25.5 6.5zM264 723q-2 -9 -8 -31.5t-14 -52t-17 -62.5t-17 -62.5t-14 -52.5t-8 -32q62 10 113.5 36.5t89.5 61.5t62.5 73.5t33 73.5t0.5 61.5t-34.5 36.5t-73 -0.5t-113.5 -49.5zM442 988q-12 -19 -23.5 -43.5t-22 -45.5t-19.5 -34.5t-15 -10.5
q-31 0 -39 8.5t-4.5 21t13.5 28t15 30.5q16 29 26 49t19 27t20 0.5t30 -30.5z" />
    <glyph glyph-name="Rcaron" unicode="&#x158;" horiz-adv-x="490" 
d="M415 23q-6 3 -19 24t-31.5 52t-41 68t-48 72.5t-53 65t-55.5 45.5l-97 -313q-2 -8 -11 -14t-19.5 -9.5t-20.5 -3.5t-15 4q36 96 62.5 188t50.5 184.5t49.5 188t60.5 200.5q104 54 173.5 55t104 -32t34.5 -90.5t-34.5 -119.5t-103.5 -119t-172 -90l243 -317q9 -14 5.5 -24
t-13.5 -15.5t-23.5 -6t-25.5 6.5zM264 723q-2 -9 -8 -31.5t-14 -52t-17 -62.5t-17 -62.5t-14 -52.5t-8 -32q62 10 113.5 36.5t89.5 61.5t62.5 73.5t33 73.5t0.5 61.5t-34.5 36.5t-73 -0.5t-113.5 -49.5zM241 1062q13 25 22.5 31.5t17 3t13 -13t9.5 -16.5q17 -28 30.5 -49
t27.5 -50q12 19 23.5 43.5t22 45.5t19.5 34.5t15 10.5q31 0 39 -8.5t4.5 -21t-13.5 -28t-15 -30.5q-15 -25 -23.5 -54t-17 -52.5t-19.5 -36.5t-30 -5z" />
    <glyph glyph-name="Rcommaaccent" unicode="&#x156;" horiz-adv-x="490" 
d="M415 23q-6 3 -19 24t-31.5 52t-41 68t-48 72.5t-53 65t-55.5 45.5l-97 -313q-2 -8 -11 -14t-19.5 -9.5t-20.5 -3.5t-15 4q36 96 62.5 188t50.5 184.5t49.5 188t60.5 200.5q104 54 173.5 55t104 -32t34.5 -90.5t-34.5 -119.5t-103.5 -119t-172 -90l243 -317q9 -14 5.5 -24
t-13.5 -15.5t-23.5 -6t-25.5 6.5zM264 723q-2 -9 -8 -31.5t-14 -52t-17 -62.5t-17 -62.5t-14 -52.5t-8 -32q62 10 113.5 36.5t89.5 61.5t62.5 73.5t33 73.5t0.5 61.5t-34.5 36.5t-73 -0.5t-113.5 -49.5zM204 -299q-1 0 -1 6t1 8q15 25 24.5 48t11.5 45.5t-6.5 45t-29.5 46.5
q-10 28 0 43.5t27.5 15.5t36 -16t24.5 -51q3 -6 5 -25.5t1.5 -43.5t-5 -50t-15.5 -45t-29 -28t-45 1z" />
    <glyph glyph-name="Sacute" unicode="&#x15a;" horiz-adv-x="419" 
d="M35 16q-2 4 -6 11.5t-6 15t0 13t12 7.5q16 2 47.5 14t68.5 32.5t75 48t67 60t44.5 69t8.5 74.5q-12 15 -37 16t-56 -4t-65.5 -12t-65.5 -6.5t-56.5 12t-38.5 43.5q-9 49 5.5 98.5t43.5 95t68 85.5t80 69.5t79.5 47t66.5 19t41 -15t3 -55.5q-1 10 -17.5 11.5t-43 -5
t-59.5 -20.5t-66 -36t-63.5 -50.5t-51.5 -64t-30 -77t0 -89.5q17 -16 37 -19t42 1t45.5 12t46.5 15t45.5 10t42.5 -4q42 -25 53 -63t-2.5 -81t-47.5 -88t-82 -83.5t-107 -67t-121 -39.5zM291 970q-12 -19 -23.5 -43.5t-22 -45.5t-19.5 -34.5t-15 -10.5q-31 0 -39 8.5
t-4.5 21t13.5 28t15 30.5q16 29 26 49t19 27t20 0.5t30 -30.5z" />
    <glyph glyph-name="Scaron" unicode="&#x160;" horiz-adv-x="419" 
d="M35 16q-2 4 -6 11.5t-6 15t0 13t12 7.5q16 2 47.5 14t68.5 32.5t75 48t67 60t44.5 69t8.5 74.5q-12 15 -37 16t-56 -4t-65.5 -12t-65.5 -6.5t-56.5 12t-38.5 43.5q-9 49 5.5 98.5t43.5 95t68 85.5t80 69.5t79.5 47t66.5 19t41 -15t3 -55.5q-1 10 -17.5 11.5t-43 -5
t-59.5 -20.5t-66 -36t-63.5 -50.5t-51.5 -64t-30 -77t0 -89.5q17 -16 37 -19t42 1t45.5 12t46.5 15t45.5 10t42.5 -4q42 -25 53 -63t-2.5 -81t-47.5 -88t-82 -83.5t-107 -67t-121 -39.5zM68 1049q13 25 22.5 31.5t17 3t13 -13t9.5 -16.5q17 -28 30.5 -49t27.5 -50
q12 19 23.5 43.5t22 45.5t19.5 34.5t15 10.5q31 0 39 -8.5t4.5 -21t-13.5 -28t-15 -30.5q-15 -25 -23.5 -54t-17 -52.5t-19.5 -36.5t-30 -5z" />
    <glyph glyph-name="Scedilla" unicode="&#x15e;" horiz-adv-x="419" 
d="M35 16q-2 4 -6 11.5t-6 15t0 13t12 7.5q16 2 47.5 14t68.5 32.5t75 48t67 60t44.5 69t8.5 74.5q-12 15 -37 16t-56 -4t-65.5 -12t-65.5 -6.5t-56.5 12t-38.5 43.5q-9 49 5.5 98.5t43.5 95t68 85.5t80 69.5t79.5 47t66.5 19t41 -15t3 -55.5q-1 10 -17.5 11.5t-43 -5
t-59.5 -20.5t-66 -36t-63.5 -50.5t-51.5 -64t-30 -77t0 -89.5q17 -16 37 -19t42 1t45.5 12t46.5 15t45.5 10t42.5 -4q42 -25 53 -63t-2.5 -81t-47.5 -88t-82 -83.5t-107 -67t-121 -39.5zM107 -102q-1 -6 12 -2.5t29.5 12t31 20.5t17.5 22.5t-11.5 17.5t-55.5 7q-7 0 -11 12
t-5.5 28t0.5 32.5t7 27t14 11.5t22 -14l4 -63q44 0 64.5 -11t23.5 -27t-8.5 -34.5t-30.5 -35.5t-43.5 -29t-46.5 -14q-12 -1 -17 2.5t-6 9.5t2 13.5t8 14.5z" />
    <glyph glyph-name="Scircumflex" unicode="&#x15c;" horiz-adv-x="419" 
d="M35 16q-2 4 -6 11.5t-6 15t0 13t12 7.5q16 2 47.5 14t68.5 32.5t75 48t67 60t44.5 69t8.5 74.5q-12 15 -37 16t-56 -4t-65.5 -12t-65.5 -6.5t-56.5 12t-38.5 43.5q-9 49 5.5 98.5t43.5 95t68 85.5t80 69.5t79.5 47t66.5 19t41 -15t3 -55.5q-1 10 -17.5 11.5t-43 -5
t-59.5 -20.5t-66 -36t-63.5 -50.5t-51.5 -64t-30 -77t0 -89.5q17 -16 37 -19t42 1t45.5 12t46.5 15t45.5 10t42.5 -4q42 -25 53 -63t-2.5 -81t-47.5 -88t-82 -83.5t-107 -67t-121 -39.5zM291 1101q19 8 30 -5t19.5 -36.5t17 -52.5t23.5 -54q5 -15 15 -30.5t13.5 -28
t-4.5 -21t-39 -8.5q-6 -3 -15 10.5t-19.5 34.5t-22 45.5t-23.5 43.5q-14 -29 -27.5 -50t-30.5 -49q-4 -7 -9.5 -16.5t-13 -13.5t-17 2.5t-22.5 32.5z" />
    <glyph glyph-name="Scommaaccent" unicode="&#x218;" horiz-adv-x="419" 
d="M35 16q-2 4 -6 11.5t-6 15t0 13t12 7.5q16 2 47.5 14t68.5 32.5t75 48t67 60t44.5 69t8.5 74.5q-12 15 -37 16t-56 -4t-65.5 -12t-65.5 -6.5t-56.5 12t-38.5 43.5q-9 49 5.5 98.5t43.5 95t68 85.5t80 69.5t79.5 47t66.5 19t41 -15t3 -55.5q-1 10 -17.5 11.5t-43 -5
t-59.5 -20.5t-66 -36t-63.5 -50.5t-51.5 -64t-30 -77t0 -89.5q17 -16 37 -19t42 1t45.5 12t46.5 15t45.5 10t42.5 -4q42 -25 53 -63t-2.5 -81t-47.5 -88t-82 -83.5t-107 -67t-121 -39.5zM168 -299q-1 0 -1 6t1 8q15 25 24.5 48t11.5 45.5t-6.5 45t-29.5 46.5q-10 28 0 43.5
t27.5 15.5t36 -16t24.5 -51q3 -6 5 -25.5t1.5 -43.5t-5 -50t-15.5 -45t-29 -28t-45 1z" />
    <glyph glyph-name="Tbar" unicode="&#x166;" horiz-adv-x="396" 
d="M125 535q-4 11 -1.5 25t16.5 19l301 41q15 -11 15 -29.5t-15 -29.5q-10 1 -37 -3t-61 -9.5t-71.5 -11.5t-69 -9t-53 -2t-24.5 9zM294 734l-281 -39q-18 4 -21 14.5t4.5 21.5t22.5 19.5t32 9.5l605 76q-5 -4 -10 -13t-9 -18.5t-7.5 -16.5t-5.5 -8l-268 -32l-174 -730
q-22 -18 -40.5 -14t-21.5 18z" />
    <glyph glyph-name="Tcaron" unicode="&#x164;" horiz-adv-x="396" 
d="M294 734l-281 -39q-18 4 -21 14.5t4.5 21.5t22.5 19.5t32 9.5l605 76q-5 -4 -10 -13t-9 -18.5t-7.5 -16.5t-5.5 -8l-268 -32l-174 -730q-22 -18 -40.5 -14t-21.5 18zM204 1053q13 25 22.5 31.5t17 3t13 -13t9.5 -16.5q17 -28 30.5 -49t27.5 -50q12 19 23.5 43.5t22 45.5
t19.5 34.5t15 10.5q31 0 39 -8.5t4.5 -21t-13.5 -28t-15 -30.5q-15 -25 -23.5 -54t-17 -52.5t-19.5 -36.5t-30 -5z" />
    <glyph glyph-name="Tcommaaccent" unicode="&#x162;" horiz-adv-x="396" 
d="M294 734l-281 -39q-18 4 -21 14.5t4.5 21.5t22.5 19.5t32 9.5l605 76q-5 -4 -10 -13t-9 -18.5t-7.5 -16.5t-5.5 -8l-268 -32l-174 -730q-22 -18 -40.5 -14t-21.5 18zM117 -321q-1 0 -1 6t1 8q15 25 24.5 48t11.5 45.5t-6.5 45t-29.5 46.5q-10 28 0 43.5t27.5 15.5t36 -16
t24.5 -51q3 -6 5 -25.5t1.5 -43.5t-5 -50t-15.5 -45t-29 -28t-45 1z" />
    <glyph glyph-name="Uacute" unicode="&#xda;" horiz-adv-x="521" 
d="M467 22q-36 -27 -55 -14t-25.5 53.5t-3 100.5t12.5 128q-21 -36 -52 -82.5t-71 -89t-88.5 -74t-104.5 -37.5q-36 16 -54 57.5t-22 99t3.5 126.5t22 140t34.5 139t40 124t38 94.5t30 50.5q8 11 20 15t21.5 1.5t14.5 -10t-1 -20.5q-16 -23 -35.5 -73.5t-39.5 -116
t-37.5 -139t-29 -143t-14.5 -128.5t7 -95t34 -42t68 31q71 45 123.5 121.5t93 171.5t72.5 201.5t61 210.5q3 4 14.5 10t23.5 10t20 2.5t5 -12.5q-58 -189 -90.5 -321.5t-46.5 -221.5t-14.5 -141t5 -79t12.5 -36t8 -12zM476 1005q-12 -19 -23.5 -43.5t-22 -45.5t-19.5 -34.5
t-15 -10.5q-31 0 -39 8.5t-4.5 21t13.5 28t15 30.5q16 29 26 49t19 27t20 0.5t30 -30.5z" />
    <glyph glyph-name="Ubreve" unicode="&#x16c;" horiz-adv-x="521" 
d="M467 22q-36 -27 -55 -14t-25.5 53.5t-3 100.5t12.5 128q-21 -36 -52 -82.5t-71 -89t-88.5 -74t-104.5 -37.5q-36 16 -54 57.5t-22 99t3.5 126.5t22 140t34.5 139t40 124t38 94.5t30 50.5q8 11 20 15t21.5 1.5t14.5 -10t-1 -20.5q-16 -23 -35.5 -73.5t-39.5 -116
t-37.5 -139t-29 -143t-14.5 -128.5t7 -95t34 -42t68 31q71 45 123.5 121.5t93 171.5t72.5 201.5t61 210.5q3 4 14.5 10t23.5 10t20 2.5t5 -12.5q-58 -189 -90.5 -321.5t-46.5 -221.5t-14.5 -141t5 -79t12.5 -36t8 -12zM260 983q13 13 22 18t15.5 6t11 -0.5t8.5 -1.5
q16 -43 33.5 -62t34.5 -21t33 9t29 26.5t21.5 32t11.5 26.5q31 0 42 -4.5t11 -13t-7 -20t-12 -26.5q-5 -14 -18.5 -31t-33.5 -31t-44.5 -20.5t-51 1t-54 34t-52.5 78.5z" />
    <glyph glyph-name="Ucircumflex" unicode="&#xdb;" horiz-adv-x="521" 
d="M467 22q-36 -27 -55 -14t-25.5 53.5t-3 100.5t12.5 128q-21 -36 -52 -82.5t-71 -89t-88.5 -74t-104.5 -37.5q-36 16 -54 57.5t-22 99t3.5 126.5t22 140t34.5 139t40 124t38 94.5t30 50.5q8 11 20 15t21.5 1.5t14.5 -10t-1 -20.5q-16 -23 -35.5 -73.5t-39.5 -116
t-37.5 -139t-29 -143t-14.5 -128.5t7 -95t34 -42t68 31q71 45 123.5 121.5t93 171.5t72.5 201.5t61 210.5q3 4 14.5 10t23.5 10t20 2.5t5 -12.5q-58 -189 -90.5 -321.5t-46.5 -221.5t-14.5 -141t5 -79t12.5 -36t8 -12zM405 1119q19 8 30 -5t19.5 -36.5t17 -52.5t23.5 -54
q5 -15 15 -30.5t13.5 -28t-4.5 -21t-39 -8.5q-6 -3 -15 10.5t-19.5 34.5t-22 45.5t-23.5 43.5q-14 -29 -27.5 -50t-30.5 -49q-4 -7 -9.5 -16.5t-13 -13.5t-17 2.5t-22.5 32.5z" />
    <glyph glyph-name="Udieresis" unicode="&#xdc;" horiz-adv-x="521" 
d="M467 22q-36 -27 -55 -14t-25.5 53.5t-3 100.5t12.5 128q-21 -36 -52 -82.5t-71 -89t-88.5 -74t-104.5 -37.5q-36 16 -54 57.5t-22 99t3.5 126.5t22 140t34.5 139t40 124t38 94.5t30 50.5q8 11 20 15t21.5 1.5t14.5 -10t-1 -20.5q-16 -23 -35.5 -73.5t-39.5 -116
t-37.5 -139t-29 -143t-14.5 -128.5t7 -95t34 -42t68 31q71 45 123.5 121.5t93 171.5t72.5 201.5t61 210.5q3 4 14.5 10t23.5 10t20 2.5t5 -12.5q-58 -189 -90.5 -321.5t-46.5 -221.5t-14.5 -141t5 -79t12.5 -36t8 -12zM292 918q0 20 13 32.5t29 16.5t29.5 -2t14.5 -23
q4 -10 -6.5 -23.5t-26.5 -21t-31.5 -5t-21.5 25.5zM443 918q0 20 13 32.5t29 16.5t29.5 -2t14.5 -23q4 -10 -6.5 -23.5t-26.5 -21t-31.5 -5t-21.5 25.5z" />
    <glyph glyph-name="Ugrave" unicode="&#xd9;" horiz-adv-x="521" 
d="M467 22q-36 -27 -55 -14t-25.5 53.5t-3 100.5t12.5 128q-21 -36 -52 -82.5t-71 -89t-88.5 -74t-104.5 -37.5q-36 16 -54 57.5t-22 99t3.5 126.5t22 140t34.5 139t40 124t38 94.5t30 50.5q8 11 20 15t21.5 1.5t14.5 -10t-1 -20.5q-16 -23 -35.5 -73.5t-39.5 -116
t-37.5 -139t-29 -143t-14.5 -128.5t7 -95t34 -42t68 31q71 45 123.5 121.5t93 171.5t72.5 201.5t61 210.5q3 4 14.5 10t23.5 10t20 2.5t5 -12.5q-58 -189 -90.5 -321.5t-46.5 -221.5t-14.5 -141t5 -79t12.5 -36t8 -12zM290 1002q19 24 30 30.5t20 -0.5t18.5 -27t26.5 -49
q5 -15 15 -30.5t13.5 -28t-4.5 -21t-39 -8.5q-6 -3 -15 10.5t-19.5 34.5t-22 45.5t-23.5 43.5z" />
    <glyph glyph-name="Uhungarumlaut" unicode="&#x170;" horiz-adv-x="521" 
d="M467 22q-36 -27 -55 -14t-25.5 53.5t-3 100.5t12.5 128q-21 -36 -52 -82.5t-71 -89t-88.5 -74t-104.5 -37.5q-36 16 -54 57.5t-22 99t3.5 126.5t22 140t34.5 139t40 124t38 94.5t30 50.5q8 11 20 15t21.5 1.5t14.5 -10t-1 -20.5q-16 -23 -35.5 -73.5t-39.5 -116
t-37.5 -139t-29 -143t-14.5 -128.5t7 -95t34 -42t68 31q71 45 123.5 121.5t93 171.5t72.5 201.5t61 210.5q3 4 14.5 10t23.5 10t20 2.5t5 -12.5q-58 -189 -90.5 -321.5t-46.5 -221.5t-14.5 -141t5 -79t12.5 -36t8 -12zM433 1014q-12 -19 -23.5 -43.5t-22 -45.5t-19.5 -34.5
t-15 -10.5q-31 0 -39 8.5t-4.5 21t13.5 28t15 30.5q16 29 26 49t19 27t20 0.5t30 -30.5zM553 1004q-12 -19 -23.5 -43.5t-22 -45.5t-19.5 -34.5t-15 -10.5q-31 0 -39 8.5t-4.5 21t13.5 28t15 30.5q16 29 26 49t19 27t20 0.5t30 -30.5z" />
    <glyph glyph-name="Umacron" unicode="&#x16a;" horiz-adv-x="521" 
d="M467 22q-36 -27 -55 -14t-25.5 53.5t-3 100.5t12.5 128q-21 -36 -52 -82.5t-71 -89t-88.5 -74t-104.5 -37.5q-36 16 -54 57.5t-22 99t3.5 126.5t22 140t34.5 139t40 124t38 94.5t30 50.5q8 11 20 15t21.5 1.5t14.5 -10t-1 -20.5q-16 -23 -35.5 -73.5t-39.5 -116
t-37.5 -139t-29 -143t-14.5 -128.5t7 -95t34 -42t68 31q71 45 123.5 121.5t93 171.5t72.5 201.5t61 210.5q3 4 14.5 10t23.5 10t20 2.5t5 -12.5q-58 -189 -90.5 -321.5t-46.5 -221.5t-14.5 -141t5 -79t12.5 -36t8 -12zM276 908q-4 11 -1.5 25t16.5 19l240 10
q15 -11 15 -29.5t-15 -29.5q-10 1 -32 -1t-49.5 -4t-57 -4t-54.5 -1.5t-42 4t-20 11.5z" />
    <glyph glyph-name="Uogonek" unicode="&#x172;" horiz-adv-x="521" 
d="M467 22q-36 -27 -55 -14t-25.5 53.5t-3 100.5t12.5 128q-21 -36 -52 -82.5t-71 -89t-88.5 -74t-104.5 -37.5q-36 16 -54 57.5t-22 99t3.5 126.5t22 140t34.5 139t40 124t38 94.5t30 50.5q8 11 20 15t21.5 1.5t14.5 -10t-1 -20.5q-16 -23 -35.5 -73.5t-39.5 -116
t-37.5 -139t-29 -143t-14.5 -128.5t7 -95t34 -42t68 31q71 45 123.5 121.5t93 171.5t72.5 201.5t61 210.5q3 4 14.5 10t23.5 10t20 2.5t5 -12.5q-58 -189 -90.5 -321.5t-46.5 -221.5t-14.5 -141t5 -79t12.5 -36t8 -12zM499 -84q-27 -38 -54 -45.5t-48.5 5t-35.5 40.5
t-14.5 60t14.5 64t52 53l5 -62q-17 -17 -18 -43.5t8.5 -45t26 -19.5t34.5 33z" />
    <glyph glyph-name="Uring" unicode="&#x16e;" horiz-adv-x="521" 
d="M467 22q-36 -27 -55 -14t-25.5 53.5t-3 100.5t12.5 128q-21 -36 -52 -82.5t-71 -89t-88.5 -74t-104.5 -37.5q-36 16 -54 57.5t-22 99t3.5 126.5t22 140t34.5 139t40 124t38 94.5t30 50.5q8 11 20 15t21.5 1.5t14.5 -10t-1 -20.5q-16 -23 -35.5 -73.5t-39.5 -116
t-37.5 -139t-29 -143t-14.5 -128.5t7 -95t34 -42t68 31q71 45 123.5 121.5t93 171.5t72.5 201.5t61 210.5q3 4 14.5 10t23.5 10t20 2.5t5 -12.5q-58 -189 -90.5 -321.5t-46.5 -221.5t-14.5 -141t5 -79t12.5 -36t8 -12zM359 865q-36 1 -54.5 17t-22.5 37t6 42.5t31 33.5
q60 22 99 20.5t58.5 -16.5t20.5 -39t-15 -46t-47 -37t-76 -12zM325 948q-4 -21 4 -32t22 -14.5t31.5 -0.5t32.5 9.5t25 14.5t9 16q0 19 -8.5 29t-21 13t-28 0.5t-29 -8t-24 -13t-13.5 -14.5z" />
    <glyph glyph-name="Utilde" unicode="&#x168;" horiz-adv-x="521" 
d="M467 22q-36 -27 -55 -14t-25.5 53.5t-3 100.5t12.5 128q-21 -36 -52 -82.5t-71 -89t-88.5 -74t-104.5 -37.5q-36 16 -54 57.5t-22 99t3.5 126.5t22 140t34.5 139t40 124t38 94.5t30 50.5q8 11 20 15t21.5 1.5t14.5 -10t-1 -20.5q-16 -23 -35.5 -73.5t-39.5 -116
t-37.5 -139t-29 -143t-14.5 -128.5t7 -95t34 -42t68 31q71 45 123.5 121.5t93 171.5t72.5 201.5t61 210.5q3 4 14.5 10t23.5 10t20 2.5t5 -12.5q-58 -189 -90.5 -321.5t-46.5 -221.5t-14.5 -141t5 -79t12.5 -36t8 -12zM305 923q-12 -14 -25 -18.5t-22 1t-12 19.5t4 38
q8 26 30 42.5t48.5 21t53 -5t43.5 -34.5q27 -29 46 -38.5t32 -7.5t20 12.5t9.5 22t1 21t-5.5 9.5q3 19 11 26.5t17.5 5.5t18 -13.5t11.5 -30.5q6 -34 -8 -61.5t-40.5 -38t-62 0.5t-72.5 53q-30 25 -47.5 29.5t-27 -3t-14 -22.5t-9.5 -29z" />
    <glyph glyph-name="Wcircumflex" unicode="&#x174;" horiz-adv-x="748" 
d="M47 803q-17 24 -10.5 47.5t21.5 34.5t31 5t19 -42l79 -700l165 540q6 20 17 21t22.5 -7.5t21 -21.5t11.5 -20l108 -557q29 68 66.5 159.5t80 193.5t88.5 209t92 206q19 25 31.5 23t15.5 -20t-5.5 -47t-31.5 -59l-279 -709q-16 -37 -30 -51.5t-26 -13t-22.5 17t-19.5 39
t-17.5 51t-15.5 54.5q-4 13 -10 47.5t-13.5 78.5t-15.5 93.5t-15 94t-13 79t-9 48.5l-175 -543q-2 -7 -12.5 -11t-22.5 -2.5t-22.5 10t-12.5 25.5zM357 1087q19 8 30 -5t19.5 -36.5t17 -52.5t23.5 -54q5 -15 15 -30.5t13.5 -28t-4.5 -21t-39 -8.5q-6 -3 -15 10.5t-19.5 34.5
t-22 45.5t-23.5 43.5q-14 -29 -27.5 -50t-30.5 -49q-4 -7 -9.5 -16.5t-13 -13.5t-17 2.5t-22.5 32.5z" />
    <glyph glyph-name="Wacute" unicode="&#x1e82;" horiz-adv-x="748" 
d="M47 803q-17 24 -10.5 47.5t21.5 34.5t31 5t19 -42l79 -700l165 540q6 20 17 21t22.5 -7.5t21 -21.5t11.5 -20l108 -557q29 68 66.5 159.5t80 193.5t88.5 209t92 206q19 25 31.5 23t15.5 -20t-5.5 -47t-31.5 -59l-279 -709q-16 -37 -30 -51.5t-26 -13t-22.5 17t-19.5 39
t-17.5 51t-15.5 54.5q-4 13 -10 47.5t-13.5 78.5t-15.5 93.5t-15 94t-13 79t-9 48.5l-175 -543q-2 -7 -12.5 -11t-22.5 -2.5t-22.5 10t-12.5 25.5zM508 1032q-12 -19 -23.5 -43.5t-22 -45.5t-19.5 -34.5t-15 -10.5q-31 0 -39 8.5t-4.5 21t13.5 28t15 30.5q16 29 26 49t19 27
t20 0.5t30 -30.5z" />
    <glyph glyph-name="Wdieresis" unicode="&#x1e84;" horiz-adv-x="748" 
d="M47 803q-17 24 -10.5 47.5t21.5 34.5t31 5t19 -42l79 -700l165 540q6 20 17 21t22.5 -7.5t21 -21.5t11.5 -20l108 -557q29 68 66.5 159.5t80 193.5t88.5 209t92 206q19 25 31.5 23t15.5 -20t-5.5 -47t-31.5 -59l-279 -709q-16 -37 -30 -51.5t-26 -13t-22.5 17t-19.5 39
t-17.5 51t-15.5 54.5q-4 13 -10 47.5t-13.5 78.5t-15.5 93.5t-15 94t-13 79t-9 48.5l-175 -543q-2 -7 -12.5 -11t-22.5 -2.5t-22.5 10t-12.5 25.5zM353 913q0 20 13 32.5t29 16.5t29.5 -2t14.5 -23q4 -10 -6.5 -23.5t-26.5 -21t-31.5 -5t-21.5 25.5zM504 913q0 20 13 32.5
t29 16.5t29.5 -2t14.5 -23q4 -10 -6.5 -23.5t-26.5 -21t-31.5 -5t-21.5 25.5z" />
    <glyph glyph-name="Wgrave" unicode="&#x1e80;" horiz-adv-x="748" 
d="M47 803q-17 24 -10.5 47.5t21.5 34.5t31 5t19 -42l79 -700l165 540q6 20 17 21t22.5 -7.5t21 -21.5t11.5 -20l108 -557q29 68 66.5 159.5t80 193.5t88.5 209t92 206q19 25 31.5 23t15.5 -20t-5.5 -47t-31.5 -59l-279 -709q-16 -37 -30 -51.5t-26 -13t-22.5 17t-19.5 39
t-17.5 51t-15.5 54.5q-4 13 -10 47.5t-13.5 78.5t-15.5 93.5t-15 94t-13 79t-9 48.5l-175 -543q-2 -7 -12.5 -11t-22.5 -2.5t-22.5 10t-12.5 25.5zM332 1001q19 24 30 30.5t20 -0.5t18.5 -27t26.5 -49q5 -15 15 -30.5t13.5 -28t-4.5 -21t-39 -8.5q-6 -3 -15 10.5t-19.5 34.5
t-22 45.5t-23.5 43.5z" />
    <glyph glyph-name="Zcaron" unicode="&#x17d;" horiz-adv-x="597" 
d="M37 18q-29 12 -23 36t32 52q8 8 25 26t38.5 41.5t45.5 50t46 51.5t39.5 45t26.5 32q-18 -6 -38.5 -4.5t-35.5 8t-21 18.5t6 27q10 8 36 12.5t56 7.5t58 6t41 8q15 7 40 29.5t53.5 52.5t57.5 64.5t53 66.5t39.5 59t17.5 42q3 23 -23.5 28t-69 -0.5t-94 -18t-100.5 -25
t-89 -20.5t-57 -5q-19 4 -18 13t12 19t26 18t24 10q7 2 30 7t53.5 12t64.5 15t64.5 14.5t53.5 11.5t30 7q76 11 110 -2t38.5 -43t-15 -71.5t-51 -86t-69.5 -88t-69 -76.5q20 7 37 13t39 9q22 4 41 5.5t30 -4t12 -19t-12 -38.5l-230 -56q-15 -4 -41.5 -25t-58 -51t-64.5 -65
t-61.5 -67t-49 -57t-26.5 -35q16 -15 49 -17.5t76 3t91.5 16t94.5 21.5t85.5 19.5t64.5 9.5t31 -8t-14 -33q-158 -36 -257 -53.5t-156.5 -23.5t-84 -3t-40.5 9zM317 1063q13 25 22.5 31.5t17 3t13 -13t9.5 -16.5q17 -28 30.5 -49t27.5 -50q12 19 23.5 43.5t22 45.5
t19.5 34.5t15 10.5q31 0 39 -8.5t4.5 -21t-13.5 -28t-15 -30.5q-15 -25 -23.5 -54t-17 -52.5t-19.5 -36.5t-30 -5z" />
    <glyph glyph-name="Yacute" unicode="&#xdd;" horiz-adv-x="388" 
d="M217 439l-222 365q-10 14 -5 24.5t16 15.5t25 3t23 -14l191 -316l192 338q10 15 27.5 23t30.5 6t16 -16t-15 -43l-224 -383l-91 -451q-22 -5 -35 -3.5t-24 18.5zM333 1015q-12 -19 -23.5 -43.5t-22 -45.5t-19.5 -34.5t-15 -10.5q-31 0 -39 8.5t-4.5 21t13.5 28t15 30.5
q16 29 26 49t19 27t20 0.5t30 -30.5z" />
    <glyph glyph-name="Ycircumflex" unicode="&#x176;" horiz-adv-x="388" 
d="M217 439l-222 365q-10 14 -5 24.5t16 15.5t25 3t23 -14l191 -316l192 338q10 15 27.5 23t30.5 6t16 -16t-15 -43l-224 -383l-91 -451q-22 -5 -35 -3.5t-24 18.5zM253 1118q19 8 30 -5t19.5 -36.5t17 -52.5t23.5 -54q5 -15 15 -30.5t13.5 -28t-4.5 -21t-39 -8.5
q-6 -3 -15 10.5t-19.5 34.5t-22 45.5t-23.5 43.5q-14 -29 -27.5 -50t-30.5 -49q-4 -7 -9.5 -16.5t-13 -13.5t-17 2.5t-22.5 32.5z" />
    <glyph glyph-name="Ydieresis" unicode="&#x178;" horiz-adv-x="388" 
d="M217 439l-222 365q-10 14 -5 24.5t16 15.5t25 3t23 -14l191 -316l192 338q10 15 27.5 23t30.5 6t16 -16t-15 -43l-224 -383l-91 -451q-22 -5 -35 -3.5t-24 18.5zM163 922q0 20 13 32.5t29 16.5t29.5 -2t14.5 -23q4 -10 -6.5 -23.5t-26.5 -21t-31.5 -5t-21.5 25.5z
M314 922q0 20 13 32.5t29 16.5t29.5 -2t14.5 -23q4 -10 -6.5 -23.5t-26.5 -21t-31.5 -5t-21.5 25.5z" />
    <glyph glyph-name="Ygrave" unicode="&#x1ef2;" horiz-adv-x="388" 
d="M217 439l-222 365q-10 14 -5 24.5t16 15.5t25 3t23 -14l191 -316l192 338q10 15 27.5 23t30.5 6t16 -16t-15 -43l-224 -383l-91 -451q-22 -5 -35 -3.5t-24 18.5zM178 1019q19 24 30 30.5t20 -0.5t18.5 -27t26.5 -49q5 -15 15 -30.5t13.5 -28t-4.5 -21t-39 -8.5
q-6 -3 -15 10.5t-19.5 34.5t-22 45.5t-23.5 43.5z" />
    <glyph glyph-name="Zacute" unicode="&#x179;" horiz-adv-x="597" 
d="M37 18q-29 12 -23 36t32 52q8 8 25 26t38.5 41.5t45.5 50t46 51.5t39.5 45t26.5 32q-18 -6 -38.5 -4.5t-35.5 8t-21 18.5t6 27q10 8 36 12.5t56 7.5t58 6t41 8q15 7 40 29.5t53.5 52.5t57.5 64.5t53 66.5t39.5 59t17.5 42q3 23 -23.5 28t-69 -0.5t-94 -18t-100.5 -25
t-89 -20.5t-57 -5q-19 4 -18 13t12 19t26 18t24 10q7 2 30 7t53.5 12t64.5 15t64.5 14.5t53.5 11.5t30 7q76 11 110 -2t38.5 -43t-15 -71.5t-51 -86t-69.5 -88t-69 -76.5q20 7 37 13t39 9q22 4 41 5.5t30 -4t12 -19t-12 -38.5l-230 -56q-15 -4 -41.5 -25t-58 -51t-64.5 -65
t-61.5 -67t-49 -57t-26.5 -35q16 -15 49 -17.5t76 3t91.5 16t94.5 21.5t85.5 19.5t64.5 9.5t31 -8t-14 -33q-158 -36 -257 -53.5t-156.5 -23.5t-84 -3t-40.5 9zM505 993q-12 -19 -23.5 -43.5t-22 -45.5t-19.5 -34.5t-15 -10.5q-31 0 -39 8.5t-4.5 21t13.5 28t15 30.5
q16 29 26 49t19 27t20 0.5t30 -30.5z" />
    <glyph glyph-name="Zdotaccent" unicode="&#x17b;" horiz-adv-x="597" 
d="M37 18q-29 12 -23 36t32 52q8 8 25 26t38.5 41.5t45.5 50t46 51.5t39.5 45t26.5 32q-18 -6 -38.5 -4.5t-35.5 8t-21 18.5t6 27q10 8 36 12.5t56 7.5t58 6t41 8q15 7 40 29.5t53.5 52.5t57.5 64.5t53 66.5t39.5 59t17.5 42q3 23 -23.5 28t-69 -0.5t-94 -18t-100.5 -25
t-89 -20.5t-57 -5q-19 4 -18 13t12 19t26 18t24 10q7 2 30 7t53.5 12t64.5 15t64.5 14.5t53.5 11.5t30 7q76 11 110 -2t38.5 -43t-15 -71.5t-51 -86t-69.5 -88t-69 -76.5q20 7 37 13t39 9q22 4 41 5.5t30 -4t12 -19t-12 -38.5l-230 -56q-15 -4 -41.5 -25t-58 -51t-64.5 -65
t-61.5 -67t-49 -57t-26.5 -35q16 -15 49 -17.5t76 3t91.5 16t94.5 21.5t85.5 19.5t64.5 9.5t31 -8t-14 -33q-158 -36 -257 -53.5t-156.5 -23.5t-84 -3t-40.5 9zM419 882q0 20 13 32.5t29 16.5t29.5 -2t14.5 -23q4 -10 -6.5 -23.5t-26.5 -21t-31.5 -5t-21.5 25.5z" />
    <glyph glyph-name="aacute" unicode="&#xe1;" horiz-adv-x="428" 
d="M241 23q-8 8 -10.5 19.5t-1.5 23.5t3 24t4 21q-66 -69 -112 -86.5t-73 0t-36 62.5t-1.5 101.5t31 115.5t61.5 105t90 70.5t116 11.5q32 -20 40 -57.5t2 -82t-20 -92.5t-26.5 -88.5t-18 -70t6 -38t45.5 8.5t101 70l30 -15q-8 -8 -23 -24.5t-34.5 -34t-42 -33.5t-46 -24.5
t-45.5 -6.5t-40 20zM264 453q-34 -2 -70 -35.5t-66.5 -81.5t-51.5 -101.5t-25.5 -95t12 -62t61.5 -3.5q7 2 22.5 18.5t35 43t41 59t39.5 66.5t31 67.5t15.5 60t-7.5 44t-37 20.5zM295 667q-12 -19 -23.5 -43.5t-22 -45.5t-19.5 -34.5t-15 -10.5q-31 0 -39 8.5t-4.5 21
t13.5 28t15 30.5q16 29 26 49t19 27t20 0.5t30 -30.5z" />
    <glyph glyph-name="abreve" unicode="&#x103;" horiz-adv-x="428" 
d="M241 23q-8 8 -10.5 19.5t-1.5 23.5t3 24t4 21q-66 -69 -112 -86.5t-73 0t-36 62.5t-1.5 101.5t31 115.5t61.5 105t90 70.5t116 11.5q32 -20 40 -57.5t2 -82t-20 -92.5t-26.5 -88.5t-18 -70t6 -38t45.5 8.5t101 70l30 -15q-8 -8 -23 -24.5t-34.5 -34t-42 -33.5t-46 -24.5
t-45.5 -6.5t-40 20zM264 453q-34 -2 -70 -35.5t-66.5 -81.5t-51.5 -101.5t-25.5 -95t12 -62t61.5 -3.5q7 2 22.5 18.5t35 43t41 59t39.5 66.5t31 67.5t15.5 60t-7.5 44t-37 20.5zM62 645q13 13 22 18t15.5 6t11 -0.5t8.5 -1.5q16 -43 33.5 -62t34.5 -21t33 9t29 26.5
t21.5 32t11.5 26.5q31 0 42 -4.5t11 -13t-7 -20t-12 -26.5q-5 -14 -18.5 -31t-33.5 -31t-44.5 -20.5t-51 1t-54 34t-52.5 78.5z" />
    <glyph glyph-name="acircumflex" unicode="&#xe2;" horiz-adv-x="428" 
d="M241 23q-8 8 -10.5 19.5t-1.5 23.5t3 24t4 21q-66 -69 -112 -86.5t-73 0t-36 62.5t-1.5 101.5t31 115.5t61.5 105t90 70.5t116 11.5q32 -20 40 -57.5t2 -82t-20 -92.5t-26.5 -88.5t-18 -70t6 -38t45.5 8.5t101 70l30 -15q-8 -8 -23 -24.5t-34.5 -34t-42 -33.5t-46 -24.5
t-45.5 -6.5t-40 20zM264 453q-34 -2 -70 -35.5t-66.5 -81.5t-51.5 -101.5t-25.5 -95t12 -62t61.5 -3.5q7 2 22.5 18.5t35 43t41 59t39.5 66.5t31 67.5t15.5 60t-7.5 44t-37 20.5zM197 784q19 8 30 -5t19.5 -36.5t17 -52.5t23.5 -54q5 -15 15 -30.5t13.5 -28t-4.5 -21
t-39 -8.5q-6 -3 -15 10.5t-19.5 34.5t-22 45.5t-23.5 43.5q-14 -29 -27.5 -50t-30.5 -49q-4 -7 -9.5 -16.5t-13 -13.5t-17 2.5t-22.5 32.5z" />
    <glyph glyph-name="adieresis" unicode="&#xe4;" horiz-adv-x="428" 
d="M241 23q-8 8 -10.5 19.5t-1.5 23.5t3 24t4 21q-66 -69 -112 -86.5t-73 0t-36 62.5t-1.5 101.5t31 115.5t61.5 105t90 70.5t116 11.5q32 -20 40 -57.5t2 -82t-20 -92.5t-26.5 -88.5t-18 -70t6 -38t45.5 8.5t101 70l30 -15q-8 -8 -23 -24.5t-34.5 -34t-42 -33.5t-46 -24.5
t-45.5 -6.5t-40 20zM264 453q-34 -2 -70 -35.5t-66.5 -81.5t-51.5 -101.5t-25.5 -95t12 -62t61.5 -3.5q7 2 22.5 18.5t35 43t41 59t39.5 66.5t31 67.5t15.5 60t-7.5 44t-37 20.5zM90 557q0 20 13 32.5t29 16.5t29.5 -2t14.5 -23q4 -10 -6.5 -23.5t-26.5 -21t-31.5 -5
t-21.5 25.5zM241 557q0 20 13 32.5t29 16.5t29.5 -2t14.5 -23q4 -10 -6.5 -23.5t-26.5 -21t-31.5 -5t-21.5 25.5z" />
    <glyph glyph-name="agrave" unicode="&#xe0;" horiz-adv-x="428" 
d="M241 23q-8 8 -10.5 19.5t-1.5 23.5t3 24t4 21q-66 -69 -112 -86.5t-73 0t-36 62.5t-1.5 101.5t31 115.5t61.5 105t90 70.5t116 11.5q32 -20 40 -57.5t2 -82t-20 -92.5t-26.5 -88.5t-18 -70t6 -38t45.5 8.5t101 70l30 -15q-8 -8 -23 -24.5t-34.5 -34t-42 -33.5t-46 -24.5
t-45.5 -6.5t-40 20zM264 453q-34 -2 -70 -35.5t-66.5 -81.5t-51.5 -101.5t-25.5 -95t12 -62t61.5 -3.5q7 2 22.5 18.5t35 43t41 59t39.5 66.5t31 67.5t15.5 60t-7.5 44t-37 20.5zM132 667q19 24 30 30.5t20 -0.5t18.5 -27t26.5 -49q5 -15 15 -30.5t13.5 -28t-4.5 -21
t-39 -8.5q-6 -3 -15 10.5t-19.5 34.5t-22 45.5t-23.5 43.5z" />
    <glyph glyph-name="amacron" unicode="&#x101;" horiz-adv-x="428" 
d="M241 23q-8 8 -10.5 19.5t-1.5 23.5t3 24t4 21q-66 -69 -112 -86.5t-73 0t-36 62.5t-1.5 101.5t31 115.5t61.5 105t90 70.5t116 11.5q32 -20 40 -57.5t2 -82t-20 -92.5t-26.5 -88.5t-18 -70t6 -38t45.5 8.5t101 70l30 -15q-8 -8 -23 -24.5t-34.5 -34t-42 -33.5t-46 -24.5
t-45.5 -6.5t-40 20zM264 453q-34 -2 -70 -35.5t-66.5 -81.5t-51.5 -101.5t-25.5 -95t12 -62t61.5 -3.5q7 2 22.5 18.5t35 43t41 59t39.5 66.5t31 67.5t15.5 60t-7.5 44t-37 20.5zM79 543q-4 11 -1.5 25t16.5 19l240 10q15 -11 15 -29.5t-15 -29.5q-10 1 -32 -1t-49.5 -4
t-57 -4t-54.5 -1.5t-42 4t-20 11.5z" />
    <glyph glyph-name="aogonek" unicode="&#x105;" horiz-adv-x="428" 
d="M241 23q-8 8 -10.5 19.5t-1.5 23.5t3 24t4 21q-66 -69 -112 -86.5t-73 0t-36 62.5t-1.5 101.5t31 115.5t61.5 105t90 70.5t116 11.5q32 -20 40 -57.5t2 -82t-20 -92.5t-26.5 -88.5t-18 -70t6 -38t45.5 8.5t101 70l30 -15q-8 -8 -23 -24.5t-34.5 -34t-42 -33.5t-46 -24.5
t-45.5 -6.5t-40 20zM264 453q-34 -2 -70 -35.5t-66.5 -81.5t-51.5 -101.5t-25.5 -95t12 -62t61.5 -3.5q7 2 22.5 18.5t35 43t41 59t39.5 66.5t31 67.5t15.5 60t-7.5 44t-37 20.5zM464 -83q-27 -38 -54 -45.5t-48.5 5t-35.5 40.5t-14.5 60t14.5 64t52 53l5 -62
q-17 -17 -18 -43.5t8.5 -45t26 -19.5t34.5 33z" />
    <glyph glyph-name="aring" unicode="&#xe5;" horiz-adv-x="428" 
d="M241 23q-8 8 -10.5 19.5t-1.5 23.5t3 24t4 21q-66 -69 -112 -86.5t-73 0t-36 62.5t-1.5 101.5t31 115.5t61.5 105t90 70.5t116 11.5q32 -20 40 -57.5t2 -82t-20 -92.5t-26.5 -88.5t-18 -70t6 -38t45.5 8.5t101 70l30 -15q-8 -8 -23 -24.5t-34.5 -34t-42 -33.5t-46 -24.5
t-45.5 -6.5t-40 20zM264 453q-34 -2 -70 -35.5t-66.5 -81.5t-51.5 -101.5t-25.5 -95t12 -62t61.5 -3.5q7 2 22.5 18.5t35 43t41 59t39.5 66.5t31 67.5t15.5 60t-7.5 44t-37 20.5zM223 535q-36 1 -54.5 17t-22.5 37t6 42.5t31 33.5q60 22 99 20.5t58.5 -16.5t20.5 -39
t-15 -46t-47 -37t-76 -12zM189 618q-4 -21 4 -32t22 -14.5t31.5 -0.5t32.5 9.5t25 14.5t9 16q0 19 -8.5 29t-21 13t-28 0.5t-29 -8t-24 -13t-13.5 -14.5z" />
    <glyph glyph-name="atilde" unicode="&#xe3;" horiz-adv-x="428" 
d="M241 23q-8 8 -10.5 19.5t-1.5 23.5t3 24t4 21q-66 -69 -112 -86.5t-73 0t-36 62.5t-1.5 101.5t31 115.5t61.5 105t90 70.5t116 11.5q32 -20 40 -57.5t2 -82t-20 -92.5t-26.5 -88.5t-18 -70t6 -38t45.5 8.5t101 70l30 -15q-8 -8 -23 -24.5t-34.5 -34t-42 -33.5t-46 -24.5
t-45.5 -6.5t-40 20zM264 453q-34 -2 -70 -35.5t-66.5 -81.5t-51.5 -101.5t-25.5 -95t12 -62t61.5 -3.5q7 2 22.5 18.5t35 43t41 59t39.5 66.5t31 67.5t15.5 60t-7.5 44t-37 20.5zM102 602q-12 -14 -25 -18.5t-22 1t-12 19.5t4 38q8 26 30 42.5t48.5 21t53 -5t43.5 -34.5
q27 -29 46 -38.5t32 -7.5t20 12.5t9.5 22t1 21t-5.5 9.5q3 19 11 26.5t17.5 5.5t18 -13.5t11.5 -30.5q6 -34 -8 -61.5t-40.5 -38t-62 0.5t-72.5 53q-30 25 -47.5 29.5t-27 -3t-14 -22.5t-9.5 -29z" />
    <glyph glyph-name="ae" unicode="&#xe6;" horiz-adv-x="610" 
d="M324 22q-9 40 -14.5 58t-9.5 21t-7 -6.5t-7.5 -25t-11 -33t-16.5 -31.5q-3 2 -14 3.5t-19.5 10.5t-8.5 30t20 62q-66 -69 -112 -86.5t-73 0t-36 62.5t-1.5 101.5t31 115.5t61.5 105t90 70.5t116 11.5q29 -19 41.5 -53.5t14.5 -77.5q28 51 65 88q30 28 58.5 39t52 7.5
t41 -18.5t25.5 -37.5t5 -51.5t-20 -59q-26 -47 -51 -70t-51.5 -36t-56.5 -23t-66 -30q-7 -14 -9 -36.5t3.5 -43t20 -33t41.5 -6.5t67.5 36t98.5 95q11 -6 9 -21.5t-13.5 -35.5t-31 -42t-43.5 -41.5t-50.5 -34t-52 -19t-48 3t-38.5 31.5zM264 453q-34 -2 -70 -35.5
t-66.5 -81.5t-51.5 -101.5t-25.5 -95t12 -62t61.5 -3.5q7 2 22.5 18.5t35 43t41 59t39.5 66.5t31 67.5t15.5 60t-7.5 44t-37 20.5zM488 418q-57 -48 -84.5 -94t-25.5 -88q35 1 67 20t57 46t40 55.5t15.5 48.5t-16 25.5t-53.5 -13.5z" />
    <glyph glyph-name="aeacute" unicode="&#x1fd;" horiz-adv-x="610" 
d="M324 22q-9 40 -14.5 58t-9.5 21t-7 -6.5t-7.5 -25t-11 -33t-16.5 -31.5q-3 2 -14 3.5t-19.5 10.5t-8.5 30t20 62q-66 -69 -112 -86.5t-73 0t-36 62.5t-1.5 101.5t31 115.5t61.5 105t90 70.5t116 11.5q29 -19 41.5 -53.5t14.5 -77.5q28 51 65 88q30 28 58.5 39t52 7.5
t41 -18.5t25.5 -37.5t5 -51.5t-20 -59q-26 -47 -51 -70t-51.5 -36t-56.5 -23t-66 -30q-7 -14 -9 -36.5t3.5 -43t20 -33t41.5 -6.5t67.5 36t98.5 95q11 -6 9 -21.5t-13.5 -35.5t-31 -42t-43.5 -41.5t-50.5 -34t-52 -19t-48 3t-38.5 31.5zM264 453q-34 -2 -70 -35.5
t-66.5 -81.5t-51.5 -101.5t-25.5 -95t12 -62t61.5 -3.5q7 2 22.5 18.5t35 43t41 59t39.5 66.5t31 67.5t15.5 60t-7.5 44t-37 20.5zM488 418q-57 -48 -84.5 -94t-25.5 -88q35 1 67 20t57 46t40 55.5t15.5 48.5t-16 25.5t-53.5 -13.5zM457 671q-12 -19 -23.5 -43.5t-22 -45.5
t-19.5 -34.5t-15 -10.5q-31 0 -39 8.5t-4.5 21t13.5 28t15 30.5q16 29 26 49t19 27t20 0.5t30 -30.5z" />
    <glyph glyph-name="cacute" unicode="&#x107;" horiz-adv-x="419" 
d="M66 15q-34 40 -38.5 96.5t10.5 116.5t45.5 117t68 97.5t77 58t72.5 -0.5q15 -3 22.5 -24t10 -45.5t1.5 -47.5t-4 -30l-30 -29q-16 4 -22.5 13t-7 20t1.5 23t2.5 24t-3 21.5t-15.5 15.5q-16 8 -37.5 -6t-43 -42.5t-41.5 -67t-34 -78t-19 -76.5t3 -63t31.5 -36.5t67.5 2.5
q22 7 48 25.5t50.5 41t45 44.5t32.5 36q13 2 20.5 -4.5t10.5 -16.5t2.5 -21t-3.5 -17q-24 -27 -61 -64t-81 -65.5t-91 -37.5t-91 20zM291 667q-12 -19 -23.5 -43.5t-22 -45.5t-19.5 -34.5t-15 -10.5q-31 0 -39 8.5t-4.5 21t13.5 28t15 30.5q16 29 26 49t19 27t20 0.5
t30 -30.5z" />
    <glyph glyph-name="ccaron" unicode="&#x10d;" horiz-adv-x="419" 
d="M66 15q-34 40 -38.5 96.5t10.5 116.5t45.5 117t68 97.5t77 58t72.5 -0.5q15 -3 22.5 -24t10 -45.5t1.5 -47.5t-4 -30l-30 -29q-16 4 -22.5 13t-7 20t1.5 23t2.5 24t-3 21.5t-15.5 15.5q-16 8 -37.5 -6t-43 -42.5t-41.5 -67t-34 -78t-19 -76.5t3 -63t31.5 -36.5t67.5 2.5
q22 7 48 25.5t50.5 41t45 44.5t32.5 36q13 2 20.5 -4.5t10.5 -16.5t2.5 -21t-3.5 -17q-24 -27 -61 -64t-81 -65.5t-91 -37.5t-91 20zM68 746q13 25 22.5 31.5t17 3t13 -13t9.5 -16.5q17 -28 30.5 -49t27.5 -50q12 19 23.5 43.5t22 45.5t19.5 34.5t15 10.5q31 0 39 -8.5
t4.5 -21t-13.5 -28t-15 -30.5q-15 -25 -23.5 -54t-17 -52.5t-19.5 -36.5t-30 -5z" />
    <glyph glyph-name="ccedilla" unicode="&#xe7;" horiz-adv-x="419" 
d="M66 15q-34 40 -38.5 96.5t10.5 116.5t45.5 117t68 97.5t77 58t72.5 -0.5q15 -3 22.5 -24t10 -45.5t1.5 -47.5t-4 -30l-30 -29q-16 4 -22.5 13t-7 20t1.5 23t2.5 24t-3 21.5t-15.5 15.5q-16 8 -37.5 -6t-43 -42.5t-41.5 -67t-34 -78t-19 -76.5t3 -63t31.5 -36.5t67.5 2.5
q22 7 48 25.5t50.5 41t45 44.5t32.5 36q13 2 20.5 -4.5t10.5 -16.5t2.5 -21t-3.5 -17q-24 -27 -61 -64t-81 -65.5t-91 -37.5t-91 20zM125 -163q-1 -6 12 -2.5t29.5 12t31 20.5t17.5 22.5t-11.5 17.5t-55.5 7q-7 0 -11 12t-5.5 28t0.5 32.5t7 27t14 11.5t22 -14l4 -63
q44 0 64.5 -11t23.5 -27t-8.5 -34.5t-30.5 -35.5t-43.5 -29t-46.5 -14q-12 -1 -17 2.5t-6 9.5t2 13.5t8 14.5z" />
    <glyph glyph-name="ccircumflex" unicode="&#x109;" horiz-adv-x="419" 
d="M66 15q-34 40 -38.5 96.5t10.5 116.5t45.5 117t68 97.5t77 58t72.5 -0.5q15 -3 22.5 -24t10 -45.5t1.5 -47.5t-4 -30l-30 -29q-16 4 -22.5 13t-7 20t1.5 23t2.5 24t-3 21.5t-15.5 15.5q-16 8 -37.5 -6t-43 -42.5t-41.5 -67t-34 -78t-19 -76.5t3 -63t31.5 -36.5t67.5 2.5
q22 7 48 25.5t50.5 41t45 44.5t32.5 36q13 2 20.5 -4.5t10.5 -16.5t2.5 -21t-3.5 -17q-24 -27 -61 -64t-81 -65.5t-91 -37.5t-91 20zM246 780q19 8 30 -5t19.5 -36.5t17 -52.5t23.5 -54q5 -15 15 -30.5t13.5 -28t-4.5 -21t-39 -8.5q-6 -3 -15 10.5t-19.5 34.5t-22 45.5
t-23.5 43.5q-14 -29 -27.5 -50t-30.5 -49q-4 -7 -9.5 -16.5t-13 -13.5t-17 2.5t-22.5 32.5z" />
    <glyph glyph-name="cdotaccent" unicode="&#x10b;" horiz-adv-x="419" 
d="M66 15q-34 40 -38.5 96.5t10.5 116.5t45.5 117t68 97.5t77 58t72.5 -0.5q15 -3 22.5 -24t10 -45.5t1.5 -47.5t-4 -30l-30 -29q-16 4 -22.5 13t-7 20t1.5 23t2.5 24t-3 21.5t-15.5 15.5q-16 8 -37.5 -6t-43 -42.5t-41.5 -67t-34 -78t-19 -76.5t3 -63t31.5 -36.5t67.5 2.5
q22 7 48 25.5t50.5 41t45 44.5t32.5 36q13 2 20.5 -4.5t10.5 -16.5t2.5 -21t-3.5 -17q-24 -27 -61 -64t-81 -65.5t-91 -37.5t-91 20zM233 566q0 20 13 32.5t29 16.5t29.5 -2t14.5 -23q4 -10 -6.5 -23.5t-26.5 -21t-31.5 -5t-21.5 25.5z" />
    <glyph glyph-name="dcaron" unicode="&#x10f;" horiz-adv-x="619" 
d="M228 32q-75 -32 -120.5 -28t-67.5 31t-22 72t16 96t46.5 102t69 90t84 60t91.5 13l66 373q17 6 26.5 0.5t13.5 -17t3.5 -26t-2.5 -27.5q-19 -93 -32 -159.5t-22.5 -114.5t-16 -83t-12.5 -65.5t-11.5 -61t-13 -70t-18 -92.5t-25.5 -129q2 -16 -8.5 -27.5t-24 -15.5
t-24 2.5t-8.5 26.5zM94 62q25 -6 43 -6t33 6.5t29 19t31 30.5q2 6 7.5 25.5t13.5 45.5t16.5 55.5t15.5 57t11.5 49.5t4.5 33q2 25 -10.5 29.5t-34 -6.5t-47.5 -35t-51.5 -54.5t-47 -66t-32 -69.5t-8 -64t25.5 -50zM473 361q-1 0 -1 6t1 8q15 25 24.5 48t11.5 45.5t-6.5 45
t-29.5 46.5q-10 28 0 43.5t27.5 15.5t36 -16t24.5 -51q3 -6 5 -25.5t1.5 -43.5t-5 -50t-15.5 -45t-29 -28t-45 1z" />
    <glyph glyph-name="dcroat" unicode="&#x111;" horiz-adv-x="383" 
d="M228 32q-75 -32 -120.5 -28t-67.5 31t-22 72t16 96t46.5 102t69 90t84 60t91.5 13l66 373q17 6 26.5 0.5t13.5 -17t3.5 -26t-2.5 -27.5q-19 -93 -32 -159.5t-22.5 -114.5t-16 -83t-12.5 -65.5t-11.5 -61t-13 -70t-18 -92.5t-25.5 -129q2 -16 -8.5 -27.5t-24 -15.5
t-24 2.5t-8.5 26.5zM94 62q25 -6 43 -6t33 6.5t29 19t31 30.5q2 6 7.5 25.5t13.5 45.5t16.5 55.5t15.5 57t11.5 49.5t4.5 33q2 25 -10.5 29.5t-34 -6.5t-47.5 -35t-51.5 -54.5t-47 -66t-32 -69.5t-8 -64t25.5 -50zM240 615q-4 11 -1.5 25t16.5 19l240 10q15 -11 15 -29.5
t-15 -29.5q-10 1 -32 -1t-49.5 -4t-57 -4t-54.5 -1.5t-42 4t-20 11.5z" />
    <glyph glyph-name="eacute" unicode="&#xe9;" horiz-adv-x="347" 
d="M43 31q-13 19 -18 50t-2.5 68.5t12 79t26 82.5t39.5 79t52 67q30 29 58.5 39.5t52 7t41 -18.5t25.5 -37.5t5 -51.5t-20 -59q-26 -47 -51 -70t-51.5 -36t-56.5 -23t-66 -30q-7 -14 -9 -36.5t3.5 -43t20 -33t41.5 -6.5t67.5 36t98.5 95q11 -6 9 -21.5t-13.5 -35.5t-31 -42
t-43.5 -41.5t-50.5 -34t-52 -19t-48 3t-38.5 31.5zM207 427q-57 -48 -84.5 -94t-25.5 -88q35 1 67 20t57 46t40 55.5t15.5 48.5t-16 25.5t-53.5 -13.5zM255 667q-12 -19 -23.5 -43.5t-22 -45.5t-19.5 -34.5t-15 -10.5q-31 0 -39 8.5t-4.5 21t13.5 28t15 30.5q16 29 26 49
t19 27t20 0.5t30 -30.5z" />
    <glyph glyph-name="ebreve" unicode="&#x115;" horiz-adv-x="347" 
d="M43 31q-13 19 -18 50t-2.5 68.5t12 79t26 82.5t39.5 79t52 67q30 29 58.5 39.5t52 7t41 -18.5t25.5 -37.5t5 -51.5t-20 -59q-26 -47 -51 -70t-51.5 -36t-56.5 -23t-66 -30q-7 -14 -9 -36.5t3.5 -43t20 -33t41.5 -6.5t67.5 36t98.5 95q11 -6 9 -21.5t-13.5 -35.5t-31 -42
t-43.5 -41.5t-50.5 -34t-52 -19t-48 3t-38.5 31.5zM207 427q-57 -48 -84.5 -94t-25.5 -88q35 1 67 20t57 46t40 55.5t15.5 48.5t-16 25.5t-53.5 -13.5zM67 658q13 13 22 18t15.5 6t11 -0.5t8.5 -1.5q16 -43 33.5 -62t34.5 -21t33 9t29 26.5t21.5 32t11.5 26.5q31 0 42 -4.5
t11 -13t-7 -20t-12 -26.5q-5 -14 -18.5 -31t-33.5 -31t-44.5 -20.5t-51 1t-54 34t-52.5 78.5z" />
    <glyph glyph-name="ecaron" unicode="&#x11b;" horiz-adv-x="347" 
d="M43 31q-13 19 -18 50t-2.5 68.5t12 79t26 82.5t39.5 79t52 67q30 29 58.5 39.5t52 7t41 -18.5t25.5 -37.5t5 -51.5t-20 -59q-26 -47 -51 -70t-51.5 -36t-56.5 -23t-66 -30q-7 -14 -9 -36.5t3.5 -43t20 -33t41.5 -6.5t67.5 36t98.5 95q11 -6 9 -21.5t-13.5 -35.5t-31 -42
t-43.5 -41.5t-50.5 -34t-52 -19t-48 3t-38.5 31.5zM207 427q-57 -48 -84.5 -94t-25.5 -88q35 1 67 20t57 46t40 55.5t15.5 48.5t-16 25.5t-53.5 -13.5zM90 746q13 25 22.5 31.5t17 3t13 -13t9.5 -16.5q17 -28 30.5 -49t27.5 -50q12 19 23.5 43.5t22 45.5t19.5 34.5t15 10.5
q31 0 39 -8.5t4.5 -21t-13.5 -28t-15 -30.5q-15 -25 -23.5 -54t-17 -52.5t-19.5 -36.5t-30 -5z" />
    <glyph glyph-name="ecircumflex" unicode="&#xea;" horiz-adv-x="347" 
d="M43 31q-13 19 -18 50t-2.5 68.5t12 79t26 82.5t39.5 79t52 67q30 29 58.5 39.5t52 7t41 -18.5t25.5 -37.5t5 -51.5t-20 -59q-26 -47 -51 -70t-51.5 -36t-56.5 -23t-66 -30q-7 -14 -9 -36.5t3.5 -43t20 -33t41.5 -6.5t67.5 36t98.5 95q11 -6 9 -21.5t-13.5 -35.5t-31 -42
t-43.5 -41.5t-50.5 -34t-52 -19t-48 3t-38.5 31.5zM207 427q-57 -48 -84.5 -94t-25.5 -88q35 1 67 20t57 46t40 55.5t15.5 48.5t-16 25.5t-53.5 -13.5zM228 802q19 8 30 -5t19.5 -36.5t17 -52.5t23.5 -54q5 -15 15 -30.5t13.5 -28t-4.5 -21t-39 -8.5q-6 -3 -15 10.5
t-19.5 34.5t-22 45.5t-23.5 43.5q-14 -29 -27.5 -50t-30.5 -49q-4 -7 -9.5 -16.5t-13 -13.5t-17 2.5t-22.5 32.5z" />
    <glyph glyph-name="edieresis" unicode="&#xeb;" horiz-adv-x="347" 
d="M43 31q-13 19 -18 50t-2.5 68.5t12 79t26 82.5t39.5 79t52 67q30 29 58.5 39.5t52 7t41 -18.5t25.5 -37.5t5 -51.5t-20 -59q-26 -47 -51 -70t-51.5 -36t-56.5 -23t-66 -30q-7 -14 -9 -36.5t3.5 -43t20 -33t41.5 -6.5t67.5 36t98.5 95q11 -6 9 -21.5t-13.5 -35.5t-31 -42
t-43.5 -41.5t-50.5 -34t-52 -19t-48 3t-38.5 31.5zM207 427q-57 -48 -84.5 -94t-25.5 -88q35 1 67 20t57 46t40 55.5t15.5 48.5t-16 25.5t-53.5 -13.5zM120 593q0 20 13 32.5t29 16.5t29.5 -2t14.5 -23q4 -10 -6.5 -23.5t-26.5 -21t-31.5 -5t-21.5 25.5zM271 593
q0 20 13 32.5t29 16.5t29.5 -2t14.5 -23q4 -10 -6.5 -23.5t-26.5 -21t-31.5 -5t-21.5 25.5z" />
    <glyph glyph-name="emacron" unicode="&#x113;" horiz-adv-x="347" 
d="M43 31q-13 19 -18 50t-2.5 68.5t12 79t26 82.5t39.5 79t52 67q30 29 58.5 39.5t52 7t41 -18.5t25.5 -37.5t5 -51.5t-20 -59q-26 -47 -51 -70t-51.5 -36t-56.5 -23t-66 -30q-7 -14 -9 -36.5t3.5 -43t20 -33t41.5 -6.5t67.5 36t98.5 95q11 -6 9 -21.5t-13.5 -35.5t-31 -42
t-43.5 -41.5t-50.5 -34t-52 -19t-48 3t-38.5 31.5zM207 427q-57 -48 -84.5 -94t-25.5 -88q35 1 67 20t57 46t40 55.5t15.5 48.5t-16 25.5t-53.5 -13.5zM92 552q-4 11 -1.5 25t16.5 19l240 10q15 -11 15 -29.5t-15 -29.5q-10 1 -32 -1t-49.5 -4t-57 -4t-54.5 -1.5t-42 4
t-20 11.5z" />
    <glyph glyph-name="egrave" unicode="&#xe8;" horiz-adv-x="347" 
d="M43 31q-13 19 -18 50t-2.5 68.5t12 79t26 82.5t39.5 79t52 67q30 29 58.5 39.5t52 7t41 -18.5t25.5 -37.5t5 -51.5t-20 -59q-26 -47 -51 -70t-51.5 -36t-56.5 -23t-66 -30q-7 -14 -9 -36.5t3.5 -43t20 -33t41.5 -6.5t67.5 36t98.5 95q11 -6 9 -21.5t-13.5 -35.5t-31 -42
t-43.5 -41.5t-50.5 -34t-52 -19t-48 3t-38.5 31.5zM207 427q-57 -48 -84.5 -94t-25.5 -88q35 1 67 20t57 46t40 55.5t15.5 48.5t-16 25.5t-53.5 -13.5zM168 680q19 24 30 30.5t20 -0.5t18.5 -27t26.5 -49q5 -15 15 -30.5t13.5 -28t-4.5 -21t-39 -8.5q-6 -3 -15 10.5
t-19.5 34.5t-22 45.5t-23.5 43.5z" />
    <glyph glyph-name="edotaccent" unicode="&#x117;" horiz-adv-x="347" 
d="M43 31q-13 19 -18 50t-2.5 68.5t12 79t26 82.5t39.5 79t52 67q30 29 58.5 39.5t52 7t41 -18.5t25.5 -37.5t5 -51.5t-20 -59q-26 -47 -51 -70t-51.5 -36t-56.5 -23t-66 -30q-7 -14 -9 -36.5t3.5 -43t20 -33t41.5 -6.5t67.5 36t98.5 95q11 -6 9 -21.5t-13.5 -35.5t-31 -42
t-43.5 -41.5t-50.5 -34t-52 -19t-48 3t-38.5 31.5zM207 427q-57 -48 -84.5 -94t-25.5 -88q35 1 67 20t57 46t40 55.5t15.5 48.5t-16 25.5t-53.5 -13.5zM192 579q0 20 13 32.5t29 16.5t29.5 -2t14.5 -23q4 -10 -6.5 -23.5t-26.5 -21t-31.5 -5t-21.5 25.5z" />
    <glyph glyph-name="eogonek" unicode="&#x119;" horiz-adv-x="347" 
d="M43 31q-13 19 -18 50t-2.5 68.5t12 79t26 82.5t39.5 79t52 67q30 29 58.5 39.5t52 7t41 -18.5t25.5 -37.5t5 -51.5t-20 -59q-26 -47 -51 -70t-51.5 -36t-56.5 -23t-66 -30q-7 -14 -9 -36.5t3.5 -43t20 -33t41.5 -6.5t67.5 36t98.5 95q11 -6 9 -21.5t-13.5 -35.5t-31 -42
t-43.5 -41.5t-50.5 -34t-52 -19t-48 3t-38.5 31.5zM207 427q-57 -48 -84.5 -94t-25.5 -88q35 1 67 20t57 46t40 55.5t15.5 48.5t-16 25.5t-53.5 -13.5zM334 -52q-27 -38 -54 -45.5t-48.5 5t-35.5 40.5t-14.5 60t14.5 64t52 53l5 -62q-17 -17 -18 -43.5t8.5 -45t26 -19.5
t34.5 33z" />
    <glyph glyph-name="gbreve" unicode="&#x11f;" horiz-adv-x="379" 
d="M-75 -416q-14 10 -27 32.5t-18 47t1 47.5t29 34q16 -5 21.5 -15.5t7.5 -23.5t2.5 -27t5.5 -25t16.5 -18.5t35.5 -7.5q46 0 83.5 30t67.5 78t52 107t35 117.5t17.5 109.5t-0.5 83q-18 -19 -43.5 -39t-51 -33.5t-49 -18t-38.5 6.5q-38 31 -46.5 74t4.5 90t42.5 93
t65.5 82.5t75.5 59t72 22t54 -28.5t23.5 -92q-31 -246 -74.5 -413.5t-99 -262.5t-122 -120.5t-142.5 11.5zM87 143q10 -20 33 -14t50.5 29.5t54.5 59t46.5 73.5t26 74t-7.5 60q-22 9 -46.5 -4t-49 -39t-46 -61t-37 -69t-22.5 -63.5t-2 -45.5zM38 645q13 13 22 18t15.5 6
t11 -0.5t8.5 -1.5q16 -43 33.5 -62t34.5 -21t33 9t29 26.5t21.5 32t11.5 26.5q31 0 42 -4.5t11 -13t-7 -20t-12 -26.5q-5 -14 -18.5 -31t-33.5 -31t-44.5 -20.5t-51 1t-54 34t-52.5 78.5z" />
    <glyph glyph-name="gcircumflex" unicode="&#x11d;" horiz-adv-x="379" 
d="M-75 -416q-14 10 -27 32.5t-18 47t1 47.5t29 34q16 -5 21.5 -15.5t7.5 -23.5t2.5 -27t5.5 -25t16.5 -18.5t35.5 -7.5q46 0 83.5 30t67.5 78t52 107t35 117.5t17.5 109.5t-0.5 83q-18 -19 -43.5 -39t-51 -33.5t-49 -18t-38.5 6.5q-38 31 -46.5 74t4.5 90t42.5 93
t65.5 82.5t75.5 59t72 22t54 -28.5t23.5 -92q-31 -246 -74.5 -413.5t-99 -262.5t-122 -120.5t-142.5 11.5zM87 143q10 -20 33 -14t50.5 29.5t54.5 59t46.5 73.5t26 74t-7.5 60q-22 9 -46.5 -4t-49 -39t-46 -61t-37 -69t-22.5 -63.5t-2 -45.5zM236 802q19 8 30 -5t19.5 -36.5
t17 -52.5t23.5 -54q5 -15 15 -30.5t13.5 -28t-4.5 -21t-39 -8.5q-6 -3 -15 10.5t-19.5 34.5t-22 45.5t-23.5 43.5q-14 -29 -27.5 -50t-30.5 -49q-4 -7 -9.5 -16.5t-13 -13.5t-17 2.5t-22.5 32.5z" />
    <glyph glyph-name="gcommaaccent" unicode="&#x123;" horiz-adv-x="379" 
d="M-75 -416q-14 10 -27 32.5t-18 47t1 47.5t29 34q16 -5 21.5 -15.5t7.5 -23.5t2.5 -27t5.5 -25t16.5 -18.5t35.5 -7.5q46 0 83.5 30t67.5 78t52 107t35 117.5t17.5 109.5t-0.5 83q-18 -19 -43.5 -39t-51 -33.5t-49 -18t-38.5 6.5q-38 31 -46.5 74t4.5 90t42.5 93
t65.5 82.5t75.5 59t72 22t54 -28.5t23.5 -92q-31 -246 -74.5 -413.5t-99 -262.5t-122 -120.5t-142.5 11.5zM87 143q10 -20 33 -14t50.5 29.5t54.5 59t46.5 73.5t26 74t-7.5 60q-22 9 -46.5 -4t-49 -39t-46 -61t-37 -69t-22.5 -63.5t-2 -45.5zM270 548q-27 -10 -45 -1t-29 28
t-15.5 45t-5 50t1.5 43.5t5 25.5q6 35 24.5 51t36 16t27.5 -15.5t0 -43.5q-21 -24 -29.5 -46.5t-6.5 -45t11.5 -45.5t24.5 -48q1 -2 1 -8t-1 -6z" />
    <glyph glyph-name="gdotaccent" unicode="&#x121;" horiz-adv-x="379" 
d="M-75 -416q-14 10 -27 32.5t-18 47t1 47.5t29 34q16 -5 21.5 -15.5t7.5 -23.5t2.5 -27t5.5 -25t16.5 -18.5t35.5 -7.5q46 0 83.5 30t67.5 78t52 107t35 117.5t17.5 109.5t-0.5 83q-18 -19 -43.5 -39t-51 -33.5t-49 -18t-38.5 6.5q-38 31 -46.5 74t4.5 90t42.5 93
t65.5 82.5t75.5 59t72 22t54 -28.5t23.5 -92q-31 -246 -74.5 -413.5t-99 -262.5t-122 -120.5t-142.5 11.5zM87 143q10 -20 33 -14t50.5 29.5t54.5 59t46.5 73.5t26 74t-7.5 60q-22 9 -46.5 -4t-49 -39t-46 -61t-37 -69t-22.5 -63.5t-2 -45.5zM231 592q0 20 13 32.5t29 16.5
t29.5 -2t14.5 -23q4 -10 -6.5 -23.5t-26.5 -21t-31.5 -5t-21.5 25.5z" />
    <glyph glyph-name="hbar" unicode="&#x127;" horiz-adv-x="432" 
d="M71 22q-3 -12 -12.5 -18.5t-18 -5t-13.5 11.5t0 30l142 754q6 28 16.5 38t20.5 8.5t17 -11t5 -20.5l-72 -417q46 53 78.5 72.5t54.5 14t34.5 -31.5t19.5 -63.5t10 -81.5t4.5 -86t4 -77t8.5 -54q14 -12 28 -6t29 16.5t31.5 19t34.5 3.5q-11 -29 -29.5 -43.5t-44.5 -30.5
q-45 -27 -69 -15.5t-35 46.5t-12 84.5t-1 98.5t-2.5 88.5t-14.5 54.5q-23 9 -45 -6.5t-41.5 -46.5t-36.5 -72.5t-31.5 -83.5t-25.5 -81t-19 -65t-11.5 -34.5t-3.5 10.5zM20 574q-4 11 -1.5 25t16.5 19l240 10q15 -11 15 -29.5t-15 -29.5q-10 1 -32 -1t-49.5 -4t-57 -4
t-54.5 -1.5t-42 4t-20 11.5z" />
    <glyph glyph-name="hcircumflex" unicode="&#x125;" horiz-adv-x="432" 
d="M71 22q-3 -12 -12.5 -18.5t-18 -5t-13.5 11.5t0 30l142 754q6 28 16.5 38t20.5 8.5t17 -11t5 -20.5l-72 -417q46 53 78.5 72.5t54.5 14t34.5 -31.5t19.5 -63.5t10 -81.5t4.5 -86t4 -77t8.5 -54q14 -12 28 -6t29 16.5t31.5 19t34.5 3.5q-11 -29 -29.5 -43.5t-44.5 -30.5
q-45 -27 -69 -15.5t-35 46.5t-12 84.5t-1 98.5t-2.5 88.5t-14.5 54.5q-23 9 -45 -6.5t-41.5 -46.5t-36.5 -72.5t-31.5 -83.5t-25.5 -81t-19 -65t-11.5 -34.5t-3.5 10.5zM222 1119q19 8 30 -5t19.5 -36.5t17 -52.5t23.5 -54q5 -15 15 -30.5t13.5 -28t-4.5 -21t-39 -8.5
q-6 -3 -15 10.5t-19.5 34.5t-22 45.5t-23.5 43.5q-14 -29 -27.5 -50t-30.5 -49q-4 -7 -9.5 -16.5t-13 -13.5t-17 2.5t-22.5 32.5z" />
    <glyph glyph-name="iacute" unicode="&#xed;" horiz-adv-x="191" 
d="M25 25q2 45 12 103.5t25 119t32.5 118t33.5 100.5q5 8 14 14t18 1q8 -4 8.5 -31t-5.5 -67.5t-16 -89t-23 -96t-27.5 -89t-28 -68t-25 -32.5t-18.5 17zM218 699q-12 -19 -23.5 -43.5t-22 -45.5t-19.5 -34.5t-15 -10.5q-31 0 -39 8.5t-4.5 21t13.5 28t15 30.5q16 29 26 49
t19 27t20 0.5t30 -30.5z" />
    <glyph glyph-name="ibreve" horiz-adv-x="191" 
d="M25 25q2 45 12 103.5t25 119t32.5 118t33.5 100.5q5 8 14 14t18 1q8 -4 8.5 -31t-5.5 -67.5t-16 -89t-23 -96t-27.5 -89t-28 -68t-25 -32.5t-18.5 17zM20 694q13 13 22 18t15.5 6t11 -0.5t8.5 -1.5q16 -43 33.5 -62t34.5 -21t33 9t29 26.5t21.5 32t11.5 26.5
q31 0 42 -4.5t11 -13t-7 -20t-12 -26.5q-5 -14 -18.5 -31t-33.5 -31t-44.5 -20.5t-51 1t-54 34t-52.5 78.5z" />
    <glyph glyph-name="icircumflex" unicode="&#xee;" horiz-adv-x="191" 
d="M25 25q2 45 12 103.5t25 119t32.5 118t33.5 100.5q5 8 14 14t18 1q8 -4 8.5 -31t-5.5 -67.5t-16 -89t-23 -96t-27.5 -89t-28 -68t-25 -32.5t-18.5 17zM138 829q19 8 30 -5t19.5 -36.5t17 -52.5t23.5 -54q5 -15 15 -30.5t13.5 -28t-4.5 -21t-39 -8.5q-6 -3 -15 10.5
t-19.5 34.5t-22 45.5t-23.5 43.5q-14 -29 -27.5 -50t-30.5 -49q-4 -7 -9.5 -16.5t-13 -13.5t-17 2.5t-22.5 32.5z" />
    <glyph glyph-name="idieresis" unicode="&#xef;" horiz-adv-x="191" 
d="M25 25q2 45 12 103.5t25 119t32.5 118t33.5 100.5q5 8 14 14t18 1q8 -4 8.5 -31t-5.5 -67.5t-16 -89t-23 -96t-27.5 -89t-28 -68t-25 -32.5t-18.5 17zM27 623q0 20 13 32.5t29 16.5t29.5 -2t14.5 -23q4 -10 -6.5 -23.5t-26.5 -21t-31.5 -5t-21.5 25.5zM178 623
q0 20 13 32.5t29 16.5t29.5 -2t14.5 -23q4 -10 -6.5 -23.5t-26.5 -21t-31.5 -5t-21.5 25.5z" />
    <glyph glyph-name="igrave" unicode="&#xec;" horiz-adv-x="191" 
d="M25 25q2 45 12 103.5t25 119t32.5 118t33.5 100.5q5 8 14 14t18 1q8 -4 8.5 -31t-5.5 -67.5t-16 -89t-23 -96t-27.5 -89t-28 -68t-25 -32.5t-18.5 17zM86 734q19 24 30 30.5t20 -0.5t18.5 -27t26.5 -49q5 -15 15 -30.5t13.5 -28t-4.5 -21t-39 -8.5q-6 -3 -15 10.5
t-19.5 34.5t-22 45.5t-23.5 43.5z" />
    <glyph glyph-name="imacron" unicode="&#x12b;" horiz-adv-x="191" 
d="M25 25q2 45 12 103.5t25 119t32.5 118t33.5 100.5q5 8 14 14t18 1q8 -4 8.5 -31t-5.5 -67.5t-16 -89t-23 -96t-27.5 -89t-28 -68t-25 -32.5t-18.5 17zM33 623q-4 11 -1.5 25t16.5 19l240 10q15 -11 15 -29.5t-15 -29.5q-10 1 -32 -1t-49.5 -4t-57 -4t-54.5 -1.5t-42 4
t-20 11.5z" />
    <glyph glyph-name="iogonek" unicode="&#x12f;" horiz-adv-x="191" 
d="M25 25q2 45 12 103.5t25 119t32.5 118t33.5 100.5q5 8 14 14t18 1q8 -4 8.5 -31t-5.5 -67.5t-16 -89t-23 -96t-27.5 -89t-28 -68t-25 -32.5t-18.5 17zM152 696q-7 18 0 25.5t20 7.5t28 -5.5t23.5 -13t7 -15.5t-21.5 -13q-17 -5 -34 -4t-23 18zM142 -62q-27 -38 -54 -45.5
t-48.5 5t-35.5 40.5t-14.5 60t14.5 64t52 53l5 -62q-17 -17 -18 -43.5t8.5 -45t26 -19.5t34.5 33z" />
    <glyph glyph-name="itilde" unicode="&#x129;" horiz-adv-x="191" 
d="M25 25q2 45 12 103.5t25 119t32.5 118t33.5 100.5q5 8 14 14t18 1q8 -4 8.5 -31t-5.5 -67.5t-16 -89t-23 -96t-27.5 -89t-28 -68t-25 -32.5t-18.5 17zM43 647q-12 -14 -25 -18.5t-22 1t-12 19.5t4 38q8 26 30 42.5t48.5 21t53 -5t43.5 -34.5q27 -29 46 -38.5t32 -7.5
t20 12.5t9.5 22t1 21t-5.5 9.5q3 19 11 26.5t17.5 5.5t18 -13.5t11.5 -30.5q6 -34 -8 -61.5t-40.5 -38t-62 0.5t-72.5 53q-30 25 -47.5 29.5t-27 -3t-14 -22.5t-9.5 -29z" />
    <glyph glyph-name="dotlessj" unicode="&#x237;" horiz-adv-x="292" 
d="M-235 -25q-8 -62 7.5 -114t45 -86.5t69 -48t79 0t74.5 58.5t56 128q16 85 27 163.5t20 155t18 153.5t23 160q18 6 32.5 -2t11.5 -27l-73 -574q-17 -93 -57 -153.5t-89.5 -89.5t-102.5 -26t-96.5 37.5t-71.5 100.5t-27 164q0 23 5.5 31t13.5 7t16.5 -8t14.5 -14.5
t7.5 -12.5t-3.5 -3z" />
    <glyph glyph-name="jcircumflex" unicode="&#x135;" horiz-adv-x="292" 
d="M-235 -25q-8 -62 7.5 -114t45 -86.5t69 -48t79 0t74.5 58.5t56 128q16 85 27 163.5t20 155t18 153.5t23 160q18 6 32.5 -2t11.5 -27l-73 -574q-17 -93 -57 -153.5t-89.5 -89.5t-102.5 -26t-96.5 37.5t-71.5 100.5t-27 164q0 23 5.5 31t13.5 7t16.5 -8t14.5 -14.5
t7.5 -12.5t-3.5 -3zM210 891q19 8 30 -5t19.5 -36.5t17 -52.5t23.5 -54q5 -15 15 -30.5t13.5 -28t-4.5 -21t-39 -8.5q-6 -3 -15 10.5t-19.5 34.5t-22 45.5t-23.5 43.5q-14 -29 -27.5 -50t-30.5 -49q-4 -7 -9.5 -16.5t-13 -13.5t-17 2.5t-22.5 32.5z" />
    <glyph glyph-name="kcommaaccent" unicode="&#x137;" horiz-adv-x="401" 
d="M437 62q-12 -6 -25.5 -17t-31 -17.5t-39.5 -4.5t-50.5 22t-66 61.5t-84.5 114.5q-33 -101 -58.5 -155t-38 -57t-8.5 48.5t31 163.5q-12 14 -13.5 28t4.5 27t17 25t22 23l115 491q-6 20 3.5 31.5t23 14t25 -5t7.5 -25.5l-101 -492q28 30 46 45.5t33 28.5t31.5 29t40.5 47
q5 6 11 13t13.5 12.5t16 7t18.5 -3.5q8 -32 -15 -59l-166 -179q16 -49 46 -95t64 -73t65.5 -27.5t51.5 41.5q17 1 24 -4.5t7 -14.5t-6 -21t-13 -23zM159 -299q-1 0 -1 6t1 8q15 25 24.5 48t11.5 45.5t-6.5 45t-29.5 46.5q-10 28 0 43.5t27.5 15.5t36 -16t24.5 -51
q3 -6 5 -25.5t1.5 -43.5t-5 -50t-15.5 -45t-29 -28t-45 1z" />
    <glyph glyph-name="lacute" unicode="&#x13a;" horiz-adv-x="196" 
d="M201 831q0 12 7.5 14t16.5 -3t15.5 -16t4.5 -24l-156 -780q-3 -19 -10 -25t-15.5 -4t-17.5 10t-16 19zM268 1050q-12 -19 -23.5 -43.5t-22 -45.5t-19.5 -34.5t-15 -10.5q-31 0 -39 8.5t-4.5 21t13.5 28t15 30.5q16 29 26 49t19 27t20 0.5t30 -30.5z" />
    <glyph glyph-name="lcaron" unicode="&#x13e;" horiz-adv-x="374" 
d="M201 831q0 12 7.5 14t16.5 -3t15.5 -16t4.5 -24l-156 -780q-3 -19 -10 -25t-15.5 -4t-17.5 10t-16 19zM250 405q-1 0 -1 6t1 8q15 25 24.5 48t11.5 45.5t-6.5 45t-29.5 46.5q-10 28 0 43.5t27.5 15.5t36 -16t24.5 -51q3 -6 5 -25.5t1.5 -43.5t-5 -50t-15.5 -45t-29 -28
t-45 1z" />
    <glyph glyph-name="lcommaaccent" unicode="&#x13c;" horiz-adv-x="196" 
d="M201 831q0 12 7.5 14t16.5 -3t15.5 -16t4.5 -24l-156 -780q-3 -19 -10 -25t-15.5 -4t-17.5 10t-16 19zM27 -316q-1 0 -1 6t1 8q15 25 24.5 48t11.5 45.5t-6.5 45t-29.5 46.5q-10 28 0 43.5t27.5 15.5t36 -16t24.5 -51q3 -6 5 -25.5t1.5 -43.5t-5 -50t-15.5 -45t-29 -28
t-45 1z" />
    <glyph glyph-name="ldot" unicode="&#x140;" horiz-adv-x="316" 
d="M201 831q0 12 7.5 14t16.5 -3t15.5 -16t4.5 -24l-156 -780q-3 -19 -10 -25t-15.5 -4t-17.5 10t-16 19zM210 357q0 20 13 32.5t29 16.5t29.5 -2t14.5 -23q4 -10 -6.5 -23.5t-26.5 -21t-31.5 -5t-21.5 25.5z" />
    <glyph glyph-name="lslash" unicode="&#x142;" horiz-adv-x="196" 
d="M201 831q0 12 7.5 14t16.5 -3t15.5 -16t4.5 -24l-156 -780q-3 -19 -10 -25t-15.5 -4t-17.5 10t-16 19zM0 352q-4 11 -1.5 25t16.5 19l240 10q15 -11 15 -29.5t-15 -29.5q-10 1 -32 -1t-49.5 -4t-57 -4t-54.5 -1.5t-42 4t-20 11.5z" />
    <glyph glyph-name="nacute" unicode="&#x144;" horiz-adv-x="390" 
d="M12 30q10 40 26.5 101t34 127.5t35 130t29.5 109.5q3 4 10.5 8.5t15.5 6t13.5 -1.5t4.5 -14l-53 -232q12 8 31 36t43.5 61t54.5 65t63 49q16 8 26.5 -6t16.5 -42.5t8 -68t2 -82.5t-1.5 -86t-3.5 -78t-4 -58.5t-3 -28.5q-2 -13 -12 -18t-21 -4t-19.5 7t-6.5 15l19 339
q-6 26 -23.5 19t-40.5 -34.5t-50 -70t-52.5 -89t-47.5 -91t-36 -75.5q-3 -4 -11.5 -9t-18 -6.5t-18 2.5t-11.5 19zM339 756q-12 -19 -23.5 -43.5t-22 -45.5t-19.5 -34.5t-15 -10.5q-31 0 -39 8.5t-4.5 21t13.5 28t15 30.5q16 29 26 49t19 27t20 0.5t30 -30.5z" />
    <glyph glyph-name="napostrophe" unicode="&#x149;" horiz-adv-x="390" 
d="M12 30q10 40 26.5 101t34 127.5t35 130t29.5 109.5q3 4 10.5 8.5t15.5 6t13.5 -1.5t4.5 -14l-53 -232q12 8 31 36t43.5 61t54.5 65t63 49q16 8 26.5 -6t16.5 -42.5t8 -68t2 -82.5t-1.5 -86t-3.5 -78t-4 -58.5t-3 -28.5q-2 -13 -12 -18t-21 -4t-19.5 7t-6.5 15l19 339
q-6 26 -23.5 19t-40.5 -34.5t-50 -70t-52.5 -89t-47.5 -91t-36 -75.5q-3 -4 -11.5 -9t-18 -6.5t-18 2.5t-11.5 19zM89 574q-1 0 -1 6t1 8q15 25 24.5 48t11.5 45.5t-6.5 45t-29.5 46.5q-10 28 0 43.5t27.5 15.5t36 -16t24.5 -51q3 -6 5 -25.5t1.5 -43.5t-5 -50t-15.5 -45
t-29 -28t-45 1z" />
    <glyph glyph-name="ncaron" unicode="&#x148;" horiz-adv-x="390" 
d="M12 30q10 40 26.5 101t34 127.5t35 130t29.5 109.5q3 4 10.5 8.5t15.5 6t13.5 -1.5t4.5 -14l-53 -232q12 8 31 36t43.5 61t54.5 65t63 49q16 8 26.5 -6t16.5 -42.5t8 -68t2 -82.5t-1.5 -86t-3.5 -78t-4 -58.5t-3 -28.5q-2 -13 -12 -18t-21 -4t-19.5 7t-6.5 15l19 339
q-6 26 -23.5 19t-40.5 -34.5t-50 -70t-52.5 -89t-47.5 -91t-36 -75.5q-3 -4 -11.5 -9t-18 -6.5t-18 2.5t-11.5 19zM179 763q13 25 22.5 31.5t17 3t13 -13t9.5 -16.5q17 -28 30.5 -49t27.5 -50q12 19 23.5 43.5t22 45.5t19.5 34.5t15 10.5q31 0 39 -8.5t4.5 -21t-13.5 -28
t-15 -30.5q-15 -25 -23.5 -54t-17 -52.5t-19.5 -36.5t-30 -5z" />
    <glyph glyph-name="ncommaaccent" unicode="&#x146;" horiz-adv-x="390" 
d="M12 30q10 40 26.5 101t34 127.5t35 130t29.5 109.5q3 4 10.5 8.5t15.5 6t13.5 -1.5t4.5 -14l-53 -232q12 8 31 36t43.5 61t54.5 65t63 49q16 8 26.5 -6t16.5 -42.5t8 -68t2 -82.5t-1.5 -86t-3.5 -78t-4 -58.5t-3 -28.5q-2 -13 -12 -18t-21 -4t-19.5 7t-6.5 15l19 339
q-6 26 -23.5 19t-40.5 -34.5t-50 -70t-52.5 -89t-47.5 -91t-36 -75.5q-3 -4 -11.5 -9t-18 -6.5t-18 2.5t-11.5 19zM154 -299q-1 0 -1 6t1 8q15 25 24.5 48t11.5 45.5t-6.5 45t-29.5 46.5q-10 28 0 43.5t27.5 15.5t36 -16t24.5 -51q3 -6 5 -25.5t1.5 -43.5t-5 -50t-15.5 -45
t-29 -28t-45 1z" />
    <glyph glyph-name="ntilde" unicode="&#xf1;" horiz-adv-x="390" 
d="M12 30q10 40 26.5 101t34 127.5t35 130t29.5 109.5q3 4 10.5 8.5t15.5 6t13.5 -1.5t4.5 -14l-53 -232q12 8 31 36t43.5 61t54.5 65t63 49q16 8 26.5 -6t16.5 -42.5t8 -68t2 -82.5t-1.5 -86t-3.5 -78t-4 -58.5t-3 -28.5q-2 -13 -12 -18t-21 -4t-19.5 7t-6.5 15l19 339
q-6 26 -23.5 19t-40.5 -34.5t-50 -70t-52.5 -89t-47.5 -91t-36 -75.5q-3 -4 -11.5 -9t-18 -6.5t-18 2.5t-11.5 19zM182 606q-12 -14 -25 -18.5t-22 1t-12 19.5t4 38q8 26 30 42.5t48.5 21t53 -5t43.5 -34.5q27 -29 46 -38.5t32 -7.5t20 12.5t9.5 22t1 21t-5.5 9.5
q3 19 11 26.5t17.5 5.5t18 -13.5t11.5 -30.5q6 -34 -8 -61.5t-40.5 -38t-62 0.5t-72.5 53q-30 25 -47.5 29.5t-27 -3t-14 -22.5t-9.5 -29z" />
    <glyph glyph-name="oacute" unicode="&#xf3;" horiz-adv-x="331" 
d="M73 15q-34 23 -43.5 74t0 112.5t34.5 124t58.5 108t72 64.5t76.5 -6q21 -14 30.5 -46.5t9.5 -75t-9.5 -91t-26 -94.5t-38.5 -86t-48.5 -65.5t-56 -32t-59.5 13.5zM88 88q7 -30 29.5 -20.5t49 42.5t51 81.5t37.5 97t8.5 88.5t-36.5 57q-45 -16 -74 -56t-44.5 -90
t-20 -103.5t-0.5 -96.5zM247 667q-12 -19 -23.5 -43.5t-22 -45.5t-19.5 -34.5t-15 -10.5q-31 0 -39 8.5t-4.5 21t13.5 28t15 30.5q16 29 26 49t19 27t20 0.5t30 -30.5z" />
    <glyph glyph-name="obreve" unicode="&#x14f;" horiz-adv-x="331" 
d="M73 15q-34 23 -43.5 74t0 112.5t34.5 124t58.5 108t72 64.5t76.5 -6q21 -14 30.5 -46.5t9.5 -75t-9.5 -91t-26 -94.5t-38.5 -86t-48.5 -65.5t-56 -32t-59.5 13.5zM88 88q7 -30 29.5 -20.5t49 42.5t51 81.5t37.5 97t8.5 88.5t-36.5 57q-45 -16 -74 -56t-44.5 -90
t-20 -103.5t-0.5 -96.5zM81 668q13 13 22 18t15.5 6t11 -0.5t8.5 -1.5q16 -43 33.5 -62t34.5 -21t33 9t29 26.5t21.5 32t11.5 26.5q31 0 42 -4.5t11 -13t-7 -20t-12 -26.5q-5 -14 -18.5 -31t-33.5 -31t-44.5 -20.5t-51 1t-54 34t-52.5 78.5z" />
    <glyph glyph-name="ocircumflex" unicode="&#xf4;" horiz-adv-x="331" 
d="M73 15q-34 23 -43.5 74t0 112.5t34.5 124t58.5 108t72 64.5t76.5 -6q21 -14 30.5 -46.5t9.5 -75t-9.5 -91t-26 -94.5t-38.5 -86t-48.5 -65.5t-56 -32t-59.5 13.5zM88 88q7 -30 29.5 -20.5t49 42.5t51 81.5t37.5 97t8.5 88.5t-36.5 57q-45 -16 -74 -56t-44.5 -90
t-20 -103.5t-0.5 -96.5zM242 793q19 8 30 -5t19.5 -36.5t17 -52.5t23.5 -54q5 -15 15 -30.5t13.5 -28t-4.5 -21t-39 -8.5q-6 -3 -15 10.5t-19.5 34.5t-22 45.5t-23.5 43.5q-14 -29 -27.5 -50t-30.5 -49q-4 -7 -9.5 -16.5t-13 -13.5t-17 2.5t-22.5 32.5z" />
    <glyph glyph-name="odieresis" unicode="&#xf6;" horiz-adv-x="331" 
d="M73 15q-34 23 -43.5 74t0 112.5t34.5 124t58.5 108t72 64.5t76.5 -6q21 -14 30.5 -46.5t9.5 -75t-9.5 -91t-26 -94.5t-38.5 -86t-48.5 -65.5t-56 -32t-59.5 13.5zM88 88q7 -30 29.5 -20.5t49 42.5t51 81.5t37.5 97t8.5 88.5t-36.5 57q-45 -16 -74 -56t-44.5 -90
t-20 -103.5t-0.5 -96.5zM95 566q0 20 13 32.5t29 16.5t29.5 -2t14.5 -23q4 -10 -6.5 -23.5t-26.5 -21t-31.5 -5t-21.5 25.5zM246 566q0 20 13 32.5t29 16.5t29.5 -2t14.5 -23q4 -10 -6.5 -23.5t-26.5 -21t-31.5 -5t-21.5 25.5z" />
    <glyph glyph-name="ograve" unicode="&#xf2;" horiz-adv-x="331" 
d="M73 15q-34 23 -43.5 74t0 112.5t34.5 124t58.5 108t72 64.5t76.5 -6q21 -14 30.5 -46.5t9.5 -75t-9.5 -91t-26 -94.5t-38.5 -86t-48.5 -65.5t-56 -32t-59.5 13.5zM88 88q7 -30 29.5 -20.5t49 42.5t51 81.5t37.5 97t8.5 88.5t-36.5 57q-45 -16 -74 -56t-44.5 -90
t-20 -103.5t-0.5 -96.5zM164 685q19 24 30 30.5t20 -0.5t18.5 -27t26.5 -49q5 -15 15 -30.5t13.5 -28t-4.5 -21t-39 -8.5q-6 -3 -15 10.5t-19.5 34.5t-22 45.5t-23.5 43.5z" />
    <glyph glyph-name="ohungarumlaut" unicode="&#x151;" horiz-adv-x="331" 
d="M73 15q-34 23 -43.5 74t0 112.5t34.5 124t58.5 108t72 64.5t76.5 -6q21 -14 30.5 -46.5t9.5 -75t-9.5 -91t-26 -94.5t-38.5 -86t-48.5 -65.5t-56 -32t-59.5 13.5zM88 88q7 -30 29.5 -20.5t49 42.5t51 81.5t37.5 97t8.5 88.5t-36.5 57q-45 -16 -74 -56t-44.5 -90
t-20 -103.5t-0.5 -96.5zM259 689q-12 -19 -23.5 -43.5t-22 -45.5t-19.5 -34.5t-15 -10.5q-31 0 -39 8.5t-4.5 21t13.5 28t15 30.5q16 29 26 49t19 27t20 0.5t30 -30.5zM379 679q-12 -19 -23.5 -43.5t-22 -45.5t-19.5 -34.5t-15 -10.5q-31 0 -39 8.5t-4.5 21t13.5 28t15 30.5
q16 29 26 49t19 27t20 0.5t30 -30.5z" />
    <glyph glyph-name="omacron" unicode="&#x14d;" horiz-adv-x="331" 
d="M73 15q-34 23 -43.5 74t0 112.5t34.5 124t58.5 108t72 64.5t76.5 -6q21 -14 30.5 -46.5t9.5 -75t-9.5 -91t-26 -94.5t-38.5 -86t-48.5 -65.5t-56 -32t-59.5 13.5zM88 88q7 -30 29.5 -20.5t49 42.5t51 81.5t37.5 97t8.5 88.5t-36.5 57q-45 -16 -74 -56t-44.5 -90
t-20 -103.5t-0.5 -96.5zM84 556q-4 11 -1.5 25t16.5 19l240 10q15 -11 15 -29.5t-15 -29.5q-10 1 -32 -1t-49.5 -4t-57 -4t-54.5 -1.5t-42 4t-20 11.5z" />
    <glyph glyph-name="oslash" unicode="&#xf8;" horiz-adv-x="331" 
d="M73 15q-34 23 -43.5 74t0 112.5t34.5 124t58.5 108t72 64.5t76.5 -6q21 -14 30.5 -46.5t9.5 -75t-9.5 -91t-26 -94.5t-38.5 -86t-48.5 -65.5t-56 -32t-59.5 13.5zM88 88q7 -30 29.5 -20.5t49 42.5t51 81.5t37.5 97t8.5 88.5t-36.5 57q-45 -16 -74 -56t-44.5 -90
t-20 -103.5t-0.5 -96.5zM-38.3535 19.0938q26.5244 36.8223 56.7617 80.7021q30.2383 43.8809 62.0674 89.9082q31.8291 46.0283 64.1885 91.75q32.3604 45.7207 63.6592 86.2256q31.2979 40.5049 59.9443 72.7246t53.0488 52.165q24.4023 19.9463 44.0303 24.2422
t31.2988 -11.0469q-82.7559 -99.4209 -141.64 -174.294q-58.8848 -74.8721 -99.2012 -128.878q-40.3174 -54.0068 -63.6582 -89.9092q-23.3418 -35.9014 -36.0732 -57.6885q-12.7314 -21.7861 -17.5059 -31.9121q-4.77441 -10.127 -5.83594 -12.5811
q-2.12207 -3.06934 -11.6709 -5.83105q-9.54883 -2.76074 -21.75 -3.375q-12.2012 -0.613281 -23.3408 3.06836q-11.1406 3.68262 -14.3232 14.7295z" />
    <glyph glyph-name="oslashacute" unicode="&#x1ff;" horiz-adv-x="331" 
d="M73 15q-34 23 -43.5 74t0 112.5t34.5 124t58.5 108t72 64.5t76.5 -6q21 -14 30.5 -46.5t9.5 -75t-9.5 -91t-26 -94.5t-38.5 -86t-48.5 -65.5t-56 -32t-59.5 13.5zM88 88q7 -30 29.5 -20.5t49 42.5t51 81.5t37.5 97t8.5 88.5t-36.5 57q-45 -16 -74 -56t-44.5 -90
t-20 -103.5t-0.5 -96.5zM-37.7607 16.9512q27.0742 34.918 57.9375 76.5293q30.8643 41.6104 63.3525 85.2578q32.4883 43.6484 65.5186 87.0049t64.9766 81.7666q31.9473 38.4102 61.1865 68.9639q29.2402 30.5537 54.1475 49.4678q24.9082 18.9141 44.9424 22.9873
q20.0342 4.07422 31.9473 -10.4756q-84.4697 -94.2793 -144.573 -165.279q-60.1045 -71 -101.256 -122.214q-41.1523 -51.2129 -64.9766 -85.2588q-23.8252 -34.0449 -36.8203 -54.7051t-17.8691 -30.2627q-4.87305 -9.60254 -5.95605 -11.9297
q-2.16602 -2.91016 -11.9121 -5.5293q-9.74707 -2.61816 -22.2002 -3.2002q-12.4541 -0.582031 -23.8252 2.90918q-11.3711 3.49219 -14.6201 13.9678zM247 667q-12 -19 -23.5 -43.5t-22 -45.5t-19.5 -34.5t-15 -10.5q-31 0 -39 8.5t-4.5 21t13.5 28t15 30.5q16 29 26 49
t19 27t20 0.5t30 -30.5z" />
    <glyph glyph-name="otilde" unicode="&#xf5;" horiz-adv-x="331" 
d="M73 15q-34 23 -43.5 74t0 112.5t34.5 124t58.5 108t72 64.5t76.5 -6q21 -14 30.5 -46.5t9.5 -75t-9.5 -91t-26 -94.5t-38.5 -86t-48.5 -65.5t-56 -32t-59.5 13.5zM88 88q7 -30 29.5 -20.5t49 42.5t51 81.5t37.5 97t8.5 88.5t-36.5 57q-45 -16 -74 -56t-44.5 -90
t-20 -103.5t-0.5 -96.5zM117 594q-12 -14 -25 -18.5t-22 1t-12 19.5t4 38q8 26 30 42.5t48.5 21t53 -5t43.5 -34.5q27 -29 46 -38.5t32 -7.5t20 12.5t9.5 22t1 21t-5.5 9.5q3 19 11 26.5t17.5 5.5t18 -13.5t11.5 -30.5q6 -34 -8 -61.5t-40.5 -38t-62 0.5t-72.5 53
q-30 25 -47.5 29.5t-27 -3t-14 -22.5t-9.5 -29z" />
    <glyph glyph-name="oe" unicode="&#x153;" horiz-adv-x="570" 
d="M73 15q-34 23 -43.5 74t0 112.5t34.5 124t58.5 108t72 64.5t76.5 -6q21 -14 30.5 -46.5t9.5 -75t-9.5 -91t-26 -94.5t-38.5 -86t-48.5 -65.5t-56 -32t-59.5 13.5zM88 88q7 -30 29.5 -20.5t49 42.5t51 81.5t37.5 97t8.5 88.5t-36.5 57q-45 -16 -74 -56t-44.5 -90
t-20 -103.5t-0.5 -96.5zM258 49q-13 19 -18 50t-2.5 68.5t12 79t26 82.5t39.5 79t52 67q30 29 58.5 39.5t52 7t41 -18.5t25.5 -37.5t5 -51.5t-20 -59q-26 -47 -51 -70t-51.5 -36t-56.5 -23t-66 -30q-7 -14 -9 -36.5t3.5 -43t20 -33t41.5 -6.5t67.5 36t98.5 95q11 -6 9 -21.5
t-13.5 -35.5t-31 -42t-43.5 -41.5t-50.5 -34t-52 -19t-48 3t-38.5 31.5zM422 445q-57 -48 -84.5 -94t-25.5 -88q35 1 67 20t57 46t40 55.5t15.5 48.5t-16 25.5t-53.5 -13.5z" />
    <glyph glyph-name="racute" unicode="&#x155;" horiz-adv-x="392" 
d="M88 444q1 12 12 24.5t23.5 21t22.5 9.5t10 -9l-31 -147q25 37 56.5 75t67.5 60.5t76 20t81 -46.5q10 -11 13 -22t-0.5 -19.5t-13 -12.5t-22.5 -1q-30 42 -62.5 39.5t-63.5 -33t-60 -82t-52 -108.5t-40 -111.5t-24 -91.5l-54 18zM335 694q-12 -19 -23.5 -43.5t-22 -45.5
t-19.5 -34.5t-15 -10.5q-31 0 -39 8.5t-4.5 21t13.5 28t15 30.5q16 29 26 49t19 27t20 0.5t30 -30.5z" />
    <glyph glyph-name="rcaron" unicode="&#x159;" horiz-adv-x="392" 
d="M88 444q1 12 12 24.5t23.5 21t22.5 9.5t10 -9l-31 -147q25 37 56.5 75t67.5 60.5t76 20t81 -46.5q10 -11 13 -22t-0.5 -19.5t-13 -12.5t-22.5 -1q-30 42 -62.5 39.5t-63.5 -33t-60 -82t-52 -108.5t-40 -111.5t-24 -91.5l-54 18zM122 759q13 25 22.5 31.5t17 3t13 -13
t9.5 -16.5q17 -28 30.5 -49t27.5 -50q12 19 23.5 43.5t22 45.5t19.5 34.5t15 10.5q31 0 39 -8.5t4.5 -21t-13.5 -28t-15 -30.5q-15 -25 -23.5 -54t-17 -52.5t-19.5 -36.5t-30 -5z" />
    <glyph glyph-name="rcommaaccent" unicode="&#x157;" horiz-adv-x="392" 
d="M88 444q1 12 12 24.5t23.5 21t22.5 9.5t10 -9l-31 -147q25 37 56.5 75t67.5 60.5t76 20t81 -46.5q10 -11 13 -22t-0.5 -19.5t-13 -12.5t-22.5 -1q-30 42 -62.5 39.5t-63.5 -33t-60 -82t-52 -108.5t-40 -111.5t-24 -91.5l-54 18zM155 -299q-1 0 -1 6t1 8q15 25 24.5 48
t11.5 45.5t-6.5 45t-29.5 46.5q-10 28 0 43.5t27.5 15.5t36 -16t24.5 -51q3 -6 5 -25.5t1.5 -43.5t-5 -50t-15.5 -45t-29 -28t-45 1z" />
    <glyph glyph-name="sacute" unicode="&#x15b;" horiz-adv-x="412" 
d="M54 -7q-13 16 3 31.5t48 33t72 38t74.5 45.5t56.5 55t17 67q-26 2 -58 -11t-68 -28t-75.5 -24.5t-79.5 -0.5q-20 8 -20.5 30.5t12 53t35.5 65.5t52 68t60 60t59.5 41.5t52 13t35.5 -25.5q1 -3 -18.5 -12.5t-48.5 -25t-62.5 -37t-60.5 -48t-42.5 -57.5t-8.5 -67
q31 -8 62 0t62 21t62.5 25t63.5 12q46 -3 56 -28.5t-6 -61.5t-52.5 -77.5t-84 -76.5t-99.5 -57.5t-99 -21.5zM287 667q-12 -19 -23.5 -43.5t-22 -45.5t-19.5 -34.5t-15 -10.5q-31 0 -39 8.5t-4.5 21t13.5 28t15 30.5q16 29 26 49t19 27t20 0.5t30 -30.5z" />
    <glyph glyph-name="scaron" unicode="&#x161;" horiz-adv-x="412" 
d="M54 -7q-13 16 3 31.5t48 33t72 38t74.5 45.5t56.5 55t17 67q-26 2 -58 -11t-68 -28t-75.5 -24.5t-79.5 -0.5q-20 8 -20.5 30.5t12 53t35.5 65.5t52 68t60 60t59.5 41.5t52 13t35.5 -25.5q1 -3 -18.5 -12.5t-48.5 -25t-62.5 -37t-60.5 -48t-42.5 -57.5t-8.5 -67
q31 -8 62 0t62 21t62.5 25t63.5 12q46 -3 56 -28.5t-6 -61.5t-52.5 -77.5t-84 -76.5t-99.5 -57.5t-99 -21.5zM66 746q13 25 22.5 31.5t17 3t13 -13t9.5 -16.5q17 -28 30.5 -49t27.5 -50q12 19 23.5 43.5t22 45.5t19.5 34.5t15 10.5q31 0 39 -8.5t4.5 -21t-13.5 -28
t-15 -30.5q-15 -25 -23.5 -54t-17 -52.5t-19.5 -36.5t-30 -5z" />
    <glyph glyph-name="scedilla" unicode="&#x15f;" horiz-adv-x="412" 
d="M54 -7q-13 16 3 31.5t48 33t72 38t74.5 45.5t56.5 55t17 67q-26 2 -58 -11t-68 -28t-75.5 -24.5t-79.5 -0.5q-20 8 -20.5 30.5t12 53t35.5 65.5t52 68t60 60t59.5 41.5t52 13t35.5 -25.5q1 -3 -18.5 -12.5t-48.5 -25t-62.5 -37t-60.5 -48t-42.5 -57.5t-8.5 -67
q31 -8 62 0t62 21t62.5 25t63.5 12q46 -3 56 -28.5t-6 -61.5t-52.5 -77.5t-84 -76.5t-99.5 -57.5t-99 -21.5zM149 -128q-1 -6 12 -2.5t29.5 12t31 20.5t17.5 22.5t-11.5 17.5t-55.5 7q-7 0 -11 12t-5.5 28t0.5 32.5t7 27t14 11.5t22 -14l4 -63q44 0 64.5 -11t23.5 -27
t-8.5 -34.5t-30.5 -35.5t-43.5 -29t-46.5 -14q-12 -1 -17 2.5t-6 9.5t2 13.5t8 14.5z" />
    <glyph glyph-name="scircumflex" unicode="&#x15d;" horiz-adv-x="412" 
d="M73 2q-13 16 3 31.5t48 33t72 38t74.5 45.5t56.5 55t17 67q-26 2 -58 -11t-68 -28t-75.5 -24.5t-79.5 -0.5q-20 8 -20.5 30.5t12 53t35.5 65.5t52 68t60 60t59.5 41.5t52 13t35.5 -25.5q1 -3 -18.5 -12.5t-48.5 -25t-62.5 -37t-60.5 -48t-42.5 -57.5t-8.5 -67q31 -8 62 0
t62 21t62.5 25t63.5 12q46 -3 56 -28.5t-6 -61.5t-52.5 -77.5t-84 -76.5t-99.5 -57.5t-99 -21.5zM234 833q19 8 30 -5t19.5 -36.5t17 -52.5t23.5 -54q5 -15 15 -30.5t13.5 -28t-4.5 -21t-39 -8.5q-6 -3 -15 10.5t-19.5 34.5t-22 45.5t-23.5 43.5q-14 -29 -27.5 -50
t-30.5 -49q-4 -7 -9.5 -16.5t-13 -13.5t-17 2.5t-22.5 32.5z" />
    <glyph glyph-name="scommaaccent" unicode="&#x219;" horiz-adv-x="412" 
d="M54 -7q-13 16 3 31.5t48 33t72 38t74.5 45.5t56.5 55t17 67q-26 2 -58 -11t-68 -28t-75.5 -24.5t-79.5 -0.5q-20 8 -20.5 30.5t12 53t35.5 65.5t52 68t60 60t59.5 41.5t52 13t35.5 -25.5q1 -3 -18.5 -12.5t-48.5 -25t-62.5 -37t-60.5 -48t-42.5 -57.5t-8.5 -67
q31 -8 62 0t62 21t62.5 25t63.5 12q46 -3 56 -28.5t-6 -61.5t-52.5 -77.5t-84 -76.5t-99.5 -57.5t-99 -21.5zM165 -299q-1 0 -1 6t1 8q15 25 24.5 48t11.5 45.5t-6.5 45t-29.5 46.5q-10 28 0 43.5t27.5 15.5t36 -16t24.5 -51q3 -6 5 -25.5t1.5 -43.5t-5 -50t-15.5 -45
t-29 -28t-45 1z" />
    <glyph glyph-name="tbar" unicode="&#x167;" horiz-adv-x="298" 
d="M71 26q12 60 23.5 130.5t22.5 140.5t21.5 133.5t20.5 110.5q-43 -7 -88.5 -3.5t-88.5 20.5l7 43q3 0 16.5 -1.5t32.5 -3.5t41 -3.5t40 -1.5t30.5 2t13.5 7l40 224q2 12 10 14.5t16.5 0.5t16 -7t8.5 -9l-33 -234l152 11v-55q-27 -2 -53.5 -3.5t-48.5 -3t-36 -4t-16 -6.5
l-87 -490q-2 -6 -11.5 -13.5t-20.5 -12t-20 -2.5t-9 16zM42 407q-4 11 -1.5 25t16.5 19l240 10q15 -11 15 -29.5t-15 -29.5q-10 1 -32 -1t-49.5 -4t-57 -4t-54.5 -1.5t-42 4t-20 11.5z" />
    <glyph glyph-name="tcaron" unicode="&#x165;" horiz-adv-x="383" 
d="M59 7q12 60 23.5 130.5t22.5 140.5t21.5 133.5t20.5 110.5q-43 -7 -88.5 -3.5t-88.5 20.5l7 43q3 0 16.5 -1.5t32.5 -3.5t41 -3.5t40 -1.5t30.5 2t13.5 7l40 224q2 12 10 14.5t16.5 0.5t16 -7t8.5 -9l-33 -234l152 11v-55q-27 -2 -53.5 -3.5t-48.5 -3t-36 -4t-16 -6.5
l-87 -490q-2 -6 -11.5 -13.5t-20.5 -12t-20 -2.5t-9 16zM294 637q-1 0 -1 6t1 8q15 25 24.5 48t11.5 45.5t-6.5 45t-29.5 46.5q-10 28 0 43.5t27.5 15.5t36 -16t24.5 -51q3 -6 5 -25.5t1.5 -43.5t-5 -50t-15.5 -45t-29 -28t-45 1z" />
    <glyph glyph-name="tcommaaccent" unicode="&#x163;" horiz-adv-x="298" 
d="M59 7q12 60 23.5 130.5t22.5 140.5t21.5 133.5t20.5 110.5q-43 -7 -88.5 -3.5t-88.5 20.5l7 43q3 0 16.5 -1.5t32.5 -3.5t41 -3.5t40 -1.5t30.5 2t13.5 7l40 224q2 12 10 14.5t16.5 0.5t16 -7t8.5 -9l-33 -234l152 11v-55q-27 -2 -53.5 -3.5t-48.5 -3t-36 -4t-16 -6.5
l-87 -490q-2 -6 -11.5 -13.5t-20.5 -12t-20 -2.5t-9 16zM56 -334q-1 0 -1 6t1 8q15 25 24.5 48t11.5 45.5t-6.5 45t-29.5 46.5q-10 28 0 43.5t27.5 15.5t36 -16t24.5 -51q3 -6 5 -25.5t1.5 -43.5t-5 -50t-15.5 -45t-29 -28t-45 1z" />
    <glyph glyph-name="uacute" unicode="&#xfa;" horiz-adv-x="423" 
d="M325 49q3 0 -1 -8t-12 -17.5t-17.5 -18t-17.5 -9.5t-12.5 9t-2.5 36l50 186q-17 -33 -38.5 -67t-47.5 -64.5t-58 -55t-71 -39.5q-32 -5 -47 19t-18 64.5t4 92.5t20 104.5t30 99t34.5 76.5t33 38t24.5 -18q-4 -23 -15.5 -60t-25 -80.5t-27 -88t-22 -82.5t-9.5 -65.5
t10 -34.5q24 -10 52 11.5t56 62t54.5 92.5t49 102.5t39.5 93l25 62.5q1 -1 8.5 -2.5t16.5 -2.5t16 -2t7 -2l-88 -432v0zM365 676q-12 -19 -23.5 -43.5t-22 -45.5t-19.5 -34.5t-15 -10.5q-31 0 -39 8.5t-4.5 21t13.5 28t15 30.5q16 29 26 49t19 27t20 0.5t30 -30.5z" />
    <glyph glyph-name="ubreve" unicode="&#x16d;" horiz-adv-x="423" 
d="M325 49q3 0 -1 -8t-12 -17.5t-17.5 -18t-17.5 -9.5t-12.5 9t-2.5 36l50 186q-17 -33 -38.5 -67t-47.5 -64.5t-58 -55t-71 -39.5q-32 -5 -47 19t-18 64.5t4 92.5t20 104.5t30 99t34.5 76.5t33 38t24.5 -18q-4 -23 -15.5 -60t-25 -80.5t-27 -88t-22 -82.5t-9.5 -65.5
t10 -34.5q24 -10 52 11.5t56 62t54.5 92.5t49 102.5t39.5 93l25 62.5q1 -1 8.5 -2.5t16.5 -2.5t16 -2t7 -2l-88 -432v0zM136 690q13 13 22 18t15.5 6t11 -0.5t8.5 -1.5q16 -43 33.5 -62t34.5 -21t33 9t29 26.5t21.5 32t11.5 26.5q31 0 42 -4.5t11 -13t-7 -20t-12 -26.5
q-5 -14 -18.5 -31t-33.5 -31t-44.5 -20.5t-51 1t-54 34t-52.5 78.5z" />
    <glyph glyph-name="ucircumflex" unicode="&#xfb;" horiz-adv-x="423" 
d="M325 49q3 0 -1 -8t-12 -17.5t-17.5 -18t-17.5 -9.5t-12.5 9t-2.5 36l50 186q-17 -33 -38.5 -67t-47.5 -64.5t-58 -55t-71 -39.5q-32 -5 -47 19t-18 64.5t4 92.5t20 104.5t30 99t34.5 76.5t33 38t24.5 -18q-4 -23 -15.5 -60t-25 -80.5t-27 -88t-22 -82.5t-9.5 -65.5
t10 -34.5q24 -10 52 11.5t56 62t54.5 92.5t49 102.5t39.5 93l25 62.5q1 -1 8.5 -2.5t16.5 -2.5t16 -2t7 -2l-88 -432v0zM311 802q19 8 30 -5t19.5 -36.5t17 -52.5t23.5 -54q5 -15 15 -30.5t13.5 -28t-4.5 -21t-39 -8.5q-6 -3 -15 10.5t-19.5 34.5t-22 45.5t-23.5 43.5
q-14 -29 -27.5 -50t-30.5 -49q-4 -7 -9.5 -16.5t-13 -13.5t-17 2.5t-22.5 32.5z" />
    <glyph glyph-name="udieresis" unicode="&#xfc;" horiz-adv-x="423" 
d="M325 49q3 0 -1 -8t-12 -17.5t-17.5 -18t-17.5 -9.5t-12.5 9t-2.5 36l50 186q-17 -33 -38.5 -67t-47.5 -64.5t-58 -55t-71 -39.5q-32 -5 -47 19t-18 64.5t4 92.5t20 104.5t30 99t34.5 76.5t33 38t24.5 -18q-4 -23 -15.5 -60t-25 -80.5t-27 -88t-22 -82.5t-9.5 -65.5
t10 -34.5q24 -10 52 11.5t56 62t54.5 92.5t49 102.5t39.5 93l25 62.5q1 -1 8.5 -2.5t16.5 -2.5t16 -2t7 -2l-88 -432v0zM185 602q0 20 13 32.5t29 16.5t29.5 -2t14.5 -23q4 -10 -6.5 -23.5t-26.5 -21t-31.5 -5t-21.5 25.5zM336 602q0 20 13 32.5t29 16.5t29.5 -2t14.5 -23
q4 -10 -6.5 -23.5t-26.5 -21t-31.5 -5t-21.5 25.5z" />
    <glyph glyph-name="uhungarumlaut" unicode="&#x171;" horiz-adv-x="423" 
d="M325 49q3 0 -1 -8t-12 -17.5t-17.5 -18t-17.5 -9.5t-12.5 9t-2.5 36l50 186q-17 -33 -38.5 -67t-47.5 -64.5t-58 -55t-71 -39.5q-32 -5 -47 19t-18 64.5t4 92.5t20 104.5t30 99t34.5 76.5t33 38t24.5 -18q-4 -23 -15.5 -60t-25 -80.5t-27 -88t-22 -82.5t-9.5 -65.5
t10 -34.5q24 -10 52 11.5t56 62t54.5 92.5t49 102.5t39.5 93l25 62.5q1 -1 8.5 -2.5t16.5 -2.5t16 -2t7 -2l-88 -432v0zM326 721q-12 -19 -23.5 -43.5t-22 -45.5t-19.5 -34.5t-15 -10.5q-31 0 -39 8.5t-4.5 21t13.5 28t15 30.5q16 29 26 49t19 27t20 0.5t30 -30.5zM446 711
q-12 -19 -23.5 -43.5t-22 -45.5t-19.5 -34.5t-15 -10.5q-31 0 -39 8.5t-4.5 21t13.5 28t15 30.5q16 29 26 49t19 27t20 0.5t30 -30.5z" />
    <glyph glyph-name="utilde" unicode="&#x169;" horiz-adv-x="423" 
d="M325 49q3 0 -1 -8t-12 -17.5t-17.5 -18t-17.5 -9.5t-12.5 9t-2.5 36l50 186q-17 -33 -38.5 -67t-47.5 -64.5t-58 -55t-71 -39.5q-32 -5 -47 19t-18 64.5t4 92.5t20 104.5t30 99t34.5 76.5t33 38t24.5 -18q-4 -23 -15.5 -60t-25 -80.5t-27 -88t-22 -82.5t-9.5 -65.5
t10 -34.5q24 -10 52 11.5t56 62t54.5 92.5t49 102.5t39.5 93l25 62.5q1 -1 8.5 -2.5t16.5 -2.5t16 -2t7 -2l-88 -432v0zM194 585q-12 -14 -25 -18.5t-22 1t-12 19.5t4 38q8 26 30 42.5t48.5 21t53 -5t43.5 -34.5q27 -29 46 -38.5t32 -7.5t20 12.5t9.5 22t1 21t-5.5 9.5
q3 19 11 26.5t17.5 5.5t18 -13.5t11.5 -30.5q6 -34 -8 -61.5t-40.5 -38t-62 0.5t-72.5 53q-30 25 -47.5 29.5t-27 -3t-14 -22.5t-9.5 -29z" />
    <glyph glyph-name="ugrave" unicode="&#xf9;" horiz-adv-x="423" 
d="M325 49q3 0 -1 -8t-12 -17.5t-17.5 -18t-17.5 -9.5t-12.5 9t-2.5 36l50 186q-17 -33 -38.5 -67t-47.5 -64.5t-58 -55t-71 -39.5q-32 -5 -47 19t-18 64.5t4 92.5t20 104.5t30 99t34.5 76.5t33 38t24.5 -18q-4 -23 -15.5 -60t-25 -80.5t-27 -88t-22 -82.5t-9.5 -65.5
t10 -34.5q24 -10 52 11.5t56 62t54.5 92.5t49 102.5t39.5 93l25 62.5q1 -1 8.5 -2.5t16.5 -2.5t16 -2t7 -2l-88 -432v0zM233 685q19 24 30 30.5t20 -0.5t18.5 -27t26.5 -49q5 -15 15 -30.5t13.5 -28t-4.5 -21t-39 -8.5q-6 -3 -15 10.5t-19.5 34.5t-22 45.5t-23.5 43.5z" />
    <glyph glyph-name="umacron" unicode="&#x16b;" horiz-adv-x="423" 
d="M325 49q3 0 -1 -8t-12 -17.5t-17.5 -18t-17.5 -9.5t-12.5 9t-2.5 36l50 186q-17 -33 -38.5 -67t-47.5 -64.5t-58 -55t-71 -39.5q-32 -5 -47 19t-18 64.5t4 92.5t20 104.5t30 99t34.5 76.5t33 38t24.5 -18q-4 -23 -15.5 -60t-25 -80.5t-27 -88t-22 -82.5t-9.5 -65.5
t10 -34.5q24 -10 52 11.5t56 62t54.5 92.5t49 102.5t39.5 93l25 62.5q1 -1 8.5 -2.5t16.5 -2.5t16 -2t7 -2l-88 -432v0zM183 574q-4 11 -1.5 25t16.5 19l240 10q15 -11 15 -29.5t-15 -29.5q-10 1 -32 -1t-49.5 -4t-57 -4t-54.5 -1.5t-42 4t-20 11.5z" />
    <glyph glyph-name="uogonek" unicode="&#x173;" horiz-adv-x="423" 
d="M325 49q3 0 -1 -8t-12 -17.5t-17.5 -18t-17.5 -9.5t-12.5 9t-2.5 36l50 186q-17 -33 -38.5 -67t-47.5 -64.5t-58 -55t-71 -39.5q-32 -5 -47 19t-18 64.5t4 92.5t20 104.5t30 99t34.5 76.5t33 38t24.5 -18q-4 -23 -15.5 -60t-25 -80.5t-27 -88t-22 -82.5t-9.5 -65.5
t10 -34.5q24 -10 52 11.5t56 62t54.5 92.5t49 102.5t39.5 93l25 62.5q1 -1 8.5 -2.5t16.5 -2.5t16 -2t7 -2l-88 -432v0zM369 -88q-27 -38 -54 -45.5t-48.5 5t-35.5 40.5t-14.5 60t14.5 64t52 53l5 -62q-17 -17 -18 -43.5t8.5 -45t26 -19.5t34.5 33z" />
    <glyph glyph-name="uring" unicode="&#x16f;" horiz-adv-x="423" 
d="M325 49q3 0 -1 -8t-12 -17.5t-17.5 -18t-17.5 -9.5t-12.5 9t-2.5 36l50 186q-17 -33 -38.5 -67t-47.5 -64.5t-58 -55t-71 -39.5q-32 -5 -47 19t-18 64.5t4 92.5t20 104.5t30 99t34.5 76.5t33 38t24.5 -18q-4 -23 -15.5 -60t-25 -80.5t-27 -88t-22 -82.5t-9.5 -65.5
t10 -34.5q24 -10 52 11.5t56 62t54.5 92.5t49 102.5t39.5 93l25 62.5q1 -1 8.5 -2.5t16.5 -2.5t16 -2t7 -2l-88 -432v0zM265 548q-36 1 -54.5 17t-22.5 37t6 42.5t31 33.5q60 22 99 20.5t58.5 -16.5t20.5 -39t-15 -46t-47 -37t-76 -12zM231 631q-4 -21 4 -32t22 -14.5
t31.5 -0.5t32.5 9.5t25 14.5t9 16q0 19 -8.5 29t-21 13t-28 0.5t-29 -8t-24 -13t-13.5 -14.5z" />
    <glyph glyph-name="wacute" unicode="&#x1e83;" horiz-adv-x="544" 
d="M27 21q-2 13 -0.5 41t5 63t8.5 74.5t9.5 75.5t8 65.5t4.5 45.5q2 35 8 54t13 27t15 7.5t14 -4.5t9.5 -9t3.5 -7q-2 -27 -10 -74.5t-17 -98t-15 -96t-3 -70.5q16 10 31 32t30.5 48.5t31.5 54.5t33.5 50t37 35.5t41.5 11.5q27 -36 42 -62t24 -52t15.5 -57.5t16.5 -77.5
q4 8 15 37.5t26 70.5t33.5 89.5t38 95t38.5 86t35.5 62.5t29.5 25.5t20 -25.5q-14 -8 -28.5 -41.5t-38 -98t-58.5 -163.5t-90 -239q-13 -24 -24.5 -23t-20 13.5t-14 28.5t-6.5 21q-5 24 -10.5 58t-13 69t-17 67t-22.5 53q-28 -22 -51 -53t-43.5 -64t-39 -64.5t-37 -53.5
t-37.5 -31t-41 3zM353 667q-12 -19 -23.5 -43.5t-22 -45.5t-19.5 -34.5t-15 -10.5q-31 0 -39 8.5t-4.5 21t13.5 28t15 30.5q16 29 26 49t19 27t20 0.5t30 -30.5z" />
    <glyph glyph-name="wcircumflex" unicode="&#x175;" horiz-adv-x="544" 
d="M27 21q-2 13 -0.5 41t5 63t8.5 74.5t9.5 75.5t8 65.5t4.5 45.5q2 35 8 54t13 27t15 7.5t14 -4.5t9.5 -9t3.5 -7q-2 -27 -10 -74.5t-17 -98t-15 -96t-3 -70.5q16 10 31 32t30.5 48.5t31.5 54.5t33.5 50t37 35.5t41.5 11.5q27 -36 42 -62t24 -52t15.5 -57.5t16.5 -77.5
q4 8 15 37.5t26 70.5t33.5 89.5t38 95t38.5 86t35.5 62.5t29.5 25.5t20 -25.5q-14 -8 -28.5 -41.5t-38 -98t-58.5 -163.5t-90 -239q-13 -24 -24.5 -23t-20 13.5t-14 28.5t-6.5 21q-5 24 -10.5 58t-13 69t-17 67t-22.5 53q-28 -22 -51 -53t-43.5 -64t-39 -64.5t-37 -53.5
t-37.5 -31t-41 3zM326 797q19 8 30 -5t19.5 -36.5t17 -52.5t23.5 -54q5 -15 15 -30.5t13.5 -28t-4.5 -21t-39 -8.5q-6 -3 -15 10.5t-19.5 34.5t-22 45.5t-23.5 43.5q-14 -29 -27.5 -50t-30.5 -49q-4 -7 -9.5 -16.5t-13 -13.5t-17 2.5t-22.5 32.5z" />
    <glyph glyph-name="wdieresis" unicode="&#x1e85;" horiz-adv-x="544" 
d="M27 21q-2 13 -0.5 41t5 63t8.5 74.5t9.5 75.5t8 65.5t4.5 45.5q2 35 8 54t13 27t15 7.5t14 -4.5t9.5 -9t3.5 -7q-2 -27 -10 -74.5t-17 -98t-15 -96t-3 -70.5q16 10 31 32t30.5 48.5t31.5 54.5t33.5 50t37 35.5t41.5 11.5q27 -36 42 -62t24 -52t15.5 -57.5t16.5 -77.5
q4 8 15 37.5t26 70.5t33.5 89.5t38 95t38.5 86t35.5 62.5t29.5 25.5t20 -25.5q-14 -8 -28.5 -41.5t-38 -98t-58.5 -163.5t-90 -239q-13 -24 -24.5 -23t-20 13.5t-14 28.5t-6.5 21q-5 24 -10.5 58t-13 69t-17 67t-22.5 53q-28 -22 -51 -53t-43.5 -64t-39 -64.5t-37 -53.5
t-37.5 -31t-41 3zM246 593q0 20 13 32.5t29 16.5t29.5 -2t14.5 -23q4 -10 -6.5 -23.5t-26.5 -21t-31.5 -5t-21.5 25.5zM397 593q0 20 13 32.5t29 16.5t29.5 -2t14.5 -23q4 -10 -6.5 -23.5t-26.5 -21t-31.5 -5t-21.5 25.5z" />
    <glyph glyph-name="wgrave" unicode="&#x1e81;" horiz-adv-x="544" 
d="M27 21q-2 13 -0.5 41t5 63t8.5 74.5t9.5 75.5t8 65.5t4.5 45.5q2 35 8 54t13 27t15 7.5t14 -4.5t9.5 -9t3.5 -7q-2 -27 -10 -74.5t-17 -98t-15 -96t-3 -70.5q16 10 31 32t30.5 48.5t31.5 54.5t33.5 50t37 35.5t41.5 11.5q27 -36 42 -62t24 -52t15.5 -57.5t16.5 -77.5
q4 8 15 37.5t26 70.5t33.5 89.5t38 95t38.5 86t35.5 62.5t29.5 25.5t20 -25.5q-14 -8 -28.5 -41.5t-38 -98t-58.5 -163.5t-90 -239q-13 -24 -24.5 -23t-20 13.5t-14 28.5t-6.5 21q-5 24 -10.5 58t-13 69t-17 67t-22.5 53q-28 -22 -51 -53t-43.5 -64t-39 -64.5t-37 -53.5
t-37.5 -31t-41 3zM275 680q19 24 30 30.5t20 -0.5t18.5 -27t26.5 -49q5 -15 15 -30.5t13.5 -28t-4.5 -21t-39 -8.5q-6 -3 -15 10.5t-19.5 34.5t-22 45.5t-23.5 43.5z" />
    <glyph glyph-name="yacute" unicode="&#xfd;" horiz-adv-x="397" 
d="M-217 -509q-55 17 -80 45t-28.5 59.5t9 63t33 55.5t43 36t38.5 6q1 -25 -11.5 -49t-26 -46t-22 -42t2 -36.5t46 -29.5t109.5 -22q90 -12 155.5 20t110 90.5t69.5 135t35 155.5q0 11 2.5 35.5t5.5 56.5t6 68t4.5 70t1.5 63t-3 46q-12 -2 -32.5 -27.5t-42 -58t-41 -62
t-30.5 -39.5l-12 -12t-24 -21t-29.5 -21t-29 -13.5t-22.5 2t-10 26.5q-4 0 -3.5 23t6 61t16.5 85.5t28 96t40.5 94t54.5 79.5q11 5 17.5 -1.5t8.5 -14.5q-16 -26 -31 -61.5t-27.5 -74t-22 -77t-14.5 -69t-4.5 -50t7.5 -21.5q9 6 26 28.5t38.5 54t46 68.5t49 71.5t46 62.5
t37.5 42t24.5 9.5t6.5 -34.5l-45 -532q-10 -114 -53.5 -202.5t-114 -142t-163.5 -68t-201 18.5zM334 698q-12 -19 -23.5 -43.5t-22 -45.5t-19.5 -34.5t-15 -10.5q-31 0 -39 8.5t-4.5 21t13.5 28t15 30.5q16 29 26 49t19 27t20 0.5t30 -30.5z" />
    <glyph glyph-name="ycircumflex" unicode="&#x177;" horiz-adv-x="397" 
d="M-217 -509q-55 17 -80 45t-28.5 59.5t9 63t33 55.5t43 36t38.5 6q1 -25 -11.5 -49t-26 -46t-22 -42t2 -36.5t46 -29.5t109.5 -22q90 -12 155.5 20t110 90.5t69.5 135t35 155.5q0 11 2.5 35.5t5.5 56.5t6 68t4.5 70t1.5 63t-3 46q-12 -2 -32.5 -27.5t-42 -58t-41 -62
t-30.5 -39.5l-12 -12t-24 -21t-29.5 -21t-29 -13.5t-22.5 2t-10 26.5q-4 0 -3.5 23t6 61t16.5 85.5t28 96t40.5 94t54.5 79.5q11 5 17.5 -1.5t8.5 -14.5q-16 -26 -31 -61.5t-27.5 -74t-22 -77t-14.5 -69t-4.5 -50t7.5 -21.5q9 6 26 28.5t38.5 54t46 68.5t49 71.5t46 62.5
t37.5 42t24.5 9.5t6.5 -34.5l-45 -532q-10 -114 -53.5 -202.5t-114 -142t-163.5 -68t-201 18.5zM262 810q19 8 30 -5t19.5 -36.5t17 -52.5t23.5 -54q5 -15 15 -30.5t13.5 -28t-4.5 -21t-39 -8.5q-6 -3 -15 10.5t-19.5 34.5t-22 45.5t-23.5 43.5q-14 -29 -27.5 -50t-30.5 -49
q-4 -7 -9.5 -16.5t-13 -13.5t-17 2.5t-22.5 32.5z" />
    <glyph glyph-name="ydieresis" unicode="&#xff;" horiz-adv-x="397" 
d="M-217 -509q-55 17 -80 45t-28.5 59.5t9 63t33 55.5t43 36t38.5 6q1 -25 -11.5 -49t-26 -46t-22 -42t2 -36.5t46 -29.5t109.5 -22q90 -12 155.5 20t110 90.5t69.5 135t35 155.5q0 11 2.5 35.5t5.5 56.5t6 68t4.5 70t1.5 63t-3 46q-12 -2 -32.5 -27.5t-42 -58t-41 -62
t-30.5 -39.5l-12 -12t-24 -21t-29.5 -21t-29 -13.5t-22.5 2t-10 26.5q-4 0 -3.5 23t6 61t16.5 85.5t28 96t40.5 94t54.5 79.5q11 5 17.5 -1.5t8.5 -14.5q-16 -26 -31 -61.5t-27.5 -74t-22 -77t-14.5 -69t-4.5 -50t7.5 -21.5q9 6 26 28.5t38.5 54t46 68.5t49 71.5t46 62.5
t37.5 42t24.5 9.5t6.5 -34.5l-45 -532q-10 -114 -53.5 -202.5t-114 -142t-163.5 -68t-201 18.5zM132 597q0 20 13 32.5t29 16.5t29.5 -2t14.5 -23q4 -10 -6.5 -23.5t-26.5 -21t-31.5 -5t-21.5 25.5zM283 597q0 20 13 32.5t29 16.5t29.5 -2t14.5 -23q4 -10 -6.5 -23.5
t-26.5 -21t-31.5 -5t-21.5 25.5z" />
    <glyph glyph-name="ygrave" unicode="&#x1ef3;" horiz-adv-x="397" 
d="M-217 -509q-55 17 -80 45t-28.5 59.5t9 63t33 55.5t43 36t38.5 6q1 -25 -11.5 -49t-26 -46t-22 -42t2 -36.5t46 -29.5t109.5 -22q90 -12 155.5 20t110 90.5t69.5 135t35 155.5q0 11 2.5 35.5t5.5 56.5t6 68t4.5 70t1.5 63t-3 46q-12 -2 -32.5 -27.5t-42 -58t-41 -62
t-30.5 -39.5l-12 -12t-24 -21t-29.5 -21t-29 -13.5t-22.5 2t-10 26.5q-4 0 -3.5 23t6 61t16.5 85.5t28 96t40.5 94t54.5 79.5q11 5 17.5 -1.5t8.5 -14.5q-16 -26 -31 -61.5t-27.5 -74t-22 -77t-14.5 -69t-4.5 -50t7.5 -21.5q9 6 26 28.5t38.5 54t46 68.5t49 71.5t46 62.5
t37.5 42t24.5 9.5t6.5 -34.5l-45 -532q-10 -114 -53.5 -202.5t-114 -142t-163.5 -68t-201 18.5zM223 712q19 24 30 30.5t20 -0.5t18.5 -27t26.5 -49q5 -15 15 -30.5t13.5 -28t-4.5 -21t-39 -8.5q-6 -3 -15 10.5t-19.5 34.5t-22 45.5t-23.5 43.5z" />
    <glyph glyph-name="zacute" unicode="&#x17a;" horiz-adv-x="477" 
d="M411 33q-146 -14 -231 -17t-124 1.5t-40 15t20 25.5l147 169l-112 18l12 51l146 -13q13 8 32 25t38.5 38t37 43t26.5 40q-5 -1 -27 -2t-50 -1t-56 2.5t-44.5 9.5t-15.5 19t30 32q11 1 39.5 2.5t60.5 3.5t60.5 4t39.5 2q46 1 58.5 -11t5 -32.5t-28.5 -45t-43 -48
t-38.5 -42.5t-14.5 -27q8 -4 24.5 -5t34 -2.5t33.5 -4t23 -8.5t2.5 -16.5t-28.5 -28.5l-175 -17q-14 -7 -30 -23.5t-32.5 -37t-32.5 -40t-29 -32.5q20 -6 58.5 -4t82 5.5t84.5 6.5t66 -0.5t26 -16t-35 -38.5zM405 703q-12 -19 -23.5 -43.5t-22 -45.5t-19.5 -34.5t-15 -10.5
q-31 0 -39 8.5t-4.5 21t13.5 28t15 30.5q16 29 26 49t19 27t20 0.5t30 -30.5z" />
    <glyph glyph-name="zcaron" unicode="&#x17e;" horiz-adv-x="477" 
d="M411 33q-146 -14 -231 -17t-124 1.5t-40 15t20 25.5l147 169l-112 18l12 51l146 -13q13 8 32 25t38.5 38t37 43t26.5 40q-5 -1 -27 -2t-50 -1t-56 2.5t-44.5 9.5t-15.5 19t30 32q11 1 39.5 2.5t60.5 3.5t60.5 4t39.5 2q46 1 58.5 -11t5 -32.5t-28.5 -45t-43 -48
t-38.5 -42.5t-14.5 -27q8 -4 24.5 -5t34 -2.5t33.5 -4t23 -8.5t2.5 -16.5t-28.5 -28.5l-175 -17q-14 -7 -30 -23.5t-32.5 -37t-32.5 -40t-29 -32.5q20 -6 58.5 -4t82 5.5t84.5 6.5t66 -0.5t26 -16t-35 -38.5zM204 750q13 25 22.5 31.5t17 3t13 -13t9.5 -16.5
q17 -28 30.5 -49t27.5 -50q12 19 23.5 43.5t22 45.5t19.5 34.5t15 10.5q31 0 39 -8.5t4.5 -21t-13.5 -28t-15 -30.5q-15 -25 -23.5 -54t-17 -52.5t-19.5 -36.5t-30 -5z" />
    <glyph glyph-name="zdotaccent" unicode="&#x17c;" horiz-adv-x="477" 
d="M411 33q-146 -14 -231 -17t-124 1.5t-40 15t20 25.5l147 169l-112 18l12 51l146 -13q13 8 32 25t38.5 38t37 43t26.5 40q-5 -1 -27 -2t-50 -1t-56 2.5t-44.5 9.5t-15.5 19t30 32q11 1 39.5 2.5t60.5 3.5t60.5 4t39.5 2q46 1 58.5 -11t5 -32.5t-28.5 -45t-43 -48
t-38.5 -42.5t-14.5 -27q8 -4 24.5 -5t34 -2.5t33.5 -4t23 -8.5t2.5 -16.5t-28.5 -28.5l-175 -17q-14 -7 -30 -23.5t-32.5 -37t-32.5 -40t-29 -32.5q20 -6 58.5 -4t82 5.5t84.5 6.5t66 -0.5t26 -16t-35 -38.5zM310 592q0 20 13 32.5t29 16.5t29.5 -2t14.5 -23
q4 -10 -6.5 -23.5t-26.5 -21t-31.5 -5t-21.5 25.5z" />
    <glyph glyph-name="Eth" unicode="&#xd0;" horiz-adv-x="530" 
d="M260 783q121 -39 190 -89.5t97.5 -108t22 -118.5t-36.5 -121t-77.5 -115.5t-102.5 -101.5t-110.5 -80t-101.5 -51t-76 -13.5t-33 32.5q25 85 46.5 176t38 183.5t28 183.5t18.5 175q-25 3 -31 16t0.5 30t21.5 35t31 32t30.5 20.5t19.5 0.5q7 -9 8 -20.5t1.5 -24t3 -23.5
t12.5 -18zM107 53q25 2 70.5 24.5t96.5 60t100.5 88t83.5 108.5t45.5 122t-13.5 128q-8 22 -36 46t-65.5 43.5t-79.5 30t-78 4.5zM29 393q-4 11 -1.5 25t16.5 19l240 10q15 -11 15 -29.5t-15 -29.5q-10 1 -32 -1t-49.5 -4t-57 -4t-54.5 -1.5t-42 4t-20 11.5z" />
    <glyph glyph-name="yen" unicode="&#xa5;" horiz-adv-x="388" 
d="M38 331q0 3 14 8t37.5 10t53 9.5t60.5 6.5l11 49l-219 390q-10 14 -5 24.5t16 15.5t25 3t23 -14l191 -316l192 338q10 15 27.5 23t30.5 6t16 -16t-15 -43l-224 -397l-13 -61q24 0 45 -3t35 -9t20.5 -15.5t1.5 -23.5l-114 -6l-13 -65q29 1 55 -0.5t44.5 -7.5t27.5 -16
t3 -26l-142 -7l-41 -197q-22 -5 -35 -3.5t-24 18.5l40 180l-106 -5q-4 2 -9.5 13.5t-5.5 15.5q0 3 11 7t29.5 8.5t42.5 8.5t51 7l15 67l-137 -6q-4 2 -9.5 13.5t-5.5 15.5z" />
  </font>
</defs>
</svg>
