<?xml version="1.0" standalone="no"?>
<!DOCTYPE svg PUBLIC "-//W3C//DTD SVG 1.1//EN" "http://www.w3.org/Graphics/SVG/1.1/DTD/svg11.dtd" >
<svg xmlns="http://www.w3.org/2000/svg" xmlns:xlink="http://www.w3.org/1999/xlink" version="1.1">
<metadata>
Created by FontForge 20170924 at Tue Sep 10 00:52:05 2013
 By www-data
Copyright (c) 2013 by Kimberly Geswein. All rights reserved.
</metadata>
<defs>
<font id="KGRoyals" horiz-adv-x="564" >
  <font-face 
    font-family="KG Royals"
    font-weight="400"
    font-stretch="normal"
    units-per-em="1024"
    panose-1="2 0 0 0 0 0 0 0 0 0"
    ascent="819"
    descent="-205"
    x-height="749"
    cap-height="749"
    bbox="-287 3 662 814.143"
    underline-thickness="50"
    underline-position="-100"
    unicode-range="U+0020-20AC"
  />
<missing-glyph horiz-adv-x="512" 
 />
    <glyph glyph-name=".notdef" horiz-adv-x="512" 
 />
    <glyph glyph-name=".null" horiz-adv-x="0" 
 />
    <glyph glyph-name="nonmarkingreturn" horiz-adv-x="512" 
 />
    <glyph glyph-name="space" unicode=" " horiz-adv-x="135" 
 />
    <glyph glyph-name="space" unicode="&#xa0;" horiz-adv-x="135" 
 />
    <glyph glyph-name="E" unicode="E" 
d="M416 749h58v-93h77l-267 -653l-267 653h76v93h59v-93h264v93zM214 311q0 -7 4.5 -9t10.5 -2q1 0 4 -0.5t11.5 -0.5h25.5t48 2q11 1 12.5 6t1.5 13q-1 8 -1.5 18.5t-11.5 10.5q-6 0 -10.5 -3t-4.5 -11v-7q0 -2 -6 -3t-14.5 -1t-15.5 0.5t-8 0.5q-1 8 -2 25t-1 36
q20 0 30.5 1t12.5 0q4 0 6.5 4.5t1.5 8.5q0 2 -1.5 6.5t-7.5 4.5q-2 0 -12 -0.5t-30 -0.5q-1 17 -0.5 33.5t0.5 23.5q2 0 9 0.5t15 0.5t14 -1t6 -3v-4q0 -8 4.5 -11t10.5 -3q11 0 11.5 8t1.5 16q0 8 -1.5 12.5t-12.5 5.5q-31 1 -48 1.5t-25.5 0.5t-11.5 -0.5t-4 -0.5
q-6 0 -10.5 -2t-4.5 -9q-1 -9 6.5 -10.5t14.5 -1.5q0 -40 0.5 -65t1.5 -40t1 -22.5v-12.5q-7 0 -14.5 -3t-6.5 -12z" />
    <glyph glyph-name="F" unicode="F" 
d="M416 749h58v-93h77l-267 -653l-267 653h76v93h59v-93h264v93zM240 311q0 -7 4.5 -9t10.5 -2q22 -1 35 0q17 2 17 14q0 8 -6 10t-16 1q-1 8 -1.5 25t-1.5 36h17.5t12.5 1q2 -14 13 -14q8 1 9.5 6.5t1.5 10.5q1 5 0.5 11t-1.5 11q-3 12 -13 11q-11 0 -11 -13h-29v55
q2 0 9.5 0.5t15 0.5t13 -1t5.5 -3v-8q0 -8 4.5 -11t10.5 -3q11 0 11.5 10t1.5 18q0 8 -1.5 13.5t-12.5 6.5q-31 1 -48 1.5t-25.5 0.5t-11 -0.5t-3.5 -0.5q-14 0 -15 -11q0 -9 7 -11.5t14 -2.5h1v-65t1 -39.5t1 -22v-12.5q-7 0 -14 -2.5t-6 -11.5z" />
    <glyph glyph-name="G" unicode="G" 
d="M416 749h58v-93h77l-267 -653l-267 653h76v93h59v-93h264v93zM296 390q-7 0 -13.5 -2.5t-6.5 -11.5q1 -7 5.5 -9.5t9.5 -2.5t12.5 0.5t10.5 0.5q1 -20 -8.5 -30t-20.5 -10q-40 0 -43 69q-1 27 7.5 47t25.5 23q7 1 16 -3.5t12 -12.5v-10.5t7 -7.5t12 4t8.5 15.5t5.5 15.5
q2 6 0 10t-5 5q-4 2 -8.5 1t-9.5 -8q-19 17 -41 15q-15 -2 -25.5 -11t-17.5 -23.5t-10 -31.5t-2 -35q1 -16 5 -31.5t12 -28t21 -20t31 -7.5t35 16t19 51q5 0 8.5 3.5t3.5 8.5q-2 14 -22 12z" />
    <glyph glyph-name="H" unicode="H" 
d="M416 749h58v-93h77l-267 -653l-267 653h76v93h59v-93h264v93zM215 314q-1 -4 2 -9.5t22 -5.5q15 1 23 2.5t9 9.5q1 7 -3.5 10.5t-11.5 3.5l1 58h59v-60q0 -11 2.5 -17t15.5 -7q25 -1 25 14q0 5 -3 9.5t-14 4.5l2 135q6 2 10 3.5t5 8.5q1 3 -2 9t-22 5q-15 0 -23 -2
t-9 -10q-1 -7 3.5 -10t10.5 -4v-57h-60l1 59q0 11 -2.5 17t-15.5 7q-25 1 -25 -14q0 -5 3 -9.5t14 -4.5l-3 -135q-6 -2 -10 -3.5t-4 -7.5z" />
    <glyph glyph-name="I" unicode="I" 
d="M416 749h58v-93h77l-267 -653l-267 653h76v93h59v-93h264v93zM320 464q0 -11 4.5 -14.5t9.5 -3.5q17 0 14 25q-1 11 -6.5 14.5t-16.5 3.5h-80q-8 0 -15.5 -3t-8.5 -15q0 -25 15 -25q5 0 9.5 3.5t4.5 14.5h22v-140h-23q0 11 -4.5 14.5t-9.5 3.5q-18 0 -15 -24
q2 -11 7.5 -14.5t16.5 -3.5h79q8 0 15.5 3t8.5 15q1 24 -15 24q-5 0 -9 -3.5t-4 -14.5h-21l1 140h21z" />
    <glyph glyph-name="J" unicode="J" 
d="M416 749h58v-93h77l-267 -653l-267 653h76v93h59v-93h264v93zM326 467q-1 -11 3.5 -14t9.5 -3q16 -2 15 24q-1 11 -7 13.5t-17 2.5h-69q-8 0 -16 -3t-8 -13q0 -25 15 -24q5 0 9.5 3t3.5 14h19q5 -30 6.5 -52t3.5 -43q1 -14 -4 -29t-18 -19q-5 -1 -11 0.5t-10 6.5
q11 4 8 16.5t-16 12.5q-8 0 -14 -5.5t-5 -16.5q1 -19 15 -28.5t31 -9.5q15 0 25 7.5t15.5 18.5t7.5 24t1 26q-2 26 -3 44t-5 47h15z" />
    <glyph glyph-name="K" unicode="K" 
d="M416 749h58v-93h77l-267 -653l-267 653h76v93h59v-93h264v93zM313 305q3 -5 10 -4.5t13 3.5q8 4 17 10t4 16q-2 5 -7.5 5.5t-11.5 -2.5q-20 31 -35.5 51t-15.5 21l46 49q8 -6 15 -6q8 1 9.5 8t-3.5 13q-5 4 -9.5 8.5t-9.5 8.5t-11 3.5t-8 -4.5q-4 -6 -2.5 -9l2.5 -5
l-66 -70q-1 16 -0.5 32t-0.5 31q5 0 10.5 2.5t5.5 9.5q0 5 -3 8.5t-8 3.5h-27q-15 0 -15 -12q0 -11 13 -12v-140q-6 -2 -10.5 -5t-4.5 -9q0 -5 3.5 -8t8.5 -3l32 1q11 0 11 11q0 7 -4.5 9.5t-9.5 3.5v45l17 18l48 -66q-2 -2 -5 -6t2 -10z" />
    <glyph glyph-name="L" unicode="L" 
d="M416 749h58v-93h77l-267 -653l-267 653h76v93h59v-93h264v93zM222 311q0 -7 4.5 -9t10.5 -2q1 0 4 -0.5t11.5 -0.5h25.5t48 2q11 1 12.5 6.5t1.5 14.5q-1 8 -1.5 20t-11.5 12q-6 0 -10.5 -3t-4.5 -11v-11q0 -2 -6 -3t-13.5 -1h-15h-8.5q-1 9 -2 29.5t-1 42.5v41t1 26
q8 1 14 3t6 10q-1 8 -5.5 10t-12.5 2h-25q-8 0 -14.5 -2.5t-6.5 -10.5q-2 -8 6.5 -11t10.5 -1q0 -41 0.5 -66t1.5 -39.5t1 -21.5v-12q-7 0 -14.5 -2.5t-6.5 -11.5z" />
    <glyph glyph-name="M" unicode="M" 
d="M416 749h58v-93h77l-267 -653l-267 653h76v93h59v-93h264v93zM202 312q0 -8 8.5 -9.5t14.5 -1.5q8 0 20.5 1t13.5 10q-1 9 -6 11.5t-10 3.5q-1 6 -1 21.5v33v33v20.5l32 -113q4 -10 14.5 -10t15.5 11l29 110v-109q-6 -1 -10.5 -3.5t-4.5 -9.5q0 -9 10.5 -10t15.5 -1
q7 0 18 1.5t12 11.5q-1 10 -6 11t-9 2l-8 138q8 0 13.5 3t6.5 11q-1 8 -5 9.5t-12 1.5q-17 0 -23 -2.5t-11 -20.5l-32 -111v-1l-32 109q-4 12 -8 19t-15 6h-28q-5 0 -7 -4t-2 -8.5t2.5 -8t7.5 -3.5h14q0 -3 -1 -19q-1 -14 -2 -41.5t-2 -78.5q-13 -2 -13 -13z" />
    <glyph glyph-name="N" unicode="N" 
d="M416 749h58v-93h77l-267 -653l-267 653h76v93h59v-93h264v93zM207 312q1 -8 5 -10t9 -2h33q12 2 12 12q0 8 -5.5 11t-12.5 2q0 10 -0.5 28t-0.5 37t0.5 35.5t0.5 22.5l66 -136q4 -6 7 -9t12 -3h13q7 0 9.5 3.5t2.5 8.5q-1 8 -4 10t-11 2l-1 141q13 0 14 13q0 9 -7.5 10.5
t-19.5 1.5q-11 0 -19 -1t-8 -12q1 -7 5.5 -9.5t9.5 -2.5l2 -109l-60 122q-2 3 -6.5 7t-16.5 5q-7 0 -18.5 -1t-11.5 -12q0 -3 1.5 -6.5t9.5 -4.5h6v-141q-2 -1 -9 -2t-7 -11z" />
    <glyph glyph-name="O" unicode="O" 
d="M416 749h58v-93h77l-267 -653l-267 653h76v93h59v-93h264v93zM222 387q-1 -36 16.5 -61.5t45.5 -25.5t44 27.5t16 61.5q-1 38 -15.5 67.5t-43.5 31.5q-16 1 -27.5 -8t-19.5 -23t-12 -32.5t-4 -37.5zM247 388q0 13 2.5 26.5t7 24t11.5 17.5t16 7q10 0 16.5 -7.5t11 -19
t6.5 -25t2 -24.5q0 -10 -2 -21.5t-6.5 -21t-11 -15.5t-16.5 -6q-20 0 -28.5 20.5t-8.5 44.5z" />
    <glyph glyph-name="P" unicode="P" 
d="M416 749h58v-93h77l-267 -653l-267 653h76v93h59v-93h264v93zM228 314q-2 -9 6 -11.5t16 -3.5q14 0 23 2.5t8 11.5q0 8 -5 10t-14 2v54q14 -6 28 -5t25.5 8.5t19 20t8.5 28.5q1 17 -6.5 30t-19.5 20t-26.5 6t-28.5 -11q2 6 -5 11q-3 2 -10.5 2.5t-15.5 -1.5
q-9 -2 -10 -10q0 -11 7 -13q6 -1 9 -1h5q-1 -13 -1 -32v-39.5v-38.5v-29q-8 -1 -11 -5t-2 -6zM262 445q7 12 17 16.5t19.5 2.5t16 -10t6.5 -21t-7 -21t-16.5 -11.5t-19.5 -2t-16 8.5v38z" />
    <glyph glyph-name="Q" unicode="Q" 
d="M416 749h58v-93h77l-267 -653l-267 653h76v93h59v-93h264v93zM324 295q2 -3 7 -5.5t19 9.5q11 10 15.5 16t0.5 12t-9 5.5t-10 -4.5l-9 11q9 19 9 48q0 45 -18.5 72t-47.5 29q-32 1 -50 -28t-17 -72q0 -41 19 -64.5t47 -23.5q27 0 44 17l3 -5q-3 -5 -5 -8.5t2 -8.5z
M239 389q0 35 11.5 54.5t29.5 19.5q20 1 32 -22t11 -58v-11t-2 -10l-5 6q-15 21 -29 7q-5 -6 -5.5 -12t2 -10t7.5 -6t11 1l8 -12q-10 -13 -29 -13q-21 0 -31 20t-11 46z" />
    <glyph glyph-name="R" unicode="R" 
d="M416 749h58v-93h77l-267 -653l-267 653h76v93h59v-93h264v93zM295 307q2 -3 7.5 -6.5t19.5 7.5q12 9 17.5 15.5t1.5 13.5q-4 6 -10.5 6t-11.5 -4l-34 41q20 1 35.5 14.5t16.5 36.5q1 17 -6 30t-19 20t-26.5 6t-28.5 -11q0 6 -5 11q-8 4 -25 1q-1 0 -2 -0.5t-2 -0.5
q-5 -3 -4.5 -13t7.5 -10h10v-32v-39.5v-38.5t-1 -29q-7 -1 -10 -5t-3 -6q-1 -9 7 -11.5t16 -3.5q14 0 22.5 2.5t8.5 11.5q0 8 -4.5 10t-13.5 2v54l42 -55q-4 -5 -6 -8.5t1 -8.5zM257 445q7 12 17 16.5t19 2.5t15.5 -10t6.5 -21q0 -12 -7 -19t-16 -10t-18.5 -2t-16.5 4v39z
" />
    <glyph glyph-name="S" unicode="S" 
d="M416 749h58v-93h77l-267 -653l-267 653h76v93h59v-93h264v93zM234 333q8 -16 22 -24.5t29 -8.5q16 -1 27.5 6t19.5 18q8 12 10 27t-5 26q-9 15 -31.5 24t-41.5 17q-11 5 -16 16t2 22q3 6 10 8.5t14.5 1t15 -6.5t10.5 -14l-5 -4q-5 -5 1 -12.5t14 -1.5l27 26q4 3 3.5 7.5
t-3 7.5t-6 4t-6.5 -2l-6 -5q-9 15 -25 20.5t-32 2.5t-28.5 -14t-13.5 -30q-1 -17 6.5 -27t18.5 -17t24 -11.5t24 -9.5q14 -6 19.5 -19.5t-2.5 -25.5q-6 -8 -14.5 -10t-17 1t-15 9.5t-7.5 16.5q2 2 4.5 5t4.5 8q1 7 -6 11.5t-15 -2.5q-7 -5 -18.5 -14.5t-11.5 -17.5
q-1 -6 2.5 -10.5t9.5 -2.5q2 1 5 4t3 1z" />
    <glyph glyph-name="T" unicode="T" 
d="M416 749h58v-93h77l-267 -653l-267 653h76v93h59v-93h264v93zM266 325q-7 0 -14 -2.5t-6 -11.5q0 -6 4.5 -8.5t9.5 -2.5q13 -1 21 -0.5t14 0.5q18 0 18 14q0 8 -6 10t-15 1l1 139h21q0 -11 4.5 -14.5t9.5 -3.5q17 0 14 25q-1 11 -6.5 14.5t-16.5 3.5h-80q-8 0 -15.5 -3
t-8.5 -15q0 -25 15 -25q5 0 9.5 3.5t4.5 14.5h22v-139z" />
    <glyph glyph-name="U" unicode="U" 
d="M416 749h58v-93h77l-267 -653l-267 653h76v93h59v-93h264v93zM331 464q14 2 14 13q0 9 -8.5 11t-17.5 2q-12 0 -19.5 -2.5t-7.5 -10.5q0 -7 5 -10t11 -2v-49t-2.5 -45t-9.5 -33t-20 -13q-11 0 -16.5 13t-8 33t-2.5 44t1 47q2 2 8.5 2.5t6.5 11.5q0 7 -5 10t-10 3
q-3 0 -14.5 -0.5t-14.5 -0.5q-11 -2 -11 -12q0 -11 4 -11.5t10 -2.5q1 -31 1 -60.5t4.5 -52t15.5 -36t33 -13.5q24 0 35 19t15 45t3.5 54t-0.5 46z" />
    <glyph glyph-name="V" unicode="V" 
d="M416 749h58v-93h77l-267 -653l-267 653h76v93h59v-93h264v93zM260 308q0 -5 3.5 -7.5t8.5 -3.5q8 0 15 0.5t15 1.5q5 1 9.5 3t4.5 8q0 9 -10 12l46 139q4 -2 8 0t4 7q2 10 -9 15.5t-19 5.5q-10 2 -10 -9q-1 -4 0.5 -6.5t1.5 -3.5v-1l-38 -124q0 1 -8 18t-18 38.5t-19 41
t-11 25.5q5 4 5 9q2 10 -9 12q-5 0 -13 -4q-5 -3 -12.5 -7t-8.5 -12q0 -9 7 -10q2 0 3.5 0.5t3.5 0.5q4 -8 12.5 -27t18.5 -40.5t18.5 -41t11.5 -28.5q-2 -1 -6 -2t-5 -10z" />
    <glyph glyph-name="W" unicode="W" 
d="M416 749h58v-93h77l-267 -653l-267 653h76v93h59v-93h264v93zM357 309q-1 9 -5 10.5t-6 2.5l32 137q2 0 4.5 -1t4.5 -1q8 1 8 10q-1 8 -8.5 12t-12.5 6q-7 5 -14 4q-9 0 -9 -11q1 -5 6 -10l-30 -123l-22 98q-3 6 -14.5 8.5t-16.5 -8.5l-26 -96l-39 120q3 2 4 3.5t2 6.5
q0 4 -2.5 7.5t-6.5 3.5q-6 0 -14 -4q-5 -3 -11.5 -6.5t-7.5 -10.5q0 -10 7 -10q2 -1 3.5 -0.5t3.5 0.5l45 -135q-2 -1 -6 -2t-5 -10q0 -5 3.5 -8t8.5 -3q14 1 28 1.5t15 9.5q1 6 -2 8.5t-8 4.5l24 90l20 -92q-10 -2 -10 -12q0 -5 4.5 -7.5t10.5 -2.5h29q5 0 9 2.5t4 7.5z
" />
    <glyph glyph-name="X" unicode="X" 
d="M416 749h58v-93h77l-267 -653l-267 653h76v93h59v-93h264v93zM242 301q7 6 -1 16l42 66l47 -62q-8 -11 -1 -17q3 -3 7.5 -3.5t14.5 7.5q22 17 14 28q-6 10 -18 0l-50 67l33 55q6 -3 11.5 -0.5t8.5 7.5t2.5 11t-7.5 11q-15 11 -29 -8l-35 -58l-41 55q-9 11 -15 12.5
t-14 -3.5q-7 -5 -7.5 -11.5t2.5 -11.5t8.5 -7t11.5 1l41 -55l-44 -68q-5 4 -10 4.5t-8 -4.5t-0.5 -12t15.5 -16q10 -8 14.5 -7.5t7.5 3.5z" />
    <glyph glyph-name="Y" unicode="Y" 
d="M416 749h58v-93h77l-267 -653l-267 653h76v93h59v-93h264v93zM297 384l32 78q5 -2 9 -1t6 8q1 4 -2.5 8t-9.5 7t-12.5 4.5t-10.5 1.5q-5 0 -8 -2.5t-1 -7.5q1 -5 3 -7t2 -3v-1l-23 -57q0 1 -3.5 7.5t-8.5 15t-10.5 17.5t-8.5 15q3 3 4.5 7.5t-1.5 8.5q-4 6 -9 5
q-7 1 -13 -3q-5 -3 -13 -8t-8 -13q0 -2 1 -3q2 -5 6 -6t9 1q14 -21 24.5 -39t19.5 -33v-59q-16 0 -16 -14q0 -5 4.5 -8t9.5 -4q13 0 17.5 0.5t10.5 0.5q8 0 13.5 4t4.5 9q-2 7 -5.5 10t-12.5 2v59z" />
    <glyph glyph-name="Z" unicode="Z" 
d="M416 749h58v-93h77l-267 -653l-267 653h76v93h59v-93h264v93zM329 303q1 -5 3 -8t10 -2q10 1 10 23q2 29 -13 27q-10 2 -10 -15l-81 -1l98 130q8 11 5.5 21.5t-17.5 9.5h-22t-27 -0.5t-27 -0.5h-22q0 3 -1.5 6.5t-6.5 4.5q-11 0 -12.5 -10.5t-1.5 -18.5q0 -5 2.5 -12
t10.5 -7q8 1 9 6.5t2 5.5l79 1l-97 -134q-3 -3 -4 -7.5t-0.5 -9t4.5 -7.5t12 -3z" />
    <glyph glyph-name="a" unicode="a" 
d="M416 749h58v-93h77l-267 -578l-267 578h76v93h59v-93h264v93zM249 553q0 -9 5 -10t7 -2q-3 -9 -10 -28.5t-14.5 -41.5t-14 -42t-9.5 -29q-6 2 -10 -3t-2 -11t10 -7.5t13 -2.5q3 -1 6.5 -1.5t7.5 1.5q10 4 7 14q-1 5 -7 7q1 5 4.5 15.5t8.5 24.5q24 -3 56 0l14 -40
q0 -1 -2 -3.5t-2 -6.5q0 -10 10 -12q8 -1 20.5 2.5t11.5 14.5q-2 8 -6.5 9t-8.5 0l-48 140q4 1 7 4.5t2 8.5q-1 6 -5.5 8t-9.5 2q-8 0 -15 0.5t-15 -0.5q-11 -2 -11 -11zM300 459q-11 -1 -21.5 -1.5t-21.5 1.5q8 23 15 42t7 20z" />
    <glyph glyph-name="b" unicode="b" 
d="M416 749h58v-93h77l-267 -578l-267 578h76v93h59v-93h264v93zM230 376q46 -2 67 -0.5t35 12.5q11 9 14.5 19t3.5 22q0 17 -8 30q-7 13 -24 22q5 5 10 14.5t5 20.5q0 23 -16 35t-58 12q-13 1 -27.5 0.5t-19.5 -15.5q-2 -21 12 -19q4 0 7.5 2t3.5 10h5l-1 -144h-6
q0 8 -3.5 10.5t-7.5 2.5q-14 2 -12 -19q2 -8 7 -11t13 -4zM263 463q8 0 19 0.5t20.5 -2t16.5 -10t7 -22.5q0 -13 -7 -20.5t-16.5 -10.5t-20.5 -3t-19 2v66zM263 541q6 1 14 0.5t16 -2.5t13 -7.5t5 -15.5q-1 -20 -17.5 -26t-31.5 -6z" />
    <glyph glyph-name="c" unicode="c" 
d="M416 749h58v-93h77l-267 -578l-267 578h76v93h59v-93h264v93zM277 375q19 0 36 13.5t23 31.5q3 9 -6.5 14.5t-13.5 -2.5q-7 -14 -16 -22.5t-23 -9.5q-17 0 -25.5 21.5t-8.5 47.5q-1 25 6.5 46t24.5 24q7 1 16 -3.5t12 -12.5v-10.5t7 -7.5t12 4t8.5 15.5t5.5 15.5
q2 6 0 10t-5 5q-4 2 -8.5 1t-9.5 -8q-19 17 -41 15q-15 -2 -25.5 -11t-17.5 -23.5t-10 -31.5t-2 -35q1 -17 5 -33t12 -28t19 -19t25 -7z" />
    <glyph glyph-name="d" unicode="d" 
d="M416 749h58v-93h77l-267 -578l-267 578h76v93h59v-93h264v93zM218 389q-2 -8 3.5 -11t14.5 -3q8 -1 14.5 -0.5t14.5 1.5q18 1 34.5 9t28.5 22t19 33.5t6 43.5t-10.5 39.5t-24.5 25t-35 13t-42 3.5q-11 -1 -16.5 -3t-6.5 -10q0 -10 9 -9.5t15 -0.5l-2 -143q-21 0 -22 -10z
M267 542q22 0 41 -12.5t21 -42.5q2 -40 -18 -63t-46 -25z" />
    <glyph glyph-name="e" unicode="e" 
d="M416 749h58v-93h77l-267 -578l-267 578h76v93h59v-93h264v93zM214 386q0 -7 4.5 -9t10.5 -2q1 0 4 -0.5t11.5 -0.5h25.5t48 2q11 1 12.5 6t1.5 13q-1 8 -1.5 18.5t-11.5 10.5q-6 0 -10.5 -3t-4.5 -11v-7q0 -2 -6 -3t-14.5 -1t-15.5 0.5t-8 0.5q-1 8 -2 25t-1 36
q20 0 30.5 1t12.5 0q4 0 6.5 4.5t1.5 8.5q0 2 -1.5 6.5t-7.5 4.5q-2 0 -12 -0.5t-30 -0.5q-1 17 -0.5 33.5t0.5 23.5q2 0 9 0.5t15 0.5t14 -1t6 -3v-4q0 -8 4.5 -11t10.5 -3q11 0 11.5 8t1.5 16q0 8 -1.5 12.5t-12.5 5.5q-31 1 -48 1.5t-25.5 0.5t-11.5 -0.5t-4 -0.5
q-6 0 -10.5 -2t-4.5 -9q-1 -9 6.5 -10.5t14.5 -1.5q0 -40 0.5 -65t1.5 -40t1 -22.5v-12.5q-7 0 -14.5 -3t-6.5 -12z" />
    <glyph glyph-name="f" unicode="f" 
d="M416 749h58v-93h77l-267 -578l-267 578h76v93h59v-93h264v93zM236 386q0 -7 4.5 -9t10.5 -2q22 -1 35 0q17 2 17 14q0 8 -6 10t-16 1q-1 8 -1.5 25t-1.5 36h17.5t12.5 1q2 -14 13 -14q8 1 9.5 6.5t1.5 10.5q1 5 0.5 11t-1.5 11q-3 12 -13 11q-11 0 -11 -13h-29v55
q2 0 9.5 0.5t15 0.5t13 -1t5.5 -3v-8q0 -8 4.5 -11t10.5 -3q11 0 11.5 10t1.5 18q0 8 -1.5 13.5t-12.5 6.5q-31 1 -48 1.5t-25.5 0.5t-11 -0.5t-3.5 -0.5q-14 0 -15 -11q0 -9 7 -11.5t14 -2.5h1v-65t1 -39.5t1 -22v-12.5q-7 0 -14 -2.5t-6 -11.5z" />
    <glyph glyph-name="g" unicode="g" 
d="M416 749h58v-93h77l-267 -578l-267 578h76v93h59v-93h264v93zM296 465q-7 0 -13.5 -2.5t-6.5 -11.5q1 -7 5.5 -9.5t9.5 -2.5t12.5 0.5t10.5 0.5q1 -20 -8.5 -30t-20.5 -10q-40 0 -43 69q-1 27 7.5 47t25.5 23q7 1 16 -3.5t12 -12.5v-10.5t7 -7.5t12 4t8.5 15.5t5.5 15.5
q2 6 0 10t-5 5q-4 2 -8.5 1t-9.5 -8q-19 17 -41 15q-15 -2 -25.5 -11t-17.5 -23.5t-10 -31.5t-2 -35q1 -16 5 -31.5t12 -28t21 -20t31 -7.5t35 16t19 51q5 0 8.5 3.5t3.5 8.5q-2 14 -22 12z" />
    <glyph glyph-name="h" unicode="h" 
d="M416 749h58v-93h77l-267 -578l-267 578h76v93h59v-93h264v93zM215 389q-1 -4 2 -9.5t22 -5.5q15 1 23 2.5t9 9.5q1 7 -3.5 10.5t-11.5 3.5l1 58h59v-60q0 -11 2.5 -17t15.5 -7q25 -1 25 14q0 5 -3 9.5t-14 4.5l2 135q6 2 10 3.5t5 8.5q1 3 -2 9t-22 5q-15 0 -23 -2
t-9 -10q-1 -7 3.5 -10t10.5 -4v-57h-60l1 59q0 11 -2.5 17t-15.5 7q-25 1 -25 -14q0 -5 3 -9.5t14 -4.5l-3 -135q-6 -2 -10 -3.5t-4 -7.5z" />
    <glyph glyph-name="i" unicode="i" 
d="M416 749h58v-93h77l-267 -578l-267 578h76v93h59v-93h264v93zM320 539q0 -11 4.5 -14.5t9.5 -3.5q17 0 14 25q-1 11 -6.5 14.5t-16.5 3.5h-80q-8 0 -15.5 -3t-8.5 -15q0 -25 15 -25q5 0 9.5 3.5t4.5 14.5h22v-140h-23q0 11 -4.5 14.5t-9.5 3.5q-18 0 -15 -24
q2 -11 7.5 -14.5t16.5 -3.5h79q8 0 15.5 3t8.5 15q1 24 -15 24q-5 0 -9 -3.5t-4 -14.5h-21l1 140h21z" />
    <glyph glyph-name="j" unicode="j" 
d="M416 749h58v-93h77l-267 -578l-267 578h76v93h59v-93h264v93zM326 542q-1 -11 3.5 -14t9.5 -3q16 -2 15 24q-1 11 -7 13.5t-17 2.5h-69q-8 0 -16 -3t-8 -13q0 -25 15 -24q5 0 9.5 3t3.5 14h19q5 -30 6.5 -52t3.5 -43q1 -14 -4 -29t-18 -19q-5 -1 -11 0.5t-10 6.5
q11 4 8 16.5t-16 12.5q-8 0 -14 -5.5t-5 -16.5q1 -19 15 -28.5t31 -9.5q15 0 25 7.5t15.5 18.5t7.5 24t1 26q-2 26 -3 44t-5 47h15z" />
    <glyph glyph-name="k" unicode="k" 
d="M416 749h58v-93h77l-267 -578l-267 578h76v93h59v-93h264v93zM313 380q3 -5 10 -4.5t13 3.5q8 4 17 10t4 16q-2 5 -7.5 5.5t-11.5 -2.5q-20 31 -35.5 51t-15.5 21l46 49q8 -6 15 -6q8 1 9.5 8t-3.5 13q-5 4 -9.5 8.5t-9.5 8.5t-11 3.5t-8 -4.5q-4 -6 -2.5 -9l2.5 -5
l-66 -70q-1 16 -0.5 32t-0.5 31q5 0 10.5 2.5t5.5 9.5q0 5 -3 8.5t-8 3.5h-27q-15 0 -15 -12q0 -11 13 -12v-140q-6 -2 -10.5 -5t-4.5 -9q0 -5 3.5 -8t8.5 -3l32 1q11 0 11 11q0 7 -4.5 9.5t-9.5 3.5v45l17 18l48 -66q-2 -2 -5 -6t2 -10z" />
    <glyph glyph-name="l" unicode="l" 
d="M416 749h58v-93h77l-267 -578l-267 578h76v93h59v-93h264v93zM222 386q0 -7 4.5 -9t10.5 -2q1 0 4 -0.5t11.5 -0.5h25.5t48 2q11 1 12.5 6.5t1.5 14.5q-1 8 -1.5 20t-11.5 12q-6 0 -10.5 -3t-4.5 -11v-11q0 -2 -6 -3t-13.5 -1h-15h-8.5q-1 9 -2 29.5t-1 42.5v41t1 26
q8 1 14 3t6 10q-1 8 -5.5 10t-12.5 2h-25q-8 0 -14.5 -2.5t-6.5 -10.5q-2 -8 6.5 -11t10.5 -1q0 -41 0.5 -66t1.5 -39.5t1 -21.5v-12q-7 0 -14.5 -2.5t-6.5 -11.5z" />
    <glyph glyph-name="m" unicode="m" 
d="M416 749h58v-93h77l-267 -578l-267 578h76v93h59v-93h264v93zM202 387q0 -8 8.5 -9.5t14.5 -1.5q8 0 20.5 1t13.5 10q-1 9 -6 11.5t-10 3.5q-1 6 -1 21.5v33v33v20.5l32 -113q4 -10 14.5 -10t15.5 11l29 110v-109q-6 -1 -10.5 -3.5t-4.5 -9.5q0 -9 10.5 -10t15.5 -1
q7 0 18 1.5t12 11.5q-1 10 -6 11t-9 2l-8 138q8 0 13.5 3t6.5 11q-1 8 -5 9.5t-12 1.5q-17 0 -23 -2.5t-11 -20.5l-32 -111v-1l-32 109q-4 12 -8 19t-15 6h-28q-5 0 -7 -4t-2 -8.5t2.5 -8t7.5 -3.5h14q0 -3 -1 -19q-1 -14 -2 -41.5t-2 -78.5q-13 -2 -13 -13z" />
    <glyph glyph-name="n" unicode="n" 
d="M416 749h58v-93h77l-267 -578l-267 578h76v93h59v-93h264v93zM207 387q1 -8 5 -10t9 -2h33q12 2 12 12q0 8 -5.5 11t-12.5 2q0 10 -0.5 28t-0.5 37t0.5 35.5t0.5 22.5l66 -136q4 -6 7 -9t12 -3h13q7 0 9.5 3.5t2.5 8.5q-1 8 -4 10t-11 2l-1 141q13 0 14 13q0 9 -7.5 10.5
t-19.5 1.5q-11 0 -19 -1t-8 -12q1 -7 5.5 -9.5t9.5 -2.5l2 -109l-60 122q-2 3 -6.5 7t-16.5 5q-7 0 -18.5 -1t-11.5 -12q0 -3 1.5 -6.5t9.5 -4.5h6v-141q-2 -1 -9 -2t-7 -11z" />
    <glyph glyph-name="o" unicode="o" 
d="M416 749h58v-93h77l-267 -578l-267 578h76v93h59v-93h264v93zM222 462q-1 -36 16.5 -61.5t45.5 -25.5t44 27.5t16 61.5q-1 38 -15.5 67.5t-43.5 31.5q-16 1 -27.5 -8t-19.5 -23t-12 -32.5t-4 -37.5zM247 463q0 13 2.5 26.5t7 24t11.5 17.5t16 7q10 0 16.5 -7.5t11 -19
t6.5 -25t2 -24.5q0 -10 -2 -21.5t-6.5 -21t-11 -15.5t-16.5 -6q-20 0 -28.5 20.5t-8.5 44.5z" />
    <glyph glyph-name="p" unicode="p" 
d="M416 749h58v-93h77l-267 -578l-267 578h76v93h59v-93h264v93zM228 389q-2 -9 6 -11.5t16 -3.5q14 0 23 2.5t8 11.5q0 8 -5 10t-14 2v54q14 -6 28 -5t25.5 8.5t19 20t8.5 28.5q1 17 -6.5 30t-19.5 20t-26.5 6t-28.5 -11q2 6 -5 11q-3 2 -10.5 2.5t-15.5 -1.5
q-9 -2 -10 -10q0 -11 7 -13q6 -1 9 -1h5q-1 -13 -1 -32v-39.5v-38.5v-29q-8 -1 -11 -5t-2 -6zM262 520q7 12 17 16.5t19.5 2.5t16 -10t6.5 -21t-7 -21t-16.5 -11.5t-19.5 -2t-16 8.5v38z" />
    <glyph glyph-name="q" unicode="q" 
d="M416 749h58v-93h77l-267 -578l-267 578h76v93h59v-93h264v93zM324 370q2 -3 7 -5.5t19 9.5q11 10 15.5 16t0.5 12t-9 5.5t-10 -4.5l-9 11q9 19 9 48q0 45 -18.5 72t-47.5 29q-32 1 -50 -28t-17 -72q0 -41 19 -64.5t47 -23.5q27 0 44 17l3 -5q-3 -5 -5 -8.5t2 -8.5z
M239 464q0 35 11.5 54.5t29.5 19.5q20 1 32 -22t11 -58v-11t-2 -10l-5 6q-15 21 -29 7q-5 -6 -5.5 -12t2 -10t7.5 -6t11 1l8 -12q-10 -13 -29 -13q-21 0 -31 20t-11 46z" />
    <glyph glyph-name="r" unicode="r" 
d="M416 749h58v-93h77l-267 -578l-267 578h76v93h59v-93h264v93zM295 382q2 -3 7.5 -6.5t19.5 7.5q12 9 17.5 15.5t1.5 13.5q-4 6 -10.5 6t-11.5 -4l-34 41q20 1 35.5 14.5t16.5 36.5q1 17 -6 30t-19 20t-26.5 6t-28.5 -11q0 6 -5 11q-8 4 -25 1q-1 0 -2 -0.5t-2 -0.5
q-5 -3 -4.5 -13t7.5 -10h10v-32v-39.5v-38.5t-1 -29q-7 -1 -10 -5t-3 -6q-1 -9 7 -11.5t16 -3.5q14 0 22.5 2.5t8.5 11.5q0 8 -4.5 10t-13.5 2v54l42 -55q-4 -5 -6 -8.5t1 -8.5zM257 520q7 12 17 16.5t19 2.5t15.5 -10t6.5 -21q0 -12 -7 -19t-16 -10t-18.5 -2t-16.5 4v39z
" />
    <glyph glyph-name="s" unicode="s" 
d="M416 749h58v-93h77l-267 -578l-267 578h76v93h59v-93h264v93zM234 408q8 -16 22 -24.5t29 -8.5q16 -1 27.5 6t19.5 18q8 12 10 27t-5 26q-9 15 -31.5 24t-41.5 17q-11 5 -16 16t2 22q3 6 10 8.5t14.5 1t15 -6.5t10.5 -14l-5 -4q-5 -5 1 -12.5t14 -1.5l27 26q4 3 3.5 7.5
t-3 7.5t-6 4t-6.5 -2l-6 -5q-9 15 -25 20.5t-32 2.5t-28.5 -14t-13.5 -30q-1 -17 6.5 -27t18.5 -17t24 -11.5t24 -9.5q14 -6 19.5 -19.5t-2.5 -25.5q-6 -8 -14.5 -10t-17 1t-15 9.5t-7.5 16.5q2 2 4.5 5t4.5 8q1 7 -6 11.5t-15 -2.5q-7 -5 -18.5 -14.5t-11.5 -17.5
q-1 -6 2.5 -10.5t9.5 -2.5q2 1 5 4t3 1z" />
    <glyph glyph-name="t" unicode="t" 
d="M416 749h58v-93h77l-267 -578l-267 578h76v93h59v-93h264v93zM266 400q-7 0 -14 -2.5t-6 -11.5q0 -6 4.5 -8.5t9.5 -2.5q13 -1 21 -0.5t14 0.5q18 0 18 14q0 8 -6 10t-15 1l1 139h21q0 -11 4.5 -14.5t9.5 -3.5q17 0 14 25q-1 11 -6.5 14.5t-16.5 3.5h-80q-8 0 -15.5 -3
t-8.5 -15q0 -25 15 -25q5 0 9.5 3.5t4.5 14.5h22v-139z" />
    <glyph glyph-name="u" unicode="u" 
d="M416 749h58v-93h77l-267 -578l-267 578h76v93h59v-93h264v93zM331 539q14 2 14 13q0 9 -8.5 11t-17.5 2q-12 0 -19.5 -2.5t-7.5 -10.5q0 -7 5 -10t11 -2v-49t-2.5 -45t-9.5 -33t-20 -13q-11 0 -16.5 13t-8 33t-2.5 44t1 47q2 2 8.5 2.5t6.5 11.5q0 7 -5 10t-10 3
q-3 0 -14.5 -0.5t-14.5 -0.5q-11 -2 -11 -12q0 -11 4 -11.5t10 -2.5q1 -31 1 -60.5t4.5 -52t15.5 -36t33 -13.5q24 0 35 19t15 45t3.5 54t-0.5 46z" />
    <glyph glyph-name="v" unicode="v" 
d="M416 749h58v-93h77l-267 -578l-267 578h76v93h59v-93h264v93zM260 383q0 -5 3.5 -7.5t8.5 -3.5q8 0 15 0.5t15 1.5q5 1 9.5 3t4.5 8q0 9 -10 12l46 139q4 -2 8 0t4 7q2 10 -9 15.5t-19 5.5q-10 2 -10 -9q-1 -4 0.5 -6.5t1.5 -3.5v-1l-38 -124q0 1 -8 18t-18 38.5t-19 41
t-11 25.5q5 4 5 9q2 10 -9 12q-5 0 -13 -4q-5 -3 -12.5 -7t-8.5 -12q0 -9 7 -10q2 0 3.5 0.5t3.5 0.5q4 -8 12.5 -27t18.5 -40.5t18.5 -41t11.5 -28.5q-2 -1 -6 -2t-5 -10z" />
    <glyph glyph-name="w" unicode="w" 
d="M416 749h58v-93h77l-267 -578l-267 578h76v93h59v-93h264v93zM357 384q-1 9 -5 10.5t-6 2.5l32 137q2 0 4.5 -1t4.5 -1q8 1 8 10q-1 8 -8.5 12t-12.5 6q-7 5 -14 4q-9 0 -9 -11q1 -5 6 -10l-30 -123l-22 98q-3 6 -14.5 8.5t-16.5 -8.5l-26 -96l-39 120q3 2 4 3.5t2 6.5
q0 4 -2.5 7.5t-6.5 3.5q-6 0 -14 -4q-5 -3 -11.5 -6.5t-7.5 -10.5q0 -10 7 -10q2 -1 3.5 -0.5t3.5 0.5l45 -135q-2 -1 -6 -2t-5 -10q0 -5 3.5 -8t8.5 -3q14 1 28 1.5t15 9.5q1 6 -2 8.5t-8 4.5l24 90l20 -92q-10 -2 -10 -12q0 -5 4.5 -7.5t10.5 -2.5h29q5 0 9 2.5t4 7.5z
" />
    <glyph glyph-name="x" unicode="x" 
d="M416 749h58v-93h77l-267 -578l-267 578h76v93h59v-93h264v93zM242 376q7 6 -1 16l42 66l47 -62q-8 -11 -1 -17q3 -3 7.5 -3.5t14.5 7.5q22 17 14 28q-6 10 -18 0l-50 67l33 55q6 -3 11.5 -0.5t8.5 7.5t2.5 11t-7.5 11q-15 11 -29 -8l-35 -58l-41 55q-9 11 -15 12.5
t-14 -3.5q-7 -5 -7.5 -11.5t2.5 -11.5t8.5 -7t11.5 1l41 -55l-44 -68q-5 4 -10 4.5t-8 -4.5t-0.5 -12t15.5 -16q10 -8 14.5 -7.5t7.5 3.5z" />
    <glyph glyph-name="y" unicode="y" 
d="M416 749h58v-93h77l-267 -578l-267 578h76v93h59v-93h264v93zM297 459l32 78q5 -2 9 -1t6 8q1 4 -2.5 8t-9.5 7t-12.5 4.5t-10.5 1.5q-5 0 -8 -2.5t-1 -7.5q1 -5 3 -7t2 -3v-1l-23 -57q0 1 -3.5 7.5t-8.5 15t-10.5 17.5t-8.5 15q3 3 4.5 7.5t-1.5 8.5q-4 6 -9 5
q-7 1 -13 -3q-5 -3 -13 -8t-8 -13q0 -2 1 -3q2 -5 6 -6t9 1q14 -21 24.5 -39t19.5 -33v-59q-16 0 -16 -14q0 -5 4.5 -8t9.5 -4q13 0 17.5 0.5t10.5 0.5q8 0 13.5 4t4.5 9q-2 7 -5.5 10t-12.5 2v59z" />
    <glyph glyph-name="z" unicode="z" 
d="M416 749h58v-93h77l-267 -578l-267 578h76v93h59v-93h264v93zM329 378q1 -5 3 -8t10 -2q10 1 10 23q2 29 -13 27q-10 2 -10 -15l-81 -1l98 130q8 11 5.5 21.5t-17.5 9.5h-22t-27 -0.5t-27 -0.5h-22q0 3 -1.5 6.5t-6.5 4.5q-11 0 -12.5 -10.5t-1.5 -18.5q0 -5 2.5 -12
t10.5 -7q8 1 9 6.5t2 5.5l79 1l-97 -134q-3 -3 -4 -7.5t-0.5 -9t4.5 -7.5t12 -3z" />
    <glyph glyph-name="at" unicode="@" 
d="M416 749h58v-93h77l-267 -653l-267 653h76v93h59v-93h264v93zM292 310q7 0 21 2.5t26 9.5q5 3 6.5 8t0.5 9.5t-4 7t-7 0.5q-11 -6 -22 -9.5t-24 -3.5q-30 0 -45.5 19.5t-17.5 44.5q-2 28 14 52.5t50 24.5q21 0 38 -14.5t19 -40.5q2 -16 -2 -26t-13 -11q-6 -1 -8.5 4.5
t-3 14.5t0 20t0.5 21q0 5 -3 7.5t-7.5 3t-7.5 -1t-3 -4.5l-1 -6q-19 13 -39 2t-21 -41q0 -13 6 -23.5t15 -15.5t20.5 -3.5t22.5 11.5q3 -4 10 -8t15 -4q16 0 30 12t13 44q-2 37 -24.5 59.5t-54.5 23.5q-24 0 -42 -9t-30 -24t-17 -33.5t-4 -37.5q2 -33 25 -59t68 -26z
M261 403q1 13 5.5 18t10.5 5.5t11.5 -2.5t7.5 -6l1 -25q-10 -14 -23.5 -10.5t-12.5 20.5z" />
    <glyph glyph-name="zero" unicode="0" 
d="M416 749h58v-93h77l-267 -653l-267 653h76v93h59v-93h264v93zM225 392q-1 -36 16 -61.5t45 -25.5t44 27.5t16 61.5q0 38 -15 67.5t-44 31.5q-16 1 -27.5 -8t-19 -23t-11.5 -32.5t-4 -37.5zM249 393q0 13 2.5 26.5t7 24t11.5 17.5t16 7q10 0 16.5 -7.5t11 -19t6.5 -25
t2 -24.5q0 -10 -2 -21.5t-6 -21t-11 -15.5t-16 -6q-21 0 -29.5 20.5t-8.5 44.5z" />
    <glyph glyph-name="one" unicode="1" 
d="M416 749h58v-93h77l-267 -653l-267 653h76v93h59v-93h264v93zM335 301q3 1 4 5t0.5 8.5t-2 7.5t-3.5 3h-38v147q0 14 -6 17t-12 0l-47 -27q-3 -3 -3 -7.5t2.5 -8t6.5 -5.5t8 1l26 13l-1 -130h-35q-4 0 -6 -4t-1.5 -9t3 -8.5t7.5 -2.5h97z" />
    <glyph glyph-name="two" unicode="2" 
d="M416 749h58v-93h77l-267 -653l-267 653h76v93h59v-93h264v93zM320 302q24 0 24 14q1 10 0 25q-1 5 -5 7t-8.5 2t-8 -2t-3.5 -6q-1 -4 -1 -8v-8h-63q22 32 36.5 53.5t23 35.5t12 22t3.5 14q1 19 -9.5 28t-26 10t-31.5 -5t-25 -18q-10 -14 -7.5 -26t16.5 -14q6 -1 11.5 2
t8 8t1.5 10.5t-6 10.5q12 9 27 9.5t13 -14.5q-1 -5 -4 -12.5t-11 -21t-22.5 -35.5t-38.5 -56q-5 -8 -2.5 -15.5t10.5 -10.5z" />
    <glyph glyph-name="three" unicode="3" 
d="M416 749h58v-93h77l-267 -653l-267 653h76v93h59v-93h264v93zM232 319q8 -10 20.5 -13.5t23.5 -4.5q23 -1 43 13t20 40q2 24 -11.5 42t-36.5 21l36 40q6 7 3.5 16.5t-9.5 9.5h-69q-5 8 -13.5 7.5t-10.5 -10.5q-2 -5 -1.5 -15.5t2.5 -15.5q3 -6 10 -6q10 0 10.5 7t2.5 8
h45l-40 -44q-5 -7 -2 -16.5t12 -7.5q23 8 35.5 -2t11.5 -33q-2 -25 -20 -29.5t-33 2.5q4 8 2 19t-16 12q-15 0 -19 -14.5t4 -25.5z" />
    <glyph glyph-name="four" unicode="4" 
d="M416 749h58v-93h77l-267 -653l-267 653h76v93h59v-93h264v93zM280 330q-6 1 -10.5 -2.5t-5.5 -8.5t1 -9.5t8 -4.5q13 0 19.5 0.5t12.5 0.5q5 0 8.5 4t3.5 8.5t-3 8t-10 3.5v57h9q3 -8 8 -8q10 0 10.5 9.5t0.5 16.5q0 5 -1.5 10.5t-8.5 5.5q-5 0 -7 -4t-3 -4h-8v58
q1 15 -10.5 21.5t-19.5 -2.5q-12 -14 -29 -34.5t-31 -37.5q-5 -6 -2 -18t15 -12l54 -1v-11.5v-16t-0.5 -16.5t-0.5 -13zM238 413l43 51v-51h-43z" />
    <glyph glyph-name="five" unicode="5" 
d="M416 749h58v-93h77l-267 -653l-267 653h76v93h59v-93h264v93zM278 302q23 -2 39.5 12.5t18.5 37.5q3 36 -19.5 55.5t-66.5 5.5q0 17 -0.5 27t-0.5 14.5v5.5t1 1q14 1 31 1h31q2 -5 3.5 -11.5t9.5 -6.5q6 0 9 8.5t3 18t-3.5 17t-10.5 7.5q-5 0 -7.5 -3.5t-3.5 -6.5h-70
q-16 -3 -16 -24l2 -56q0 -12 6.5 -17t14.5 -1q31 16 49 5t16 -36q-1 -15 -8.5 -22.5t-17 -9t-18.5 1.5t-12 8q5 3 6.5 9t0 11.5t-6.5 9t-12 2.5q-11 -1 -15 -7t-4 -14q2 -19 17.5 -30t33.5 -13z" />
    <glyph glyph-name="six" unicode="6" 
d="M416 749h58v-93h77l-267 -653l-267 653h76v93h59v-93h264v93zM221 415q-2 -15 -1.5 -32t6 -32.5t16 -27.5t28.5 -15q23 -5 39.5 9t22 33.5t-1.5 38.5t-31 25q-19 3 -33.5 -6t-23.5 -18q0 15 4 29.5t11.5 25.5t17 18t19.5 6q1 -7 5.5 -11t10.5 -5t11.5 2t7.5 11
q3 10 -4 20q-8 8 -20 8t-21 -2q-14 -4 -25 -13t-19 -20t-13 -22.5t-6 -21.5zM250 359q0 6 5 13t12 11.5t15 7t14 -0.5q20 -8 15 -30q-3 -14 -11.5 -21.5t-18.5 -8.5t-19 6t-12 23z" />
    <glyph glyph-name="seven" unicode="7" 
d="M416 749h58v-93h77l-267 -653l-267 653h76v93h59v-93h264v93zM247 318q-3 -5 -0.5 -9.5t7 -6.5t9.5 -1.5t7 4.5l80 152q6 11 1.5 18.5t-9.5 7.5l-90 -2q-1 3 -3.5 6.5t-8.5 2.5q-6 0 -9.5 -6.5t-3.5 -15.5q1 -9 3 -16t8 -7q13 -2 13 12l69 1z" />
    <glyph glyph-name="eight" unicode="8" 
d="M416 749h58v-93h77l-267 -653l-267 653h76v93h59v-93h264v93zM283 306q22 0 36.5 12t19.5 28.5t-0.5 34.5t-21.5 30q13 12 15.5 26.5t-2.5 26.5t-17 20.5t-29 8.5t-29 -8.5t-17 -21t-3 -26.5t13 -25q-15 -14 -20 -32.5t0 -35t19 -27.5t36 -11zM287 398q15 -2 22 -13
t6.5 -23.5t-8 -22.5t-22.5 -11q-19 -1 -27.5 10.5t-7.5 25.5t10.5 25t26.5 9zM283 471q13 0 19 -7.5t6 -17t-6 -17.5t-17 -8q-14 0 -20 7.5t-6 16.5t6.5 17t17.5 9z" />
    <glyph glyph-name="nine" unicode="9" 
d="M416 749h58v-93h77l-267 -653l-267 653h76v93h59v-93h264v93zM341 376q2 14 1 31.5t-7 33.5t-16.5 28t-28.5 17q-23 6 -39 -6.5t-21.5 -31.5t2 -38.5t31.5 -27.5q19 -5 33.5 3.5t22.5 16.5q1 -15 -3 -29t-11.5 -25.5t-16.5 -18t-19 -4.5q1 7 -4 12t-11 6.5t-12 -1.5
t-8 -10q-3 -12 5 -20q8 -10 19.5 -11t21.5 1q13 3 24 11.5t18.5 19t12 22t6.5 21.5zM311 433q0 -10 -11 -18.5t-23 -9.5q-14 -2 -21.5 9.5t-5.5 23.5q1 13 9.5 20t19 7t20 -8t12.5 -24z" />
    <glyph glyph-name="colon" unicode=":" 
d="M416 749h58v-93h77l-267 -653l-267 653h76v93h59v-93h264v93zM283 416q8 1 11 6.5t2 11t-6 9.5t-12 3q-8 -1 -11 -6.5t-2 -11t5.5 -10t12.5 -2.5zM285 366q8 1 11 6.5t2 11t-6 9.5t-12 3q-8 -1 -11.5 -6.5t-2.5 -11t6 -10t13 -2.5z" />
    <glyph glyph-name="semicolon" unicode=";" 
d="M416 749h58v-93h77l-267 -653l-267 653h76v93h59v-93h264v93zM283 264q6 5 10.5 20.5t-3.5 33.5q-2 3 -6 3.5t-8 -1t-6.5 -5t-1.5 -7.5q2 -5 3.5 -12t-6.5 -18q-6 -8 3 -13.5t15 -0.5zM280 339q8 1 11.5 6.5t2.5 11t-6 9.5t-12 3q-8 -1 -11.5 -6.5t-2.5 -11t5.5 -10
t12.5 -2.5z" />
    <glyph glyph-name="question" unicode="?" 
d="M416 749h58v-93h77l-267 -653l-267 653h76v93h59v-93h264v93zM250 357q0 -8 7.5 -9t18.5 -1q9 0 16.5 1.5t7.5 9.5q0 11 -15 11v25q8 0 17.5 5t14.5 12q13 17 8.5 39.5t-18.5 34.5q-6 5 -14.5 7.5t-16.5 3.5q-19 1 -32 -10.5t-14 -30.5q0 -8 2 -12q3 -7 8.5 -10
t11.5 -2.5t10.5 5t4.5 11.5q0 6 -4.5 10t-12.5 1q5 18 27 16q10 -1 17 -8.5t8 -17.5q0 -15 -6.5 -23t-17.5 -9t-13 -8t-2 -18l1 -21q-5 -1 -9.5 -2.5t-4.5 -9.5zM278 307q8 2 11 7.5t2.5 11t-5.5 9.5t-12 3q-8 -1 -11.5 -6.5t-2.5 -11.5t5.5 -10.5t12.5 -2.5z" />
    <glyph glyph-name="ampersand" unicode="&#x26;" 
d="M416 749h58v-93h77l-267 -653l-267 653h76v93h59v-93h264v93zM317 306l4 -8q-4 -4 -3.5 -8t3 -6.5t6 -3.5t6.5 1q2 2 11.5 9t11.5 9q5 5 -1 14t-13 4l-4 -3l-8 12q11 15 14 26t4 23q12 2 11 12t-11 10l-25 1q-6 0 -8 -4t-1 -8.5t4 -8t6 -3.5q1 -5 -0.5 -14t-6.5 -14
l-31 58q9 11 15.5 25.5t7 28t-6 22.5t-23.5 9t-25.5 -8.5t-10 -20.5t2.5 -25.5t11 -24.5q-12 -12 -22.5 -26.5t-10.5 -32.5q0 -20 9 -31.5t22 -15.5t28.5 -1t29.5 11zM248 346q-2 18 5.5 26.5t15.5 15.5l4 -7.5t9.5 -17.5t10 -19t6.5 -12q-13 -11 -31.5 -8.5t-19.5 22.5z
M279 473q7 0 9 -6t0.5 -14t-5.5 -16t-8 -11q-3 4 -6 11.5t-3 15t2.5 13.5t10.5 7z" />
    <glyph glyph-name="dollar" unicode="$" 
d="M416 749h58v-93h77l-267 -653l-267 653h76v93h59v-93h264v93zM217 348q5 -13 19 -24t28 -16l-1 -7q-6 -2 -10 -3.5t-5 -7.5q-1 -4 1.5 -10t21.5 -5q16 1 24 2.5t9 9.5q2 8 -2.5 11t-11.5 3l1 6q22 5 37 23q16 25 3.5 49t-41.5 35v52q12 -4 20 -16q3 -2 7 -0.5t7 4.5t5 7
t0 7q-12 19 -38 24v9q6 2 10 3.5t5 7.5q1 4 -1.5 9.5t-21.5 4.5q-16 0 -24 -2t-9 -10q-2 -7 2.5 -10t11.5 -4v-9q-17 -4 -29 -14.5t-14 -27.5q-3 -23 11 -34.5t31 -18.5v-59q-9 5 -15.5 12t-7.5 16q-2 5 -6.5 4.5t-9 -4t-7 -8.5t-0.5 -9zM290 385q14 -6 19 -19.5t-5 -25.5
q-5 -6 -14 -8v53zM252 460q2 3 5 4.5t6 3.5v-44q-11 5 -14.5 15t3.5 21z" />
    <glyph glyph-name="exclam" unicode="!" 
d="M416 749h58v-93h77l-267 -653l-267 653h76v93h59v-93h264v93zM315 474q0 4 -2.5 9.5t-22.5 5.5q-15 -1 -23 -2.5t-9 -9.5q-1 -7 3.5 -10.5t11.5 -3.5v-97q-2 -27 19 -25q17 2 18.5 15t-10.5 17v90q6 2 10 3.5t5 7.5zM288 332q-8 -2 -11 -7.5t-2 -11.5t5.5 -10t11.5 -2
q9 2 12 7.5t1.5 11t-6 9.5t-11.5 3z" />
    <glyph glyph-name="period" unicode="." 
d="M416 749h58v-93h77l-267 -653l-267 653h76v93h59v-93h264v93zM281 351q8 1 11 6.5t2 11t-6 9.5t-12 3q-8 -1 -11 -6.5t-2 -11.5t5.5 -10t12.5 -2z" />
    <glyph glyph-name="comma" unicode="," 
d="M416 749h58v-93h77l-267 -653l-267 653h76v93h59v-93h264v93zM278 326q6 5 10.5 20.5t-3.5 33.5q-2 3 -6 3.5t-8 -1t-6.5 -5t-1.5 -7.5q2 -5 3.5 -12t-6.5 -18q-6 -8 3 -13.5t15 -0.5z" />
    <glyph glyph-name="parenleft" unicode="(" horiz-adv-x="387" 
d="M76 777q10 0 14 -6.5t3.5 -14t-5 -13.5t-11.5 -4q4 -4 8.5 -5t7.5 -1q8 0 13.5 8t5.5 19q0 10 -6 21.5t-23 13.5q-26 2 -36 -16t-8 -37t16 -33t37 -12q10 1 18.5 6t17.5 11t20 11t26 5h221v-22h-220q-14 0 -24 -4.5t-18.5 -10.5t-17.5 -11t-20 -6q-35 -4 -54.5 17
t-21.5 48q-1 13 2.5 27t11 24.5t20 16.5t29.5 5q26 -2 37 -18.5t11 -30.5q0 -19 -8.5 -32.5t-28.5 -15.5q-7 -1 -15 1.5t-16 9.5q-6 6 -8 14.5t0 16.5t7.5 13t14.5 5z" />
    <glyph glyph-name="parenright" unicode=")" horiz-adv-x="379" 
d="M314 777q9 0 14.5 -5t7.5 -13t0 -16.5t-8 -14.5q-8 -7 -16 -9.5t-15 -1.5q-20 2 -28.5 15.5t-8.5 32.5q0 14 11 30.5t37 18.5q17 1 29.5 -5t20 -16.5t11 -24.5t2.5 -27q-2 -27 -21.5 -48t-54.5 -17q-11 1 -20 6t-17.5 11t-18.5 10.5t-24 4.5h-220v22h221q15 0 26 -5
t20 -11t17.5 -11t18.5 -6q23 -2 37 12t16 33t-8 37t-36 16q-17 -2 -23 -13.5t-6 -21.5q0 -11 5.5 -19t13.5 -8q3 0 7.5 1t8.5 5q-7 -2 -11.5 4t-5.5 13.5t3 14t15 6.5z" />
    <glyph glyph-name="asterisk" unicode="*" 
d="M416 749h58v-93h77l-267 -653l-267 653h76v93h59v-93h264v93zM325 502q-8 6 -14 0q-4 -5 -8.5 -10t-9.5 -11l-10 31q-3 8 -14 4q-3 -2 -5.5 -5t-1.5 -6q3 -8 6 -16.5t5 -16.5h-32q-8 0 -8 -11q0 -10 8 -10q6 0 12 -0.5t13 -0.5q-15 -17 -19 -22q-2 -4 -1 -8t4 -7
t6.5 -3.5t6.5 3.5l22 25q3 -9 5.5 -16t4.5 -10q2 -4 6 -5t7.5 0t6 3.5t0.5 7.5l-11 32q12 -1 21.5 -0.5t14.5 0.5q4 1 6 4.5t2.5 7.5t-1.5 7t-7 3h-26l14 16q4 7 -3 14z" />
    <glyph glyph-name="bar" unicode="|" 
d="M416 749h58v-93h77l-267 -653l-267 653h76v93h59v-93h264v93zM187 473q3 -18 15 -32.5t28 -27t32 -23.5t28 -20q10 15 23 27.5t25.5 26.5t22 30t12.5 37q2 15 -6 25t-22 9.5t-31 -14t-33 -44.5q-9 21 -26.5 34.5t-34 15.5t-27 -8t-6.5 -36z" />
    <glyph glyph-name="hyphen" unicode="-" 
d="M416 749h58v-93h77l-267 -653l-267 653h76v93h59v-93h264v93zM237 428q0 -11 9 -11q31 0 45 -1t25 1q9 1 10 12t-9 11h-71q-5 0 -7 -3.5t-2 -8.5z" />
    <glyph glyph-name="quotesingle" unicode="'" 
d="M416 749h58v-93h77l-267 -653l-267 653h76v93h59v-93h264v93zM283 454q6 5 11 20.5t-3 33.5q-2 3 -6 4t-8 -0.5t-7 -5t-2 -8.5q2 -5 3.5 -12t-6.5 -18q-5 -8 3.5 -13.5t14.5 -0.5z" />
    <glyph glyph-name="quotedbl" unicode="&#x22;" 
d="M416 749h58v-93h77l-267 -653l-267 653h76v93h59v-93h264v93zM268 454q6 5 11 20.5t-3 33.5q-2 3 -6 4t-8 -0.5t-7 -5t-2 -8.5q2 -5 3.5 -12t-6.5 -18q-5 -8 3.5 -13.5t14.5 -0.5zM303 453q6 6 10.5 21.5t-3.5 33.5q-2 3 -6 3.5t-8 -1t-6.5 -5t-1.5 -7.5q2 -5 3.5 -12
t-6.5 -18q-6 -8 3 -14t15 -1z" />
    <glyph glyph-name="quoteright" unicode="&#x2019;" 
d="M416 749h58v-93h77l-267 -653l-267 653h76v93h59v-93h264v93zM283 454q6 5 11 20.5t-3 33.5q-2 3 -6 4t-8 -0.5t-7 -5t-2 -8.5q2 -5 3.5 -12t-6.5 -18q-5 -8 3.5 -13.5t14.5 -0.5z" />
    <glyph glyph-name="quoteleft" unicode="&#x2018;" 
d="M416 749h58v-93h77l-267 -653l-267 653h76v93h59v-93h264v93zM276 510q-6 -5 -11 -20.5t3 -33.5q1 -3 5.5 -4t8.5 0.5t7 5t2 8.5q-2 5 -3.5 12t6.5 18q5 8 -3.5 13.5t-14.5 0.5z" />
    <glyph glyph-name="quotedblleft" unicode="&#x201c;" 
d="M416 749h58v-93h77l-267 -653l-267 653h76v93h59v-93h264v93zM296 509q-6 -5 -11 -20.5t3 -33.5q1 -3 5.5 -4t8.5 0.5t7 5t2 8.5q-2 5 -3.5 12t6.5 18q5 8 -3.5 13.5t-14.5 0.5zM261 510q-6 -6 -10.5 -21.5t3.5 -33.5q1 -3 5.5 -3.5t8.5 1t6.5 4.5t1.5 8q-2 5 -3.5 12
t6.5 18q6 8 -3 14t-15 1z" />
    <glyph glyph-name="quotedblright" unicode="&#x201d;" 
d="M416 749h58v-93h77l-267 -653l-267 653h76v93h59v-93h264v93zM268 454q6 5 11 20.5t-3 33.5q-2 3 -6 4t-8 -0.5t-7 -5t-2 -8.5q2 -5 3.5 -12t-6.5 -18q-5 -8 3.5 -13.5t14.5 -0.5zM303 453q6 6 10.5 21.5t-3.5 33.5q-2 3 -6 3.5t-8 -1t-6.5 -5t-1.5 -7.5q2 -5 3.5 -12
t-6.5 -18q-6 -8 3 -14t15 -1z" />
    <glyph glyph-name="quotedblbase" unicode="&#x201e;" 
d="M416 749h58v-93h77l-267 -653l-267 653h76v93h59v-93h264v93zM268 329q6 5 11 20.5t-3 33.5q-2 3 -6 4t-8 -0.5t-7 -5t-2 -8.5q2 -5 3.5 -12t-6.5 -18q-5 -8 3.5 -13.5t14.5 -0.5zM303 328q6 6 10.5 21.5t-3.5 33.5q-2 3 -6 3.5t-8 -1t-6.5 -5t-1.5 -7.5q2 -5 3.5 -12
t-6.5 -18q-6 -8 3 -14t15 -1z" />
    <glyph glyph-name="quotesinglbase" unicode="&#x201a;" 
d="M416 749h58v-93h77l-267 -653l-267 653h76v93h59v-93h264v93zM283 342q6 5 11 20.5t-3 33.5q-2 3 -6 4t-8 -0.5t-7 -5t-2 -8.5q2 -5 3.5 -12t-6.5 -18q-5 -8 3.5 -13.5t14.5 -0.5z" />
    <glyph glyph-name="equal" unicode="=" horiz-adv-x="14" 
d="M-253 730h580v-22h-580v22z" />
    <glyph glyph-name="percent" unicode="%" 
d="M53 609h48v-6h-48v6zM123 609h48v-6h-48v6zM189 609h48v-6h-48v6zM259 609h48v-6h-48v6zM329 609h48v-6h-48v6zM399 609h48v-6h-48v6zM465 609h48v-6h-48v6z" />
    <glyph glyph-name="plus" unicode="+" 
d="M75 618q0 10 10 10t10 -10t-10 -10t-10 10zM175 618q0 10 10 10t10 -10t-10 -10t-10 10zM274 618q0 10 10 10t10 -10t-10 -10t-10 10zM374 618q0 10 10 10t10 -10t-10 -10t-10 10zM473 618q0 10 10 10t10 -10t-10 -10t-10 10zM108 540q9 5 14 -5q3 -8 -5 -13
q-10 -3 -13 5q-5 9 4 13zM151 450q8 3 13 -5q3 -9 -5 -14q-10 -3 -13 5q-5 9 5 14zM192 360q10 3 13 -5q5 -10 -4 -13q-9 -5 -14 5q-3 8 5 13zM234 269q10 5 13 -5q6 -9 -4 -13q-9 -5 -14 5q-4 9 5 13zM280 179q9 6 13 -5q5 -8 -5 -13q-9 -4 -13 5q-6 9 5 13zM459 542
q9 -4 4 -13q-3 -8 -13 -5q-8 5 -5 13q5 10 14 5zM416 452q10 -5 5 -14q-3 -8 -13 -5q-8 5 -5 14q5 8 13 5zM375 362q8 -5 5 -13q-5 -10 -14 -5q-9 3 -4 13q3 8 13 5zM333 271q9 -4 5 -13q-5 -10 -14 -5q-10 4 -4 13q3 10 13 5z" />
    <glyph glyph-name="braceleft" unicode="{" horiz-adv-x="657" 
d="M36 720q0 13 9 22t22 9q18 0 26 -15q60 34 129.5 37t143.5 -6.5t149.5 -23t146.5 -13.5v-22q-70 0 -143.5 13.5t-146 23t-142 6.5t-132.5 -35q-2 -11 -10.5 -19t-20.5 -8q-13 0 -22 9t-9 22z" />
    <glyph glyph-name="braceright" unicode="}" horiz-adv-x="657" 
d="M624 720q0 -13 -9 -22t-22 -9q-12 0 -20.5 8t-10.5 19q-63 32 -132.5 35t-142 -6.5t-146 -23t-143.5 -13.5v22q71 0 146.5 13.5t149.5 23t143.5 6.5t129.5 -37q8 15 26 15q13 0 22 -9t9 -22z" />
    <glyph glyph-name="underscore" unicode="_" 
d="M-8 730h580v-22h-580v22z" />
    <glyph glyph-name="greater" unicode="&#x3e;" 
d="M416 749h58v-93h77l-267 -653l-267 653h76v93h59v-93h264v93z" />
    <glyph glyph-name="less" unicode="&#x3c;" 
d="M416 749h58v-93h77l-267 -578l-267 578h76v93h59v-93h264v93z" />
    <glyph glyph-name="numbersign" unicode="#" 
d="M416 749h58v-93h77l-267 -653l-267 653h76v93h59v-93h264v93zM312 499q-5 0 -8.5 -2.5t-3.5 -6.5v-29h-19v28q0 9 -12 9q-4 0 -7.5 -2.5t-3.5 -6.5v-28l-23 1q-5 0 -7 -3.5t-2 -8.5t2.5 -8.5t6.5 -3.5h22v-18l-21 1q-5 0 -7 -3.5t-2 -8.5t2 -8.5t7 -3.5h21v-25
q1 -5 4.5 -7.5t8 -2.5t8 2t3.5 8v25q5 -1 9 -1h9v-14t1 -9q1 -9 12 -10t11 10v23q21 -2 29 0q9 1 10 12t-9 11l-30 1v16h17.5t11.5 1q9 1 10 12t-9 11l-29 1v29q0 5 -3.5 7t-8.5 2zM300 437q0 -5 -0.5 -9t-0.5 -8h-18v18q5 -1 9.5 -1h9.5z" />
    <glyph glyph-name="backslash" unicode="\" 
d="M75 618q0 10 10 10t10 -10t-10 -10t-10 10zM175 618q0 10 10 10t10 -10t-10 -10t-10 10zM274 618q0 10 10 10t10 -10t-10 -10t-10 10zM374 618q0 10 10 10t10 -10t-10 -10t-10 10zM473 618q0 10 10 10t10 -10t-10 -10t-10 10zM108 533q9 5 14 -5q3 -8 -5 -13
q-10 -3 -13 5q-5 9 4 13zM151 438q8 3 13 -5q3 -9 -5 -14q-10 -3 -13 5q-5 9 5 14zM192 338q10 3 13 -5q5 -10 -4 -13q-9 -5 -14 5q-3 8 5 13zM234 234q10 5 13 -5q6 -9 -4 -13q-9 -5 -14 5q-4 9 5 13zM280 124q9 6 13 -5q5 -8 -5 -13q-9 -4 -13 5q-6 9 5 13zM459 535
q9 -4 4 -13q-3 -8 -13 -5q-8 5 -5 13q5 10 14 5zM416 440q10 -5 5 -14q-3 -8 -13 -5q-8 5 -5 14q5 8 13 5zM375 340q8 -5 5 -13q-5 -10 -14 -5q-9 3 -4 13q3 8 13 5zM333 236q9 -4 5 -13q-5 -10 -14 -5q-10 4 -4 13q3 10 13 5z" />
    <glyph glyph-name="bracketright" unicode="]" horiz-adv-x="354" 
d="M188 700q-13 -1 -20 9l-184 -1v22l175 -1q-2 15 3 29.5t16 16.5q13 2 28.5 -5t24.5 -16q5 5 13 3.5t10 -3.5q8 12 19 20t25 9q12 1 20 -10t10 -24.5t-2.5 -26t-16.5 -14.5q-8 -2 -15.5 0t-15.5 5q5 -17 19.5 -29.5t25.5 -26.5q0 -3 -13.5 -3t-20.5 -3t-12 -12t-10 -7
q-1 11 -4 23.5t-6.5 22.5t-6.5 16t-4 4t-3 -8.5t-4.5 -16t-5 -20.5t-5.5 -21q-5 -3 -12.5 6t-15.5 11q-4 1 -9 1h-9.5t-7.5 0.5t-3 2.5q8 11 22.5 24.5t19.5 30.5q-11 -8 -25 -8z" />
    <glyph glyph-name="slash" unicode="/" horiz-adv-x="4" 
d="M-287 730h580v-22h-580v22z" />
    <glyph glyph-name="fraction" unicode="&#x2044;" horiz-adv-x="4" 
d="M-287 730h580v-22h-580v22z" />
    <glyph glyph-name="bracketleft" unicode="[" horiz-adv-x="338" 
d="M152 700q-14 0 -25 8q5 -17 16 -30t19 -24q0 -5 -11.5 -3t-20.5 1q-7 -2 -10 -12t-8 -8q-3 10 -5.5 21t-5 20.5t-4.5 16t-3 8.5t-4 -4t-6.5 -16t-6.5 -22.5t-4 -23.5q-5 -2 -8 9t-9 14q-4 1 -9.5 1t-11 -0.5t-9 -0.5t-3.5 2q4 9 9.5 15.5l11 13t10.5 13t8 14.5
q-8 -3 -15.5 -5t-15.5 0q-12 2 -16.5 14.5t-2.5 26t10 24.5t20 10q14 -1 25 -9t19 -20q2 2 10 3.5t13 -3.5q9 9 24.5 16t28.5 5q11 -2 16 -16.5t3 -29.5l175 1v-22l-184 1q-7 -10 -20 -9z" />
    <glyph glyph-name="breve" unicode="&#x2d8;" horiz-adv-x="95" 
d="M9 538q-1 7 8 8t11 -6q4 -13 17 -13q7 0 13.5 3t8.5 12q1 4 4.5 5.5t7 1t6 -3.5t1.5 -7q-4 -16 -16 -22t-24 -7q-14 0 -24.5 7.5t-12.5 21.5z" />
    <glyph glyph-name="dotaccent" unicode="&#x2d9;" horiz-adv-x="48" 
d="M25 509q-8 -2 -12.5 2.5t-5.5 10t2.5 11t11.5 6.5q7 1 12 -3t6 -9.5t-2.5 -11t-11.5 -6.5z" />
    <glyph glyph-name="ring" unicode="&#x2da;" horiz-adv-x="72" 
d="M7 534q0 13 9.5 20t20 7t19.5 -7t9 -20t-9 -19.5t-20 -6.5t-20 6t-9 20zM44 534q1 6 -7.5 7t-9.5 -7q0 -6 8.5 -5.5t8.5 5.5z" />
    <glyph glyph-name="hungarumlaut" unicode="&#x2dd;" horiz-adv-x="94" 
d="M55 556q3 -3 3.5 -7.5t-2.5 -7.5l-24 -23q-4 -3 -8.5 -2t-7.5 3.5t-4 6.5t3 8l25 24q6 6 15 -2zM94 553q7 -7 2 -14l-25 -23q-3 -3 -7.5 -2.5t-8 3.5t-4.5 7t3 8l25 23q7 7 15 -2z" />
    <glyph glyph-name="ogonek" unicode="&#x2db;" horiz-adv-x="41" 
d="M18 319q2 3 5.5 3t6.5 -1.5t4.5 -5t-0.5 -6.5q-5 -7 -5 -15t8 -12q6 -3 1 -11t-13 -4q-11 7 -14.5 22.5t7.5 29.5z" />
    <glyph glyph-name="caron" unicode="&#x2c7;" horiz-adv-x="72" 
d="M57 519q-5 -12 -17 -12.5t-18 10.5l-13 26q-2 5 1 8.5t7 4.5t8.5 0t6.5 -5l8 -20l10 22q1 3 4.5 3.5t7 -0.5t6 -4t1.5 -7z" />
    <glyph glyph-name="tilde" unicode="&#x2dc;" horiz-adv-x="119" 
d="M6 519q2 12 12.5 20t22.5 8q6 0 11 -2.5t9.5 -5t9 -4.5t9.5 -1q6 1 8.5 4t5 6.5t4.5 6t7 2.5q7 0 10 -5q5 -9 -3 -20q-12 -20 -35 -20q-12 0 -18.5 7t-17.5 7q-5 0 -7.5 -2t-4.5 -5t-4 -5t-6 -2q-13 0 -13 11z" />
    <glyph glyph-name="circumflex" unicode="&#x2c6;" horiz-adv-x="88" 
d="M30 545q5 12 17 12.5t18 -11.5l13 -25q1 -5 -1.5 -8.5t-6.5 -4.5t-8.5 0t-6.5 5l-8 20l-10 -22q-1 -3 -4.5 -4t-7 0.5t-6 4t-1.5 7.5z" />
    <glyph glyph-name="OE" unicode="&#x152;" 
d="M416 749h58v-93h77l-267 -653l-267 653h76v93h59v-93h264v93zM207 391q-1 -36 17.5 -62t48.5 -26q1 0 4 -0.5t11.5 -0.5h25.5t48 2q11 1 12.5 6t1.5 13q-1 8 -1.5 18.5t-11.5 10.5q-6 0 -10.5 -3t-4.5 -11q1 -2 0.5 -3.5t-0.5 -3.5q1 -2 -5.5 -3t-15 -1h-16h-8.5
q-2 8 -1.5 25.5t-0.5 36.5q20 0 30.5 1t12.5 0q5 0 7 4.5t2 8.5q-1 2 -2 6.5t-7 4.5q-2 0 -12.5 -0.5t-30.5 -0.5v58h9.5h15.5t14 -1t5 -3q0 -3 0.5 -2t-0.5 -2q0 -8 4.5 -11t10.5 -3q11 0 11.5 8t1.5 16q0 8 -1.5 12.5t-12.5 5.5q-28 1 -45 1.5t-26 0.5t-12.5 -0.5
t-4.5 -0.5q-32 0 -47.5 -30t-16.5 -71zM232 393q0 15 3 29t8.5 25.5t14 17.5t19.5 5q1 -39 1.5 -64.5t0.5 -41t-0.5 -23.5t-0.5 -13q-26 -2 -36 17.5t-10 47.5z" />
    <glyph glyph-name="oe" unicode="&#x153;" 
d="M416 749h58v-93h77l-267 -578l-267 578h76v93h59v-93h264v93zM200 465q-1 -36 17.5 -62t48.5 -26q1 0 4 -0.5t11.5 -0.5h25.5t48 2q11 1 12.5 6t1.5 13q-1 8 -1.5 18.5t-11.5 10.5q-6 0 -10.5 -3t-4.5 -11q1 -2 0.5 -3.5t-0.5 -3.5q1 -2 -5.5 -3t-15 -1h-16h-8.5
q-2 8 -1.5 25.5t-0.5 36.5q20 0 30.5 1t12.5 0q5 0 7 4.5t2 8.5q-1 2 -2 6.5t-7 4.5q-2 0 -12.5 -0.5t-30.5 -0.5v58h9.5h15.5t14 -1t5 -3q0 -3 0.5 -2t-0.5 -2q0 -8 4.5 -11t10.5 -3q11 0 11.5 8t1.5 16q0 8 -1.5 12.5t-12.5 5.5q-28 1 -45 1.5t-26 0.5t-12.5 -0.5
t-4.5 -0.5q-32 0 -47.5 -30t-16.5 -71zM225 467q0 15 3 29t8.5 25.5t14 17.5t19.5 5q1 -39 1.5 -64.5t0.5 -41t-0.5 -23.5t-0.5 -13q-26 -2 -36 17.5t-10 47.5z" />
    <glyph glyph-name="questiondown" unicode="&#xbf;" 
d="M416 749h58v-93h77l-267 -653l-267 653h76v93h59v-93h264v93zM314 436q0 8 -7.5 9t-18.5 1q-9 0 -16.5 -1.5t-7.5 -9.5q0 -11 15 -11v-25q-8 0 -17.5 -5t-14.5 -12q-13 -17 -8.5 -39.5t18.5 -34.5q6 -5 14.5 -7.5t16.5 -3.5q19 -1 32 10.5t14 30.5q0 8 -2 12
q-3 7 -8.5 10t-11.5 2t-10.5 -5t-4.5 -11q0 -6 4.5 -10t12.5 -1q-5 -18 -27 -16q-10 1 -17 8.5t-8 17.5q0 15 6.5 23t17.5 9t13 8t2 18l-1 21q5 1 9.5 2.5t4.5 9.5zM286 486q-8 -2 -11 -7.5t-2.5 -11t5 -9.5t12.5 -3t11.5 6.5t2.5 11.5t-6 10t-12 3z" />
    <glyph glyph-name="sterling" unicode="&#xa3;" horiz-adv-x="562" 
d="M416 749h58v-93h77l-267 -653l-267 653h76v93h59v-93h264v93zM226 378q0 -11 9 -11h8l1.5 -27t0.5 -14q-7 0 -14.5 -3t-6.5 -12q0 -7 4.5 -9t10.5 -2q1 0 4 -0.5t11.5 -0.5h25.5t48 2q11 1 12.5 6.5t1.5 14.5q-1 8 -1.5 20t-11.5 12q-6 0 -10.5 -3t-4.5 -11v-12
q0 -2 -6 -3t-13.5 -1t-15 0.5t-8.5 0.5q-1 6 -1.5 17t-1.5 25h37q9 1 10 12t-9 11h-38v14q1 24 10 42.5t24 18.5q14 -1 17 -11.5t5 -23.5q2 -8 11 -7t10 11q0 21 -12 38.5t-31 17.5q-14 0 -25 -7t-18.5 -19.5t-11.5 -28.5t-4 -33v-12h-8q-5 0 -7 -3.5t-2 -8.5z" />
    <glyph glyph-name="Eth" unicode="&#xd0;" 
d="M416 749h58v-93h77l-267 -653l-267 653h76v93h59v-93h264v93zM231 394q0 -4 2.5 -7.5t6.5 -3.5h12l-1 -59q-21 0 -22 -10q-2 -8 3.5 -11t14.5 -3q8 -1 14.5 -0.5t14.5 1.5q18 1 34.5 9t28.5 22t19 33.5t6 43.5t-10.5 39.5t-24.5 25t-35 13t-42 3.5q-11 -1 -16.5 -3
t-6.5 -10q0 -10 9 -9.5t15 -0.5l-1 -60h-12q-9 0 -9 -13zM277 382h18.5t14.5 1q4 1 7 4.5t3.5 8t-2 8t-7.5 3.5h-34l1 60q22 0 41 -12.5t21 -42.5q2 -40 -18 -63t-46 -25z" />
    <glyph glyph-name="AE" unicode="&#xc6;" 
d="M416 749h58v-93h77l-267 -653l-267 653h76v93h59v-93h264v93zM258 312q0 -7 4.5 -9t10.5 -2q1 0 4 -0.5t11.5 -0.5h25.5t48 2q11 1 12.5 6t1.5 13q-1 8 -1.5 18.5t-11.5 10.5q-6 0 -10.5 -3t-4.5 -11v-7q0 -2 -6 -3t-14.5 -1t-15.5 0.5t-8 0.5q-1 8 -2 25t-1 36
q20 0 30.5 0.5t12.5 0.5q10 2 9 13t-10 11q-2 0 -12 -0.5t-30 -0.5q-1 17 -0.5 33.5t0.5 23.5q2 0 9 0.5t15 0.5t14 -1t6 -3q1 -8 3.5 -13t11.5 -5q11 0 11.5 8t1.5 16q0 8 -1.5 12.5t-12.5 5.5q-31 2 -55 3t-47 -1q-11 -2 -12 -12q0 -9 4.5 -9.5t6.5 -1.5q-3 -9 -11.5 -29
t-17.5 -42.5t-17.5 -42.5t-11.5 -29q-5 2 -10 -3t-3 -11t10 -7.5t13 -2.5q3 -1 6.5 -1.5t6.5 1.5q11 4 9 14q-1 4 -7 7q1 5 5.5 16t10.5 25q8 -1 18 -1h21q1 -15 1 -22.5v-12.5q-7 0 -14.5 -3t-6.5 -12zM276 453q0 -22 0.5 -39t0.5 -29q-15 -2 -30 0z" />
    <glyph glyph-name="Oslash" unicode="&#xd8;" 
d="M416 749h58v-93h77l-267 -653l-267 653h76v93h59v-93h264v93zM254 309q14 -11 33 -11q28 0 44 27.5t16 61.5q-1 19 -4.5 36t-11.5 31l10 18q1 3 -1 6t-6 5.5t-8 2.5t-6 -4l-4 -8q-12 11 -28 12t-27.5 -8t-19.5 -23t-12 -32.5t-4 -37.5q-1 -30 12 -55l-9 -17
q-3 -6 5.5 -12t16.5 0zM323 385q0 -10 -2 -21.5t-6.5 -21t-11 -15.5t-16.5 -6q-13 0 -22 9l52 97q3 -11 4.5 -22t1.5 -20zM250 386q0 13 2.5 26.5t7 24t11.5 17.5t16 7t17 -8l-51 -95q-3 13 -3 28z" />
    <glyph glyph-name="germandbls" unicode="&#xdf;" 
d="M416 749h58v-93h77l-267 -653l-267 653h76v93h59v-93h264v93zM251 456q2 11 12 11q12 0 24.5 -5.5t11.5 -20.5q-1 -17 -11.5 -24t-24.5 -8q-5 -2 -4 -11.5t3 -9.5q9 0 18 -0.5t16.5 -3.5t12.5 -10t5 -20q0 -11 -5 -18t-13 -10.5t-17.5 -4.5t-17.5 0q-5 -2 -5 -10.5
t5 -10.5q23 -1 35.5 2t23.5 11q11 9 14.5 19t3.5 22q0 17 -8 30q-7 13 -24 22q5 5 10 14.5t5 20.5q0 21 -13.5 33t-48.5 14q-14 1 -22.5 -7t-9.5 -32v-158q0 -3 3.5 -4t8 -1t8 1.5t3.5 3.5z" />
    <glyph glyph-name="Thorn" unicode="&#xde;" 
d="M416 749h58v-93h77l-267 -653l-267 653h76v93h59v-93h264v93zM237 315q-1 -10 6.5 -12t15.5 -2q4 0 9.5 0.5t10.5 2t8 4t3 7.5q0 12 -17 12l-1 49q12 -5 25.5 -4t24.5 8t19 19t9 28q1 17 -6.5 30.5t-19 20.5t-26 6t-28.5 -11v7.5t-0.5 14t-1.5 13.5t-2 7q-4 2 -11 1.5
t-15 -2.5q-9 -2 -9 -9q-1 -12 7 -14q5 -1 7.5 0.5t4.5 0.5v-36v-48v-47.5v-33.5q-7 0 -10.5 -3.5t-2.5 -8.5zM272 442q7 12 17 16.5t19 2t15.5 -10.5t6.5 -21t-7.5 -21.5t-17 -11.5t-19.5 -0.5t-15 13.5z" />
    <glyph glyph-name="Euro" unicode="&#x20ac;" 
d="M416 749h58v-93h77l-267 -653l-267 653h76v93h59v-93h264v93zM209 409q0 -11 9 -11h7q0 -5 1 -7v-9h-7q-9 0 -9 -13q0 -4 2 -7.5t7 -3.5h12q6 -23 20 -39t36 -15q18 0 35.5 13.5t23.5 31.5q2 9 -7 14.5t-13 -2.5q-8 -14 -16.5 -22.5t-22.5 -9.5q-11 0 -17.5 8t-11.5 21
q19 -1 31 0q4 1 7 4.5t3.5 8t-2 8t-7.5 3.5h-37q-1 5 -1 15q13 0 21 -0.5t15 1.5q9 1 10 12t-9 11h-36q3 18 10.5 31.5t19.5 15.5q8 1 16.5 -3.5t11.5 -12.5v-10.5t8 -7.5q6 -3 11 4t8.5 15.5t6.5 15.5q2 6 -0.5 10t-5.5 5q-4 2 -8.5 1t-9.5 -8q-19 17 -41 15
q-23 -2 -36 -23t-17 -48h-9q-5 0 -7 -3.5t-2 -8.5z" />
    <glyph glyph-name="thorn" unicode="&#xfe;" 
d="M416 749h58v-93h77l-267 -653l-267 653h76v93h59v-93h264v93zM237 315q-1 -10 6.5 -12t15.5 -2q4 0 9.5 0.5t10.5 2t8 4t3 7.5q0 12 -17 12l-1 49q12 -5 25.5 -4t24.5 8t19 19t9 28q1 17 -6.5 30.5t-19 20.5t-26 6t-28.5 -11v7.5t-0.5 14t-1.5 13.5t-2 7q-4 2 -11 1.5
t-15 -2.5q-9 -2 -9 -9q-1 -12 7 -14q5 -1 7.5 0.5t4.5 0.5v-36v-48v-47.5v-33.5q-7 0 -10.5 -3.5t-2.5 -8.5zM272 442q7 12 17 16.5t19 2t15.5 -10.5t6.5 -21t-7.5 -21.5t-17 -11.5t-19.5 -0.5t-15 13.5z" />
    <glyph glyph-name="oslash.001" 
d="M416 749h58v-93h77l-267 -653l-267 653h76v93h59v-93h264v93zM254 288q14 -11 33 -11q28 0 44 27.5t16 61.5q-1 19 -4.5 36t-11.5 31l10 18q1 3 -1 6t-6 5.5t-8 2.5t-6 -4l-4 -8q-12 11 -28 12t-27.5 -8t-19.5 -23t-12 -32.5t-4 -37.5q-1 -30 12 -55l-9 -17
q-3 -6 5.5 -12t16.5 0zM323 364q0 -10 -2 -21.5t-6.5 -21t-11 -15.5t-16.5 -6q-13 0 -22 9l52 97q3 -11 4.5 -22t1.5 -20zM250 365q0 13 2.5 26.5t7 24t11.5 17.5t16 7t17 -8l-51 -95q-3 13 -3 28z" />
    <glyph glyph-name="ae" unicode="&#xe6;" 
d="M416 749h58v-93h77l-267 -578l-267 578h76v93h59v-93h264v93zM258 387q0 -7 4.5 -9t10.5 -2q1 0 4 -0.5t11.5 -0.5h25.5t48 2q11 1 12.5 6t1.5 13q-1 8 -1.5 18.5t-11.5 10.5q-6 0 -10.5 -3t-4.5 -11v-7q0 -2 -6 -3t-14.5 -1t-15.5 0.5t-8 0.5q-1 8 -2 25t-1 36
q20 0 30.5 0.5t12.5 0.5q10 2 9 13t-10 11q-2 0 -12 -0.5t-30 -0.5q-1 17 -0.5 33.5t0.5 23.5q2 0 9 0.5t15 0.5t14 -1t6 -3q1 -8 3.5 -13t11.5 -5q11 0 11.5 8t1.5 16q0 8 -1.5 12.5t-12.5 5.5q-31 2 -55 3t-47 -1q-11 -2 -12 -12q0 -9 4.5 -9.5t6.5 -1.5q-3 -9 -11.5 -29
t-17.5 -42.5t-17.5 -42.5t-11.5 -29q-5 2 -10 -3t-3 -11t10 -7.5t13 -2.5q3 -1 6.5 -1.5t6.5 1.5q11 4 9 14q-1 4 -7 7q1 5 5.5 16t10.5 25q8 -1 18 -1h21q1 -15 1 -22.5v-12.5q-7 0 -14.5 -3t-6.5 -12zM276 528q0 -22 0.5 -39t0.5 -29q-15 -2 -30 0z" />
    <glyph glyph-name="dieresis" unicode="&#xa8;" horiz-adv-x="103" 
d="M34 512q-8 -2 -12.5 2t-5.5 10t2.5 11.5t11.5 6.5q7 1 12 -3t6 -9.5t-2.5 -11t-11.5 -6.5zM79 512q-8 -2 -13 2t-6 10t2.5 11.5t11.5 6.5q7 1 12 -3t6 -9.5t-2 -11t-11 -6.5z" />
    <glyph glyph-name="macron" unicode="&#xaf;" horiz-adv-x="130" 
d="M19 517q0 5 2.5 8.5t7.5 3.5h71q10 0 9 -11t-10 -12q-11 -2 -25.5 -1t-44.5 1q-5 0 -7.5 3.5t-2.5 7.5z" />
    <glyph glyph-name="exclamdown" unicode="&#xa1;" 
d="M416 749h58v-93h77l-267 -653l-267 653h76v93h59v-93h264v93zM315 474q0 4 -2.5 9.5t-22.5 5.5q-15 -1 -23 -2.5t-9 -9.5q-1 -7 3.5 -10.5t11.5 -3.5v-97q-2 -27 19 -25q17 2 18.5 15t-10.5 17v90q6 2 10 3.5t5 7.5zM288 332q-8 -2 -11 -7.5t-2 -11.5t5.5 -10t11.5 -2
q9 2 12 7.5t1.5 11t-6 9.5t-11.5 3z" />
    <glyph glyph-name="acute" unicode="&#xb4;" horiz-adv-x="77" 
d="M60 549q3 -3 3.5 -7.5t-2.5 -7.5l-24 -23q-4 -3 -8.5 -2t-7.5 3.5t-4 6.5t3 8l25 24q6 6 15 -2z" />
    <glyph glyph-name="cedilla" unicode="&#xb8;" horiz-adv-x="99" 
d="M49 243q-8 0 -8 8.5t7 8.5q7 -1 10.5 2t3.5 7t-3.5 7t-9.5 2q-9 -1 -10 4.5t-1 25.5h16v-12q13 -1 19 -9.5t5.5 -18t-8.5 -17.5t-21 -8z" />
    <glyph glyph-name="grave" unicode="`" horiz-adv-x="83" 
d="M17 549q9 8 15 2l25 -24q4 -4 3 -8t-4 -6.5t-7.5 -3.5t-8.5 2l-24 23q-3 3 -2.5 7.5t3.5 7.5z" />
    <glyph glyph-name="Aacute" unicode="&#xc1;" 
d="M416 749h58v-93h77l-267 -653l-267 653h76v93h59v-93h264v93zM249 478q0 -9 5 -10t7 -2q-3 -9 -10 -28.5t-14.5 -41.5t-14 -42t-9.5 -29q-6 2 -10 -3t-2 -11t10 -7.5t13 -2.5q3 -1 6.5 -1.5t7.5 1.5q10 4 7 14q-1 5 -7 7q1 5 4.5 15.5t8.5 24.5q24 -3 56 0l14 -40
q0 -1 -2 -3.5t-2 -6.5q0 -10 10 -12q8 -1 20.5 2.5t11.5 14.5q-2 8 -6.5 9t-8.5 0l-48 140q4 1 7 4.5t2 8.5q-1 6 -5.5 8t-9.5 2h-30q-11 0 -11 -11zM300 384q-11 -1 -21.5 -1.5t-21.5 1.5q8 23 15 42t7 20zM304 548q-9 8 -15 2l-25 -24q-4 -4 -3 -8t4 -6.5t7.5 -3.5t8.5 2
l24 23q3 3 2.5 7.5t-3.5 7.5z" />
    <glyph glyph-name="Abreve" unicode="&#x102;" 
d="M416 749h58v-93h77l-267 -653l-267 653h76v93h59v-93h264v93zM249 478q0 -9 5 -10t7 -2q-3 -9 -10 -28.5t-14.5 -41.5t-14 -42t-9.5 -29q-6 2 -10 -3t-2 -11t10 -7.5t13 -2.5q3 -1 6.5 -1.5t7.5 1.5q10 4 7 14q-1 5 -7 7q1 5 4.5 15.5t8.5 24.5q24 -3 56 0l14 -40
q0 -1 -2 -3.5t-2 -6.5q0 -10 10 -12q8 -1 20.5 2.5t11.5 14.5q-2 8 -6.5 9t-8.5 0l-48 140q4 1 7 4.5t2 8.5q-1 6 -5.5 8t-9.5 2h-30q-11 0 -11 -11zM300 384q-11 -1 -21.5 -1.5t-21.5 1.5q8 23 15 42t7 20zM242 537q2 -14 12.5 -21.5t24.5 -7.5q12 1 24 7t16 22q1 4 -1.5 7
t-6 3.5t-7 -1t-4.5 -5.5q-2 -9 -8.5 -12t-13.5 -3q-13 0 -17 13q-2 7 -11 6t-8 -8z" />
    <glyph glyph-name="Acircumflex" unicode="&#xc2;" 
d="M416 749h58v-93h77l-267 -653l-267 653h76v93h59v-93h264v93zM249 478q0 -9 5 -10t7 -2q-3 -9 -10 -28.5t-14.5 -41.5t-14 -42t-9.5 -29q-6 2 -10 -3t-2 -11t10 -7.5t13 -2.5q3 -1 6.5 -1.5t7.5 1.5q10 4 7 14q-1 5 -7 7q1 5 4.5 15.5t8.5 24.5q24 -3 56 0l14 -40
q0 -1 -2 -3.5t-2 -6.5q0 -10 10 -12q8 -1 20.5 2.5t11.5 14.5q-2 8 -6.5 9t-8.5 0l-48 140q4 1 7 4.5t2 8.5q-1 6 -5.5 8t-9.5 2h-30q-11 0 -11 -11zM300 384q-11 -1 -21.5 -1.5t-21.5 1.5q8 23 15 42t7 20zM251 518q-1 -5 1.5 -7.5t6 -4t7 -0.5t4.5 4l10 22l8 -20
q2 -4 6.5 -5t8.5 0t6.5 4.5t1.5 8.5l-13 25q-6 12 -18 11.5t-17 -12.5z" />
    <glyph glyph-name="Agrave" unicode="&#xc0;" 
d="M416 749h58v-93h77l-267 -653l-267 653h76v93h59v-93h264v93zM249 478q0 -9 5 -10t7 -2q-3 -9 -10 -28.5t-14.5 -41.5t-14 -42t-9.5 -29q-6 2 -10 -3t-2 -11t10 -7.5t13 -2.5q3 -1 6.5 -1.5t7.5 1.5q10 4 7 14q-1 5 -7 7q1 5 4.5 15.5t8.5 24.5q24 -3 56 0l14 -40
q0 -1 -2 -3.5t-2 -6.5q0 -10 10 -12q8 -1 20.5 2.5t11.5 14.5q-2 8 -6.5 9t-8.5 0l-48 140q4 1 7 4.5t2 8.5q-1 6 -5.5 8t-9.5 2h-30q-11 0 -11 -11zM300 384q-11 -1 -21.5 -1.5t-21.5 1.5q8 23 15 42t7 20zM259 548q-3 -3 -3.5 -7.5t2.5 -7.5l24 -23q4 -3 8.5 -2t7.5 3.5
t4 6.5t-3 8l-25 24q-6 6 -15 -2z" />
    <glyph glyph-name="Adieresis" unicode="&#xc4;" 
d="M416 749h58v-93h77l-267 -653l-267 653h76v93h59v-93h264v93zM249 478q0 -9 5 -10t7 -2q-3 -9 -10 -28.5t-14.5 -41.5t-14 -42t-9.5 -29q-6 2 -10 -3t-2 -11t10 -7.5t13 -2.5q3 -1 6.5 -1.5t7.5 1.5q10 4 7 14q-1 5 -7 7q1 5 4.5 15.5t8.5 24.5q24 -3 56 0l14 -40
q0 -1 -2 -3.5t-2 -6.5q0 -10 10 -12q8 -1 20.5 2.5t11.5 14.5q-2 8 -6.5 9t-8.5 0l-48 140q4 1 7 4.5t2 8.5q-1 6 -5.5 8t-9.5 2h-30q-11 0 -11 -11zM300 384q-11 -1 -21.5 -1.5t-21.5 1.5q8 23 15 42t7 20zM262 511q8 1 11.5 6.5t2.5 11t-6 9.5t-12 3q-8 -1 -11.5 -6.5
t-2.5 -11.5t5.5 -10t12.5 -2zM307 511q8 1 11 6.5t2 11t-6 9.5t-12 3q-8 -1 -11.5 -6.5t-2.5 -11.5t6 -10t13 -2z" />
    <glyph glyph-name="Amacron" unicode="&#x100;" 
d="M416 749h58v-93h77l-267 -653l-267 653h76v93h59v-93h264v93zM249 478q0 -9 5 -10t7 -2q-3 -9 -10 -28.5t-14.5 -41.5t-14 -42t-9.5 -29q-6 2 -10 -3t-2 -11t10 -7.5t13 -2.5q3 -1 6.5 -1.5t7.5 1.5q10 4 7 14q-1 5 -7 7q1 5 4.5 15.5t8.5 24.5q24 -3 56 0l14 -40
q0 -1 -2 -3.5t-2 -6.5q0 -10 10 -12q8 -1 20.5 2.5t11.5 14.5q-2 8 -6.5 9t-8.5 0l-48 140q4 1 7 4.5t2 8.5q-1 6 -5.5 8t-9.5 2h-30q-11 0 -11 -11zM300 384q-11 -1 -21.5 -1.5t-21.5 1.5q8 23 15 42t7 20zM234 516q0 -4 2.5 -7.5t7.5 -3.5q30 0 44.5 -1t25.5 1q9 1 10 12
t-9 11h-71q-5 0 -7.5 -3.5t-2.5 -8.5z" />
    <glyph glyph-name="Aogonek" unicode="&#x104;" 
d="M416 749h58v-93h77l-267 -653l-267 653h76v93h59v-93h264v93zM249 478q0 -9 5 -10t7 -2q-3 -9 -10 -28.5t-14.5 -41.5t-14 -42t-9.5 -29q-6 2 -10 -3t-2 -11t10 -7.5t13 -2.5q3 -1 6.5 -1.5t7.5 1.5q10 4 7 14q-1 5 -7 7q1 5 4.5 15.5t8.5 24.5q24 -3 56 0l14 -40
q0 -1 -2 -3.5t-2 -6.5v-1q-10 -14 -6.5 -28.5t14.5 -21.5q8 -4 13 4t-1 11q-7 3 -8 10t2 14q9 0 19 3t9 14q-2 8 -6.5 9t-8.5 0l-48 140q4 1 7 4.5t2 8.5q-1 6 -5.5 8t-9.5 2h-30q-11 0 -11 -11zM300 384q-11 -1 -21.5 -1.5t-21.5 1.5q8 23 15 42t7 20z" />
    <glyph glyph-name="Aring" unicode="&#xc5;" 
d="M416 749h58v-93h77l-267 -653l-267 653h76v93h59v-93h264v93zM249 478q0 -9 5 -10t7 -2q-3 -9 -10 -28.5t-14.5 -41.5t-14 -42t-9.5 -29q-6 2 -10 -3t-2 -11t10 -7.5t13 -2.5q3 -1 6.5 -1.5t7.5 1.5q10 4 7 14q-1 5 -7 7q1 5 4.5 15.5t8.5 24.5q24 -3 56 0l14 -40
q0 -1 -2 -3.5t-2 -6.5q0 -10 10 -12q8 -1 20.5 2.5t11.5 14.5q-2 8 -6.5 9t-8.5 0l-48 140q4 1 7 4.5t2 8.5q-1 6 -5.5 8t-9.5 2h-30q-11 0 -11 -11zM300 384q-11 -1 -21.5 -1.5t-21.5 1.5q8 23 15 42t7 20zM253 533q0 -14 9 -20t20 -6t20 6.5t9 19.5t-9 20t-19.5 7t-20 -7
t-9.5 -20zM290 533q0 -5 -8.5 -5.5t-8.5 5.5q1 8 9.5 7t7.5 -7z" />
    <glyph glyph-name="Atilde" unicode="&#xc3;" 
d="M416 749h58v-93h77l-267 -653l-267 653h76v93h59v-93h264v93zM249 478q0 -9 5 -10t7 -2q-3 -9 -10 -28.5t-14.5 -41.5t-14 -42t-9.5 -29q-6 2 -10 -3t-2 -11t10 -7.5t13 -2.5q3 -1 6.5 -1.5t7.5 1.5q10 4 7 14q-1 5 -7 7q1 5 4.5 15.5t8.5 24.5q24 -3 56 0l14 -40
q0 -1 -2 -3.5t-2 -6.5q0 -10 10 -12q8 -1 20.5 2.5t11.5 14.5q-2 8 -6.5 9t-8.5 0l-48 140q4 1 7 4.5t2 8.5q-1 6 -5.5 8t-9.5 2h-30q-11 0 -11 -11zM300 384q-11 -1 -21.5 -1.5t-21.5 1.5q8 23 15 42t7 20zM228 519q0 -11 13 -11q4 0 6 2t4 5t4.5 5t7.5 2q11 0 17.5 -7
t18.5 -7q23 0 35 20q8 11 3 20q-3 5 -10 5q-5 0 -7 -2.5t-4.5 -6t-5 -6.5t-8.5 -4q-5 -1 -9.5 1t-9 4.5t-9.5 5t-11 2.5q-12 0 -22.5 -8t-12.5 -20z" />
    <glyph glyph-name="AEacute" unicode="&#x1fc;" 
d="M416 749h58v-93h77l-267 -653l-267 653h76v93h59v-93h264v93zM258 312q0 -7 4.5 -9t10.5 -2q1 0 4 -0.5t11.5 -0.5h25.5t48 2q11 1 12.5 6t1.5 13q-1 8 -1.5 18.5t-11.5 10.5q-6 0 -10.5 -3t-4.5 -11v-7q0 -2 -6 -3t-14.5 -1t-15.5 0.5t-8 0.5q-1 8 -2 25t-1 36
q20 0 30.5 0.5t12.5 0.5q10 2 9 13t-10 11q-2 0 -12 -0.5t-30 -0.5q-1 17 -0.5 33.5t0.5 23.5q2 0 9 0.5t15 0.5t14 -1t6 -3q1 -8 3.5 -13t11.5 -5q11 0 11.5 8t1.5 16q0 8 -1.5 12.5t-12.5 5.5q-31 2 -55 3t-47 -1q-11 -2 -12 -12q0 -9 4.5 -9.5t6.5 -1.5q-3 -9 -11.5 -29
t-17.5 -42.5t-17.5 -42.5t-11.5 -29q-5 2 -10 -3t-3 -11t10 -7.5t13 -2.5q3 -1 6.5 -1.5t6.5 1.5q11 4 9 14q-1 4 -7 7q1 5 5.5 16t10.5 25q8 -1 18 -1h21q1 -15 1 -22.5v-12.5q-7 0 -14.5 -3t-6.5 -12zM276 453q0 -22 0.5 -39t0.5 -29q-15 -2 -30 0zM304 548q-9 8 -15 2
l-25 -24q-4 -4 -3 -8t4 -6.5t7.5 -3.5t8.5 2l24 23q3 3 2.5 7.5t-3.5 7.5z" />
    <glyph glyph-name="Cacute" unicode="&#x106;" 
d="M416 749h58v-93h77l-267 -653l-267 653h76v93h59v-93h264v93zM277 300q19 0 36 13.5t23 31.5q3 9 -6.5 14.5t-13.5 -2.5q-7 -14 -16 -22.5t-23 -9.5q-17 0 -25.5 21.5t-8.5 47.5q-1 25 6.5 46t24.5 24q7 1 16 -3.5t12 -12.5v-10.5t7 -7.5t12 4t8.5 15.5t5.5 15.5
q2 6 0 10t-5 5q-4 2 -8.5 1t-9.5 -8q-19 17 -41 15q-15 -2 -25.5 -11t-17.5 -23.5t-10 -31.5t-2 -35q1 -17 5 -33t12 -28t19 -19t25 -7zM304 548q-9 8 -15 2l-25 -24q-4 -4 -3 -8t4 -6.5t7.5 -3.5t8.5 2l24 23q3 3 2.5 7.5t-3.5 7.5z" />
    <glyph glyph-name="Ccaron" unicode="&#x10c;" 
d="M416 749h58v-93h77l-267 -653l-267 653h76v93h59v-93h264v93zM277 300q19 0 36 13.5t23 31.5q3 9 -6.5 14.5t-13.5 -2.5q-7 -14 -16 -22.5t-23 -9.5q-17 0 -25.5 21.5t-8.5 47.5q-1 25 6.5 46t24.5 24q7 1 16 -3.5t12 -12.5v-10.5t7 -7.5t12 4t8.5 15.5t5.5 15.5
q2 6 0 10t-5 5q-4 2 -8.5 1t-9.5 -8q-19 17 -41 15q-15 -2 -25.5 -11t-17.5 -23.5t-10 -31.5t-2 -35q1 -17 5 -33t12 -28t19 -19t25 -7zM312 544q1 4 -1.5 7t-6 4t-7 0.5t-4.5 -3.5l-10 -22l-8 20q-2 4 -6.5 5t-8.5 0t-7 -4.5t-1 -8.5l13 -26q6 -11 18 -10.5t17 12.5z" />
    <glyph glyph-name="Ccedilla" unicode="&#xc7;" 
d="M416 749h58v-93h77l-267 -653l-267 653h76v93h59v-93h264v93zM265 243q13 0 21 8t8.5 17.5t-5.5 18t-19 9.5v4q2 -1 3.5 -0.5t3.5 0.5q19 0 36 13.5t23 31.5q3 9 -6.5 14.5t-13.5 -2.5q-7 -14 -16 -22.5t-23 -9.5q-17 0 -25.5 21.5t-8.5 47.5q-1 25 6.5 46t24.5 24
q7 1 16 -3.5t12 -12.5v-10.5t7 -7.5t12 4t8.5 15.5t5.5 15.5q2 6 0 10t-5 5q-4 2 -8.5 1t-9.5 -8q-19 17 -41 15q-15 -2 -25.5 -11t-17.5 -23.5t-10 -31.5t-2 -35q1 -26 10.5 -49t27.5 -33q0 -17 1 -22.5t10 -4.5q6 1 9.5 -2t3.5 -7t-3.5 -7t-10.5 -2q-7 0 -7 -8.5t8 -8.5z
" />
    <glyph glyph-name="Ccircumflex" unicode="&#x108;" 
d="M416 749h58v-93h77l-267 -653l-267 653h76v93h59v-93h264v93zM277 300q19 0 36 13.5t23 31.5q3 9 -6.5 14.5t-13.5 -2.5q-7 -14 -16 -22.5t-23 -9.5q-17 0 -25.5 21.5t-8.5 47.5q-1 25 6.5 46t24.5 24q7 1 16 -3.5t12 -12.5v-10.5t7 -7.5t12 4t8.5 15.5t5.5 15.5
q2 6 0 10t-5 5q-4 2 -8.5 1t-9.5 -8q-19 17 -41 15q-15 -2 -25.5 -11t-17.5 -23.5t-10 -31.5t-2 -35q1 -17 5 -33t12 -28t19 -19t25 -7zM251 518q-1 -5 1.5 -7.5t6 -4t7 -0.5t4.5 4l10 22l8 -20q2 -4 6.5 -5t8.5 0t6.5 4.5t1.5 8.5l-13 25q-6 12 -18 11.5t-17 -12.5z" />
    <glyph glyph-name="Cdotaccent" unicode="&#x10a;" 
d="M416 749h58v-93h77l-267 -653l-267 653h76v93h59v-93h264v93zM277 300q19 0 36 13.5t23 31.5q3 9 -6.5 14.5t-13.5 -2.5q-7 -14 -16 -22.5t-23 -9.5q-17 0 -25.5 21.5t-8.5 47.5q-1 25 6.5 46t24.5 24q7 1 16 -3.5t12 -12.5v-10.5t7 -7.5t12 4t8.5 15.5t5.5 15.5
q2 6 0 10t-5 5q-4 2 -8.5 1t-9.5 -8q-19 17 -41 15q-15 -2 -25.5 -11t-17.5 -23.5t-10 -31.5t-2 -35q1 -17 5 -33t12 -28t19 -19t25 -7zM284 508q8 1 11.5 6.5t2.5 11t-6 9.5t-12 3q-8 -1 -11.5 -6.5t-2.5 -11t5.5 -10t12.5 -2.5z" />
    <glyph glyph-name="Dcaron" unicode="&#x10e;" 
d="M416 749h58v-93h77l-267 -653l-267 653h76v93h59v-93h264v93zM218 314q-2 -8 3.5 -11t14.5 -3q8 -1 14.5 -0.5t14.5 1.5q18 1 34.5 9t28.5 22t19 33.5t6 43.5t-10.5 39.5t-24.5 25t-35 13t-42 3.5q-11 -1 -16.5 -3t-6.5 -10q0 -10 9 -9.5t15 -0.5l-2 -143q-21 0 -22 -10z
M267 467q22 0 41 -12.5t21 -42.5q2 -40 -18 -63t-46 -25zM312 544q1 4 -1.5 7t-6 4t-7 0.5t-4.5 -3.5l-10 -22l-8 20q-2 4 -6.5 5t-8.5 0t-7 -4.5t-1 -8.5l13 -26q6 -11 18 -10.5t17 12.5z" />
    <glyph glyph-name="Dcroat" unicode="&#x110;" 
d="M416 749h58v-93h77l-267 -653l-267 653h76v93h59v-93h264v93zM211 413q0 -4 2.5 -7.5t7.5 -3.5q6 0 10.5 -0.5t9.5 -0.5l-1 -77q-21 0 -22 -10q-2 -8 3.5 -11t14.5 -3q8 -1 14.5 -0.5t14.5 1.5q18 1 34.5 9t28.5 22t19 33.5t6 43.5t-10.5 39.5t-24.5 25t-35 13t-42 3.5
q-11 -1 -16.5 -3t-6.5 -10q0 -10 9 -9.5t15 -0.5l-1 -42h-20q-5 0 -7.5 -3.5t-2.5 -8.5zM266 401h13.5t11.5 1q9 1 10 12t-9 11h-26l1 42q22 0 41 -12.5t21 -42.5q2 -40 -18 -63t-46 -25z" />
    <glyph glyph-name="Eacute" unicode="&#xc9;" 
d="M416 749h58v-93h77l-267 -653l-267 653h76v93h59v-93h264v93zM214 311q0 -7 4.5 -9t10.5 -2q1 0 4 -0.5t11.5 -0.5h25.5t48 2q11 1 12.5 6t1.5 13q-1 8 -1.5 18.5t-11.5 10.5q-6 0 -10.5 -3t-4.5 -11v-7q0 -2 -6 -3t-14.5 -1t-15.5 0.5t-8 0.5q-1 8 -2 25t-1 36
q20 0 30.5 1t12.5 0q4 0 6.5 4.5t1.5 8.5q0 2 -1.5 6.5t-7.5 4.5q-2 0 -12 -0.5t-30 -0.5q-1 17 -0.5 33.5t0.5 23.5q2 0 9 0.5t15 0.5t14 -1t6 -3v-4q0 -8 4.5 -11t10.5 -3q11 0 11.5 8t1.5 16q0 8 -1.5 12.5t-12.5 5.5q-31 1 -48 1.5t-25.5 0.5t-11.5 -0.5t-4 -0.5
q-6 0 -10.5 -2t-4.5 -9q-1 -9 6.5 -10.5t14.5 -1.5q0 -40 0.5 -65t1.5 -40t1 -22.5v-12.5q-7 0 -14.5 -3t-6.5 -12zM304 548q-9 8 -15 2l-25 -24q-4 -4 -3 -8t4 -6.5t7.5 -3.5t8.5 2l24 23q3 3 2.5 7.5t-3.5 7.5z" />
    <glyph glyph-name="Ebreve" unicode="&#x114;" 
d="M416 749h58v-93h77l-267 -653l-267 653h76v93h59v-93h264v93zM214 311q0 -7 4.5 -9t10.5 -2q1 0 4 -0.5t11.5 -0.5h25.5t48 2q11 1 12.5 6t1.5 13q-1 8 -1.5 18.5t-11.5 10.5q-6 0 -10.5 -3t-4.5 -11v-7q0 -2 -6 -3t-14.5 -1t-15.5 0.5t-8 0.5q-1 8 -2 25t-1 36
q20 0 30.5 1t12.5 0q4 0 6.5 4.5t1.5 8.5q0 2 -1.5 6.5t-7.5 4.5q-2 0 -12 -0.5t-30 -0.5q-1 17 -0.5 33.5t0.5 23.5q2 0 9 0.5t15 0.5t14 -1t6 -3v-4q0 -8 4.5 -11t10.5 -3q11 0 11.5 8t1.5 16q0 8 -1.5 12.5t-12.5 5.5q-31 1 -48 1.5t-25.5 0.5t-11.5 -0.5t-4 -0.5
q-6 0 -10.5 -2t-4.5 -9q-1 -9 6.5 -10.5t14.5 -1.5q0 -40 0.5 -65t1.5 -40t1 -22.5v-12.5q-7 0 -14.5 -3t-6.5 -12zM242 537q2 -14 12.5 -21.5t24.5 -7.5q12 1 24 7t16 22q1 4 -1.5 7t-6 3.5t-7 -1t-4.5 -5.5q-2 -9 -8.5 -12t-13.5 -3q-13 0 -17 13q-2 7 -11 6t-8 -8z" />
    <glyph glyph-name="Ecaron" unicode="&#x11a;" 
d="M416 749h58v-93h77l-267 -653l-267 653h76v93h59v-93h264v93zM214 311q0 -7 4.5 -9t10.5 -2q1 0 4 -0.5t11.5 -0.5h25.5t48 2q11 1 12.5 6t1.5 13q-1 8 -1.5 18.5t-11.5 10.5q-6 0 -10.5 -3t-4.5 -11v-7q0 -2 -6 -3t-14.5 -1t-15.5 0.5t-8 0.5q-1 8 -2 25t-1 36
q20 0 30.5 1t12.5 0q4 0 6.5 4.5t1.5 8.5q0 2 -1.5 6.5t-7.5 4.5q-2 0 -12 -0.5t-30 -0.5q-1 17 -0.5 33.5t0.5 23.5q2 0 9 0.5t15 0.5t14 -1t6 -3v-4q0 -8 4.5 -11t10.5 -3q11 0 11.5 8t1.5 16q0 8 -1.5 12.5t-12.5 5.5q-31 1 -48 1.5t-25.5 0.5t-11.5 -0.5t-4 -0.5
q-6 0 -10.5 -2t-4.5 -9q-1 -9 6.5 -10.5t14.5 -1.5q0 -40 0.5 -65t1.5 -40t1 -22.5v-12.5q-7 0 -14.5 -3t-6.5 -12zM312 544q1 4 -1.5 7t-6 4t-7 0.5t-4.5 -3.5l-10 -22l-8 20q-2 4 -6.5 5t-8.5 0t-7 -4.5t-1 -8.5l13 -26q6 -11 18 -10.5t17 12.5z" />
    <glyph glyph-name="Ecircumflex" unicode="&#xca;" 
d="M416 749h58v-93h77l-267 -653l-267 653h76v93h59v-93h264v93zM214 311q0 -7 4.5 -9t10.5 -2q1 0 4 -0.5t11.5 -0.5h25.5t48 2q11 1 12.5 6t1.5 13q-1 8 -1.5 18.5t-11.5 10.5q-6 0 -10.5 -3t-4.5 -11v-7q0 -2 -6 -3t-14.5 -1t-15.5 0.5t-8 0.5q-1 8 -2 25t-1 36
q20 0 30.5 1t12.5 0q4 0 6.5 4.5t1.5 8.5q0 2 -1.5 6.5t-7.5 4.5q-2 0 -12 -0.5t-30 -0.5q-1 17 -0.5 33.5t0.5 23.5q2 0 9 0.5t15 0.5t14 -1t6 -3v-4q0 -8 4.5 -11t10.5 -3q11 0 11.5 8t1.5 16q0 8 -1.5 12.5t-12.5 5.5q-31 1 -48 1.5t-25.5 0.5t-11.5 -0.5t-4 -0.5
q-6 0 -10.5 -2t-4.5 -9q-1 -9 6.5 -10.5t14.5 -1.5q0 -40 0.5 -65t1.5 -40t1 -22.5v-12.5q-7 0 -14.5 -3t-6.5 -12zM242 518q-1 -5 1.5 -7.5t6 -4t7 -0.5t4.5 4l10 22l8 -20q2 -4 6.5 -5t8.5 0t6.5 4.5t1.5 8.5l-13 25q-6 12 -18 11.5t-17 -12.5z" />
    <glyph glyph-name="Edieresis" unicode="&#xcb;" 
d="M416 749h58v-93h77l-267 -653l-267 653h76v93h59v-93h264v93zM214 311q0 -7 4.5 -9t10.5 -2q1 0 4 -0.5t11.5 -0.5h25.5t48 2q11 1 12.5 6t1.5 13q-1 8 -1.5 18.5t-11.5 10.5q-6 0 -10.5 -3t-4.5 -11v-7q0 -2 -6 -3t-14.5 -1t-15.5 0.5t-8 0.5q-1 8 -2 25t-1 36
q20 0 30.5 1t12.5 0q4 0 6.5 4.5t1.5 8.5q0 2 -1.5 6.5t-7.5 4.5q-2 0 -12 -0.5t-30 -0.5q-1 17 -0.5 33.5t0.5 23.5q2 0 9 0.5t15 0.5t14 -1t6 -3v-4q0 -8 4.5 -11t10.5 -3q11 0 11.5 8t1.5 16q0 8 -1.5 12.5t-12.5 5.5q-31 1 -48 1.5t-25.5 0.5t-11.5 -0.5t-4 -0.5
q-6 0 -10.5 -2t-4.5 -9q-1 -9 6.5 -10.5t14.5 -1.5q0 -40 0.5 -65t1.5 -40t1 -22.5v-12.5q-7 0 -14.5 -3t-6.5 -12zM262 511q8 1 11.5 6.5t2.5 11t-6 9.5t-12 3q-8 -1 -11.5 -6.5t-2.5 -11.5t5.5 -10t12.5 -2zM307 511q8 1 11 6.5t2 11t-6 9.5t-12 3q-8 -1 -11.5 -6.5
t-2.5 -11.5t6 -10t13 -2z" />
    <glyph glyph-name="Egrave" unicode="&#xc8;" 
d="M416 749h58v-93h77l-267 -653l-267 653h76v93h59v-93h264v93zM214 311q0 -7 4.5 -9t10.5 -2q1 0 4 -0.5t11.5 -0.5h25.5t48 2q11 1 12.5 6t1.5 13q-1 8 -1.5 18.5t-11.5 10.5q-6 0 -10.5 -3t-4.5 -11v-7q0 -2 -6 -3t-14.5 -1t-15.5 0.5t-8 0.5q-1 8 -2 25t-1 36
q20 0 30.5 1t12.5 0q4 0 6.5 4.5t1.5 8.5q0 2 -1.5 6.5t-7.5 4.5q-2 0 -12 -0.5t-30 -0.5q-1 17 -0.5 33.5t0.5 23.5q2 0 9 0.5t15 0.5t14 -1t6 -3v-4q0 -8 4.5 -11t10.5 -3q11 0 11.5 8t1.5 16q0 8 -1.5 12.5t-12.5 5.5q-31 1 -48 1.5t-25.5 0.5t-11.5 -0.5t-4 -0.5
q-6 0 -10.5 -2t-4.5 -9q-1 -9 6.5 -10.5t14.5 -1.5q0 -40 0.5 -65t1.5 -40t1 -22.5v-12.5q-7 0 -14.5 -3t-6.5 -12zM259 548q-3 -3 -3.5 -7.5t2.5 -7.5l24 -23q4 -3 8.5 -2t7.5 3.5t4 6.5t-3 8l-25 24q-6 6 -15 -2z" />
    <glyph glyph-name="Edotaccent" unicode="&#x116;" 
d="M416 749h58v-93h77l-267 -653l-267 653h76v93h59v-93h264v93zM214 311q0 -7 4.5 -9t10.5 -2q1 0 4 -0.5t11.5 -0.5h25.5t48 2q11 1 12.5 6t1.5 13q-1 8 -1.5 18.5t-11.5 10.5q-6 0 -10.5 -3t-4.5 -11v-7q0 -2 -6 -3t-14.5 -1t-15.5 0.5t-8 0.5q-1 8 -2 25t-1 36
q20 0 30.5 1t12.5 0q4 0 6.5 4.5t1.5 8.5q0 2 -1.5 6.5t-7.5 4.5q-2 0 -12 -0.5t-30 -0.5q-1 17 -0.5 33.5t0.5 23.5q2 0 9 0.5t15 0.5t14 -1t6 -3v-4q0 -8 4.5 -11t10.5 -3q11 0 11.5 8t1.5 16q0 8 -1.5 12.5t-12.5 5.5q-31 1 -48 1.5t-25.5 0.5t-11.5 -0.5t-4 -0.5
q-6 0 -10.5 -2t-4.5 -9q-1 -9 6.5 -10.5t14.5 -1.5q0 -40 0.5 -65t1.5 -40t1 -22.5v-12.5q-7 0 -14.5 -3t-6.5 -12zM284 508q8 1 11.5 6.5t2.5 11t-6 9.5t-12 3q-8 -1 -11.5 -6.5t-2.5 -11t5.5 -10t12.5 -2.5z" />
    <glyph glyph-name="Emacron" unicode="&#x112;" 
d="M416 749h58v-93h77l-267 -653l-267 653h76v93h59v-93h264v93zM214 311q0 -7 4.5 -9t10.5 -2q1 0 4 -0.5t11.5 -0.5h25.5t48 2q11 1 12.5 6t1.5 13q-1 8 -1.5 18.5t-11.5 10.5q-6 0 -10.5 -3t-4.5 -11v-7q0 -2 -6 -3t-14.5 -1t-15.5 0.5t-8 0.5q-1 8 -2 25t-1 36
q20 0 30.5 1t12.5 0q4 0 6.5 4.5t1.5 8.5q0 2 -1.5 6.5t-7.5 4.5q-2 0 -12 -0.5t-30 -0.5q-1 17 -0.5 33.5t0.5 23.5q2 0 9 0.5t15 0.5t14 -1t6 -3v-4q0 -8 4.5 -11t10.5 -3q11 0 11.5 8t1.5 16q0 8 -1.5 12.5t-12.5 5.5q-31 1 -48 1.5t-25.5 0.5t-11.5 -0.5t-4 -0.5
q-6 0 -10.5 -2t-4.5 -9q-1 -9 6.5 -10.5t14.5 -1.5q0 -40 0.5 -65t1.5 -40t1 -22.5v-12.5q-7 0 -14.5 -3t-6.5 -12zM234 516q0 -4 2.5 -7.5t7.5 -3.5q30 0 44.5 -1t25.5 1q9 1 10 12t-9 11h-71q-5 0 -7.5 -3.5t-2.5 -8.5z" />
    <glyph glyph-name="Eogonek" unicode="&#x118;" 
d="M416 749h58v-93h77l-267 -653l-267 653h76v93h59v-93h264v93zM214 311q0 -7 4.5 -9t10.5 -2q1 0 3 -0.5t7 -1t14 -0.5t26 1q-4 -12 0 -23.5t13 -16.5q8 -4 13 4t-1 11q-8 4 -8.5 11.5t4.5 14.5h8.5t9.5 1q11 1 12.5 6t1.5 13q-1 8 -1.5 18.5t-11.5 10.5q-6 0 -10.5 -3
t-4.5 -11v-7q0 -2 -6 -3t-14.5 -1t-15.5 0.5t-8 0.5q-1 8 -2 25t-1 36q20 0 30.5 1t12.5 0q4 0 6.5 4.5t1.5 8.5q0 2 -1.5 6.5t-7.5 4.5q-2 0 -12 -0.5t-30 -0.5q-1 17 -0.5 33.5t0.5 23.5q2 0 9 0.5t15 0.5t14 -1t6 -3v-4q0 -8 4.5 -11t10.5 -3q11 0 11.5 8t1.5 16
q0 8 -1.5 12.5t-12.5 5.5q-31 1 -48 1.5t-25.5 0.5t-11.5 -0.5t-4 -0.5q-6 0 -10.5 -2t-4.5 -9q-1 -9 6.5 -10.5t14.5 -1.5q0 -40 0.5 -65t1.5 -40t1 -22.5v-12.5q-7 0 -14.5 -3t-6.5 -12z" />
    <glyph glyph-name="Gbreve" unicode="&#x11e;" 
d="M416 749h58v-93h77l-267 -653l-267 653h76v93h59v-93h264v93zM296 390q-7 0 -13.5 -2.5t-6.5 -11.5q1 -7 5.5 -9.5t9.5 -2.5t12.5 0.5t10.5 0.5q1 -20 -8.5 -30t-20.5 -10q-40 0 -43 69q-1 27 7.5 47t25.5 23q7 1 16 -3.5t12 -12.5v-10.5t7 -7.5t12 4t8.5 15.5t5.5 15.5
q2 6 0 10t-5 5q-4 2 -8.5 1t-9.5 -8q-19 17 -41 15q-15 -2 -25.5 -11t-17.5 -23.5t-10 -31.5t-2 -35q1 -16 5 -31.5t12 -28t21 -20t31 -7.5t35 16t19 51q5 0 8.5 3.5t3.5 8.5q-2 14 -22 12zM242 537q2 -14 12.5 -21.5t24.5 -7.5q12 1 24 7t16 22q1 4 -1.5 7t-6 3.5t-7 -1
t-4.5 -5.5q-2 -9 -8.5 -12t-13.5 -3q-13 0 -17 13q-2 7 -11 6t-8 -8z" />
    <glyph glyph-name="Gcircumflex" unicode="&#x11c;" 
d="M416 749h58v-93h77l-267 -653l-267 653h76v93h59v-93h264v93zM296 390q-7 0 -13.5 -2.5t-6.5 -11.5q1 -7 5.5 -9.5t9.5 -2.5t12.5 0.5t10.5 0.5q1 -20 -8.5 -30t-20.5 -10q-40 0 -43 69q-1 27 7.5 47t25.5 23q7 1 16 -3.5t12 -12.5v-10.5t7 -7.5t12 4t8.5 15.5t5.5 15.5
q2 6 0 10t-5 5q-4 2 -8.5 1t-9.5 -8q-19 17 -41 15q-15 -2 -25.5 -11t-17.5 -23.5t-10 -31.5t-2 -35q1 -16 5 -31.5t12 -28t21 -20t31 -7.5t35 16t19 51q5 0 8.5 3.5t3.5 8.5q-2 14 -22 12zM251 518q-1 -5 1.5 -7.5t6 -4t7 -0.5t4.5 4l10 22l8 -20q2 -4 6.5 -5t8.5 0
t6.5 4.5t1.5 8.5l-13 25q-6 12 -18 11.5t-17 -12.5z" />
    <glyph glyph-name="commaaccent" horiz-adv-x="79" 
d="M41 227q-6 -5 -15 0.5t-3 13.5q8 11 6.5 18t-3.5 12q-1 4 1.5 7.5t6.5 5t8 1t6 -3.5q8 -18 3.5 -33.5t-10.5 -20.5z" />
    <glyph glyph-name="Gcommaaccent" unicode="&#x122;" 
d="M416 749h58v-93h77l-267 -653l-267 653h76v93h59v-93h264v93zM296 390q-7 0 -13.5 -2.5t-6.5 -11.5q1 -7 5.5 -9.5t9.5 -2.5t12.5 0.5t10.5 0.5q1 -20 -8.5 -30t-20.5 -10q-40 0 -43 69q-1 27 7.5 47t25.5 23q7 1 16 -3.5t12 -12.5v-10.5t7 -7.5t12 4t8.5 15.5t5.5 15.5
q2 6 0 10t-5 5q-4 2 -8.5 1t-9.5 -8q-19 17 -41 15q-15 -2 -25.5 -11t-17.5 -23.5t-10 -31.5t-2 -35q1 -16 5 -31.5t12 -28t21 -20t31 -7.5t35 16t19 51q5 0 8.5 3.5t3.5 8.5q-2 14 -22 12zM288 224q6 5 10.5 20.5t-3.5 33.5q-2 3 -6 3.5t-8 -1t-6.5 -5t-1.5 -7.5
q2 -5 3.5 -12t-6.5 -18q-6 -8 3 -13.5t15 -0.5z" />
    <glyph glyph-name="Gdotaccent" unicode="&#x120;" 
d="M416 749h58v-93h77l-267 -653l-267 653h76v93h59v-93h264v93zM296 390q-7 0 -13.5 -2.5t-6.5 -11.5q1 -7 5.5 -9.5t9.5 -2.5t12.5 0.5t10.5 0.5q1 -20 -8.5 -30t-20.5 -10q-40 0 -43 69q-1 27 7.5 47t25.5 23q7 1 16 -3.5t12 -12.5v-10.5t7 -7.5t12 4t8.5 15.5t5.5 15.5
q2 6 0 10t-5 5q-4 2 -8.5 1t-9.5 -8q-19 17 -41 15q-15 -2 -25.5 -11t-17.5 -23.5t-10 -31.5t-2 -35q1 -16 5 -31.5t12 -28t21 -20t31 -7.5t35 16t19 51q5 0 8.5 3.5t3.5 8.5q-2 14 -22 12zM284 508q8 1 11.5 6.5t2.5 11t-6 9.5t-12 3q-8 -1 -11.5 -6.5t-2.5 -11t5.5 -10
t12.5 -2.5z" />
    <glyph glyph-name="Hbar" unicode="&#x126;" 
d="M416 749h58v-93h77l-267 -653l-267 653h76v93h59v-93h264v93zM215 314q-1 -4 2 -9.5t22 -5.5q15 1 23 2.5t9 9.5q1 7 -3.5 10.5t-11.5 3.5l1 58h59v-60q0 -11 2.5 -17t15.5 -7q25 -1 25 14q0 5 -3 9.5t-14 4.5l1 95q3 0 5 0.5t4 0.5q9 1 10 12t-9 11h-9v16q6 2 10 3.5
t5 8.5q1 3 -2 9t-22 5q-15 0 -23 -2t-9 -10q-1 -7 3.5 -10t10.5 -4v-16h-59v18q0 11 -2.5 17t-15.5 7q-25 1 -25 -14q0 -5 3 -9.5t14 -4.5l-1 -14h-8q-5 0 -7.5 -3.5t-2.5 -8.5q0 -4 2.5 -7.5t7.5 -3.5h8l-2 -98q-6 -2 -10 -3.5t-4 -7.5zM317 422v-17h-60v17h60z" />
    <glyph glyph-name="Hcircumflex" unicode="&#x124;" 
d="M416 749h58v-93h77l-267 -653l-267 653h76v93h59v-93h264v93zM215 314q-1 -4 2 -9.5t22 -5.5q15 1 23 2.5t9 9.5q1 7 -3.5 10.5t-11.5 3.5l1 58h59v-60q0 -11 2.5 -17t15.5 -7q25 -1 25 14q0 5 -3 9.5t-14 4.5l2 135q6 2 10 3.5t5 8.5q1 3 -2 9t-22 5q-15 0 -23 -2
t-9 -10q-1 -7 3.5 -10t10.5 -4v-57h-60l1 59q0 11 -2.5 17t-15.5 7q-25 1 -25 -14q0 -5 3 -9.5t14 -4.5l-3 -135q-6 -2 -10 -3.5t-4 -7.5zM251 518q-1 -5 1.5 -7.5t6 -4t7 -0.5t4.5 4l10 22l8 -20q2 -4 6.5 -5t8.5 0t6.5 4.5t1.5 8.5l-13 25q-6 12 -18 11.5t-17 -12.5z" />
    <glyph glyph-name="Iacute" unicode="&#xcd;" 
d="M416 749h58v-93h77l-267 -653l-267 653h76v93h59v-93h264v93zM320 464q0 -11 4.5 -14.5t9.5 -3.5q17 0 14 25q-1 11 -6.5 14.5t-16.5 3.5h-80q-8 0 -15.5 -3t-8.5 -15q0 -25 15 -25q5 0 9.5 3.5t4.5 14.5h22v-140h-23q0 11 -4.5 14.5t-9.5 3.5q-18 0 -15 -24
q2 -11 7.5 -14.5t16.5 -3.5h79q8 0 15.5 3t8.5 15q1 24 -15 24q-5 0 -9 -3.5t-4 -14.5h-21l1 140h21zM304 548q-9 8 -15 2l-25 -24q-4 -4 -3 -8t4 -6.5t7.5 -3.5t8.5 2l24 23q3 3 2.5 7.5t-3.5 7.5z" />
    <glyph glyph-name="Ibreve" unicode="&#x12c;" 
d="M416 749h58v-93h77l-267 -653l-267 653h76v93h59v-93h264v93zM320 464q0 -11 4.5 -14.5t9.5 -3.5q17 0 14 25q-1 11 -6.5 14.5t-16.5 3.5h-80q-8 0 -15.5 -3t-8.5 -15q0 -25 15 -25q5 0 9.5 3.5t4.5 14.5h22v-140h-23q0 11 -4.5 14.5t-9.5 3.5q-18 0 -15 -24
q2 -11 7.5 -14.5t16.5 -3.5h79q8 0 15.5 3t8.5 15q1 24 -15 24q-5 0 -9 -3.5t-4 -14.5h-21l1 140h21zM242 537q2 -14 12.5 -21.5t24.5 -7.5q12 1 24 7t16 22q1 4 -1.5 7t-6 3.5t-7 -1t-4.5 -5.5q-2 -9 -8.5 -12t-13.5 -3q-13 0 -17 13q-2 7 -11 6t-8 -8z" />
    <glyph glyph-name="Icircumflex" unicode="&#xce;" 
d="M416 749h58v-93h77l-267 -653l-267 653h76v93h59v-93h264v93zM320 464q0 -11 4.5 -14.5t9.5 -3.5q17 0 14 25q-1 11 -6.5 14.5t-16.5 3.5h-80q-8 0 -15.5 -3t-8.5 -15q0 -25 15 -25q5 0 9.5 3.5t4.5 14.5h22v-140h-23q0 11 -4.5 14.5t-9.5 3.5q-18 0 -15 -24
q2 -11 7.5 -14.5t16.5 -3.5h79q8 0 15.5 3t8.5 15q1 24 -15 24q-5 0 -9 -3.5t-4 -14.5h-21l1 140h21zM251 518q-1 -5 1.5 -7.5t6 -4t7 -0.5t4.5 4l10 22l8 -20q2 -4 6.5 -5t8.5 0t6.5 4.5t1.5 8.5l-13 25q-6 12 -18 11.5t-17 -12.5z" />
    <glyph glyph-name="Idieresis" unicode="&#xcf;" 
d="M416 749h58v-93h77l-267 -653l-267 653h76v93h59v-93h264v93zM320 464q0 -11 4.5 -14.5t9.5 -3.5q17 0 14 25q-1 11 -6.5 14.5t-16.5 3.5h-80q-8 0 -15.5 -3t-8.5 -15q0 -25 15 -25q5 0 9.5 3.5t4.5 14.5h22v-140h-23q0 11 -4.5 14.5t-9.5 3.5q-18 0 -15 -24
q2 -11 7.5 -14.5t16.5 -3.5h79q8 0 15.5 3t8.5 15q1 24 -15 24q-5 0 -9 -3.5t-4 -14.5h-21l1 140h21zM262 511q8 1 11.5 6.5t2.5 11t-6 9.5t-12 3q-8 -1 -11.5 -6.5t-2.5 -11.5t5.5 -10t12.5 -2zM307 511q8 1 11 6.5t2 11t-6 9.5t-12 3q-8 -1 -11.5 -6.5t-2.5 -11.5t6 -10
t13 -2z" />
    <glyph glyph-name="Idotaccent" unicode="&#x130;" 
d="M416 749h58v-93h77l-267 -653l-267 653h76v93h59v-93h264v93zM320 464q0 -11 4.5 -14.5t9.5 -3.5q17 0 14 25q-1 11 -6.5 14.5t-16.5 3.5h-80q-8 0 -15.5 -3t-8.5 -15q0 -25 15 -25q5 0 9.5 3.5t4.5 14.5h22v-140h-23q0 11 -4.5 14.5t-9.5 3.5q-18 0 -15 -24
q2 -11 7.5 -14.5t16.5 -3.5h79q8 0 15.5 3t8.5 15q1 24 -15 24q-5 0 -9 -3.5t-4 -14.5h-21l1 140h21zM284 508q8 1 11.5 6.5t2.5 11t-6 9.5t-12 3q-8 -1 -11.5 -6.5t-2.5 -11t5.5 -10t12.5 -2.5z" />
    <glyph glyph-name="Igrave" unicode="&#xcc;" 
d="M416 749h58v-93h77l-267 -653l-267 653h76v93h59v-93h264v93zM320 464q0 -11 4.5 -14.5t9.5 -3.5q17 0 14 25q-1 11 -6.5 14.5t-16.5 3.5h-80q-8 0 -15.5 -3t-8.5 -15q0 -25 15 -25q5 0 9.5 3.5t4.5 14.5h22v-140h-23q0 11 -4.5 14.5t-9.5 3.5q-18 0 -15 -24
q2 -11 7.5 -14.5t16.5 -3.5h79q8 0 15.5 3t8.5 15q1 24 -15 24q-5 0 -9 -3.5t-4 -14.5h-21l1 140h21zM259 548q-3 -3 -3.5 -7.5t2.5 -7.5l24 -23q4 -3 8.5 -2t7.5 3.5t4 6.5t-3 8l-25 24q-6 6 -15 -2z" />
    <glyph glyph-name="Imacron" unicode="&#x12a;" 
d="M416 749h58v-93h77l-267 -653l-267 653h76v93h59v-93h264v93zM320 464q0 -11 4.5 -14.5t9.5 -3.5q17 0 14 25q-1 11 -6.5 14.5t-16.5 3.5h-80q-8 0 -15.5 -3t-8.5 -15q0 -25 15 -25q5 0 9.5 3.5t4.5 14.5h22v-140h-23q0 11 -4.5 14.5t-9.5 3.5q-18 0 -15 -24
q2 -11 7.5 -14.5t16.5 -3.5h79q8 0 15.5 3t8.5 15q1 24 -15 24q-5 0 -9 -3.5t-4 -14.5h-21l1 140h21zM234 516q0 -4 2.5 -7.5t7.5 -3.5q30 0 44.5 -1t25.5 1q9 1 10 12t-9 11h-71q-5 0 -7.5 -3.5t-2.5 -8.5z" />
    <glyph glyph-name="Iogonek" unicode="&#x12e;" 
d="M416 749h58v-93h77l-267 -653l-267 653h76v93h59v-93h264v93zM320 464q0 -11 4.5 -14.5t9.5 -3.5q17 0 14 25q-1 11 -6.5 14.5t-16.5 3.5h-80q-8 0 -15.5 -3t-8.5 -15q0 -25 15 -25q5 0 9.5 3.5t4.5 14.5h22v-140h-23q0 11 -4.5 14.5t-9.5 3.5q-18 0 -15 -24
q2 -11 7.5 -14.5t16.5 -3.5h58q-3 -12 1 -23t13 -16q8 -4 13 4t-1 11q-7 3 -8 10t3 14q8 0 15.5 3t8.5 15q1 24 -15 24q-5 0 -9 -3.5t-4 -14.5h-21l1 140h21z" />
    <glyph glyph-name="Itilde" unicode="&#x128;" 
d="M416 749h58v-93h77l-267 -653l-267 653h76v93h59v-93h264v93zM320 464q0 -11 4.5 -14.5t9.5 -3.5q17 0 14 25q-1 11 -6.5 14.5t-16.5 3.5h-80q-8 0 -15.5 -3t-8.5 -15q0 -25 15 -25q5 0 9.5 3.5t4.5 14.5h22v-140h-23q0 11 -4.5 14.5t-9.5 3.5q-18 0 -15 -24
q2 -11 7.5 -14.5t16.5 -3.5h79q8 0 15.5 3t8.5 15q1 24 -15 24q-5 0 -9 -3.5t-4 -14.5h-21l1 140h21zM226 518q0 -11 13 -11q4 0 6 2t4 5t4.5 5t7.5 2q11 0 17.5 -7t18.5 -7q23 0 35 20q8 11 3 20q-3 5 -10 5q-5 0 -7 -2.5t-4.5 -6t-5 -6.5t-8.5 -4q-5 -1 -9.5 1t-9 4.5
t-9.5 5t-11 2.5q-12 0 -22.5 -8t-12.5 -20z" />
    <glyph glyph-name="Jcircumflex" unicode="&#x134;" 
d="M416 749h58v-93h77l-267 -653l-267 653h76v93h59v-93h264v93zM326 467q-1 -11 3.5 -14t9.5 -3q16 -2 15 24q-1 11 -7 13.5t-17 2.5h-69q-8 0 -16 -3t-8 -13q0 -25 15 -24q5 0 9.5 3t3.5 14h19q5 -30 6.5 -52t3.5 -43q1 -14 -4 -29t-18 -19q-5 -1 -11 0.5t-10 6.5
q11 4 8 16.5t-16 12.5q-8 0 -14 -5.5t-5 -16.5q1 -19 15 -28.5t31 -9.5q15 0 25 7.5t15.5 18.5t7.5 24t1 26q-2 26 -3 44t-5 47h15zM251 518q-1 -5 1.5 -7.5t6 -4t7 -0.5t4.5 4l10 22l8 -20q2 -4 6.5 -5t8.5 0t6.5 4.5t1.5 8.5l-13 25q-6 12 -18 11.5t-17 -12.5z" />
    <glyph glyph-name="Kcommaaccent" unicode="&#x136;" 
d="M416 749h58v-93h77l-267 -653l-267 653h76v93h59v-93h264v93zM313 305q3 -5 10 -4.5t13 3.5q8 4 17 10t4 16q-2 5 -7.5 5.5t-11.5 -2.5q-20 31 -35.5 51t-15.5 21l46 49q8 -6 15 -6q8 1 9.5 8t-3.5 13q-5 4 -9.5 8.5t-9.5 8.5t-11 3.5t-8 -4.5q-4 -6 -2.5 -9l2.5 -5
l-66 -70q-1 16 -0.5 32t-0.5 31q5 0 10.5 2.5t5.5 9.5q0 5 -3 8.5t-8 3.5h-27q-15 0 -15 -12q0 -11 13 -12v-140q-6 -2 -10.5 -5t-4.5 -9q0 -5 3.5 -8t8.5 -3l32 1q11 0 11 11q0 7 -4.5 9.5t-9.5 3.5v45l17 18l48 -66q-2 -2 -5 -6t2 -10zM286 227q6 5 10.5 20.5t-3.5 33.5
q-2 3 -6 3.5t-8 -1t-6.5 -5t-1.5 -7.5q2 -5 3.5 -12t-6.5 -18q-6 -8 3 -13.5t15 -0.5z" />
    <glyph glyph-name="Lacute" unicode="&#x139;" 
d="M416 749h58v-93h77l-267 -653l-267 653h76v93h59v-93h264v93zM222 311q0 -7 4.5 -9t10.5 -2q1 0 4 -0.5t11.5 -0.5h25.5t48 2q11 1 12.5 6.5t1.5 14.5q-1 8 -1.5 20t-11.5 12q-6 0 -10.5 -3t-4.5 -11v-11q0 -2 -6 -3t-13.5 -1h-15h-8.5q-1 9 -2 29.5t-1 42.5v41t1 26
q8 1 14 3t6 10q-1 8 -5.5 10t-12.5 2h-25q-8 0 -14.5 -2.5t-6.5 -10.5q-2 -8 6.5 -11t10.5 -1q0 -41 0.5 -66t1.5 -39.5t1 -21.5v-12q-7 0 -14.5 -2.5t-6.5 -11.5zM304 548q-9 8 -15 2l-25 -24q-4 -4 -3 -8t4 -6.5t7.5 -3.5t8.5 2l24 23q3 3 2.5 7.5t-3.5 7.5z" />
    <glyph glyph-name="Lcaron" unicode="&#x13d;" 
d="M222 311q0 -7 4.5 -9t10.5 -2q1 0 4 -0.5t11.5 -0.5h25.5t48 2q11 1 12.5 6.5t1.5 14.5q-1 8 -1.5 20t-11.5 12q-6 0 -10.5 -3t-4.5 -11v-11q0 -2 -6 -3t-13.5 -1h-15h-8.5q-1 9 -2 29.5t-1 42.5v41t1 26q8 1 14 3t6 10q-1 8 -5.5 10t-12.5 2h-25q-8 0 -14.5 -2.5
t-6.5 -10.5q-2 -8 6.5 -11t10.5 -1q0 -41 0.5 -66t1.5 -39.5t1 -21.5v-12q-7 0 -14.5 -2.5t-6.5 -11.5zM415 749h58v-93h77l-267 -653l-267 653h76v93h59v-93h264v93zM329 446q6 5 11 20.5t-3 33.5q-2 3 -6 4t-8 -0.5t-7 -5t-2 -8.5q2 -5 3.5 -12t-6.5 -18q-5 -8 3.5 -13.5
t14.5 -0.5z" />
    <glyph glyph-name="Lcommaaccent" unicode="&#x13b;" 
d="M416 749h58v-93h77l-267 -653l-267 653h76v93h59v-93h264v93zM222 311q0 -7 4.5 -9t10.5 -2q1 0 4 -0.5t11.5 -0.5h25.5t48 2q11 1 12.5 6.5t1.5 14.5q-1 8 -1.5 20t-11.5 12q-6 0 -10.5 -3t-4.5 -11v-11q0 -2 -6 -3t-13.5 -1h-15h-8.5q-1 9 -2 29.5t-1 42.5v41t1 26
q8 1 14 3t6 10q-1 8 -5.5 10t-12.5 2h-25q-8 0 -14.5 -2.5t-6.5 -10.5q-2 -8 6.5 -11t10.5 -1q0 -41 0.5 -66t1.5 -39.5t1 -21.5v-12q-7 0 -14.5 -2.5t-6.5 -11.5zM286 227q6 5 10.5 20.5t-3.5 33.5q-2 3 -6 3.5t-8 -1t-6.5 -5t-1.5 -7.5q2 -5 3.5 -12t-6.5 -18
q-6 -8 3 -13.5t15 -0.5z" />
    <glyph glyph-name="Ldot" unicode="&#x13f;" 
d="M416 749h58v-93h77l-267 -653l-267 653h76v93h59v-93h264v93zM222 311q0 -7 4.5 -9t10.5 -2q1 0 4 -0.5t11.5 -0.5h25.5t48 2q11 1 12.5 6.5t1.5 14.5q-1 8 -1.5 20t-11.5 12q-6 0 -10.5 -3t-4.5 -11v-11q0 -2 -6 -3t-13.5 -1h-15h-8.5q-1 9 -2 29.5t-1 42.5v41t1 26
q8 1 14 3t6 10q-1 8 -5.5 10t-12.5 2h-25q-8 0 -14.5 -2.5t-6.5 -10.5q-2 -8 6.5 -11t10.5 -1q0 -41 0.5 -66t1.5 -39.5t1 -21.5v-12q-7 0 -14.5 -2.5t-6.5 -11.5zM329 399q8 1 11.5 6.5t2.5 11t-6 9.5t-12 3q-8 -1 -11.5 -6.5t-2.5 -11t5.5 -10t12.5 -2.5z" />
    <glyph glyph-name="Lslash" unicode="&#x141;" 
d="M414 749h58v-93h77l-267 -653l-267 653h76v93h59v-93h264v93zM214 389q3 -10 12 -7q4 2 7.5 2.5t6.5 2.5q1 -32 2 -43.5t1 -18.5q-7 0 -14.5 -2.5t-6.5 -11.5q0 -7 4.5 -9t10.5 -2q1 0 4 -0.5t11.5 -0.5h25.5t48 2q11 1 12.5 6.5t1.5 14.5q-1 8 -1.5 20t-11.5 12
q-6 0 -10.5 -3t-4.5 -11v-11q0 -2 -6 -3t-13.5 -1h-15h-8.5q-2 9 -2.5 28.5t-0.5 40.5q8 3 14.5 5.5t11.5 5.5q4 2 5.5 6.5t0.5 8.5t-4.5 6.5t-8.5 0.5l-19 -7v26.5t1 17.5q8 1 14 3t6 10q-1 8 -5.5 10t-12.5 2h-25q-8 0 -14.5 -2.5t-6.5 -10.5q-2 -8 6.5 -11t10.5 -1v-53
l-22 -8q-8 -3 -4 -14z" />
    <glyph glyph-name="Nacute" unicode="&#x143;" 
d="M416 749h58v-93h77l-267 -653l-267 653h76v93h59v-93h264v93zM207 312q1 -8 5 -10t9 -2h33q12 2 12 12q0 8 -5.5 11t-12.5 2q0 10 -0.5 28t-0.5 37t0.5 35.5t0.5 22.5l66 -136q4 -6 7 -9t12 -3h13q7 0 9.5 3.5t2.5 8.5q-1 8 -4 10t-11 2l-1 141q13 0 14 13q0 9 -7.5 10.5
t-19.5 1.5q-11 0 -19 -1t-8 -12q1 -7 5.5 -9.5t9.5 -2.5l2 -109l-60 122q-2 3 -6.5 7t-16.5 5q-7 0 -18.5 -1t-11.5 -12q0 -3 1.5 -6.5t9.5 -4.5h6v-141q-2 -1 -9 -2t-7 -11zM304 548q-9 8 -15 2l-25 -24q-4 -4 -3 -8t4 -6.5t7.5 -3.5t8.5 2l24 23q3 3 2.5 7.5t-3.5 7.5z
" />
    <glyph glyph-name="Ncaron" unicode="&#x147;" 
d="M416 749h58v-93h77l-267 -653l-267 653h76v93h59v-93h264v93zM207 312q1 -8 5 -10t9 -2h33q12 2 12 12q0 8 -5.5 11t-12.5 2q0 10 -0.5 28t-0.5 37t0.5 35.5t0.5 22.5l66 -136q4 -6 7 -9t12 -3h13q7 0 9.5 3.5t2.5 8.5q-1 8 -4 10t-11 2l-1 141q13 0 14 13q0 9 -7.5 10.5
t-19.5 1.5q-11 0 -19 -1t-8 -12q1 -7 5.5 -9.5t9.5 -2.5l2 -109l-60 122q-2 3 -6.5 7t-16.5 5q-7 0 -18.5 -1t-11.5 -12q0 -3 1.5 -6.5t9.5 -4.5h6v-141q-2 -1 -9 -2t-7 -11zM312 544q1 4 -1.5 7t-6 4t-7 0.5t-4.5 -3.5l-10 -22l-8 20q-2 4 -6.5 5t-8.5 0t-7 -4.5t-1 -8.5
l13 -26q6 -11 18 -10.5t17 12.5z" />
    <glyph glyph-name="Ncommaaccent" unicode="&#x145;" 
d="M416 749h58v-93h77l-267 -653l-267 653h76v93h59v-93h264v93zM207 312q1 -8 5 -10t9 -2h33q12 2 12 12q0 8 -5.5 11t-12.5 2q0 10 -0.5 28t-0.5 37t0.5 35.5t0.5 22.5l66 -136q4 -6 7 -9t12 -3h13q7 0 9.5 3.5t2.5 8.5q-1 8 -4 10t-11 2l-1 141q13 0 14 13q0 9 -7.5 10.5
t-19.5 1.5q-11 0 -19 -1t-8 -12q1 -7 5.5 -9.5t9.5 -2.5l2 -109l-60 122q-2 3 -6.5 7t-16.5 5q-7 0 -18.5 -1t-11.5 -12q0 -3 1.5 -6.5t9.5 -4.5h6v-141q-2 -1 -9 -2t-7 -11zM286 227q6 5 10.5 20.5t-3.5 33.5q-2 3 -6 3.5t-8 -1t-6.5 -5t-1.5 -7.5q2 -5 3.5 -12t-6.5 -18
q-6 -8 3 -13.5t15 -0.5z" />
    <glyph glyph-name="Obreve" unicode="&#x14e;" 
d="M416 749h58v-93h77l-267 -653l-267 653h76v93h59v-93h264v93zM222 387q-1 -36 16.5 -61.5t45.5 -25.5t44 27.5t16 61.5q-1 38 -15.5 67.5t-43.5 31.5q-16 1 -27.5 -8t-19.5 -23t-12 -32.5t-4 -37.5zM247 388q0 13 2.5 26.5t7 24t11.5 17.5t16 7q10 0 16.5 -7.5t11 -19
t6.5 -25t2 -24.5q0 -10 -2 -21.5t-6.5 -21t-11 -15.5t-16.5 -6q-20 0 -28.5 20.5t-8.5 44.5zM242 537q2 -14 12.5 -21.5t24.5 -7.5q12 1 24 7t16 22q1 4 -1.5 7t-6 3.5t-7 -1t-4.5 -5.5q-2 -9 -8.5 -12t-13.5 -3q-13 0 -17 13q-2 7 -11 6t-8 -8z" />
    <glyph glyph-name="Ntilde" unicode="&#xd1;" 
d="M416 749h58v-93h77l-267 -653l-267 653h76v93h59v-93h264v93zM207 312q1 -8 5 -10t9 -2h33q12 2 12 12q0 8 -5.5 11t-12.5 2q0 10 -0.5 28t-0.5 37t0.5 35.5t0.5 22.5l66 -136q4 -6 7 -9t12 -3h13q7 0 9.5 3.5t2.5 8.5q-1 8 -4 10t-11 2l-1 141q13 0 14 13q0 9 -7.5 10.5
t-19.5 1.5q-11 0 -19 -1t-8 -12q1 -7 5.5 -9.5t9.5 -2.5l2 -109l-60 122q-2 3 -6.5 7t-16.5 5q-7 0 -18.5 -1t-11.5 -12q0 -3 1.5 -6.5t9.5 -4.5h6v-141q-2 -1 -9 -2t-7 -11zM226 518q0 -11 13 -11q4 0 6 2t4 5t4.5 5t7.5 2q11 0 17.5 -7t18.5 -7q23 0 35 20q8 11 3 20
q-3 5 -10 5q-5 0 -7 -2.5t-4.5 -6t-5 -6.5t-8.5 -4q-5 -1 -9.5 1t-9 4.5t-9.5 5t-11 2.5q-12 0 -22.5 -8t-12.5 -20z" />
    <glyph glyph-name="Oacute" unicode="&#xd3;" 
d="M416 749h58v-93h77l-267 -653l-267 653h76v93h59v-93h264v93zM222 387q-1 -36 16.5 -61.5t45.5 -25.5t44 27.5t16 61.5q-1 38 -15.5 67.5t-43.5 31.5q-16 1 -27.5 -8t-19.5 -23t-12 -32.5t-4 -37.5zM247 388q0 13 2.5 26.5t7 24t11.5 17.5t16 7q10 0 16.5 -7.5t11 -19
t6.5 -25t2 -24.5q0 -10 -2 -21.5t-6.5 -21t-11 -15.5t-16.5 -6q-20 0 -28.5 20.5t-8.5 44.5zM304 548q-9 8 -15 2l-25 -24q-4 -4 -3 -8t4 -6.5t7.5 -3.5t8.5 2l24 23q3 3 2.5 7.5t-3.5 7.5z" />
    <glyph glyph-name="Ocircumflex" unicode="&#xd4;" 
d="M416 749h58v-93h77l-267 -653l-267 653h76v93h59v-93h264v93zM222 387q-1 -36 16.5 -61.5t45.5 -25.5t44 27.5t16 61.5q-1 38 -15.5 67.5t-43.5 31.5q-16 1 -27.5 -8t-19.5 -23t-12 -32.5t-4 -37.5zM247 388q0 13 2.5 26.5t7 24t11.5 17.5t16 7q10 0 16.5 -7.5t11 -19
t6.5 -25t2 -24.5q0 -10 -2 -21.5t-6.5 -21t-11 -15.5t-16.5 -6q-20 0 -28.5 20.5t-8.5 44.5zM251 518q-1 -5 1.5 -7.5t6 -4t7 -0.5t4.5 4l10 22l8 -20q2 -4 6.5 -5t8.5 0t6.5 4.5t1.5 8.5l-13 25q-6 12 -18 11.5t-17 -12.5z" />
    <glyph glyph-name="Odieresis" unicode="&#xd6;" 
d="M416 749h58v-93h77l-267 -653l-267 653h76v93h59v-93h264v93zM222 387q-1 -36 16.5 -61.5t45.5 -25.5t44 27.5t16 61.5q-1 38 -15.5 67.5t-43.5 31.5q-16 1 -27.5 -8t-19.5 -23t-12 -32.5t-4 -37.5zM247 388q0 13 2.5 26.5t7 24t11.5 17.5t16 7q10 0 16.5 -7.5t11 -19
t6.5 -25t2 -24.5q0 -10 -2 -21.5t-6.5 -21t-11 -15.5t-16.5 -6q-20 0 -28.5 20.5t-8.5 44.5zM262 511q8 1 11.5 6.5t2.5 11t-6 9.5t-12 3q-8 -1 -11.5 -6.5t-2.5 -11.5t5.5 -10t12.5 -2zM307 511q8 1 11 6.5t2 11t-6 9.5t-12 3q-8 -1 -11.5 -6.5t-2.5 -11.5t6 -10t13 -2z
" />
    <glyph glyph-name="Ograve" unicode="&#xd2;" 
d="M416 749h58v-93h77l-267 -653l-267 653h76v93h59v-93h264v93zM222 387q-1 -36 16.5 -61.5t45.5 -25.5t44 27.5t16 61.5q-1 38 -15.5 67.5t-43.5 31.5q-16 1 -27.5 -8t-19.5 -23t-12 -32.5t-4 -37.5zM247 388q0 13 2.5 26.5t7 24t11.5 17.5t16 7q10 0 16.5 -7.5t11 -19
t6.5 -25t2 -24.5q0 -10 -2 -21.5t-6.5 -21t-11 -15.5t-16.5 -6q-20 0 -28.5 20.5t-8.5 44.5zM259 548q-3 -3 -3.5 -7.5t2.5 -7.5l24 -23q4 -3 8.5 -2t7.5 3.5t4 6.5t-3 8l-25 24q-6 6 -15 -2z" />
    <glyph glyph-name="Ohungarumlaut" unicode="&#x150;" 
d="M416 749h58v-93h77l-267 -653l-267 653h76v93h59v-93h264v93zM222 387q-1 -36 16.5 -61.5t45.5 -25.5t44 27.5t16 61.5q-1 38 -15.5 67.5t-43.5 31.5q-16 1 -27.5 -8t-19.5 -23t-12 -32.5t-4 -37.5zM247 388q0 13 2.5 26.5t7 24t11.5 17.5t16 7q10 0 16.5 -7.5t11 -19
t6.5 -25t2 -24.5q0 -10 -2 -21.5t-6.5 -21t-11 -15.5t-16.5 -6q-20 0 -28.5 20.5t-8.5 44.5zM285 555q-9 8 -15 2l-25 -24q-4 -4 -3 -8t4 -6.5t7.5 -3.5t8.5 2l24 23q3 3 2.5 7.5t-3.5 7.5zM324 552q-8 9 -15 2l-25 -23q-4 -4 -3 -8t4.5 -7t8 -3.5t7.5 2.5l25 23q5 7 -2 14z
" />
    <glyph glyph-name="Omacron" unicode="&#x14c;" 
d="M416 749h58v-93h77l-267 -653l-267 653h76v93h59v-93h264v93zM222 387q-1 -36 16.5 -61.5t45.5 -25.5t44 27.5t16 61.5q-1 38 -15.5 67.5t-43.5 31.5q-16 1 -27.5 -8t-19.5 -23t-12 -32.5t-4 -37.5zM247 388q0 13 2.5 26.5t7 24t11.5 17.5t16 7q10 0 16.5 -7.5t11 -19
t6.5 -25t2 -24.5q0 -10 -2 -21.5t-6.5 -21t-11 -15.5t-16.5 -6q-20 0 -28.5 20.5t-8.5 44.5zM234 516q0 -4 2.5 -7.5t7.5 -3.5q30 0 44.5 -1t25.5 1q9 1 10 12t-9 11h-71q-5 0 -7.5 -3.5t-2.5 -8.5z" />
    <glyph glyph-name="Oslashacute" unicode="&#x1fe;" 
d="M416 749h58v-93h77l-267 -653l-267 653h76v93h59v-93h264v93zM254 306q14 -11 33 -11q28 0 44 27.5t16 61.5q-1 19 -4.5 36t-11.5 31l10 18q1 3 -1 6t-6 5.5t-8 2.5t-6 -4l-4 -8q-12 11 -28 12t-27.5 -8t-19.5 -23t-12 -32.5t-4 -37.5q-1 -30 12 -55l-9 -17
q-3 -6 5.5 -12t16.5 0zM323 382q0 -10 -2 -21.5t-6.5 -21t-11 -15.5t-16.5 -6q-13 0 -22 9l52 97q3 -11 4.5 -22t1.5 -20zM250 383q0 13 2.5 26.5t7 24t11.5 17.5t16 7t17 -8l-51 -95q-3 13 -3 28zM304 548q-9 8 -15 2l-25 -24q-4 -4 -3 -8t4 -6.5t7.5 -3.5t8.5 2l24 23
q3 3 2.5 7.5t-3.5 7.5z" />
    <glyph glyph-name="Otilde" unicode="&#xd5;" 
d="M416 749h58v-93h77l-267 -653l-267 653h76v93h59v-93h264v93zM222 387q-1 -36 16.5 -61.5t45.5 -25.5t44 27.5t16 61.5q-1 38 -15.5 67.5t-43.5 31.5q-16 1 -27.5 -8t-19.5 -23t-12 -32.5t-4 -37.5zM247 388q0 13 2.5 26.5t7 24t11.5 17.5t16 7q10 0 16.5 -7.5t11 -19
t6.5 -25t2 -24.5q0 -10 -2 -21.5t-6.5 -21t-11 -15.5t-16.5 -6q-20 0 -28.5 20.5t-8.5 44.5zM226 518q0 -11 13 -11q4 0 6 2t4 5t4.5 5t7.5 2q11 0 17.5 -7t18.5 -7q23 0 35 20q8 11 3 20q-3 5 -10 5q-5 0 -7 -2.5t-4.5 -6t-5 -6.5t-8.5 -4q-5 -1 -9.5 1t-9 4.5t-9.5 5
t-11 2.5q-12 0 -22.5 -8t-12.5 -20z" />
    <glyph glyph-name="Racute" unicode="&#x154;" 
d="M416 749h58v-93h77l-267 -653l-267 653h76v93h59v-93h264v93zM295 307q2 -3 7.5 -6.5t19.5 7.5q12 9 17.5 15.5t1.5 13.5q-4 6 -10.5 6t-11.5 -4l-34 41q20 1 35.5 14.5t16.5 36.5q1 17 -6 30t-19 20t-26.5 6t-28.5 -11q0 6 -5 11q-8 4 -25 1q-1 0 -2 -0.5t-2 -0.5
q-5 -3 -4.5 -13t7.5 -10h10v-32v-39.5v-38.5t-1 -29q-7 -1 -10 -5t-3 -6q-1 -9 7 -11.5t16 -3.5q14 0 22.5 2.5t8.5 11.5q0 8 -4.5 10t-13.5 2v54l42 -55q-4 -5 -6 -8.5t1 -8.5zM257 445q7 12 17 16.5t19 2.5t15.5 -10t6.5 -21q0 -12 -7 -19t-16 -10t-18.5 -2t-16.5 4v39z
M304 548q-9 8 -15 2l-25 -24q-4 -4 -3 -8t4 -6.5t7.5 -3.5t8.5 2l24 23q3 3 2.5 7.5t-3.5 7.5z" />
    <glyph glyph-name="Rcaron" unicode="&#x158;" 
d="M416 749h58v-93h77l-267 -653l-267 653h76v93h59v-93h264v93zM295 307q2 -3 7.5 -6.5t19.5 7.5q12 9 17.5 15.5t1.5 13.5q-4 6 -10.5 6t-11.5 -4l-34 41q20 1 35.5 14.5t16.5 36.5q1 17 -6 30t-19 20t-26.5 6t-28.5 -11q0 6 -5 11q-8 4 -25 1q-1 0 -2 -0.5t-2 -0.5
q-5 -3 -4.5 -13t7.5 -10h10v-32v-39.5v-38.5t-1 -29q-7 -1 -10 -5t-3 -6q-1 -9 7 -11.5t16 -3.5q14 0 22.5 2.5t8.5 11.5q0 8 -4.5 10t-13.5 2v54l42 -55q-4 -5 -6 -8.5t1 -8.5zM257 445q7 12 17 16.5t19 2.5t15.5 -10t6.5 -21q0 -12 -7 -19t-16 -10t-18.5 -2t-16.5 4v39z
M312 544q1 4 -1.5 7t-6 4t-7 0.5t-4.5 -3.5l-10 -22l-8 20q-2 4 -6.5 5t-8.5 0t-7 -4.5t-1 -8.5l13 -26q6 -11 18 -10.5t17 12.5z" />
    <glyph glyph-name="Rcommaaccent" unicode="&#x156;" 
d="M416 749h58v-93h77l-267 -653l-267 653h76v93h59v-93h264v93zM295 307q2 -3 7.5 -6.5t19.5 7.5q12 9 17.5 15.5t1.5 13.5q-4 6 -10.5 6t-11.5 -4l-34 41q20 1 35.5 14.5t16.5 36.5q1 17 -6 30t-19 20t-26.5 6t-28.5 -11q0 6 -5 11q-8 4 -25 1q-1 0 -2 -0.5t-2 -0.5
q-5 -3 -4.5 -13t7.5 -10h10v-32v-39.5v-38.5t-1 -29q-7 -1 -10 -5t-3 -6q-1 -9 7 -11.5t16 -3.5q14 0 22.5 2.5t8.5 11.5q0 8 -4.5 10t-13.5 2v54l42 -55q-4 -5 -6 -8.5t1 -8.5zM257 445q7 12 17 16.5t19 2.5t15.5 -10t6.5 -21q0 -12 -7 -19t-16 -10t-18.5 -2t-16.5 4v39z
M286 227q6 5 10.5 20.5t-3.5 33.5q-2 3 -6 3.5t-8 -1t-6.5 -5t-1.5 -7.5q2 -5 3.5 -12t-6.5 -18q-6 -8 3 -13.5t15 -0.5z" />
    <glyph glyph-name="Sacute" unicode="&#x15a;" 
d="M416 749h58v-93h77l-267 -653l-267 653h76v93h59v-93h264v93zM234 333q8 -16 22 -24.5t29 -8.5q16 -1 27.5 6t19.5 18q8 12 10 27t-5 26q-9 15 -31.5 24t-41.5 17q-11 5 -16 16t2 22q3 6 10 8.5t14.5 1t15 -6.5t10.5 -14l-5 -4q-5 -5 1 -12.5t14 -1.5l27 26q4 3 3.5 7.5
t-3 7.5t-6 4t-6.5 -2l-6 -5q-9 15 -25 20.5t-32 2.5t-28.5 -14t-13.5 -30q-1 -17 6.5 -27t18.5 -17t24 -11.5t24 -9.5q14 -6 19.5 -19.5t-2.5 -25.5q-6 -8 -14.5 -10t-17 1t-15 9.5t-7.5 16.5q2 2 4.5 5t4.5 8q1 7 -6 11.5t-15 -2.5q-7 -5 -18.5 -14.5t-11.5 -17.5
q-1 -6 2.5 -10.5t9.5 -2.5q2 1 5 4t3 1zM304 548q-9 8 -15 2l-25 -24q-4 -4 -3 -8t4 -6.5t7.5 -3.5t8.5 2l24 23q3 3 2.5 7.5t-3.5 7.5z" />
    <glyph glyph-name="Scaron" unicode="&#x160;" 
d="M416 749h58v-93h77l-267 -653l-267 653h76v93h59v-93h264v93zM234 333q8 -16 22 -24.5t29 -8.5q16 -1 27.5 6t19.5 18q8 12 10 27t-5 26q-9 15 -31.5 24t-41.5 17q-11 5 -16 16t2 22q3 6 10 8.5t14.5 1t15 -6.5t10.5 -14l-5 -4q-5 -5 1 -12.5t14 -1.5l27 26q4 3 3.5 7.5
t-3 7.5t-6 4t-6.5 -2l-6 -5q-9 15 -25 20.5t-32 2.5t-28.5 -14t-13.5 -30q-1 -17 6.5 -27t18.5 -17t24 -11.5t24 -9.5q14 -6 19.5 -19.5t-2.5 -25.5q-6 -8 -14.5 -10t-17 1t-15 9.5t-7.5 16.5q2 2 4.5 5t4.5 8q1 7 -6 11.5t-15 -2.5q-7 -5 -18.5 -14.5t-11.5 -17.5
q-1 -6 2.5 -10.5t9.5 -2.5q2 1 5 4t3 1zM312 544q1 4 -1.5 7t-6 4t-7 0.5t-4.5 -3.5l-10 -22l-8 20q-2 4 -6.5 5t-8.5 0t-7 -4.5t-1 -8.5l13 -26q6 -11 18 -10.5t17 12.5z" />
    <glyph glyph-name="Scedilla" unicode="&#x15e;" 
d="M416 749h58v-93h77l-267 -653l-267 653h76v93h59v-93h264v93zM281 239q13 0 21 8t8.5 17.5t-5.5 18t-19 9.5v8q15 -1 26.5 6t19.5 18q8 12 10 27t-5 26q-9 15 -31.5 24t-41.5 17q-11 5 -16 16t2 22q3 6 10 8.5t14.5 1t15 -6.5t10.5 -14l-5 -4q-5 -5 1 -12.5t14 -1.5
l27 26q4 3 3.5 7.5t-3 7.5t-6 4t-6.5 -2l-6 -5q-9 15 -25 20.5t-32 2.5t-28.5 -14t-13.5 -30q-1 -17 6.5 -27t18.5 -17t24 -11.5t24 -9.5q14 -6 19.5 -19.5t-2.5 -25.5q-6 -8 -14.5 -10t-17 1t-15 9.5t-7.5 16.5q2 2 4.5 5t4.5 8q1 7 -6 11.5t-15 -2.5q-7 -5 -18.5 -14.5
t-11.5 -17.5q-1 -6 2.5 -10.5t9.5 -2.5q2 1 5 4t3 1q11 -24 36 -31q0 -18 1 -23.5t10 -4.5q6 1 9.5 -2t3.5 -7t-3.5 -7t-10.5 -2q-7 0 -7 -8.5t8 -8.5z" />
    <glyph glyph-name="Scircumflex" unicode="&#x15c;" 
d="M416 749h58v-93h77l-267 -653l-267 653h76v93h59v-93h264v93zM234 333q8 -16 22 -24.5t29 -8.5q16 -1 27.5 6t19.5 18q8 12 10 27t-5 26q-9 15 -31.5 24t-41.5 17q-11 5 -16 16t2 22q3 6 10 8.5t14.5 1t15 -6.5t10.5 -14l-5 -4q-5 -5 1 -12.5t14 -1.5l27 26q4 3 3.5 7.5
t-3 7.5t-6 4t-6.5 -2l-6 -5q-9 15 -25 20.5t-32 2.5t-28.5 -14t-13.5 -30q-1 -17 6.5 -27t18.5 -17t24 -11.5t24 -9.5q14 -6 19.5 -19.5t-2.5 -25.5q-6 -8 -14.5 -10t-17 1t-15 9.5t-7.5 16.5q2 2 4.5 5t4.5 8q1 7 -6 11.5t-15 -2.5q-7 -5 -18.5 -14.5t-11.5 -17.5
q-1 -6 2.5 -10.5t9.5 -2.5q2 1 5 4t3 1zM251 518q-1 -5 1.5 -7.5t6 -4t7 -0.5t4.5 4l10 22l8 -20q2 -4 6.5 -5t8.5 0t6.5 4.5t1.5 8.5l-13 25q-6 12 -18 11.5t-17 -12.5z" />
    <glyph glyph-name="Scommaaccent" unicode="&#x218;" 
d="M416 749h58v-93h77l-267 -653l-267 653h76v93h59v-93h264v93zM234 333q8 -16 22 -24.5t29 -8.5q16 -1 27.5 6t19.5 18q8 12 10 27t-5 26q-9 15 -31.5 24t-41.5 17q-11 5 -16 16t2 22q3 6 10 8.5t14.5 1t15 -6.5t10.5 -14l-5 -4q-5 -5 1 -12.5t14 -1.5l27 26q4 3 3.5 7.5
t-3 7.5t-6 4t-6.5 -2l-6 -5q-9 15 -25 20.5t-32 2.5t-28.5 -14t-13.5 -30q-1 -17 6.5 -27t18.5 -17t24 -11.5t24 -9.5q14 -6 19.5 -19.5t-2.5 -25.5q-6 -8 -14.5 -10t-17 1t-15 9.5t-7.5 16.5q2 2 4.5 5t4.5 8q1 7 -6 11.5t-15 -2.5q-7 -5 -18.5 -14.5t-11.5 -17.5
q-1 -6 2.5 -10.5t9.5 -2.5q2 1 5 4t3 1zM286 227q6 5 10.5 20.5t-3.5 33.5q-2 3 -6 3.5t-8 -1t-6.5 -5t-1.5 -7.5q2 -5 3.5 -12t-6.5 -18q-6 -8 3 -13.5t15 -0.5z" />
    <glyph glyph-name="Tbar" unicode="&#x166;" 
d="M416 749h58v-93h77l-267 -653l-267 653h76v93h59v-93h264v93zM234 412q0 -4 2.5 -7.5t7.5 -3.5q7 0 12 -0.5t10 -0.5v-75q-7 0 -14 -2.5t-6 -11.5q0 -6 4.5 -8.5t9.5 -2.5q13 -1 21 -0.5t14 0.5q18 0 18 14q0 8 -6 10t-15 1v75h12t10 1q9 1 10 12t-9 11h-23l1 40h21
q0 -11 4.5 -14.5t9.5 -3.5q17 0 14 25q-1 11 -6.5 14.5t-16.5 3.5h-80q-8 0 -15.5 -3t-8.5 -15q0 -25 15 -25q5 0 9.5 3.5t4.5 14.5h22v-40h-22q-5 0 -7.5 -3.5t-2.5 -8.5z" />
    <glyph glyph-name="Tcaron" unicode="&#x164;" 
d="M416 749h58v-93h77l-267 -653l-267 653h76v93h59v-93h264v93zM266 325q-7 0 -14 -2.5t-6 -11.5q0 -6 4.5 -8.5t9.5 -2.5q13 -1 21 -0.5t14 0.5q18 0 18 14q0 8 -6 10t-15 1l1 139h21q0 -11 4.5 -14.5t9.5 -3.5q17 0 14 25q-1 11 -6.5 14.5t-16.5 3.5h-80q-8 0 -15.5 -3
t-8.5 -15q0 -25 15 -25q5 0 9.5 3.5t4.5 14.5h22v-139zM312 544q1 4 -1.5 7t-6 4t-7 0.5t-4.5 -3.5l-10 -22l-8 20q-2 4 -6.5 5t-8.5 0t-7 -4.5t-1 -8.5l13 -26q6 -11 18 -10.5t17 12.5z" />
    <glyph glyph-name="Tcommaaccent" unicode="&#x162;" 
d="M416 749h58v-93h77l-267 -653l-267 653h76v93h59v-93h264v93zM266 325q-7 0 -14 -2.5t-6 -11.5q0 -6 4.5 -8.5t9.5 -2.5q13 -1 21 -0.5t14 0.5q18 0 18 14q0 8 -6 10t-15 1l1 139h21q0 -11 4.5 -14.5t9.5 -3.5q17 0 14 25q-1 11 -6.5 14.5t-16.5 3.5h-80q-8 0 -15.5 -3
t-8.5 -15q0 -25 15 -25q5 0 9.5 3.5t4.5 14.5h22v-139zM286 227q6 5 10.5 20.5t-3.5 33.5q-2 3 -6 3.5t-8 -1t-6.5 -5t-1.5 -7.5q2 -5 3.5 -12t-6.5 -18q-6 -8 3 -13.5t15 -0.5z" />
    <glyph glyph-name="Uacute" unicode="&#xda;" 
d="M416 749h58v-93h77l-267 -653l-267 653h76v93h59v-93h264v93zM331 464q14 2 14 13q0 9 -8.5 11t-17.5 2q-12 0 -19.5 -2.5t-7.5 -10.5q0 -7 5 -10t11 -2v-49t-2.5 -45t-9.5 -33t-20 -13q-11 0 -16.5 13t-8 33t-2.5 44t1 47q2 2 8.5 2.5t6.5 11.5q0 7 -5 10t-10 3
q-3 0 -14.5 -0.5t-14.5 -0.5q-11 -2 -11 -12q0 -11 4 -11.5t10 -2.5q1 -31 1 -60.5t4.5 -52t15.5 -36t33 -13.5q24 0 35 19t15 45t3.5 54t-0.5 46zM304 548q-9 8 -15 2l-25 -24q-4 -4 -3 -8t4 -6.5t7.5 -3.5t8.5 2l24 23q3 3 2.5 7.5t-3.5 7.5z" />
    <glyph glyph-name="Ubreve" unicode="&#x16c;" 
d="M416 749h58v-93h77l-267 -653l-267 653h76v93h59v-93h264v93zM331 464q14 2 14 13q0 9 -8.5 11t-17.5 2q-12 0 -19.5 -2.5t-7.5 -10.5q0 -7 5 -10t11 -2v-49t-2.5 -45t-9.5 -33t-20 -13q-11 0 -16.5 13t-8 33t-2.5 44t1 47q2 2 8.5 2.5t6.5 11.5q0 7 -5 10t-10 3
q-3 0 -14.5 -0.5t-14.5 -0.5q-11 -2 -11 -12q0 -11 4 -11.5t10 -2.5q1 -31 1 -60.5t4.5 -52t15.5 -36t33 -13.5q24 0 35 19t15 45t3.5 54t-0.5 46zM242 537q2 -14 12.5 -21.5t24.5 -7.5q12 1 24 7t16 22q1 4 -1.5 7t-6 3.5t-7 -1t-4.5 -5.5q-2 -9 -8.5 -12t-13.5 -3
q-13 0 -17 13q-2 7 -11 6t-8 -8z" />
    <glyph glyph-name="Ucircumflex" unicode="&#xdb;" 
d="M416 749h58v-93h77l-267 -653l-267 653h76v93h59v-93h264v93zM331 464q14 2 14 13q0 9 -8.5 11t-17.5 2q-12 0 -19.5 -2.5t-7.5 -10.5q0 -7 5 -10t11 -2v-49t-2.5 -45t-9.5 -33t-20 -13q-11 0 -16.5 13t-8 33t-2.5 44t1 47q2 2 8.5 2.5t6.5 11.5q0 7 -5 10t-10 3
q-3 0 -14.5 -0.5t-14.5 -0.5q-11 -2 -11 -12q0 -11 4 -11.5t10 -2.5q1 -31 1 -60.5t4.5 -52t15.5 -36t33 -13.5q24 0 35 19t15 45t3.5 54t-0.5 46zM251 518q-1 -5 1.5 -7.5t6 -4t7 -0.5t4.5 4l10 22l8 -20q2 -4 6.5 -5t8.5 0t6.5 4.5t1.5 8.5l-13 25q-6 12 -18 11.5
t-17 -12.5z" />
    <glyph glyph-name="Udieresis" unicode="&#xdc;" 
d="M416 749h58v-93h77l-267 -653l-267 653h76v93h59v-93h264v93zM331 464q14 2 14 13q0 9 -8.5 11t-17.5 2q-12 0 -19.5 -2.5t-7.5 -10.5q0 -7 5 -10t11 -2v-49t-2.5 -45t-9.5 -33t-20 -13q-11 0 -16.5 13t-8 33t-2.5 44t1 47q2 2 8.5 2.5t6.5 11.5q0 7 -5 10t-10 3
q-3 0 -14.5 -0.5t-14.5 -0.5q-11 -2 -11 -12q0 -11 4 -11.5t10 -2.5q1 -31 1 -60.5t4.5 -52t15.5 -36t33 -13.5q24 0 35 19t15 45t3.5 54t-0.5 46zM262 511q8 1 11.5 6.5t2.5 11t-6 9.5t-12 3q-8 -1 -11.5 -6.5t-2.5 -11.5t5.5 -10t12.5 -2zM307 511q8 1 11 6.5t2 11t-6 9.5
t-12 3q-8 -1 -11.5 -6.5t-2.5 -11.5t6 -10t13 -2z" />
    <glyph glyph-name="Ugrave" unicode="&#xd9;" 
d="M416 749h58v-93h77l-267 -653l-267 653h76v93h59v-93h264v93zM331 464q14 2 14 13q0 9 -8.5 11t-17.5 2q-12 0 -19.5 -2.5t-7.5 -10.5q0 -7 5 -10t11 -2v-49t-2.5 -45t-9.5 -33t-20 -13q-11 0 -16.5 13t-8 33t-2.5 44t1 47q2 2 8.5 2.5t6.5 11.5q0 7 -5 10t-10 3
q-3 0 -14.5 -0.5t-14.5 -0.5q-11 -2 -11 -12q0 -11 4 -11.5t10 -2.5q1 -31 1 -60.5t4.5 -52t15.5 -36t33 -13.5q24 0 35 19t15 45t3.5 54t-0.5 46zM259 548q-3 -3 -3.5 -7.5t2.5 -7.5l24 -23q4 -3 8.5 -2t7.5 3.5t4 6.5t-3 8l-25 24q-6 6 -15 -2z" />
    <glyph glyph-name="Uhungarumlaut" unicode="&#x170;" 
d="M416 749h58v-93h77l-267 -653l-267 653h76v93h59v-93h264v93zM331 464q14 2 14 13q0 9 -8.5 11t-17.5 2q-12 0 -19.5 -2.5t-7.5 -10.5q0 -7 5 -10t11 -2v-49t-2.5 -45t-9.5 -33t-20 -13q-11 0 -16.5 13t-8 33t-2.5 44t1 47q2 2 8.5 2.5t6.5 11.5q0 7 -5 10t-10 3
q-3 0 -14.5 -0.5t-14.5 -0.5q-11 -2 -11 -12q0 -11 4 -11.5t10 -2.5q1 -31 1 -60.5t4.5 -52t15.5 -36t33 -13.5q24 0 35 19t15 45t3.5 54t-0.5 46zM285 555q-9 8 -15 2l-25 -24q-4 -4 -3 -8t4 -6.5t7.5 -3.5t8.5 2l24 23q3 3 2.5 7.5t-3.5 7.5zM324 552q-8 9 -15 2l-25 -23
q-4 -4 -3 -8t4.5 -7t8 -3.5t7.5 2.5l25 23q5 7 -2 14z" />
    <glyph glyph-name="Umacron" unicode="&#x16a;" 
d="M416 749h58v-93h77l-267 -653l-267 653h76v93h59v-93h264v93zM331 464q14 2 14 13q0 9 -8.5 11t-17.5 2q-12 0 -19.5 -2.5t-7.5 -10.5q0 -7 5 -10t11 -2v-49t-2.5 -45t-9.5 -33t-20 -13q-11 0 -16.5 13t-8 33t-2.5 44t1 47q2 2 8.5 2.5t6.5 11.5q0 7 -5 10t-10 3
q-3 0 -14.5 -0.5t-14.5 -0.5q-11 -2 -11 -12q0 -11 4 -11.5t10 -2.5q1 -31 1 -60.5t4.5 -52t15.5 -36t33 -13.5q24 0 35 19t15 45t3.5 54t-0.5 46zM234 516q0 -4 2.5 -7.5t7.5 -3.5q30 0 44.5 -1t25.5 1q9 1 10 12t-9 11h-71q-5 0 -7.5 -3.5t-2.5 -8.5z" />
    <glyph glyph-name="Uogonek" unicode="&#x172;" 
d="M416 749h58v-93h77l-267 -653l-267 653h76v93h59v-93h264v93zM331 464q14 2 14 13q0 9 -8.5 11t-17.5 2q-12 0 -19.5 -2.5t-7.5 -10.5q0 -7 5 -10t11 -2v-49t-2.5 -45t-9.5 -33t-20 -13q-11 0 -16.5 13t-8 33t-2.5 44t1 47q2 2 8.5 2.5t6.5 11.5q0 7 -5 10t-10 3
q-3 0 -14.5 -0.5t-14.5 -0.5q-11 -2 -11 -12q0 -11 4 -11.5t10 -2.5q0 -26 0.5 -51t3 -46t8.5 -36.5t18 -22.5q-7 -14 -3.5 -27t14.5 -19q8 -4 13 4t-1 11q-7 3 -8 10.5t3 14.5h6q24 0 35 19t15 45t3.5 54t-0.5 46z" />
    <glyph glyph-name="Uring" unicode="&#x16e;" 
d="M416 749h58v-93h77l-267 -653l-267 653h76v93h59v-93h264v93zM331 464q14 2 14 13q0 9 -8.5 11t-17.5 2q-12 0 -19.5 -2.5t-7.5 -10.5q0 -7 5 -10t11 -2v-49t-2.5 -45t-9.5 -33t-20 -13q-11 0 -16.5 13t-8 33t-2.5 44t1 47q2 2 8.5 2.5t6.5 11.5q0 7 -5 10t-10 3
q-3 0 -14.5 -0.5t-14.5 -0.5q-11 -2 -11 -12q0 -11 4 -11.5t10 -2.5q1 -31 1 -60.5t4.5 -52t15.5 -36t33 -13.5q24 0 35 19t15 45t3.5 54t-0.5 46zM253 533q0 -14 9 -20t20 -6t20 6.5t9 19.5t-9 20t-19.5 7t-20 -7t-9.5 -20zM290 533q0 -5 -8.5 -5.5t-8.5 5.5q1 8 9.5 7
t7.5 -7z" />
    <glyph glyph-name="Utilde" unicode="&#x168;" 
d="M416 749h58v-93h77l-267 -653l-267 653h76v93h59v-93h264v93zM331 464q14 2 14 13q0 9 -8.5 11t-17.5 2q-12 0 -19.5 -2.5t-7.5 -10.5q0 -7 5 -10t11 -2v-49t-2.5 -45t-9.5 -33t-20 -13q-11 0 -16.5 13t-8 33t-2.5 44t1 47q2 2 8.5 2.5t6.5 11.5q0 7 -5 10t-10 3
q-3 0 -14.5 -0.5t-14.5 -0.5q-11 -2 -11 -12q0 -11 4 -11.5t10 -2.5q1 -31 1 -60.5t4.5 -52t15.5 -36t33 -13.5q24 0 35 19t15 45t3.5 54t-0.5 46zM226 518q0 -11 13 -11q4 0 6 2t4 5t4.5 5t7.5 2q11 0 17.5 -7t18.5 -7q23 0 35 20q8 11 3 20q-3 5 -10 5q-5 0 -7 -2.5
t-4.5 -6t-5 -6.5t-8.5 -4q-5 -1 -9.5 1t-9 4.5t-9.5 5t-11 2.5q-12 0 -22.5 -8t-12.5 -20z" />
    <glyph glyph-name="Wacute" unicode="&#x1e82;" 
d="M416 749h58v-93h77l-267 -653l-267 653h76v93h59v-93h264v93zM357 309q-1 9 -5 10.5t-6 2.5l32 137q2 0 4.5 -1t4.5 -1q8 1 8 10q-1 8 -8.5 12t-12.5 6q-7 5 -14 4q-9 0 -9 -11q1 -5 6 -10l-30 -123l-22 98q-3 6 -14.5 8.5t-16.5 -8.5l-26 -96l-39 120q3 2 4 3.5t2 6.5
q0 4 -2.5 7.5t-6.5 3.5q-6 0 -14 -4q-5 -3 -11.5 -6.5t-7.5 -10.5q0 -10 7 -10q2 -1 3.5 -0.5t3.5 0.5l45 -135q-2 -1 -6 -2t-5 -10q0 -5 3.5 -8t8.5 -3q14 1 28 1.5t15 9.5q1 6 -2 8.5t-8 4.5l24 90l20 -92q-10 -2 -10 -12q0 -5 4.5 -7.5t10.5 -2.5h29q5 0 9 2.5t4 7.5z
M304 548q-9 8 -15 2l-25 -24q-4 -4 -3 -8t4 -6.5t7.5 -3.5t8.5 2l24 23q3 3 2.5 7.5t-3.5 7.5z" />
    <glyph glyph-name="Wcircumflex" unicode="&#x174;" 
d="M416 749h58v-93h77l-267 -653l-267 653h76v93h59v-93h264v93zM357 309q-1 9 -5 10.5t-6 2.5l32 137q2 0 4.5 -1t4.5 -1q8 1 8 10q-1 8 -8.5 12t-12.5 6q-7 5 -14 4q-9 0 -9 -11q1 -5 6 -10l-30 -123l-22 98q-3 6 -14.5 8.5t-16.5 -8.5l-26 -96l-39 120q3 2 4 3.5t2 6.5
q0 4 -2.5 7.5t-6.5 3.5q-6 0 -14 -4q-5 -3 -11.5 -6.5t-7.5 -10.5q0 -10 7 -10q2 -1 3.5 -0.5t3.5 0.5l45 -135q-2 -1 -6 -2t-5 -10q0 -5 3.5 -8t8.5 -3q14 1 28 1.5t15 9.5q1 6 -2 8.5t-8 4.5l24 90l20 -92q-10 -2 -10 -12q0 -5 4.5 -7.5t10.5 -2.5h29q5 0 9 2.5t4 7.5z
M251 518q-1 -5 1.5 -7.5t6 -4t7 -0.5t4.5 4l10 22l8 -20q2 -4 6.5 -5t8.5 0t6.5 4.5t1.5 8.5l-13 25q-6 12 -18 11.5t-17 -12.5z" />
    <glyph glyph-name="Wgrave" unicode="&#x1e80;" 
d="M416 749h58v-93h77l-267 -653l-267 653h76v93h59v-93h264v93zM357 309q-1 9 -5 10.5t-6 2.5l32 137q2 0 4.5 -1t4.5 -1q8 1 8 10q-1 8 -8.5 12t-12.5 6q-7 5 -14 4q-9 0 -9 -11q1 -5 6 -10l-30 -123l-22 98q-3 6 -14.5 8.5t-16.5 -8.5l-26 -96l-39 120q3 2 4 3.5t2 6.5
q0 4 -2.5 7.5t-6.5 3.5q-6 0 -14 -4q-5 -3 -11.5 -6.5t-7.5 -10.5q0 -10 7 -10q2 -1 3.5 -0.5t3.5 0.5l45 -135q-2 -1 -6 -2t-5 -10q0 -5 3.5 -8t8.5 -3q14 1 28 1.5t15 9.5q1 6 -2 8.5t-8 4.5l24 90l20 -92q-10 -2 -10 -12q0 -5 4.5 -7.5t10.5 -2.5h29q5 0 9 2.5t4 7.5z
M259 548q-3 -3 -3.5 -7.5t2.5 -7.5l24 -23q4 -3 8.5 -2t7.5 3.5t4 6.5t-3 8l-25 24q-6 6 -15 -2z" />
    <glyph glyph-name="Wdieresis" unicode="&#x1e84;" 
d="M416 749h58v-93h77l-267 -653l-267 653h76v93h59v-93h264v93zM357 309q-1 9 -5 10.5t-6 2.5l32 137q2 0 4.5 -1t4.5 -1q8 1 8 10q-1 8 -8.5 12t-12.5 6q-7 5 -14 4q-9 0 -9 -11q1 -5 6 -10l-30 -123l-22 98q-3 6 -14.5 8.5t-16.5 -8.5l-26 -96l-39 120q3 2 4 3.5t2 6.5
q0 4 -2.5 7.5t-6.5 3.5q-6 0 -14 -4q-5 -3 -11.5 -6.5t-7.5 -10.5q0 -10 7 -10q2 -1 3.5 -0.5t3.5 0.5l45 -135q-2 -1 -6 -2t-5 -10q0 -5 3.5 -8t8.5 -3q14 1 28 1.5t15 9.5q1 6 -2 8.5t-8 4.5l24 90l20 -92q-10 -2 -10 -12q0 -5 4.5 -7.5t10.5 -2.5h29q5 0 9 2.5t4 7.5z
M262 511q8 1 11.5 6.5t2.5 11t-6 9.5t-12 3q-8 -1 -11.5 -6.5t-2.5 -11.5t5.5 -10t12.5 -2zM307 511q8 1 11 6.5t2 11t-6 9.5t-12 3q-8 -1 -11.5 -6.5t-2.5 -11.5t6 -10t13 -2z" />
    <glyph glyph-name="Yacute" unicode="&#xdd;" 
d="M416 749h58v-93h77l-267 -653l-267 653h76v93h59v-93h264v93zM297 384l32 78q5 -2 9 -1t6 8q1 4 -2.5 8t-9.5 7t-12.5 4.5t-10.5 1.5q-5 0 -8 -2.5t-1 -7.5q1 -5 3 -7t2 -3v-1l-23 -57q0 1 -3.5 7.5t-8.5 15t-10.5 17.5t-8.5 15q3 3 4.5 7.5t-1.5 8.5q-4 6 -9 5
q-7 1 -13 -3q-5 -3 -13 -8t-8 -13q0 -2 1 -3q2 -5 6 -6t9 1q14 -21 24.5 -39t19.5 -33v-59q-16 0 -16 -14q0 -5 4.5 -8t9.5 -4q13 0 17.5 0.5t10.5 0.5q8 0 13.5 4t4.5 9q-2 7 -5.5 10t-12.5 2v59zM304 548q-9 8 -15 2l-25 -24q-4 -4 -3 -8t4 -6.5t7.5 -3.5t8.5 2l24 23
q3 3 2.5 7.5t-3.5 7.5z" />
    <glyph glyph-name="Ycircumflex" unicode="&#x176;" 
d="M416 749h58v-93h77l-267 -653l-267 653h76v93h59v-93h264v93zM297 384l32 78q5 -2 9 -1t6 8q1 4 -2.5 8t-9.5 7t-12.5 4.5t-10.5 1.5q-5 0 -8 -2.5t-1 -7.5q1 -5 3 -7t2 -3v-1l-23 -57q0 1 -3.5 7.5t-8.5 15t-10.5 17.5t-8.5 15q3 3 4.5 7.5t-1.5 8.5q-4 6 -9 5
q-7 1 -13 -3q-5 -3 -13 -8t-8 -13q0 -2 1 -3q2 -5 6 -6t9 1q14 -21 24.5 -39t19.5 -33v-59q-16 0 -16 -14q0 -5 4.5 -8t9.5 -4q13 0 17.5 0.5t10.5 0.5q8 0 13.5 4t4.5 9q-2 7 -5.5 10t-12.5 2v59zM251 518q-1 -5 1.5 -7.5t6 -4t7 -0.5t4.5 4l10 22l8 -20q2 -4 6.5 -5t8.5 0
t6.5 4.5t1.5 8.5l-13 25q-6 12 -18 11.5t-17 -12.5z" />
    <glyph glyph-name="Ydieresis" unicode="&#x178;" 
d="M416 749h58v-93h77l-267 -653l-267 653h76v93h59v-93h264v93zM297 384l32 78q5 -2 9 -1t6 8q1 4 -2.5 8t-9.5 7t-12.5 4.5t-10.5 1.5q-5 0 -8 -2.5t-1 -7.5q1 -5 3 -7t2 -3v-1l-23 -57q0 1 -3.5 7.5t-8.5 15t-10.5 17.5t-8.5 15q3 3 4.5 7.5t-1.5 8.5q-4 6 -9 5
q-7 1 -13 -3q-5 -3 -13 -8t-8 -13q0 -2 1 -3q2 -5 6 -6t9 1q14 -21 24.5 -39t19.5 -33v-59q-16 0 -16 -14q0 -5 4.5 -8t9.5 -4q13 0 17.5 0.5t10.5 0.5q8 0 13.5 4t4.5 9q-2 7 -5.5 10t-12.5 2v59zM262 511q8 1 11.5 6.5t2.5 11t-6 9.5t-12 3q-8 -1 -11.5 -6.5t-2.5 -11.5
t5.5 -10t12.5 -2zM307 511q8 1 11 6.5t2 11t-6 9.5t-12 3q-8 -1 -11.5 -6.5t-2.5 -11.5t6 -10t13 -2z" />
    <glyph glyph-name="Ygrave" unicode="&#x1ef2;" 
d="M416 749h58v-93h77l-267 -653l-267 653h76v93h59v-93h264v93zM297 384l32 78q5 -2 9 -1t6 8q1 4 -2.5 8t-9.5 7t-12.5 4.5t-10.5 1.5q-5 0 -8 -2.5t-1 -7.5q1 -5 3 -7t2 -3v-1l-23 -57q0 1 -3.5 7.5t-8.5 15t-10.5 17.5t-8.5 15q3 3 4.5 7.5t-1.5 8.5q-4 6 -9 5
q-7 1 -13 -3q-5 -3 -13 -8t-8 -13q0 -2 1 -3q2 -5 6 -6t9 1q14 -21 24.5 -39t19.5 -33v-59q-16 0 -16 -14q0 -5 4.5 -8t9.5 -4q13 0 17.5 0.5t10.5 0.5q8 0 13.5 4t4.5 9q-2 7 -5.5 10t-12.5 2v59zM259 548q-3 -3 -3.5 -7.5t2.5 -7.5l24 -23q4 -3 8.5 -2t7.5 3.5t4 6.5t-3 8
l-25 24q-6 6 -15 -2z" />
    <glyph glyph-name="Zacute" unicode="&#x179;" 
d="M416 749h58v-93h77l-267 -653l-267 653h76v93h59v-93h264v93zM329 303q1 -5 3 -8t10 -2q10 1 10 23q2 29 -13 27q-10 2 -10 -15l-81 -1l98 130q8 11 5.5 21.5t-17.5 9.5h-22t-27 -0.5t-27 -0.5h-22q0 3 -1.5 6.5t-6.5 4.5q-11 0 -12.5 -10.5t-1.5 -18.5q0 -5 2.5 -12
t10.5 -7q8 1 9 6.5t2 5.5l79 1l-97 -134q-3 -3 -4 -7.5t-0.5 -9t4.5 -7.5t12 -3zM304 548q-9 8 -15 2l-25 -24q-4 -4 -3 -8t4 -6.5t7.5 -3.5t8.5 2l24 23q3 3 2.5 7.5t-3.5 7.5z" />
    <glyph glyph-name="Zcaron" unicode="&#x17d;" 
d="M416 749h58v-93h77l-267 -653l-267 653h76v93h59v-93h264v93zM329 303q1 -5 3 -8t10 -2q10 1 10 23q2 29 -13 27q-10 2 -10 -15l-81 -1l98 130q8 11 5.5 21.5t-17.5 9.5h-22t-27 -0.5t-27 -0.5h-22q0 3 -1.5 6.5t-6.5 4.5q-11 0 -12.5 -10.5t-1.5 -18.5q0 -5 2.5 -12
t10.5 -7q8 1 9 6.5t2 5.5l79 1l-97 -134q-3 -3 -4 -7.5t-0.5 -9t4.5 -7.5t12 -3zM312 544q1 4 -1.5 7t-6 4t-7 0.5t-4.5 -3.5l-10 -22l-8 20q-2 4 -6.5 5t-8.5 0t-7 -4.5t-1 -8.5l13 -26q6 -11 18 -10.5t17 12.5z" />
    <glyph glyph-name="Zdotaccent" unicode="&#x17b;" 
d="M416 749h58v-93h77l-267 -653l-267 653h76v93h59v-93h264v93zM329 303q1 -5 3 -8t10 -2q10 1 10 23q2 29 -13 27q-10 2 -10 -15l-81 -1l98 130q8 11 5.5 21.5t-17.5 9.5h-22t-27 -0.5t-27 -0.5h-22q0 3 -1.5 6.5t-6.5 4.5q-11 0 -12.5 -10.5t-1.5 -18.5q0 -5 2.5 -12
t10.5 -7q8 1 9 6.5t2 5.5l79 1l-97 -134q-3 -3 -4 -7.5t-0.5 -9t4.5 -7.5t12 -3zM284 508q8 1 11.5 6.5t2.5 11t-6 9.5t-12 3q-8 -1 -11.5 -6.5t-2.5 -11t5.5 -10t12.5 -2.5z" />
    <glyph glyph-name="aacute" unicode="&#xe1;" 
d="M416 749h58v-93h77l-267 -578l-267 578h76v93h59v-93h264v93zM249 553q0 -9 5 -10t7 -2q-3 -9 -10 -28.5t-14.5 -41.5t-14 -42t-9.5 -29q-6 2 -10 -3t-2 -11t10 -7.5t13 -2.5q3 -1 6.5 -1.5t7.5 1.5q10 4 7 14q-1 5 -7 7q1 5 4.5 15.5t8.5 24.5q24 -3 56 0l14 -40
q0 -1 -2 -3.5t-2 -6.5q0 -10 10 -12q8 -1 20.5 2.5t11.5 14.5q-2 8 -6.5 9t-8.5 0l-48 140q4 1 7 4.5t2 8.5q-1 6 -5.5 8t-9.5 2h-30q-11 0 -11 -11zM300 459q-11 -1 -21.5 -1.5t-21.5 1.5q8 23 15 42t7 20zM304 623q-9 8 -15 2l-25 -24q-4 -4 -3 -8t4 -6.5t7.5 -3.5t8.5 2
l24 23q3 3 2.5 7.5t-3.5 7.5z" />
    <glyph glyph-name="abreve" unicode="&#x103;" 
d="M416 749h58v-93h77l-267 -578l-267 578h76v93h59v-93h264v93zM249 553q0 -9 5 -10t7 -2q-3 -9 -10 -28.5t-14.5 -41.5t-14 -42t-9.5 -29q-6 2 -10 -3t-2 -11t10 -7.5t13 -2.5q3 -1 6.5 -1.5t7.5 1.5q10 4 7 14q-1 5 -7 7q1 5 4.5 15.5t8.5 24.5q24 -3 56 0l14 -40
q0 -1 -2 -3.5t-2 -6.5q0 -10 10 -12q8 -1 20.5 2.5t11.5 14.5q-2 8 -6.5 9t-8.5 0l-48 140q4 1 7 4.5t2 8.5q-1 6 -5.5 8t-9.5 2h-30q-11 0 -11 -11zM300 459q-11 -1 -21.5 -1.5t-21.5 1.5q8 23 15 42t7 20zM242 612q2 -14 12.5 -21.5t24.5 -7.5q12 1 24 7t16 22q1 4 -1.5 7
t-6 3.5t-7 -1t-4.5 -5.5q-2 -9 -8.5 -12t-13.5 -3q-13 0 -17 13q-2 7 -11 6t-8 -8z" />
    <glyph glyph-name="acircumflex" unicode="&#xe2;" 
d="M416 749h58v-93h77l-267 -578l-267 578h76v93h59v-93h264v93zM249 553q0 -9 5 -10t7 -2q-3 -9 -10 -28.5t-14.5 -41.5t-14 -42t-9.5 -29q-6 2 -10 -3t-2 -11t10 -7.5t13 -2.5q3 -1 6.5 -1.5t7.5 1.5q10 4 7 14q-1 5 -7 7q1 5 4.5 15.5t8.5 24.5q24 -3 56 0l14 -40
q0 -1 -2 -3.5t-2 -6.5q0 -10 10 -12q8 -1 20.5 2.5t11.5 14.5q-2 8 -6.5 9t-8.5 0l-48 140q4 1 7 4.5t2 8.5q-1 6 -5.5 8t-9.5 2h-30q-11 0 -11 -11zM300 459q-11 -1 -21.5 -1.5t-21.5 1.5q8 23 15 42t7 20zM251 593q-1 -5 1.5 -7.5t6 -4t7 -0.5t4.5 4l10 22l8 -20
q2 -4 6.5 -5t8.5 0t6.5 4.5t1.5 8.5l-13 25q-6 12 -18 11.5t-17 -12.5z" />
    <glyph glyph-name="adieresis" unicode="&#xe4;" 
d="M416 749h58v-93h77l-267 -578l-267 578h76v93h59v-93h264v93zM249 553q0 -9 5 -10t7 -2q-3 -9 -10 -28.5t-14.5 -41.5t-14 -42t-9.5 -29q-6 2 -10 -3t-2 -11t10 -7.5t13 -2.5q3 -1 6.5 -1.5t7.5 1.5q10 4 7 14q-1 5 -7 7q1 5 4.5 15.5t8.5 24.5q24 -3 56 0l14 -40
q0 -1 -2 -3.5t-2 -6.5q0 -10 10 -12q8 -1 20.5 2.5t11.5 14.5q-2 8 -6.5 9t-8.5 0l-48 140q4 1 7 4.5t2 8.5q-1 6 -5.5 8t-9.5 2h-30q-11 0 -11 -11zM300 459q-11 -1 -21.5 -1.5t-21.5 1.5q8 23 15 42t7 20zM259 623q-3 -3 -3.5 -7.5t2.5 -7.5l24 -23q4 -3 8.5 -2t7.5 3.5
t4 6.5t-3 8l-25 24q-6 6 -15 -2z" />
    <glyph glyph-name="agrave" unicode="&#xe0;" 
d="M416 749h58v-93h77l-267 -578l-267 578h76v93h59v-93h264v93zM249 553q0 -9 5 -10t7 -2q-3 -9 -10 -28.5t-14.5 -41.5t-14 -42t-9.5 -29q-6 2 -10 -3t-2 -11t10 -7.5t13 -2.5q3 -1 6.5 -1.5t7.5 1.5q10 4 7 14q-1 5 -7 7q1 5 4.5 15.5t8.5 24.5q24 -3 56 0l14 -40
q0 -1 -2 -3.5t-2 -6.5q0 -10 10 -12q8 -1 20.5 2.5t11.5 14.5q-2 8 -6.5 9t-8.5 0l-48 140q4 1 7 4.5t2 8.5q-1 6 -5.5 8t-9.5 2h-30q-11 0 -11 -11zM300 459q-11 -1 -21.5 -1.5t-21.5 1.5q8 23 15 42t7 20zM262 586q8 1 11.5 6.5t2.5 11t-6 9.5t-12 3q-8 -1 -11.5 -6.5
t-2.5 -11.5t5.5 -10t12.5 -2zM307 586q8 1 11 6.5t2 11t-6 9.5t-12 3q-8 -1 -11.5 -6.5t-2.5 -11.5t6 -10t13 -2z" />
    <glyph glyph-name="amacron" unicode="&#x101;" 
d="M416 749h58v-93h77l-267 -578l-267 578h76v93h59v-93h264v93zM249 553q0 -9 5 -10t7 -2q-3 -9 -10 -28.5t-14.5 -41.5t-14 -42t-9.5 -29q-6 2 -10 -3t-2 -11t10 -7.5t13 -2.5q3 -1 6.5 -1.5t7.5 1.5q10 4 7 14q-1 5 -7 7q1 5 4.5 15.5t8.5 24.5q24 -3 56 0l14 -40
q0 -1 -2 -3.5t-2 -6.5q0 -10 10 -12q8 -1 20.5 2.5t11.5 14.5q-2 8 -6.5 9t-8.5 0l-48 140q4 1 7 4.5t2 8.5q-1 6 -5.5 8t-9.5 2h-30q-11 0 -11 -11zM300 459q-11 -1 -21.5 -1.5t-21.5 1.5q8 23 15 42t7 20zM234 591q0 -4 2.5 -7.5t7.5 -3.5q30 0 44.5 -1t25.5 1q9 1 10 12
t-9 11h-71q-5 0 -7.5 -3.5t-2.5 -8.5z" />
    <glyph glyph-name="aogonek" unicode="&#x105;" 
d="M416 749h58v-93h77l-267 -578l-267 578h76v93h59v-93h264v93zM249 553q0 -9 5 -10t7 -2q-3 -9 -10 -28.5t-14.5 -41.5t-14 -42t-9.5 -29q-6 2 -10 -3t-2 -11t10 -7.5t13 -2.5q3 -1 6.5 -1.5t7.5 1.5q10 4 7 14q-1 5 -7 7q1 5 4.5 15.5t8.5 24.5q24 -3 56 0l14 -40
q0 -1 -2 -3.5t-2 -6.5v-1q-10 -14 -6.5 -28.5t14.5 -21.5q8 -4 13 4t-1 11q-7 3 -8 10t2 14q9 0 19 3t9 14q-2 8 -6.5 9t-8.5 0l-48 140q4 1 7 4.5t2 8.5q-1 6 -5.5 8t-9.5 2h-30q-11 0 -11 -11zM300 459q-11 -1 -21.5 -1.5t-21.5 1.5q8 23 15 42t7 20z" />
    <glyph glyph-name="aring" unicode="&#xe5;" 
d="M416 749h58v-93h77l-267 -578l-267 578h76v93h59v-93h264v93zM249 553q0 -9 5 -10t7 -2q-3 -9 -10 -28.5t-14.5 -41.5t-14 -42t-9.5 -29q-6 2 -10 -3t-2 -11t10 -7.5t13 -2.5q3 -1 6.5 -1.5t7.5 1.5q10 4 7 14q-1 5 -7 7q1 5 4.5 15.5t8.5 24.5q24 -3 56 0l14 -40
q0 -1 -2 -3.5t-2 -6.5q0 -10 10 -12q8 -1 20.5 2.5t11.5 14.5q-2 8 -6.5 9t-8.5 0l-48 140q4 1 7 4.5t2 8.5q-1 6 -5.5 8t-9.5 2h-30q-11 0 -11 -11zM300 459q-11 -1 -21.5 -1.5t-21.5 1.5q8 23 15 42t7 20zM253 608q0 -14 9 -20t20 -6t20 6.5t9 19.5t-9 20t-19.5 7t-20 -7
t-9.5 -20zM290 608q0 -5 -8.5 -5.5t-8.5 5.5q1 8 9.5 7t7.5 -7z" />
    <glyph glyph-name="atilde" unicode="&#xe3;" 
d="M416 749h58v-93h77l-267 -578l-267 578h76v93h59v-93h264v93zM249 553q0 -9 5 -10t7 -2q-3 -9 -10 -28.5t-14.5 -41.5t-14 -42t-9.5 -29q-6 2 -10 -3t-2 -11t10 -7.5t13 -2.5q3 -1 6.5 -1.5t7.5 1.5q10 4 7 14q-1 5 -7 7q1 5 4.5 15.5t8.5 24.5q24 -3 56 0l14 -40
q0 -1 -2 -3.5t-2 -6.5q0 -10 10 -12q8 -1 20.5 2.5t11.5 14.5q-2 8 -6.5 9t-8.5 0l-48 140q4 1 7 4.5t2 8.5q-1 6 -5.5 8t-9.5 2h-30q-11 0 -11 -11zM300 459q-11 -1 -21.5 -1.5t-21.5 1.5q8 23 15 42t7 20zM228 594q0 -11 13 -11q4 0 6 2t4 5t4.5 5t7.5 2q11 0 17.5 -7
t18.5 -7q23 0 35 20q8 11 3 20q-3 5 -10 5q-5 0 -7 -2.5t-4.5 -6t-5 -6.5t-8.5 -4q-5 -1 -9.5 1t-9 4.5t-9.5 5t-11 2.5q-12 0 -22.5 -8t-12.5 -20z" />
    <glyph glyph-name="aeacute" unicode="&#x1fd;" 
d="M416 749h58v-93h77l-267 -578l-267 578h76v93h59v-93h264v93zM258 387q0 -7 4.5 -9t10.5 -2q1 0 4 -0.5t11.5 -0.5h25.5t48 2q11 1 12.5 6t1.5 13q-1 8 -1.5 18.5t-11.5 10.5q-6 0 -10.5 -3t-4.5 -11v-7q0 -2 -6 -3t-14.5 -1t-15.5 0.5t-8 0.5q-1 8 -2 25t-1 36
q20 0 30.5 0.5t12.5 0.5q10 2 9 13t-10 11q-2 0 -12 -0.5t-30 -0.5q-1 17 -0.5 33.5t0.5 23.5q2 0 9 0.5t15 0.5t14 -1t6 -3q1 -8 3.5 -13t11.5 -5q11 0 11.5 8t1.5 16q0 8 -1.5 12.5t-12.5 5.5q-31 2 -55 3t-47 -1q-11 -2 -12 -12q0 -9 4.5 -9.5t6.5 -1.5q-3 -9 -11.5 -29
t-17.5 -42.5t-17.5 -42.5t-11.5 -29q-5 2 -10 -3t-3 -11t10 -7.5t13 -2.5q3 -1 6.5 -1.5t6.5 1.5q11 4 9 14q-1 4 -7 7q1 5 5.5 16t10.5 25q8 -1 18 -1h21q1 -15 1 -22.5v-12.5q-7 0 -14.5 -3t-6.5 -12zM276 528q0 -22 0.5 -39t0.5 -29q-15 -2 -30 0zM304 623q-9 8 -15 2
l-25 -24q-4 -4 -3 -8t4 -6.5t7.5 -3.5t8.5 2l24 23q3 3 2.5 7.5t-3.5 7.5z" />
    <glyph glyph-name="cacute" unicode="&#x107;" 
d="M416 749h58v-93h77l-267 -578l-267 578h76v93h59v-93h264v93zM277 375q19 0 36 13.5t23 31.5q3 9 -6.5 14.5t-13.5 -2.5q-7 -14 -16 -22.5t-23 -9.5q-17 0 -25.5 21.5t-8.5 47.5q-1 25 6.5 46t24.5 24q7 1 16 -3.5t12 -12.5v-10.5t7 -7.5t12 4t8.5 15.5t5.5 15.5
q2 6 0 10t-5 5q-4 2 -8.5 1t-9.5 -8q-19 17 -41 15q-15 -2 -25.5 -11t-17.5 -23.5t-10 -31.5t-2 -35q1 -17 5 -33t12 -28t19 -19t25 -7zM304 623q-9 8 -15 2l-25 -24q-4 -4 -3 -8t4 -6.5t7.5 -3.5t8.5 2l24 23q3 3 2.5 7.5t-3.5 7.5z" />
    <glyph glyph-name="ccaron" unicode="&#x10d;" 
d="M416 749h58v-93h77l-267 -578l-267 578h76v93h59v-93h264v93zM277 375q19 0 36 13.5t23 31.5q3 9 -6.5 14.5t-13.5 -2.5q-7 -14 -16 -22.5t-23 -9.5q-17 0 -25.5 21.5t-8.5 47.5q-1 25 6.5 46t24.5 24q7 1 16 -3.5t12 -12.5v-10.5t7 -7.5t12 4t8.5 15.5t5.5 15.5
q2 6 0 10t-5 5q-4 2 -8.5 1t-9.5 -8q-19 17 -41 15q-15 -2 -25.5 -11t-17.5 -23.5t-10 -31.5t-2 -35q1 -17 5 -33t12 -28t19 -19t25 -7zM312 619q1 4 -1.5 7t-6 4t-7 0.5t-4.5 -3.5l-10 -22l-8 20q-2 4 -6.5 5t-8.5 0t-7 -4.5t-1 -8.5l13 -26q6 -11 18 -10.5t17 12.5z" />
    <glyph glyph-name="ccedilla" unicode="&#xe7;" 
d="M416 749h58v-93h77l-267 -578l-267 578h76v93h59v-93h264v93zM265 318q13 0 21 8t8.5 17.5t-5.5 18t-19 9.5v4q2 -1 3.5 -0.5t3.5 0.5q19 0 36 13.5t23 31.5q3 9 -6.5 14.5t-13.5 -2.5q-7 -14 -16 -22.5t-23 -9.5q-17 0 -25.5 21.5t-8.5 47.5q-1 25 6.5 46t24.5 24
q7 1 16 -3.5t12 -12.5v-10.5t7 -7.5t12 4t8.5 15.5t5.5 15.5q2 6 0 10t-5 5q-4 2 -8.5 1t-9.5 -8q-19 17 -41 15q-15 -2 -25.5 -11t-17.5 -23.5t-10 -31.5t-2 -35q1 -26 10.5 -49t27.5 -33q0 -17 1 -22.5t10 -4.5q6 1 9.5 -2t3.5 -7t-3.5 -7t-10.5 -2q-7 0 -7 -8.5t8 -8.5z
" />
    <glyph glyph-name="ccircumflex" unicode="&#x109;" 
d="M416 749h58v-93h77l-267 -578l-267 578h76v93h59v-93h264v93zM277 375q19 0 36 13.5t23 31.5q3 9 -6.5 14.5t-13.5 -2.5q-7 -14 -16 -22.5t-23 -9.5q-17 0 -25.5 21.5t-8.5 47.5q-1 25 6.5 46t24.5 24q7 1 16 -3.5t12 -12.5v-10.5t7 -7.5t12 4t8.5 15.5t5.5 15.5
q2 6 0 10t-5 5q-4 2 -8.5 1t-9.5 -8q-19 17 -41 15q-15 -2 -25.5 -11t-17.5 -23.5t-10 -31.5t-2 -35q1 -17 5 -33t12 -28t19 -19t25 -7zM251 593q-1 -5 1.5 -7.5t6 -4t7 -0.5t4.5 4l10 22l8 -20q2 -4 6.5 -5t8.5 0t6.5 4.5t1.5 8.5l-13 25q-6 12 -18 11.5t-17 -12.5z" />
    <glyph glyph-name="cdotaccent" unicode="&#x10b;" 
d="M416 749h58v-93h77l-267 -578l-267 578h76v93h59v-93h264v93zM277 375q19 0 36 13.5t23 31.5q3 9 -6.5 14.5t-13.5 -2.5q-7 -14 -16 -22.5t-23 -9.5q-17 0 -25.5 21.5t-8.5 47.5q-1 25 6.5 46t24.5 24q7 1 16 -3.5t12 -12.5v-10.5t7 -7.5t12 4t8.5 15.5t5.5 15.5
q2 6 0 10t-5 5q-4 2 -8.5 1t-9.5 -8q-19 17 -41 15q-15 -2 -25.5 -11t-17.5 -23.5t-10 -31.5t-2 -35q1 -17 5 -33t12 -28t19 -19t25 -7zM284 583q8 1 11.5 6.5t2.5 11t-6 9.5t-12 3q-8 -1 -11.5 -6.5t-2.5 -11t5.5 -10t12.5 -2.5z" />
    <glyph glyph-name="dcaron" unicode="&#x10f;" 
d="M416 749h58v-93h77l-267 -578l-267 578h76v93h59v-93h264v93zM218 389q-2 -8 3.5 -11t14.5 -3q8 -1 14.5 -0.5t14.5 1.5q18 1 34.5 9t28.5 22t19 33.5t6 43.5t-10.5 39.5t-24.5 25t-35 13t-42 3.5q-11 -1 -16.5 -3t-6.5 -10q0 -10 9 -9.5t15 -0.5l-2 -143q-21 0 -22 -10z
M267 542q22 0 41 -12.5t21 -42.5q2 -40 -18 -63t-46 -25zM312 619q1 4 -1.5 7t-6 4t-7 0.5t-4.5 -3.5l-10 -22l-8 20q-2 4 -6.5 5t-8.5 0t-7 -4.5t-1 -8.5l13 -26q6 -11 18 -10.5t17 12.5z" />
    <glyph glyph-name="dcroat" unicode="&#x111;" 
d="M416 749h58v-93h77l-267 -578l-267 578h76v93h59v-93h264v93zM211 488q0 -4 2.5 -7.5t7.5 -3.5q6 0 10.5 -0.5t9.5 -0.5l-1 -77q-21 0 -22 -10q-2 -8 3.5 -11t14.5 -3q8 -1 14.5 -0.5t14.5 1.5q18 1 34.5 9t28.5 22t19 33.5t6 43.5t-10.5 39.5t-24.5 25t-35 13t-42 3.5
q-11 -1 -16.5 -3t-6.5 -10q0 -10 9 -9.5t15 -0.5l-1 -42h-20q-5 0 -7.5 -3.5t-2.5 -8.5zM266 476h13.5t11.5 1q9 1 10 12t-9 11h-26l1 42q22 0 41 -12.5t21 -42.5q2 -40 -18 -63t-46 -25z" />
    <glyph glyph-name="eacute" unicode="&#xe9;" 
d="M416 749h58v-93h77l-267 -578l-267 578h76v93h59v-93h264v93zM214 386q0 -7 4.5 -9t10.5 -2q1 0 4 -0.5t11.5 -0.5h25.5t48 2q11 1 12.5 6t1.5 13q-1 8 -1.5 18.5t-11.5 10.5q-6 0 -10.5 -3t-4.5 -11v-7q0 -2 -6 -3t-14.5 -1t-15.5 0.5t-8 0.5q-1 8 -2 25t-1 36
q20 0 30.5 1t12.5 0q4 0 6.5 4.5t1.5 8.5q0 2 -1.5 6.5t-7.5 4.5q-2 0 -12 -0.5t-30 -0.5q-1 17 -0.5 33.5t0.5 23.5q2 0 9 0.5t15 0.5t14 -1t6 -3v-4q0 -8 4.5 -11t10.5 -3q11 0 11.5 8t1.5 16q0 8 -1.5 12.5t-12.5 5.5q-31 1 -48 1.5t-25.5 0.5t-11.5 -0.5t-4 -0.5
q-6 0 -10.5 -2t-4.5 -9q-1 -9 6.5 -10.5t14.5 -1.5q0 -40 0.5 -65t1.5 -40t1 -22.5v-12.5q-7 0 -14.5 -3t-6.5 -12zM304 623q-9 8 -15 2l-25 -24q-4 -4 -3 -8t4 -6.5t7.5 -3.5t8.5 2l24 23q3 3 2.5 7.5t-3.5 7.5z" />
    <glyph glyph-name="ebreve" unicode="&#x115;" 
d="M416 749h58v-93h77l-267 -578l-267 578h76v93h59v-93h264v93zM214 386q0 -7 4.5 -9t10.5 -2q1 0 4 -0.5t11.5 -0.5h25.5t48 2q11 1 12.5 6t1.5 13q-1 8 -1.5 18.5t-11.5 10.5q-6 0 -10.5 -3t-4.5 -11v-7q0 -2 -6 -3t-14.5 -1t-15.5 0.5t-8 0.5q-1 8 -2 25t-1 36
q20 0 30.5 1t12.5 0q4 0 6.5 4.5t1.5 8.5q0 2 -1.5 6.5t-7.5 4.5q-2 0 -12 -0.5t-30 -0.5q-1 17 -0.5 33.5t0.5 23.5q2 0 9 0.5t15 0.5t14 -1t6 -3v-4q0 -8 4.5 -11t10.5 -3q11 0 11.5 8t1.5 16q0 8 -1.5 12.5t-12.5 5.5q-31 1 -48 1.5t-25.5 0.5t-11.5 -0.5t-4 -0.5
q-6 0 -10.5 -2t-4.5 -9q-1 -9 6.5 -10.5t14.5 -1.5q0 -40 0.5 -65t1.5 -40t1 -22.5v-12.5q-7 0 -14.5 -3t-6.5 -12zM242 612q2 -14 12.5 -21.5t24.5 -7.5q12 1 24 7t16 22q1 4 -1.5 7t-6 3.5t-7 -1t-4.5 -5.5q-2 -9 -8.5 -12t-13.5 -3q-13 0 -17 13q-2 7 -11 6t-8 -8z" />
    <glyph glyph-name="ecaron" unicode="&#x11b;" 
d="M416 749h58v-93h77l-267 -578l-267 578h76v93h59v-93h264v93zM214 386q0 -7 4.5 -9t10.5 -2q1 0 4 -0.5t11.5 -0.5h25.5t48 2q11 1 12.5 6t1.5 13q-1 8 -1.5 18.5t-11.5 10.5q-6 0 -10.5 -3t-4.5 -11v-7q0 -2 -6 -3t-14.5 -1t-15.5 0.5t-8 0.5q-1 8 -2 25t-1 36
q20 0 30.5 1t12.5 0q4 0 6.5 4.5t1.5 8.5q0 2 -1.5 6.5t-7.5 4.5q-2 0 -12 -0.5t-30 -0.5q-1 17 -0.5 33.5t0.5 23.5q2 0 9 0.5t15 0.5t14 -1t6 -3v-4q0 -8 4.5 -11t10.5 -3q11 0 11.5 8t1.5 16q0 8 -1.5 12.5t-12.5 5.5q-31 1 -48 1.5t-25.5 0.5t-11.5 -0.5t-4 -0.5
q-6 0 -10.5 -2t-4.5 -9q-1 -9 6.5 -10.5t14.5 -1.5q0 -40 0.5 -65t1.5 -40t1 -22.5v-12.5q-7 0 -14.5 -3t-6.5 -12zM312 619q1 4 -1.5 7t-6 4t-7 0.5t-4.5 -3.5l-10 -22l-8 20q-2 4 -6.5 5t-8.5 0t-7 -4.5t-1 -8.5l13 -26q6 -11 18 -10.5t17 12.5z" />
    <glyph glyph-name="ecircumflex" unicode="&#xea;" 
d="M416 749h58v-93h77l-267 -578l-267 578h76v93h59v-93h264v93zM214 386q0 -7 4.5 -9t10.5 -2q1 0 4 -0.5t11.5 -0.5h25.5t48 2q11 1 12.5 6t1.5 13q-1 8 -1.5 18.5t-11.5 10.5q-6 0 -10.5 -3t-4.5 -11v-7q0 -2 -6 -3t-14.5 -1t-15.5 0.5t-8 0.5q-1 8 -2 25t-1 36
q20 0 30.5 1t12.5 0q4 0 6.5 4.5t1.5 8.5q0 2 -1.5 6.5t-7.5 4.5q-2 0 -12 -0.5t-30 -0.5q-1 17 -0.5 33.5t0.5 23.5q2 0 9 0.5t15 0.5t14 -1t6 -3v-4q0 -8 4.5 -11t10.5 -3q11 0 11.5 8t1.5 16q0 8 -1.5 12.5t-12.5 5.5q-31 1 -48 1.5t-25.5 0.5t-11.5 -0.5t-4 -0.5
q-6 0 -10.5 -2t-4.5 -9q-1 -9 6.5 -10.5t14.5 -1.5q0 -40 0.5 -65t1.5 -40t1 -22.5v-12.5q-7 0 -14.5 -3t-6.5 -12zM242 593q-1 -5 1.5 -7.5t6 -4t7 -0.5t4.5 4l10 22l8 -20q2 -4 6.5 -5t8.5 0t6.5 4.5t1.5 8.5l-13 25q-6 12 -18 11.5t-17 -12.5z" />
    <glyph glyph-name="edieresis" unicode="&#xeb;" 
d="M416 749h58v-93h77l-267 -578l-267 578h76v93h59v-93h264v93zM214 386q0 -7 4.5 -9t10.5 -2q1 0 4 -0.5t11.5 -0.5h25.5t48 2q11 1 12.5 6t1.5 13q-1 8 -1.5 18.5t-11.5 10.5q-6 0 -10.5 -3t-4.5 -11v-7q0 -2 -6 -3t-14.5 -1t-15.5 0.5t-8 0.5q-1 8 -2 25t-1 36
q20 0 30.5 1t12.5 0q4 0 6.5 4.5t1.5 8.5q0 2 -1.5 6.5t-7.5 4.5q-2 0 -12 -0.5t-30 -0.5q-1 17 -0.5 33.5t0.5 23.5q2 0 9 0.5t15 0.5t14 -1t6 -3v-4q0 -8 4.5 -11t10.5 -3q11 0 11.5 8t1.5 16q0 8 -1.5 12.5t-12.5 5.5q-31 1 -48 1.5t-25.5 0.5t-11.5 -0.5t-4 -0.5
q-6 0 -10.5 -2t-4.5 -9q-1 -9 6.5 -10.5t14.5 -1.5q0 -40 0.5 -65t1.5 -40t1 -22.5v-12.5q-7 0 -14.5 -3t-6.5 -12zM262 586q8 1 11.5 6.5t2.5 11t-6 9.5t-12 3q-8 -1 -11.5 -6.5t-2.5 -11.5t5.5 -10t12.5 -2zM307 586q8 1 11 6.5t2 11t-6 9.5t-12 3q-8 -1 -11.5 -6.5
t-2.5 -11.5t6 -10t13 -2z" />
    <glyph glyph-name="edotaccent" unicode="&#x117;" 
d="M416 749h58v-93h77l-267 -578l-267 578h76v93h59v-93h264v93zM214 386q0 -7 4.5 -9t10.5 -2q1 0 4 -0.5t11.5 -0.5h25.5t48 2q11 1 12.5 6t1.5 13q-1 8 -1.5 18.5t-11.5 10.5q-6 0 -10.5 -3t-4.5 -11v-7q0 -2 -6 -3t-14.5 -1t-15.5 0.5t-8 0.5q-1 8 -2 25t-1 36
q20 0 30.5 1t12.5 0q4 0 6.5 4.5t1.5 8.5q0 2 -1.5 6.5t-7.5 4.5q-2 0 -12 -0.5t-30 -0.5q-1 17 -0.5 33.5t0.5 23.5q2 0 9 0.5t15 0.5t14 -1t6 -3v-4q0 -8 4.5 -11t10.5 -3q11 0 11.5 8t1.5 16q0 8 -1.5 12.5t-12.5 5.5q-31 1 -48 1.5t-25.5 0.5t-11.5 -0.5t-4 -0.5
q-6 0 -10.5 -2t-4.5 -9q-1 -9 6.5 -10.5t14.5 -1.5q0 -40 0.5 -65t1.5 -40t1 -22.5v-12.5q-7 0 -14.5 -3t-6.5 -12zM284 583q8 1 11.5 6.5t2.5 11t-6 9.5t-12 3q-8 -1 -11.5 -6.5t-2.5 -11t5.5 -10t12.5 -2.5z" />
    <glyph glyph-name="egrave" unicode="&#xe8;" 
d="M416 749h58v-93h77l-267 -578l-267 578h76v93h59v-93h264v93zM214 386q0 -7 4.5 -9t10.5 -2q1 0 4 -0.5t11.5 -0.5h25.5t48 2q11 1 12.5 6t1.5 13q-1 8 -1.5 18.5t-11.5 10.5q-6 0 -10.5 -3t-4.5 -11v-7q0 -2 -6 -3t-14.5 -1t-15.5 0.5t-8 0.5q-1 8 -2 25t-1 36
q20 0 30.5 1t12.5 0q4 0 6.5 4.5t1.5 8.5q0 2 -1.5 6.5t-7.5 4.5q-2 0 -12 -0.5t-30 -0.5q-1 17 -0.5 33.5t0.5 23.5q2 0 9 0.5t15 0.5t14 -1t6 -3v-4q0 -8 4.5 -11t10.5 -3q11 0 11.5 8t1.5 16q0 8 -1.5 12.5t-12.5 5.5q-31 1 -48 1.5t-25.5 0.5t-11.5 -0.5t-4 -0.5
q-6 0 -10.5 -2t-4.5 -9q-1 -9 6.5 -10.5t14.5 -1.5q0 -40 0.5 -65t1.5 -40t1 -22.5v-12.5q-7 0 -14.5 -3t-6.5 -12zM259 623q-3 -3 -3.5 -7.5t2.5 -7.5l24 -23q4 -3 8.5 -2t7.5 3.5t4 6.5t-3 8l-25 24q-6 6 -15 -2z" />
    <glyph glyph-name="emacron" unicode="&#x113;" 
d="M416 749h58v-93h77l-267 -578l-267 578h76v93h59v-93h264v93zM214 386q0 -7 4.5 -9t10.5 -2q1 0 4 -0.5t11.5 -0.5h25.5t48 2q11 1 12.5 6t1.5 13q-1 8 -1.5 18.5t-11.5 10.5q-6 0 -10.5 -3t-4.5 -11v-7q0 -2 -6 -3t-14.5 -1t-15.5 0.5t-8 0.5q-1 8 -2 25t-1 36
q20 0 30.5 1t12.5 0q4 0 6.5 4.5t1.5 8.5q0 2 -1.5 6.5t-7.5 4.5q-2 0 -12 -0.5t-30 -0.5q-1 17 -0.5 33.5t0.5 23.5q2 0 9 0.5t15 0.5t14 -1t6 -3v-4q0 -8 4.5 -11t10.5 -3q11 0 11.5 8t1.5 16q0 8 -1.5 12.5t-12.5 5.5q-31 1 -48 1.5t-25.5 0.5t-11.5 -0.5t-4 -0.5
q-6 0 -10.5 -2t-4.5 -9q-1 -9 6.5 -10.5t14.5 -1.5q0 -40 0.5 -65t1.5 -40t1 -22.5v-12.5q-7 0 -14.5 -3t-6.5 -12zM234 591q0 -4 2.5 -7.5t7.5 -3.5q30 0 44.5 -1t25.5 1q9 1 10 12t-9 11h-71q-5 0 -7.5 -3.5t-2.5 -8.5z" />
    <glyph glyph-name="eogonek" unicode="&#x119;" 
d="M416 749h58v-93h77l-267 -578l-267 578h76v93h59v-93h264v93zM214 386q0 -7 4.5 -9t10.5 -2q1 0 3 -0.5t7 -1t14 -0.5t26 1q-4 -12 0 -23.5t13 -16.5q8 -4 13 4t-1 11q-8 4 -8.5 11.5t4.5 14.5h8.5t9.5 1q11 1 12.5 6t1.5 13q-1 8 -1.5 18.5t-11.5 10.5q-6 0 -10.5 -3
t-4.5 -11v-7q0 -2 -6 -3t-14.5 -1t-15.5 0.5t-8 0.5q-1 8 -2 25t-1 36q20 0 30.5 1t12.5 0q4 0 6.5 4.5t1.5 8.5q0 2 -1.5 6.5t-7.5 4.5q-2 0 -12 -0.5t-30 -0.5q-1 17 -0.5 33.5t0.5 23.5q2 0 9 0.5t15 0.5t14 -1t6 -3v-4q0 -8 4.5 -11t10.5 -3q11 0 11.5 8t1.5 16
q0 8 -1.5 12.5t-12.5 5.5q-31 1 -48 1.5t-25.5 0.5t-11.5 -0.5t-4 -0.5q-6 0 -10.5 -2t-4.5 -9q-1 -9 6.5 -10.5t14.5 -1.5q0 -40 0.5 -65t1.5 -40t1 -22.5v-12.5q-7 0 -14.5 -3t-6.5 -12z" />
    <glyph glyph-name="gbreve" unicode="&#x11f;" 
d="M416 749h58v-93h77l-267 -578l-267 578h76v93h59v-93h264v93zM296 465q-7 0 -13.5 -2.5t-6.5 -11.5q1 -7 5.5 -9.5t9.5 -2.5t12.5 0.5t10.5 0.5q1 -20 -8.5 -30t-20.5 -10q-40 0 -43 69q-1 27 7.5 47t25.5 23q7 1 16 -3.5t12 -12.5v-10.5t7 -7.5t12 4t8.5 15.5t5.5 15.5
q2 6 0 10t-5 5q-4 2 -8.5 1t-9.5 -8q-19 17 -41 15q-15 -2 -25.5 -11t-17.5 -23.5t-10 -31.5t-2 -35q1 -16 5 -31.5t12 -28t21 -20t31 -7.5t35 16t19 51q5 0 8.5 3.5t3.5 8.5q-2 14 -22 12zM242 612q2 -14 12.5 -21.5t24.5 -7.5q12 1 24 7t16 22q1 4 -1.5 7t-6 3.5t-7 -1
t-4.5 -5.5q-2 -9 -8.5 -12t-13.5 -3q-13 0 -17 13q-2 7 -11 6t-8 -8z" />
    <glyph glyph-name="gcircumflex" unicode="&#x11d;" 
d="M416 749h58v-93h77l-267 -578l-267 578h76v93h59v-93h264v93zM296 465q-7 0 -13.5 -2.5t-6.5 -11.5q1 -7 5.5 -9.5t9.5 -2.5t12.5 0.5t10.5 0.5q1 -20 -8.5 -30t-20.5 -10q-40 0 -43 69q-1 27 7.5 47t25.5 23q7 1 16 -3.5t12 -12.5v-10.5t7 -7.5t12 4t8.5 15.5t5.5 15.5
q2 6 0 10t-5 5q-4 2 -8.5 1t-9.5 -8q-19 17 -41 15q-15 -2 -25.5 -11t-17.5 -23.5t-10 -31.5t-2 -35q1 -16 5 -31.5t12 -28t21 -20t31 -7.5t35 16t19 51q5 0 8.5 3.5t3.5 8.5q-2 14 -22 12zM251 593q-1 -5 1.5 -7.5t6 -4t7 -0.5t4.5 4l10 22l8 -20q2 -4 6.5 -5t8.5 0
t6.5 4.5t1.5 8.5l-13 25q-6 12 -18 11.5t-17 -12.5z" />
    <glyph glyph-name="gcommaaccent" unicode="&#x123;" 
d="M416 749h58v-93h77l-267 -578l-267 578h76v93h59v-93h264v93zM296 465q-7 0 -13.5 -2.5t-6.5 -11.5q1 -7 5.5 -9.5t9.5 -2.5t12.5 0.5t10.5 0.5q1 -20 -8.5 -30t-20.5 -10q-40 0 -43 69q-1 27 7.5 47t25.5 23q7 1 16 -3.5t12 -12.5v-10.5t7 -7.5t12 4t8.5 15.5t5.5 15.5
q2 6 0 10t-5 5q-4 2 -8.5 1t-9.5 -8q-19 17 -41 15q-15 -2 -25.5 -11t-17.5 -23.5t-10 -31.5t-2 -35q1 -16 5 -31.5t12 -28t21 -20t31 -7.5t35 16t19 51q5 0 8.5 3.5t3.5 8.5q-2 14 -22 12zM288 299q6 5 10.5 20.5t-3.5 33.5q-2 3 -6 3.5t-8 -1t-6.5 -5t-1.5 -7.5
q2 -5 3.5 -12t-6.5 -18q-6 -8 3 -13.5t15 -0.5z" />
    <glyph glyph-name="gdotaccent" unicode="&#x121;" 
d="M416 749h58v-93h77l-267 -578l-267 578h76v93h59v-93h264v93zM296 465q-7 0 -13.5 -2.5t-6.5 -11.5q1 -7 5.5 -9.5t9.5 -2.5t12.5 0.5t10.5 0.5q1 -20 -8.5 -30t-20.5 -10q-40 0 -43 69q-1 27 7.5 47t25.5 23q7 1 16 -3.5t12 -12.5v-10.5t7 -7.5t12 4t8.5 15.5t5.5 15.5
q2 6 0 10t-5 5q-4 2 -8.5 1t-9.5 -8q-19 17 -41 15q-15 -2 -25.5 -11t-17.5 -23.5t-10 -31.5t-2 -35q1 -16 5 -31.5t12 -28t21 -20t31 -7.5t35 16t19 51q5 0 8.5 3.5t3.5 8.5q-2 14 -22 12zM284 583q8 1 11.5 6.5t2.5 11t-6 9.5t-12 3q-8 -1 -11.5 -6.5t-2.5 -11t5.5 -10
t12.5 -2.5z" />
    <glyph glyph-name="hbar" unicode="&#x127;" 
d="M416 749h58v-93h77l-267 -578l-267 578h76v93h59v-93h264v93zM215 389q-1 -4 2 -9.5t22 -5.5q15 1 23 2.5t9 9.5q1 7 -3.5 10.5t-11.5 3.5l1 58h59v-60q0 -11 2.5 -17t15.5 -7q25 -1 25 14q0 5 -3 9.5t-14 4.5l1 95q3 0 5 0.5t4 0.5q9 1 10 12t-9 11h-9v16q6 2 10 3.5
t5 8.5q1 3 -2 9t-22 5q-15 0 -23 -2t-9 -10q-1 -7 3.5 -10t10.5 -4v-16h-59v18q0 11 -2.5 17t-15.5 7q-25 1 -25 -14q0 -5 3 -9.5t14 -4.5l-1 -14h-8q-5 0 -7.5 -3.5t-2.5 -8.5q0 -4 2.5 -7.5t7.5 -3.5h8l-2 -98q-6 -2 -10 -3.5t-4 -7.5zM317 497v-17h-60v17h60z" />
    <glyph glyph-name="hcircumflex" unicode="&#x125;" 
d="M416 749h58v-93h77l-267 -578l-267 578h76v93h59v-93h264v93zM215 389q-1 -4 2 -9.5t22 -5.5q15 1 23 2.5t9 9.5q1 7 -3.5 10.5t-11.5 3.5l1 58h59v-60q0 -11 2.5 -17t15.5 -7q25 -1 25 14q0 5 -3 9.5t-14 4.5l2 135q6 2 10 3.5t5 8.5q1 3 -2 9t-22 5q-15 0 -23 -2
t-9 -10q-1 -7 3.5 -10t10.5 -4v-57h-60l1 59q0 11 -2.5 17t-15.5 7q-25 1 -25 -14q0 -5 3 -9.5t14 -4.5l-3 -135q-6 -2 -10 -3.5t-4 -7.5zM251 593q-1 -5 1.5 -7.5t6 -4t7 -0.5t4.5 4l10 22l8 -20q2 -4 6.5 -5t8.5 0t6.5 4.5t1.5 8.5l-13 25q-6 12 -18 11.5t-17 -12.5z" />
    <glyph glyph-name="iacute" unicode="&#xed;" 
d="M416 749h58v-93h77l-267 -578l-267 578h76v93h59v-93h264v93zM320 539q0 -11 4.5 -14.5t9.5 -3.5q17 0 14 25q-1 11 -6.5 14.5t-16.5 3.5h-80q-8 0 -15.5 -3t-8.5 -15q0 -25 15 -25q5 0 9.5 3.5t4.5 14.5h22v-140h-23q0 11 -4.5 14.5t-9.5 3.5q-18 0 -15 -24
q2 -11 7.5 -14.5t16.5 -3.5h79q8 0 15.5 3t8.5 15q1 24 -15 24q-5 0 -9 -3.5t-4 -14.5h-21l1 140h21zM304 623q-9 8 -15 2l-25 -24q-4 -4 -3 -8t4 -6.5t7.5 -3.5t8.5 2l24 23q3 3 2.5 7.5t-3.5 7.5z" />
    <glyph glyph-name="ibreve" unicode="&#x12d;" 
d="M416 749h58v-93h77l-267 -578l-267 578h76v93h59v-93h264v93zM320 539q0 -11 4.5 -14.5t9.5 -3.5q17 0 14 25q-1 11 -6.5 14.5t-16.5 3.5h-80q-8 0 -15.5 -3t-8.5 -15q0 -25 15 -25q5 0 9.5 3.5t4.5 14.5h22v-140h-23q0 11 -4.5 14.5t-9.5 3.5q-18 0 -15 -24
q2 -11 7.5 -14.5t16.5 -3.5h79q8 0 15.5 3t8.5 15q1 24 -15 24q-5 0 -9 -3.5t-4 -14.5h-21l1 140h21zM242 612q2 -14 12.5 -21.5t24.5 -7.5q12 1 24 7t16 22q1 4 -1.5 7t-6 3.5t-7 -1t-4.5 -5.5q-2 -9 -8.5 -12t-13.5 -3q-13 0 -17 13q-2 7 -11 6t-8 -8z" />
    <glyph glyph-name="icircumflex" unicode="&#xee;" 
d="M416 749h58v-93h77l-267 -578l-267 578h76v93h59v-93h264v93zM320 539q0 -11 4.5 -14.5t9.5 -3.5q17 0 14 25q-1 11 -6.5 14.5t-16.5 3.5h-80q-8 0 -15.5 -3t-8.5 -15q0 -25 15 -25q5 0 9.5 3.5t4.5 14.5h22v-140h-23q0 11 -4.5 14.5t-9.5 3.5q-18 0 -15 -24
q2 -11 7.5 -14.5t16.5 -3.5h79q8 0 15.5 3t8.5 15q1 24 -15 24q-5 0 -9 -3.5t-4 -14.5h-21l1 140h21zM251 593q-1 -5 1.5 -7.5t6 -4t7 -0.5t4.5 4l10 22l8 -20q2 -4 6.5 -5t8.5 0t6.5 4.5t1.5 8.5l-13 25q-6 12 -18 11.5t-17 -12.5z" />
    <glyph glyph-name="idieresis" unicode="&#xef;" 
d="M416 749h58v-93h77l-267 -578l-267 578h76v93h59v-93h264v93zM320 539q0 -11 4.5 -14.5t9.5 -3.5q17 0 14 25q-1 11 -6.5 14.5t-16.5 3.5h-80q-8 0 -15.5 -3t-8.5 -15q0 -25 15 -25q5 0 9.5 3.5t4.5 14.5h22v-140h-23q0 11 -4.5 14.5t-9.5 3.5q-18 0 -15 -24
q2 -11 7.5 -14.5t16.5 -3.5h79q8 0 15.5 3t8.5 15q1 24 -15 24q-5 0 -9 -3.5t-4 -14.5h-21l1 140h21zM262 586q8 1 11.5 6.5t2.5 11t-6 9.5t-12 3q-8 -1 -11.5 -6.5t-2.5 -11.5t5.5 -10t12.5 -2zM307 586q8 1 11 6.5t2 11t-6 9.5t-12 3q-8 -1 -11.5 -6.5t-2.5 -11.5t6 -10
t13 -2z" />
    <glyph glyph-name="igrave" unicode="&#xec;" 
d="M416 749h58v-93h77l-267 -578l-267 578h76v93h59v-93h264v93zM320 539q0 -11 4.5 -14.5t9.5 -3.5q17 0 14 25q-1 11 -6.5 14.5t-16.5 3.5h-80q-8 0 -15.5 -3t-8.5 -15q0 -25 15 -25q5 0 9.5 3.5t4.5 14.5h22v-140h-23q0 11 -4.5 14.5t-9.5 3.5q-18 0 -15 -24
q2 -11 7.5 -14.5t16.5 -3.5h79q8 0 15.5 3t8.5 15q1 24 -15 24q-5 0 -9 -3.5t-4 -14.5h-21l1 140h21zM259 623q-3 -3 -3.5 -7.5t2.5 -7.5l24 -23q4 -3 8.5 -2t7.5 3.5t4 6.5t-3 8l-25 24q-6 6 -15 -2z" />
    <glyph glyph-name="imacron" unicode="&#x12b;" 
d="M416 749h58v-93h77l-267 -578l-267 578h76v93h59v-93h264v93zM320 539q0 -11 4.5 -14.5t9.5 -3.5q17 0 14 25q-1 11 -6.5 14.5t-16.5 3.5h-80q-8 0 -15.5 -3t-8.5 -15q0 -25 15 -25q5 0 9.5 3.5t4.5 14.5h22v-140h-23q0 11 -4.5 14.5t-9.5 3.5q-18 0 -15 -24
q2 -11 7.5 -14.5t16.5 -3.5h79q8 0 15.5 3t8.5 15q1 24 -15 24q-5 0 -9 -3.5t-4 -14.5h-21l1 140h21zM234 591q0 -4 2.5 -7.5t7.5 -3.5q30 0 44.5 -1t25.5 1q9 1 10 12t-9 11h-71q-5 0 -7.5 -3.5t-2.5 -8.5z" />
    <glyph glyph-name="iogonek" unicode="&#x12f;" 
d="M416 749h58v-93h77l-267 -578l-267 578h76v93h59v-93h264v93zM320 539q0 -11 4.5 -14.5t9.5 -3.5q17 0 14 25q-1 11 -6.5 14.5t-16.5 3.5h-80q-8 0 -15.5 -3t-8.5 -15q0 -25 15 -25q5 0 9.5 3.5t4.5 14.5h22v-140h-23q0 11 -4.5 14.5t-9.5 3.5q-18 0 -15 -24
q2 -11 7.5 -14.5t16.5 -3.5h58q-3 -12 1 -23t13 -16q8 -4 13 4t-1 11q-7 3 -8 10t3 14q8 0 15.5 3t8.5 15q1 24 -15 24q-5 0 -9 -3.5t-4 -14.5h-21l1 140h21z" />
    <glyph glyph-name="itilde" unicode="&#x129;" 
d="M416 749h58v-93h77l-267 -578l-267 578h76v93h59v-93h264v93zM320 539q0 -11 4.5 -14.5t9.5 -3.5q17 0 14 25q-1 11 -6.5 14.5t-16.5 3.5h-80q-8 0 -15.5 -3t-8.5 -15q0 -25 15 -25q5 0 9.5 3.5t4.5 14.5h22v-140h-23q0 11 -4.5 14.5t-9.5 3.5q-18 0 -15 -24
q2 -11 7.5 -14.5t16.5 -3.5h79q8 0 15.5 3t8.5 15q1 24 -15 24q-5 0 -9 -3.5t-4 -14.5h-21l1 140h21zM226 593q0 -11 13 -11q4 0 6 2t4 5t4.5 5t7.5 2q11 0 17.5 -7t18.5 -7q23 0 35 20q8 11 3 20q-3 5 -10 5q-5 0 -7 -2.5t-4.5 -6t-5 -6.5t-8.5 -4q-5 -1 -9.5 1t-9 4.5
t-9.5 5t-11 2.5q-12 0 -22.5 -8t-12.5 -20z" />
    <glyph glyph-name="kcommaaccent" unicode="&#x137;" 
d="M416 749h58v-93h77l-267 -578l-267 578h76v93h59v-93h264v93zM313 380q3 -5 10 -4.5t13 3.5q8 4 17 10t4 16q-2 5 -7.5 5.5t-11.5 -2.5q-20 31 -35.5 51t-15.5 21l46 49q8 -6 15 -6q8 1 9.5 8t-3.5 13q-5 4 -9.5 8.5t-9.5 8.5t-11 3.5t-8 -4.5q-4 -6 -2.5 -9l2.5 -5
l-66 -70q-1 16 -0.5 32t-0.5 31q5 0 10.5 2.5t5.5 9.5q0 5 -3 8.5t-8 3.5h-27q-15 0 -15 -12q0 -11 13 -12v-140q-6 -2 -10.5 -5t-4.5 -9q0 -5 3.5 -8t8.5 -3l32 1q11 0 11 11q0 7 -4.5 9.5t-9.5 3.5v45l17 18l48 -66q-2 -2 -5 -6t2 -10zM286 302q6 5 10.5 20.5t-3.5 33.5
q-2 3 -6 3.5t-8 -1t-6.5 -5t-1.5 -7.5q2 -5 3.5 -12t-6.5 -18q-6 -8 3 -13.5t15 -0.5z" />
    <glyph glyph-name="jcircumflex" unicode="&#x135;" 
d="M416 749h58v-93h77l-267 -653l-267 653h76v93h59v-93h264v93zM326 467q-1 -11 3.5 -14t9.5 -3q16 -2 15 24q-1 11 -7 13.5t-17 2.5h-69q-8 0 -16 -3t-8 -13q0 -25 15 -24q5 0 9.5 3t3.5 14h19q5 -30 6.5 -52t3.5 -43q1 -14 -4 -29t-18 -19q-5 -1 -11 0.5t-10 6.5
q11 4 8 16.5t-16 12.5q-8 0 -14 -5.5t-5 -16.5q1 -19 15 -28.5t31 -9.5q15 0 25 7.5t15.5 18.5t7.5 24t1 26q-2 26 -3 44t-5 47h15zM251 518q-1 -5 1.5 -7.5t6 -4t7 -0.5t4.5 4l10 22l8 -20q2 -4 6.5 -5t8.5 0t6.5 4.5t1.5 8.5l-13 25q-6 12 -18 11.5t-17 -12.5z" />
    <glyph glyph-name="lacute" unicode="&#x13a;" 
d="M416 749h58v-93h77l-267 -578l-267 578h76v93h59v-93h264v93zM222 386q0 -7 4.5 -9t10.5 -2q1 0 4 -0.5t11.5 -0.5h25.5t48 2q11 1 12.5 6.5t1.5 14.5q-1 8 -1.5 20t-11.5 12q-6 0 -10.5 -3t-4.5 -11v-11q0 -2 -6 -3t-13.5 -1h-15h-8.5q-1 9 -2 29.5t-1 42.5v41t1 26
q8 1 14 3t6 10q-1 8 -5.5 10t-12.5 2h-25q-8 0 -14.5 -2.5t-6.5 -10.5q-2 -8 6.5 -11t10.5 -1q0 -41 0.5 -66t1.5 -39.5t1 -21.5v-12q-7 0 -14.5 -2.5t-6.5 -11.5zM304 623q-9 8 -15 2l-25 -24q-4 -4 -3 -8t4 -6.5t7.5 -3.5t8.5 2l24 23q3 3 2.5 7.5t-3.5 7.5z" />
    <glyph glyph-name="lcaron" unicode="&#x13e;" 
d="M222 386q0 -7 4.5 -9t10.5 -2q1 0 4 -0.5t11.5 -0.5h25.5t48 2q11 1 12.5 6.5t1.5 14.5q-1 8 -1.5 20t-11.5 12q-6 0 -10.5 -3t-4.5 -11v-11q0 -2 -6 -3t-13.5 -1h-15h-8.5q-1 9 -2 29.5t-1 42.5v41t1 26q8 1 14 3t6 10q-1 8 -5.5 10t-12.5 2h-25q-8 0 -14.5 -2.5
t-6.5 -10.5q-2 -8 6.5 -11t10.5 -1q0 -41 0.5 -66t1.5 -39.5t1 -21.5v-12q-7 0 -14.5 -2.5t-6.5 -11.5zM415 749h58v-93h77l-267 -578l-267 578h76v93h59v-93h264v93zM329 521q6 5 11 20.5t-3 33.5q-2 3 -6 4t-8 -0.5t-7 -5t-2 -8.5q2 -5 3.5 -12t-6.5 -18q-5 -8 3.5 -13.5
t14.5 -0.5z" />
    <glyph glyph-name="lcommaaccent" unicode="&#x13c;" 
d="M416 749h58v-93h77l-267 -578l-267 578h76v93h59v-93h264v93zM222 386q0 -7 4.5 -9t10.5 -2q1 0 4 -0.5t11.5 -0.5h25.5t48 2q11 1 12.5 6.5t1.5 14.5q-1 8 -1.5 20t-11.5 12q-6 0 -10.5 -3t-4.5 -11v-11q0 -2 -6 -3t-13.5 -1h-15h-8.5q-1 9 -2 29.5t-1 42.5v41t1 26
q8 1 14 3t6 10q-1 8 -5.5 10t-12.5 2h-25q-8 0 -14.5 -2.5t-6.5 -10.5q-2 -8 6.5 -11t10.5 -1q0 -41 0.5 -66t1.5 -39.5t1 -21.5v-12q-7 0 -14.5 -2.5t-6.5 -11.5zM286 302q6 5 10.5 20.5t-3.5 33.5q-2 3 -6 3.5t-8 -1t-6.5 -5t-1.5 -7.5q2 -5 3.5 -12t-6.5 -18
q-6 -8 3 -13.5t15 -0.5z" />
    <glyph glyph-name="ldot" unicode="&#x140;" 
d="M416 749h58v-93h77l-267 -578l-267 578h76v93h59v-93h264v93zM222 386q0 -7 4.5 -9t10.5 -2q1 0 4 -0.5t11.5 -0.5h25.5t48 2q11 1 12.5 6.5t1.5 14.5q-1 8 -1.5 20t-11.5 12q-6 0 -10.5 -3t-4.5 -11v-11q0 -2 -6 -3t-13.5 -1h-15h-8.5q-1 9 -2 29.5t-1 42.5v41t1 26
q8 1 14 3t6 10q-1 8 -5.5 10t-12.5 2h-25q-8 0 -14.5 -2.5t-6.5 -10.5q-2 -8 6.5 -11t10.5 -1q0 -41 0.5 -66t1.5 -39.5t1 -21.5v-12q-7 0 -14.5 -2.5t-6.5 -11.5zM329 474q8 1 11.5 6.5t2.5 11t-6 9.5t-12 3q-8 -1 -11.5 -6.5t-2.5 -11t5.5 -10t12.5 -2.5z" />
    <glyph glyph-name="lslash" unicode="&#x142;" 
d="M414 749h58v-93h77l-267 -578l-267 578h76v93h59v-93h264v93zM214 464q3 -10 12 -7q4 2 7.5 2.5t6.5 2.5q1 -32 2 -43.5t1 -18.5q-7 0 -14.5 -2.5t-6.5 -11.5q0 -7 4.5 -9t10.5 -2q1 0 4 -0.5t11.5 -0.5h25.5t48 2q11 1 12.5 6.5t1.5 14.5q-1 8 -1.5 20t-11.5 12
q-6 0 -10.5 -3t-4.5 -11v-11q0 -2 -6 -3t-13.5 -1h-15h-8.5q-2 9 -2.5 28.5t-0.5 40.5q8 3 14.5 5.5t11.5 5.5q4 2 5.5 6.5t0.5 8.5t-4.5 6.5t-8.5 0.5l-19 -7v26.5t1 17.5q8 1 14 3t6 10q-1 8 -5.5 10t-12.5 2h-25q-8 0 -14.5 -2.5t-6.5 -10.5q-2 -8 6.5 -11t10.5 -1v-53
l-22 -8q-8 -3 -4 -14z" />
    <glyph glyph-name="nacute" unicode="&#x144;" 
d="M416 749h58v-93h77l-267 -578l-267 578h76v93h59v-93h264v93zM207 387q1 -8 5 -10t9 -2h33q12 2 12 12q0 8 -5.5 11t-12.5 2q0 10 -0.5 28t-0.5 37t0.5 35.5t0.5 22.5l66 -136q4 -6 7 -9t12 -3h13q7 0 9.5 3.5t2.5 8.5q-1 8 -4 10t-11 2l-1 141q13 0 14 13q0 9 -7.5 10.5
t-19.5 1.5q-11 0 -19 -1t-8 -12q1 -7 5.5 -9.5t9.5 -2.5l2 -109l-60 122q-2 3 -6.5 7t-16.5 5q-7 0 -18.5 -1t-11.5 -12q0 -3 1.5 -6.5t9.5 -4.5h6v-141q-2 -1 -9 -2t-7 -11zM304 623q-9 8 -15 2l-25 -24q-4 -4 -3 -8t4 -6.5t7.5 -3.5t8.5 2l24 23q3 3 2.5 7.5t-3.5 7.5z
" />
    <glyph glyph-name="napostrophe" unicode="&#x149;" 
d="M416 749h58v-93h77l-267 -578l-267 578h76v93h59v-93h264v93zM207 387q1 -8 5 -10t9 -2h33q12 2 12 12q0 8 -5.5 11t-12.5 2q0 10 -0.5 28t-0.5 37t0.5 35.5t0.5 22.5l66 -136q4 -6 7 -9t12 -3h13q7 0 9.5 3.5t2.5 8.5q-1 8 -4 10t-11 2l-1 141q13 0 14 13q0 9 -7.5 10.5
t-19.5 1.5q-11 0 -19 -1t-8 -12q1 -7 5.5 -9.5t9.5 -2.5l2 -109l-60 122q-2 3 -6.5 7t-16.5 5q-7 0 -18.5 -1t-11.5 -12q0 -3 1.5 -6.5t9.5 -4.5h6v-141q-2 -1 -9 -2t-7 -11zM312 619q1 4 -1.5 7t-6 4t-7 0.5t-4.5 -3.5l-10 -22l-8 20q-2 4 -6.5 5t-8.5 0t-7 -4.5t-1 -8.5
l13 -26q6 -11 18 -10.5t17 12.5z" />
    <glyph glyph-name="ncommaaccent" unicode="&#x146;" 
d="M416 749h58v-93h77l-267 -578l-267 578h76v93h59v-93h264v93zM207 387q1 -8 5 -10t9 -2h33q12 2 12 12q0 8 -5.5 11t-12.5 2q0 10 -0.5 28t-0.5 37t0.5 35.5t0.5 22.5l66 -136q4 -6 7 -9t12 -3h13q7 0 9.5 3.5t2.5 8.5q-1 8 -4 10t-11 2l-1 141q13 0 14 13q0 9 -7.5 10.5
t-19.5 1.5q-11 0 -19 -1t-8 -12q1 -7 5.5 -9.5t9.5 -2.5l2 -109l-60 122q-2 3 -6.5 7t-16.5 5q-7 0 -18.5 -1t-11.5 -12q0 -3 1.5 -6.5t9.5 -4.5h6v-141q-2 -1 -9 -2t-7 -11zM286 302q6 5 10.5 20.5t-3.5 33.5q-2 3 -6 3.5t-8 -1t-6.5 -5t-1.5 -7.5q2 -5 3.5 -12t-6.5 -18
q-6 -8 3 -13.5t15 -0.5z" />
    <glyph glyph-name="ntilde" unicode="&#xf1;" 
d="M416 749h58v-93h77l-267 -578l-267 578h76v93h59v-93h264v93zM207 387q1 -8 5 -10t9 -2h33q12 2 12 12q0 8 -5.5 11t-12.5 2q0 10 -0.5 28t-0.5 37t0.5 35.5t0.5 22.5l66 -136q4 -6 7 -9t12 -3h13q7 0 9.5 3.5t2.5 8.5q-1 8 -4 10t-11 2l-1 141q13 0 14 13q0 9 -7.5 10.5
t-19.5 1.5q-11 0 -19 -1t-8 -12q1 -7 5.5 -9.5t9.5 -2.5l2 -109l-60 122q-2 3 -6.5 7t-16.5 5q-7 0 -18.5 -1t-11.5 -12q0 -3 1.5 -6.5t9.5 -4.5h6v-141q-2 -1 -9 -2t-7 -11zM226 593q0 -11 13 -11q4 0 6 2t4 5t4.5 5t7.5 2q11 0 17.5 -7t18.5 -7q23 0 35 20q8 11 3 20
q-3 5 -10 5q-5 0 -7 -2.5t-4.5 -6t-5 -6.5t-8.5 -4q-5 -1 -9.5 1t-9 4.5t-9.5 5t-11 2.5q-12 0 -22.5 -8t-12.5 -20z" />
    <glyph glyph-name="oacute" unicode="&#xf3;" 
d="M416 749h58v-93h77l-267 -578l-267 578h76v93h59v-93h264v93zM222 462q-1 -36 16.5 -61.5t45.5 -25.5t44 27.5t16 61.5q-1 38 -15.5 67.5t-43.5 31.5q-16 1 -27.5 -8t-19.5 -23t-12 -32.5t-4 -37.5zM247 463q0 13 2.5 26.5t7 24t11.5 17.5t16 7q10 0 16.5 -7.5t11 -19
t6.5 -25t2 -24.5q0 -10 -2 -21.5t-6.5 -21t-11 -15.5t-16.5 -6q-20 0 -28.5 20.5t-8.5 44.5zM304 623q-9 8 -15 2l-25 -24q-4 -4 -3 -8t4 -6.5t7.5 -3.5t8.5 2l24 23q3 3 2.5 7.5t-3.5 7.5z" />
    <glyph glyph-name="obreve" unicode="&#x14f;" 
d="M416 749h58v-93h77l-267 -578l-267 578h76v93h59v-93h264v93zM222 462q-1 -36 16.5 -61.5t45.5 -25.5t44 27.5t16 61.5q-1 38 -15.5 67.5t-43.5 31.5q-16 1 -27.5 -8t-19.5 -23t-12 -32.5t-4 -37.5zM247 463q0 13 2.5 26.5t7 24t11.5 17.5t16 7q10 0 16.5 -7.5t11 -19
t6.5 -25t2 -24.5q0 -10 -2 -21.5t-6.5 -21t-11 -15.5t-16.5 -6q-20 0 -28.5 20.5t-8.5 44.5zM242 612q2 -14 12.5 -21.5t24.5 -7.5q12 1 24 7t16 22q1 4 -1.5 7t-6 3.5t-7 -1t-4.5 -5.5q-2 -9 -8.5 -12t-13.5 -3q-13 0 -17 13q-2 7 -11 6t-8 -8z" />
    <glyph glyph-name="ocircumflex" unicode="&#xf4;" 
d="M416 749h58v-93h77l-267 -578l-267 578h76v93h59v-93h264v93zM222 462q-1 -36 16.5 -61.5t45.5 -25.5t44 27.5t16 61.5q-1 38 -15.5 67.5t-43.5 31.5q-16 1 -27.5 -8t-19.5 -23t-12 -32.5t-4 -37.5zM247 463q0 13 2.5 26.5t7 24t11.5 17.5t16 7q10 0 16.5 -7.5t11 -19
t6.5 -25t2 -24.5q0 -10 -2 -21.5t-6.5 -21t-11 -15.5t-16.5 -6q-20 0 -28.5 20.5t-8.5 44.5zM251 593q-1 -5 1.5 -7.5t6 -4t7 -0.5t4.5 4l10 22l8 -20q2 -4 6.5 -5t8.5 0t6.5 4.5t1.5 8.5l-13 25q-6 12 -18 11.5t-17 -12.5z" />
    <glyph glyph-name="odieresis" unicode="&#xf6;" 
d="M416 749h58v-93h77l-267 -578l-267 578h76v93h59v-93h264v93zM222 462q-1 -36 16.5 -61.5t45.5 -25.5t44 27.5t16 61.5q-1 38 -15.5 67.5t-43.5 31.5q-16 1 -27.5 -8t-19.5 -23t-12 -32.5t-4 -37.5zM247 463q0 13 2.5 26.5t7 24t11.5 17.5t16 7q10 0 16.5 -7.5t11 -19
t6.5 -25t2 -24.5q0 -10 -2 -21.5t-6.5 -21t-11 -15.5t-16.5 -6q-20 0 -28.5 20.5t-8.5 44.5zM262 586q8 1 11.5 6.5t2.5 11t-6 9.5t-12 3q-8 -1 -11.5 -6.5t-2.5 -11.5t5.5 -10t12.5 -2zM307 586q8 1 11 6.5t2 11t-6 9.5t-12 3q-8 -1 -11.5 -6.5t-2.5 -11.5t6 -10t13 -2z
" />
    <glyph glyph-name="ograve" unicode="&#xf2;" 
d="M416 749h58v-93h77l-267 -578l-267 578h76v93h59v-93h264v93zM222 462q-1 -36 16.5 -61.5t45.5 -25.5t44 27.5t16 61.5q-1 38 -15.5 67.5t-43.5 31.5q-16 1 -27.5 -8t-19.5 -23t-12 -32.5t-4 -37.5zM247 463q0 13 2.5 26.5t7 24t11.5 17.5t16 7q10 0 16.5 -7.5t11 -19
t6.5 -25t2 -24.5q0 -10 -2 -21.5t-6.5 -21t-11 -15.5t-16.5 -6q-20 0 -28.5 20.5t-8.5 44.5zM259 623q-3 -3 -3.5 -7.5t2.5 -7.5l24 -23q4 -3 8.5 -2t7.5 3.5t4 6.5t-3 8l-25 24q-6 6 -15 -2z" />
    <glyph glyph-name="ohungarumlaut" unicode="&#x151;" 
d="M416 749h58v-93h77l-267 -578l-267 578h76v93h59v-93h264v93zM222 462q-1 -36 16.5 -61.5t45.5 -25.5t44 27.5t16 61.5q-1 38 -15.5 67.5t-43.5 31.5q-16 1 -27.5 -8t-19.5 -23t-12 -32.5t-4 -37.5zM247 463q0 13 2.5 26.5t7 24t11.5 17.5t16 7q10 0 16.5 -7.5t11 -19
t6.5 -25t2 -24.5q0 -10 -2 -21.5t-6.5 -21t-11 -15.5t-16.5 -6q-20 0 -28.5 20.5t-8.5 44.5zM285 630q-9 8 -15 2l-25 -24q-4 -4 -3 -8t4 -6.5t7.5 -3.5t8.5 2l24 23q3 3 2.5 7.5t-3.5 7.5zM324 627q-8 9 -15 2l-25 -23q-4 -4 -3 -8t4.5 -7t8 -3.5t7.5 2.5l25 23q5 7 -2 14z
" />
    <glyph glyph-name="omacron" unicode="&#x14d;" 
d="M416 749h58v-93h77l-267 -578l-267 578h76v93h59v-93h264v93zM222 462q-1 -36 16.5 -61.5t45.5 -25.5t44 27.5t16 61.5q-1 38 -15.5 67.5t-43.5 31.5q-16 1 -27.5 -8t-19.5 -23t-12 -32.5t-4 -37.5zM247 463q0 13 2.5 26.5t7 24t11.5 17.5t16 7q10 0 16.5 -7.5t11 -19
t6.5 -25t2 -24.5q0 -10 -2 -21.5t-6.5 -21t-11 -15.5t-16.5 -6q-20 0 -28.5 20.5t-8.5 44.5zM234 591q0 -4 2.5 -7.5t7.5 -3.5q30 0 44.5 -1t25.5 1q9 1 10 12t-9 11h-71q-5 0 -7.5 -3.5t-2.5 -8.5z" />
    <glyph glyph-name="oslash" unicode="&#xf8;" 
d="M416 749h58v-93h77l-267 -578l-267 578h76v93h59v-93h264v93zM254 384q14 -11 33 -11q28 0 44 27.5t16 61.5q-1 19 -4.5 36t-11.5 31l10 18q1 3 -1 6t-6 5.5t-8 2.5t-6 -4l-4 -8q-12 11 -28 12t-27.5 -8t-19.5 -23t-12 -32.5t-4 -37.5q-1 -30 12 -55l-9 -17
q-3 -6 5.5 -12t16.5 0zM323 460q0 -10 -2 -21.5t-6.5 -21t-11 -15.5t-16.5 -6q-13 0 -22 9l52 97q3 -11 4.5 -22t1.5 -20zM250 461q0 13 2.5 26.5t7 24t11.5 17.5t16 7t17 -8l-51 -95q-3 13 -3 28z" />
    <glyph glyph-name="oslashacute" unicode="&#x1ff;" 
d="M416 749h58v-93h77l-267 -578l-267 578h76v93h59v-93h264v93zM254 381q14 -11 33 -11q28 0 44 27.5t16 61.5q-1 19 -4.5 36t-11.5 31l10 18q1 3 -1 6t-6 5.5t-8 2.5t-6 -4l-4 -8q-12 11 -28 12t-27.5 -8t-19.5 -23t-12 -32.5t-4 -37.5q-1 -30 12 -55l-9 -17
q-3 -6 5.5 -12t16.5 0zM323 457q0 -10 -2 -21.5t-6.5 -21t-11 -15.5t-16.5 -6q-13 0 -22 9l52 97q3 -11 4.5 -22t1.5 -20zM250 458q0 13 2.5 26.5t7 24t11.5 17.5t16 7t17 -8l-51 -95q-3 13 -3 28zM304 623q-9 8 -15 2l-25 -24q-4 -4 -3 -8t4 -6.5t7.5 -3.5t8.5 2l24 23
q3 3 2.5 7.5t-3.5 7.5z" />
    <glyph glyph-name="otilde" unicode="&#xf5;" 
d="M416 749h58v-93h77l-267 -578l-267 578h76v93h59v-93h264v93zM222 462q-1 -36 16.5 -61.5t45.5 -25.5t44 27.5t16 61.5q-1 38 -15.5 67.5t-43.5 31.5q-16 1 -27.5 -8t-19.5 -23t-12 -32.5t-4 -37.5zM247 463q0 13 2.5 26.5t7 24t11.5 17.5t16 7q10 0 16.5 -7.5t11 -19
t6.5 -25t2 -24.5q0 -10 -2 -21.5t-6.5 -21t-11 -15.5t-16.5 -6q-20 0 -28.5 20.5t-8.5 44.5zM226 593q0 -11 13 -11q4 0 6 2t4 5t4.5 5t7.5 2q11 0 17.5 -7t18.5 -7q23 0 35 20q8 11 3 20q-3 5 -10 5q-5 0 -7 -2.5t-4.5 -6t-5 -6.5t-8.5 -4q-5 -1 -9.5 1t-9 4.5t-9.5 5
t-11 2.5q-12 0 -22.5 -8t-12.5 -20z" />
    <glyph glyph-name="racute" unicode="&#x155;" 
d="M416 749h58v-93h77l-267 -578l-267 578h76v93h59v-93h264v93zM295 382q2 -3 7.5 -6.5t19.5 7.5q12 9 17.5 15.5t1.5 13.5q-4 6 -10.5 6t-11.5 -4l-34 41q20 1 35.5 14.5t16.5 36.5q1 17 -6 30t-19 20t-26.5 6t-28.5 -11q0 6 -5 11q-8 4 -25 1q-1 0 -2 -0.5t-2 -0.5
q-5 -3 -4.5 -13t7.5 -10h10v-32v-39.5v-38.5t-1 -29q-7 -1 -10 -5t-3 -6q-1 -9 7 -11.5t16 -3.5q14 0 22.5 2.5t8.5 11.5q0 8 -4.5 10t-13.5 2v54l42 -55q-4 -5 -6 -8.5t1 -8.5zM257 520q7 12 17 16.5t19 2.5t15.5 -10t6.5 -21q0 -12 -7 -19t-16 -10t-18.5 -2t-16.5 4v39z
M304 623q-9 8 -15 2l-25 -24q-4 -4 -3 -8t4 -6.5t7.5 -3.5t8.5 2l24 23q3 3 2.5 7.5t-3.5 7.5z" />
    <glyph glyph-name="rcaron" unicode="&#x159;" 
d="M416 749h58v-93h77l-267 -578l-267 578h76v93h59v-93h264v93zM295 382q2 -3 7.5 -6.5t19.5 7.5q12 9 17.5 15.5t1.5 13.5q-4 6 -10.5 6t-11.5 -4l-34 41q20 1 35.5 14.5t16.5 36.5q1 17 -6 30t-19 20t-26.5 6t-28.5 -11q0 6 -5 11q-8 4 -25 1q-1 0 -2 -0.5t-2 -0.5
q-5 -3 -4.5 -13t7.5 -10h10v-32v-39.5v-38.5t-1 -29q-7 -1 -10 -5t-3 -6q-1 -9 7 -11.5t16 -3.5q14 0 22.5 2.5t8.5 11.5q0 8 -4.5 10t-13.5 2v54l42 -55q-4 -5 -6 -8.5t1 -8.5zM257 520q7 12 17 16.5t19 2.5t15.5 -10t6.5 -21q0 -12 -7 -19t-16 -10t-18.5 -2t-16.5 4v39z
M312 619q1 4 -1.5 7t-6 4t-7 0.5t-4.5 -3.5l-10 -22l-8 20q-2 4 -6.5 5t-8.5 0t-7 -4.5t-1 -8.5l13 -26q6 -11 18 -10.5t17 12.5z" />
    <glyph glyph-name="rcommaaccent" unicode="&#x157;" 
d="M416 749h58v-93h77l-267 -578l-267 578h76v93h59v-93h264v93zM295 382q2 -3 7.5 -6.5t19.5 7.5q12 9 17.5 15.5t1.5 13.5q-4 6 -10.5 6t-11.5 -4l-34 41q20 1 35.5 14.5t16.5 36.5q1 17 -6 30t-19 20t-26.5 6t-28.5 -11q0 6 -5 11q-8 4 -25 1q-1 0 -2 -0.5t-2 -0.5
q-5 -3 -4.5 -13t7.5 -10h10v-32v-39.5v-38.5t-1 -29q-7 -1 -10 -5t-3 -6q-1 -9 7 -11.5t16 -3.5q14 0 22.5 2.5t8.5 11.5q0 8 -4.5 10t-13.5 2v54l42 -55q-4 -5 -6 -8.5t1 -8.5zM257 520q7 12 17 16.5t19 2.5t15.5 -10t6.5 -21q0 -12 -7 -19t-16 -10t-18.5 -2t-16.5 4v39z
M286 302q6 5 10.5 20.5t-3.5 33.5q-2 3 -6 3.5t-8 -1t-6.5 -5t-1.5 -7.5q2 -5 3.5 -12t-6.5 -18q-6 -8 3 -13.5t15 -0.5z" />
    <glyph glyph-name="sacute" unicode="&#x15b;" 
d="M416 749h58v-93h77l-267 -578l-267 578h76v93h59v-93h264v93zM234 408q8 -16 22 -24.5t29 -8.5q16 -1 27.5 6t19.5 18q8 12 10 27t-5 26q-9 15 -31.5 24t-41.5 17q-11 5 -16 16t2 22q3 6 10 8.5t14.5 1t15 -6.5t10.5 -14l-5 -4q-5 -5 1 -12.5t14 -1.5l27 26q4 3 3.5 7.5
t-3 7.5t-6 4t-6.5 -2l-6 -5q-9 15 -25 20.5t-32 2.5t-28.5 -14t-13.5 -30q-1 -17 6.5 -27t18.5 -17t24 -11.5t24 -9.5q14 -6 19.5 -19.5t-2.5 -25.5q-6 -8 -14.5 -10t-17 1t-15 9.5t-7.5 16.5q2 2 4.5 5t4.5 8q1 7 -6 11.5t-15 -2.5q-7 -5 -18.5 -14.5t-11.5 -17.5
q-1 -6 2.5 -10.5t9.5 -2.5q2 1 5 4t3 1zM304 623q-9 8 -15 2l-25 -24q-4 -4 -3 -8t4 -6.5t7.5 -3.5t8.5 2l24 23q3 3 2.5 7.5t-3.5 7.5z" />
    <glyph glyph-name="scaron" unicode="&#x161;" 
d="M416 749h58v-93h77l-267 -578l-267 578h76v93h59v-93h264v93zM234 408q8 -16 22 -24.5t29 -8.5q16 -1 27.5 6t19.5 18q8 12 10 27t-5 26q-9 15 -31.5 24t-41.5 17q-11 5 -16 16t2 22q3 6 10 8.5t14.5 1t15 -6.5t10.5 -14l-5 -4q-5 -5 1 -12.5t14 -1.5l27 26q4 3 3.5 7.5
t-3 7.5t-6 4t-6.5 -2l-6 -5q-9 15 -25 20.5t-32 2.5t-28.5 -14t-13.5 -30q-1 -17 6.5 -27t18.5 -17t24 -11.5t24 -9.5q14 -6 19.5 -19.5t-2.5 -25.5q-6 -8 -14.5 -10t-17 1t-15 9.5t-7.5 16.5q2 2 4.5 5t4.5 8q1 7 -6 11.5t-15 -2.5q-7 -5 -18.5 -14.5t-11.5 -17.5
q-1 -6 2.5 -10.5t9.5 -2.5q2 1 5 4t3 1zM312 619q1 4 -1.5 7t-6 4t-7 0.5t-4.5 -3.5l-10 -22l-8 20q-2 4 -6.5 5t-8.5 0t-7 -4.5t-1 -8.5l13 -26q6 -11 18 -10.5t17 12.5z" />
    <glyph glyph-name="scedilla" unicode="&#x15f;" 
d="M416 749h58v-93h77l-267 -578l-267 578h76v93h59v-93h264v93zM281 314q13 0 21 8t8.5 17.5t-5.5 18t-19 9.5v8q15 -1 26.5 6t19.5 18q8 12 10 27t-5 26q-9 15 -31.5 24t-41.5 17q-11 5 -16 16t2 22q3 6 10 8.5t14.5 1t15 -6.5t10.5 -14l-5 -4q-5 -5 1 -12.5t14 -1.5
l27 26q4 3 3.5 7.5t-3 7.5t-6 4t-6.5 -2l-6 -5q-9 15 -25 20.5t-32 2.5t-28.5 -14t-13.5 -30q-1 -17 6.5 -27t18.5 -17t24 -11.5t24 -9.5q14 -6 19.5 -19.5t-2.5 -25.5q-6 -8 -14.5 -10t-17 1t-15 9.5t-7.5 16.5q2 2 4.5 5t4.5 8q1 7 -6 11.5t-15 -2.5q-7 -5 -18.5 -14.5
t-11.5 -17.5q-1 -6 2.5 -10.5t9.5 -2.5q2 1 5 4t3 1q11 -24 36 -31q0 -18 1 -23.5t10 -4.5q6 1 9.5 -2t3.5 -7t-3.5 -7t-10.5 -2q-7 0 -7 -8.5t8 -8.5z" />
    <glyph glyph-name="scircumflex" unicode="&#x15d;" 
d="M416 749h58v-93h77l-267 -578l-267 578h76v93h59v-93h264v93zM234 408q8 -16 22 -24.5t29 -8.5q16 -1 27.5 6t19.5 18q8 12 10 27t-5 26q-9 15 -31.5 24t-41.5 17q-11 5 -16 16t2 22q3 6 10 8.5t14.5 1t15 -6.5t10.5 -14l-5 -4q-5 -5 1 -12.5t14 -1.5l27 26q4 3 3.5 7.5
t-3 7.5t-6 4t-6.5 -2l-6 -5q-9 15 -25 20.5t-32 2.5t-28.5 -14t-13.5 -30q-1 -17 6.5 -27t18.5 -17t24 -11.5t24 -9.5q14 -6 19.5 -19.5t-2.5 -25.5q-6 -8 -14.5 -10t-17 1t-15 9.5t-7.5 16.5q2 2 4.5 5t4.5 8q1 7 -6 11.5t-15 -2.5q-7 -5 -18.5 -14.5t-11.5 -17.5
q-1 -6 2.5 -10.5t9.5 -2.5q2 1 5 4t3 1zM251 593q-1 -5 1.5 -7.5t6 -4t7 -0.5t4.5 4l10 22l8 -20q2 -4 6.5 -5t8.5 0t6.5 4.5t1.5 8.5l-13 25q-6 12 -18 11.5t-17 -12.5z" />
    <glyph glyph-name="scommaaccent" unicode="&#x219;" 
d="M416 749h58v-93h77l-267 -578l-267 578h76v93h59v-93h264v93zM234 408q8 -16 22 -24.5t29 -8.5q16 -1 27.5 6t19.5 18q8 12 10 27t-5 26q-9 15 -31.5 24t-41.5 17q-11 5 -16 16t2 22q3 6 10 8.5t14.5 1t15 -6.5t10.5 -14l-5 -4q-5 -5 1 -12.5t14 -1.5l27 26q4 3 3.5 7.5
t-3 7.5t-6 4t-6.5 -2l-6 -5q-9 15 -25 20.5t-32 2.5t-28.5 -14t-13.5 -30q-1 -17 6.5 -27t18.5 -17t24 -11.5t24 -9.5q14 -6 19.5 -19.5t-2.5 -25.5q-6 -8 -14.5 -10t-17 1t-15 9.5t-7.5 16.5q2 2 4.5 5t4.5 8q1 7 -6 11.5t-15 -2.5q-7 -5 -18.5 -14.5t-11.5 -17.5
q-1 -6 2.5 -10.5t9.5 -2.5q2 1 5 4t3 1zM286 302q6 5 10.5 20.5t-3.5 33.5q-2 3 -6 3.5t-8 -1t-6.5 -5t-1.5 -7.5q2 -5 3.5 -12t-6.5 -18q-6 -8 3 -13.5t15 -0.5z" />
    <glyph glyph-name="tbar" unicode="&#x167;" 
d="M416 749h58v-93h77l-267 -578l-267 578h76v93h59v-93h264v93zM234 487q0 -4 2.5 -7.5t7.5 -3.5q7 0 12 -0.5t10 -0.5v-75q-7 0 -14 -2.5t-6 -11.5q0 -6 4.5 -8.5t9.5 -2.5q13 -1 21 -0.5t14 0.5q18 0 18 14q0 8 -6 10t-15 1v75h12t10 1q9 1 10 12t-9 11h-23l1 40h21
q0 -11 4.5 -14.5t9.5 -3.5q17 0 14 25q-1 11 -6.5 14.5t-16.5 3.5h-80q-8 0 -15.5 -3t-8.5 -15q0 -25 15 -25q5 0 9.5 3.5t4.5 14.5h22v-40h-22q-5 0 -7.5 -3.5t-2.5 -8.5z" />
    <glyph glyph-name="tcaron" unicode="&#x165;" 
d="M416 749h58v-93h77l-267 -578l-267 578h76v93h59v-93h264v93zM266 400q-7 0 -14 -2.5t-6 -11.5q0 -6 4.5 -8.5t9.5 -2.5q13 -1 21 -0.5t14 0.5q18 0 18 14q0 8 -6 10t-15 1l1 139h21q0 -11 4.5 -14.5t9.5 -3.5q17 0 14 25q-1 11 -6.5 14.5t-16.5 3.5h-80q-8 0 -15.5 -3
t-8.5 -15q0 -25 15 -25q5 0 9.5 3.5t4.5 14.5h22v-139zM312 619q1 4 -1.5 7t-6 4t-7 0.5t-4.5 -3.5l-10 -22l-8 20q-2 4 -6.5 5t-8.5 0t-7 -4.5t-1 -8.5l13 -26q6 -11 18 -10.5t17 12.5z" />
    <glyph glyph-name="tcommaaccent" unicode="&#x163;" 
d="M416 749h58v-93h77l-267 -578l-267 578h76v93h59v-93h264v93zM266 400q-7 0 -14 -2.5t-6 -11.5q0 -6 4.5 -8.5t9.5 -2.5q13 -1 21 -0.5t14 0.5q18 0 18 14q0 8 -6 10t-15 1l1 139h21q0 -11 4.5 -14.5t9.5 -3.5q17 0 14 25q-1 11 -6.5 14.5t-16.5 3.5h-80q-8 0 -15.5 -3
t-8.5 -15q0 -25 15 -25q5 0 9.5 3.5t4.5 14.5h22v-139zM286 302q6 5 10.5 20.5t-3.5 33.5q-2 3 -6 3.5t-8 -1t-6.5 -5t-1.5 -7.5q2 -5 3.5 -12t-6.5 -18q-6 -8 3 -13.5t15 -0.5z" />
    <glyph glyph-name="uacute" unicode="&#xfa;" 
d="M416 749h58v-93h77l-267 -578l-267 578h76v93h59v-93h264v93zM331 539q14 2 14 13q0 9 -8.5 11t-17.5 2q-12 0 -19.5 -2.5t-7.5 -10.5q0 -7 5 -10t11 -2v-49t-2.5 -45t-9.5 -33t-20 -13q-11 0 -16.5 13t-8 33t-2.5 44t1 47q2 2 8.5 2.5t6.5 11.5q0 7 -5 10t-10 3
q-3 0 -14.5 -0.5t-14.5 -0.5q-11 -2 -11 -12q0 -11 4 -11.5t10 -2.5q1 -31 1 -60.5t4.5 -52t15.5 -36t33 -13.5q24 0 35 19t15 45t3.5 54t-0.5 46zM304 623q-9 8 -15 2l-25 -24q-4 -4 -3 -8t4 -6.5t7.5 -3.5t8.5 2l24 23q3 3 2.5 7.5t-3.5 7.5z" />
    <glyph glyph-name="ubreve" unicode="&#x16d;" 
d="M416 749h58v-93h77l-267 -578l-267 578h76v93h59v-93h264v93zM331 539q14 2 14 13q0 9 -8.5 11t-17.5 2q-12 0 -19.5 -2.5t-7.5 -10.5q0 -7 5 -10t11 -2v-49t-2.5 -45t-9.5 -33t-20 -13q-11 0 -16.5 13t-8 33t-2.5 44t1 47q2 2 8.5 2.5t6.5 11.5q0 7 -5 10t-10 3
q-3 0 -14.5 -0.5t-14.5 -0.5q-11 -2 -11 -12q0 -11 4 -11.5t10 -2.5q1 -31 1 -60.5t4.5 -52t15.5 -36t33 -13.5q24 0 35 19t15 45t3.5 54t-0.5 46zM242 612q2 -14 12.5 -21.5t24.5 -7.5q12 1 24 7t16 22q1 4 -1.5 7t-6 3.5t-7 -1t-4.5 -5.5q-2 -9 -8.5 -12t-13.5 -3
q-13 0 -17 13q-2 7 -11 6t-8 -8z" />
    <glyph glyph-name="ucircumflex" unicode="&#xfb;" 
d="M416 749h58v-93h77l-267 -578l-267 578h76v93h59v-93h264v93zM331 539q14 2 14 13q0 9 -8.5 11t-17.5 2q-12 0 -19.5 -2.5t-7.5 -10.5q0 -7 5 -10t11 -2v-49t-2.5 -45t-9.5 -33t-20 -13q-11 0 -16.5 13t-8 33t-2.5 44t1 47q2 2 8.5 2.5t6.5 11.5q0 7 -5 10t-10 3
q-3 0 -14.5 -0.5t-14.5 -0.5q-11 -2 -11 -12q0 -11 4 -11.5t10 -2.5q1 -31 1 -60.5t4.5 -52t15.5 -36t33 -13.5q24 0 35 19t15 45t3.5 54t-0.5 46zM251 593q-1 -5 1.5 -7.5t6 -4t7 -0.5t4.5 4l10 22l8 -20q2 -4 6.5 -5t8.5 0t6.5 4.5t1.5 8.5l-13 25q-6 12 -18 11.5
t-17 -12.5z" />
    <glyph glyph-name="udieresis" unicode="&#xfc;" 
d="M416 749h58v-93h77l-267 -578l-267 578h76v93h59v-93h264v93zM331 539q14 2 14 13q0 9 -8.5 11t-17.5 2q-12 0 -19.5 -2.5t-7.5 -10.5q0 -7 5 -10t11 -2v-49t-2.5 -45t-9.5 -33t-20 -13q-11 0 -16.5 13t-8 33t-2.5 44t1 47q2 2 8.5 2.5t6.5 11.5q0 7 -5 10t-10 3
q-3 0 -14.5 -0.5t-14.5 -0.5q-11 -2 -11 -12q0 -11 4 -11.5t10 -2.5q1 -31 1 -60.5t4.5 -52t15.5 -36t33 -13.5q24 0 35 19t15 45t3.5 54t-0.5 46zM262 586q8 1 11.5 6.5t2.5 11t-6 9.5t-12 3q-8 -1 -11.5 -6.5t-2.5 -11.5t5.5 -10t12.5 -2zM307 586q8 1 11 6.5t2 11t-6 9.5
t-12 3q-8 -1 -11.5 -6.5t-2.5 -11.5t6 -10t13 -2z" />
    <glyph glyph-name="uhungarumlaut" unicode="&#x171;" 
d="M416 749h58v-93h77l-267 -578l-267 578h76v93h59v-93h264v93zM331 539q14 2 14 13q0 9 -8.5 11t-17.5 2q-12 0 -19.5 -2.5t-7.5 -10.5q0 -7 5 -10t11 -2v-49t-2.5 -45t-9.5 -33t-20 -13q-11 0 -16.5 13t-8 33t-2.5 44t1 47q2 2 8.5 2.5t6.5 11.5q0 7 -5 10t-10 3
q-3 0 -14.5 -0.5t-14.5 -0.5q-11 -2 -11 -12q0 -11 4 -11.5t10 -2.5q1 -31 1 -60.5t4.5 -52t15.5 -36t33 -13.5q24 0 35 19t15 45t3.5 54t-0.5 46zM259 623q-3 -3 -3.5 -7.5t2.5 -7.5l24 -23q4 -3 8.5 -2t7.5 3.5t4 6.5t-3 8l-25 24q-6 6 -15 -2z" />
    <glyph glyph-name="ugrave" unicode="&#xf9;" 
d="M416 749h58v-93h77l-267 -578l-267 578h76v93h59v-93h264v93zM331 539q14 2 14 13q0 9 -8.5 11t-17.5 2q-12 0 -19.5 -2.5t-7.5 -10.5q0 -7 5 -10t11 -2v-49t-2.5 -45t-9.5 -33t-20 -13q-11 0 -16.5 13t-8 33t-2.5 44t1 47q2 2 8.5 2.5t6.5 11.5q0 7 -5 10t-10 3
q-3 0 -14.5 -0.5t-14.5 -0.5q-11 -2 -11 -12q0 -11 4 -11.5t10 -2.5q1 -31 1 -60.5t4.5 -52t15.5 -36t33 -13.5q24 0 35 19t15 45t3.5 54t-0.5 46zM285 630q-9 8 -15 2l-25 -24q-4 -4 -3 -8t4 -6.5t7.5 -3.5t8.5 2l24 23q3 3 2.5 7.5t-3.5 7.5zM324 627q-8 9 -15 2l-25 -23
q-4 -4 -3 -8t4.5 -7t8 -3.5t7.5 2.5l25 23q5 7 -2 14z" />
    <glyph glyph-name="umacron" unicode="&#x16b;" 
d="M416 749h58v-93h77l-267 -578l-267 578h76v93h59v-93h264v93zM331 539q14 2 14 13q0 9 -8.5 11t-17.5 2q-12 0 -19.5 -2.5t-7.5 -10.5q0 -7 5 -10t11 -2v-49t-2.5 -45t-9.5 -33t-20 -13q-11 0 -16.5 13t-8 33t-2.5 44t1 47q2 2 8.5 2.5t6.5 11.5q0 7 -5 10t-10 3
q-3 0 -14.5 -0.5t-14.5 -0.5q-11 -2 -11 -12q0 -11 4 -11.5t10 -2.5q1 -31 1 -60.5t4.5 -52t15.5 -36t33 -13.5q24 0 35 19t15 45t3.5 54t-0.5 46zM234 591q0 -4 2.5 -7.5t7.5 -3.5q30 0 44.5 -1t25.5 1q9 1 10 12t-9 11h-71q-5 0 -7.5 -3.5t-2.5 -8.5z" />
    <glyph glyph-name="uogonek" unicode="&#x173;" 
d="M416 749h58v-93h77l-267 -578l-267 578h76v93h59v-93h264v93zM331 539q14 2 14 13q0 9 -8.5 11t-17.5 2q-12 0 -19.5 -2.5t-7.5 -10.5q0 -7 5 -10t11 -2v-49t-2.5 -45t-9.5 -33t-20 -13q-11 0 -16.5 13t-8 33t-2.5 44t1 47q2 2 8.5 2.5t6.5 11.5q0 7 -5 10t-10 3
q-3 0 -14.5 -0.5t-14.5 -0.5q-11 -2 -11 -12q0 -11 4 -11.5t10 -2.5q0 -26 0.5 -51t3 -46t8.5 -36.5t18 -22.5q-7 -14 -3.5 -27t14.5 -19q8 -4 13 4t-1 11q-7 3 -8 10.5t3 14.5h6q24 0 35 19t15 45t3.5 54t-0.5 46z" />
    <glyph glyph-name="uring" unicode="&#x16f;" 
d="M416 749h58v-93h77l-267 -578l-267 578h76v93h59v-93h264v93zM331 539q14 2 14 13q0 9 -8.5 11t-17.5 2q-12 0 -19.5 -2.5t-7.5 -10.5q0 -7 5 -10t11 -2v-49t-2.5 -45t-9.5 -33t-20 -13q-11 0 -16.5 13t-8 33t-2.5 44t1 47q2 2 8.5 2.5t6.5 11.5q0 7 -5 10t-10 3
q-3 0 -14.5 -0.5t-14.5 -0.5q-11 -2 -11 -12q0 -11 4 -11.5t10 -2.5q1 -31 1 -60.5t4.5 -52t15.5 -36t33 -13.5q24 0 35 19t15 45t3.5 54t-0.5 46zM253 608q0 -14 9 -20t20 -6t20 6.5t9 19.5t-9 20t-19.5 7t-20 -7t-9.5 -20zM290 608q0 -5 -8.5 -5.5t-8.5 5.5q1 8 9.5 7
t7.5 -7z" />
    <glyph glyph-name="utilde" unicode="&#x169;" 
d="M416 749h58v-93h77l-267 -578l-267 578h76v93h59v-93h264v93zM331 539q14 2 14 13q0 9 -8.5 11t-17.5 2q-12 0 -19.5 -2.5t-7.5 -10.5q0 -7 5 -10t11 -2v-49t-2.5 -45t-9.5 -33t-20 -13q-11 0 -16.5 13t-8 33t-2.5 44t1 47q2 2 8.5 2.5t6.5 11.5q0 7 -5 10t-10 3
q-3 0 -14.5 -0.5t-14.5 -0.5q-11 -2 -11 -12q0 -11 4 -11.5t10 -2.5q1 -31 1 -60.5t4.5 -52t15.5 -36t33 -13.5q24 0 35 19t15 45t3.5 54t-0.5 46zM226 593q0 -11 13 -11q4 0 6 2t4 5t4.5 5t7.5 2q11 0 17.5 -7t18.5 -7q23 0 35 20q8 11 3 20q-3 5 -10 5q-5 0 -7 -2.5
t-4.5 -6t-5 -6.5t-8.5 -4q-5 -1 -9.5 1t-9 4.5t-9.5 5t-11 2.5q-12 0 -22.5 -8t-12.5 -20z" />
    <glyph glyph-name="wacute" unicode="&#x1e83;" 
d="M416 749h58v-93h77l-267 -578l-267 578h76v93h59v-93h264v93zM357 384q-1 9 -5 10.5t-6 2.5l32 137q2 0 4.5 -1t4.5 -1q8 1 8 10q-1 8 -8.5 12t-12.5 6q-7 5 -14 4q-9 0 -9 -11q1 -5 6 -10l-30 -123l-22 98q-3 6 -14.5 8.5t-16.5 -8.5l-26 -96l-39 120q3 2 4 3.5t2 6.5
q0 4 -2.5 7.5t-6.5 3.5q-6 0 -14 -4q-5 -3 -11.5 -6.5t-7.5 -10.5q0 -10 7 -10q2 -1 3.5 -0.5t3.5 0.5l45 -135q-2 -1 -6 -2t-5 -10q0 -5 3.5 -8t8.5 -3q14 1 28 1.5t15 9.5q1 6 -2 8.5t-8 4.5l24 90l20 -92q-10 -2 -10 -12q0 -5 4.5 -7.5t10.5 -2.5h29q5 0 9 2.5t4 7.5z
M304 623q-9 8 -15 2l-25 -24q-4 -4 -3 -8t4 -6.5t7.5 -3.5t8.5 2l24 23q3 3 2.5 7.5t-3.5 7.5z" />
    <glyph glyph-name="wcircumflex" unicode="&#x175;" 
d="M416 749h58v-93h77l-267 -578l-267 578h76v93h59v-93h264v93zM357 384q-1 9 -5 10.5t-6 2.5l32 137q2 0 4.5 -1t4.5 -1q8 1 8 10q-1 8 -8.5 12t-12.5 6q-7 5 -14 4q-9 0 -9 -11q1 -5 6 -10l-30 -123l-22 98q-3 6 -14.5 8.5t-16.5 -8.5l-26 -96l-39 120q3 2 4 3.5t2 6.5
q0 4 -2.5 7.5t-6.5 3.5q-6 0 -14 -4q-5 -3 -11.5 -6.5t-7.5 -10.5q0 -10 7 -10q2 -1 3.5 -0.5t3.5 0.5l45 -135q-2 -1 -6 -2t-5 -10q0 -5 3.5 -8t8.5 -3q14 1 28 1.5t15 9.5q1 6 -2 8.5t-8 4.5l24 90l20 -92q-10 -2 -10 -12q0 -5 4.5 -7.5t10.5 -2.5h29q5 0 9 2.5t4 7.5z
M251 593q-1 -5 1.5 -7.5t6 -4t7 -0.5t4.5 4l10 22l8 -20q2 -4 6.5 -5t8.5 0t6.5 4.5t1.5 8.5l-13 25q-6 12 -18 11.5t-17 -12.5z" />
    <glyph glyph-name="wdieresis" unicode="&#x1e85;" 
d="M416 749h58v-93h77l-267 -578l-267 578h76v93h59v-93h264v93zM357 384q-1 9 -5 10.5t-6 2.5l32 137q2 0 4.5 -1t4.5 -1q8 1 8 10q-1 8 -8.5 12t-12.5 6q-7 5 -14 4q-9 0 -9 -11q1 -5 6 -10l-30 -123l-22 98q-3 6 -14.5 8.5t-16.5 -8.5l-26 -96l-39 120q3 2 4 3.5t2 6.5
q0 4 -2.5 7.5t-6.5 3.5q-6 0 -14 -4q-5 -3 -11.5 -6.5t-7.5 -10.5q0 -10 7 -10q2 -1 3.5 -0.5t3.5 0.5l45 -135q-2 -1 -6 -2t-5 -10q0 -5 3.5 -8t8.5 -3q14 1 28 1.5t15 9.5q1 6 -2 8.5t-8 4.5l24 90l20 -92q-10 -2 -10 -12q0 -5 4.5 -7.5t10.5 -2.5h29q5 0 9 2.5t4 7.5z
M262 586q8 1 11.5 6.5t2.5 11t-6 9.5t-12 3q-8 -1 -11.5 -6.5t-2.5 -11.5t5.5 -10t12.5 -2zM307 586q8 1 11 6.5t2 11t-6 9.5t-12 3q-8 -1 -11.5 -6.5t-2.5 -11.5t6 -10t13 -2z" />
    <glyph glyph-name="wgrave" unicode="&#x1e81;" 
d="M416 749h58v-93h77l-267 -578l-267 578h76v93h59v-93h264v93zM357 384q-1 9 -5 10.5t-6 2.5l32 137q2 0 4.5 -1t4.5 -1q8 1 8 10q-1 8 -8.5 12t-12.5 6q-7 5 -14 4q-9 0 -9 -11q1 -5 6 -10l-30 -123l-22 98q-3 6 -14.5 8.5t-16.5 -8.5l-26 -96l-39 120q3 2 4 3.5t2 6.5
q0 4 -2.5 7.5t-6.5 3.5q-6 0 -14 -4q-5 -3 -11.5 -6.5t-7.5 -10.5q0 -10 7 -10q2 -1 3.5 -0.5t3.5 0.5l45 -135q-2 -1 -6 -2t-5 -10q0 -5 3.5 -8t8.5 -3q14 1 28 1.5t15 9.5q1 6 -2 8.5t-8 4.5l24 90l20 -92q-10 -2 -10 -12q0 -5 4.5 -7.5t10.5 -2.5h29q5 0 9 2.5t4 7.5z
M259 623q-3 -3 -3.5 -7.5t2.5 -7.5l24 -23q4 -3 8.5 -2t7.5 3.5t4 6.5t-3 8l-25 24q-6 6 -15 -2z" />
    <glyph glyph-name="yacute" unicode="&#xfd;" 
d="M416 749h58v-93h77l-267 -578l-267 578h76v93h59v-93h264v93zM297 459l32 78q5 -2 9 -1t6 8q1 4 -2.5 8t-9.5 7t-12.5 4.5t-10.5 1.5q-5 0 -8 -2.5t-1 -7.5q1 -5 3 -7t2 -3v-1l-23 -57q0 1 -3.5 7.5t-8.5 15t-10.5 17.5t-8.5 15q3 3 4.5 7.5t-1.5 8.5q-4 6 -9 5
q-7 1 -13 -3q-5 -3 -13 -8t-8 -13q0 -2 1 -3q2 -5 6 -6t9 1q14 -21 24.5 -39t19.5 -33v-59q-16 0 -16 -14q0 -5 4.5 -8t9.5 -4q13 0 17.5 0.5t10.5 0.5q8 0 13.5 4t4.5 9q-2 7 -5.5 10t-12.5 2v59zM304 623q-9 8 -15 2l-25 -24q-4 -4 -3 -8t4 -6.5t7.5 -3.5t8.5 2l24 23
q3 3 2.5 7.5t-3.5 7.5z" />
    <glyph glyph-name="ycircumflex" unicode="&#x177;" 
d="M416 749h58v-93h77l-267 -578l-267 578h76v93h59v-93h264v93zM297 459l32 78q5 -2 9 -1t6 8q1 4 -2.5 8t-9.5 7t-12.5 4.5t-10.5 1.5q-5 0 -8 -2.5t-1 -7.5q1 -5 3 -7t2 -3v-1l-23 -57q0 1 -3.5 7.5t-8.5 15t-10.5 17.5t-8.5 15q3 3 4.5 7.5t-1.5 8.5q-4 6 -9 5
q-7 1 -13 -3q-5 -3 -13 -8t-8 -13q0 -2 1 -3q2 -5 6 -6t9 1q14 -21 24.5 -39t19.5 -33v-59q-16 0 -16 -14q0 -5 4.5 -8t9.5 -4q13 0 17.5 0.5t10.5 0.5q8 0 13.5 4t4.5 9q-2 7 -5.5 10t-12.5 2v59zM251 593q-1 -5 1.5 -7.5t6 -4t7 -0.5t4.5 4l10 22l8 -20q2 -4 6.5 -5t8.5 0
t6.5 4.5t1.5 8.5l-13 25q-6 12 -18 11.5t-17 -12.5z" />
    <glyph glyph-name="ydieresis" unicode="&#xff;" 
d="M416 749h58v-93h77l-267 -578l-267 578h76v93h59v-93h264v93zM297 459l32 78q5 -2 9 -1t6 8q1 4 -2.5 8t-9.5 7t-12.5 4.5t-10.5 1.5q-5 0 -8 -2.5t-1 -7.5q1 -5 3 -7t2 -3v-1l-23 -57q0 1 -3.5 7.5t-8.5 15t-10.5 17.5t-8.5 15q3 3 4.5 7.5t-1.5 8.5q-4 6 -9 5
q-7 1 -13 -3q-5 -3 -13 -8t-8 -13q0 -2 1 -3q2 -5 6 -6t9 1q14 -21 24.5 -39t19.5 -33v-59q-16 0 -16 -14q0 -5 4.5 -8t9.5 -4q13 0 17.5 0.5t10.5 0.5q8 0 13.5 4t4.5 9q-2 7 -5.5 10t-12.5 2v59zM262 586q8 1 11.5 6.5t2.5 11t-6 9.5t-12 3q-8 -1 -11.5 -6.5t-2.5 -11.5
t5.5 -10t12.5 -2zM307 586q8 1 11 6.5t2 11t-6 9.5t-12 3q-8 -1 -11.5 -6.5t-2.5 -11.5t6 -10t13 -2z" />
    <glyph glyph-name="ygrave" unicode="&#x1ef3;" 
d="M416 749h58v-93h77l-267 -578l-267 578h76v93h59v-93h264v93zM297 459l32 78q5 -2 9 -1t6 8q1 4 -2.5 8t-9.5 7t-12.5 4.5t-10.5 1.5q-5 0 -8 -2.5t-1 -7.5q1 -5 3 -7t2 -3v-1l-23 -57q0 1 -3.5 7.5t-8.5 15t-10.5 17.5t-8.5 15q3 3 4.5 7.5t-1.5 8.5q-4 6 -9 5
q-7 1 -13 -3q-5 -3 -13 -8t-8 -13q0 -2 1 -3q2 -5 6 -6t9 1q14 -21 24.5 -39t19.5 -33v-59q-16 0 -16 -14q0 -5 4.5 -8t9.5 -4q13 0 17.5 0.5t10.5 0.5q8 0 13.5 4t4.5 9q-2 7 -5.5 10t-12.5 2v59zM259 623q-3 -3 -3.5 -7.5t2.5 -7.5l24 -23q4 -3 8.5 -2t7.5 3.5t4 6.5t-3 8
l-25 24q-6 6 -15 -2z" />
    <glyph glyph-name="zacute" unicode="&#x17a;" 
d="M416 749h58v-93h77l-267 -578l-267 578h76v93h59v-93h264v93zM329 378q1 -5 3 -8t10 -2q10 1 10 23q2 29 -13 27q-10 2 -10 -15l-81 -1l98 130q8 11 5.5 21.5t-17.5 9.5h-22t-27 -0.5t-27 -0.5h-22q0 3 -1.5 6.5t-6.5 4.5q-11 0 -12.5 -10.5t-1.5 -18.5q0 -5 2.5 -12
t10.5 -7q8 1 9 6.5t2 5.5l79 1l-97 -134q-3 -3 -4 -7.5t-0.5 -9t4.5 -7.5t12 -3zM304 623q-9 8 -15 2l-25 -24q-4 -4 -3 -8t4 -6.5t7.5 -3.5t8.5 2l24 23q3 3 2.5 7.5t-3.5 7.5z" />
    <glyph glyph-name="zcaron" unicode="&#x17e;" 
d="M416 749h58v-93h77l-267 -578l-267 578h76v93h59v-93h264v93zM329 378q1 -5 3 -8t10 -2q10 1 10 23q2 29 -13 27q-10 2 -10 -15l-81 -1l98 130q8 11 5.5 21.5t-17.5 9.5h-22t-27 -0.5t-27 -0.5h-22q0 3 -1.5 6.5t-6.5 4.5q-11 0 -12.5 -10.5t-1.5 -18.5q0 -5 2.5 -12
t10.5 -7q8 1 9 6.5t2 5.5l79 1l-97 -134q-3 -3 -4 -7.5t-0.5 -9t4.5 -7.5t12 -3zM312 619q1 4 -1.5 7t-6 4t-7 0.5t-4.5 -3.5l-10 -22l-8 20q-2 4 -6.5 5t-8.5 0t-7 -4.5t-1 -8.5l13 -26q6 -11 18 -10.5t17 12.5z" />
    <glyph glyph-name="zdotaccent" unicode="&#x17c;" 
d="M416 749h58v-93h77l-267 -578l-267 578h76v93h59v-93h264v93zM329 378q1 -5 3 -8t10 -2q10 1 10 23q2 29 -13 27q-10 2 -10 -15l-81 -1l98 130q8 11 5.5 21.5t-17.5 9.5h-22t-27 -0.5t-27 -0.5h-22q0 3 -1.5 6.5t-6.5 4.5q-11 0 -12.5 -10.5t-1.5 -18.5q0 -5 2.5 -12
t10.5 -7q8 1 9 6.5t2 5.5l79 1l-97 -134q-3 -3 -4 -7.5t-0.5 -9t4.5 -7.5t12 -3zM284 583q8 1 11.5 6.5t2.5 11t-6 9.5t-12 3q-8 -1 -11.5 -6.5t-2.5 -11t5.5 -10t12.5 -2.5z" />
    <glyph glyph-name="ncaron" unicode="&#x148;" 
d="M416 749h58v-93h77l-267 -578l-267 578h76v93h59v-93h264v93zM207 387q1 -8 5 -10t9 -2h33q12 2 12 12q0 8 -5.5 11t-12.5 2q0 10 -0.5 28t-0.5 37t0.5 35.5t0.5 22.5l66 -136q4 -6 7 -9t12 -3h13q7 0 9.5 3.5t2.5 8.5q-1 8 -4 10t-11 2l-1 141q13 0 14 13q0 9 -7.5 10.5
t-19.5 1.5q-11 0 -19 -1t-8 -12q1 -7 5.5 -9.5t9.5 -2.5l2 -109l-60 122q-2 3 -6.5 7t-16.5 5q-7 0 -18.5 -1t-11.5 -12q0 -3 1.5 -6.5t9.5 -4.5h6v-141q-2 -1 -9 -2t-7 -11zM296 584q-5 -12 -17 -12.5t-18 10.5l-13 26q-2 5 1 8.5t7 4.5t8.5 0t6.5 -5l8 -20l10 22
q1 3 4.5 3.5t7 -0.5t6 -4t1.5 -7z" />
    <glyph glyph-name="asciicircum" unicode="^" 
d="M416 749h58v-93h77l-267 -653l-267 653h76v93h59v-93h264v93zM307 495l-19 -28l-18 28l-14 -11l18 -26h-32l2 -16h28l-16 -24l14 -9l18 28l19 -28l14 9l-16 24h30v18l-32 -2l18 26z" />
    <glyph glyph-name="asciitilde" unicode="~" 
d="M416 749h58v-93h77l-267 -653l-267 653h76v93h59v-93h264v93zM220 399q12 -11 26 -2.5t25 26.5q-4 -20 1.5 -37t22.5 -11q12 4 15 17t-6 31q14 -15 29 -20.5t24 9.5q8 14 -1 24.5t-28 15.5q17 4 26 14.5t6 21.5q-3 10 -9.5 13t-15 1.5t-17.5 -7.5t-16 -14q2 11 1 22
t-5 19t-10 12t-14 1q-11 -4 -14.5 -19.5t5.5 -34.5q-15 12 -33.5 14.5t-22.5 -14.5q-3 -12 8 -21.5t34 -10.5q-11 -4 -19.5 -10t-13.5 -13t-5 -14t7 -13zM275 453q0 5 3.5 8t7.5 3q11 0 11 -11t-11 -11q-4 0 -7.5 3t-3.5 8zM265 408v-1v1z" />
    <glyph glyph-name="A" unicode="A" 
d="M416 749h58v-93h77l-267 -653l-267 653h76v93h59v-93h264v93zM249 478q0 -9 5 -10t7 -2q-3 -9 -10 -28.5t-14.5 -41.5t-14 -42t-9.5 -29q-6 2 -10 -3t-2 -11t10 -7.5t13 -2.5q3 -1 6.5 -1.5t7.5 1.5q10 4 7 14q-1 5 -7 7q1 5 4.5 15.5t8.5 24.5q24 -3 56 0l14 -40
q0 -1 -2 -3.5t-2 -6.5q0 -10 10 -12q8 -1 20.5 2.5t11.5 14.5q-2 8 -6.5 9t-8.5 0l-48 140q4 1 7 4.5t2 8.5q-1 6 -5.5 8t-9.5 2h-30q-11 0 -11 -11zM300 384q-11 -1 -21.5 -1.5t-21.5 1.5q8 23 15 42t7 20z" />
    <glyph glyph-name="B" unicode="B" 
d="M416 749h58v-93h77l-267 -653l-267 653h76v93h59v-93h264v93zM230 301q46 -2 67 -0.5t35 12.5q11 9 14.5 19t3.5 22q0 17 -8 30q-7 13 -24 22q5 5 10 14.5t5 20.5q0 23 -16 35t-58 12q-13 1 -27.5 0.5t-19.5 -15.5q-2 -21 12 -19q4 0 7.5 2t3.5 10h5l-1 -144h-6
q0 8 -3.5 10.5t-7.5 2.5q-14 2 -12 -19q2 -8 7 -11t13 -4zM263 388q8 0 19 0.5t20.5 -2t16.5 -10t7 -22.5q0 -13 -7 -20.5t-16.5 -10.5t-20.5 -3t-19 2v66zM263 466q6 1 14 0.5t16 -2.5t13 -7.5t5 -15.5q-1 -20 -17.5 -26t-31.5 -6z" />
    <glyph glyph-name="C" unicode="C" 
d="M416 749h58v-93h77l-267 -653l-267 653h76v93h59v-93h264v93zM277 300q19 0 36 13.5t23 31.5q3 9 -6.5 14.5t-13.5 -2.5q-7 -14 -16 -22.5t-23 -9.5q-17 0 -25.5 21.5t-8.5 47.5q-1 25 6.5 46t24.5 24q7 1 16 -3.5t12 -12.5v-10.5t7 -7.5t12 4t8.5 15.5t5.5 15.5
q2 6 0 10t-5 5q-4 2 -8.5 1t-9.5 -8q-19 17 -41 15q-15 -2 -25.5 -11t-17.5 -23.5t-10 -31.5t-2 -35q1 -17 5 -33t12 -28t19 -19t25 -7z" />
    <glyph glyph-name="D" unicode="D" 
d="M416 749h58v-93h77l-267 -653l-267 653h76v93h59v-93h264v93zM218 314q-2 -8 3.5 -11t14.5 -3q8 -1 14.5 -0.5t14.5 1.5q18 1 34.5 9t28.5 22t19 33.5t6 43.5t-10.5 39.5t-24.5 25t-35 13t-42 3.5q-11 -1 -16.5 -3t-6.5 -10q0 -10 9 -9.5t15 -0.5l-2 -143q-21 0 -22 -10z
M267 467q22 0 41 -12.5t21 -42.5q2 -40 -18 -63t-46 -25z" />
  </font>
</defs>
</svg>
