<?xml version="1.0" standalone="no"?>
<!DOCTYPE svg PUBLIC "-//W3C//DTD SVG 1.1//EN" "http://www.w3.org/Graphics/SVG/1.1/DTD/svg11.dtd" >
<svg xmlns="http://www.w3.org/2000/svg" xmlns:xlink="http://www.w3.org/1999/xlink" version="1.1">
<metadata>
Created by FontForge 20170924 at Tue Apr 24 04:25:12 2012
 By www-data
Copyright (c) 2012 by Kimberly Geswein. All rights reserved.
</metadata>
<defs>
<font id="TheOnlyException" horiz-adv-x="721" >
  <font-face 
    font-family="The Only Exception"
    font-weight="400"
    font-stretch="normal"
    units-per-em="1024"
    panose-1="2 0 0 0 0 0 0 0 0 0"
    ascent="819"
    descent="-205"
    x-height="392"
    cap-height="864"
    bbox="-344.579 -815.02 1369.54 1160.73"
    underline-thickness="0"
    underline-position="0"
    unicode-range="U+0020-2212"
  />
<missing-glyph horiz-adv-x="512" 
 />
    <glyph glyph-name=".notdef" horiz-adv-x="512" 
 />
    <glyph glyph-name=".null" horiz-adv-x="0" 
 />
    <glyph glyph-name="nonmarkingreturn" horiz-adv-x="512" 
 />
    <glyph glyph-name="space" unicode=" " horiz-adv-x="512" 
 />
    <glyph glyph-name="space" unicode="&#xa0;" horiz-adv-x="512" 
 />
    <glyph glyph-name="percent" unicode="%" horiz-adv-x="495" 
d="M338 -1q-38 2 -56 18.5t-20.5 41t7.5 53t27.5 54.5t41 46.5t48 28.5t47.5 1t40 -37q0 -35 -6 -71.5t-21.5 -66.5t-41.5 -49t-66 -19zM71 44q-10 -15 -20 -18t-17.5 2.5t-10 17.5t3.5 26l397 789q11 21 24 27.5t22.5 3.5t12.5 -13t-5 -22q0 -7 -3.5 -17t-17 -36.5t-40 -77
t-71.5 -139t-112.5 -221t-162.5 -322.5zM428 174q-9 19 -27 18t-37.5 -14t-36 -33.5t-22.5 -40t2.5 -35t39.5 -17.5q24 0 39.5 11.5t24.5 29.5t13 39.5t4 41.5zM138 570q-37 9 -57.5 30t-27.5 48t-0.5 56t22.5 53t41 39.5t56 16.5q29 -5 44.5 -23.5t19.5 -44t-1.5 -54.5
t-19 -54t-33.5 -43.5t-44 -23.5zM156 766q-28 -15 -42.5 -44t-15.5 -55.5t11 -41.5t37 -2h4q1 0 2 1q11 8 23 31t16.5 47t-2.5 43.5t-33 20.5z" />
    <glyph glyph-name="ampersand" unicode="&#x26;" horiz-adv-x="422" 
d="M172 482q2 25 3 66.5t4 89.5t10 96.5t22 87.5t40 64t63 25q44 -11 62 -44t18 -77t-15.5 -95t-39 -99.5t-51.5 -90t-54 -65.5l37 -316q14 4 24.5 19.5t18.5 36t15 43t14 41t14 30t16 10.5q15 0 21.5 -6t6.5 -22q-2 -30 -12 -60t-24 -54.5t-29.5 -42.5t-28.5 -25
q26 -2 48 -6t35 -12t14.5 -20.5t-12.5 -30.5q-28 0 -53 6t-53 6q-21 0 -39 -6t-36 -12.5t-36 -12.5t-38 -6q-56 4 -85.5 26t-39.5 55t-4.5 74.5t21 84.5t37 84.5t42.5 75t38.5 55.5t25.5 27zM61 161q-9 -38 6.5 -61.5t41.5 -33t55.5 -4.5t49.5 26q0 9 -2 35t-5 60.5t-7 72
t-7.5 69t-6.5 53.5t-5 24q-18 -7 -39 -38t-39 -70t-30 -76.5t-12 -56.5zM297 840q-20 2 -32 -14t-19 -43t-10 -61t-4 -69.5t-1 -69.5t-2 -59q12 4 28.5 31t32.5 64.5t28 79.5t16 76t-4 53.5t-33 11.5z" />
    <glyph glyph-name="quotesingle" unicode="'" horiz-adv-x="176" 
d="M98 423q-14 7 -22 27.5t-8.5 44t7.5 44t27 26.5h5q5 -2 11.5 -5t6.5 -4v-107q0 -2 -3 -5.5t-7.5 -8t-9 -8t-7.5 -4.5z" />
    <glyph glyph-name="parenleft" unicode="(" horiz-adv-x="321" 
d="M125 0q-53 47 -77 124t-24 167.5t21 186.5t56 181t82 150.5t100 95.5q17 0 28 -7.5t16 -17.5t3 -18.5t-11 -11.5q-52 -23 -96 -79.5t-76 -131.5t-50.5 -161.5t-18.5 -170.5t19.5 -157.5t63.5 -122.5q0 -19 -9 -24t-27 -3z" />
    <glyph glyph-name="parenright" unicode=")" horiz-adv-x="319" 
d="M60 13q80 72 120.5 152t52 161.5t-1.5 161.5t-40.5 152.5t-64.5 134.5t-73 108q-4 26 5 34t27 -7q50 -42 94 -110t74 -150t41 -173t-6 -181.5t-65.5 -174t-137.5 -150.5z" />
    <glyph glyph-name="asterisk" unicode="*" horiz-adv-x="450" 
d="M229 295q-10 -14 -17.5 -32.5t-16.5 -35.5t-21 -28.5t-30 -11.5q0 13 6 28t12.5 29t10.5 28t1 26q0 1 -3 2.5t-12.5 5.5t-29 10.5t-53.5 17.5q-9 3 -14.5 11.5t-5.5 17.5t6 16.5t18 8.5q8 0 21.5 -5t28.5 -10.5t28.5 -10.5t21.5 -5q-10 13 -24 34t-22.5 39.5t-7.5 30.5
t21 7q8 0 17.5 -9.5t19 -20.5t18.5 -20.5t17 -9.5v113q4 9 9.5 18t12.5 13.5t15 2.5t16 -16v-104q2 6 6.5 16t11 20t13.5 17.5t13 7.5q10 0 18.5 -6.5t8.5 -17.5q0 -14 -8.5 -26.5t-18.5 -24.5t-18.5 -24.5t-8.5 -27.5q0 -17 16.5 -22t36 -6.5t36.5 -3t18 -11.5
q24 -19 18 -27t-27 -10t-49 -1t-49 0l5 -114q-18 -13 -28.5 -9t-16 17t-7 32t-3 37t-3.5 30.5t-7 13.5z" />
    <glyph glyph-name="plus" unicode="+" horiz-adv-x="410" 
d="M27 263q-3 0 -6.5 8.5t-3.5 19t6 19.5t21 11h98q15 0 21 16t7.5 37t-0.5 40.5t-3 25.5q0 12 8.5 24t19.5 16.5t21 -4t13 -36.5v-119l148 2q6 3 9.5 -2t3 -14.5t-5 -21t-15.5 -19.5l-140 -4q0 -39 -1 -81.5t-6 -82.5q-8 -19 -24.5 -26t-28.5 9v182h-142z" />
    <glyph glyph-name="hyphen" unicode="-" horiz-adv-x="360" 
d="M69 263q-16 9 -17.5 24t9.5 29h62.5t54 -1t55 -2.5t66.5 -5.5q17 -8 18.5 -23t-9.5 -30q-34 0 -61 0.5t-53.5 1.5t-56 3t-68.5 4z" />
    <glyph glyph-name="period" unicode="." horiz-adv-x="229" 
d="M136 8q-13 -4 -23.5 3.5t-15 20t-1 27t18.5 23.5q21 17 34.5 8.5t17.5 -25.5t-3 -35.5t-28 -21.5z" />
    <glyph glyph-name="slash" unicode="/" horiz-adv-x="397" 
d="M44 9q0 -5 -7.5 -7.5t-16 -0.5t-15.5 10t-5 25l332 861q12 12 23 12t19.5 -6t13 -16t3.5 -19l-347 -859v0z" />
    <glyph glyph-name="zero" unicode="0" horiz-adv-x="528" 
d="M188 -1q-61 3 -96.5 43.5t-50.5 104.5t-13 145t17.5 165t41 164.5t56.5 143.5t65 102t66 41q32 10 65 -7t63.5 -54t56 -90t43 -115.5t25 -131t1.5 -136t-27.5 -129.5t-62.5 -112.5t-102.5 -85.5t-147.5 -48zM274 843q-25 -8 -50.5 -44t-48.5 -90.5t-42 -121.5
t-30.5 -137.5t-14 -138t8.5 -122t36 -91.5t68 -45h4q69 4 118.5 42t81.5 96.5t48 132t16.5 148t-12.5 145t-38.5 123t-62 81.5t-82.5 22z" />
    <glyph glyph-name="two" unicode="2" horiz-adv-x="491" 
d="M330 108q-48 -35 -101.5 -58t-101 -29t-81.5 9t-42 56q6 60 41.5 96t83.5 51t99 9.5t88 -28.5q25 31 39 88t17.5 125t-5 139t-29.5 131.5t-55 103t-82 51.5q-21 0 -44 -11t-45.5 -27t-42.5 -34t-36 -31q-13 -5 -23.5 -2.5t-16.5 8.5t-7 14.5t6 16.5q0 27 24.5 49
t58.5 38.5t68.5 25.5t55.5 9q48 2 86 -21.5t65.5 -65.5t46 -98t28 -119t10 -129t-7 -127t-23.5 -113t-40 -88l103 -90q7 -9 8 -20t-3.5 -20t-14.5 -14.5t-25 -3.5zM184 192q-29 0 -52.5 -11.5t-38.5 -28.5t-21.5 -35.5t-1.5 -32.5t21.5 -20.5t47.5 2.5q34 7 62.5 19.5
t48 26.5t27.5 28.5t2 26.5t-29 19t-66 6z" />
    <glyph glyph-name="three" unicode="3" horiz-adv-x="434" 
d="M12 102q0 10 9 27t23 23q26 -52 60.5 -73t70.5 -19t71 24t62 55t42.5 74t13.5 82t-25 77.5t-73 61.5q-22 3 -37.5 2t-26.5 -4t-19 -6.5t-14 -5.5q-15 1 -23.5 8t-10 17t4.5 21t20 21q4 -4 20 9.5t37 38.5t43.5 57.5t39 67t24 67t-1.5 57.5t-38 39t-85 11q-21 -2 -34 -4.5
t-23.5 -8.5t-21 -16.5l-26.5 -26.5q-14 -14 -30 -9t-20 29q0 21 15 38.5t36 30.5t45 20.5t42 7.5q68 5 110.5 -12.5t63 -50.5t22 -76.5t-11.5 -90t-38.5 -91t-57.5 -79.5q69 -29 103.5 -75t42.5 -98.5t-7.5 -106.5t-46.5 -99t-74 -76t-90 -38t-95.5 15.5t-90.5 84.5z" />
    <glyph glyph-name="four" unicode="4" horiz-adv-x="483" 
d="M231 17q-4 6 -3 34t4 67t8 84t9.5 85t8 69.5t3.5 38.5q-2 12 -22 16.5t-48 6.5t-59.5 3.5t-57.5 7.5t-42 18.5t-12 36.5q8 18 13 56t9.5 85.5t8.5 97.5t10 91.5t14.5 68t21.5 26.5q12 7 21 5t15 -10.5t8 -22t-2 -29.5q0 -27 -9 -73.5t-19.5 -96.5t-19.5 -96.5t-9 -73.5
q0 -17 21.5 -26t50 -13t58 -5t46.5 -1q16 0 23 26t10 65.5t5 85.5t6.5 85.5t14 65.5t29.5 26q28 0 23 -28q-1 -5 -3.5 -27.5t-5.5 -54t-6 -67.5t-5.5 -67.5t-4.5 -54t-3 -26.5v-4q10 -8 21.5 -8t22 5t20 13t16.5 17q9 3 18.5 0.5t17.5 -8.5t13 -14.5t5 -17.5q-1 -15 -20 -25
t-43.5 -17.5t-50 -13t-38.5 -11.5l-37 -385q-11 -19 -23 -24.5t-32 14.5z" />
    <glyph glyph-name="five" unicode="5" horiz-adv-x="463" 
d="M242 9q-27 -9 -68 -7t-78.5 16.5t-63.5 42t-22 69.5q0 12 2 21.5t17 9.5q32 -58 74 -80t85.5 -18t84.5 29t71.5 62t46 80.5t9.5 84.5q-1 29 -19 60.5t-47 59.5t-66.5 50t-78 34t-81.5 10t-77 -22q-18 -5 -25.5 10.5t-9 44t2 65.5t8 74.5t8 71t3.5 55.5q0 27 21.5 38.5
t56 14t77.5 -1t85.5 -6t81 -1t64.5 14.5q21 8 28.5 -4t-6.5 -35q0 -10 -24.5 -17t-69.5 -11.5t-108.5 -6.5t-142.5 -2l-28 -225q105 14 186 -14.5t134 -82.5t75 -124t8 -139t-66.5 -128.5t-147.5 -92.5z" />
    <glyph glyph-name="six" unicode="6" horiz-adv-x="463" 
d="M240 -1q-59 1 -104.5 25t-74.5 63t-38.5 90.5t4.5 107.5l185 548q2 10 10 24t18.5 23t22 7t20.5 -23v-4l-201 -610q43 56 87.5 87.5t86 44t78 8t64.5 -22t45 -46t20 -62.5q0 -78 -26.5 -128t-63 -79.5t-74 -41t-59.5 -11.5zM258 323q-66 -28 -105.5 -70t-45 -82.5
t27 -71.5t110.5 -37q50 -3 86 20t56.5 57.5t24 74t-12 70t-50.5 43.5t-91 -4z" />
    <glyph glyph-name="seven" unicode="7" horiz-adv-x="414" 
d="M244 29q0 -8 -9.5 -15t-20.5 -9t-21 3.5t-13 24.5q39 192 66 325t45 220.5t28 136t14.5 72t5.5 28.5t1 6q-36 9 -74 11t-75.5 2t-72.5 -0.5t-65 3.5q-6 7 -9 16t-2.5 18t5 17t14.5 12q15 1 45 1t66 -0.5t75.5 -2.5t74 -5.5t60 -8t35.5 -11.5q-41 -207 -88.5 -420
t-84.5 -424z" />
    <glyph glyph-name="eight" unicode="8" horiz-adv-x="434" 
d="M156 0q-56 22 -86 60t-40.5 84.5t-4 98.5t23 103t39.5 98t46 84q-20 34 -34.5 77t-19.5 87t1 85.5t27.5 72t60 46.5t97.5 10q51 -7 78.5 -34t36.5 -66t3.5 -86t-20.5 -93t-35.5 -88.5t-40.5 -71.5q21 -30 38 -81t24.5 -108.5t3 -114.5t-26.5 -99t-63.5 -61.5t-107.5 -2.5
zM214 467q-15 10 -33.5 -1t-35.5 -36t-32 -61t-22.5 -76t-7.5 -80.5t13 -74t39.5 -57t71.5 -30.5q26 -4 45.5 21t31.5 65.5t15 90.5t-5 97.5t-27.5 86t-52.5 55.5zM246 853q-52 6 -78.5 -16.5t-34.5 -59.5t0.5 -81t26 -80.5t42 -57.5t48.5 -13q16 14 32.5 41t28.5 59.5
t18 67t0 64t-25.5 50t-57.5 26.5z" />
    <glyph glyph-name="nine" unicode="9" horiz-adv-x="392" 
d="M298 534q-29 -9 -62.5 -13t-66.5 -1.5t-62.5 12t-51 28.5t-33.5 48t-9 71q0 28 11 66t30 72.5t43.5 58.5t51.5 24q31 9 70.5 1t73.5 -33.5t56.5 -70t20.5 -109.5q0 -78 -2.5 -156t-5.5 -157t-5 -159.5t-1 -162.5q8 -18 1 -31.5t-19.5 -19t-25.5 -2.5t-18 17zM76 679
q-3 -33 10.5 -55t36 -33.5t50.5 -13t54 6.5t45.5 24.5t26.5 42.5q4 39 -7 75.5t-31 64t-46 41t-52 5.5q-19 0 -35 -16.5t-27.5 -41t-18 -52t-6.5 -48.5z" />
    <glyph glyph-name="colon" unicode=":" horiz-adv-x="258" 
d="M123 202q0 15 15 21t30 6q12 0 20 -10t8.5 -22t-7.5 -22.5t-29 -11.5q-15 0 -26 11.5t-11 27.5zM189 393q0 -18 -7 -31t-16.5 -18t-20 0.5t-17.5 23.5q0 9 1 19t4.5 18t9.5 13t16 5q14 0 22 -8t8 -22z" />
    <glyph glyph-name="semicolon" unicode=";" horiz-adv-x="303" 
d="M158 -130q9 24 18 51t14.5 55.5t4.5 57.5t-11 56q0 10 12.5 16.5t31.5 -6.5t22.5 -47.5t-3 -74t-20 -74.5t-28.5 -50q-4 0 -11 1.5t-13.5 3.5t-11.5 5t-5 6zM193 228q-27 -12 -40 -3t-14.5 24.5t8 31.5t27.5 19q22 9 32.5 0.5t12 -23.5t-5.5 -30.5t-20 -18.5z" />
    <glyph glyph-name="less" unicode="&#x3c;" horiz-adv-x="330" 
d="M240 132h-3q-29 25 -60.5 47.5t-59.5 45t-49 47t-27 55.5q19 26 46.5 47t58.5 40.5t63 39t60 42.5q14 1 25.5 -4t17.5 -13t4.5 -18t-13.5 -19l-187 -119q32 -40 74 -70t82 -58q9 -12 9.5 -23t-4.5 -20t-14.5 -14.5t-22.5 -5.5z" />
    <glyph glyph-name="equal" unicode="=" horiz-adv-x="294" 
d="M44 209h52h55h50h36q8 -9 9.5 -19.5t-1.5 -19t-9 -14t-13 -5.5q-7 1 -26.5 3.5t-43.5 3.5t-48.5 0t-42.5 -6q-7 0 -14.5 5t-12 13t-3.5 18t12 21zM49 307h52h55h50h36q8 -9 9.5 -19.5t-1.5 -19t-9 -14t-13 -5.5q-7 1 -26.5 3.5t-43.5 3.5t-48.5 0t-42.5 -6q-7 0 -14.5 5
t-12 13t-3.5 18t12 21z" />
    <glyph glyph-name="greater" unicode="&#x3e;" horiz-adv-x="366" 
d="M134 87q-13 0 -23 5.5t-15.5 14t-4.5 19.5t10 23q42 27 85.5 56.5t75.5 68.5l-191 140q-13 9 -14.5 19t5 17.5t18.5 12.5t26 4q29 -23 62 -46t64.5 -46t59.5 -47.5t48 -49.5q-7 -30 -28.5 -54t-50.5 -46t-61.5 -44t-62.5 -47h-3v0z" />
    <glyph glyph-name="question" unicode="?" horiz-adv-x="410" 
d="M179 58q-5 14 4.5 27t23.5 18t28.5 -0.5t19.5 -27.5q2 -24 -8.5 -38t-25 -17t-27.5 6t-15 32zM166 246q0 13 -2 35t-3.5 45t-0.5 43t7 28q61 6 95.5 25.5t51.5 43.5t21 49t4 42q0 44 -16 70.5t-41 39t-57 13t-64.5 -7t-63.5 -21t-53 -28.5q-10 -9 -18.5 -7.5t-12 10
t-1 22.5t14.5 29q33 33 74.5 50.5t83.5 19.5t82 -10t70.5 -38t47.5 -65.5t15 -90.5q0 -56 -10 -90.5t-31 -55t-54.5 -31t-79.5 -18.5l4 -102q-11 -14 -23.5 -20.5t-22 -6.5t-15 7t-2.5 20z" />
    <glyph glyph-name="at" unicode="@" horiz-adv-x="632" 
d="M308 62q-70 -6 -123.5 12.5t-90 53.5t-55.5 83t-21.5 100.5t12.5 105.5t47.5 98.5t82.5 79.5t118 48q42 11 85 2.5t82.5 -31t72 -54.5t53.5 -68.5t27.5 -74t-5.5 -69.5t-46 -56t-94 -34q-19 0 -31 2t-22.5 7t-21 14t-25.5 23q-26 -23 -51 -39t-60 -16q-33 1 -53 17.5
t-28 40.5t-4.5 52.5t17.5 53.5t39 42t60 19q30 2 48.5 -8t31 -26.5t21.5 -37t20.5 -38t27.5 -30.5t43 -14q42 0 63.5 16.5t21.5 60.5q0 47 -26 81t-65 56t-85.5 33t-87.5 13q-44 0 -79 -25t-60.5 -63t-39 -82t-13.5 -81q2 -65 25.5 -107.5t61 -66t86 -30.5t99 -0.5t100.5 23
t91 40.5q14 17 28 13.5t22.5 -14.5t9.5 -24.5t-11 -15.5q-40 -29 -84 -45.5t-85.5 -25.5t-75.5 -11.5t-53 -2.5zM277 420q-25 -1 -42.5 -17.5t-22 -36.5t6.5 -36.5t43 -17.5q26 0 43.5 16.5t21.5 36.5t-7.5 37t-42.5 18z" />
    <glyph glyph-name="A" unicode="A" horiz-adv-x="794" 
d="M489 189q-115 -101 -199.5 -144t-142 -41t-89.5 42.5t-41.5 104.5t1.5 145.5t39 166t71.5 166t99 145t122 103t139.5 41.5q49 0 86 -18.5t62 -50t37.5 -73.5t12.5 -88q-2 -17 -14.5 -55t-29.5 -86.5t-36.5 -101.5t-35.5 -100.5t-26 -83t-9 -48.5q-6 -62 1 -94t22.5 -43
t37 -4.5t45.5 23.5t47 40t42 44.5t31 38t13 19.5q16 19 30 19.5t20.5 -11.5t2 -33t-24.5 -44q-18 -21 -47.5 -52.5t-64 -59.5t-70 -44.5t-64.5 -7.5t-48 51.5t-20 133.5zM618 733q-26 73 -64 102.5t-82.5 25.5t-92.5 -36.5t-93.5 -84t-86.5 -116.5t-71.5 -133.5t-47 -136.5
t-14.5 -125t26 -98.5t76 -56.5q54 -3 120 30.5t130 111.5t117.5 205t82.5 312z" />
    <glyph glyph-name="B" unicode="B" horiz-adv-x="696" 
d="M580 265q2 -66 -21.5 -115.5t-64.5 -83.5t-93.5 -53.5t-107 -26.5t-106.5 -1.5t-91.5 21.5t-62 42t-17.5 60q57 84 88 174t51.5 175.5t39.5 163t52 136.5t88 95.5t148 40.5q75 0 118.5 -25.5t61 -66.5t11.5 -92t-30.5 -102t-64.5 -96.5t-90 -74.5q0 -1 -0.5 -2t-0.5 -2
q0 -16 14.5 -32.5t31.5 -36t31.5 -43.5t14.5 -55zM78 98q0 -13 13.5 -21.5t34.5 -13.5t46 -7.5t47.5 -3t39.5 0t22 0.5h4q-14 20 -31 43t-36 42t-38.5 31t-38 10t-35 -20.5t-28.5 -60.5zM160 241q36 -13 64.5 -38.5t55.5 -51t54.5 -44.5t61.5 -19q26 0 48 13t38.5 33.5
t25.5 45t9 48.5q6 56 -17.5 91t-62.5 51t-86.5 14t-88.5 -19q-20 3 -28.5 19.5t-7 31.5t12 23t27.5 -5q20 -15 55 -7.5t75.5 31.5t82 59.5t74 75.5t51 80.5t14 74t-37 56t-102.5 27.5q-28 1 -55 -8t-53 -32t-52.5 -64.5t-52.5 -106t-52 -156t-53 -215.5v-8z" />
    <glyph glyph-name="C" unicode="C" horiz-adv-x="757" 
d="M331 -1q-101 -1 -168.5 29t-106.5 82t-51 120t-2.5 142.5t38 150.5t72 143.5t99 121.5t118 85t130.5 33.5t136 -33.5q8 0 13 6t10 13.5t10.5 14t13.5 6.5q28 5 35.5 -3.5t4.5 -23t-13 -31.5t-18 -29q11 -19 19.5 -48t7 -56.5t-16 -48.5t-48.5 -24q-33 1 -50.5 17.5
t-23.5 41.5t-3.5 55t9.5 57q-65 25 -137.5 9.5t-139 -71t-120 -149t-80.5 -223.5q-11 -89 2 -151.5t45 -102t78.5 -58t101 -20t114.5 11.5t118 36t111 55t94 68q26 26 47 30.5t30 -4.5t3.5 -27t-31.5 -36q-15 -19 -46 -41.5t-72 -44.5t-87.5 -42t-91.5 -35t-85.5 -22.5
t-68.5 -3.5zM594 803q-8 -2 -11.5 -17.5t-1.5 -32.5t9.5 -31t19.5 -14q13 -3 18 8t2.5 27t-12 33.5t-24.5 26.5z" />
    <glyph glyph-name="D" unicode="D" horiz-adv-x="823" 
d="M176 164q-32 -69 -61 -104.5t-52 -46t-39 -0.5t-22.5 33.5t-1.5 56t23.5 66.5t52 65t84.5 51l135 530q66 57 136.5 77.5t135.5 11.5t119 -45t88.5 -93t44 -132.5t-15.5 -162.5q-19 -49 -47.5 -103.5t-64.5 -107.5t-78 -100.5t-88 -83t-93.5 -55.5t-94.5 -18
q-26 0 -48.5 6.5t-42.5 24t-37.5 49t-32.5 81.5zM213 241q13 -98 49.5 -138.5t86.5 -37.5t107 41t110.5 96.5t98 129.5t68.5 139q27 65 22 127t-32.5 112.5t-71.5 85.5t-96.5 48t-107.5 -0.5t-103 -61.5zM128 204q-39 -30 -57.5 -54.5t-23 -39.5t3 -19.5t20.5 5.5t28.5 36
t28.5 72z" />
    <glyph glyph-name="E" unicode="E" horiz-adv-x="708" 
d="M328 -1q-84 -20 -146.5 0t-101.5 64t-54.5 105t-6.5 123t43 118t94 91q-35 58 -37 118t21 114t66.5 97.5t98 67.5t116.5 24.5t123 -31.5q4 0 10.5 7.5t13.5 16.5t14 15.5t12 5.5q21 -6 24.5 -19.5t-1.5 -28.5t-12.5 -29.5t-8.5 -22.5q23 -26 37 -64.5t11 -75t-26 -63
t-74 -28.5q-20 5 -39.5 21t-28.5 44t-3 67.5t35 90.5q-32 23 -68 27.5t-72 -5t-68.5 -31.5t-57.5 -51t-40 -64t-15 -71q0 -56 15.5 -86t39 -43.5t51 -15.5t51 -2.5t39 -4t15.5 -20.5q-10 -31 -32.5 -40.5t-50.5 -8t-56.5 10.5t-49.5 16q-59 -29 -90.5 -72t-38.5 -90t9 -91.5
t51 -77t88 -46.5t121 0q67 12 130 41t115.5 62t91 63t56.5 43q11 3 20.5 3.5t15 -3.5t6 -13.5t-5.5 -26.5q-9 -25 -40.5 -52t-75.5 -53.5t-94 -50t-97 -41t-85.5 -27t-57.5 -7.5zM552 774q-8 -9 -17 -26.5t-12 -35.5t3 -32t27 -15q19 1 28 17.5t8.5 36.5t-9 36.5t-23.5 18.5
h-5z" />
    <glyph glyph-name="F" unicode="F" horiz-adv-x="757" 
d="M16 286q0 13 1.5 20t5 11t11 4.5t19.5 -0.5q33 -53 84 -87t111 -52.5t125.5 -23.5t127.5 1q5 8 8 17t7 20q6 20 14 51t14.5 62t9 54.5t-1.5 28.5q-5 1 -17.5 4.5t-27 8t-27 8.5t-17.5 6q-18 0 -27.5 8t-11 18.5t5 21t19.5 14.5q30 0 52 -8.5t38.5 -10.5t28 10t20.5 53
q0 13 4.5 37.5t10 54t11 62t8.5 61t2.5 51t-6.5 32.5q-30 -8 -55.5 -14.5t-49.5 -11.5t-48 -8t-51 -3t-53.5 5t-47 16.5t-33.5 31.5t-13 50q48 -28 102.5 -38t110 -6.5t110 19.5t103.5 40q21 5 24.5 -15t-2.5 -57t-19 -85.5t-25.5 -100t-21.5 -100.5t-8 -87h71q3 0 9.5 -9
t8.5 -14q4 -18 -11.5 -25.5t-36 -11.5t-39 -6.5t-20.5 -9.5q-3 -11 -9 -37.5t-13 -56.5t-13 -56.5t-9 -36.5q-3 -8 -5.5 -14.5t-5.5 -13.5q76 14 132 38t74 52q10 6 18 6t11 -7.5t0.5 -23.5t-13.5 -41q-41 -33 -108 -56t-147 -32q-36 -55 -83 -82.5t-98.5 -30.5t-103.5 16.5
t-97.5 58t-81.5 94.5t-55 126zM116 196q21 -38 62.5 -72.5t91 -52.5t100 -14.5t90.5 42.5q-49 -1 -97.5 4t-92.5 16.5t-82.5 30.5t-67.5 46h-4z" />
    <glyph glyph-name="G" unicode="G" horiz-adv-x="1036" 
d="M810 83q-40 -54 -82 -80t-83 -32t-80.5 4.5t-73.5 29.5t-62.5 43t-47 45t-27 35.5t-3.5 14.5q-8 0 -34 -21t-63.5 -46.5t-83.5 -46.5t-94 -21q-16 0 -28 -0.5t-19.5 2.5t-10.5 12.5t-1 30.5q17 0 52.5 4.5t77.5 19t83.5 43t71.5 76.5q-18 7 -30.5 34.5t-19 64.5t-6.5 78
t6.5 75.5t21 57t37.5 22.5q19 0 33 -21t26.5 -48.5t25.5 -54.5t31 -38q25 20 54 57.5t53 81t40 87.5t16 76q0 16 -11.5 39t-25 49t-24 52.5t-9 49.5t19.5 41t62 26q22 4 34.5 -5.5t18 -28t6 -42t-1 -46.5t-2.5 -43t1 -30q35 -12 75 -5.5t78.5 24.5t73 44t58.5 53
q19 15 25.5 -1.5t5 -55.5t-10 -94.5t-21 -119t-27 -130t-28 -126t-25 -107t-17.5 -74.5q35 1 66.5 8.5t56.5 21t42.5 33.5t25.5 48q6 14 14 18.5t14.5 0.5t11.5 -16t5 -31q-15 -40 -42.5 -67t-63.5 -43.5t-78 -23t-87 -4.5zM463 311q13 -35 45 -64t76.5 -51.5t96 -37
t103.5 -18.5q25 66 43 139t31.5 148t25 150t25.5 144q-39 -26 -74 -40t-67.5 -20t-64 -7.5t-62.5 -3.5q-5 -58 -24 -107.5t-45.5 -91.5t-55.5 -75.5t-54 -59.5q-1 -1 0 -2.5t1 -2.5zM385 184q13 -41 42 -72t65.5 -51.5t76.5 -29.5t75.5 -6t62 19t36.5 46q-48 8 -95 23
t-87.5 36t-73 46.5t-51.5 53.5h-6q-9 0 -18 -7.5t-15.5 -18t-10 -21.5t-1.5 -18zM321 436q-9 -13 -15.5 -43.5t-5 -62.5t12.5 -56.5t35 -24.5q14 0 20.5 13t7 32.5t-4 43t-12.5 44.5t-18 36t-20 18zM586 880q0 3 -5.5 -2t-7.5 -19t3.5 -37t28.5 -56q15 13 13.5 36t-8.5 43.5
t-15.5 32.5t-8.5 2z" />
    <glyph glyph-name="H" unicode="H" horiz-adv-x="737" 
d="M57 8q-7 0 -16.5 1.5t-17.5 5.5t-13 10.5t-4 15.5q81 168 133.5 294.5t84 216t46.5 143t21 76.5q7 21 7.5 39.5t-6 33t-22 23.5t-41.5 11q-18 9 -40.5 4.5t-42 -16.5t-33.5 -28.5t-15.5 -31t12.5 -25t50 -10.5q12 -3 14.5 -14t-3.5 -22t-19.5 -17.5t-32.5 -0.5
q-44 10 -60 32.5t-11.5 49t24.5 54t47 48t57.5 30t55.5 1.5q31 3 56 -6.5t40.5 -29t20.5 -49t-5 -67.5l-98 -321q38 9 71 2t60.5 -24.5t50 -43t40.5 -55.5q3 2 5.5 7.5t7 22t12.5 48.5t22.5 86.5t36 136t54.5 197.5q3 9 13.5 9t21 -5.5t18 -14.5t6.5 -18l-160 -536
q11 -10 27.5 -24t36 -26t41 -19.5t44 -4.5t44 19t40.5 51q18 20 24 8t4 -45q-8 -32 -28 -51t-47 -27t-57.5 -5.5t-59.5 12.5t-53.5 27t-39.5 39l-69 -220q-6 -12 -15.5 -15.5t-18 -0.5t-14.5 12t-5 23q17 60 27 94t16 52.5t9 26l6 15t7 19.5t12 40q-41 -3 -71.5 -3t-57 6
t-51.5 19t-55 36zM246 385q5 -20 26.5 -36.5t48 -25t51.5 -7.5t37 16q0 28 -20.5 48t-48.5 28.5t-55 3.5t-39 -27z" />
    <glyph glyph-name="I" unicode="I" horiz-adv-x="860" 
d="M436 36q-77 -13 -138.5 -5t-109.5 30t-82 55.5t-54.5 71t-28 76t-2.5 71t22.5 56t46.5 31.5q33 9 59 -9.5t48 -48.5t41 -64.5t36 -58.5q-12 53 -10.5 118t16.5 132.5t43.5 132t68.5 116t92.5 85t116.5 39.5q58 -5 93 -34t51 -74.5t15.5 -104t-14.5 -123t-39 -130.5
t-58 -127t-71.5 -112.5t-78.5 -86.5q17 -15 45.5 -14.5t62 11.5t68.5 30.5t66.5 42t56.5 46t37 43.5q24 37 41.5 41.5t27 -6.5t10 -28.5t-8.5 -24.5q-35 -45 -78 -83t-89 -66.5t-92 -46.5t-86.5 -22.5t-73 5t-50.5 36.5zM71 289q4 -32 20 -71t51 -69.5t91.5 -45t140.5 2.5
q-2 3 -10.5 13t-17.5 21t-16.5 19.5t-8.5 9.5q-15 -12 -32 -2.5t-35 30.5t-36.5 49t-36.5 54t-35 45.5t-31 22.5t-25.5 -14.5t-18.5 -64.5zM601 802q-43 -7 -83 -34t-74 -68.5t-60 -93.5t-41.5 -108t-19 -113t8.5 -108.5t40.5 -93.5t77.5 -68q39 28 74.5 71.5t66 95.5
t54.5 109t38.5 113t19 107.5t-5 92t-33 66.5t-63.5 32z" />
    <glyph glyph-name="J" unicode="J" horiz-adv-x="696" 
d="M187 -323q-47 17 -75.5 46.5t-42.5 66.5t-15 79.5t8 85t25.5 83t38.5 73.5q-41 44 -63 101.5t-28.5 121t2 130.5t29 130.5t51 119.5t68.5 97.5t82.5 65.5t91.5 24q51 -3 78.5 -35.5t39 -84.5t10 -119.5t-8 -140.5t-14.5 -148t-10 -142q18 -38 45 -50t56.5 -9t57 17.5
t48 30.5t30 28t1.5 11q19 14 33 11t20 -14t2.5 -26t-18.5 -25q-8 -7 -26.5 -22t-43.5 -30.5t-54.5 -28t-60 -15t-60 8.5t-54.5 42q-27 -126 -51 -217t-51 -150.5t-60.5 -87.5t-80.5 -28zM178 82q-25 -44 -45 -96.5t-24 -102t14 -90t68 -61.5q19 0 37 15t38 60t44 128t55 220
q-2 0 -8 -1.5t-25.5 -8.5t-55.5 -21.5t-98 -41.5zM352 839q-28 1 -60 -22t-62.5 -62.5t-58 -92t-47.5 -110.5t-29.5 -117.5t-4.5 -114.5t26.5 -101.5t65.5 -76.5q2 0 29 11t61 25t66.5 27t44.5 17q7 37 17 99t18.5 132.5t12 142t-2 127.5t-23.5 89t-53 27z" />
    <glyph glyph-name="K" unicode="K" horiz-adv-x="893" 
d="M471 127q-7 27 -9.5 62t-4.5 71.5t-5.5 70.5t-12 59.5t-24 40t-42.5 11.5q-11 0 -32 -2.5t-43 -8t-40 -14t-24 -20.5l-177 -385q-17 -17 -26.5 -5t-4.5 41q16 53 47 127.5t65 158.5t65.5 171.5t48 166.5t13 143t-38.5 102q-21 8 -44 -0.5t-41 -24t-29 -34t-9.5 -32
t19 -17.5t55.5 10q0 -17 -8 -29.5t-21 -20t-28 -11t-30 -3.5q-33 17 -43 40.5t-3.5 48t26 48t46 41.5t55.5 28.5t54 8.5q53 2 79 -20.5t33.5 -60.5t0 -88t-20 -104.5t-26.5 -110t-21 -103.5q15 0 39 3.5t49 10.5t47 16.5t34 21.5l335 358q10 17 24.5 24t29 7t25.5 -7
t13.5 -17.5t-7 -24t-36.5 -27.5l-367 -366q21 -15 29 -52.5t10.5 -82.5t3.5 -91t9 -80q11 -63 39.5 -86.5t66.5 -19.5t80.5 28.5t82.5 56.5t72.5 64t50.5 52q13 5 22 1.5t11.5 -12t-2.5 -20.5t-18 -23q-9 -16 -29.5 -39.5t-49 -48t-63 -48t-70 -40.5t-71 -24t-66 1t-55 33.5
t-38.5 75.5z" />
    <glyph glyph-name="L" unicode="L" horiz-adv-x="901" 
d="M275 106q-24 -36 -63 -52.5t-78.5 -12.5t-72.5 28.5t-45 68.5q-5 40 8.5 69.5t38 48.5t56.5 27t64 5t60 -17.5t46 -40.5h3q1 0 2 1q19 54 34 110t28 115t24.5 121.5t24.5 130.5q-13 20 -19.5 38.5t-9.5 38t-3.5 41t-1.5 47.5q0 13 5.5 21t13.5 10.5t17.5 -1t18.5 -13.5
q0 -6 1 -23.5t3.5 -38.5t6 -41t9.5 -30q13 40 29.5 74t36.5 56.5t43 29.5t49 -8q35 -17 47.5 -45t7 -58.5t-25 -60t-47 -50t-61 -28.5t-66.5 5q-13 -31 -23.5 -74.5t-20 -92.5t-18.5 -100t-19.5 -96.5t-22.5 -82t-27 -57.5q58 -73 131.5 -101t150 -17t151.5 59t136 127
q7 23 18 32.5t21.5 9t18.5 -9.5t10 -22t-4.5 -28.5t-24.5 -30.5q-71 -87 -154.5 -135.5t-171 -58t-173.5 18.5t-162 93zM71 142q16 -30 42 -39.5t53 -2.5t50.5 27.5t32.5 50.5q-15 34 -45.5 48.5t-61 9.5t-52.5 -29t-19 -65zM597 856q-9 10 -26.5 3.5t-35.5 -24.5t-32 -44.5
t-16 -55.5q15 -16 41 -7.5t47.5 30t30.5 49t-9 49.5z" />
    <glyph glyph-name="M" unicode="M" horiz-adv-x="1147" 
d="M868 294q68 160 99.5 270.5t35.5 177t-15 92t-53.5 14.5t-79.5 -55.5t-93 -116.5q-56 -89 -96 -168.5t-70 -154t-52 -146.5t-41 -146q-2 -16 -12.5 -24.5t-21.5 -8.5t-18 9t-2 28q24 114 53 206.5t55 167.5t45 134t24.5 104.5t-7.5 80t-50 61.5q-49 9 -91.5 -23t-81 -92
t-75.5 -141t-75.5 -169t-80 -177t-89.5 -165q-9 -23 -25 -33.5t-29 -9.5t-17.5 12t9.5 31q42 85 85 168.5t80 166t62.5 165t31.5 165.5q0 48 -20.5 66.5t-68.5 18.5q-27 5 -51 -7t-42 -30t-27.5 -38t-7.5 -32.5t17 -13t47 21.5q21 -7 27.5 -16.5t-0.5 -19.5t-27 -19.5
t-51 -16.5q-42 9 -57 30t-11 47.5t23.5 54t47.5 49.5t61 34.5t63 8.5q35 1 59 -8.5t40 -27.5t26 -43t17 -56q4 1 13 15.5t23.5 34t35 41t46.5 37.5t58.5 23t71.5 -3q39 -15 59.5 -39.5t29 -55t9 -67t0.5 -75.5q10 19 24.5 47t32.5 59t40 61.5t46.5 55t51 38.5t55.5 13
q31 0 59 -9.5t47.5 -35t27.5 -69.5t-2 -111.5t-40 -162t-87 -220.5q-37 -100 -45.5 -156.5t2.5 -78.5t37.5 -16t61 31t72 63.5t71.5 80.5q22 28 38 37t25 6t12 -14.5t-1 -24.5q-18 -32 -50.5 -69.5t-71.5 -71.5t-80 -61t-78 -38.5t-64.5 -4t-39.5 42t-4 100.5t44 171z" />
    <glyph glyph-name="N" unicode="N" horiz-adv-x="778" 
d="M526 192q50 159 82.5 282.5t40 205.5t-14 120t-81.5 27q-22 -8 -50.5 -27t-56.5 -46t-52.5 -60.5t-38.5 -69.5l-212 -608q-6 -13 -15 -19.5t-17.5 -5.5t-14.5 10t-7 28q3 16 8 33.5t13.5 45t23.5 70t38.5 109t57 162t81.5 228.5q0 60 -20.5 84.5t-50 24t-63.5 -21
t-61.5 -51.5t-44 -67t-10.5 -67q8 -39 24.5 -50.5t34.5 -7.5t34 17t24 24q10 8 17.5 4.5t9.5 -12.5t-1 -21t-12 -21q-25 -32 -56 -40.5t-58 2.5t-44.5 40.5t-16.5 73.5q-1 49 21 93.5t56.5 78.5t77 54.5t83 23t72.5 -16.5t47 -64q22 20 36.5 37t30 32t37 30.5t58.5 32.5
q72 16 115 -15.5t51.5 -115.5t-20.5 -222t-101 -335q-21 -70 -19.5 -105.5t18 -44.5t43 4.5t55.5 41t57 64.5t47 76q12 18 24 21t19.5 -3.5t7.5 -22t-14 -35.5q-15 -38 -40 -72t-54.5 -61.5t-61 -46t-60 -25.5t-51 -0.5t-35 30t-11.5 65.5t20 105z" />
    <glyph glyph-name="O" unicode="O" 
d="M302 -2q-93 7 -153 50.5t-90.5 109t-35 146.5t13.5 164.5t55 162.5t89 141t117 100t137 38q77 -7 132 -51.5t88 -112.5t45.5 -151.5t3.5 -168.5t-39 -165.5t-80 -141t-121 -94.5t-162 -27zM79 298q0 -53 15 -98t44.5 -78t73 -51.5t99.5 -18.5q77 1 137 34.5t102.5 87.5
t67.5 123t32.5 142t-2 144t-36.5 128.5t-71.5 96.5t-106.5 48q-55 0 -103 -29t-87.5 -76t-70 -107t-51.5 -122t-32 -120.5t-11 -103.5z" />
    <glyph glyph-name="P" unicode="P" horiz-adv-x="713" 
d="M116 17q-4 -10 -12.5 -14t-17.5 -2t-16.5 10.5t-8.5 24.5l140 590q-41 -12 -81.5 -15.5t-70.5 6.5t-44 35.5t-1 69.5q-2 13 2 19.5t10 9.5t11.5 4t7.5 2h2q1 0 1.5 0.5t1.5 0.5q5 -59 18.5 -83.5t33.5 -24.5t46 20t57 49t66.5 61.5t74 59.5t79.5 42t84 9
q84 -15 131 -53.5t63 -89.5t4.5 -108.5t-43.5 -111.5t-81 -98t-108 -66.5t-124.5 -19t-131.5 44.5zM233 463q44 -44 93.5 -54.5t96.5 3t88.5 46t70.5 74.5t42.5 89t4 89.5t-45 75t-104.5 45.5q-35 1 -66.5 -16.5t-59.5 -48t-50 -69.5t-38 -80.5t-24.5 -81.5t-7.5 -72z" />
    <glyph glyph-name="Q" unicode="Q" horiz-adv-x="733" 
d="M455 73q-67 -61 -139 -71.5t-133 21t-101 100.5t-43 168q-4 64 9.5 137t42 144.5t69 136.5t91 113t109 73t121.5 18q54 0 89.5 -14t57.5 -35t34.5 -46t20.5 -46t15.5 -35t19.5 -14t22 4.5t20 10t20.5 10t23.5 4.5q20 -12 23 -22.5t-5 -20t-23 -18.5t-32 -17t-32 -15.5
t-22 -14.5q5 -73 -8.5 -153.5t-40 -156t-61.5 -140t-74 -105.5q0 -14 4.5 -27t9.5 -25t9.5 -23.5t4.5 -22.5q0 -5 -2.5 -13t-7 -15.5t-10.5 -12.5t-12 -5q-21 0 -29 17.5t-12.5 40t-9.5 43t-19 27.5zM470 867q-66 -9 -121 -45.5t-98 -90.5t-74 -121t-49 -136.5t-22 -137.5
t6.5 -125t36.5 -97t67.5 -54.5t99.5 2t134 73.5q0 37 -9.5 70.5t-9.5 70.5q-6 11 -3.5 25.5t10.5 24t18.5 10t19.5 -15.5l36 -143q23 18 44 50.5t38 74t30 87.5t20.5 91t9.5 85t-3 70q-47 -2 -87 17t-66 52t-34.5 76t9.5 87h-3zM519 853q-15 -13 -16.5 -30.5t7 -35.5t25 -35
t35 -29.5t38 -19t35.5 -3.5q4 48 -10 77t-35 45t-43.5 22t-35.5 9z" />
    <glyph glyph-name="R" unicode="R" 
d="M74 4q-8 0 -16.5 1t-15.5 3.5t-11.5 7t-3.5 11.5q42 117 75 203.5t58 149t42.5 104.5t30 69.5t20 43.5t12 26.5t7 19t3.5 20.5q-46 -3 -87.5 13t-69.5 41.5t-39 55.5t4 54q24 0 41 -15.5t35 -34t40.5 -34t58.5 -15.5q36 24 58.5 52t46.5 53t57 44.5t90 27.5
q67 5 107.5 -19t58.5 -65t14 -94t-26 -106.5t-60.5 -101t-90.5 -78.5q-5 -32 -14.5 -70.5t-18.5 -78.5t-14.5 -78t-1.5 -69.5t19.5 -54t48.5 -29.5q24 -4 49 8.5t50 34.5t47.5 49.5t41 51.5t30.5 41.5t16 19.5q9 0 16.5 3t13 3t8.5 -6t3 -24q-74 -124 -149 -188t-136 -54
q-50 14 -75 39.5t-34 57.5t-5.5 70.5t11 78.5t15.5 80.5t8 78.5q-70 -34 -119.5 -34.5t-76.5 38.5zM416 454q-11 22 -30 33t-39.5 10.5t-40 -14.5t-31.5 -41q8 0 30 -2t46 -2.5t43 2.5t22 14zM287 519q28 17 53.5 18.5t49 -5.5t45 -18.5t41.5 -20.5q40 13 70.5 46t50 74
t26 85t-2.5 79.5t-34 56.5t-69 17q-35 0 -64.5 -17.5t-53.5 -45.5t-43 -64t-33 -73t-23 -71.5t-13 -60.5z" />
    <glyph glyph-name="S" unicode="S" horiz-adv-x="739" 
d="M4 15q0 14 23 20.5t56 15.5t70.5 25.5t66.5 49.5q0 22 -22 53.5t-49 69t-49 78t-22 80.5q0 15 10 24t25 7q43 -38 70 -58.5t48 -31t42.5 -15t54.5 -10.5q12 -3 16 -7.5t2 -9.5t-7.5 -10t-11.5 -9q-14 -7 -36 -2t-47 15t-49 21.5t-40 18.5q20 -46 44.5 -92t64.5 -77
q34 33 68 73.5t69.5 86t75 94t85.5 96.5q-37 23 -57.5 60t-26.5 79t2.5 85t29 77t52.5 54.5t74 19.5q25 -7 37 -26.5t14.5 -47.5t-2.5 -63t-13.5 -73.5t-19.5 -78.5t-20 -77q49 -72 69 -141t17.5 -130.5t-24.5 -113.5t-57.5 -89.5t-80.5 -59t-94 -21.5t-98.5 23.5
t-93.5 75.5q-28 -2 -55 -20t-56 -37t-62 -31t-73 -2q-13 5 -16.5 12.5t-3.5 18.5zM303 127q44 -58 88.5 -81t85 -20t76 28t61.5 63.5t40 86.5t12.5 96t-20.5 93t-60 78q-8 -11 -30 -38t-50.5 -61.5t-60.5 -73t-61 -73t-51 -61t-30 -37.5zM606 835q-23 -6 -40 -25t-27 -44.5
t-12.5 -55t3 -56.5t19.5 -49t37 -32q22 56 38 104.5t20.5 84t-4 55t-34.5 18.5z" />
    <glyph glyph-name="T" unicode="T" horiz-adv-x="602" 
d="M4 291q-6 12 -5 25.5t7.5 23t16.5 12.5t22 -5q18 -3 36 -19.5t37.5 -32.5t41 -24.5t45.5 5.5q16 -8 22 -20.5t3.5 -24.5t-13.5 -22t-30 -13q-21 3 -32 9t-21.5 14.5t-25 19.5t-42.5 25q0 -36 23 -75t58 -71t76 -53t76 -21q56 -3 89.5 28.5t52.5 88t27.5 132.5t15 161.5
t14 175t25.5 173.5q-30 -18 -68 -36.5t-79 -32.5t-83 -21.5t-80 -4t-70 20t-53 50.5q-10 7 -11.5 16t3 16.5t14 12.5t20.5 4h2q1 0 1 0.5t1 0.5q28 -43 64 -58t76 -11t81.5 21.5t79.5 38.5t71 41.5t56 29.5t33.5 2.5t3.5 -39.5q-13 -198 -26.5 -337.5t-28.5 -233.5
t-33 -148.5t-39 -83.5t-46.5 -38.5t-55.5 -12.5q-79 -13 -138 5.5t-101.5 59.5t-70 99.5t-42.5 126.5z" />
    <glyph glyph-name="U" unicode="U" horiz-adv-x="688" 
d="M481 -1q-33 0 -53 12.5t-30.5 33t-13 46.5t-0.5 53t6.5 53.5t9.5 47.5v4q-58 -82 -99.5 -128.5t-71.5 -70t-50.5 -30t-35.5 -8.5q-58 -12 -87.5 15t-38.5 79t-1.5 123.5t25 149.5t39.5 156t42 144t33.5 113t13.5 63q3 27 16 43t25.5 17.5t19.5 -12t-1 -43.5
q-14 -54 -32.5 -117.5t-38 -131t-37.5 -135.5t-31 -130t-19 -115.5t-1.5 -91.5t22 -58t51.5 -15q45 25 84 59.5t75 82.5t71 111t73.5 144t82.5 182.5t97 226.5q7 17 22.5 30.5t29 17t20 -7t-3.5 -40.5q-60 -151 -104 -266t-74 -200t-48 -143t-25.5 -96t-6 -59t10 -31
t22.5 -12.5t32 -3.5q30 1 61.5 25t58.5 56t48 65t31 51q8 6 16 9t14 3t8 -5t-1 -15q5 -20 -6 -47t-32.5 -56.5t-50.5 -57.5t-59.5 -49t-59 -33t-48.5 -8z" />
    <glyph glyph-name="V" unicode="V" horiz-adv-x="635" 
d="M195 35q49 253 64 408t-4.5 215.5t-73 28t-141.5 -152.5q-20 0 -24 14.5t1 30.5q17 24 38 56.5t47 61.5t57 49.5t67 20.5q28 0 46.5 -12t29 -31t15 -43.5t4.5 -48.5q-1 -51 -7 -102t-13 -101.5t-12 -102t-4 -104.5q75 118 125 200.5t82 139t49.5 90.5t29 53.5t20.5 29.5
t23 18q9 7 28.5 8t45 -1t54 -4t56 -1.5t52 7t40.5 21.5q6 -7 7.5 -16.5t-0.5 -19t-8.5 -16.5t-16.5 -10q-79 -8 -125.5 -16t-71.5 -15.5t-33 -13.5t-10 -8q-6 -7 -16 -20.5t-27 -39t-42.5 -66.5t-63.5 -103.5t-89 -151t-119 -207.5q-6 -13 -14.5 -28t-18 -28.5t-19 -22.5
t-16.5 -10t-10.5 9t-1.5 35z" />
    <glyph glyph-name="W" unicode="W" horiz-adv-x="762" 
d="M214 17q-12 -17 -22 -20t-17.5 3.5t-11.5 20.5t-3 32q18 20 34 65.5t30.5 104t27 122t21.5 119.5t14.5 97t7.5 54q0 14 -1 42t-7 56t-20 49t-40 21q-38 2 -64 -17t-45.5 -48t-35.5 -62t-33 -60q-22 -12 -32 -0.5t-1 39.5q8 25 26.5 60t44 66.5t56.5 54t66 22.5
q40 0 67 -20.5t43 -52t23 -68.5t7 -70q0 -3 -0.5 -9t-2 -19t-5 -36t-9.5 -60t-15.5 -90.5t-22.5 -127.5q50 46 88.5 54.5t64 -9t39 -56t13.5 -87.5q56 141 95 240t65 165.5t41.5 105t25 58t15 24.5t12.5 5q15 -72 75 -89.5t149 30.5q12 0 21.5 -6t13 -14t0 -17.5
t-16.5 -16.5q-51 -18 -82 -27.5t-54.5 -8.5t-46.5 12.5t-59 35.5q-11 -14 -21 -32t-21.5 -47t-26.5 -71.5t-37 -106t-51.5 -150.5t-70.5 -205q-10 -28 -18 -44t-16 -22t-17 -3t-20 14q15 127 -2.5 191t-54 64t-85.5 -64t-98 -191z" />
    <glyph glyph-name="X" unicode="X" horiz-adv-x="532" 
d="M492 -4q-49 21 -74.5 57.5t-42.5 88t-33.5 118.5t-47.5 150l-238 -425q-13 0 -26.5 9t-13.5 22q0 5 10 22t37 65t73.5 137.5t118.5 238.5q2 24 2.5 56.5t-3.5 68t-13 70.5t-26 64t-42 48.5t-61 23.5q-31 2 -48 -10t-22 -30t0 -37.5t19 -31t35 -11t47 21.5
q13 -24 4.5 -39.5t-28 -21.5t-44.5 -3t-46 14.5t-33 32t-5 50.5q0 23 8.5 44t23.5 37.5t35.5 26.5t44.5 10q51 0 88.5 -31.5t63 -78.5t40 -102t20.5 -102q57 102 86.5 165t43 97t15.5 45.5l2 11.5q12 16 23 20t18.5 -2.5t10 -21.5t-1.5 -37l-168 -364q19 -107 38.5 -176.5
t37.5 -112t34 -63t28.5 -29.5t20 -11t9.5 -8q0 -5 -1 -16t-3.5 -22.5t-6.5 -20t-9 -8.5z" />
    <glyph glyph-name="Z" unicode="Z" horiz-adv-x="810" 
d="M205 142q-39 -62 -76 -93t-63.5 -37t-38.5 10t-1 46.5t49 73t111 89.5l213 237q-10 -1 -29 -4t-37.5 -3.5t-32.5 5.5t-14 23q0 14 4 25t24 11h125q2 0 14 17t29 43t37 58.5t38 62.5t31.5 55t18.5 37q-43 -23 -88.5 -31t-92 -7t-93.5 7t-92.5 10t-89 4t-83.5 -12
q-15 2 -22 8.5t-7.5 14.5t3.5 15.5t11 12.5q37 21 86.5 24.5t105.5 -0.5t116 -10t118 -4t111.5 17.5t96.5 54.5q9 4 22 7t24.5 1.5t19 -8t5.5 -19.5v-6q-31 -36 -62.5 -82.5t-62.5 -96t-60 -98t-55 -87.5q31 -2 59 2t42.5 2.5t12 -12.5t-32.5 -43h-25t-40 -0.5t-38.5 -2.5
t-20.5 -5l-226 -240q-1 -1 -1 -2v-3q38 -61 101 -86t135.5 -25.5t146 16t131.5 39.5q17 0 24.5 -8.5t7 -20.5t-8 -24.5t-20.5 -19.5q-85 -17 -155 -30.5t-135 -12t-130 24.5t-140 80z" />
    <glyph glyph-name="Y" unicode="Y" horiz-adv-x="733" 
d="M44 -566q0 71 16.5 122t44 89.5t64.5 68.5t79 61.5t85.5 67t85.5 85.5q15 38 22.5 78.5t10.5 81.5t3 82.5v82.5q-14 -21 -37 -51t-50.5 -61.5t-59 -60.5t-63.5 -48.5t-64 -25t-60 9.5q-44 31 -67 96t-30.5 147.5t-3.5 174.5t14.5 177.5t23.5 157t23 112.5q7 22 18.5 25
t20 -5.5t11.5 -24.5t-5 -31q-19 -56 -32.5 -124.5t-21 -141t-8.5 -145t5 -137t19 -116t35 -82t52 -35t70 24t90 95.5t110 181l102 449q6 14 15.5 21.5t18.5 7t15 -9.5t5 -28q-23 -89 -40.5 -185.5t-30 -194.5t-20 -193t-8.5 -179h6q32 10 65.5 38t66 62t61.5 67t52 54
q25 17 35.5 2t5.5 -43q-14 -33 -41.5 -61.5t-61.5 -54t-70.5 -50t-66.5 -49.5t-50.5 -51.5t-22.5 -55.5l-107 -535q-8 -68 -37 -112t-66.5 -63.5t-79 -14.5t-75 34.5t-54.5 82.5t-18 131zM88 -562q-1 -43 11.5 -80t33 -63.5t45 -40.5t49 -11.5t45 23.5t31.5 65l111 499
q-41 -23 -93 -55.5t-100 -79.5t-85.5 -110t-47.5 -147z" />
    <glyph glyph-name="grave" unicode="`" horiz-adv-x="184" 
d="M30 573q0 10 7.5 22.5t20.5 10.5q27 -28 50 -55.5t31 -59.5q0 -12 -7 -22t-21 -10q-5 10 -10 11.5t-13 9t-22 27.5t-36 66z" />
    <glyph glyph-name="bracketleft" unicode="[" horiz-adv-x="481" 
d="M344 -16q33 -20 38.5 -32t-7.5 -18t-41.5 -6.5t-63 1.5t-72 7t-70 9.5t-55.5 9t-28 6.5q28 188 48.5 321t36 222.5t26.5 143t19 83.5t14.5 43t13.5 22q42 -3 73 -3t59.5 4t58 12t67.5 22h2q1 0 1 0.5t1 0.5q11 0 16 -6t6 -14.5t-1.5 -18t-6.5 -16.5q-56 -17 -118 -30.5
t-122 -13.5q-2 -2 -4.5 -7t-7 -26.5t-13 -65t-21.5 -122.5t-32 -199t-46 -293q5 -5 21 -8.5t38 -7t47.5 -6t49 -5t43.5 -5t30 -4.5z" />
    <glyph glyph-name="backslash" unicode="\" horiz-adv-x="400" 
d="M9 855q0 12 5.5 21.5t14 13t17.5 0t16 -17.5l321 -828q2 -11 -3.5 -23t-14.5 -18.5t-18.5 -6.5t-16.5 13l-321 846v0z" />
    <glyph glyph-name="bracketright" unicode="]" horiz-adv-x="381" 
d="M257 -72q-20 -1 -52 -3t-65.5 -2.5t-64 1.5t-48.5 9t-18 20.5t28 35.5l180 -5l82 753h-225q-9 3 -12.5 12.5t-1 19t11 16.5t23.5 6q39 -2 63.5 -1t48 3t53.5 4t80 2q8 -2 10 -43.5t-1 -107t-9 -148t-14.5 -166.5t-18 -163t-19 -137t-17.5 -88.5t-14 -17.5z" />
    <glyph glyph-name="asciicircum" unicode="^" horiz-adv-x="414" 
d="M74 461q-9 0 -16.5 0.5t-12 4t-7 10.5t-0.5 20l175 206q7 6 14.5 10.5t15 6t15 -2t15.5 -13.5q9 -22 27 -51.5t37.5 -61t36.5 -62.5t24 -57v-4q-1 -9 -9 -15t-18.5 -8.5t-20.5 -0.5t-15 10q-32 59 -51.5 94t-31.5 53.5t-17 24.5t-6 6z" />
    <glyph glyph-name="underscore" unicode="_" horiz-adv-x="766" 
d="M37 16q-10 -2 -15.5 7t-4 21t11.5 22.5t30 11.5q39 0 92.5 1.5t131 1.5t185 -4t254.5 -15q12 0 19 -8t8 -18.5t-3.5 -21t-15.5 -14.5q-87 -8 -173.5 -6t-173 6.5t-173 10t-173.5 5.5z" />
    <glyph glyph-name="a" unicode="a" horiz-adv-x="553" 
d="M303 50q-24 -8 -40.5 -18.5t-32 -20.5t-35 -16.5t-49.5 -6.5q-75 16 -111.5 53.5t-41.5 85t16.5 98.5t61.5 93.5t94 71t114 30.5q15 2 37 2t42.5 -9t35.5 -28t17.5 -54t-12 -88.5t-53.5 -130.5q5 -39 22 -49.5t39 -2t47 32t46.5 52t37 57t19.5 48.5q22 19 38.5 5.5
t14.5 -42.5q-27 -76 -71.5 -124.5t-90.5 -69t-85 -13t-56 43.5h-4zM288 368q-37 -1 -76.5 -22.5t-72 -54.5t-54.5 -72t-25 -74.5t18 -62t74 -33.5q54 0 89.5 28t57.5 66.5t34 77.5t19 62q0 16 -3.5 31.5t-11 27.5t-19.5 19t-30 7z" />
    <glyph glyph-name="b" unicode="b" horiz-adv-x="623" 
d="M487 139q-21 -54 -55.5 -92t-77 -60t-89.5 -27t-92 8t-85 43t-69 79q-25 154 -18 285t35 227.5t70.5 152.5t87 61t85.5 -46.5t67 -171.5q2 -115 -22 -195t-62.5 -133.5t-85.5 -85t-90 -49.5q6 -43 36.5 -68t71.5 -32.5t86 2t80.5 34t55 64t9.5 93.5q5 8 17 12.5t19 5.5
q29 -38 49.5 -49t39.5 -8t40.5 14.5t53.5 18.5q14 0 27 -8t13 -24q-30 -24 -58.5 -39t-54 -21t-46 -3.5t-33.5 12.5h-5zM278 608q-21 85 -43 119t-43 29.5t-40.5 -40t-36 -88t-29.5 -115.5t-20.5 -123t-9.5 -109.5t3 -74.5h6q29 -7 59 9.5t57 48.5t49 75.5t36 90.5
t17.5 93.5t-5.5 84.5z" />
    <glyph glyph-name="c" unicode="c" horiz-adv-x="491" 
d="M17 205q-2 37 12.5 76t40 71.5t59.5 54.5t69.5 25.5t71 -15.5t64.5 -68q0 -20 -3.5 -31t-8 -16t-9 -6t-6.5 -1q-16 41 -40.5 59.5t-51.5 19.5t-53 -13t-45.5 -37t-30.5 -52.5t-7 -60.5q0 -63 25.5 -94.5t65 -39t88 5t95.5 37t86 57t61 65.5q13 10 25 16.5t20 5t11.5 -14
t0.5 -40.5q-28 -42 -77 -82t-107 -68t-119 -39.5t-111.5 2t-85 57t-40.5 126.5z" />
    <glyph glyph-name="d" unicode="d" horiz-adv-x="712" 
d="M365 82q-32 -24 -71.5 -42.5t-80 -27t-79 -5t-68.5 21.5t-49 52.5t-20 89.5q1 47 21 88t52.5 73t74.5 54.5t87.5 31.5t91.5 2.5t86 -30.5q7 2 18.5 38.5t27 90.5t33.5 115.5t37.5 114.5t38.5 88t37 35q4 0 10.5 -2t11.5 -6t8.5 -9t1.5 -11q-111 -302 -163.5 -476.5
t-52.5 -223.5q4 -43 25.5 -60.5t52.5 -16t67 19t69.5 45t59.5 62t38 70.5q13 0 27.5 -1.5t16.5 -20.5q-15 -51 -46 -94t-71 -74t-84 -48.5t-84.5 -18t-73.5 17t-50 57.5zM58 169q0 -21 7 -40.5t20 -34.5t31 -24t40 -9q37 0 77.5 20t73.5 51.5t54.5 71.5t21.5 79
q0 21 -8.5 35t-22.5 22.5t-33.5 12t-40.5 3.5q-41 0 -80.5 -13.5t-70.5 -38.5t-50 -59t-19 -76z" />
    <glyph glyph-name="e" unicode="e" horiz-adv-x="479" 
d="M254 -8q-78 -9 -129 6t-80 45t-38 71t-4 85t22.5 86.5t42.5 75.5t54.5 51.5t58.5 15.5q61 -2 88 -25.5t28.5 -58t-18.5 -74t-51.5 -74t-70 -58.5t-75.5 -27q29 -47 68 -63t81.5 -11.5t84.5 26.5t77 51t59 61t30 59q8 13 18.5 16t19.5 -1.5t14 -15.5t2 -24
q-19 -39 -47 -78.5t-63.5 -70.5t-79 -50t-92.5 -18zM184 373q-32 -3 -55 -27.5t-35.5 -57t-14 -65.5t8.5 -53q18 2 42.5 18t47 38.5t39.5 48.5t21.5 47.5t-7 36t-47.5 14.5z" />
    <glyph glyph-name="f" unicode="f" horiz-adv-x="482" 
d="M-56 -322q28 230 50 402t42.5 296t41 206.5t46.5 134.5t59.5 78.5t78.5 39.5q50 1 79 -27t41.5 -75t10 -108.5t-16.5 -128.5t-37 -134.5t-52 -125.5t-61.5 -103t-65.5 -67q36 -26 76.5 -18.5t82.5 37.5t84 76.5t83 98.5q23 -9 23 -27.5t-4 -40.5q1 2 -9.5 -9t-28.5 -30
t-43 -43.5t-53.5 -47.5t-58.5 -42.5t-58 -29.5q22 -15 37.5 -58.5t19.5 -100t-5 -119.5t-35.5 -117t-73 -91.5t-117.5 -43.5q-44 0 -70.5 20.5t-41 52.5t-19.5 70.5t-5 74.5zM-2 -307q0 -25 2 -54.5t10.5 -55t26.5 -43t50 -17.5q42 4 75 28.5t56 61.5t35.5 82.5t13.5 91
t-10.5 87.5t-35.5 72t-61.5 44.5t-89.5 5.5q-5 1 -12.5 -17.5t-15.5 -47.5t-16 -65.5t-14 -70.5t-10 -61.5t-4 -40.5zM49 90q36 3 70.5 31t65.5 72t57.5 99.5t45.5 114.5t29.5 117t10.5 106.5t-12 83t-38 46.5q-46 -1 -77.5 -41.5t-56.5 -123.5t-47 -208.5t-48 -296.5z" />
    <glyph glyph-name="g" unicode="g" horiz-adv-x="590" 
d="M374 -2q-18 -193 -50.5 -320.5t-71 -200t-78.5 -96.5t-72.5 -10.5t-53.5 59t-21.5 112t24 148t82.5 166.5q45 48 76 79t50.5 49t29 27t12.5 14.5t0.5 10.5l-7.5 15q-20 -19 -50.5 -33t-65 -21t-68 -4.5t-60 16t-41 40.5t-10.5 69q0 55 18 110.5t51.5 100.5t81.5 73
t108 28q75 1 112.5 -26.5t47.5 -74.5t-3 -109.5t-38 -130.5q1 0 2.5 -1.5t3.5 -0.5q31 1 65 17.5t64 40.5t53.5 51.5t32.5 51.5q14 13 24.5 13.5t16.5 -7t7.5 -21t-3.5 -28.5q-17 -50 -52 -80t-75 -51t-78.5 -37.5t-63.5 -38.5zM74 -455q9 -67 26.5 -90t39.5 -15t46 42
t46 81.5t40 103.5t27.5 108.5t9.5 95t-15 64.5q-41 -35 -82 -77t-72.5 -91t-50 -105t-15.5 -117zM52 123q7 -51 31.5 -69.5t57 -13.5t68.5 30t67 61t52 78t24 82q0 23 -10 38t-25 23.5t-34 12t-37 3.5q-47 0 -83 -23t-60.5 -58.5t-37.5 -79t-13 -84.5z" />
    <glyph glyph-name="h" unicode="h" horiz-adv-x="647" 
d="M692 180q-77 -79 -133.5 -124t-96 -63.5t-64 -14t-38 24.5t-18 52t-4 69t3.5 75t5.5 69.5t1.5 54t-9 27.5q-36 14 -70.5 3t-66 -38.5t-59 -67.5t-49 -84t-37 -88t-21.5 -79q-8 -9 -16.5 -14t-16 -5t-12 4.5t-3.5 14.5q20 123 35 230.5t29.5 197t31.5 159.5t41 117.5
t57 71t81 20.5q40 -15 56.5 -43t17 -63.5t-11 -75.5t-26 -79t-29 -73.5t-20.5 -58.5q55 22 87.5 17.5t49.5 -27t21.5 -57.5t3.5 -74t-3.5 -77t0 -66t14 -41t38.5 -1.5t73.5 51.5t119.5 118q8 9 21 15.5t22 2t9.5 -22.5t-15.5 -57zM98 303q28 37 60.5 87.5t61 103.5t49 102
t23.5 83t-15.5 48t-66.5 -4q-32 -29 -51.5 -76.5t-30.5 -104.5t-17.5 -119t-12.5 -120z" />
    <glyph glyph-name="i" unicode="i" horiz-adv-x="307" 
d="M336 205q-19 -33 -50.5 -70t-68.5 -69.5t-75.5 -55.5t-70.5 -27.5t-54 14.5t-26 69.5t14 138t65 221.5q7 0 18 0.5t21.5 -0.5t18 -3.5t7.5 -8.5q-32 -67 -54 -133t-30 -117.5t0.5 -81.5t38 -24.5t83 54t134.5 154.5q11 11 21 7t16 -15.5t5 -26.5t-13 -26zM151 555
q-23 0 -32.5 14t-8 30.5t14 28.5t35.5 8q17 0 21 -8t4 -23q0 -16 -9.5 -33t-24.5 -17z" />
    <glyph glyph-name="j" unicode="j" horiz-adv-x="323" 
d="M-201 -632q-74 21 -108 67t-35.5 105t25.5 125.5t74.5 128t111.5 112t137 78.5l41 380q1 24 18 43t34.5 24.5t27.5 -8.5t-4 -56q-24 -67 -34 -127.5t-11.5 -107t2.5 -74.5t6 -29q9 0 26.5 12.5t39 32t45.5 43t45 45t37 37.5l22 22q29 31 45.5 32t21 -13t-2 -36.5
t-23.5 -39.5q-102 -96 -173 -161.5t-119 -107.5q-19 -48 -31 -106t-23 -117t-24 -114t-34.5 -98t-54 -68t-82.5 -24zM-23 -103q-51 -12 -95.5 -48.5t-78 -84.5t-53.5 -102t-21 -101.5t19.5 -83t67.5 -46.5q11 0 21 5.5t20.5 23t22 49t25.5 83.5t31.5 126.5t40.5 178.5z
M143 639q0 22 17 33t32 11q18 0 29.5 -8.5t11.5 -27.5q7 -25 -6.5 -38t-32 -14t-35 10t-16.5 34z" />
    <glyph glyph-name="k" unicode="k" horiz-adv-x="536" 
d="M167 182q0 14 12 20t30 10t38.5 9t38.5 16t30 31t12 55q-18 45 -40 61t-46 10.5t-48.5 -28.5t-47.5 -56.5t-43.5 -74t-35 -80.5t-23 -76t-7.5 -61q-9 -12 -21.5 -17t-24 -5t-17.5 5t-1 14q2 -2 9 16.5t15.5 49t17 67.5t15.5 73t10.5 66t1.5 45q-11 88 -0.5 168t33.5 145
t53.5 111t59 66.5t51 11.5t29 -54t-6.5 -129.5t-56 -215.5q32 8 60.5 16.5t51.5 1.5t39.5 -37t25.5 -98q0 -33 -11.5 -55t-31 -38.5t-45 -29t-52.5 -27.5q8 -66 28 -98.5t47 -38.5t59.5 10.5t65 49.5t64 78.5t56.5 96.5q13 0 23.5 -6t15.5 -15.5t4 -20t-11 -19.5
q-78 -116 -147.5 -172t-125.5 -57t-96 51.5t-58 154.5zM192 741q-30 -31 -49 -69.5t-30 -79t-16 -80.5t-6 -74t-0.5 -58.5t-0.5 -33.5q15 22 33.5 56.5t36.5 75t32 82.5t20.5 78.5t2.5 64t-23 38.5z" />
    <glyph glyph-name="l" unicode="l" horiz-adv-x="389" 
d="M123 -12q-56 15 -86 67.5t-38 127.5t4 163.5t40 175t69.5 163t92.5 126.5q28 17 49 15.5t35 -14.5t21.5 -34.5t7.5 -45.5q-6 -86 -27 -168t-54 -156t-77.5 -139t-98.5 -117q0 -54 20.5 -75t52.5 -19t71 22.5t77.5 50.5t72 64t54.5 63q22 -16 12.5 -43.5t-37.5 -58.5
t-68 -62.5t-79 -56t-71 -38.5t-43 -11zM236 750q-27 -13 -52 -52.5t-46 -92.5t-37.5 -112.5t-27 -112t-14 -92t1.5 -52.5q19 10 40.5 38t42.5 67t41 85.5t36 93t27 89.5t14 75t-3 50.5t-23 15.5z" />
    <glyph glyph-name="m" unicode="m" horiz-adv-x="1175" 
d="M491 -27q-2 26 11 64.5t30.5 80.5t35 83.5t26 73.5t3 50.5t-34.5 15.5q-48 -11 -84.5 -37t-67 -61t-56.5 -75.5t-51.5 -81t-52.5 -76.5t-60 -62q-9 0 -13.5 4.5t-6 11t-1 14.5t1.5 15q51 96 80 164.5t40 113t7 66t-20 23.5q-44 7 -77 -8.5t-58 -41t-44 -54.5t-35 -47.5
t-31.5 -21t-32.5 25.5q83 122 155.5 176.5t123.5 55.5t75.5 -44t12.5 -123q28 26 60 54t64 47.5t61.5 25.5t52 -11.5t35 -64t11.5 -131.5q55 67 94 106.5t67 59.5t48 25.5t38 5.5q39 -3 62 -23.5t27.5 -59.5t-12 -98.5t-56.5 -140.5q-7 -31 8.5 -35.5t42.5 8t62 38t67.5 55
t58 58.5t34.5 49q16 7 28.5 8t20 -4t8 -15.5t-7.5 -25.5q-19 -36 -54.5 -74t-78 -69.5t-86.5 -54t-80.5 -28t-60.5 10t-25 58.5q-1 22 9.5 47.5t24.5 52t27.5 53t17.5 50.5t-5.5 44t-41.5 34q-17 1 -40.5 -16t-51.5 -45.5t-60 -67t-64.5 -80.5t-64.5 -85.5t-62 -81.5
q-4 -10 -13 -14.5t-18 -3t-16 10t-7 23.5z" />
    <glyph glyph-name="n" unicode="n" horiz-adv-x="889" 
d="M646 5q-32 18 -46.5 38t-18.5 42.5t0 46t9.5 47t9.5 47t0 46t-18.5 42.5t-45.5 38q-33 0 -61 -16.5t-52 -43t-43.5 -59.5t-35.5 -66t-28.5 -63.5t-21.5 -50.5q-10 -23 -17.5 -33t-15 -10.5t-15.5 7t-17 20.5q40 136 45.5 214t-11 111t-49.5 28t-71 -33.5t-74.5 -75
t-60.5 -95.5q-32 -6 -36 13t10.5 50.5t42.5 69.5t60 70.5t64.5 53t55.5 16.5q45 0 70.5 -14.5t37.5 -40t15 -60t3 -73.5q37 53 80 87t84.5 47t77.5 4t58.5 -41t28 -87.5t-14.5 -136.5q6 -48 23.5 -62t41.5 -5t52.5 34.5t57 55.5t54.5 58t45 43q30 -8 26.5 -32t-28 -55.5
t-63 -65.5t-79 -60.5t-76 -41.5t-53.5 -8z" />
    <glyph glyph-name="o" unicode="o" horiz-adv-x="667" 
d="M459 106q-51 -71 -109.5 -101t-115 -29.5t-105.5 26.5t-81 67t-42.5 92.5t10 103t77 97.5t159.5 77q63 -6 102 -32t62.5 -65t35.5 -85.5t23 -92.5q36 -7 66.5 3t56 28t47 40t39.5 39q24 -6 25.5 -22.5t-13 -37.5t-41.5 -43.5t-60 -39t-69 -24.5t-67 -1zM272 375
q-66 -8 -109 -34t-65.5 -61t-26 -74.5t9 -74t40 -60t67.5 -32t90.5 9.5t109.5 65q-38 11 -62.5 37.5t-38 61.5t-17 77t1.5 85zM329 353q-9 -5 -11 -22t1 -38.5t11 -44t19 -39t23.5 -23.5t25.5 3q-2 15 -11.5 43t-21 55.5t-22 47.5t-14.5 18z" />
    <glyph glyph-name="p" unicode="p" horiz-adv-x="504" 
d="M-120 -341q17 63 31 124t26 116t22.5 101.5t19.5 81.5q0 84 24 155t62 120.5t84.5 74t91 15t81.5 -57t57 -141.5q6 -58 -6.5 -95.5t-30.5 -60t-36.5 -33.5t-25.5 -15q15 -5 35.5 4t43.5 25.5t46.5 39t44.5 45.5t37 44t25 35q34 28 42 13.5t-5 -54.5q-36 -75 -93.5 -122.5
t-126 -69t-142.5 -17.5t-142 33h-4q-17 -46 -31.5 -99.5t-28 -104.5t-27 -96t-29.5 -74q-12 -11 -28 -10t-17 23zM185 56q0 20 -12 37t-35 17q-16 0 -34 -15.5t-29 -30.5zM41 139q18 25 50 26t63.5 -11t56 -30.5t29.5 -32.5h5q25 -3 43.5 13.5t28.5 43t12.5 56.5t-3.5 53
q-9 61 -35 88.5t-60.5 29.5t-71 -17.5t-65 -53t-44.5 -77t-9 -88.5z" />
    <glyph glyph-name="q" unicode="q" horiz-adv-x="549" 
d="M138 1q-23 -3 -46 1.5t-42 17t-31.5 32.5t-14.5 46q-2 27 4.5 59.5t19.5 66t32 65.5t42.5 56.5t50 39.5t55.5 15q20 -2 37.5 -20t31 -45t22 -59.5t10 -63.5t-6 -58t-24.5 -43q17 -25 39 -30.5t46.5 3t49.5 27t49.5 40.5t46.5 44.5t40 39.5q17 0 23.5 -6t12.5 -22
q-17 -21 -37 -46.5t-43 -51t-48 -48.5t-52 -38q16 -58 7 -119t-32.5 -116.5t-57 -99t-69 -65t-67 -16.5t-50.5 47t-21 126t23 221zM155 -190q0 -66 12 -100t30.5 -42.5t41.5 4t45.5 39t42 63t31.5 74.5t14 75t-10 64t-41.5 41.5t-80.5 7.5h-4q-27 -5 -43 -32.5t-24 -63
t-10.5 -72t-3.5 -58.5zM57 111q0 -27 13.5 -42.5t41.5 -15.5q25 5 49 24.5t42.5 47t31 60.5t14 65t-8.5 59.5t-36 45.5q-21 0 -40 -13t-35.5 -34.5t-29.5 -48.5t-22.5 -54t-14.5 -52t-5 -42z" />
    <glyph glyph-name="r" unicode="r" horiz-adv-x="517" 
d="M546 155q-59 -77 -108 -113t-86.5 -39t-62.5 22t-36.5 68.5t-8 101t22.5 119.5q-15 0 -30.5 5.5t-30.5 11.5t-29.5 11.5t-28.5 5.5h-4q-18 5 -25.5 -5t-15.5 -33t-22.5 -59t-47.5 -83q-12 -14 -25 -15.5t-21 5.5t-8 20.5t14 28.5q8 9 22.5 38t31 63.5t33 68t28.5 51.5
q6 12 14 16t22 2q16 -29 41.5 -48t54 -25.5t57.5 0.5t54 30q12 0 13 -14.5t-3.5 -32t-12.5 -33t-15 -17.5q-14 -50 -22 -97t-7 -81.5t12.5 -53.5t36.5 -13t64 40.5t96 106.5q28 17 38 7t-5 -60z" />
    <glyph glyph-name="s" unicode="s" horiz-adv-x="602" 
d="M639 205q-35 -50 -77.5 -93.5t-90 -76t-100 -51.5t-109.5 -19t-118 22t-124 71q-30 20 -36.5 48.5t3.5 60.5t32.5 66t52 66.5t61.5 61t61 49t51 31.5t30 8q42 -33 74 -86.5t44 -113t-1 -117.5t-60 -100q42 0 81.5 27.5t75.5 65.5t67.5 76.5t58.5 60.5q15 0 24 -6t12 -15
t0 -19t-12 -17zM41 127q3 -22 19 -39t39.5 -28.5t51.5 -17t55 -6t49.5 4.5t35.5 16q1 0 2.5 0.5t2.5 0.5q26 13 37.5 41t12 62.5t-8 71.5t-22 69t-30 54.5t-31.5 28.5q-8 -4 -29 -20.5t-47 -39.5t-53.5 -51t-49 -55t-32 -51.5t-2.5 -40.5z" />
    <glyph glyph-name="t" unicode="t" horiz-adv-x="348" 
d="M405 246q-35 -62 -79 -111.5t-90 -84t-90 -51.5t-79 -12.5t-57 31t-23 79.5t21.5 134.5t77.5 194.5l-98 8q-3 0 -7 9t-4 19.5t6 19.5t23 10q15 0 43.5 -0.5t54.5 -3.5l92 285q9 0 19.5 -0.5t18.5 -3.5t14 -10.5t6 -21.5l-88 -249q19 -2 28 -3t16.5 -1.5t18 -0.5t33.5 1
q16 -4 23 -13.5t6 -19t-9.5 -18t-23.5 -11.5l-101 5q-53 -109 -78.5 -182.5t-30 -118t9.5 -63t39.5 -16.5t59.5 21.5t70 51t71 71.5t62 83q7 0 14 1t13.5 -1t11 -8t6.5 -20z" />
    <glyph glyph-name="u" unicode="u" horiz-adv-x="692" 
d="M373 151q-68 -96 -129.5 -135t-110 -35t-81 44.5t-43 104t4 143t59.5 162.5q5 11 13 15t15 1.5t12 -12t5 -25.5q-36 -97 -46.5 -166t-1.5 -112t34 -61t59 -13t73 31t76.5 72t70 110.5t52.5 144.5q6 11 18.5 16.5t24 3t19.5 -14t7 -34.5q-66 -134 -77.5 -213.5t19 -98
t96 26t154.5 158.5q18 0 28 -5t8 -19q-32 -46 -71 -89t-79 -75t-78.5 -49t-68 -12t-46.5 37t-16 99z" />
    <glyph glyph-name="v" unicode="v" horiz-adv-x="545" 
d="M53 458q6 1 16.5 -1t20.5 -6.5t17.5 -11.5t7.5 -17q-1 -8 -3.5 -32t-6 -55t-6.5 -66t-4.5 -66t-2 -53.5t2.5 -29.5q55 79 92.5 135t64.5 89.5t47 44t40.5 -1.5t45 -46.5t61.5 -90.5q26 -25 43.5 -35.5t30 -9.5t22 12t19.5 29q25 24 38.5 22t2.5 -43q-17 -29 -39.5 -48
t-46.5 -26t-47.5 -1t-42.5 26q-31 63 -54.5 89t-45 24t-44 -27.5t-53 -65.5t-71.5 -90.5t-98 -101.5q-12 -6 -22.5 -10.5t-17 -3.5t-9 10t2.5 30z" />
    <glyph glyph-name="w" unicode="w" horiz-adv-x="798" 
d="M243 61q-17 -17 -31 -28.5t-29 -19t-32 -10.5t-39 -3q-46 3 -70.5 28.5t-34 64t-7 86t11 95.5t20.5 92t21 76q12 6 20.5 12t14 4.5t9 -13.5t6.5 -42q-1 -18 -7.5 -48t-14.5 -65.5t-13.5 -72t-3.5 -68t14.5 -54t41.5 -29.5q9 -5 23.5 3t31 22.5t33.5 33.5t32 35.5t26 29
t16 15.5q16 0 29.5 -4.5t13.5 -20.5q-23 -48 -26 -74.5t8 -34.5t33 0t48 29.5t53 55.5t49.5 76t36.5 92t14 104q0 6 8 11.5t18 6.5t20 -4t15 -20q20 -67 46 -114.5t54.5 -70.5t57 -19t52.5 40q23 -9 29 -24t-1 -30t-24.5 -27.5t-40.5 -17.5t-50 0t-52.5 25t-48 58t-36.5 99
q-13 -50 -36 -102.5t-52 -98.5t-62.5 -80t-68 -48.5t-67 -4.5t-59.5 54z" />
    <glyph glyph-name="x" unicode="x" horiz-adv-x="651" 
d="M725 209q-1 -19 -15.5 -46t-38.5 -54.5t-55.5 -53t-66.5 -41.5t-71.5 -19t-70.5 14t-63 57t-49 110q-24 -48 -52.5 -93t-66.5 -83q-19 0 -31 6t-14 30q0 7 20 32.5t44 61t44 77t20 81.5q-5 57 -28 75t-53 7t-62 -45.5t-55 -83.5q-6 -18 -15.5 -24t-17 -2.5t-11.5 16
t0 31.5q8 37 30 71t50.5 59t60.5 38t60.5 7.5t50 -32.5t30.5 -82l98 130q10 12 22.5 15.5t21.5 -1.5t12.5 -18.5t-3.5 -34.5l-102 -160q3 -91 36 -140.5t81.5 -52.5t105.5 42t109 143q10 17 20.5 19.5t18.5 -4.5t10.5 -21t-4.5 -31z" />
    <glyph glyph-name="y" unicode="y" horiz-adv-x="676" 
d="M297 -571q-72 30 -111 68.5t-52.5 82t-5.5 89t30.5 90t55.5 85.5t69 75t72 59t64 37q0 22 -2.5 46.5t-16.5 44.5q-27 -29 -53.5 -46.5t-55 -27t-62 -13t-73.5 -3.5q-34 0 -58.5 12t-40.5 33t-23.5 49t-7.5 60q0 10 1.5 30t4 45t7.5 51t11.5 47.5t15 35t19.5 13.5l2 -1h2
q1 -1 5 -4.5t8.5 -8t8 -8.5t5.5 -5v-4q1 -22 -5 -50t-12.5 -57.5t-10 -59t0.5 -54t18.5 -43.5t46.5 -27q73 0 119.5 19.5t75 48t43 62.5t24.5 62.5t19.5 48t27.5 19.5q14 0 20.5 -3.5t6.5 -19.5q-6 -37 -10.5 -72.5t-7 -71t-1 -72t8.5 -74.5q30 4 55.5 23t46.5 45t37 56
t28 55.5t19 43t10 18.5q12 20 23.5 25t19 -0.5t11 -20t-0.5 -33.5q-12 -64 -43.5 -112.5t-69.5 -83t-75.5 -56t-60.5 -31.5q1 -25 1.5 -72.5t-3.5 -105t-14.5 -117.5t-31.5 -109.5t-53.5 -81t-81.5 -31.5zM422 -77q-42 -10 -85 -40.5t-77.5 -72.5t-56 -90t-21 -94t27 -84
t88.5 -60q40 19 64 48.5t36.5 66.5t17 78.5t5 84.5t-0.5 84.5t2 78.5z" />
    <glyph glyph-name="z" unicode="z" horiz-adv-x="741" 
d="M557 -418q-52 7 -84 34.5t-46.5 68t-13 90.5t14.5 102.5t36.5 103t54.5 91.5v5q-13 25 -36.5 30.5t-51.5 -1.5t-57.5 -22t-54.5 -31t-43.5 -28.5t-23.5 -14.5q-15 4 -17.5 14t-2.5 21q0 19 14 34t31.5 33t31.5 41.5t14 59.5q-8 30 -21.5 57.5t-32.5 46.5t-43 25t-52 -7.5
t-61 -49.5t-69 -101q-10 -10 -20 -12t-16.5 4t-6.5 21t11 39q45 88 91 130.5t87 51t76.5 -12t60.5 -60t37.5 -93t8.5 -109.5q24 2 48 5t46.5 4t44.5 -3t42 -15q58 10 94.5 26t58.5 33t33.5 32t20.5 24q40 22 55 19.5t11 -19.5t-24.5 -43t-52 -50.5t-71 -42.5t-81.5 -18v-2
q0 -1 1 -2q23 -33 42 -78.5t30.5 -97t13 -103.5t-11 -97.5t-40.5 -81t-76 -51.5zM559 36q-28 -36 -48.5 -84t-32 -97t-13 -95t8.5 -79.5t32 -49t59 -4.5q31 17 49 47.5t25 68t4.5 79.5t-13.5 82t-29 74.5t-42 57.5z" />
    <glyph glyph-name="braceleft" unicode="{" horiz-adv-x="364" 
d="M283 -20q21 1 25 -9.5t-3 -22.5t-21 -20t-27 -1q-50 7 -89 30t-65.5 56.5t-40.5 76t-14 89.5q0 48 26.5 89t66.5 67q-1 10 -11.5 18t-25 15t-31.5 14.5t-31 17.5t-22.5 24.5t-7.5 35.5q0 13 13 22.5t32 17t42 15t42 17.5t32 24t13 35q0 13 -17.5 34t-38 48t-38 58.5
t-17.5 66.5q0 43 21.5 70t55 41t73.5 16t76 -4q10 -7 17.5 -15.5t10 -17t-1.5 -17t-16 -15.5q-21 3 -50.5 6.5t-56.5 0t-46 -17t-19 -43.5q0 -48 23 -81.5t50.5 -57t50.5 -40.5t23 -32q0 -18 -20.5 -39.5t-48 -41.5t-55 -35.5t-40.5 -21.5q-1 -1 -1 -2v-2q0 -22 20.5 -36
t44.5 -27t44.5 -28.5t20.5 -40.5q0 -13 -10.5 -21t-25.5 -15t-33.5 -15.5t-33.5 -22.5t-25.5 -35.5t-10.5 -55.5q0 -35 11.5 -66.5t33.5 -55t54 -37t72 -13.5z" />
    <glyph glyph-name="bar" unicode="|" horiz-adv-x="135" 
d="M82 33q-2 -15 -9.5 -25.5t-15.5 -13.5t-15.5 2t-9.5 20q1 8 2 29t1 61t0.5 103t0.5 154v214.5t1 284.5q1 7 7.5 14t15.5 10t17.5 0.5t12.5 -13.5z" />
    <glyph glyph-name="braceright" unicode="}" horiz-adv-x="338" 
d="M46 -54q39 0 70.5 17.5t53.5 46t33.5 63t11.5 69.5q0 33 -10 54t-25 35t-33 22t-33 15t-25 14.5t-10 20.5q0 24 20 39.5t43.5 28t43.5 26.5t20 35l-1 2v2q-13 6 -39.5 21t-53.5 34.5t-47.5 41t-20.5 38.5q0 15 22.5 31t50 39.5t50 56t22.5 79.5q0 30 -17.5 47t-43 25
t-53.5 8.5t-48 -2.5q-12 6 -16 14.5t-1.5 17t10 17t16.5 14.5q36 6 74 0t69.5 -24t51.5 -48t20 -72q0 -34 -17 -65.5t-37.5 -57.5t-37.5 -46.5t-17 -33.5q0 -20 12.5 -34t31.5 -24t41.5 -17t41.5 -14.5t31.5 -16.5t12.5 -22q2 -30 -17 -47.5t-43 -28.5t-44.5 -21t-21.5 -25
q39 -26 65 -65.5t26 -87.5q0 -45 -14 -91t-40.5 -84.5t-64.5 -65t-87 -33.5q-18 -14 -36.5 -7.5t-27 20t-2 26.5t39.5 13z" />
    <glyph glyph-name="asciitilde" unicode="~" horiz-adv-x="422" 
d="M188 323q-11 31 -25 47t-29 15.5t-29 -19t-23 -55.5q1 -6 -3.5 -12t-12.5 -8.5t-17.5 0t-18.5 14.5q-3 33 7 60.5t28 46t41.5 27.5t47 4t44.5 -25t35 -58q16 -31 35 -32t35 12t26.5 31t10.5 26q5 10 15.5 14.5t20 2t15.5 -12.5t2 -28q-13 -40 -44 -65t-64 -32.5
t-61.5 3.5t-35.5 44z" />
    <glyph glyph-name="Euro" unicode="&#x20ac;" horiz-adv-x="597" 
d="M-30 329q-5 23 1.5 32.5t17.5 12.5t24 2.5t22 1.5q8 28 10 58.5t3 60.5q-10 0 -21 2t-20 7.5t-14.5 14.5t-5.5 23q0 17 9.5 21.5t24 4.5t30.5 -0.5t29 5.5q14 46 47.5 100t78 102t95 83.5t98.5 44.5t89.5 -16t67.5 -97q1 -9 -3.5 -18t-12 -15.5t-16 -8.5t-16.5 3
q-13 55 -41 74t-63.5 11.5t-74 -35.5t-72.5 -66t-60.5 -81.5t-36.5 -81.5q8 1 26.5 3t37.5 0.5t34.5 -8t17.5 -22.5q0 -15 -11.5 -30t-28.5 -15h-119q-8 -63 -15 -89t4 -27q16 -3 35 4t35.5 11t27.5 -1t11 -32q0 -24 -17 -30.5t-37.5 -8.5t-37.5 -5.5t-17 -20.5
q-3 -49 17.5 -90.5t55 -72t79 -47t91 -17t91 17.5t77.5 58q12 0 23 -2t19 -7t12 -14t2 -23q-50 -48 -109 -70t-118 -22t-114.5 21t-97.5 58.5t-67 90t-24 116.5q-4 8 -15.5 10t-23.5 3t-22 3.5t-12 12.5z" />
    <glyph glyph-name="sterling" unicode="&#xa3;" horiz-adv-x="730" 
d="M189 197q-30 0 -49.5 -21t-34.5 -46.5t-29.5 -46.5t-35.5 -21q-11 0 -21.5 8t-10.5 19q-1 22 13 47t34.5 52.5t44 57.5t40.5 62.5t24.5 66.5t-3.5 70h-89q-8 0 -13 13t-6 23q1 2 4 9t5 9q7 0 23.5 0.5t33.5 3t30 9t13 19.5q0 32 -5.5 64t-5.5 65q0 41 20 86.5t53 84
t75 63.5t86 25q31 0 58.5 -13.5t48 -35.5t32.5 -50.5t12 -58.5q0 -24 -5 -46t-16.5 -39.5t-30.5 -27.5t-46 -10q0 19 6.5 33.5t15 27.5t15 26.5t6.5 31.5q0 17 -8 34.5t-21 32t-30 23.5t-34 9q-32 0 -63.5 -19t-56 -47.5t-40 -61.5t-15.5 -62q0 -37 3.5 -72t14.5 -69
q5 1 20 2t30.5 -0.5t28 -7.5t12.5 -20q0 -3 -1.5 -9t-4 -12t-6 -10.5t-7.5 -4.5h-62q3 -39 -3.5 -70.5t-15.5 -55.5t-17 -41.5t-8 -28.5q31 -3 53 -19.5t40.5 -39.5t36.5 -48.5t42 -47.5t56 -36.5t79 -14.5q44 0 68 14.5t37.5 31.5t21 31.5t18.5 14.5q23 0 34.5 -9t11.5 -30
q0 -26 -22.5 -47t-54 -36t-64.5 -23t-55 -8q-52 0 -91 14.5t-69 36.5t-52 47.5t-39 47.5t-31 36.5t-28 14.5z" />
    <glyph glyph-name="one" unicode="1" horiz-adv-x="142" 
d="M90 25q-8 -17 -19.5 -23.5t-22 -5.5t-17.5 9t-6 20q1 8 3 28.5t4 59t5 99.5t6.5 149.5t7.5 208.5t9 278q0 10 9 17t19.5 6t19 -10t7.5 -30z" />
    <glyph glyph-name="comma" unicode="," horiz-adv-x="184" 
d="M63 -66q6 23 14 46.5t13.5 47.5t5.5 49t-10 50q0 16 14.5 18.5t26.5 2.5q12 -16 17.5 -41t4.5 -52.5t-8 -53.5t-18 -44.5t-26.5 -25.5t-33.5 3z" />
    <glyph glyph-name="exclam" unicode="!" horiz-adv-x="364" 
d="M164 1q-27 1 -36 19t-5.5 39t18.5 39.5t38 20.5q22 -1 32.5 -18.5t8 -38.5t-16.5 -39.5t-39 -21.5zM180 213q0 21 5 61.5t14.5 93t21.5 112.5t25.5 119t28.5 113t29.5 94.5t27.5 63t24 19.5q7 0 6 -30t-7.5 -79t-18 -111t-24.5 -127t-27.5 -127t-27.5 -110.5t-23.5 -78
t-16.5 -29.5q-14 0 -25.5 0.5t-11.5 15.5z" />
    <glyph glyph-name="quotedbl" unicode="&#x22;" horiz-adv-x="267" 
d="M26 488q0 18 3.5 42t12 46.5t23 38t35.5 15.5v-43t-4 -56t-14 -48.5t-29 -20.5q-14 0 -20.5 5.5t-6.5 20.5zM131 501q0 18 3.5 42t12 46.5t23 38t35.5 15.5v-43t-4 -56t-14 -48.5t-29 -20.5q-14 0 -20.5 5.5t-6.5 20.5z" />
    <glyph glyph-name="numbersign" unicode="#" horiz-adv-x="459" 
d="M285 537q1 -17 1.5 -47t1.5 -68q45 -1 79.5 -1.5t45.5 -0.5q8 -9 9.5 -19.5t-1.5 -19t-9 -14t-13 -5.5q-6 1 -37 3t-73 4q1 -11 1 -23t1 -23q42 -1 74 -1h43q8 -9 9.5 -19.5t-1.5 -19t-9 -14t-13 -5.5q-5 1 -35 9t-69 10q1 -35 2 -67t2 -40q-9 -8 -19 -10t-19 0.5
t-14.5 8.5t-5.5 13q1 5 1.5 28.5t1.5 56.5q-11 1 -22.5 1h-22.5q1 -35 1 -61t1 -35q-9 -8 -19 -10t-19 0t-15 8t-6 13q1 5 2.5 28t2.5 57q-26 -1 -46.5 -1.5t-30.5 -3.5q-7 0 -14.5 5t-12 13t-3.5 18t12 21h94v47q-25 -1 -43.5 -2.5t-27.5 -3.5q-7 0 -14.5 5t-12 13t-3.5 18
t12 21l78 -6q-1 32 1.5 60.5t-1.5 39.5q0 7 4.5 14.5t12.5 12t18.5 4t21.5 -10.5q1 -16 1.5 -46.5t1.5 -68.5q12 0 24.5 -3.5t24.5 -3.5q-2 33 -4.5 61.5t-5.5 39.5q0 7 4.5 14.5t12 12t18 4t21.5 -10.5zM193 325q11 0 23 -0.5t23 -0.5v47q-12 1 -24 1h-23v-24t1 -23z" />
    <glyph glyph-name="quotedblleft" unicode="&#x201c;" horiz-adv-x="267" 
d="M26 488q0 18 3.5 42t12 46.5t23 38t35.5 15.5v-43t-4 -56t-14 -48.5t-29 -20.5q-14 0 -20.5 5.5t-6.5 20.5zM131 501q0 18 3.5 42t12 46.5t23 38t35.5 15.5v-43t-4 -56t-14 -48.5t-29 -20.5q-14 0 -20.5 5.5t-6.5 20.5z" />
    <glyph glyph-name="quotedblright" unicode="&#x201d;" horiz-adv-x="267" 
d="M26 488q0 18 3.5 42t12 46.5t23 38t35.5 15.5v-43t-4 -56t-14 -48.5t-29 -20.5q-14 0 -20.5 5.5t-6.5 20.5zM131 501q0 18 3.5 42t12 46.5t23 38t35.5 15.5v-43t-4 -56t-14 -48.5t-29 -20.5q-14 0 -20.5 5.5t-6.5 20.5z" />
    <glyph glyph-name="quoteleft" unicode="&#x2018;" horiz-adv-x="176" 
d="M98 423q-14 7 -22 27.5t-8.5 44t7.5 44t27 26.5h5q5 -2 11.5 -5t6.5 -4v-107q0 -2 -3 -5.5t-7.5 -8t-9 -8t-7.5 -4.5z" />
    <glyph glyph-name="quoteright" unicode="&#x2019;" horiz-adv-x="176" 
d="M98 423q-14 7 -22 27.5t-8.5 44t7.5 44t27 26.5h5q5 -2 11.5 -5t6.5 -4v-107q0 -2 -3 -5.5t-7.5 -8t-9 -8t-7.5 -4.5z" />
    <glyph glyph-name="endash" unicode="&#x2013;" horiz-adv-x="360" 
d="M69 263q-16 9 -17.5 24t9.5 29h62.5t54 -1t55 -2.5t66.5 -5.5q17 -8 18.5 -23t-9.5 -30q-34 0 -61 0.5t-53.5 1.5t-56 3t-68.5 4z" />
    <glyph glyph-name="emdash" unicode="&#x2014;" horiz-adv-x="360" 
d="M69 263q-16 9 -17.5 24t9.5 29h62.5t54 -1t55 -2.5t66.5 -5.5q17 -8 18.5 -23t-9.5 -30q-34 0 -61 0.5t-53.5 1.5t-56 3t-68.5 4z" />
    <glyph glyph-name="tilde" unicode="&#x2dc;" horiz-adv-x="422" 
d="M196 491q-11 31 -25 47t-29 15.5t-29 -19t-23 -55.5q1 -6 -3.5 -12t-12.5 -8.5t-17.5 0t-18.5 14.5q-3 33 7 60.5t28 46t41.5 27.5t47 4t44.5 -25t35 -58q16 -31 35 -32t35 12t26.5 31t10.5 26q5 10 15.5 14.5t20 2t15.5 -12.5t2 -28q-13 -40 -44 -65t-64 -32.5
t-61.5 3.5t-35.5 44z" />
    <glyph glyph-name="circumflex" unicode="&#x2c6;" horiz-adv-x="307" 
d="M61 486q-9 0 -16.5 0.5t-12 4t-7 10.5t-0.5 20l110 131q31 24 61 -18l90 -119v-4q-1 -9 -9 -15t-18.5 -8.5t-20.5 -0.5t-15 10l-72 84z" />
    <glyph glyph-name="acute" unicode="&#xb4;" horiz-adv-x="184" 
d="M167 566q-27 -45 -43.5 -64t-26 -26.5t-15.5 -9.5t-12 -11q-16 0 -24.5 9.5t-8.5 21.5q9 31 36.5 58t59.5 54q16 2 25 -10t9 -22z" />
    <glyph glyph-name="caron" unicode="&#x2c7;" horiz-adv-x="414" 
d="M219 531q1 0 2 -2.5t7 2.5t20 22t41 57q4 5 13 6.5t18 0t16 -5.5t8 -10v-3q-6 -18 -17.5 -32.5t-24 -28l-25 -27t-20.5 -28.5q-14 -14 -26.5 -10.5t-25.5 11.5l-105 115q-2 17 7 20.5t24 3.5z" />
    <glyph glyph-name="breve" unicode="&#x2d8;" horiz-adv-x="414" 
d="M84 598q38 -50 71 -69t61 -14.5t50.5 27.5t40.5 56q5 5 14.5 6t19.5 -0.5t17.5 -5.5t8.5 -10v-2q-8 -24 -25 -49.5t-41 -45t-54.5 -29.5t-65.5 -4t-74 32t-80 79q-2 8 3.5 13.5t14.5 9t19.5 5t19.5 1.5z" />
    <glyph glyph-name="hungarumlaut" unicode="&#x2dd;" horiz-adv-x="368" 
d="M187 569q-27 -45 -43.5 -64t-26 -26.5t-15.5 -9.5t-12 -11q-16 0 -24.5 9.5t-8.5 21.5q9 31 36.5 58t59.5 54q16 2 25 -10t9 -22zM317 554q-27 -45 -43.5 -64t-26 -26.5t-15.5 -9.5t-12 -11q-16 0 -24.5 9.5t-8.5 21.5q9 31 36.5 58t59.5 54q16 2 25 -10t9 -22z" />
    <glyph glyph-name="ring" unicode="&#x2da;" horiz-adv-x="303" 
d="M36 486q-6 38 6.5 64.5t35 42.5t52 21t58 -1.5t52 -24t35.5 -45.5q6 -29 -6 -50t-34 -34.5t-51 -18.5t-57.5 -2t-53 15t-37.5 33zM225 540q-24 21 -56.5 24t-57 -6t-34.5 -25.5t11 -34.5l3 -6q12 -7 37.5 -9.5t50 2t40 17.5t6.5 38z" />
    <glyph glyph-name="dotaccent" unicode="&#x2d9;" horiz-adv-x="158" 
d="M83 451q-27 1 -36 19t-5.5 39t18.5 39.5t38 20.5q22 -1 32.5 -18.5t8 -38.5t-16.5 -39.5t-39 -21.5z" />
    <glyph glyph-name="ogonek" unicode="&#x2db;" horiz-adv-x="213" 
d="M151 -195q-38 -13 -62 -3t-35 33t-10.5 54.5t10.5 62.5t29 56.5t45 36.5l15 -37q-23 -18 -35 -49t-12 -58.5t12 -43.5t35 -4h1z" />
    <glyph glyph-name="dotlessi" unicode="&#x131;" horiz-adv-x="307" 
d="M336 205q-19 -33 -50.5 -70t-68.5 -69.5t-75.5 -55.5t-70.5 -27.5t-54 14.5t-26 69.5t14 138t65 221.5q7 0 18 0.5t21.5 -0.5t18 -3.5t7.5 -8.5q-32 -67 -54 -133t-30 -117.5t0.5 -81.5t38 -24.5t83 54t134.5 154.5q11 11 21 7t16 -15.5t5 -26.5t-13 -26z" />
    <glyph glyph-name="fraction" unicode="&#x2044;" horiz-adv-x="397" 
d="M44 9q0 -5 -7.5 -7.5t-16 -0.5t-15.5 10t-5 25l332 861q12 12 23 12t19.5 -6t13 -16t3.5 -19l-347 -859v0z" />
    <glyph glyph-name="quotesinglbase" unicode="&#x201a;" horiz-adv-x="176" 
d="M84 -1q-14 7 -22 27.5t-8.5 44t7.5 44t27 26.5h5q5 -2 11.5 -5t6.5 -4v-107q0 -2 -3 -5.5t-7.5 -8t-9 -8t-7.5 -4.5z" />
    <glyph glyph-name="quotedblbase" unicode="&#x201e;" horiz-adv-x="267" 
d="M46 16q0 18 3.5 42t12 46.5t23 38t35.5 15.5v-43t-4 -56t-14 -48.5t-29 -20.5q-14 0 -20.5 5.5t-6.5 20.5zM151 29q0 18 3.5 42t12 46.5t23 38t35.5 15.5v-43t-4 -56t-14 -48.5t-29 -20.5q-14 0 -20.5 5.5t-6.5 20.5z" />
    <glyph glyph-name="ellipsis" unicode="&#x2026;" horiz-adv-x="687" 
d="M136 8q-13 -4 -23.5 3.5t-15 20t-1 27t18.5 23.5q21 17 34.5 8.5t17.5 -25.5t-3 -35.5t-28 -21.5zM365 8q-13 -4 -23.5 3.5t-15 20t-1 27t18.5 23.5q21 17 34.5 8.5t17.5 -25.5t-3 -35.5t-28 -21.5zM594 8q-13 -4 -23.5 3.5t-15 20t-1 27t18.5 23.5q21 17 34.5 8.5
t17.5 -25.5t-3 -35.5t-28 -21.5z" />
    <glyph glyph-name="questiondown" unicode="&#xbf;" horiz-adv-x="410" 
d="M241.463 742.578q4.90332 -14.584 -4.41211 -28.127q-9.31641 -13.543 -23.0459 -18.751q-13.7285 -5.20898 -27.9482 0.520508t-19.123 28.6484q-1.96094 25.002 8.33594 39.5859q10.2969 14.585 24.5156 17.71q14.2197 3.125 26.9688 -6.25098
q12.748 -9.375 14.709 -33.3359zM254.212 546.73q0 -13.543 1.96094 -36.4619q1.96191 -22.918 3.43262 -46.8779q1.4707 -23.9609 0.490234 -44.7959t-6.86426 -29.1689q-59.8203 -6.25 -93.6523 -26.5645q-33.833 -20.3145 -50.5039 -45.3164t-20.5938 -51.0449
q-3.92285 -26.0439 -3.92285 -43.7539q0 -45.8369 15.6904 -73.4434q15.6904 -27.6055 40.207 -40.6279q24.5166 -13.0215 55.8975 -13.543q31.3809 -0.520508 63.252 7.29297q31.8711 7.8125 62.2715 21.876q30.4004 14.0645 51.9746 29.6904
q9.80664 9.37598 18.1416 7.8125q8.33594 -1.5625 11.7676 -10.417q3.43262 -8.85547 0.981445 -23.4395q-2.45215 -14.584 -14.2197 -30.2109q-32.3613 -34.377 -73.0586 -52.6084q-40.6973 -18.2305 -81.8848 -20.3135q-41.1875 -2.08398 -80.4131 10.417
q-39.2266 12.501 -69.1357 39.5869q-29.9102 27.085 -46.5811 68.2344q-16.6709 41.1484 -14.71 94.2783q0 58.3379 9.80664 94.2783q9.80664 35.9395 30.4004 57.2959q20.5938 21.3555 53.4453 32.2939t77.9619 19.2725l-3.92285 106.259q10.7871 14.584 23.0449 21.3555
q12.2588 6.77148 21.5752 6.77148q9.31543 0 14.709 -7.29297q5.39355 -7.29199 2.45215 -20.834z" />
    <glyph glyph-name="exclamdown" unicode="&#xa1;" horiz-adv-x="364" 
d="M116.016 653.261q-27.9902 -0.739258 -37.3203 -14.0439q-9.33008 -13.3037 -5.70215 -28.8262q3.62891 -15.5215 19.1787 -29.1953q15.5508 -13.6738 39.3945 -15.1523q22.8066 0.739258 33.6914 13.6738q10.8857 12.9346 8.29395 28.457
q-2.5918 15.5215 -17.1055 29.1953t-40.4307 15.8916zM132.603 496.564q0 -15.5225 5.18359 -45.457q5.18359 -29.9355 15.0322 -68.7402t22.2881 -83.1523q12.4404 -44.3477 26.4355 -87.957t29.5459 -83.5225q15.5498 -39.9131 30.582 -69.8486
q15.0312 -29.9346 28.5088 -46.5654q13.4766 -16.6299 24.8799 -14.4131q7.25684 0 6.2207 22.1738q-1.03711 22.1748 -7.77539 58.3926q-6.73828 36.2168 -18.6602 82.0439q-11.9219 45.8262 -25.3984 93.8701q-13.4775 48.0439 -28.5088 93.8701
q-15.0322 45.8262 -28.5088 81.6748q-13.4775 35.8477 -24.3623 57.6523q-10.8857 21.8047 -17.1055 21.8047q-14.5137 0 -26.4355 -0.370117q-11.9219 -0.369141 -11.9219 -11.4561z" />
    <glyph glyph-name="dollar" unicode="$" horiz-adv-x="454" 
d="M143 49q-7 -4 -24.5 -3t-38 10.5t-40 28t-31.5 47.5t-12 70.5t19 96.5q9 16 20.5 21.5t20 2t12.5 -16t-1 -31.5q-20 -33 -18.5 -69.5t17 -63.5t40 -37t49.5 9q17 102 26 162t13.5 90.5t5 39.5t0.5 10q-37 13 -57 40.5t-26 61t2 69t27 64t48.5 46t66.5 15.5q2 18 3 31.5
t1.5 26t2.5 26t5 31.5q11 14 25 11.5t25 -24.5l-7 -112q24 -2 46.5 -22.5t40 -49t28 -58t10.5 -48.5q1 -9 1 -17t-3 -13.5t-9.5 -7.5t-16.5 2q-12 23 -19.5 47t-17 45t-25 37t-45.5 22q-10 -64 -14 -99.5t-5 -52.5t0 -21t2 -5q51 -34 77 -78t31.5 -90.5t-7 -91t-39.5 -80
t-65.5 -57.5t-85.5 -22l-33 -144q-6 -12 -15 -15.5t-17.5 -0.5t-15 11.5t-6.5 21.5zM218 109q30 -4 55 10t42.5 39t25.5 58t4 67.5t-22 66.5t-53 55q-3 0 -5 -2t-4 -11t-4.5 -27t-7 -51t-12 -83t-19.5 -122zM247 643q-26 0 -44 -12t-28 -30.5t-12.5 -40t3 -41t18.5 -33.5
t34 -16z" />
    <glyph glyph-name="dieresis" unicode="&#xa8;" horiz-adv-x="311" 
d="M91 495q-13 -4 -23.5 3.5t-15 20t-1 27t18.5 23.5q21 17 34.5 8.5t17.5 -25.5t-3 -35.5t-28 -21.5zM254 491q-13 -4 -23.5 3.5t-15 20t-1 27t18.5 23.5q21 17 34.5 8.5t17.5 -25.5t-3 -35.5t-28 -21.5z" />
    <glyph glyph-name="cedilla" unicode="&#xb8;" horiz-adv-x="283" 
d="M97 -248q-23 3 -31.5 8t-8.5 11.5t7.5 13t17.5 11.5q47 -5 76.5 1.5t42.5 19t11 28t-16.5 30t-40.5 25t-61 12.5q-3 -3 -3 13t1.5 37.5t4.5 42.5t5 28q24 13 34.5 8.5t13.5 -18.5t0.5 -33.5t-5.5 -37.5q58 -20 87 -53t25 -65t-43 -56.5t-117 -25.5z" />
    <glyph glyph-name="macron" unicode="&#xaf;" horiz-adv-x="352" 
d="M57 492q-16 9 -17.5 24t9.5 29h62.5t54 -1t55 -2.5t66.5 -5.5q17 -8 18.5 -23t-9.5 -30q-34 0 -61 0.5t-53.5 1.5t-56 3t-68.5 4z" />
    <glyph glyph-name="Aacute" unicode="&#xc1;" horiz-adv-x="794" 
d="M489 189q-115 -101 -199.5 -144t-142 -41t-89.5 42.5t-41.5 104.5t1.5 145.5t39 166t71.5 166t99 145t122 103t139.5 41.5q49 0 86 -18.5t62 -50t37.5 -73.5t12.5 -88q-2 -17 -14.5 -55t-29.5 -86.5t-36.5 -101.5t-35.5 -100.5t-26 -83t-9 -48.5q-6 -62 1 -94t22.5 -43
t37 -4.5t45.5 23.5t47 40t42 44.5t31 38t13 19.5q16 19 30 19.5t20.5 -11.5t2 -33t-24.5 -44q-18 -21 -47.5 -52.5t-64 -59.5t-70 -44.5t-64.5 -7.5t-48 51.5t-20 133.5zM618 733q-26 73 -64 102.5t-82.5 25.5t-92.5 -36.5t-93.5 -84t-86.5 -116.5t-71.5 -133.5t-47 -136.5
t-14.5 -125t26 -98.5t76 -56.5q54 -3 120 30.5t130 111.5t117.5 205t82.5 312zM499 1033q-27 -45 -43.5 -64t-26 -26.5t-15.5 -9.5t-12 -11q-16 0 -24.5 9.5t-8.5 21.5q9 31 36.5 58t59.5 54q16 2 25 -10t9 -22z" />
    <glyph glyph-name="Abreve" unicode="&#x102;" horiz-adv-x="794" 
d="M489 189q-115 -101 -199.5 -144t-142 -41t-89.5 42.5t-41.5 104.5t1.5 145.5t39 166t71.5 166t99 145t122 103t139.5 41.5q49 0 86 -18.5t62 -50t37.5 -73.5t12.5 -88q-2 -17 -14.5 -55t-29.5 -86.5t-36.5 -101.5t-35.5 -100.5t-26 -83t-9 -48.5q-6 -62 1 -94t22.5 -43
t37 -4.5t45.5 23.5t47 40t42 44.5t31 38t13 19.5q16 19 30 19.5t20.5 -11.5t2 -33t-24.5 -44q-18 -21 -47.5 -52.5t-64 -59.5t-70 -44.5t-64.5 -7.5t-48 51.5t-20 133.5zM618 733q-26 73 -64 102.5t-82.5 25.5t-92.5 -36.5t-93.5 -84t-86.5 -116.5t-71.5 -133.5t-47 -136.5
t-14.5 -125t26 -98.5t76 -56.5q54 -3 120 30.5t130 111.5t117.5 205t82.5 312zM339 1082q38 -50 71 -69t61 -14.5t50.5 27.5t40.5 56q5 5 14.5 6t19.5 -0.5t17.5 -5.5t8.5 -10v-2q-8 -24 -25 -49.5t-41 -45t-54.5 -29.5t-65.5 -4t-74 32t-80 79q-2 8 3.5 13.5t14.5 9t19.5 5
t19.5 1.5z" />
    <glyph glyph-name="Acircumflex" unicode="&#xc2;" horiz-adv-x="794" 
d="M489 189q-115 -101 -199.5 -144t-142 -41t-89.5 42.5t-41.5 104.5t1.5 145.5t39 166t71.5 166t99 145t122 103t139.5 41.5q49 0 86 -18.5t62 -50t37.5 -73.5t12.5 -88q-2 -17 -14.5 -55t-29.5 -86.5t-36.5 -101.5t-35.5 -100.5t-26 -83t-9 -48.5q-6 -62 1 -94t22.5 -43
t37 -4.5t45.5 23.5t47 40t42 44.5t31 38t13 19.5q16 19 30 19.5t20.5 -11.5t2 -33t-24.5 -44q-18 -21 -47.5 -52.5t-64 -59.5t-70 -44.5t-64.5 -7.5t-48 51.5t-20 133.5zM618 733q-26 73 -64 102.5t-82.5 25.5t-92.5 -36.5t-93.5 -84t-86.5 -116.5t-71.5 -133.5t-47 -136.5
t-14.5 -125t26 -98.5t76 -56.5q54 -3 120 30.5t130 111.5t117.5 205t82.5 312zM345 954q-9 0 -16.5 0.5t-12 4t-7 10.5t-0.5 20l110 131q31 24 61 -18l90 -119v-4q-1 -9 -9 -15t-18.5 -8.5t-20.5 -0.5t-15 10l-72 84z" />
    <glyph glyph-name="Agrave" unicode="&#xc0;" horiz-adv-x="794" 
d="M489 189q-115 -101 -199.5 -144t-142 -41t-89.5 42.5t-41.5 104.5t1.5 145.5t39 166t71.5 166t99 145t122 103t139.5 41.5q49 0 86 -18.5t62 -50t37.5 -73.5t12.5 -88q-2 -17 -14.5 -55t-29.5 -86.5t-36.5 -101.5t-35.5 -100.5t-26 -83t-9 -48.5q-6 -62 1 -94t22.5 -43
t37 -4.5t45.5 23.5t47 40t42 44.5t31 38t13 19.5q16 19 30 19.5t20.5 -11.5t2 -33t-24.5 -44q-18 -21 -47.5 -52.5t-64 -59.5t-70 -44.5t-64.5 -7.5t-48 51.5t-20 133.5zM618 733q-26 73 -64 102.5t-82.5 25.5t-92.5 -36.5t-93.5 -84t-86.5 -116.5t-71.5 -133.5t-47 -136.5
t-14.5 -125t26 -98.5t76 -56.5q54 -3 120 30.5t130 111.5t117.5 205t82.5 312zM416 1057q0 10 7.5 22.5t20.5 10.5q27 -28 50 -55.5t31 -59.5q0 -12 -7 -22t-21 -10q-5 10 -10 11.5t-13 9t-22 27.5t-36 66z" />
    <glyph glyph-name="Adieresis" unicode="&#xc4;" horiz-adv-x="794" 
d="M489 189q-115 -101 -199.5 -144t-142 -41t-89.5 42.5t-41.5 104.5t1.5 145.5t39 166t71.5 166t99 145t122 103t139.5 41.5q49 0 86 -18.5t62 -50t37.5 -73.5t12.5 -88q-2 -17 -14.5 -55t-29.5 -86.5t-36.5 -101.5t-35.5 -100.5t-26 -83t-9 -48.5q-6 -62 1 -94t22.5 -43
t37 -4.5t45.5 23.5t47 40t42 44.5t31 38t13 19.5q16 19 30 19.5t20.5 -11.5t2 -33t-24.5 -44q-18 -21 -47.5 -52.5t-64 -59.5t-70 -44.5t-64.5 -7.5t-48 51.5t-20 133.5zM618 733q-26 73 -64 102.5t-82.5 25.5t-92.5 -36.5t-93.5 -84t-86.5 -116.5t-71.5 -133.5t-47 -136.5
t-14.5 -125t26 -98.5t76 -56.5q54 -3 120 30.5t130 111.5t117.5 205t82.5 312zM404 950q-13 -4 -23.5 3.5t-15 20t-1 27t18.5 23.5q21 17 34.5 8.5t17.5 -25.5t-3 -35.5t-28 -21.5zM567 946q-13 -4 -23.5 3.5t-15 20t-1 27t18.5 23.5q21 17 34.5 8.5t17.5 -25.5t-3 -35.5
t-28 -21.5z" />
    <glyph glyph-name="Amacron" unicode="&#x100;" horiz-adv-x="794" 
d="M489 189q-115 -101 -199.5 -144t-142 -41t-89.5 42.5t-41.5 104.5t1.5 145.5t39 166t71.5 166t99 145t122 103t139.5 41.5q49 0 86 -18.5t62 -50t37.5 -73.5t12.5 -88q-2 -17 -14.5 -55t-29.5 -86.5t-36.5 -101.5t-35.5 -100.5t-26 -83t-9 -48.5q-6 -62 1 -94t22.5 -43
t37 -4.5t45.5 23.5t47 40t42 44.5t31 38t13 19.5q16 19 30 19.5t20.5 -11.5t2 -33t-24.5 -44q-18 -21 -47.5 -52.5t-64 -59.5t-70 -44.5t-64.5 -7.5t-48 51.5t-20 133.5zM618 733q-26 73 -64 102.5t-82.5 25.5t-92.5 -36.5t-93.5 -84t-86.5 -116.5t-71.5 -133.5t-47 -136.5
t-14.5 -125t26 -98.5t76 -56.5q54 -3 120 30.5t130 111.5t117.5 205t82.5 312zM385 960q-16 9 -17.5 24t9.5 29h62.5t54 -1t55 -2.5t66.5 -5.5q17 -8 18.5 -23t-9.5 -30q-34 0 -61 0.5t-53.5 1.5t-56 3t-68.5 4z" />
    <glyph glyph-name="Aogonek" unicode="&#x104;" horiz-adv-x="794" 
d="M489 189q-115 -101 -199.5 -144t-142 -41t-89.5 42.5t-41.5 104.5t1.5 145.5t39 166t71.5 166t99 145t122 103t139.5 41.5q49 0 86 -18.5t62 -50t37.5 -73.5t12.5 -88q-2 -17 -14.5 -55t-29.5 -86.5t-36.5 -101.5t-35.5 -100.5t-26 -83t-9 -48.5q-6 -62 1 -94t22.5 -43
t37 -4.5t45.5 23.5t47 40t42 44.5t31 38t13 19.5q16 19 30 19.5t20.5 -11.5t2 -33t-24.5 -44q-18 -21 -47.5 -52.5t-64 -59.5t-70 -44.5t-64.5 -7.5t-48 51.5t-20 133.5zM618 733q-26 73 -64 102.5t-82.5 25.5t-92.5 -36.5t-93.5 -84t-86.5 -116.5t-71.5 -133.5t-47 -136.5
t-14.5 -125t26 -98.5t76 -56.5q54 -3 120 30.5t130 111.5t117.5 205t82.5 312zM604 -182q-38 -13 -62 -3t-35 33t-10.5 54.5t10.5 62.5t29 56.5t45 36.5l15 -37q-23 -18 -35 -49t-12 -58.5t12 -43.5t35 -4h1z" />
    <glyph glyph-name="Aring" unicode="&#xc5;" horiz-adv-x="794" 
d="M489 189q-115 -101 -199.5 -144t-142 -41t-89.5 42.5t-41.5 104.5t1.5 145.5t39 166t71.5 166t99 145t122 103t139.5 41.5q49 0 86 -18.5t62 -50t37.5 -73.5t12.5 -88q-2 -17 -14.5 -55t-29.5 -86.5t-36.5 -101.5t-35.5 -100.5t-26 -83t-9 -48.5q-6 -62 1 -94t22.5 -43
t37 -4.5t45.5 23.5t47 40t42 44.5t31 38t13 19.5q16 19 30 19.5t20.5 -11.5t2 -33t-24.5 -44q-18 -21 -47.5 -52.5t-64 -59.5t-70 -44.5t-64.5 -7.5t-48 51.5t-20 133.5zM618 733q-26 73 -64 102.5t-82.5 25.5t-92.5 -36.5t-93.5 -84t-86.5 -116.5t-71.5 -133.5t-47 -136.5
t-14.5 -125t26 -98.5t76 -56.5q54 -3 120 30.5t130 111.5t117.5 205t82.5 312zM380 949q-6 38 6.5 64.5t35 42.5t52 21t58 -1.5t52 -24t35.5 -45.5q6 -29 -6 -50t-34 -34.5t-51 -18.5t-57.5 -2t-53 15t-37.5 33zM569 1003q-24 21 -56.5 24t-57 -6t-34.5 -25.5t11 -34.5l3 -6
q12 -7 37.5 -9.5t50 2t40 17.5t6.5 38z" />
    <glyph glyph-name="Atilde" unicode="&#xc3;" horiz-adv-x="794" 
d="M489 189q-115 -101 -199.5 -144t-142 -41t-89.5 42.5t-41.5 104.5t1.5 145.5t39 166t71.5 166t99 145t122 103t139.5 41.5q49 0 86 -18.5t62 -50t37.5 -73.5t12.5 -88q-2 -17 -14.5 -55t-29.5 -86.5t-36.5 -101.5t-35.5 -100.5t-26 -83t-9 -48.5q-6 -62 1 -94t22.5 -43
t37 -4.5t45.5 23.5t47 40t42 44.5t31 38t13 19.5q16 19 30 19.5t20.5 -11.5t2 -33t-24.5 -44q-18 -21 -47.5 -52.5t-64 -59.5t-70 -44.5t-64.5 -7.5t-48 51.5t-20 133.5zM618 733q-26 73 -64 102.5t-82.5 25.5t-92.5 -36.5t-93.5 -84t-86.5 -116.5t-71.5 -133.5t-47 -136.5
t-14.5 -125t26 -98.5t76 -56.5q54 -3 120 30.5t130 111.5t117.5 205t82.5 312zM484 978q-11 31 -25 47t-29 15.5t-29 -19t-23 -55.5q1 -6 -3.5 -12t-12.5 -8.5t-17.5 0t-18.5 14.5q-3 33 7 60.5t28 46t41.5 27.5t47 4t44.5 -25t35 -58q16 -31 35 -32t35 12t26.5 31t10.5 26
q5 10 15.5 14.5t20 2t15.5 -12.5t2 -28q-13 -40 -44 -65t-64 -32.5t-61.5 3.5t-35.5 44z" />
    <glyph glyph-name="AE" unicode="&#xc6;" horiz-adv-x="1237" 
d="M489 189q-115 -101 -199.5 -144t-142 -41t-89.5 42.5t-41.5 104.5t1.5 145.5t39 166t71.5 166t99 145t122 103t139.5 41.5q39 0 70.5 -12t55.5 -33.5t40 -50.5t24 -63q30 42 72 73.5t91.5 47t103 12t105.5 -30.5q4 0 10.5 7.5t13.5 16.5t14 15.5t12 5.5q21 -6 24.5 -19.5
t-1.5 -28.5t-12.5 -29.5t-8.5 -22.5q23 -26 37 -64.5t11 -75t-26 -63t-74 -28.5q-20 5 -39.5 21t-28.5 44t-3 67.5t35 90.5q-32 23 -68 27.5t-72 -5t-68.5 -31.5t-57.5 -51t-40 -64t-15 -71q0 -56 15.5 -86t39 -43.5t51 -15.5t51 -2.5t39 -4t15.5 -20.5q-10 -31 -32.5 -40.5
t-50.5 -8t-56.5 10.5t-49.5 16q-61 -36 -92 -81t-36.5 -90t12.5 -87t54 -72t87.5 -44t114.5 -3q67 12 130 41t115.5 62t91 63t56.5 43q11 3 22.5 2.5t18.5 -5.5t7 -14.5t-12 -22.5q-28 -32 -70 -66t-94 -64.5t-111 -54.5t-119.5 -36t-119.5 -9t-112 26.5t-97 70t-73 121.5z
M618 733q-26 73 -64 102.5t-82.5 25.5t-92.5 -36.5t-93.5 -84t-86.5 -116.5t-71.5 -133.5t-47 -136.5t-14.5 -125t26 -98.5t76 -56.5q54 -3 120 30.5t130 111.5t117.5 205t82.5 312zM1059 745q-8 -9 -17 -26.5t-12 -35.5t3 -32t27 -15q19 1 28 17.5t8.5 36.5t-9 36.5
t-23.5 18.5h-5zM637 529q-10 -28 -20.5 -56t-21.5 -57q30 33 68 55q-9 14 -15 28.5t-11 29.5z" />
    <glyph glyph-name="AEacute" unicode="&#x1fc;" horiz-adv-x="1237" 
d="M489 189q-115 -101 -199.5 -144t-142 -41t-89.5 42.5t-41.5 104.5t1.5 145.5t39 166t71.5 166t99 145t122 103t139.5 41.5q39 0 70.5 -12t55.5 -33.5t40 -50.5t24 -63q30 42 72 73.5t91.5 47t103 12t105.5 -30.5q4 0 10.5 7.5t13.5 16.5t14 15.5t12 5.5q21 -6 24.5 -19.5
t-1.5 -28.5t-12.5 -29.5t-8.5 -22.5q23 -26 37 -64.5t11 -75t-26 -63t-74 -28.5q-20 5 -39.5 21t-28.5 44t-3 67.5t35 90.5q-32 23 -68 27.5t-72 -5t-68.5 -31.5t-57.5 -51t-40 -64t-15 -71q0 -56 15.5 -86t39 -43.5t51 -15.5t51 -2.5t39 -4t15.5 -20.5q-10 -31 -32.5 -40.5
t-50.5 -8t-56.5 10.5t-49.5 16q-61 -36 -92 -81t-36.5 -90t12.5 -87t54 -72t87.5 -44t114.5 -3q67 12 130 41t115.5 62t91 63t56.5 43q11 3 22.5 2.5t18.5 -5.5t7 -14.5t-12 -22.5q-28 -32 -70 -66t-94 -64.5t-111 -54.5t-119.5 -36t-119.5 -9t-112 26.5t-97 70t-73 121.5z
M618 733q-26 73 -64 102.5t-82.5 25.5t-92.5 -36.5t-93.5 -84t-86.5 -116.5t-71.5 -133.5t-47 -136.5t-14.5 -125t26 -98.5t76 -56.5q54 -3 120 30.5t130 111.5t117.5 205t82.5 312zM1059 745q-8 -9 -17 -26.5t-12 -35.5t3 -32t27 -15q19 1 28 17.5t8.5 36.5t-9 36.5
t-23.5 18.5h-5zM637 529q-10 -28 -20.5 -56t-21.5 -57q30 33 68 55q-9 14 -15 28.5t-11 29.5zM822 1053q-27 -45 -43.5 -64t-26 -26.5t-15.5 -9.5t-12 -11q-16 0 -24.5 9.5t-8.5 21.5q9 31 36.5 58t59.5 54q16 2 25 -10t9 -22z" />
    <glyph glyph-name="Cacute" unicode="&#x106;" horiz-adv-x="757" 
d="M331 -1q-101 -1 -168.5 29t-106.5 82t-51 120t-2.5 142.5t38 150.5t72 143.5t99 121.5t118 85t130.5 33.5t136 -33.5q8 0 13 6t10 13.5t10.5 14t13.5 6.5q28 5 35.5 -3.5t4.5 -23t-13 -31.5t-18 -29q11 -19 19.5 -48t7 -56.5t-16 -48.5t-48.5 -24q-33 1 -50.5 17.5
t-23.5 41.5t-3.5 55t9.5 57q-65 25 -137.5 9.5t-139 -71t-120 -149t-80.5 -223.5q-11 -89 2 -151.5t45 -102t78.5 -58t101 -20t114.5 11.5t118 36t111 55t94 68q26 26 47 30.5t30 -4.5t3.5 -27t-31.5 -36q-15 -19 -46 -41.5t-72 -44.5t-87.5 -42t-91.5 -35t-85.5 -22.5
t-68.5 -3.5zM594 803q-8 -2 -11.5 -17.5t-1.5 -32.5t9.5 -31t19.5 -14q13 -3 18 8t2.5 27t-12 33.5t-24.5 26.5zM443 1066q-27 -45 -43.5 -64t-26 -26.5t-15.5 -9.5t-12 -11q-16 0 -24.5 9.5t-8.5 21.5q9 31 36.5 58t59.5 54q16 2 25 -10t9 -22z" />
    <glyph glyph-name="Ccaron" unicode="&#x10c;" horiz-adv-x="757" 
d="M331 -1q-101 -1 -168.5 29t-106.5 82t-51 120t-2.5 142.5t38 150.5t72 143.5t99 121.5t118 85t130.5 33.5t136 -33.5q8 0 13 6t10 13.5t10.5 14t13.5 6.5q28 5 35.5 -3.5t4.5 -23t-13 -31.5t-18 -29q11 -19 19.5 -48t7 -56.5t-16 -48.5t-48.5 -24q-33 1 -50.5 17.5
t-23.5 41.5t-3.5 55t9.5 57q-65 25 -137.5 9.5t-139 -71t-120 -149t-80.5 -223.5q-11 -89 2 -151.5t45 -102t78.5 -58t101 -20t114.5 11.5t118 36t111 55t94 68q26 26 47 30.5t30 -4.5t3.5 -27t-31.5 -36q-15 -19 -46 -41.5t-72 -44.5t-87.5 -42t-91.5 -35t-85.5 -22.5
t-68.5 -3.5zM594 803q-8 -2 -11.5 -17.5t-1.5 -32.5t9.5 -31t19.5 -14q13 -3 18 8t2.5 27t-12 33.5t-24.5 26.5zM505 994q1 0 2 -2.5t7 2.5t20 22t41 57q4 5 13 6.5t18 0t16 -5.5t8 -10v-3q-6 -18 -17.5 -32.5t-24 -28l-25 -27t-20.5 -28.5q-14 -14 -26.5 -10.5t-25.5 11.5
l-105 115q-2 17 7 20.5t24 3.5z" />
    <glyph glyph-name="Ccedilla" unicode="&#xc7;" horiz-adv-x="757" 
d="M331 -1q-101 -1 -168.5 29t-106.5 82t-51 120t-2.5 142.5t38 150.5t72 143.5t99 121.5t118 85t130.5 33.5t136 -33.5q8 0 13 6t10 13.5t10.5 14t13.5 6.5q28 5 35.5 -3.5t4.5 -23t-13 -31.5t-18 -29q11 -19 19.5 -48t7 -56.5t-16 -48.5t-48.5 -24q-33 1 -50.5 17.5
t-23.5 41.5t-3.5 55t9.5 57q-65 25 -137.5 9.5t-139 -71t-120 -149t-80.5 -223.5q-11 -89 2 -151.5t45 -102t78.5 -58t101 -20t114.5 11.5t118 36t111 55t94 68q26 26 47 30.5t30 -4.5t3.5 -27t-31.5 -36q-15 -19 -46 -41.5t-72 -44.5t-87.5 -42t-91.5 -35t-85.5 -22.5
t-68.5 -3.5zM594 803q-8 -2 -11.5 -17.5t-1.5 -32.5t9.5 -31t19.5 -14q13 -3 18 8t2.5 27t-12 33.5t-24.5 26.5zM305 -248q-23 3 -31.5 8t-8.5 11.5t7.5 13t17.5 11.5q47 -5 76.5 1.5t42.5 19t11 28t-16.5 30t-40.5 25t-61 12.5q-3 -3 -3 13t1.5 37.5t4.5 42.5t5 28
q24 13 34.5 8.5t13.5 -18.5t0.5 -33.5t-5.5 -37.5q58 -20 87 -53t25 -65t-43 -56.5t-117 -25.5z" />
    <glyph glyph-name="Ccircumflex" unicode="&#x108;" horiz-adv-x="757" 
d="M331 -1q-101 -1 -168.5 29t-106.5 82t-51 120t-2.5 142.5t38 150.5t72 143.5t99 121.5t118 85t130.5 33.5t136 -33.5q8 0 13 6t10 13.5t10.5 14t13.5 6.5q28 5 35.5 -3.5t4.5 -23t-13 -31.5t-18 -29q11 -19 19.5 -48t7 -56.5t-16 -48.5t-48.5 -24q-33 1 -50.5 17.5
t-23.5 41.5t-3.5 55t9.5 57q-65 25 -137.5 9.5t-139 -71t-120 -149t-80.5 -223.5q-11 -89 2 -151.5t45 -102t78.5 -58t101 -20t114.5 11.5t118 36t111 55t94 68q26 26 47 30.5t30 -4.5t3.5 -27t-31.5 -36q-15 -19 -46 -41.5t-72 -44.5t-87.5 -42t-91.5 -35t-85.5 -22.5
t-68.5 -3.5zM594 803q-8 -2 -11.5 -17.5t-1.5 -32.5t9.5 -31t19.5 -14q13 -3 18 8t2.5 27t-12 33.5t-24.5 26.5zM354 921q-9 0 -16.5 0.5t-12 4t-7 10.5t-0.5 20l110 131q31 24 61 -18l90 -119v-4q-1 -9 -9 -15t-18.5 -8.5t-20.5 -0.5t-15 10l-72 84z" />
    <glyph glyph-name="Cdotaccent" unicode="&#x10a;" horiz-adv-x="757" 
d="M331 -1q-101 -1 -168.5 29t-106.5 82t-51 120t-2.5 142.5t38 150.5t72 143.5t99 121.5t118 85t130.5 33.5t136 -33.5q8 0 13 6t10 13.5t10.5 14t13.5 6.5q28 5 35.5 -3.5t4.5 -23t-13 -31.5t-18 -29q11 -19 19.5 -48t7 -56.5t-16 -48.5t-48.5 -24q-33 1 -50.5 17.5
t-23.5 41.5t-3.5 55t9.5 57q-65 25 -137.5 9.5t-139 -71t-120 -149t-80.5 -223.5q-11 -89 2 -151.5t45 -102t78.5 -58t101 -20t114.5 11.5t118 36t111 55t94 68q26 26 47 30.5t30 -4.5t3.5 -27t-31.5 -36q-15 -19 -46 -41.5t-72 -44.5t-87.5 -42t-91.5 -35t-85.5 -22.5
t-68.5 -3.5zM594 803q-8 -2 -11.5 -17.5t-1.5 -32.5t9.5 -31t19.5 -14q13 -3 18 8t2.5 27t-12 33.5t-24.5 26.5zM376 951q-27 1 -36 19t-5.5 39t18.5 39.5t38 20.5q22 -1 32.5 -18.5t8 -38.5t-16.5 -39.5t-39 -21.5z" />
    <glyph glyph-name="Dcaron" unicode="&#x10e;" horiz-adv-x="823" 
d="M176 164q-32 -69 -61 -104.5t-52 -46t-39 -0.5t-22.5 33.5t-1.5 56t23.5 66.5t52 65t84.5 51l135 530q66 57 136.5 77.5t135.5 11.5t119 -45t88.5 -93t44 -132.5t-15.5 -162.5q-19 -49 -47.5 -103.5t-64.5 -107.5t-78 -100.5t-88 -83t-93.5 -55.5t-94.5 -18
q-26 0 -48.5 6.5t-42.5 24t-37.5 49t-32.5 81.5zM213 241q13 -98 49.5 -138.5t86.5 -37.5t107 41t110.5 96.5t98 129.5t68.5 139q27 65 22 127t-32.5 112.5t-71.5 85.5t-96.5 48t-107.5 -0.5t-103 -61.5zM128 204q-39 -30 -57.5 -54.5t-23 -39.5t3 -19.5t20.5 5.5t28.5 36
t28.5 72zM439 991q1 0 2 -2.5t7 2.5t20 22t41 57q4 5 13 6.5t18 0t16 -5.5t8 -10v-3q-6 -18 -17.5 -32.5t-24 -28l-25 -27t-20.5 -28.5q-14 -14 -26.5 -10.5t-25.5 11.5l-105 115q-2 17 7 20.5t24 3.5z" />
    <glyph glyph-name="Dcroat" unicode="&#x110;" horiz-adv-x="823" 
d="M176 164q-32 -69 -61 -104.5t-52 -46t-39 -0.5t-22.5 33.5t-1.5 56t23.5 66.5t52 65t84.5 51l135 530q66 57 136.5 77.5t135.5 11.5t119 -45t88.5 -93t44 -132.5t-15.5 -162.5q-19 -49 -47.5 -103.5t-64.5 -107.5t-78 -100.5t-88 -83t-93.5 -55.5t-94.5 -18
q-26 0 -48.5 6.5t-42.5 24t-37.5 49t-32.5 81.5zM213 241q13 -98 49.5 -138.5t86.5 -37.5t107 41t110.5 96.5t98 129.5t68.5 139q27 65 22 127t-32.5 112.5t-71.5 85.5t-96.5 48t-107.5 -0.5t-103 -61.5zM128 204q-39 -30 -57.5 -54.5t-23 -39.5t3 -19.5t20.5 5.5t28.5 36
t28.5 72zM157 508q-16 9 -17.5 24t9.5 29h62.5t54 -1t55 -2.5t66.5 -5.5q17 -8 18.5 -23t-9.5 -30q-34 0 -61 0.5t-53.5 1.5t-56 3t-68.5 4z" />
    <glyph glyph-name="Eacute" unicode="&#xc9;" horiz-adv-x="708" 
d="M328 -1q-84 -20 -146.5 0t-101.5 64t-54.5 105t-6.5 123t43 118t94 91q-35 58 -37 118t21 114t66.5 97.5t98 67.5t116.5 24.5t123 -31.5q4 0 10.5 7.5t13.5 16.5t14 15.5t12 5.5q21 -6 24.5 -19.5t-1.5 -28.5t-12.5 -29.5t-8.5 -22.5q23 -26 37 -64.5t11 -75t-26 -63
t-74 -28.5q-20 5 -39.5 21t-28.5 44t-3 67.5t35 90.5q-32 23 -68 27.5t-72 -5t-68.5 -31.5t-57.5 -51t-40 -64t-15 -71q0 -56 15.5 -86t39 -43.5t51 -15.5t51 -2.5t39 -4t15.5 -20.5q-10 -31 -32.5 -40.5t-50.5 -8t-56.5 10.5t-49.5 16q-59 -29 -90.5 -72t-38.5 -90t9 -91.5
t51 -77t88 -46.5t121 0q67 12 130 41t115.5 62t91 63t56.5 43q11 3 20.5 3.5t15 -3.5t6 -13.5t-5.5 -26.5q-9 -25 -40.5 -52t-75.5 -53.5t-94 -50t-97 -41t-85.5 -27t-57.5 -7.5zM552 774q-8 -9 -17 -26.5t-12 -35.5t3 -32t27 -15q19 1 28 17.5t8.5 36.5t-9 36.5t-23.5 18.5
h-5zM419 1066q-27 -45 -43.5 -64t-26 -26.5t-15.5 -9.5t-12 -11q-16 0 -24.5 9.5t-8.5 21.5q9 31 36.5 58t59.5 54q16 2 25 -10t9 -22z" />
    <glyph glyph-name="Ebreve" unicode="&#x114;" horiz-adv-x="708" 
d="M328 -1q-84 -20 -146.5 0t-101.5 64t-54.5 105t-6.5 123t43 118t94 91q-35 58 -37 118t21 114t66.5 97.5t98 67.5t116.5 24.5t123 -31.5q4 0 10.5 7.5t13.5 16.5t14 15.5t12 5.5q21 -6 24.5 -19.5t-1.5 -28.5t-12.5 -29.5t-8.5 -22.5q23 -26 37 -64.5t11 -75t-26 -63
t-74 -28.5q-20 5 -39.5 21t-28.5 44t-3 67.5t35 90.5q-32 23 -68 27.5t-72 -5t-68.5 -31.5t-57.5 -51t-40 -64t-15 -71q0 -56 15.5 -86t39 -43.5t51 -15.5t51 -2.5t39 -4t15.5 -20.5q-10 -31 -32.5 -40.5t-50.5 -8t-56.5 10.5t-49.5 16q-59 -29 -90.5 -72t-38.5 -90t9 -91.5
t51 -77t88 -46.5t121 0q67 12 130 41t115.5 62t91 63t56.5 43q11 3 20.5 3.5t15 -3.5t6 -13.5t-5.5 -26.5q-9 -25 -40.5 -52t-75.5 -53.5t-94 -50t-97 -41t-85.5 -27t-57.5 -7.5zM552 774q-8 -9 -17 -26.5t-12 -35.5t3 -32t27 -15q19 1 28 17.5t8.5 36.5t-9 36.5t-23.5 18.5
h-5zM243 1098q38 -50 71 -69t61 -14.5t50.5 27.5t40.5 56q5 5 14.5 6t19.5 -0.5t17.5 -5.5t8.5 -10v-2q-8 -24 -25 -49.5t-41 -45t-54.5 -29.5t-65.5 -4t-74 32t-80 79q-2 8 3.5 13.5t14.5 9t19.5 5t19.5 1.5z" />
    <glyph glyph-name="Ecaron" unicode="&#x11a;" horiz-adv-x="708" 
d="M328 -1q-84 -20 -146.5 0t-101.5 64t-54.5 105t-6.5 123t43 118t94 91q-35 58 -37 118t21 114t66.5 97.5t98 67.5t116.5 24.5t123 -31.5q4 0 10.5 7.5t13.5 16.5t14 15.5t12 5.5q21 -6 24.5 -19.5t-1.5 -28.5t-12.5 -29.5t-8.5 -22.5q23 -26 37 -64.5t11 -75t-26 -63
t-74 -28.5q-20 5 -39.5 21t-28.5 44t-3 67.5t35 90.5q-32 23 -68 27.5t-72 -5t-68.5 -31.5t-57.5 -51t-40 -64t-15 -71q0 -56 15.5 -86t39 -43.5t51 -15.5t51 -2.5t39 -4t15.5 -20.5q-10 -31 -32.5 -40.5t-50.5 -8t-56.5 10.5t-49.5 16q-59 -29 -90.5 -72t-38.5 -90t9 -91.5
t51 -77t88 -46.5t121 0q67 12 130 41t115.5 62t91 63t56.5 43q11 3 20.5 3.5t15 -3.5t6 -13.5t-5.5 -26.5q-9 -25 -40.5 -52t-75.5 -53.5t-94 -50t-97 -41t-85.5 -27t-57.5 -7.5zM552 774q-8 -9 -17 -26.5t-12 -35.5t3 -32t27 -15q19 1 28 17.5t8.5 36.5t-9 36.5t-23.5 18.5
h-5zM352 1031q1 0 2 -2.5t7 2.5t20 22t41 57q4 5 13 6.5t18 0t16 -5.5t8 -10v-3q-6 -18 -17.5 -32.5t-24 -28l-25 -27t-20.5 -28.5q-14 -14 -26.5 -10.5t-25.5 11.5l-105 115q-2 17 7 20.5t24 3.5z" />
    <glyph glyph-name="Ecircumflex" unicode="&#xca;" horiz-adv-x="708" 
d="M328 -1q-84 -20 -146.5 0t-101.5 64t-54.5 105t-6.5 123t43 118t94 91q-35 58 -37 118t21 114t66.5 97.5t98 67.5t116.5 24.5t123 -31.5q4 0 10.5 7.5t13.5 16.5t14 15.5t12 5.5q21 -6 24.5 -19.5t-1.5 -28.5t-12.5 -29.5t-8.5 -22.5q23 -26 37 -64.5t11 -75t-26 -63
t-74 -28.5q-20 5 -39.5 21t-28.5 44t-3 67.5t35 90.5q-32 23 -68 27.5t-72 -5t-68.5 -31.5t-57.5 -51t-40 -64t-15 -71q0 -56 15.5 -86t39 -43.5t51 -15.5t51 -2.5t39 -4t15.5 -20.5q-10 -31 -32.5 -40.5t-50.5 -8t-56.5 10.5t-49.5 16q-59 -29 -90.5 -72t-38.5 -90t9 -91.5
t51 -77t88 -46.5t121 0q67 12 130 41t115.5 62t91 63t56.5 43q11 3 20.5 3.5t15 -3.5t6 -13.5t-5.5 -26.5q-9 -25 -40.5 -52t-75.5 -53.5t-94 -50t-97 -41t-85.5 -27t-57.5 -7.5zM552 774q-8 -9 -17 -26.5t-12 -35.5t3 -32t27 -15q19 1 28 17.5t8.5 36.5t-9 36.5t-23.5 18.5
h-5zM261 986q-9 0 -16.5 0.5t-12 4t-7 10.5t-0.5 20l110 131q31 24 61 -18l90 -119v-4q-1 -9 -9 -15t-18.5 -8.5t-20.5 -0.5t-15 10l-72 84z" />
    <glyph glyph-name="Edieresis" unicode="&#xcb;" horiz-adv-x="708" 
d="M328 -1q-84 -20 -146.5 0t-101.5 64t-54.5 105t-6.5 123t43 118t94 91q-35 58 -37 118t21 114t66.5 97.5t98 67.5t116.5 24.5t123 -31.5q4 0 10.5 7.5t13.5 16.5t14 15.5t12 5.5q21 -6 24.5 -19.5t-1.5 -28.5t-12.5 -29.5t-8.5 -22.5q23 -26 37 -64.5t11 -75t-26 -63
t-74 -28.5q-20 5 -39.5 21t-28.5 44t-3 67.5t35 90.5q-32 23 -68 27.5t-72 -5t-68.5 -31.5t-57.5 -51t-40 -64t-15 -71q0 -56 15.5 -86t39 -43.5t51 -15.5t51 -2.5t39 -4t15.5 -20.5q-10 -31 -32.5 -40.5t-50.5 -8t-56.5 10.5t-49.5 16q-59 -29 -90.5 -72t-38.5 -90t9 -91.5
t51 -77t88 -46.5t121 0q67 12 130 41t115.5 62t91 63t56.5 43q11 3 20.5 3.5t15 -3.5t6 -13.5t-5.5 -26.5q-9 -25 -40.5 -52t-75.5 -53.5t-94 -50t-97 -41t-85.5 -27t-57.5 -7.5zM552 774q-8 -9 -17 -26.5t-12 -35.5t3 -32t27 -15q19 1 28 17.5t8.5 36.5t-9 36.5t-23.5 18.5
h-5zM275 995q-13 -4 -23.5 3.5t-15 20t-1 27t18.5 23.5q21 17 34.5 8.5t17.5 -25.5t-3 -35.5t-28 -21.5zM438 991q-13 -4 -23.5 3.5t-15 20t-1 27t18.5 23.5q21 17 34.5 8.5t17.5 -25.5t-3 -35.5t-28 -21.5z" />
    <glyph glyph-name="Edotaccent" unicode="&#x116;" horiz-adv-x="708" 
d="M328 -1q-84 -20 -146.5 0t-101.5 64t-54.5 105t-6.5 123t43 118t94 91q-35 58 -37 118t21 114t66.5 97.5t98 67.5t116.5 24.5t123 -31.5q4 0 10.5 7.5t13.5 16.5t14 15.5t12 5.5q21 -6 24.5 -19.5t-1.5 -28.5t-12.5 -29.5t-8.5 -22.5q23 -26 37 -64.5t11 -75t-26 -63
t-74 -28.5q-20 5 -39.5 21t-28.5 44t-3 67.5t35 90.5q-32 23 -68 27.5t-72 -5t-68.5 -31.5t-57.5 -51t-40 -64t-15 -71q0 -56 15.5 -86t39 -43.5t51 -15.5t51 -2.5t39 -4t15.5 -20.5q-10 -31 -32.5 -40.5t-50.5 -8t-56.5 10.5t-49.5 16q-59 -29 -90.5 -72t-38.5 -90t9 -91.5
t51 -77t88 -46.5t121 0q67 12 130 41t115.5 62t91 63t56.5 43q11 3 20.5 3.5t15 -3.5t6 -13.5t-5.5 -26.5q-9 -25 -40.5 -52t-75.5 -53.5t-94 -50t-97 -41t-85.5 -27t-57.5 -7.5zM552 774q-8 -9 -17 -26.5t-12 -35.5t3 -32t27 -15q19 1 28 17.5t8.5 36.5t-9 36.5t-23.5 18.5
h-5zM352 951q-27 1 -36 19t-5.5 39t18.5 39.5t38 20.5q22 -1 32.5 -18.5t8 -38.5t-16.5 -39.5t-39 -21.5z" />
    <glyph glyph-name="Egrave" unicode="&#xc8;" horiz-adv-x="708" 
d="M328 -1q-84 -20 -146.5 0t-101.5 64t-54.5 105t-6.5 123t43 118t94 91q-35 58 -37 118t21 114t66.5 97.5t98 67.5t116.5 24.5t123 -31.5q4 0 10.5 7.5t13.5 16.5t14 15.5t12 5.5q21 -6 24.5 -19.5t-1.5 -28.5t-12.5 -29.5t-8.5 -22.5q23 -26 37 -64.5t11 -75t-26 -63
t-74 -28.5q-20 5 -39.5 21t-28.5 44t-3 67.5t35 90.5q-32 23 -68 27.5t-72 -5t-68.5 -31.5t-57.5 -51t-40 -64t-15 -71q0 -56 15.5 -86t39 -43.5t51 -15.5t51 -2.5t39 -4t15.5 -20.5q-10 -31 -32.5 -40.5t-50.5 -8t-56.5 10.5t-49.5 16q-59 -29 -90.5 -72t-38.5 -90t9 -91.5
t51 -77t88 -46.5t121 0q67 12 130 41t115.5 62t91 63t56.5 43q11 3 20.5 3.5t15 -3.5t6 -13.5t-5.5 -26.5q-9 -25 -40.5 -52t-75.5 -53.5t-94 -50t-97 -41t-85.5 -27t-57.5 -7.5zM552 774q-8 -9 -17 -26.5t-12 -35.5t3 -32t27 -15q19 1 28 17.5t8.5 36.5t-9 36.5t-23.5 18.5
h-5zM299 1073q0 10 7.5 22.5t20.5 10.5q27 -28 50 -55.5t31 -59.5q0 -12 -7 -22t-21 -10q-5 10 -10 11.5t-13 9t-22 27.5t-36 66z" />
    <glyph glyph-name="Eogonek" unicode="&#x118;" horiz-adv-x="708" 
d="M328 -1q-84 -20 -146.5 0t-101.5 64t-54.5 105t-6.5 123t43 118t94 91q-35 58 -37 118t21 114t66.5 97.5t98 67.5t116.5 24.5t123 -31.5q4 0 10.5 7.5t13.5 16.5t14 15.5t12 5.5q21 -6 24.5 -19.5t-1.5 -28.5t-12.5 -29.5t-8.5 -22.5q23 -26 37 -64.5t11 -75t-26 -63
t-74 -28.5q-20 5 -39.5 21t-28.5 44t-3 67.5t35 90.5q-32 23 -68 27.5t-72 -5t-68.5 -31.5t-57.5 -51t-40 -64t-15 -71q0 -56 15.5 -86t39 -43.5t51 -15.5t51 -2.5t39 -4t15.5 -20.5q-10 -31 -32.5 -40.5t-50.5 -8t-56.5 10.5t-49.5 16q-59 -29 -90.5 -72t-38.5 -90t9 -91.5
t51 -77t88 -46.5t121 0q67 12 130 41t115.5 62t91 63t56.5 43q11 3 20.5 3.5t15 -3.5t6 -13.5t-5.5 -26.5q-9 -25 -40.5 -52t-75.5 -53.5t-94 -50t-97 -41t-85.5 -27t-57.5 -7.5zM552 774q-8 -9 -17 -26.5t-12 -35.5t3 -32t27 -15q19 1 28 17.5t8.5 36.5t-9 36.5t-23.5 18.5
h-5zM562 -126q-38 -13 -62 -3t-35 33t-10.5 54.5t10.5 62.5t29 56.5t45 36.5l15 -37q-23 -18 -35 -49t-12 -58.5t12 -43.5t35 -4h1z" />
    <glyph glyph-name="Emacron" unicode="&#x112;" horiz-adv-x="708" 
d="M328 -1q-84 -20 -146.5 0t-101.5 64t-54.5 105t-6.5 123t43 118t94 91q-35 58 -37 118t21 114t66.5 97.5t98 67.5t116.5 24.5t123 -31.5q4 0 10.5 7.5t13.5 16.5t14 15.5t12 5.5q21 -6 24.5 -19.5t-1.5 -28.5t-12.5 -29.5t-8.5 -22.5q23 -26 37 -64.5t11 -75t-26 -63
t-74 -28.5q-20 5 -39.5 21t-28.5 44t-3 67.5t35 90.5q-32 23 -68 27.5t-72 -5t-68.5 -31.5t-57.5 -51t-40 -64t-15 -71q0 -56 15.5 -86t39 -43.5t51 -15.5t51 -2.5t39 -4t15.5 -20.5q-10 -31 -32.5 -40.5t-50.5 -8t-56.5 10.5t-49.5 16q-59 -29 -90.5 -72t-38.5 -90t9 -91.5
t51 -77t88 -46.5t121 0q67 12 130 41t115.5 62t91 63t56.5 43q11 3 20.5 3.5t15 -3.5t6 -13.5t-5.5 -26.5q-9 -25 -40.5 -52t-75.5 -53.5t-94 -50t-97 -41t-85.5 -27t-57.5 -7.5zM552 774q-8 -9 -17 -26.5t-12 -35.5t3 -32t27 -15q19 1 28 17.5t8.5 36.5t-9 36.5t-23.5 18.5
h-5zM239 992q-16 9 -17.5 24t9.5 29h62.5t54 -1t55 -2.5t66.5 -5.5q17 -8 18.5 -23t-9.5 -30q-34 0 -61 0.5t-53.5 1.5t-56 3t-68.5 4z" />
    <glyph glyph-name="Gbreve" unicode="&#x11e;" horiz-adv-x="1036" 
d="M810 83q-40 -54 -82 -80t-83 -32t-80.5 4.5t-73.5 29.5t-62.5 43t-47 45t-27 35.5t-3.5 14.5q-8 0 -34 -21t-63.5 -46.5t-83.5 -46.5t-94 -21q-16 0 -28 -0.5t-19.5 2.5t-10.5 12.5t-1 30.5q17 0 52.5 4.5t77.5 19t83.5 43t71.5 76.5q-18 7 -30.5 34.5t-19 64.5t-6.5 78
t6.5 75.5t21 57t37.5 22.5q19 0 33 -21t26.5 -48.5t25.5 -54.5t31 -38q25 20 54 57.5t53 81t40 87.5t16 76q0 16 -11.5 39t-25 49t-24 52.5t-9 49.5t19.5 41t62 26q22 4 34.5 -5.5t18 -28t6 -42t-1 -46.5t-2.5 -43t1 -30q35 -12 75 -5.5t78.5 24.5t73 44t58.5 53
q19 15 25.5 -1.5t5 -55.5t-10 -94.5t-21 -119t-27 -130t-28 -126t-25 -107t-17.5 -74.5q35 1 66.5 8.5t56.5 21t42.5 33.5t25.5 48q6 14 14 18.5t14.5 0.5t11.5 -16t5 -31q-15 -40 -42.5 -67t-63.5 -43.5t-78 -23t-87 -4.5zM463 311q13 -35 45 -64t76.5 -51.5t96 -37
t103.5 -18.5q25 66 43 139t31.5 148t25 150t25.5 144q-39 -26 -74 -40t-67.5 -20t-64 -7.5t-62.5 -3.5q-5 -58 -24 -107.5t-45.5 -91.5t-55.5 -75.5t-54 -59.5q-1 -1 0 -2.5t1 -2.5zM385 184q13 -41 42 -72t65.5 -51.5t76.5 -29.5t75.5 -6t62 19t36.5 46q-48 8 -95 23
t-87.5 36t-73 46.5t-51.5 53.5h-6q-9 0 -18 -7.5t-15.5 -18t-10 -21.5t-1.5 -18zM321 436q-9 -13 -15.5 -43.5t-5 -62.5t12.5 -56.5t35 -24.5q14 0 20.5 13t7 32.5t-4 43t-12.5 44.5t-18 36t-20 18zM586 880q0 3 -5.5 -2t-7.5 -19t3.5 -37t28.5 -56q15 13 13.5 36t-8.5 43.5
t-15.5 32.5t-8.5 2zM722 1024q38 -50 71 -69t61 -14.5t50.5 27.5t40.5 56q5 5 14.5 6t19.5 -0.5t17.5 -5.5t8.5 -10v-2q-8 -24 -25 -49.5t-41 -45t-54.5 -29.5t-65.5 -4t-74 32t-80 79q-2 8 3.5 13.5t14.5 9t19.5 5t19.5 1.5z" />
    <glyph glyph-name="Gcircumflex" unicode="&#x11c;" horiz-adv-x="1036" 
d="M810 83q-40 -54 -82 -80t-83 -32t-80.5 4.5t-73.5 29.5t-62.5 43t-47 45t-27 35.5t-3.5 14.5q-8 0 -34 -21t-63.5 -46.5t-83.5 -46.5t-94 -21q-16 0 -28 -0.5t-19.5 2.5t-10.5 12.5t-1 30.5q17 0 52.5 4.5t77.5 19t83.5 43t71.5 76.5q-18 7 -30.5 34.5t-19 64.5t-6.5 78
t6.5 75.5t21 57t37.5 22.5q19 0 33 -21t26.5 -48.5t25.5 -54.5t31 -38q25 20 54 57.5t53 81t40 87.5t16 76q0 16 -11.5 39t-25 49t-24 52.5t-9 49.5t19.5 41t62 26q22 4 34.5 -5.5t18 -28t6 -42t-1 -46.5t-2.5 -43t1 -30q35 -12 75 -5.5t78.5 24.5t73 44t58.5 53
q19 15 25.5 -1.5t5 -55.5t-10 -94.5t-21 -119t-27 -130t-28 -126t-25 -107t-17.5 -74.5q35 1 66.5 8.5t56.5 21t42.5 33.5t25.5 48q6 14 14 18.5t14.5 0.5t11.5 -16t5 -31q-15 -40 -42.5 -67t-63.5 -43.5t-78 -23t-87 -4.5zM463 311q13 -35 45 -64t76.5 -51.5t96 -37
t103.5 -18.5q25 66 43 139t31.5 148t25 150t25.5 144q-39 -26 -74 -40t-67.5 -20t-64 -7.5t-62.5 -3.5q-5 -58 -24 -107.5t-45.5 -91.5t-55.5 -75.5t-54 -59.5q-1 -1 0 -2.5t1 -2.5zM385 184q13 -41 42 -72t65.5 -51.5t76.5 -29.5t75.5 -6t62 19t36.5 46q-48 8 -95 23
t-87.5 36t-73 46.5t-51.5 53.5h-6q-9 0 -18 -7.5t-15.5 -18t-10 -21.5t-1.5 -18zM321 436q-9 -13 -15.5 -43.5t-5 -62.5t12.5 -56.5t35 -24.5q14 0 20.5 13t7 32.5t-4 43t-12.5 44.5t-18 36t-20 18zM586 880q0 3 -5.5 -2t-7.5 -19t3.5 -37t28.5 -56q15 13 13.5 36t-8.5 43.5
t-15.5 32.5t-8.5 2zM757 908q-9 0 -16.5 0.5t-12 4t-7 10.5t-0.5 20l110 131q31 24 61 -18l90 -119v-4q-1 -9 -9 -15t-18.5 -8.5t-20.5 -0.5t-15 10l-72 84z" />
    <glyph glyph-name="commaaccent" horiz-adv-x="258" 
d="M79 -263q6 23 14 46.5t13.5 47.5t5.5 49t-10 50q0 16 14.5 18.5t26.5 2.5q12 -16 17.5 -41t4.5 -52.5t-8 -53.5t-18 -44.5t-26.5 -25.5t-33.5 3z" />
    <glyph glyph-name="Gcommaaccent" unicode="&#x122;" horiz-adv-x="1036" 
d="M810 83q-40 -54 -82 -80t-83 -32t-80.5 4.5t-73.5 29.5t-62.5 43t-47 45t-27 35.5t-3.5 14.5q-8 0 -34 -21t-63.5 -46.5t-83.5 -46.5t-94 -21q-16 0 -28 -0.5t-19.5 2.5t-10.5 12.5t-1 30.5q17 0 52.5 4.5t77.5 19t83.5 43t71.5 76.5q-18 7 -30.5 34.5t-19 64.5t-6.5 78
t6.5 75.5t21 57t37.5 22.5q19 0 33 -21t26.5 -48.5t25.5 -54.5t31 -38q25 20 54 57.5t53 81t40 87.5t16 76q0 16 -11.5 39t-25 49t-24 52.5t-9 49.5t19.5 41t62 26q22 4 34.5 -5.5t18 -28t6 -42t-1 -46.5t-2.5 -43t1 -30q35 -12 75 -5.5t78.5 24.5t73 44t58.5 53
q19 15 25.5 -1.5t5 -55.5t-10 -94.5t-21 -119t-27 -130t-28 -126t-25 -107t-17.5 -74.5q35 1 66.5 8.5t56.5 21t42.5 33.5t25.5 48q6 14 14 18.5t14.5 0.5t11.5 -16t5 -31q-15 -40 -42.5 -67t-63.5 -43.5t-78 -23t-87 -4.5zM463 311q13 -35 45 -64t76.5 -51.5t96 -37
t103.5 -18.5q25 66 43 139t31.5 148t25 150t25.5 144q-39 -26 -74 -40t-67.5 -20t-64 -7.5t-62.5 -3.5q-5 -58 -24 -107.5t-45.5 -91.5t-55.5 -75.5t-54 -59.5q-1 -1 0 -2.5t1 -2.5zM385 184q13 -41 42 -72t65.5 -51.5t76.5 -29.5t75.5 -6t62 19t36.5 46q-48 8 -95 23
t-87.5 36t-73 46.5t-51.5 53.5h-6q-9 0 -18 -7.5t-15.5 -18t-10 -21.5t-1.5 -18zM321 436q-9 -13 -15.5 -43.5t-5 -62.5t12.5 -56.5t35 -24.5q14 0 20.5 13t7 32.5t-4 43t-12.5 44.5t-18 36t-20 18zM586 880q0 3 -5.5 -2t-7.5 -19t3.5 -37t28.5 -56q15 13 13.5 36t-8.5 43.5
t-15.5 32.5t-8.5 2zM461 -263q6 23 14 46.5t13.5 47.5t5.5 49t-10 50q0 16 14.5 18.5t26.5 2.5q12 -16 17.5 -41t4.5 -52.5t-8 -53.5t-18 -44.5t-26.5 -25.5t-33.5 3z" />
    <glyph glyph-name="Gdotaccent" unicode="&#x120;" horiz-adv-x="1036" 
d="M810 83q-40 -54 -82 -80t-83 -32t-80.5 4.5t-73.5 29.5t-62.5 43t-47 45t-27 35.5t-3.5 14.5q-8 0 -34 -21t-63.5 -46.5t-83.5 -46.5t-94 -21q-16 0 -28 -0.5t-19.5 2.5t-10.5 12.5t-1 30.5q17 0 52.5 4.5t77.5 19t83.5 43t71.5 76.5q-18 7 -30.5 34.5t-19 64.5t-6.5 78
t6.5 75.5t21 57t37.5 22.5q19 0 33 -21t26.5 -48.5t25.5 -54.5t31 -38q25 20 54 57.5t53 81t40 87.5t16 76q0 16 -11.5 39t-25 49t-24 52.5t-9 49.5t19.5 41t62 26q22 4 34.5 -5.5t18 -28t6 -42t-1 -46.5t-2.5 -43t1 -30q35 -12 75 -5.5t78.5 24.5t73 44t58.5 53
q19 15 25.5 -1.5t5 -55.5t-10 -94.5t-21 -119t-27 -130t-28 -126t-25 -107t-17.5 -74.5q35 1 66.5 8.5t56.5 21t42.5 33.5t25.5 48q6 14 14 18.5t14.5 0.5t11.5 -16t5 -31q-15 -40 -42.5 -67t-63.5 -43.5t-78 -23t-87 -4.5zM463 311q13 -35 45 -64t76.5 -51.5t96 -37
t103.5 -18.5q25 66 43 139t31.5 148t25 150t25.5 144q-39 -26 -74 -40t-67.5 -20t-64 -7.5t-62.5 -3.5q-5 -58 -24 -107.5t-45.5 -91.5t-55.5 -75.5t-54 -59.5q-1 -1 0 -2.5t1 -2.5zM385 184q13 -41 42 -72t65.5 -51.5t76.5 -29.5t75.5 -6t62 19t36.5 46q-48 8 -95 23
t-87.5 36t-73 46.5t-51.5 53.5h-6q-9 0 -18 -7.5t-15.5 -18t-10 -21.5t-1.5 -18zM321 436q-9 -13 -15.5 -43.5t-5 -62.5t12.5 -56.5t35 -24.5q14 0 20.5 13t7 32.5t-4 43t-12.5 44.5t-18 36t-20 18zM586 880q0 3 -5.5 -2t-7.5 -19t3.5 -37t28.5 -56q15 13 13.5 36t-8.5 43.5
t-15.5 32.5t-8.5 2zM802 873q-27 1 -36 19t-5.5 39t18.5 39.5t38 20.5q22 -1 32.5 -18.5t8 -38.5t-16.5 -39.5t-39 -21.5z" />
    <glyph glyph-name="Hbar" unicode="&#x126;" horiz-adv-x="737" 
d="M248 625q18 57 28 93t15 53q7 21 7.5 39.5t-6 33t-22 23.5t-41.5 11q-18 9 -40.5 4.5t-42 -16.5t-33.5 -28.5t-15.5 -31t12.5 -25t50 -10.5q12 -3 14.5 -14t-3.5 -22t-19.5 -17.5t-32.5 -0.5q-44 10 -60 32.5t-11.5 49t24.5 54t47 48t57.5 30t55.5 1.5q31 3 56 -6.5
t40.5 -29t20.5 -49t-5 -67.5l-51 -165l238 -51q14 51 32 117.5t43 154.5q3 9 13.5 9t21 -5.5t18 -14.5t6.5 -18l-76 -255l65 -14q16 -8 24.5 -19t7 -20.5t-14.5 -15.5t-40 -4l-60 12l-66 -220q11 -10 27.5 -24t36 -26t41 -19.5t44 -4.5t44 19t40.5 51q18 20 24 8t4 -45
q-8 -32 -28 -51t-47 -27t-57.5 -5.5t-59.5 12.5t-53.5 27t-39.5 39l-69 -220q-6 -12 -15.5 -15.5t-18 -0.5t-14.5 12t-5 23q17 60 27 94t16 52.5t9 26l6 15t7 19.5t12 40q-41 -3 -71.5 -3t-57 6t-51.5 19t-55 36l-144 -321q-7 0 -16.5 1.5t-17.5 5.5t-13 10.5t-4 15.5
q84 174 136.5 302.5t84.5 219.5l-43 9q-22 12 -28 24.5t-1 22.5t18.5 14.5t31.5 1.5zM468 338q3 2 5.5 8t7 22.5t12.5 48.5t22 86l-241 50l-28 -94q38 9 71 2t60.5 -24.5t50 -43t40.5 -55.5zM246 385q5 -20 26.5 -36.5t48 -25t51.5 -7.5t37 16q0 28 -20.5 48t-48.5 28.5
t-55 3.5t-39 -27z" />
    <glyph glyph-name="Hcircumflex" unicode="&#x124;" horiz-adv-x="737" 
d="M57 8q-7 0 -16.5 1.5t-17.5 5.5t-13 10.5t-4 15.5q81 168 133.5 294.5t84 216t46.5 143t21 76.5q7 21 7.5 39.5t-6 33t-22 23.5t-41.5 11q-18 9 -40.5 4.5t-42 -16.5t-33.5 -28.5t-15.5 -31t12.5 -25t50 -10.5q12 -3 14.5 -14t-3.5 -22t-19.5 -17.5t-32.5 -0.5
q-44 10 -60 32.5t-11.5 49t24.5 54t47 48t57.5 30t55.5 1.5q31 3 56 -6.5t40.5 -29t20.5 -49t-5 -67.5l-98 -321q38 9 71 2t60.5 -24.5t50 -43t40.5 -55.5q3 2 5.5 7.5t7 22t12.5 48.5t22.5 86.5t36 136t54.5 197.5q3 9 13.5 9t21 -5.5t18 -14.5t6.5 -18l-160 -536
q11 -10 27.5 -24t36 -26t41 -19.5t44 -4.5t44 19t40.5 51q18 20 24 8t4 -45q-8 -32 -28 -51t-47 -27t-57.5 -5.5t-59.5 12.5t-53.5 27t-39.5 39l-69 -220q-6 -12 -15.5 -15.5t-18 -0.5t-14.5 12t-5 23q17 60 27 94t16 52.5t9 26l6 15t7 19.5t12 40q-41 -3 -71.5 -3t-57 6
t-51.5 19t-55 36zM246 385q5 -20 26.5 -36.5t48 -25t51.5 -7.5t37 16q0 28 -20.5 48t-48.5 28.5t-55 3.5t-39 -27zM439 924q-9 0 -16.5 0.5t-12 4t-7 10.5t-0.5 20l110 131q31 24 61 -18l90 -119v-4q-1 -9 -9 -15t-18.5 -8.5t-20.5 -0.5t-15 10l-72 84z" />
    <glyph glyph-name="Iacute" unicode="&#xcd;" horiz-adv-x="860" 
d="M436 36q-77 -13 -138.5 -5t-109.5 30t-82 55.5t-54.5 71t-28 76t-2.5 71t22.5 56t46.5 31.5q33 9 59 -9.5t48 -48.5t41 -64.5t36 -58.5q-12 53 -10.5 118t16.5 132.5t43.5 132t68.5 116t92.5 85t116.5 39.5q58 -5 93 -34t51 -74.5t15.5 -104t-14.5 -123t-39 -130.5
t-58 -127t-71.5 -112.5t-78.5 -86.5q17 -15 45.5 -14.5t62 11.5t68.5 30.5t66.5 42t56.5 46t37 43.5q24 37 41.5 41.5t27 -6.5t10 -28.5t-8.5 -24.5q-35 -45 -78 -83t-89 -66.5t-92 -46.5t-86.5 -22.5t-73 5t-50.5 36.5zM71 289q4 -32 20 -71t51 -69.5t91.5 -45t140.5 2.5
q-2 3 -10.5 13t-17.5 21t-16.5 19.5t-8.5 9.5q-15 -12 -32 -2.5t-35 30.5t-36.5 49t-36.5 54t-35 45.5t-31 22.5t-25.5 -14.5t-18.5 -64.5zM601 802q-43 -7 -83 -34t-74 -68.5t-60 -93.5t-41.5 -108t-19 -113t8.5 -108.5t40.5 -93.5t77.5 -68q39 28 74.5 71.5t66 95.5
t54.5 109t38.5 113t19 107.5t-5 92t-33 66.5t-63.5 32zM532 1005q-27 -45 -43.5 -64t-26 -26.5t-15.5 -9.5t-12 -11q-16 0 -24.5 9.5t-8.5 21.5q9 31 36.5 58t59.5 54q16 2 25 -10t9 -22z" />
    <glyph glyph-name="Ibreve" unicode="&#x12c;" horiz-adv-x="860" 
d="M436 36q-77 -13 -138.5 -5t-109.5 30t-82 55.5t-54.5 71t-28 76t-2.5 71t22.5 56t46.5 31.5q33 9 59 -9.5t48 -48.5t41 -64.5t36 -58.5q-12 53 -10.5 118t16.5 132.5t43.5 132t68.5 116t92.5 85t116.5 39.5q58 -5 93 -34t51 -74.5t15.5 -104t-14.5 -123t-39 -130.5
t-58 -127t-71.5 -112.5t-78.5 -86.5q17 -15 45.5 -14.5t62 11.5t68.5 30.5t66.5 42t56.5 46t37 43.5q24 37 41.5 41.5t27 -6.5t10 -28.5t-8.5 -24.5q-35 -45 -78 -83t-89 -66.5t-92 -46.5t-86.5 -22.5t-73 5t-50.5 36.5zM71 289q4 -32 20 -71t51 -69.5t91.5 -45t140.5 2.5
q-2 3 -10.5 13t-17.5 21t-16.5 19.5t-8.5 9.5q-15 -12 -32 -2.5t-35 30.5t-36.5 49t-36.5 54t-35 45.5t-31 22.5t-25.5 -14.5t-18.5 -64.5zM601 802q-43 -7 -83 -34t-74 -68.5t-60 -93.5t-41.5 -108t-19 -113t8.5 -108.5t40.5 -93.5t77.5 -68q39 28 74.5 71.5t66 95.5
t54.5 109t38.5 113t19 107.5t-5 92t-33 66.5t-63.5 32zM446 1061q38 -50 71 -69t61 -14.5t50.5 27.5t40.5 56q5 5 14.5 6t19.5 -0.5t17.5 -5.5t8.5 -10v-2q-8 -24 -25 -49.5t-41 -45t-54.5 -29.5t-65.5 -4t-74 32t-80 79q-2 8 3.5 13.5t14.5 9t19.5 5t19.5 1.5z" />
    <glyph glyph-name="Icircumflex" unicode="&#xce;" horiz-adv-x="860" 
d="M436 36q-77 -13 -138.5 -5t-109.5 30t-82 55.5t-54.5 71t-28 76t-2.5 71t22.5 56t46.5 31.5q33 9 59 -9.5t48 -48.5t41 -64.5t36 -58.5q-12 53 -10.5 118t16.5 132.5t43.5 132t68.5 116t92.5 85t116.5 39.5q58 -5 93 -34t51 -74.5t15.5 -104t-14.5 -123t-39 -130.5
t-58 -127t-71.5 -112.5t-78.5 -86.5q17 -15 45.5 -14.5t62 11.5t68.5 30.5t66.5 42t56.5 46t37 43.5q24 37 41.5 41.5t27 -6.5t10 -28.5t-8.5 -24.5q-35 -45 -78 -83t-89 -66.5t-92 -46.5t-86.5 -22.5t-73 5t-50.5 36.5zM71 289q4 -32 20 -71t51 -69.5t91.5 -45t140.5 2.5
q-2 3 -10.5 13t-17.5 21t-16.5 19.5t-8.5 9.5q-15 -12 -32 -2.5t-35 30.5t-36.5 49t-36.5 54t-35 45.5t-31 22.5t-25.5 -14.5t-18.5 -64.5zM601 802q-43 -7 -83 -34t-74 -68.5t-60 -93.5t-41.5 -108t-19 -113t8.5 -108.5t40.5 -93.5t77.5 -68q39 28 74.5 71.5t66 95.5
t54.5 109t38.5 113t19 107.5t-5 92t-33 66.5t-63.5 32zM513 917q-9 0 -16.5 0.5t-12 4t-7 10.5t-0.5 20l110 131q31 24 61 -18l90 -119v-4q-1 -9 -9 -15t-18.5 -8.5t-20.5 -0.5t-15 10l-72 84z" />
    <glyph glyph-name="Idieresis" unicode="&#xcf;" horiz-adv-x="860" 
d="M436 36q-77 -13 -138.5 -5t-109.5 30t-82 55.5t-54.5 71t-28 76t-2.5 71t22.5 56t46.5 31.5q33 9 59 -9.5t48 -48.5t41 -64.5t36 -58.5q-12 53 -10.5 118t16.5 132.5t43.5 132t68.5 116t92.5 85t116.5 39.5q58 -5 93 -34t51 -74.5t15.5 -104t-14.5 -123t-39 -130.5
t-58 -127t-71.5 -112.5t-78.5 -86.5q17 -15 45.5 -14.5t62 11.5t68.5 30.5t66.5 42t56.5 46t37 43.5q24 37 41.5 41.5t27 -6.5t10 -28.5t-8.5 -24.5q-35 -45 -78 -83t-89 -66.5t-92 -46.5t-86.5 -22.5t-73 5t-50.5 36.5zM71 289q4 -32 20 -71t51 -69.5t91.5 -45t140.5 2.5
q-2 3 -10.5 13t-17.5 21t-16.5 19.5t-8.5 9.5q-15 -12 -32 -2.5t-35 30.5t-36.5 49t-36.5 54t-35 45.5t-31 22.5t-25.5 -14.5t-18.5 -64.5zM601 802q-43 -7 -83 -34t-74 -68.5t-60 -93.5t-41.5 -108t-19 -113t8.5 -108.5t40.5 -93.5t77.5 -68q39 28 74.5 71.5t66 95.5
t54.5 109t38.5 113t19 107.5t-5 92t-33 66.5t-63.5 32zM506 929q-13 -4 -23.5 3.5t-15 20t-1 27t18.5 23.5q21 17 34.5 8.5t17.5 -25.5t-3 -35.5t-28 -21.5zM669 925q-13 -4 -23.5 3.5t-15 20t-1 27t18.5 23.5q21 17 34.5 8.5t17.5 -25.5t-3 -35.5t-28 -21.5z" />
    <glyph glyph-name="Idotaccent" unicode="&#x130;" horiz-adv-x="860" 
d="M436 36q-77 -13 -138.5 -5t-109.5 30t-82 55.5t-54.5 71t-28 76t-2.5 71t22.5 56t46.5 31.5q33 9 59 -9.5t48 -48.5t41 -64.5t36 -58.5q-12 53 -10.5 118t16.5 132.5t43.5 132t68.5 116t92.5 85t116.5 39.5q58 -5 93 -34t51 -74.5t15.5 -104t-14.5 -123t-39 -130.5
t-58 -127t-71.5 -112.5t-78.5 -86.5q17 -15 45.5 -14.5t62 11.5t68.5 30.5t66.5 42t56.5 46t37 43.5q24 37 41.5 41.5t27 -6.5t10 -28.5t-8.5 -24.5q-35 -45 -78 -83t-89 -66.5t-92 -46.5t-86.5 -22.5t-73 5t-50.5 36.5zM71 289q4 -32 20 -71t51 -69.5t91.5 -45t140.5 2.5
q-2 3 -10.5 13t-17.5 21t-16.5 19.5t-8.5 9.5q-15 -12 -32 -2.5t-35 30.5t-36.5 49t-36.5 54t-35 45.5t-31 22.5t-25.5 -14.5t-18.5 -64.5zM601 802q-43 -7 -83 -34t-74 -68.5t-60 -93.5t-41.5 -108t-19 -113t8.5 -108.5t40.5 -93.5t77.5 -68q39 28 74.5 71.5t66 95.5
t54.5 109t38.5 113t19 107.5t-5 92t-33 66.5t-63.5 32zM571 914q-27 1 -36 19t-5.5 39t18.5 39.5t38 20.5q22 -1 32.5 -18.5t8 -38.5t-16.5 -39.5t-39 -21.5z" />
    <glyph glyph-name="Igrave" unicode="&#xcc;" horiz-adv-x="860" 
d="M436 36q-77 -13 -138.5 -5t-109.5 30t-82 55.5t-54.5 71t-28 76t-2.5 71t22.5 56t46.5 31.5q33 9 59 -9.5t48 -48.5t41 -64.5t36 -58.5q-12 53 -10.5 118t16.5 132.5t43.5 132t68.5 116t92.5 85t116.5 39.5q58 -5 93 -34t51 -74.5t15.5 -104t-14.5 -123t-39 -130.5
t-58 -127t-71.5 -112.5t-78.5 -86.5q17 -15 45.5 -14.5t62 11.5t68.5 30.5t66.5 42t56.5 46t37 43.5q24 37 41.5 41.5t27 -6.5t10 -28.5t-8.5 -24.5q-35 -45 -78 -83t-89 -66.5t-92 -46.5t-86.5 -22.5t-73 5t-50.5 36.5zM71 289q4 -32 20 -71t51 -69.5t91.5 -45t140.5 2.5
q-2 3 -10.5 13t-17.5 21t-16.5 19.5t-8.5 9.5q-15 -12 -32 -2.5t-35 30.5t-36.5 49t-36.5 54t-35 45.5t-31 22.5t-25.5 -14.5t-18.5 -64.5zM601 802q-43 -7 -83 -34t-74 -68.5t-60 -93.5t-41.5 -108t-19 -113t8.5 -108.5t40.5 -93.5t77.5 -68q39 28 74.5 71.5t66 95.5
t54.5 109t38.5 113t19 107.5t-5 92t-33 66.5t-63.5 32zM522 1045q0 10 7.5 22.5t20.5 10.5q27 -28 50 -55.5t31 -59.5q0 -12 -7 -22t-21 -10q-5 10 -10 11.5t-13 9t-22 27.5t-36 66z" />
    <glyph glyph-name="Imacron" unicode="&#x12a;" horiz-adv-x="860" 
d="M436 36q-77 -13 -138.5 -5t-109.5 30t-82 55.5t-54.5 71t-28 76t-2.5 71t22.5 56t46.5 31.5q33 9 59 -9.5t48 -48.5t41 -64.5t36 -58.5q-12 53 -10.5 118t16.5 132.5t43.5 132t68.5 116t92.5 85t116.5 39.5q58 -5 93 -34t51 -74.5t15.5 -104t-14.5 -123t-39 -130.5
t-58 -127t-71.5 -112.5t-78.5 -86.5q17 -15 45.5 -14.5t62 11.5t68.5 30.5t66.5 42t56.5 46t37 43.5q24 37 41.5 41.5t27 -6.5t10 -28.5t-8.5 -24.5q-35 -45 -78 -83t-89 -66.5t-92 -46.5t-86.5 -22.5t-73 5t-50.5 36.5zM71 289q4 -32 20 -71t51 -69.5t91.5 -45t140.5 2.5
q-2 3 -10.5 13t-17.5 21t-16.5 19.5t-8.5 9.5q-15 -12 -32 -2.5t-35 30.5t-36.5 49t-36.5 54t-35 45.5t-31 22.5t-25.5 -14.5t-18.5 -64.5zM601 802q-43 -7 -83 -34t-74 -68.5t-60 -93.5t-41.5 -108t-19 -113t8.5 -108.5t40.5 -93.5t77.5 -68q39 28 74.5 71.5t66 95.5
t54.5 109t38.5 113t19 107.5t-5 92t-33 66.5t-63.5 32zM479 922q-16 9 -17.5 24t9.5 29h62.5t54 -1t55 -2.5t66.5 -5.5q17 -8 18.5 -23t-9.5 -30q-34 0 -61 0.5t-53.5 1.5t-56 3t-68.5 4z" />
    <glyph glyph-name="Iogonek" unicode="&#x12e;" horiz-adv-x="860" 
d="M436 36q-77 -13 -138.5 -5t-109.5 30t-82 55.5t-54.5 71t-28 76t-2.5 71t22.5 56t46.5 31.5q33 9 59 -9.5t48 -48.5t41 -64.5t36 -58.5q-12 53 -10.5 118t16.5 132.5t43.5 132t68.5 116t92.5 85t116.5 39.5q58 -5 93 -34t51 -74.5t15.5 -104t-14.5 -123t-39 -130.5
t-58 -127t-71.5 -112.5t-78.5 -86.5q17 -15 45.5 -14.5t62 11.5t68.5 30.5t66.5 42t56.5 46t37 43.5q24 37 41.5 41.5t27 -6.5t10 -28.5t-8.5 -24.5q-35 -45 -78 -83t-89 -66.5t-92 -46.5t-86.5 -22.5t-73 5t-50.5 36.5zM71 289q4 -32 20 -71t51 -69.5t91.5 -45t140.5 2.5
q-2 3 -10.5 13t-17.5 21t-16.5 19.5t-8.5 9.5q-15 -12 -32 -2.5t-35 30.5t-36.5 49t-36.5 54t-35 45.5t-31 22.5t-25.5 -14.5t-18.5 -64.5zM601 802q-43 -7 -83 -34t-74 -68.5t-60 -93.5t-41.5 -108t-19 -113t8.5 -108.5t40.5 -93.5t77.5 -68q39 28 74.5 71.5t66 95.5
t54.5 109t38.5 113t19 107.5t-5 92t-33 66.5t-63.5 32zM720 -150q-38 -13 -62 -3t-35 33t-10.5 54.5t10.5 62.5t29 56.5t45 36.5l15 -37q-23 -18 -35 -49t-12 -58.5t12 -43.5t35 -4h1z" />
    <glyph glyph-name="Itilde" unicode="&#x128;" horiz-adv-x="860" 
d="M436 36q-77 -13 -138.5 -5t-109.5 30t-82 55.5t-54.5 71t-28 76t-2.5 71t22.5 56t46.5 31.5q33 9 59 -9.5t48 -48.5t41 -64.5t36 -58.5q-12 53 -10.5 118t16.5 132.5t43.5 132t68.5 116t92.5 85t116.5 39.5q58 -5 93 -34t51 -74.5t15.5 -104t-14.5 -123t-39 -130.5
t-58 -127t-71.5 -112.5t-78.5 -86.5q17 -15 45.5 -14.5t62 11.5t68.5 30.5t66.5 42t56.5 46t37 43.5q24 37 41.5 41.5t27 -6.5t10 -28.5t-8.5 -24.5q-35 -45 -78 -83t-89 -66.5t-92 -46.5t-86.5 -22.5t-73 5t-50.5 36.5zM71 289q4 -32 20 -71t51 -69.5t91.5 -45t140.5 2.5
q-2 3 -10.5 13t-17.5 21t-16.5 19.5t-8.5 9.5q-15 -12 -32 -2.5t-35 30.5t-36.5 49t-36.5 54t-35 45.5t-31 22.5t-25.5 -14.5t-18.5 -64.5zM601 802q-43 -7 -83 -34t-74 -68.5t-60 -93.5t-41.5 -108t-19 -113t8.5 -108.5t40.5 -93.5t77.5 -68q39 28 74.5 71.5t66 95.5
t54.5 109t38.5 113t19 107.5t-5 92t-33 66.5t-63.5 32zM579 950q-11 31 -25 47t-29 15.5t-29 -19t-23 -55.5q1 -6 -3.5 -12t-12.5 -8.5t-17.5 0t-18.5 14.5q-3 33 7 60.5t28 46t41.5 27.5t47 4t44.5 -25t35 -58q16 -31 35 -32t35 12t26.5 31t10.5 26q5 10 15.5 14.5t20 2
t15.5 -12.5t2 -28q-13 -40 -44 -65t-64 -32.5t-61.5 3.5t-35.5 44z" />
    <glyph glyph-name="Jcircumflex" unicode="&#x134;" horiz-adv-x="696" 
d="M187 -323q-47 17 -75.5 46.5t-42.5 66.5t-15 79.5t8 85t25.5 83t38.5 73.5q-41 44 -63 101.5t-28.5 121t2 130.5t29 130.5t51 119.5t68.5 97.5t82.5 65.5t91.5 24q51 -3 78.5 -35.5t39 -84.5t10 -119.5t-8 -140.5t-14.5 -148t-10 -142q18 -38 45 -50t56.5 -9t57 17.5
t48 30.5t30 28t1.5 11q19 14 33 11t20 -14t2.5 -26t-18.5 -25q-8 -7 -26.5 -22t-43.5 -30.5t-54.5 -28t-60 -15t-60 8.5t-54.5 42q-27 -126 -51 -217t-51 -150.5t-60.5 -87.5t-80.5 -28zM178 82q-25 -44 -45 -96.5t-24 -102t14 -90t68 -61.5q19 0 37 15t38 60t44 128t55 220
q-2 0 -8 -1.5t-25.5 -8.5t-55.5 -21.5t-98 -41.5zM352 839q-28 1 -60 -22t-62.5 -62.5t-58 -92t-47.5 -110.5t-29.5 -117.5t-4.5 -114.5t26.5 -101.5t65.5 -76.5q2 0 29 11t61 25t66.5 27t44.5 17q7 37 17 99t18.5 132.5t12 142t-2 127.5t-23.5 89t-53 27zM255 986
q-9 0 -16.5 0.5t-12 4t-7 10.5t-0.5 20l110 131q31 24 61 -18l90 -119v-4q-1 -9 -9 -15t-18.5 -8.5t-20.5 -0.5t-15 10l-72 84z" />
    <glyph glyph-name="Kcommaaccent" unicode="&#x136;" horiz-adv-x="893" 
d="M471 127q-7 27 -9.5 62t-4.5 71.5t-5.5 70.5t-12 59.5t-24 40t-42.5 11.5q-11 0 -32 -2.5t-43 -8t-40 -14t-24 -20.5l-177 -385q-17 -17 -26.5 -5t-4.5 41q16 53 47 127.5t65 158.5t65.5 171.5t48 166.5t13 143t-38.5 102q-21 8 -44 -0.5t-41 -24t-29 -34t-9.5 -32
t19 -17.5t55.5 10q0 -17 -8 -29.5t-21 -20t-28 -11t-30 -3.5q-33 17 -43 40.5t-3.5 48t26 48t46 41.5t55.5 28.5t54 8.5q53 2 79 -20.5t33.5 -60.5t0 -88t-20 -104.5t-26.5 -110t-21 -103.5q15 0 39 3.5t49 10.5t47 16.5t34 21.5l335 358q10 17 24.5 24t29 7t25.5 -7
t13.5 -17.5t-7 -24t-36.5 -27.5l-367 -366q21 -15 29 -52.5t10.5 -82.5t3.5 -91t9 -80q11 -63 39.5 -86.5t66.5 -19.5t80.5 28.5t82.5 56.5t72.5 64t50.5 52q13 5 22 1.5t11.5 -12t-2.5 -20.5t-18 -23q-9 -16 -29.5 -39.5t-49 -48t-63 -48t-70 -40.5t-71 -24t-66 1t-55 33.5
t-38.5 75.5zM389 -263q6 23 14 46.5t13.5 47.5t5.5 49t-10 50q0 16 14.5 18.5t26.5 2.5q12 -16 17.5 -41t4.5 -52.5t-8 -53.5t-18 -44.5t-26.5 -25.5t-33.5 3z" />
    <glyph glyph-name="Lacute" unicode="&#x139;" horiz-adv-x="901" 
d="M275 106q-24 -36 -63 -52.5t-78.5 -12.5t-72.5 28.5t-45 68.5q-5 40 8.5 69.5t38 48.5t56.5 27t64 5t60 -17.5t46 -40.5h3q1 0 2 1q19 54 34 110t28 115t24.5 121.5t24.5 130.5q-13 20 -19.5 38.5t-9.5 38t-3.5 41t-1.5 47.5q0 13 5.5 21t13.5 10.5t17.5 -1t18.5 -13.5
q0 -6 1 -23.5t3.5 -38.5t6 -41t9.5 -30q13 40 29.5 74t36.5 56.5t43 29.5t49 -8q35 -17 47.5 -45t7 -58.5t-25 -60t-47 -50t-61 -28.5t-66.5 5q-13 -31 -23.5 -74.5t-20 -92.5t-18.5 -100t-19.5 -96.5t-22.5 -82t-27 -57.5q58 -73 131.5 -101t150 -17t151.5 59t136 127
q7 23 18 32.5t21.5 9t18.5 -9.5t10 -22t-4.5 -28.5t-24.5 -30.5q-71 -87 -154.5 -135.5t-171 -58t-173.5 18.5t-162 93zM71 142q16 -30 42 -39.5t53 -2.5t50.5 27.5t32.5 50.5q-15 34 -45.5 48.5t-61 9.5t-52.5 -29t-19 -65zM597 856q-9 10 -26.5 3.5t-35.5 -24.5t-32 -44.5
t-16 -55.5q15 -16 41 -7.5t47.5 30t30.5 49t-9 49.5zM867 886q-27 -45 -43.5 -64t-26 -26.5t-15.5 -9.5t-12 -11q-16 0 -24.5 9.5t-8.5 21.5q9 31 36.5 58t59.5 54q16 2 25 -10t9 -22z" />
    <glyph glyph-name="Lcommaaccent" unicode="&#x13b;" horiz-adv-x="901" 
d="M275 106q-24 -36 -63 -52.5t-78.5 -12.5t-72.5 28.5t-45 68.5q-5 40 8.5 69.5t38 48.5t56.5 27t64 5t60 -17.5t46 -40.5h3q1 0 2 1q19 54 34 110t28 115t24.5 121.5t24.5 130.5q-13 20 -19.5 38.5t-9.5 38t-3.5 41t-1.5 47.5q0 13 5.5 21t13.5 10.5t17.5 -1t18.5 -13.5
q0 -6 1 -23.5t3.5 -38.5t6 -41t9.5 -30q13 40 29.5 74t36.5 56.5t43 29.5t49 -8q35 -17 47.5 -45t7 -58.5t-25 -60t-47 -50t-61 -28.5t-66.5 5q-13 -31 -23.5 -74.5t-20 -92.5t-18.5 -100t-19.5 -96.5t-22.5 -82t-27 -57.5q58 -73 131.5 -101t150 -17t151.5 59t136 127
q7 23 18 32.5t21.5 9t18.5 -9.5t10 -22t-4.5 -28.5t-24.5 -30.5q-71 -87 -154.5 -135.5t-171 -58t-173.5 18.5t-162 93zM71 142q16 -30 42 -39.5t53 -2.5t50.5 27.5t32.5 50.5q-15 34 -45.5 48.5t-61 9.5t-52.5 -29t-19 -65zM597 856q-9 10 -26.5 3.5t-35.5 -24.5t-32 -44.5
t-16 -55.5q15 -16 41 -7.5t47.5 30t30.5 49t-9 49.5zM410 -254q6 23 14 46.5t13.5 47.5t5.5 49t-10 50q0 16 14.5 18.5t26.5 2.5q12 -16 17.5 -41t4.5 -52.5t-8 -53.5t-18 -44.5t-26.5 -25.5t-33.5 3z" />
    <glyph glyph-name="Lcaron" unicode="&#x13d;" horiz-adv-x="901" 
d="M275 106q-24 -36 -63 -52.5t-78.5 -12.5t-72.5 28.5t-45 68.5q-5 40 8.5 69.5t38 48.5t56.5 27t64 5t60 -17.5t46 -40.5h3q1 0 2 1q19 54 34 110t28 115t24.5 121.5t24.5 130.5q-13 20 -19.5 38.5t-9.5 38t-3.5 41t-1.5 47.5q0 13 5.5 21t13.5 10.5t17.5 -1t18.5 -13.5
q0 -6 1 -23.5t3.5 -38.5t6 -41t9.5 -30q13 40 29.5 74t36.5 56.5t43 29.5t49 -8q35 -17 47.5 -45t7 -58.5t-25 -60t-47 -50t-61 -28.5t-66.5 5q-13 -31 -23.5 -74.5t-20 -92.5t-18.5 -100t-19.5 -96.5t-22.5 -82t-27 -57.5q58 -73 131.5 -101t150 -17t151.5 59t136 127
q7 23 18 32.5t21.5 9t18.5 -9.5t10 -22t-4.5 -28.5t-24.5 -30.5q-71 -87 -154.5 -135.5t-171 -58t-173.5 18.5t-162 93zM71 142q16 -30 42 -39.5t53 -2.5t50.5 27.5t32.5 50.5q-15 34 -45.5 48.5t-61 9.5t-52.5 -29t-19 -65zM597 856q-9 10 -26.5 3.5t-35.5 -24.5t-32 -44.5
t-16 -55.5q15 -16 41 -7.5t47.5 30t30.5 49t-9 49.5zM796 763q-14 7 -22 27.5t-8.5 44t7.5 44t27 26.5h5q5 -2 11.5 -5t6.5 -4v-107q0 -2 -3 -5.5t-7.5 -8t-9 -8t-7.5 -4.5z" />
    <glyph glyph-name="Ldot" unicode="&#x13f;" horiz-adv-x="901" 
d="M275 106q-24 -36 -63 -52.5t-78.5 -12.5t-72.5 28.5t-45 68.5q-5 40 8.5 69.5t38 48.5t56.5 27t64 5t60 -17.5t46 -40.5h3q1 0 2 1q19 54 34 110t28 115t24.5 121.5t24.5 130.5q-13 20 -19.5 38.5t-9.5 38t-3.5 41t-1.5 47.5q0 13 5.5 21t13.5 10.5t17.5 -1t18.5 -13.5
q0 -6 1 -23.5t3.5 -38.5t6 -41t9.5 -30q13 40 29.5 74t36.5 56.5t43 29.5t49 -8q35 -17 47.5 -45t7 -58.5t-25 -60t-47 -50t-61 -28.5t-66.5 5q-13 -31 -23.5 -74.5t-20 -92.5t-18.5 -100t-19.5 -96.5t-22.5 -82t-27 -57.5q58 -73 131.5 -101t150 -17t151.5 59t136 127
q7 23 18 32.5t21.5 9t18.5 -9.5t10 -22t-4.5 -28.5t-24.5 -30.5q-71 -87 -154.5 -135.5t-171 -58t-173.5 18.5t-162 93zM71 142q16 -30 42 -39.5t53 -2.5t50.5 27.5t32.5 50.5q-15 34 -45.5 48.5t-61 9.5t-52.5 -29t-19 -65zM597 856q-9 10 -26.5 3.5t-35.5 -24.5t-32 -44.5
t-16 -55.5q15 -16 41 -7.5t47.5 30t30.5 49t-9 49.5zM752 546q-27 1 -36 19t-5.5 39t18.5 39.5t38 20.5q22 -1 32.5 -18.5t8 -38.5t-16.5 -39.5t-39 -21.5z" />
    <glyph glyph-name="Lslash" unicode="&#x141;" horiz-adv-x="901" 
d="M275 106q-24 -36 -63 -52.5t-78.5 -12.5t-72.5 28.5t-45 68.5q-5 40 8.5 69.5t38 48.5t56.5 27t64 5t60 -17.5t46 -40.5h3q1 0 2 1q19 54 34 110t28 115t24.5 121.5t24.5 130.5q-13 20 -19.5 38.5t-9.5 38t-3.5 41t-1.5 47.5q0 13 5.5 21t13.5 10.5t17.5 -1t18.5 -13.5
q0 -6 1 -23.5t3.5 -38.5t6 -41t9.5 -30q13 40 29.5 74t36.5 56.5t43 29.5t49 -8q35 -17 47.5 -45t7 -58.5t-25 -60t-47 -50t-61 -28.5t-66.5 5q-13 -31 -23.5 -74.5t-20 -92.5t-18.5 -100t-19.5 -96.5t-22.5 -82t-27 -57.5q58 -73 131.5 -101t150 -17t151.5 59t136 127
q7 23 18 32.5t21.5 9t18.5 -9.5t10 -22t-4.5 -28.5t-24.5 -30.5q-71 -87 -154.5 -135.5t-171 -58t-173.5 18.5t-162 93zM71 142q16 -30 42 -39.5t53 -2.5t50.5 27.5t32.5 50.5q-15 34 -45.5 48.5t-61 9.5t-52.5 -29t-19 -65zM597 856q-9 10 -26.5 3.5t-35.5 -24.5t-32 -44.5
t-16 -55.5q15 -16 41 -7.5t47.5 30t30.5 49t-9 49.5zM261 365q-16 9 -17.5 24t9.5 29h62.5t54 -1t55 -2.5t66.5 -5.5q17 -8 18.5 -23t-9.5 -30q-34 0 -61 0.5t-53.5 1.5t-56 3t-68.5 4z" />
    <glyph glyph-name="Nacute" unicode="&#x143;" horiz-adv-x="778" 
d="M526 192q50 159 82.5 282.5t40 205.5t-14 120t-81.5 27q-22 -8 -50.5 -27t-56.5 -46t-52.5 -60.5t-38.5 -69.5l-212 -608q-6 -13 -15 -19.5t-17.5 -5.5t-14.5 10t-7 28q3 16 8 33.5t13.5 45t23.5 70t38.5 109t57 162t81.5 228.5q0 60 -20.5 84.5t-50 24t-63.5 -21
t-61.5 -51.5t-44 -67t-10.5 -67q8 -39 24.5 -50.5t34.5 -7.5t34 17t24 24q10 8 17.5 4.5t9.5 -12.5t-1 -21t-12 -21q-25 -32 -56 -40.5t-58 2.5t-44.5 40.5t-16.5 73.5q-1 49 21 93.5t56.5 78.5t77 54.5t83 23t72.5 -16.5t47 -64q22 20 36.5 37t30 32t37 30.5t58.5 32.5
q72 16 115 -15.5t51.5 -115.5t-20.5 -222t-101 -335q-21 -70 -19.5 -105.5t18 -44.5t43 4.5t55.5 41t57 64.5t47 76q12 18 24 21t19.5 -3.5t7.5 -22t-14 -35.5q-15 -38 -40 -72t-54.5 -61.5t-61 -46t-60 -25.5t-51 -0.5t-35 30t-11.5 65.5t20 105zM454 1066
q-27 -45 -43.5 -64t-26 -26.5t-15.5 -9.5t-12 -11q-16 0 -24.5 9.5t-8.5 21.5q9 31 36.5 58t59.5 54q16 2 25 -10t9 -22z" />
    <glyph glyph-name="Ncaron" unicode="&#x147;" horiz-adv-x="778" 
d="M526 192q50 159 82.5 282.5t40 205.5t-14 120t-81.5 27q-22 -8 -50.5 -27t-56.5 -46t-52.5 -60.5t-38.5 -69.5l-212 -608q-6 -13 -15 -19.5t-17.5 -5.5t-14.5 10t-7 28q3 16 8 33.5t13.5 45t23.5 70t38.5 109t57 162t81.5 228.5q0 60 -20.5 84.5t-50 24t-63.5 -21
t-61.5 -51.5t-44 -67t-10.5 -67q8 -39 24.5 -50.5t34.5 -7.5t34 17t24 24q10 8 17.5 4.5t9.5 -12.5t-1 -21t-12 -21q-25 -32 -56 -40.5t-58 2.5t-44.5 40.5t-16.5 73.5q-1 49 21 93.5t56.5 78.5t77 54.5t83 23t72.5 -16.5t47 -64q22 20 36.5 37t30 32t37 30.5t58.5 32.5
q72 16 115 -15.5t51.5 -115.5t-20.5 -222t-101 -335q-21 -70 -19.5 -105.5t18 -44.5t43 4.5t55.5 41t57 64.5t47 76q12 18 24 21t19.5 -3.5t7.5 -22t-14 -35.5q-15 -38 -40 -72t-54.5 -61.5t-61 -46t-60 -25.5t-51 -0.5t-35 30t-11.5 65.5t20 105zM387 1031q1 0 2 -2.5
t7 2.5t20 22t41 57q4 5 13 6.5t18 0t16 -5.5t8 -10v-3q-6 -18 -17.5 -32.5t-24 -28l-25 -27t-20.5 -28.5q-14 -14 -26.5 -10.5t-25.5 11.5l-105 115q-2 17 7 20.5t24 3.5z" />
    <glyph glyph-name="Ncommaaccent" unicode="&#x145;" horiz-adv-x="778" 
d="M526 192q50 159 82.5 282.5t40 205.5t-14 120t-81.5 27q-22 -8 -50.5 -27t-56.5 -46t-52.5 -60.5t-38.5 -69.5l-212 -608q-6 -13 -15 -19.5t-17.5 -5.5t-14.5 10t-7 28q3 16 8 33.5t13.5 45t23.5 70t38.5 109t57 162t81.5 228.5q0 60 -20.5 84.5t-50 24t-63.5 -21
t-61.5 -51.5t-44 -67t-10.5 -67q8 -39 24.5 -50.5t34.5 -7.5t34 17t24 24q10 8 17.5 4.5t9.5 -12.5t-1 -21t-12 -21q-25 -32 -56 -40.5t-58 2.5t-44.5 40.5t-16.5 73.5q-1 49 21 93.5t56.5 78.5t77 54.5t83 23t72.5 -16.5t47 -64q22 20 36.5 37t30 32t37 30.5t58.5 32.5
q72 16 115 -15.5t51.5 -115.5t-20.5 -222t-101 -335q-21 -70 -19.5 -105.5t18 -44.5t43 4.5t55.5 41t57 64.5t47 76q12 18 24 21t19.5 -3.5t7.5 -22t-14 -35.5q-15 -38 -40 -72t-54.5 -61.5t-61 -46t-60 -25.5t-51 -0.5t-35 30t-11.5 65.5t20 105zM332 -263q6 23 14 46.5
t13.5 47.5t5.5 49t-10 50q0 16 14.5 18.5t26.5 2.5q12 -16 17.5 -41t4.5 -52.5t-8 -53.5t-18 -44.5t-26.5 -25.5t-33.5 3z" />
    <glyph glyph-name="Ntilde" unicode="&#xd1;" horiz-adv-x="778" 
d="M526 192q50 159 82.5 282.5t40 205.5t-14 120t-81.5 27q-22 -8 -50.5 -27t-56.5 -46t-52.5 -60.5t-38.5 -69.5l-212 -608q-6 -13 -15 -19.5t-17.5 -5.5t-14.5 10t-7 28q3 16 8 33.5t13.5 45t23.5 70t38.5 109t57 162t81.5 228.5q0 60 -20.5 84.5t-50 24t-63.5 -21
t-61.5 -51.5t-44 -67t-10.5 -67q8 -39 24.5 -50.5t34.5 -7.5t34 17t24 24q10 8 17.5 4.5t9.5 -12.5t-1 -21t-12 -21q-25 -32 -56 -40.5t-58 2.5t-44.5 40.5t-16.5 73.5q-1 49 21 93.5t56.5 78.5t77 54.5t83 23t72.5 -16.5t47 -64q22 20 36.5 37t30 32t37 30.5t58.5 32.5
q72 16 115 -15.5t51.5 -115.5t-20.5 -222t-101 -335q-21 -70 -19.5 -105.5t18 -44.5t43 4.5t55.5 41t57 64.5t47 76q12 18 24 21t19.5 -3.5t7.5 -22t-14 -35.5q-15 -38 -40 -72t-54.5 -61.5t-61 -46t-60 -25.5t-51 -0.5t-35 30t-11.5 65.5t20 105zM493 1003q-11 31 -25 47
t-29 15.5t-29 -19t-23 -55.5q1 -6 -3.5 -12t-12.5 -8.5t-17.5 0t-18.5 14.5q-3 33 7 60.5t28 46t41.5 27.5t47 4t44.5 -25t35 -58q16 -31 35 -32t35 12t26.5 31t10.5 26q5 10 15.5 14.5t20 2t15.5 -12.5t2 -28q-13 -40 -44 -65t-64 -32.5t-61.5 3.5t-35.5 44z" />
    <glyph glyph-name="Oacute" unicode="&#xd3;" 
d="M302 -2q-93 7 -153 50.5t-90.5 109t-35 146.5t13.5 164.5t55 162.5t89 141t117 100t137 38q77 -7 132 -51.5t88 -112.5t45.5 -151.5t3.5 -168.5t-39 -165.5t-80 -141t-121 -94.5t-162 -27zM79 298q0 -53 15 -98t44.5 -78t73 -51.5t99.5 -18.5q77 1 137 34.5t102.5 87.5
t67.5 123t32.5 142t-2 144t-36.5 128.5t-71.5 96.5t-106.5 48q-55 0 -103 -29t-87.5 -76t-70 -107t-51.5 -122t-32 -120.5t-11 -103.5zM425 1066q-27 -45 -43.5 -64t-26 -26.5t-15.5 -9.5t-12 -11q-16 0 -24.5 9.5t-8.5 21.5q9 31 36.5 58t59.5 54q16 2 25 -10t9 -22z" />
    <glyph glyph-name="Obreve" unicode="&#x14e;" 
d="M302 -2q-93 7 -153 50.5t-90.5 109t-35 146.5t13.5 164.5t55 162.5t89 141t117 100t137 38q77 -7 132 -51.5t88 -112.5t45.5 -151.5t3.5 -168.5t-39 -165.5t-80 -141t-121 -94.5t-162 -27zM79 298q0 -53 15 -98t44.5 -78t73 -51.5t99.5 -18.5q77 1 137 34.5t102.5 87.5
t67.5 123t32.5 142t-2 144t-36.5 128.5t-71.5 96.5t-106.5 48q-55 0 -103 -29t-87.5 -76t-70 -107t-51.5 -122t-32 -120.5t-11 -103.5zM249 1098q38 -50 71 -69t61 -14.5t50.5 27.5t40.5 56q5 5 14.5 6t19.5 -0.5t17.5 -5.5t8.5 -10v-2q-8 -24 -25 -49.5t-41 -45
t-54.5 -29.5t-65.5 -4t-74 32t-80 79q-2 8 3.5 13.5t14.5 9t19.5 5t19.5 1.5z" />
    <glyph glyph-name="Odieresis" unicode="&#xd6;" 
d="M302 -2q-93 7 -153 50.5t-90.5 109t-35 146.5t13.5 164.5t55 162.5t89 141t117 100t137 38q77 -7 132 -51.5t88 -112.5t45.5 -151.5t3.5 -168.5t-39 -165.5t-80 -141t-121 -94.5t-162 -27zM79 298q0 -53 15 -98t44.5 -78t73 -51.5t99.5 -18.5q77 1 137 34.5t102.5 87.5
t67.5 123t32.5 142t-2 144t-36.5 128.5t-71.5 96.5t-106.5 48q-55 0 -103 -29t-87.5 -76t-70 -107t-51.5 -122t-32 -120.5t-11 -103.5zM282 995q-13 -4 -23.5 3.5t-15 20t-1 27t18.5 23.5q21 17 34.5 8.5t17.5 -25.5t-3 -35.5t-28 -21.5zM445 991q-13 -4 -23.5 3.5t-15 20
t-1 27t18.5 23.5q21 17 34.5 8.5t17.5 -25.5t-3 -35.5t-28 -21.5z" />
    <glyph glyph-name="Ograve" unicode="&#xd2;" 
d="M302 -2q-93 7 -153 50.5t-90.5 109t-35 146.5t13.5 164.5t55 162.5t89 141t117 100t137 38q77 -7 132 -51.5t88 -112.5t45.5 -151.5t3.5 -168.5t-39 -165.5t-80 -141t-121 -94.5t-162 -27zM79 298q0 -53 15 -98t44.5 -78t73 -51.5t99.5 -18.5q77 1 137 34.5t102.5 87.5
t67.5 123t32.5 142t-2 144t-36.5 128.5t-71.5 96.5t-106.5 48q-55 0 -103 -29t-87.5 -76t-70 -107t-51.5 -122t-32 -120.5t-11 -103.5zM363 1073q0 10 7.5 22.5t20.5 10.5q27 -28 50 -55.5t31 -59.5q0 -12 -7 -22t-21 -10q-5 10 -10 11.5t-13 9t-22 27.5t-36 66z" />
    <glyph glyph-name="Ohungarumlaut" unicode="&#x150;" 
d="M302 -2q-93 7 -153 50.5t-90.5 109t-35 146.5t13.5 164.5t55 162.5t89 141t117 100t137 38q77 -7 132 -51.5t88 -112.5t45.5 -151.5t3.5 -168.5t-39 -165.5t-80 -141t-121 -94.5t-162 -27zM79 298q0 -53 15 -98t44.5 -78t73 -51.5t99.5 -18.5q77 1 137 34.5t102.5 87.5
t67.5 123t32.5 142t-2 144t-36.5 128.5t-71.5 96.5t-106.5 48q-55 0 -103 -29t-87.5 -76t-70 -107t-51.5 -122t-32 -120.5t-11 -103.5zM409 1061q-27 -45 -43.5 -64t-26 -26.5t-15.5 -9.5t-12 -11q-16 0 -24.5 9.5t-8.5 21.5q9 31 36.5 58t59.5 54q16 2 25 -10t9 -22z
M539 1046q-27 -45 -43.5 -64t-26 -26.5t-15.5 -9.5t-12 -11q-16 0 -24.5 9.5t-8.5 21.5q9 31 36.5 58t59.5 54q16 2 25 -10t9 -22z" />
    <glyph glyph-name="Omacron" unicode="&#x14c;" 
d="M302 -2q-93 7 -153 50.5t-90.5 109t-35 146.5t13.5 164.5t55 162.5t89 141t117 100t137 38q77 -7 132 -51.5t88 -112.5t45.5 -151.5t3.5 -168.5t-39 -165.5t-80 -141t-121 -94.5t-162 -27zM79 298q0 -53 15 -98t44.5 -78t73 -51.5t99.5 -18.5q77 1 137 34.5t102.5 87.5
t67.5 123t32.5 142t-2 144t-36.5 128.5t-71.5 96.5t-106.5 48q-55 0 -103 -29t-87.5 -76t-70 -107t-51.5 -122t-32 -120.5t-11 -103.5zM302 992q-16 9 -17.5 24t9.5 29h62.5t54 -1t55 -2.5t66.5 -5.5q17 -8 18.5 -23t-9.5 -30q-34 0 -61 0.5t-53.5 1.5t-56 3t-68.5 4z" />
    <glyph glyph-name="Oslashacute" unicode="&#x1fe;" 
d="M302 -2q-93 7 -153 50.5t-90.5 109t-35 146.5t13.5 164.5t55 162.5t89 141t117 100t137 38q77 -7 132 -51.5t88 -112.5t45.5 -151.5t3.5 -168.5t-39 -165.5t-80 -141t-121 -94.5t-162 -27zM79 298q0 -53 15 -98t44.5 -78t73 -51.5t99.5 -18.5q77 1 137 34.5t102.5 87.5
t67.5 123t32.5 142t-2 144t-36.5 128.5t-71.5 96.5t-106.5 48q-55 0 -103 -29t-87.5 -76t-70 -107t-51.5 -122t-32 -120.5t-11 -103.5zM210 9q0 -5 -7.5 -7.5t-16 -0.5t-15.5 10t-5 25l332 861q12 12 23 12t19.5 -6t13 -16t3.5 -19l-347 -859v0zM425 1066q-27 -45 -43.5 -64
t-26 -26.5t-15.5 -9.5t-12 -11q-16 0 -24.5 9.5t-8.5 21.5q9 31 36.5 58t59.5 54q16 2 25 -10t9 -22z" />
    <glyph glyph-name="Oslash" unicode="&#xd8;" 
d="M302 -2q-93 7 -153 50.5t-90.5 109t-35 146.5t13.5 164.5t55 162.5t89 141t117 100t137 38q77 -7 132 -51.5t88 -112.5t45.5 -151.5t3.5 -168.5t-39 -165.5t-80 -141t-121 -94.5t-162 -27zM79 298q0 -53 15 -98t44.5 -78t73 -51.5t99.5 -18.5q77 1 137 34.5t102.5 87.5
t67.5 123t32.5 142t-2 144t-36.5 128.5t-71.5 96.5t-106.5 48q-55 0 -103 -29t-87.5 -76t-70 -107t-51.5 -122t-32 -120.5t-11 -103.5zM210 9q0 -5 -7.5 -7.5t-16 -0.5t-15.5 10t-5 25l332 861q12 12 23 12t19.5 -6t13 -16t3.5 -19l-347 -859v0z" />
    <glyph glyph-name="Otilde" unicode="&#xd5;" 
d="M302 -2q-93 7 -153 50.5t-90.5 109t-35 146.5t13.5 164.5t55 162.5t89 141t117 100t137 38q77 -7 132 -51.5t88 -112.5t45.5 -151.5t3.5 -168.5t-39 -165.5t-80 -141t-121 -94.5t-162 -27zM79 298q0 -53 15 -98t44.5 -78t73 -51.5t99.5 -18.5q77 1 137 34.5t102.5 87.5
t67.5 123t32.5 142t-2 144t-36.5 128.5t-71.5 96.5t-106.5 48q-55 0 -103 -29t-87.5 -76t-70 -107t-51.5 -122t-32 -120.5t-11 -103.5zM382 1003q-11 31 -25 47t-29 15.5t-29 -19t-23 -55.5q1 -6 -3.5 -12t-12.5 -8.5t-17.5 0t-18.5 14.5q-3 33 7 60.5t28 46t41.5 27.5t47 4
t44.5 -25t35 -58q16 -31 35 -32t35 12t26.5 31t10.5 26q5 10 15.5 14.5t20 2t15.5 -12.5t2 -28q-13 -40 -44 -65t-64 -32.5t-61.5 3.5t-35.5 44z" />
    <glyph glyph-name="OE" unicode="&#x152;" horiz-adv-x="1318" 
d="M302 -2q-93 7 -153 50.5t-90.5 109t-35 146.5t13.5 164.5t55 162.5t89 141t117 100t137 38q77 -7 132 -51.5t88 -112.5t45.5 -151.5t3.5 -168.5t-39 -165.5t-80 -141t-121 -94.5t-162 -27zM79 298q0 -53 15 -98t44.5 -78t73 -51.5t99.5 -18.5q77 1 137 34.5t102.5 87.5
t67.5 123t32.5 142t-2 144t-36.5 128.5t-71.5 96.5t-106.5 48q-55 0 -103 -29t-87.5 -76t-70 -107t-51.5 -122t-32 -120.5t-11 -103.5zM914 -33q-84 -20 -146.5 0t-101.5 64t-54.5 105t-6.5 123t43 118t94 91q-35 58 -37 118t21 114t66.5 97.5t98 67.5t116.5 24.5t123 -31.5
q4 0 10.5 7.5t13.5 16.5t14 15.5t12 5.5q21 -6 24.5 -19.5t-1.5 -28.5t-12.5 -29.5t-8.5 -22.5q23 -26 37 -64.5t11 -75t-26 -63t-74 -28.5q-20 5 -39.5 21t-28.5 44t-3 67.5t35 90.5q-32 23 -68 27.5t-72 -5t-68.5 -31.5t-57.5 -51t-40 -64t-15 -71q0 -56 15.5 -86
t39 -43.5t51 -15.5t51 -2.5t39 -4t15.5 -20.5q-10 -31 -32.5 -40.5t-50.5 -8t-56.5 10.5t-49.5 16q-59 -29 -90.5 -72t-38.5 -90t9 -91.5t51 -77t88 -46.5t121 0q67 12 130 41t115.5 62t91 63t56.5 43q11 3 20.5 3.5t15 -3.5t6 -13.5t-5.5 -26.5q-9 -25 -40.5 -52
t-75.5 -53.5t-94 -50t-97 -41t-85.5 -27t-57.5 -7.5zM1138 742q-8 -9 -17 -26.5t-12 -35.5t3 -32t27 -15q19 1 28 17.5t8.5 36.5t-9 36.5t-23.5 18.5h-5z" />
    <glyph glyph-name="Racute" unicode="&#x154;" 
d="M74 4q-8 0 -16.5 1t-15.5 3.5t-11.5 7t-3.5 11.5q42 117 75 203.5t58 149t42.5 104.5t30 69.5t20 43.5t12 26.5t7 19t3.5 20.5q-46 -3 -87.5 13t-69.5 41.5t-39 55.5t4 54q24 0 41 -15.5t35 -34t40.5 -34t58.5 -15.5q36 24 58.5 52t46.5 53t57 44.5t90 27.5
q67 5 107.5 -19t58.5 -65t14 -94t-26 -106.5t-60.5 -101t-90.5 -78.5q-5 -32 -14.5 -70.5t-18.5 -78.5t-14.5 -78t-1.5 -69.5t19.5 -54t48.5 -29.5q24 -4 49 8.5t50 34.5t47.5 49.5t41 51.5t30.5 41.5t16 19.5q9 0 16.5 3t13 3t8.5 -6t3 -24q-74 -124 -149 -188t-136 -54
q-50 14 -75 39.5t-34 57.5t-5.5 70.5t11 78.5t15.5 80.5t8 78.5q-70 -34 -119.5 -34.5t-76.5 38.5zM416 454q-11 22 -30 33t-39.5 10.5t-40 -14.5t-31.5 -41q8 0 30 -2t46 -2.5t43 2.5t22 14zM287 519q28 17 53.5 18.5t49 -5.5t45 -18.5t41.5 -20.5q40 13 70.5 46t50 74
t26 85t-2.5 79.5t-34 56.5t-69 17q-35 0 -64.5 -17.5t-53.5 -45.5t-43 -64t-33 -73t-23 -71.5t-13 -60.5zM536 1078q-27 -45 -43.5 -64t-26 -26.5t-15.5 -9.5t-12 -11q-16 0 -24.5 9.5t-8.5 21.5q9 31 36.5 58t59.5 54q16 2 25 -10t9 -22z" />
    <glyph glyph-name="Rcommaaccent" unicode="&#x156;" 
d="M74 4q-8 0 -16.5 1t-15.5 3.5t-11.5 7t-3.5 11.5q42 117 75 203.5t58 149t42.5 104.5t30 69.5t20 43.5t12 26.5t7 19t3.5 20.5q-46 -3 -87.5 13t-69.5 41.5t-39 55.5t4 54q24 0 41 -15.5t35 -34t40.5 -34t58.5 -15.5q36 24 58.5 52t46.5 53t57 44.5t90 27.5
q67 5 107.5 -19t58.5 -65t14 -94t-26 -106.5t-60.5 -101t-90.5 -78.5q-5 -32 -14.5 -70.5t-18.5 -78.5t-14.5 -78t-1.5 -69.5t19.5 -54t48.5 -29.5q24 -4 49 8.5t50 34.5t47.5 49.5t41 51.5t30.5 41.5t16 19.5q9 0 16.5 3t13 3t8.5 -6t3 -24q-74 -124 -149 -188t-136 -54
q-50 14 -75 39.5t-34 57.5t-5.5 70.5t11 78.5t15.5 80.5t8 78.5q-70 -34 -119.5 -34.5t-76.5 38.5zM416 454q-11 22 -30 33t-39.5 10.5t-40 -14.5t-31.5 -41q8 0 30 -2t46 -2.5t43 2.5t22 14zM287 519q28 17 53.5 18.5t49 -5.5t45 -18.5t41.5 -20.5q40 13 70.5 46t50 74
t26 85t-2.5 79.5t-34 56.5t-69 17q-35 0 -64.5 -17.5t-53.5 -45.5t-43 -64t-33 -73t-23 -71.5t-13 -60.5zM303 -263q6 23 14 46.5t13.5 47.5t5.5 49t-10 50q0 16 14.5 18.5t26.5 2.5q12 -16 17.5 -41t4.5 -52.5t-8 -53.5t-18 -44.5t-26.5 -25.5t-33.5 3z" />
    <glyph glyph-name="Rcaron" unicode="&#x158;" 
d="M74 4q-8 0 -16.5 1t-15.5 3.5t-11.5 7t-3.5 11.5q42 117 75 203.5t58 149t42.5 104.5t30 69.5t20 43.5t12 26.5t7 19t3.5 20.5q-46 -3 -87.5 13t-69.5 41.5t-39 55.5t4 54q24 0 41 -15.5t35 -34t40.5 -34t58.5 -15.5q36 24 58.5 52t46.5 53t57 44.5t90 27.5
q67 5 107.5 -19t58.5 -65t14 -94t-26 -106.5t-60.5 -101t-90.5 -78.5q-5 -32 -14.5 -70.5t-18.5 -78.5t-14.5 -78t-1.5 -69.5t19.5 -54t48.5 -29.5q24 -4 49 8.5t50 34.5t47.5 49.5t41 51.5t30.5 41.5t16 19.5q9 0 16.5 3t13 3t8.5 -6t3 -24q-74 -124 -149 -188t-136 -54
q-50 14 -75 39.5t-34 57.5t-5.5 70.5t11 78.5t15.5 80.5t8 78.5q-70 -34 -119.5 -34.5t-76.5 38.5zM416 454q-11 22 -30 33t-39.5 10.5t-40 -14.5t-31.5 -41q8 0 30 -2t46 -2.5t43 2.5t22 14zM287 519q28 17 53.5 18.5t49 -5.5t45 -18.5t41.5 -20.5q40 13 70.5 46t50 74
t26 85t-2.5 79.5t-34 56.5t-69 17q-35 0 -64.5 -17.5t-53.5 -45.5t-43 -64t-33 -73t-23 -71.5t-13 -60.5zM548 1015q1 0 2 -2.5t7 2.5t20 22t41 57q4 5 13 6.5t18 0t16 -5.5t8 -10v-3q-6 -18 -17.5 -32.5t-24 -28l-25 -27t-20.5 -28.5q-14 -14 -26.5 -10.5t-25.5 11.5
l-105 115q-2 17 7 20.5t24 3.5z" />
    <glyph glyph-name="Sacute" unicode="&#x15a;" horiz-adv-x="739" 
d="M4 15q0 14 23 20.5t56 15.5t70.5 25.5t66.5 49.5q0 22 -22 53.5t-49 69t-49 78t-22 80.5q0 15 10 24t25 7q43 -38 70 -58.5t48 -31t42.5 -15t54.5 -10.5q12 -3 16 -7.5t2 -9.5t-7.5 -10t-11.5 -9q-14 -7 -36 -2t-47 15t-49 21.5t-40 18.5q20 -46 44.5 -92t64.5 -77
q34 33 68 73.5t69.5 86t75 94t85.5 96.5q-37 23 -57.5 60t-26.5 79t2.5 85t29 77t52.5 54.5t74 19.5q25 -7 37 -26.5t14.5 -47.5t-2.5 -63t-13.5 -73.5t-19.5 -78.5t-20 -77q49 -72 69 -141t17.5 -130.5t-24.5 -113.5t-57.5 -89.5t-80.5 -59t-94 -21.5t-98.5 23.5
t-93.5 75.5q-28 -2 -55 -20t-56 -37t-62 -31t-73 -2q-13 5 -16.5 12.5t-3.5 18.5zM303 127q44 -58 88.5 -81t85 -20t76 28t61.5 63.5t40 86.5t12.5 96t-20.5 93t-60 78q-8 -11 -30 -38t-50.5 -61.5t-60.5 -73t-61 -73t-51 -61t-30 -37.5zM606 835q-23 -6 -40 -25t-27 -44.5
t-12.5 -55t3 -56.5t19.5 -49t37 -32q22 56 38 104.5t20.5 84t-4 55t-34.5 18.5zM676 1045q-27 -45 -43.5 -64t-26 -26.5t-15.5 -9.5t-12 -11q-16 0 -24.5 9.5t-8.5 21.5q9 31 36.5 58t59.5 54q16 2 25 -10t9 -22z" />
    <glyph glyph-name="Scaron" unicode="&#x160;" horiz-adv-x="739" 
d="M4 15q0 14 23 20.5t56 15.5t70.5 25.5t66.5 49.5q0 22 -22 53.5t-49 69t-49 78t-22 80.5q0 15 10 24t25 7q43 -38 70 -58.5t48 -31t42.5 -15t54.5 -10.5q12 -3 16 -7.5t2 -9.5t-7.5 -10t-11.5 -9q-14 -7 -36 -2t-47 15t-49 21.5t-40 18.5q20 -46 44.5 -92t64.5 -77
q34 33 68 73.5t69.5 86t75 94t85.5 96.5q-37 23 -57.5 60t-26.5 79t2.5 85t29 77t52.5 54.5t74 19.5q25 -7 37 -26.5t14.5 -47.5t-2.5 -63t-13.5 -73.5t-19.5 -78.5t-20 -77q49 -72 69 -141t17.5 -130.5t-24.5 -113.5t-57.5 -89.5t-80.5 -59t-94 -21.5t-98.5 23.5
t-93.5 75.5q-28 -2 -55 -20t-56 -37t-62 -31t-73 -2q-13 5 -16.5 12.5t-3.5 18.5zM303 127q44 -58 88.5 -81t85 -20t76 28t61.5 63.5t40 86.5t12.5 96t-20.5 93t-60 78q-8 -11 -30 -38t-50.5 -61.5t-60.5 -73t-61 -73t-51 -61t-30 -37.5zM606 835q-23 -6 -40 -25t-27 -44.5
t-12.5 -55t3 -56.5t19.5 -49t37 -32q22 56 38 104.5t20.5 84t-4 55t-34.5 18.5zM610 994q1 0 2 -2.5t7 2.5t20 22t41 57q4 5 13 6.5t18 0t16 -5.5t8 -10v-3q-6 -18 -17.5 -32.5t-24 -28l-25 -27t-20.5 -28.5q-14 -14 -26.5 -10.5t-25.5 11.5l-105 115q-2 17 7 20.5t24 3.5z
" />
    <glyph glyph-name="Scedilla" unicode="&#x15e;" horiz-adv-x="739" 
d="M4 15q0 14 23 20.5t56 15.5t70.5 25.5t66.5 49.5q0 22 -22 53.5t-49 69t-49 78t-22 80.5q0 15 10 24t25 7q43 -38 70 -58.5t48 -31t42.5 -15t54.5 -10.5q12 -3 16 -7.5t2 -9.5t-7.5 -10t-11.5 -9q-14 -7 -36 -2t-47 15t-49 21.5t-40 18.5q20 -46 44.5 -92t64.5 -77
q34 33 68 73.5t69.5 86t75 94t85.5 96.5q-37 23 -57.5 60t-26.5 79t2.5 85t29 77t52.5 54.5t74 19.5q25 -7 37 -26.5t14.5 -47.5t-2.5 -63t-13.5 -73.5t-19.5 -78.5t-20 -77q49 -72 69 -141t17.5 -130.5t-24.5 -113.5t-57.5 -89.5t-80.5 -59t-94 -21.5t-98.5 23.5
t-93.5 75.5q-28 -2 -55 -20t-56 -37t-62 -31t-73 -2q-13 5 -16.5 12.5t-3.5 18.5zM303 127q44 -58 88.5 -81t85 -20t76 28t61.5 63.5t40 86.5t12.5 96t-20.5 93t-60 78q-8 -11 -30 -38t-50.5 -61.5t-60.5 -73t-61 -73t-51 -61t-30 -37.5zM606 835q-23 -6 -40 -25t-27 -44.5
t-12.5 -55t3 -56.5t19.5 -49t37 -32q22 56 38 104.5t20.5 84t-4 55t-34.5 18.5zM439 -276q-23 3 -31.5 8t-8.5 11.5t7.5 13t17.5 11.5q47 -5 76.5 1.5t42.5 19t11 28t-16.5 30t-40.5 25t-61 12.5q-3 -3 -3 13t1.5 37.5t4.5 42.5t5 28q24 13 34.5 8.5t13.5 -18.5t0.5 -33.5
t-5.5 -37.5q58 -20 87 -53t25 -65t-43 -56.5t-117 -25.5z" />
    <glyph glyph-name="Scircumflex" unicode="&#x15c;" horiz-adv-x="739" 
d="M4 15q0 14 23 20.5t56 15.5t70.5 25.5t66.5 49.5q0 22 -22 53.5t-49 69t-49 78t-22 80.5q0 15 10 24t25 7q43 -38 70 -58.5t48 -31t42.5 -15t54.5 -10.5q12 -3 16 -7.5t2 -9.5t-7.5 -10t-11.5 -9q-14 -7 -36 -2t-47 15t-49 21.5t-40 18.5q20 -46 44.5 -92t64.5 -77
q34 33 68 73.5t69.5 86t75 94t85.5 96.5q-37 23 -57.5 60t-26.5 79t2.5 85t29 77t52.5 54.5t74 19.5q25 -7 37 -26.5t14.5 -47.5t-2.5 -63t-13.5 -73.5t-19.5 -78.5t-20 -77q49 -72 69 -141t17.5 -130.5t-24.5 -113.5t-57.5 -89.5t-80.5 -59t-94 -21.5t-98.5 23.5
t-93.5 75.5q-28 -2 -55 -20t-56 -37t-62 -31t-73 -2q-13 5 -16.5 12.5t-3.5 18.5zM303 127q44 -58 88.5 -81t85 -20t76 28t61.5 63.5t40 86.5t12.5 96t-20.5 93t-60 78q-8 -11 -30 -38t-50.5 -61.5t-60.5 -73t-61 -73t-51 -61t-30 -37.5zM606 835q-23 -6 -40 -25t-27 -44.5
t-12.5 -55t3 -56.5t19.5 -49t37 -32q22 56 38 104.5t20.5 84t-4 55t-34.5 18.5zM522 928q-9 0 -16.5 0.5t-12 4t-7 10.5t-0.5 20l110 131q31 24 61 -18l90 -119v-4q-1 -9 -9 -15t-18.5 -8.5t-20.5 -0.5t-15 10l-72 84z" />
    <glyph glyph-name="Scommaaccent" unicode="&#x218;" horiz-adv-x="739" 
d="M4 15q0 14 23 20.5t56 15.5t70.5 25.5t66.5 49.5q0 22 -22 53.5t-49 69t-49 78t-22 80.5q0 15 10 24t25 7q43 -38 70 -58.5t48 -31t42.5 -15t54.5 -10.5q12 -3 16 -7.5t2 -9.5t-7.5 -10t-11.5 -9q-14 -7 -36 -2t-47 15t-49 21.5t-40 18.5q20 -46 44.5 -92t64.5 -77
q34 33 68 73.5t69.5 86t75 94t85.5 96.5q-37 23 -57.5 60t-26.5 79t2.5 85t29 77t52.5 54.5t74 19.5q25 -7 37 -26.5t14.5 -47.5t-2.5 -63t-13.5 -73.5t-19.5 -78.5t-20 -77q49 -72 69 -141t17.5 -130.5t-24.5 -113.5t-57.5 -89.5t-80.5 -59t-94 -21.5t-98.5 23.5
t-93.5 75.5q-28 -2 -55 -20t-56 -37t-62 -31t-73 -2q-13 5 -16.5 12.5t-3.5 18.5zM303 127q44 -58 88.5 -81t85 -20t76 28t61.5 63.5t40 86.5t12.5 96t-20.5 93t-60 78q-8 -11 -30 -38t-50.5 -61.5t-60.5 -73t-61 -73t-51 -61t-30 -37.5zM606 835q-23 -6 -40 -25t-27 -44.5
t-12.5 -55t3 -56.5t19.5 -49t37 -32q22 56 38 104.5t20.5 84t-4 55t-34.5 18.5zM415 -274q6 23 14 46.5t13.5 47.5t5.5 49t-10 50q0 16 14.5 18.5t26.5 2.5q12 -16 17.5 -41t4.5 -52.5t-8 -53.5t-18 -44.5t-26.5 -25.5t-33.5 3z" />
    <glyph glyph-name="Tbar" unicode="&#x166;" horiz-adv-x="602" 
d="M4 291q-6 12 -5 25.5t7.5 23t16.5 12.5t22 -5q18 -3 36 -19.5t37.5 -32.5t41 -24.5t45.5 5.5q16 -8 22 -20.5t3.5 -24.5t-13.5 -22t-30 -13q-21 3 -32 9t-21.5 14.5t-25 19.5t-42.5 25q0 -36 23 -75t58 -71t76 -53t76 -21q56 -3 89.5 28.5t52.5 88t27.5 132.5t15 161.5
t14 175t25.5 173.5q-30 -18 -68 -36.5t-79 -32.5t-83 -21.5t-80 -4t-70 20t-53 50.5q-10 7 -11.5 16t3 16.5t14 12.5t20.5 4h2q1 0 1 0.5t1 0.5q28 -43 64 -58t76 -11t81.5 21.5t79.5 38.5t71 41.5t56 29.5t33.5 2.5t3.5 -39.5q-13 -198 -26.5 -337.5t-28.5 -233.5
t-33 -148.5t-39 -83.5t-46.5 -38.5t-55.5 -12.5q-79 -13 -138 5.5t-101.5 59.5t-70 99.5t-42.5 126.5zM390 513q-16 9 -17.5 24t9.5 29h62.5t54 -1t55 -2.5t66.5 -5.5q17 -8 18.5 -23t-9.5 -30q-34 0 -61 0.5t-53.5 1.5t-56 3t-68.5 4z" />
    <glyph glyph-name="Tcaron" unicode="&#x164;" horiz-adv-x="602" 
d="M4 291q-6 12 -5 25.5t7.5 23t16.5 12.5t22 -5q18 -3 36 -19.5t37.5 -32.5t41 -24.5t45.5 5.5q16 -8 22 -20.5t3.5 -24.5t-13.5 -22t-30 -13q-21 3 -32 9t-21.5 14.5t-25 19.5t-42.5 25q0 -36 23 -75t58 -71t76 -53t76 -21q56 -3 89.5 28.5t52.5 88t27.5 132.5t15 161.5
t14 175t25.5 173.5q-30 -18 -68 -36.5t-79 -32.5t-83 -21.5t-80 -4t-70 20t-53 50.5q-10 7 -11.5 16t3 16.5t14 12.5t20.5 4h2q1 0 1 0.5t1 0.5q28 -43 64 -58t76 -11t81.5 21.5t79.5 38.5t71 41.5t56 29.5t33.5 2.5t3.5 -39.5q-13 -198 -26.5 -337.5t-28.5 -233.5
t-33 -148.5t-39 -83.5t-46.5 -38.5t-55.5 -12.5q-79 -13 -138 5.5t-101.5 59.5t-70 99.5t-42.5 126.5zM364 1002q1 0 2 -2.5t7 2.5t20 22t41 57q4 5 13 6.5t18 0t16 -5.5t8 -10v-3q-6 -18 -17.5 -32.5t-24 -28l-25 -27t-20.5 -28.5q-14 -14 -26.5 -10.5t-25.5 11.5l-105 115
q-2 17 7 20.5t24 3.5z" />
    <glyph glyph-name="Tcommaaccent" unicode="&#x162;" horiz-adv-x="602" 
d="M4 291q-6 12 -5 25.5t7.5 23t16.5 12.5t22 -5q18 -3 36 -19.5t37.5 -32.5t41 -24.5t45.5 5.5q16 -8 22 -20.5t3.5 -24.5t-13.5 -22t-30 -13q-21 3 -32 9t-21.5 14.5t-25 19.5t-42.5 25q0 -36 23 -75t58 -71t76 -53t76 -21q56 -3 89.5 28.5t52.5 88t27.5 132.5t15 161.5
t14 175t25.5 173.5q-30 -18 -68 -36.5t-79 -32.5t-83 -21.5t-80 -4t-70 20t-53 50.5q-10 7 -11.5 16t3 16.5t14 12.5t20.5 4h2q1 0 1 0.5t1 0.5q28 -43 64 -58t76 -11t81.5 21.5t79.5 38.5t71 41.5t56 29.5t33.5 2.5t3.5 -39.5q-13 -198 -26.5 -337.5t-28.5 -233.5
t-33 -148.5t-39 -83.5t-46.5 -38.5t-55.5 -12.5q-79 -13 -138 5.5t-101.5 59.5t-70 99.5t-42.5 126.5zM244 -263q6 23 14 46.5t13.5 47.5t5.5 49t-10 50q0 16 14.5 18.5t26.5 2.5q12 -16 17.5 -41t4.5 -52.5t-8 -53.5t-18 -44.5t-26.5 -25.5t-33.5 3z" />
    <glyph glyph-name="Uacute" unicode="&#xda;" horiz-adv-x="688" 
d="M481 -1q-33 0 -53 12.5t-30.5 33t-13 46.5t-0.5 53t6.5 53.5t9.5 47.5v4q-58 -82 -99.5 -128.5t-71.5 -70t-50.5 -30t-35.5 -8.5q-58 -12 -87.5 15t-38.5 79t-1.5 123.5t25 149.5t39.5 156t42 144t33.5 113t13.5 63q3 27 16 43t25.5 17.5t19.5 -12t-1 -43.5
q-14 -54 -32.5 -117.5t-38 -131t-37.5 -135.5t-31 -130t-19 -115.5t-1.5 -91.5t22 -58t51.5 -15q45 25 84 59.5t75 82.5t71 111t73.5 144t82.5 182.5t97 226.5q7 17 22.5 30.5t29 17t20 -7t-3.5 -40.5q-60 -151 -104 -266t-74 -200t-48 -143t-25.5 -96t-6 -59t10 -31
t22.5 -12.5t32 -3.5q30 1 61.5 25t58.5 56t48 65t31 51q8 6 16 9t14 3t8 -5t-1 -15q5 -20 -6 -47t-32.5 -56.5t-50.5 -57.5t-59.5 -49t-59 -33t-48.5 -8zM532 1034q-27 -45 -43.5 -64t-26 -26.5t-15.5 -9.5t-12 -11q-16 0 -24.5 9.5t-8.5 21.5q9 31 36.5 58t59.5 54
q16 2 25 -10t9 -22z" />
    <glyph glyph-name="Ubreve" unicode="&#x16c;" horiz-adv-x="688" 
d="M481 -1q-33 0 -53 12.5t-30.5 33t-13 46.5t-0.5 53t6.5 53.5t9.5 47.5v4q-58 -82 -99.5 -128.5t-71.5 -70t-50.5 -30t-35.5 -8.5q-58 -12 -87.5 15t-38.5 79t-1.5 123.5t25 149.5t39.5 156t42 144t33.5 113t13.5 63q3 27 16 43t25.5 17.5t19.5 -12t-1 -43.5
q-14 -54 -32.5 -117.5t-38 -131t-37.5 -135.5t-31 -130t-19 -115.5t-1.5 -91.5t22 -58t51.5 -15q45 25 84 59.5t75 82.5t71 111t73.5 144t82.5 182.5t97 226.5q7 17 22.5 30.5t29 17t20 -7t-3.5 -40.5q-60 -151 -104 -266t-74 -200t-48 -143t-25.5 -96t-6 -59t10 -31
t22.5 -12.5t32 -3.5q30 1 61.5 25t58.5 56t48 65t31 51q8 6 16 9t14 3t8 -5t-1 -15q5 -20 -6 -47t-32.5 -56.5t-50.5 -57.5t-59.5 -49t-59 -33t-48.5 -8zM340 1102q38 -50 71 -69t61 -14.5t50.5 27.5t40.5 56q5 5 14.5 6t19.5 -0.5t17.5 -5.5t8.5 -10v-2q-8 -24 -25 -49.5
t-41 -45t-54.5 -29.5t-65.5 -4t-74 32t-80 79q-2 8 3.5 13.5t14.5 9t19.5 5t19.5 1.5z" />
    <glyph glyph-name="Ucircumflex" unicode="&#xdb;" horiz-adv-x="688" 
d="M481 -1q-33 0 -53 12.5t-30.5 33t-13 46.5t-0.5 53t6.5 53.5t9.5 47.5v4q-58 -82 -99.5 -128.5t-71.5 -70t-50.5 -30t-35.5 -8.5q-58 -12 -87.5 15t-38.5 79t-1.5 123.5t25 149.5t39.5 156t42 144t33.5 113t13.5 63q3 27 16 43t25.5 17.5t19.5 -12t-1 -43.5
q-14 -54 -32.5 -117.5t-38 -131t-37.5 -135.5t-31 -130t-19 -115.5t-1.5 -91.5t22 -58t51.5 -15q45 25 84 59.5t75 82.5t71 111t73.5 144t82.5 182.5t97 226.5q7 17 22.5 30.5t29 17t20 -7t-3.5 -40.5q-60 -151 -104 -266t-74 -200t-48 -143t-25.5 -96t-6 -59t10 -31
t22.5 -12.5t32 -3.5q30 1 61.5 25t58.5 56t48 65t31 51q8 6 16 9t14 3t8 -5t-1 -15q5 -20 -6 -47t-32.5 -56.5t-50.5 -57.5t-59.5 -49t-59 -33t-48.5 -8zM378 916q-9 0 -16.5 0.5t-12 4t-7 10.5t-0.5 20l110 131q31 24 61 -18l90 -119v-4q-1 -9 -9 -15t-18.5 -8.5
t-20.5 -0.5t-15 10l-72 84z" />
    <glyph glyph-name="Udieresis" unicode="&#xdc;" horiz-adv-x="688" 
d="M481 -1q-33 0 -53 12.5t-30.5 33t-13 46.5t-0.5 53t6.5 53.5t9.5 47.5v4q-58 -82 -99.5 -128.5t-71.5 -70t-50.5 -30t-35.5 -8.5q-58 -12 -87.5 15t-38.5 79t-1.5 123.5t25 149.5t39.5 156t42 144t33.5 113t13.5 63q3 27 16 43t25.5 17.5t19.5 -12t-1 -43.5
q-14 -54 -32.5 -117.5t-38 -131t-37.5 -135.5t-31 -130t-19 -115.5t-1.5 -91.5t22 -58t51.5 -15q45 25 84 59.5t75 82.5t71 111t73.5 144t82.5 182.5t97 226.5q7 17 22.5 30.5t29 17t20 -7t-3.5 -40.5q-60 -151 -104 -266t-74 -200t-48 -143t-25.5 -96t-6 -59t10 -31
t22.5 -12.5t32 -3.5q30 1 61.5 25t58.5 56t48 65t31 51q8 6 16 9t14 3t8 -5t-1 -15q5 -20 -6 -47t-32.5 -56.5t-50.5 -57.5t-59.5 -49t-59 -33t-48.5 -8zM379 954q-13 -4 -23.5 3.5t-15 20t-1 27t18.5 23.5q21 17 34.5 8.5t17.5 -25.5t-3 -35.5t-28 -21.5zM542 950
q-13 -4 -23.5 3.5t-15 20t-1 27t18.5 23.5q21 17 34.5 8.5t17.5 -25.5t-3 -35.5t-28 -21.5z" />
    <glyph glyph-name="Ugrave" unicode="&#xd9;" horiz-adv-x="688" 
d="M481 -1q-33 0 -53 12.5t-30.5 33t-13 46.5t-0.5 53t6.5 53.5t9.5 47.5v4q-58 -82 -99.5 -128.5t-71.5 -70t-50.5 -30t-35.5 -8.5q-58 -12 -87.5 15t-38.5 79t-1.5 123.5t25 149.5t39.5 156t42 144t33.5 113t13.5 63q3 27 16 43t25.5 17.5t19.5 -12t-1 -43.5
q-14 -54 -32.5 -117.5t-38 -131t-37.5 -135.5t-31 -130t-19 -115.5t-1.5 -91.5t22 -58t51.5 -15q45 25 84 59.5t75 82.5t71 111t73.5 144t82.5 182.5t97 226.5q7 17 22.5 30.5t29 17t20 -7t-3.5 -40.5q-60 -151 -104 -266t-74 -200t-48 -143t-25.5 -96t-6 -59t10 -31
t22.5 -12.5t32 -3.5q30 1 61.5 25t58.5 56t48 65t31 51q8 6 16 9t14 3t8 -5t-1 -15q5 -20 -6 -47t-32.5 -56.5t-50.5 -57.5t-59.5 -49t-59 -33t-48.5 -8zM342 1024q0 10 7.5 22.5t20.5 10.5q27 -28 50 -55.5t31 -59.5q0 -12 -7 -22t-21 -10q-5 10 -10 11.5t-13 9t-22 27.5
t-36 66z" />
    <glyph glyph-name="Uogonek" unicode="&#x172;" horiz-adv-x="688" 
d="M481 -1q-33 0 -53 12.5t-30.5 33t-13 46.5t-0.5 53t6.5 53.5t9.5 47.5v4q-58 -82 -99.5 -128.5t-71.5 -70t-50.5 -30t-35.5 -8.5q-58 -12 -87.5 15t-38.5 79t-1.5 123.5t25 149.5t39.5 156t42 144t33.5 113t13.5 63q3 27 16 43t25.5 17.5t19.5 -12t-1 -43.5
q-14 -54 -32.5 -117.5t-38 -131t-37.5 -135.5t-31 -130t-19 -115.5t-1.5 -91.5t22 -58t51.5 -15q45 25 84 59.5t75 82.5t71 111t73.5 144t82.5 182.5t97 226.5q7 17 22.5 30.5t29 17t20 -7t-3.5 -40.5q-60 -151 -104 -266t-74 -200t-48 -143t-25.5 -96t-6 -59t10 -31
t22.5 -12.5t32 -3.5q30 1 61.5 25t58.5 56t48 65t31 51q8 6 16 9t14 3t8 -5t-1 -15q5 -20 -6 -47t-32.5 -56.5t-50.5 -57.5t-59.5 -49t-59 -33t-48.5 -8zM550 -170q-38 -13 -62 -3t-35 33t-10.5 54.5t10.5 62.5t29 56.5t45 36.5l15 -37q-23 -18 -35 -49t-12 -58.5t12 -43.5
t35 -4h1z" />
    <glyph glyph-name="Uhungarumlaut" unicode="&#x170;" horiz-adv-x="688" 
d="M481 -1q-33 0 -53 12.5t-30.5 33t-13 46.5t-0.5 53t6.5 53.5t9.5 47.5v4q-58 -82 -99.5 -128.5t-71.5 -70t-50.5 -30t-35.5 -8.5q-58 -12 -87.5 15t-38.5 79t-1.5 123.5t25 149.5t39.5 156t42 144t33.5 113t13.5 63q3 27 16 43t25.5 17.5t19.5 -12t-1 -43.5
q-14 -54 -32.5 -117.5t-38 -131t-37.5 -135.5t-31 -130t-19 -115.5t-1.5 -91.5t22 -58t51.5 -15q45 25 84 59.5t75 82.5t71 111t73.5 144t82.5 182.5t97 226.5q7 17 22.5 30.5t29 17t20 -7t-3.5 -40.5q-60 -151 -104 -266t-74 -200t-48 -143t-25.5 -96t-6 -59t10 -31
t22.5 -12.5t32 -3.5q30 1 61.5 25t58.5 56t48 65t31 51q8 6 16 9t14 3t8 -5t-1 -15q5 -20 -6 -47t-32.5 -56.5t-50.5 -57.5t-59.5 -49t-59 -33t-48.5 -8zM467 1065q-27 -45 -43.5 -64t-26 -26.5t-15.5 -9.5t-12 -11q-16 0 -24.5 9.5t-8.5 21.5q9 31 36.5 58t59.5 54
q16 2 25 -10t9 -22zM597 1050q-27 -45 -43.5 -64t-26 -26.5t-15.5 -9.5t-12 -11q-16 0 -24.5 9.5t-8.5 21.5q9 31 36.5 58t59.5 54q16 2 25 -10t9 -22z" />
    <glyph glyph-name="Umacron" unicode="&#x16a;" horiz-adv-x="688" 
d="M481 -1q-33 0 -53 12.5t-30.5 33t-13 46.5t-0.5 53t6.5 53.5t9.5 47.5v4q-58 -82 -99.5 -128.5t-71.5 -70t-50.5 -30t-35.5 -8.5q-58 -12 -87.5 15t-38.5 79t-1.5 123.5t25 149.5t39.5 156t42 144t33.5 113t13.5 63q3 27 16 43t25.5 17.5t19.5 -12t-1 -43.5
q-14 -54 -32.5 -117.5t-38 -131t-37.5 -135.5t-31 -130t-19 -115.5t-1.5 -91.5t22 -58t51.5 -15q45 25 84 59.5t75 82.5t71 111t73.5 144t82.5 182.5t97 226.5q7 17 22.5 30.5t29 17t20 -7t-3.5 -40.5q-60 -151 -104 -266t-74 -200t-48 -143t-25.5 -96t-6 -59t10 -31
t22.5 -12.5t32 -3.5q30 1 61.5 25t58.5 56t48 65t31 51q8 6 16 9t14 3t8 -5t-1 -15q5 -20 -6 -47t-32.5 -56.5t-50.5 -57.5t-59.5 -49t-59 -33t-48.5 -8zM365 976q-16 9 -17.5 24t9.5 29h62.5t54 -1t55 -2.5t66.5 -5.5q17 -8 18.5 -23t-9.5 -30q-34 0 -61 0.5t-53.5 1.5
t-56 3t-68.5 4z" />
    <glyph glyph-name="Uring" unicode="&#x16e;" horiz-adv-x="688" 
d="M481 -1q-33 0 -53 12.5t-30.5 33t-13 46.5t-0.5 53t6.5 53.5t9.5 47.5v4q-58 -82 -99.5 -128.5t-71.5 -70t-50.5 -30t-35.5 -8.5q-58 -12 -87.5 15t-38.5 79t-1.5 123.5t25 149.5t39.5 156t42 144t33.5 113t13.5 63q3 27 16 43t25.5 17.5t19.5 -12t-1 -43.5
q-14 -54 -32.5 -117.5t-38 -131t-37.5 -135.5t-31 -130t-19 -115.5t-1.5 -91.5t22 -58t51.5 -15q45 25 84 59.5t75 82.5t71 111t73.5 144t82.5 182.5t97 226.5q7 17 22.5 30.5t29 17t20 -7t-3.5 -40.5q-60 -151 -104 -266t-74 -200t-48 -143t-25.5 -96t-6 -59t10 -31
t22.5 -12.5t32 -3.5q30 1 61.5 25t58.5 56t48 65t31 51q8 6 16 9t14 3t8 -5t-1 -15q5 -20 -6 -47t-32.5 -56.5t-50.5 -57.5t-59.5 -49t-59 -33t-48.5 -8zM339 957q-6 38 6.5 64.5t35 42.5t52 21t58 -1.5t52 -24t35.5 -45.5q6 -29 -6 -50t-34 -34.5t-51 -18.5t-57.5 -2
t-53 15t-37.5 33zM528 1011q-24 21 -56.5 24t-57 -6t-34.5 -25.5t11 -34.5l3 -6q12 -7 37.5 -9.5t50 2t40 17.5t6.5 38z" />
    <glyph glyph-name="Utilde" unicode="&#x168;" horiz-adv-x="688" 
d="M481 -1q-33 0 -53 12.5t-30.5 33t-13 46.5t-0.5 53t6.5 53.5t9.5 47.5v4q-58 -82 -99.5 -128.5t-71.5 -70t-50.5 -30t-35.5 -8.5q-58 -12 -87.5 15t-38.5 79t-1.5 123.5t25 149.5t39.5 156t42 144t33.5 113t13.5 63q3 27 16 43t25.5 17.5t19.5 -12t-1 -43.5
q-14 -54 -32.5 -117.5t-38 -131t-37.5 -135.5t-31 -130t-19 -115.5t-1.5 -91.5t22 -58t51.5 -15q45 25 84 59.5t75 82.5t71 111t73.5 144t82.5 182.5t97 226.5q7 17 22.5 30.5t29 17t20 -7t-3.5 -40.5q-60 -151 -104 -266t-74 -200t-48 -143t-25.5 -96t-6 -59t10 -31
t22.5 -12.5t32 -3.5q30 1 61.5 25t58.5 56t48 65t31 51q8 6 16 9t14 3t8 -5t-1 -15q5 -20 -6 -47t-32.5 -56.5t-50.5 -57.5t-59.5 -49t-59 -33t-48.5 -8zM439 975q-11 31 -25 47t-29 15.5t-29 -19t-23 -55.5q1 -6 -3.5 -12t-12.5 -8.5t-17.5 0t-18.5 14.5q-3 33 7 60.5
t28 46t41.5 27.5t47 4t44.5 -25t35 -58q16 -31 35 -32t35 12t26.5 31t10.5 26q5 10 15.5 14.5t20 2t15.5 -12.5t2 -28q-13 -40 -44 -65t-64 -32.5t-61.5 3.5t-35.5 44z" />
    <glyph glyph-name="Wacute" unicode="&#x1e82;" horiz-adv-x="762" 
d="M214 17q-12 -17 -22 -20t-17.5 3.5t-11.5 20.5t-3 32q18 20 34 65.5t30.5 104t27 122t21.5 119.5t14.5 97t7.5 54q0 14 -1 42t-7 56t-20 49t-40 21q-38 2 -64 -17t-45.5 -48t-35.5 -62t-33 -60q-22 -12 -32 -0.5t-1 39.5q8 25 26.5 60t44 66.5t56.5 54t66 22.5
q40 0 67 -20.5t43 -52t23 -68.5t7 -70q0 -3 -0.5 -9t-2 -19t-5 -36t-9.5 -60t-15.5 -90.5t-22.5 -127.5q50 46 88.5 54.5t64 -9t39 -56t13.5 -87.5q56 141 95 240t65 165.5t41.5 105t25 58t15 24.5t12.5 5q15 -72 75 -89.5t149 30.5q12 0 21.5 -6t13 -14t0 -17.5
t-16.5 -16.5q-51 -18 -82 -27.5t-54.5 -8.5t-46.5 12.5t-59 35.5q-11 -14 -21 -32t-21.5 -47t-26.5 -71.5t-37 -106t-51.5 -150.5t-70.5 -205q-10 -28 -18 -44t-16 -22t-17 -3t-20 14q15 127 -2.5 191t-54 64t-85.5 -64t-98 -191zM585 1016q-27 -45 -43.5 -64t-26 -26.5
t-15.5 -9.5t-12 -11q-16 0 -24.5 9.5t-8.5 21.5q9 31 36.5 58t59.5 54q16 2 25 -10t9 -22z" />
    <glyph glyph-name="Wcircumflex" unicode="&#x174;" horiz-adv-x="762" 
d="M214 17q-12 -17 -22 -20t-17.5 3.5t-11.5 20.5t-3 32q18 20 34 65.5t30.5 104t27 122t21.5 119.5t14.5 97t7.5 54q0 14 -1 42t-7 56t-20 49t-40 21q-38 2 -64 -17t-45.5 -48t-35.5 -62t-33 -60q-22 -12 -32 -0.5t-1 39.5q8 25 26.5 60t44 66.5t56.5 54t66 22.5
q40 0 67 -20.5t43 -52t23 -68.5t7 -70q0 -3 -0.5 -9t-2 -19t-5 -36t-9.5 -60t-15.5 -90.5t-22.5 -127.5q50 46 88.5 54.5t64 -9t39 -56t13.5 -87.5q56 141 95 240t65 165.5t41.5 105t25 58t15 24.5t12.5 5q15 -72 75 -89.5t149 30.5q12 0 21.5 -6t13 -14t0 -17.5
t-16.5 -16.5q-51 -18 -82 -27.5t-54.5 -8.5t-46.5 12.5t-59 35.5q-11 -14 -21 -32t-21.5 -47t-26.5 -71.5t-37 -106t-51.5 -150.5t-70.5 -205q-10 -28 -18 -44t-16 -22t-17 -3t-20 14q15 127 -2.5 191t-54 64t-85.5 -64t-98 -191zM451 884q-9 0 -16.5 0.5t-12 4t-7 10.5
t-0.5 20l110 131q31 24 61 -18l90 -119v-4q-1 -9 -9 -15t-18.5 -8.5t-20.5 -0.5t-15 10l-72 84z" />
    <glyph glyph-name="Wdieresis" unicode="&#x1e84;" horiz-adv-x="762" 
d="M214 17q-12 -17 -22 -20t-17.5 3.5t-11.5 20.5t-3 32q18 20 34 65.5t30.5 104t27 122t21.5 119.5t14.5 97t7.5 54q0 14 -1 42t-7 56t-20 49t-40 21q-38 2 -64 -17t-45.5 -48t-35.5 -62t-33 -60q-22 -12 -32 -0.5t-1 39.5q8 25 26.5 60t44 66.5t56.5 54t66 22.5
q40 0 67 -20.5t43 -52t23 -68.5t7 -70q0 -3 -0.5 -9t-2 -19t-5 -36t-9.5 -60t-15.5 -90.5t-22.5 -127.5q50 46 88.5 54.5t64 -9t39 -56t13.5 -87.5q56 141 95 240t65 165.5t41.5 105t25 58t15 24.5t12.5 5q15 -72 75 -89.5t149 30.5q12 0 21.5 -6t13 -14t0 -17.5
t-16.5 -16.5q-51 -18 -82 -27.5t-54.5 -8.5t-46.5 12.5t-59 35.5q-11 -14 -21 -32t-21.5 -47t-26.5 -71.5t-37 -106t-51.5 -150.5t-70.5 -205q-10 -28 -18 -44t-16 -22t-17 -3t-20 14q15 127 -2.5 191t-54 64t-85.5 -64t-98 -191zM437 892q-13 -4 -23.5 3.5t-15 20t-1 27
t18.5 23.5q21 17 34.5 8.5t17.5 -25.5t-3 -35.5t-28 -21.5zM600 888q-13 -4 -23.5 3.5t-15 20t-1 27t18.5 23.5q21 17 34.5 8.5t17.5 -25.5t-3 -35.5t-28 -21.5z" />
    <glyph glyph-name="Wgrave" unicode="&#x1e80;" horiz-adv-x="762" 
d="M214 17q-12 -17 -22 -20t-17.5 3.5t-11.5 20.5t-3 32q18 20 34 65.5t30.5 104t27 122t21.5 119.5t14.5 97t7.5 54q0 14 -1 42t-7 56t-20 49t-40 21q-38 2 -64 -17t-45.5 -48t-35.5 -62t-33 -60q-22 -12 -32 -0.5t-1 39.5q8 25 26.5 60t44 66.5t56.5 54t66 22.5
q40 0 67 -20.5t43 -52t23 -68.5t7 -70q0 -3 -0.5 -9t-2 -19t-5 -36t-9.5 -60t-15.5 -90.5t-22.5 -127.5q50 46 88.5 54.5t64 -9t39 -56t13.5 -87.5q56 141 95 240t65 165.5t41.5 105t25 58t15 24.5t12.5 5q15 -72 75 -89.5t149 30.5q12 0 21.5 -6t13 -14t0 -17.5
t-16.5 -16.5q-51 -18 -82 -27.5t-54.5 -8.5t-46.5 12.5t-59 35.5q-11 -14 -21 -32t-21.5 -47t-26.5 -71.5t-37 -106t-51.5 -150.5t-70.5 -205q-10 -28 -18 -44t-16 -22t-17 -3t-20 14q15 127 -2.5 191t-54 64t-85.5 -64t-98 -191zM437 983q0 10 7.5 22.5t20.5 10.5
q27 -28 50 -55.5t31 -59.5q0 -12 -7 -22t-21 -10q-5 10 -10 11.5t-13 9t-22 27.5t-36 66z" />
    <glyph glyph-name="Yacute" unicode="&#xdd;" horiz-adv-x="733" 
d="M44 -566q0 71 16.5 122t44 89.5t64.5 68.5t79 61.5t85.5 67t85.5 85.5q15 38 22.5 78.5t10.5 81.5t3 82.5v82.5q-14 -21 -37 -51t-50.5 -61.5t-59 -60.5t-63.5 -48.5t-64 -25t-60 9.5q-44 31 -67 96t-30.5 147.5t-3.5 174.5t14.5 177.5t23.5 157t23 112.5q7 22 18.5 25
t20 -5.5t11.5 -24.5t-5 -31q-19 -56 -32.5 -124.5t-21 -141t-8.5 -145t5 -137t19 -116t35 -82t52 -35t70 24t90 95.5t110 181l102 449q6 14 15.5 21.5t18.5 7t15 -9.5t5 -28q-23 -89 -40.5 -185.5t-30 -194.5t-20 -193t-8.5 -179h6q32 10 65.5 38t66 62t61.5 67t52 54
q25 17 35.5 2t5.5 -43q-14 -33 -41.5 -61.5t-61.5 -54t-70.5 -50t-66.5 -49.5t-50.5 -51.5t-22.5 -55.5l-107 -535q-8 -68 -37 -112t-66.5 -63.5t-79 -14.5t-75 34.5t-54.5 82.5t-18 131zM88 -562q-1 -43 11.5 -80t33 -63.5t45 -40.5t49 -11.5t45 23.5t31.5 65l111 499
q-41 -23 -93 -55.5t-100 -79.5t-85.5 -110t-47.5 -147zM431 1005q-27 -45 -43.5 -64t-26 -26.5t-15.5 -9.5t-12 -11q-16 0 -24.5 9.5t-8.5 21.5q9 31 36.5 58t59.5 54q16 2 25 -10t9 -22z" />
    <glyph glyph-name="Ycircumflex" unicode="&#x176;" horiz-adv-x="733" 
d="M44 -566q0 71 16.5 122t44 89.5t64.5 68.5t79 61.5t85.5 67t85.5 85.5q15 38 22.5 78.5t10.5 81.5t3 82.5v82.5q-14 -21 -37 -51t-50.5 -61.5t-59 -60.5t-63.5 -48.5t-64 -25t-60 9.5q-44 31 -67 96t-30.5 147.5t-3.5 174.5t14.5 177.5t23.5 157t23 112.5q7 22 18.5 25
t20 -5.5t11.5 -24.5t-5 -31q-19 -56 -32.5 -124.5t-21 -141t-8.5 -145t5 -137t19 -116t35 -82t52 -35t70 24t90 95.5t110 181l102 449q6 14 15.5 21.5t18.5 7t15 -9.5t5 -28q-23 -89 -40.5 -185.5t-30 -194.5t-20 -193t-8.5 -179h6q32 10 65.5 38t66 62t61.5 67t52 54
q25 17 35.5 2t5.5 -43q-14 -33 -41.5 -61.5t-61.5 -54t-70.5 -50t-66.5 -49.5t-50.5 -51.5t-22.5 -55.5l-107 -535q-8 -68 -37 -112t-66.5 -63.5t-79 -14.5t-75 34.5t-54.5 82.5t-18 131zM88 -562q-1 -43 11.5 -80t33 -63.5t45 -40.5t49 -11.5t45 23.5t31.5 65l111 499
q-41 -23 -93 -55.5t-100 -79.5t-85.5 -110t-47.5 -147zM299 916q-9 0 -16.5 0.5t-12 4t-7 10.5t-0.5 20l110 131q31 24 61 -18l90 -119v-4q-1 -9 -9 -15t-18.5 -8.5t-20.5 -0.5t-15 10l-72 84z" />
    <glyph glyph-name="Ydieresis" unicode="&#x178;" horiz-adv-x="733" 
d="M44 -566q0 71 16.5 122t44 89.5t64.5 68.5t79 61.5t85.5 67t85.5 85.5q15 38 22.5 78.5t10.5 81.5t3 82.5v82.5q-14 -21 -37 -51t-50.5 -61.5t-59 -60.5t-63.5 -48.5t-64 -25t-60 9.5q-44 31 -67 96t-30.5 147.5t-3.5 174.5t14.5 177.5t23.5 157t23 112.5q7 22 18.5 25
t20 -5.5t11.5 -24.5t-5 -31q-19 -56 -32.5 -124.5t-21 -141t-8.5 -145t5 -137t19 -116t35 -82t52 -35t70 24t90 95.5t110 181l102 449q6 14 15.5 21.5t18.5 7t15 -9.5t5 -28q-23 -89 -40.5 -185.5t-30 -194.5t-20 -193t-8.5 -179h6q32 10 65.5 38t66 62t61.5 67t52 54
q25 17 35.5 2t5.5 -43q-14 -33 -41.5 -61.5t-61.5 -54t-70.5 -50t-66.5 -49.5t-50.5 -51.5t-22.5 -55.5l-107 -535q-8 -68 -37 -112t-66.5 -63.5t-79 -14.5t-75 34.5t-54.5 82.5t-18 131zM88 -562q-1 -43 11.5 -80t33 -63.5t45 -40.5t49 -11.5t45 23.5t31.5 65l111 499
q-41 -23 -93 -55.5t-100 -79.5t-85.5 -110t-47.5 -147zM304 917q-13 -4 -23.5 3.5t-15 20t-1 27t18.5 23.5q21 17 34.5 8.5t17.5 -25.5t-3 -35.5t-28 -21.5zM467 913q-13 -4 -23.5 3.5t-15 20t-1 27t18.5 23.5q21 17 34.5 8.5t17.5 -25.5t-3 -35.5t-28 -21.5z" />
    <glyph glyph-name="Ygrave" unicode="&#x1ef2;" horiz-adv-x="733" 
d="M44 -566q0 71 16.5 122t44 89.5t64.5 68.5t79 61.5t85.5 67t85.5 85.5q15 38 22.5 78.5t10.5 81.5t3 82.5v82.5q-14 -21 -37 -51t-50.5 -61.5t-59 -60.5t-63.5 -48.5t-64 -25t-60 9.5q-44 31 -67 96t-30.5 147.5t-3.5 174.5t14.5 177.5t23.5 157t23 112.5q7 22 18.5 25
t20 -5.5t11.5 -24.5t-5 -31q-19 -56 -32.5 -124.5t-21 -141t-8.5 -145t5 -137t19 -116t35 -82t52 -35t70 24t90 95.5t110 181l102 449q6 14 15.5 21.5t18.5 7t15 -9.5t5 -28q-23 -89 -40.5 -185.5t-30 -194.5t-20 -193t-8.5 -179h6q32 10 65.5 38t66 62t61.5 67t52 54
q25 17 35.5 2t5.5 -43q-14 -33 -41.5 -61.5t-61.5 -54t-70.5 -50t-66.5 -49.5t-50.5 -51.5t-22.5 -55.5l-107 -535q-8 -68 -37 -112t-66.5 -63.5t-79 -14.5t-75 34.5t-54.5 82.5t-18 131zM88 -562q-1 -43 11.5 -80t33 -63.5t45 -40.5t49 -11.5t45 23.5t31.5 65l111 499
q-41 -23 -93 -55.5t-100 -79.5t-85.5 -110t-47.5 -147zM321 1012q0 10 7.5 22.5t20.5 10.5q27 -28 50 -55.5t31 -59.5q0 -12 -7 -22t-21 -10q-5 10 -10 11.5t-13 9t-22 27.5t-36 66z" />
    <glyph glyph-name="Zacute" unicode="&#x179;" horiz-adv-x="810" 
d="M205 142q-39 -62 -76 -93t-63.5 -37t-38.5 10t-1 46.5t49 73t111 89.5l213 237q-10 -1 -29 -4t-37.5 -3.5t-32.5 5.5t-14 23q0 14 4 25t24 11h125q2 0 14 17t29 43t37 58.5t38 62.5t31.5 55t18.5 37q-43 -23 -88.5 -31t-92 -7t-93.5 7t-92.5 10t-89 4t-83.5 -12
q-15 2 -22 8.5t-7.5 14.5t3.5 15.5t11 12.5q37 21 86.5 24.5t105.5 -0.5t116 -10t118 -4t111.5 17.5t96.5 54.5q9 4 22 7t24.5 1.5t19 -8t5.5 -19.5v-6q-31 -36 -62.5 -82.5t-62.5 -96t-60 -98t-55 -87.5q31 -2 59 2t42.5 2.5t12 -12.5t-32.5 -43h-25t-40 -0.5t-38.5 -2.5
t-20.5 -5l-226 -240q-1 -1 -1 -2v-3q38 -61 101 -86t135.5 -25.5t146 16t131.5 39.5q17 0 24.5 -8.5t7 -20.5t-8 -24.5t-20.5 -19.5q-85 -17 -155 -30.5t-135 -12t-130 24.5t-140 80zM462 1025q-27 -45 -43.5 -64t-26 -26.5t-15.5 -9.5t-12 -11q-16 0 -24.5 9.5t-8.5 21.5
q9 31 36.5 58t59.5 54q16 2 25 -10t9 -22z" />
    <glyph glyph-name="Zcaron" unicode="&#x17d;" horiz-adv-x="810" 
d="M205 142q-39 -62 -76 -93t-63.5 -37t-38.5 10t-1 46.5t49 73t111 89.5l213 237q-10 -1 -29 -4t-37.5 -3.5t-32.5 5.5t-14 23q0 14 4 25t24 11h125q2 0 14 17t29 43t37 58.5t38 62.5t31.5 55t18.5 37q-43 -23 -88.5 -31t-92 -7t-93.5 7t-92.5 10t-89 4t-83.5 -12
q-15 2 -22 8.5t-7.5 14.5t3.5 15.5t11 12.5q37 21 86.5 24.5t105.5 -0.5t116 -10t118 -4t111.5 17.5t96.5 54.5q9 4 22 7t24.5 1.5t19 -8t5.5 -19.5v-6q-31 -36 -62.5 -82.5t-62.5 -96t-60 -98t-55 -87.5q31 -2 59 2t42.5 2.5t12 -12.5t-32.5 -43h-25t-40 -0.5t-38.5 -2.5
t-20.5 -5l-226 -240q-1 -1 -1 -2v-3q38 -61 101 -86t135.5 -25.5t146 16t131.5 39.5q17 0 24.5 -8.5t7 -20.5t-8 -24.5t-20.5 -19.5q-85 -17 -155 -30.5t-135 -12t-130 24.5t-140 80zM403 970q1 0 2 -2.5t7 2.5t20 22t41 57q4 5 13 6.5t18 0t16 -5.5t8 -10v-3
q-6 -18 -17.5 -32.5t-24 -28l-25 -27t-20.5 -28.5q-14 -14 -26.5 -10.5t-25.5 11.5l-105 115q-2 17 7 20.5t24 3.5z" />
    <glyph glyph-name="Zdotaccent" unicode="&#x17b;" horiz-adv-x="810" 
d="M205 142q-39 -62 -76 -93t-63.5 -37t-38.5 10t-1 46.5t49 73t111 89.5l213 237q-10 -1 -29 -4t-37.5 -3.5t-32.5 5.5t-14 23q0 14 4 25t24 11h125q2 0 14 17t29 43t37 58.5t38 62.5t31.5 55t18.5 37q-43 -23 -88.5 -31t-92 -7t-93.5 7t-92.5 10t-89 4t-83.5 -12
q-15 2 -22 8.5t-7.5 14.5t3.5 15.5t11 12.5q37 21 86.5 24.5t105.5 -0.5t116 -10t118 -4t111.5 17.5t96.5 54.5q9 4 22 7t24.5 1.5t19 -8t5.5 -19.5v-6q-31 -36 -62.5 -82.5t-62.5 -96t-60 -98t-55 -87.5q31 -2 59 2t42.5 2.5t12 -12.5t-32.5 -43h-25t-40 -0.5t-38.5 -2.5
t-20.5 -5l-226 -240q-1 -1 -1 -2v-3q38 -61 101 -86t135.5 -25.5t146 16t131.5 39.5q17 0 24.5 -8.5t7 -20.5t-8 -24.5t-20.5 -19.5q-85 -17 -155 -30.5t-135 -12t-130 24.5t-140 80zM407 910q-27 1 -36 19t-5.5 39t18.5 39.5t38 20.5q22 -1 32.5 -18.5t8 -38.5t-16.5 -39.5
t-39 -21.5z" />
    <glyph glyph-name="aacute" unicode="&#xe1;" horiz-adv-x="553" 
d="M303 50q-24 -8 -40.5 -18.5t-32 -20.5t-35 -16.5t-49.5 -6.5q-75 16 -111.5 53.5t-41.5 85t16.5 98.5t61.5 93.5t94 71t114 30.5q15 2 37 2t42.5 -9t35.5 -28t17.5 -54t-12 -88.5t-53.5 -130.5q5 -39 22 -49.5t39 -2t47 32t46.5 52t37 57t19.5 48.5q22 19 38.5 5.5
t14.5 -42.5q-27 -76 -71.5 -124.5t-90.5 -69t-85 -13t-56 43.5h-4zM288 368q-37 -1 -76.5 -22.5t-72 -54.5t-54.5 -72t-25 -74.5t18 -62t74 -33.5q54 0 89.5 28t57.5 66.5t34 77.5t19 62q0 16 -3.5 31.5t-11 27.5t-19.5 19t-30 7zM341 566q-27 -45 -43.5 -64t-26 -26.5
t-15.5 -9.5t-12 -11q-16 0 -24.5 9.5t-8.5 21.5q9 31 36.5 58t59.5 54q16 2 25 -10t9 -22z" />
    <glyph glyph-name="abreve" unicode="&#x103;" horiz-adv-x="553" 
d="M303 50q-24 -8 -40.5 -18.5t-32 -20.5t-35 -16.5t-49.5 -6.5q-75 16 -111.5 53.5t-41.5 85t16.5 98.5t61.5 93.5t94 71t114 30.5q15 2 37 2t42.5 -9t35.5 -28t17.5 -54t-12 -88.5t-53.5 -130.5q5 -39 22 -49.5t39 -2t47 32t46.5 52t37 57t19.5 48.5q22 19 38.5 5.5
t14.5 -42.5q-27 -76 -71.5 -124.5t-90.5 -69t-85 -13t-56 43.5h-4zM288 368q-37 -1 -76.5 -22.5t-72 -54.5t-54.5 -72t-25 -74.5t18 -62t74 -33.5q54 0 89.5 28t57.5 66.5t34 77.5t19 62q0 16 -3.5 31.5t-11 27.5t-19.5 19t-30 7zM165 598q38 -50 71 -69t61 -14.5t50.5 27.5
t40.5 56q5 5 14.5 6t19.5 -0.5t17.5 -5.5t8.5 -10v-2q-8 -24 -25 -49.5t-41 -45t-54.5 -29.5t-65.5 -4t-74 32t-80 79q-2 8 3.5 13.5t14.5 9t19.5 5t19.5 1.5z" />
    <glyph glyph-name="acircumflex" unicode="&#xe2;" horiz-adv-x="553" 
d="M303 50q-24 -8 -40.5 -18.5t-32 -20.5t-35 -16.5t-49.5 -6.5q-75 16 -111.5 53.5t-41.5 85t16.5 98.5t61.5 93.5t94 71t114 30.5q15 2 37 2t42.5 -9t35.5 -28t17.5 -54t-12 -88.5t-53.5 -130.5q5 -39 22 -49.5t39 -2t47 32t46.5 52t37 57t19.5 48.5q22 19 38.5 5.5
t14.5 -42.5q-27 -76 -71.5 -124.5t-90.5 -69t-85 -13t-56 43.5h-4zM288 368q-37 -1 -76.5 -22.5t-72 -54.5t-54.5 -72t-25 -74.5t18 -62t74 -33.5q54 0 89.5 28t57.5 66.5t34 77.5t19 62q0 16 -3.5 31.5t-11 27.5t-19.5 19t-30 7zM184 486q-9 0 -16.5 0.5t-12 4t-7 10.5
t-0.5 20l110 131q31 24 61 -18l90 -119v-4q-1 -9 -9 -15t-18.5 -8.5t-20.5 -0.5t-15 10l-72 84z" />
    <glyph glyph-name="adieresis" unicode="&#xe4;" horiz-adv-x="553" 
d="M303 50q-24 -8 -40.5 -18.5t-32 -20.5t-35 -16.5t-49.5 -6.5q-75 16 -111.5 53.5t-41.5 85t16.5 98.5t61.5 93.5t94 71t114 30.5q15 2 37 2t42.5 -9t35.5 -28t17.5 -54t-12 -88.5t-53.5 -130.5q5 -39 22 -49.5t39 -2t47 32t46.5 52t37 57t19.5 48.5q22 19 38.5 5.5
t14.5 -42.5q-27 -76 -71.5 -124.5t-90.5 -69t-85 -13t-56 43.5h-4zM288 368q-37 -1 -76.5 -22.5t-72 -54.5t-54.5 -72t-25 -74.5t18 -62t74 -33.5q54 0 89.5 28t57.5 66.5t34 77.5t19 62q0 16 -3.5 31.5t-11 27.5t-19.5 19t-30 7zM198 495q-13 -4 -23.5 3.5t-15 20t-1 27
t18.5 23.5q21 17 34.5 8.5t17.5 -25.5t-3 -35.5t-28 -21.5zM361 491q-13 -4 -23.5 3.5t-15 20t-1 27t18.5 23.5q21 17 34.5 8.5t17.5 -25.5t-3 -35.5t-28 -21.5z" />
    <glyph glyph-name="agrave" unicode="&#xe0;" horiz-adv-x="553" 
d="M303 50q-24 -8 -40.5 -18.5t-32 -20.5t-35 -16.5t-49.5 -6.5q-75 16 -111.5 53.5t-41.5 85t16.5 98.5t61.5 93.5t94 71t114 30.5q15 2 37 2t42.5 -9t35.5 -28t17.5 -54t-12 -88.5t-53.5 -130.5q5 -39 22 -49.5t39 -2t47 32t46.5 52t37 57t19.5 48.5q22 19 38.5 5.5
t14.5 -42.5q-27 -76 -71.5 -124.5t-90.5 -69t-85 -13t-56 43.5h-4zM288 368q-37 -1 -76.5 -22.5t-72 -54.5t-54.5 -72t-25 -74.5t18 -62t74 -33.5q54 0 89.5 28t57.5 66.5t34 77.5t19 62q0 16 -3.5 31.5t-11 27.5t-19.5 19t-30 7zM222 573q0 10 7.5 22.5t20.5 10.5
q27 -28 50 -55.5t31 -59.5q0 -12 -7 -22t-21 -10q-5 10 -10 11.5t-13 9t-22 27.5t-36 66z" />
    <glyph glyph-name="amacron" unicode="&#x101;" horiz-adv-x="553" 
d="M303 50q-24 -8 -40.5 -18.5t-32 -20.5t-35 -16.5t-49.5 -6.5q-75 16 -111.5 53.5t-41.5 85t16.5 98.5t61.5 93.5t94 71t114 30.5q15 2 37 2t42.5 -9t35.5 -28t17.5 -54t-12 -88.5t-53.5 -130.5q5 -39 22 -49.5t39 -2t47 32t46.5 52t37 57t19.5 48.5q22 19 38.5 5.5
t14.5 -42.5q-27 -76 -71.5 -124.5t-90.5 -69t-85 -13t-56 43.5h-4zM288 368q-37 -1 -76.5 -22.5t-72 -54.5t-54.5 -72t-25 -74.5t18 -62t74 -33.5q54 0 89.5 28t57.5 66.5t34 77.5t19 62q0 16 -3.5 31.5t-11 27.5t-19.5 19t-30 7zM161 492q-16 9 -17.5 24t9.5 29h62.5t54 -1
t55 -2.5t66.5 -5.5q17 -8 18.5 -23t-9.5 -30q-34 0 -61 0.5t-53.5 1.5t-56 3t-68.5 4z" />
    <glyph glyph-name="aogonek" unicode="&#x105;" horiz-adv-x="553" 
d="M303 50q-24 -8 -40.5 -18.5t-32 -20.5t-35 -16.5t-49.5 -6.5q-75 16 -111.5 53.5t-41.5 85t16.5 98.5t61.5 93.5t94 71t114 30.5q15 2 37 2t42.5 -9t35.5 -28t17.5 -54t-12 -88.5t-53.5 -130.5q5 -39 22 -49.5t39 -2t47 32t46.5 52t37 57t19.5 48.5q22 19 38.5 5.5
t14.5 -42.5q-27 -76 -71.5 -124.5t-90.5 -69t-85 -13t-56 43.5h-4zM288 368q-37 -1 -76.5 -22.5t-72 -54.5t-54.5 -72t-25 -74.5t18 -62t74 -33.5q54 0 89.5 28t57.5 66.5t34 77.5t19 62q0 16 -3.5 31.5t-11 27.5t-19.5 19t-30 7zM437 -178q-38 -13 -62 -3t-35 33
t-10.5 54.5t10.5 62.5t29 56.5t45 36.5l15 -37q-23 -18 -35 -49t-12 -58.5t12 -43.5t35 -4h1z" />
    <glyph glyph-name="aring" unicode="&#xe5;" horiz-adv-x="553" 
d="M303 50q-24 -8 -40.5 -18.5t-32 -20.5t-35 -16.5t-49.5 -6.5q-75 16 -111.5 53.5t-41.5 85t16.5 98.5t61.5 93.5t94 71t114 30.5q15 2 37 2t42.5 -9t35.5 -28t17.5 -54t-12 -88.5t-53.5 -130.5q5 -39 22 -49.5t39 -2t47 32t46.5 52t37 57t19.5 48.5q22 19 38.5 5.5
t14.5 -42.5q-27 -76 -71.5 -124.5t-90.5 -69t-85 -13t-56 43.5h-4zM288 368q-37 -1 -76.5 -22.5t-72 -54.5t-54.5 -72t-25 -74.5t18 -62t74 -33.5q54 0 89.5 28t57.5 66.5t34 77.5t19 62q0 16 -3.5 31.5t-11 27.5t-19.5 19t-30 7zM156 486q-6 38 6.5 64.5t35 42.5t52 21
t58 -1.5t52 -24t35.5 -45.5q6 -29 -6 -50t-34 -34.5t-51 -18.5t-57.5 -2t-53 15t-37.5 33zM345 540q-24 21 -56.5 24t-57 -6t-34.5 -25.5t11 -34.5l3 -6q12 -7 37.5 -9.5t50 2t40 17.5t6.5 38z" />
    <glyph glyph-name="atilde" unicode="&#xe3;" horiz-adv-x="553" 
d="M303 50q-24 -8 -40.5 -18.5t-32 -20.5t-35 -16.5t-49.5 -6.5q-75 16 -111.5 53.5t-41.5 85t16.5 98.5t61.5 93.5t94 71t114 30.5q15 2 37 2t42.5 -9t35.5 -28t17.5 -54t-12 -88.5t-53.5 -130.5q5 -39 22 -49.5t39 -2t47 32t46.5 52t37 57t19.5 48.5q22 19 38.5 5.5
t14.5 -42.5q-27 -76 -71.5 -124.5t-90.5 -69t-85 -13t-56 43.5h-4zM288 368q-37 -1 -76.5 -22.5t-72 -54.5t-54.5 -72t-25 -74.5t18 -62t74 -33.5q54 0 89.5 28t57.5 66.5t34 77.5t19 62q0 16 -3.5 31.5t-11 27.5t-19.5 19t-30 7zM302 503q-11 31 -25 47t-29 15.5t-29 -19
t-23 -55.5q1 -6 -3.5 -12t-12.5 -8.5t-17.5 0t-18.5 14.5q-3 33 7 60.5t28 46t41.5 27.5t47 4t44.5 -25t35 -58q16 -31 35 -32t35 12t26.5 31t10.5 26q5 10 15.5 14.5t20 2t15.5 -12.5t2 -28q-13 -40 -44 -65t-64 -32.5t-61.5 3.5t-35.5 44z" />
    <glyph glyph-name="ae" unicode="&#xe6;" horiz-adv-x="848" 
d="M627 0q-35 -4 -64.5 -3t-53.5 6q-41 -31 -74 -34.5t-58.5 8.5t-43 33t-26.5 40h-4q-24 -8 -40.5 -18.5t-32 -20.5t-35 -16.5t-49.5 -6.5q-75 16 -111.5 53.5t-41.5 85t16.5 98.5t61.5 93.5t94 71t114 30.5q16 3 38.5 2t43.5 -10.5t35.5 -31t14.5 -60.5q13 26 30 48.5
t35.5 38t38 23.5t39.5 6q61 -2 88 -25.5t28.5 -58t-18.5 -74t-51.5 -74t-70 -58.5t-75.5 -27q30 -47 71 -64.5t85.5 -13.5t87.5 25t76.5 50.5t53.5 64t19 64.5q10 19 22.5 26.5t23 3.5t15.5 -18.5t0 -39.5q-19 -39 -47 -78.5t-63.5 -70.5t-79 -50t-92.5 -18zM288 368
q-37 -1 -76.5 -22.5t-72 -54.5t-54.5 -72t-25 -74.5t18 -62t74 -33.5q54 0 89.5 28t57.5 66.5t34 77.5t19 62q0 16 -3.5 31.5t-11 27.5t-19.5 19t-30 7zM557 381q-32 -3 -55 -27.5t-35.5 -57t-14 -65.5t8.5 -53q18 2 42.5 18t47 38.5t39.5 48.5t21.5 47.5t-7 36t-47.5 14.5z
M346 112q5 -34 17 -54t27 -29.5t31 -9.5t29 6q-41 24 -58.5 63.5t-17.5 84.5q-6 -14 -13 -29t-15 -32z" />
    <glyph glyph-name="aeacute" unicode="&#x1fd;" horiz-adv-x="848" 
d="M627 0q-35 -4 -64.5 -3t-53.5 6q-41 -31 -74 -34.5t-58.5 8.5t-43 33t-26.5 40h-4q-24 -8 -40.5 -18.5t-32 -20.5t-35 -16.5t-49.5 -6.5q-75 16 -111.5 53.5t-41.5 85t16.5 98.5t61.5 93.5t94 71t114 30.5q16 3 38.5 2t43.5 -10.5t35.5 -31t14.5 -60.5q13 26 30 48.5
t35.5 38t38 23.5t39.5 6q61 -2 88 -25.5t28.5 -58t-18.5 -74t-51.5 -74t-70 -58.5t-75.5 -27q30 -47 71 -64.5t85.5 -13.5t87.5 25t76.5 50.5t53.5 64t19 64.5q10 19 22.5 26.5t23 3.5t15.5 -18.5t0 -39.5q-19 -39 -47 -78.5t-63.5 -70.5t-79 -50t-92.5 -18zM288 368
q-37 -1 -76.5 -22.5t-72 -54.5t-54.5 -72t-25 -74.5t18 -62t74 -33.5q54 0 89.5 28t57.5 66.5t34 77.5t19 62q0 16 -3.5 31.5t-11 27.5t-19.5 19t-30 7zM557 381q-32 -3 -55 -27.5t-35.5 -57t-14 -65.5t8.5 -53q18 2 42.5 18t47 38.5t39.5 48.5t21.5 47.5t-7 36t-47.5 14.5z
M346 112q5 -34 17 -54t27 -29.5t31 -9.5t29 6q-41 24 -58.5 63.5t-17.5 84.5q-6 -14 -13 -29t-15 -32zM489 566q-27 -45 -43.5 -64t-26 -26.5t-15.5 -9.5t-12 -11q-16 0 -24.5 9.5t-8.5 21.5q9 31 36.5 58t59.5 54q16 2 25 -10t9 -22z" />
    <glyph glyph-name="cacute" unicode="&#x107;" horiz-adv-x="491" 
d="M17 205q-2 37 12.5 76t40 71.5t59.5 54.5t69.5 25.5t71 -15.5t64.5 -68q0 -20 -3.5 -31t-8 -16t-9 -6t-6.5 -1q-16 41 -40.5 59.5t-51.5 19.5t-53 -13t-45.5 -37t-30.5 -52.5t-7 -60.5q0 -63 25.5 -94.5t65 -39t88 5t95.5 37t86 57t61 65.5q13 10 25 16.5t20 5t11.5 -14
t0.5 -40.5q-28 -42 -77 -82t-107 -68t-119 -39.5t-111.5 2t-85 57t-40.5 126.5zM310 566q-27 -45 -43.5 -64t-26 -26.5t-15.5 -9.5t-12 -11q-16 0 -24.5 9.5t-8.5 21.5q9 31 36.5 58t59.5 54q16 2 25 -10t9 -22z" />
    <glyph glyph-name="ccaron" unicode="&#x10d;" horiz-adv-x="491" 
d="M17 205q-2 37 12.5 76t40 71.5t59.5 54.5t69.5 25.5t71 -15.5t64.5 -68q0 -20 -3.5 -31t-8 -16t-9 -6t-6.5 -1q-16 41 -40.5 59.5t-51.5 19.5t-53 -13t-45.5 -37t-30.5 -52.5t-7 -60.5q0 -63 25.5 -94.5t65 -39t88 5t95.5 37t86 57t61 65.5q13 10 25 16.5t20 5t11.5 -14
t0.5 -40.5q-28 -42 -77 -82t-107 -68t-119 -39.5t-111.5 2t-85 57t-40.5 126.5zM244 531q1 0 2 -2.5t7 2.5t20 22t41 57q4 5 13 6.5t18 0t16 -5.5t8 -10v-3q-6 -18 -17.5 -32.5t-24 -28l-25 -27t-20.5 -28.5q-14 -14 -26.5 -10.5t-25.5 11.5l-105 115q-2 17 7 20.5t24 3.5z
" />
    <glyph glyph-name="ccedilla" unicode="&#xe7;" horiz-adv-x="491" 
d="M17 205q-2 37 12.5 76t40 71.5t59.5 54.5t69.5 25.5t71 -15.5t64.5 -68q0 -20 -3.5 -31t-8 -16t-9 -6t-6.5 -1q-16 41 -40.5 59.5t-51.5 19.5t-53 -13t-45.5 -37t-30.5 -52.5t-7 -60.5q0 -63 25.5 -94.5t65 -39t88 5t95.5 37t86 57t61 65.5q13 10 25 16.5t20 5t11.5 -14
t0.5 -40.5q-28 -42 -77 -82t-107 -68t-119 -39.5t-111.5 2t-85 57t-40.5 126.5zM172 -248q-23 3 -31.5 8t-8.5 11.5t7.5 13t17.5 11.5q47 -5 76.5 1.5t42.5 19t11 28t-16.5 30t-40.5 25t-61 12.5q-3 -3 -3 13t1.5 37.5t4.5 42.5t5 28q24 13 34.5 8.5t13.5 -18.5t0.5 -33.5
t-5.5 -37.5q58 -20 87 -53t25 -65t-43 -56.5t-117 -25.5z" />
    <glyph glyph-name="ccircumflex" unicode="&#x109;" horiz-adv-x="491" 
d="M17 205q-2 37 12.5 76t40 71.5t59.5 54.5t69.5 25.5t71 -15.5t64.5 -68q0 -20 -3.5 -31t-8 -16t-9 -6t-6.5 -1q-16 41 -40.5 59.5t-51.5 19.5t-53 -13t-45.5 -37t-30.5 -52.5t-7 -60.5q0 -63 25.5 -94.5t65 -39t88 5t95.5 37t86 57t61 65.5q13 10 25 16.5t20 5t11.5 -14
t0.5 -40.5q-28 -42 -77 -82t-107 -68t-119 -39.5t-111.5 2t-85 57t-40.5 126.5zM153 486q-9 0 -16.5 0.5t-12 4t-7 10.5t-0.5 20l110 131q31 24 61 -18l90 -119v-4q-1 -9 -9 -15t-18.5 -8.5t-20.5 -0.5t-15 10l-72 84z" />
    <glyph glyph-name="cdotaccent" unicode="&#x10b;" horiz-adv-x="491" 
d="M17 205q-2 37 12.5 76t40 71.5t59.5 54.5t69.5 25.5t71 -15.5t64.5 -68q0 -20 -3.5 -31t-8 -16t-9 -6t-6.5 -1q-16 41 -40.5 59.5t-51.5 19.5t-53 -13t-45.5 -37t-30.5 -52.5t-7 -60.5q0 -63 25.5 -94.5t65 -39t88 5t95.5 37t86 57t61 65.5q13 10 25 16.5t20 5t11.5 -14
t0.5 -40.5q-28 -42 -77 -82t-107 -68t-119 -39.5t-111.5 2t-85 57t-40.5 126.5zM243 451q-27 1 -36 19t-5.5 39t18.5 39.5t38 20.5q22 -1 32.5 -18.5t8 -38.5t-16.5 -39.5t-39 -21.5z" />
    <glyph glyph-name="dcaron" unicode="&#x10f;" 
d="M365 82q-32 -24 -71.5 -42.5t-80 -27t-79 -5t-68.5 21.5t-49 52.5t-20 89.5q1 47 21 88t52.5 73t74.5 54.5t87.5 31.5t91.5 2.5t86 -30.5q7 2 18.5 38.5t27 90.5t33.5 115.5t37.5 114.5t38.5 88t37 35q4 0 10.5 -2t11.5 -6t8.5 -9t1.5 -11q-111 -302 -163.5 -476.5
t-52.5 -223.5q4 -43 25.5 -60.5t52.5 -16t67 19t69.5 45t59.5 62t38 70.5q13 0 27.5 -1.5t16.5 -20.5q-15 -51 -46 -94t-71 -74t-84 -48.5t-84.5 -18t-73.5 17t-50 57.5zM58 169q0 -21 7 -40.5t20 -34.5t31 -24t40 -9q37 0 77.5 20t73.5 51.5t54.5 71.5t21.5 79
q0 21 -8.5 35t-22.5 22.5t-33.5 12t-40.5 3.5q-41 0 -80.5 -13.5t-70.5 -38.5t-50 -59t-19 -76zM634 480q-14 7 -22 27.5t-8.5 44t7.5 44t27 26.5h5q5 -2 11.5 -5t6.5 -4v-107q0 -2 -3 -5.5t-7.5 -8t-9 -8t-7.5 -4.5z" />
    <glyph glyph-name="dcroat" unicode="&#x111;" horiz-adv-x="712" 
d="M365 82q-32 -24 -71.5 -42.5t-80 -27t-79 -5t-68.5 21.5t-49 52.5t-20 89.5q1 47 21 88t52.5 73t74.5 54.5t87.5 31.5t91.5 2.5t86 -30.5q7 2 18.5 38.5t27 90.5t33.5 115.5t37.5 114.5t38.5 88t37 35q4 0 10.5 -2t11.5 -6t8.5 -9t1.5 -11q-111 -302 -163.5 -476.5
t-52.5 -223.5q4 -43 25.5 -60.5t52.5 -16t67 19t69.5 45t59.5 62t38 70.5q13 0 27.5 -1.5t16.5 -20.5q-15 -51 -46 -94t-71 -74t-84 -48.5t-84.5 -18t-73.5 17t-50 57.5zM58 169q0 -21 7 -40.5t20 -34.5t31 -24t40 -9q37 0 77.5 20t73.5 51.5t54.5 71.5t21.5 79
q0 21 -8.5 35t-22.5 22.5t-33.5 12t-40.5 3.5q-41 0 -80.5 -13.5t-70.5 -38.5t-50 -59t-19 -76zM408 541q-16 9 -17.5 24t9.5 29h62.5t54 -1t55 -2.5t66.5 -5.5q17 -8 18.5 -23t-9.5 -30q-34 0 -61 0.5t-53.5 1.5t-56 3t-68.5 4z" />
    <glyph glyph-name="eacute" unicode="&#xe9;" horiz-adv-x="479" 
d="M254 -8q-78 -9 -129 6t-80 45t-38 71t-4 85t22.5 86.5t42.5 75.5t54.5 51.5t58.5 15.5q61 -2 88 -25.5t28.5 -58t-18.5 -74t-51.5 -74t-70 -58.5t-75.5 -27q29 -47 68 -63t81.5 -11.5t84.5 26.5t77 51t59 61t30 59q8 13 18.5 16t19.5 -1.5t14 -15.5t2 -24
q-19 -39 -47 -78.5t-63.5 -70.5t-79 -50t-92.5 -18zM184 373q-32 -3 -55 -27.5t-35.5 -57t-14 -65.5t8.5 -53q18 2 42.5 18t47 38.5t39.5 48.5t21.5 47.5t-7 36t-47.5 14.5zM291 599q-27 -45 -43.5 -64t-26 -26.5t-15.5 -9.5t-12 -11q-16 0 -24.5 9.5t-8.5 21.5
q9 31 36.5 58t59.5 54q16 2 25 -10t9 -22z" />
    <glyph glyph-name="ebreve" unicode="&#x115;" horiz-adv-x="479" 
d="M254 -8q-78 -9 -129 6t-80 45t-38 71t-4 85t22.5 86.5t42.5 75.5t54.5 51.5t58.5 15.5q61 -2 88 -25.5t28.5 -58t-18.5 -74t-51.5 -74t-70 -58.5t-75.5 -27q29 -47 68 -63t81.5 -11.5t84.5 26.5t77 51t59 61t30 59q8 13 18.5 16t19.5 -1.5t14 -15.5t2 -24
q-19 -39 -47 -78.5t-63.5 -70.5t-79 -50t-92.5 -18zM184 373q-32 -3 -55 -27.5t-35.5 -57t-14 -65.5t8.5 -53q18 2 42.5 18t47 38.5t39.5 48.5t21.5 47.5t-7 36t-47.5 14.5zM91 631q38 -50 71 -69t61 -14.5t50.5 27.5t40.5 56q5 5 14.5 6t19.5 -0.5t17.5 -5.5t8.5 -10v-2
q-8 -24 -25 -49.5t-41 -45t-54.5 -29.5t-65.5 -4t-74 32t-80 79q-2 8 3.5 13.5t14.5 9t19.5 5t19.5 1.5z" />
    <glyph glyph-name="ecaron" unicode="&#x11b;" horiz-adv-x="479" 
d="M254 -8q-78 -9 -129 6t-80 45t-38 71t-4 85t22.5 86.5t42.5 75.5t54.5 51.5t58.5 15.5q61 -2 88 -25.5t28.5 -58t-18.5 -74t-51.5 -74t-70 -58.5t-75.5 -27q29 -47 68 -63t81.5 -11.5t84.5 26.5t77 51t59 61t30 59q8 13 18.5 16t19.5 -1.5t14 -15.5t2 -24
q-19 -39 -47 -78.5t-63.5 -70.5t-79 -50t-92.5 -18zM184 373q-32 -3 -55 -27.5t-35.5 -57t-14 -65.5t8.5 -53q18 2 42.5 18t47 38.5t39.5 48.5t21.5 47.5t-7 36t-47.5 14.5zM194 543q1 0 2 -2.5t7 2.5t20 22t41 57q4 5 13 6.5t18 0t16 -5.5t8 -10v-3q-6 -18 -17.5 -32.5
t-24 -28l-25 -27t-20.5 -28.5q-14 -14 -26.5 -10.5t-25.5 11.5l-105 115q-2 17 7 20.5t24 3.5z" />
    <glyph glyph-name="ecircumflex" unicode="&#xea;" horiz-adv-x="479" 
d="M254 -8q-78 -9 -129 6t-80 45t-38 71t-4 85t22.5 86.5t42.5 75.5t54.5 51.5t58.5 15.5q61 -2 88 -25.5t28.5 -58t-18.5 -74t-51.5 -74t-70 -58.5t-75.5 -27q29 -47 68 -63t81.5 -11.5t84.5 26.5t77 51t59 61t30 59q8 13 18.5 16t19.5 -1.5t14 -15.5t2 -24
q-19 -39 -47 -78.5t-63.5 -70.5t-79 -50t-92.5 -18zM184 373q-32 -3 -55 -27.5t-35.5 -57t-14 -65.5t8.5 -53q18 2 42.5 18t47 38.5t39.5 48.5t21.5 47.5t-7 36t-47.5 14.5zM89 494q-9 0 -16.5 0.5t-12 4t-7 10.5t-0.5 20l110 131q31 24 61 -18l90 -119v-4q-1 -9 -9 -15
t-18.5 -8.5t-20.5 -0.5t-15 10l-72 84z" />
    <glyph glyph-name="edieresis" unicode="&#xeb;" horiz-adv-x="479" 
d="M254 -8q-78 -9 -129 6t-80 45t-38 71t-4 85t22.5 86.5t42.5 75.5t54.5 51.5t58.5 15.5q61 -2 88 -25.5t28.5 -58t-18.5 -74t-51.5 -74t-70 -58.5t-75.5 -27q29 -47 68 -63t81.5 -11.5t84.5 26.5t77 51t59 61t30 59q8 13 18.5 16t19.5 -1.5t14 -15.5t2 -24
q-19 -39 -47 -78.5t-63.5 -70.5t-79 -50t-92.5 -18zM184 373q-32 -3 -55 -27.5t-35.5 -57t-14 -65.5t8.5 -53q18 2 42.5 18t47 38.5t39.5 48.5t21.5 47.5t-7 36t-47.5 14.5zM113 492q-13 -4 -23.5 3.5t-15 20t-1 27t18.5 23.5q21 17 34.5 8.5t17.5 -25.5t-3 -35.5t-28 -21.5
zM276 488q-13 -4 -23.5 3.5t-15 20t-1 27t18.5 23.5q21 17 34.5 8.5t17.5 -25.5t-3 -35.5t-28 -21.5z" />
    <glyph glyph-name="edotaccent" unicode="&#x117;" horiz-adv-x="479" 
d="M254 -8q-78 -9 -129 6t-80 45t-38 71t-4 85t22.5 86.5t42.5 75.5t54.5 51.5t58.5 15.5q61 -2 88 -25.5t28.5 -58t-18.5 -74t-51.5 -74t-70 -58.5t-75.5 -27q29 -47 68 -63t81.5 -11.5t84.5 26.5t77 51t59 61t30 59q8 13 18.5 16t19.5 -1.5t14 -15.5t2 -24
q-19 -39 -47 -78.5t-63.5 -70.5t-79 -50t-92.5 -18zM184 373q-32 -3 -55 -27.5t-35.5 -57t-14 -65.5t8.5 -53q18 2 42.5 18t47 38.5t39.5 48.5t21.5 47.5t-7 36t-47.5 14.5zM167 472q-27 1 -36 19t-5.5 39t18.5 39.5t38 20.5q22 -1 32.5 -18.5t8 -38.5t-16.5 -39.5
t-39 -21.5z" />
    <glyph glyph-name="egrave" unicode="&#xe8;" horiz-adv-x="479" 
d="M254 -8q-78 -9 -129 6t-80 45t-38 71t-4 85t22.5 86.5t42.5 75.5t54.5 51.5t58.5 15.5q61 -2 88 -25.5t28.5 -58t-18.5 -74t-51.5 -74t-70 -58.5t-75.5 -27q29 -47 68 -63t81.5 -11.5t84.5 26.5t77 51t59 61t30 59q8 13 18.5 16t19.5 -1.5t14 -15.5t2 -24
q-19 -39 -47 -78.5t-63.5 -70.5t-79 -50t-92.5 -18zM184 373q-32 -3 -55 -27.5t-35.5 -57t-14 -65.5t8.5 -53q18 2 42.5 18t47 38.5t39.5 48.5t21.5 47.5t-7 36t-47.5 14.5zM136 590q0 10 7.5 22.5t20.5 10.5q27 -28 50 -55.5t31 -59.5q0 -12 -7 -22t-21 -10q-5 10 -10 11.5
t-13 9t-22 27.5t-36 66z" />
    <glyph glyph-name="emacron" unicode="&#x113;" horiz-adv-x="479" 
d="M254 -8q-78 -9 -129 6t-80 45t-38 71t-4 85t22.5 86.5t42.5 75.5t54.5 51.5t58.5 15.5q61 -2 88 -25.5t28.5 -58t-18.5 -74t-51.5 -74t-70 -58.5t-75.5 -27q29 -47 68 -63t81.5 -11.5t84.5 26.5t77 51t59 61t30 59q8 13 18.5 16t19.5 -1.5t14 -15.5t2 -24
q-19 -39 -47 -78.5t-63.5 -70.5t-79 -50t-92.5 -18zM184 373q-32 -3 -55 -27.5t-35.5 -57t-14 -65.5t8.5 -53q18 2 42.5 18t47 38.5t39.5 48.5t21.5 47.5t-7 36t-47.5 14.5zM83 492q-16 9 -17.5 24t9.5 29h62.5t54 -1t55 -2.5t66.5 -5.5q17 -8 18.5 -23t-9.5 -30
q-34 0 -61 0.5t-53.5 1.5t-56 3t-68.5 4z" />
    <glyph glyph-name="eogonek" unicode="&#x119;" horiz-adv-x="479" 
d="M254 -8q-78 -9 -129 6t-80 45t-38 71t-4 85t22.5 86.5t42.5 75.5t54.5 51.5t58.5 15.5q61 -2 88 -25.5t28.5 -58t-18.5 -74t-51.5 -74t-70 -58.5t-75.5 -27q29 -47 68 -63t81.5 -11.5t84.5 26.5t77 51t59 61t30 59q8 13 18.5 16t19.5 -1.5t14 -15.5t2 -24
q-19 -39 -47 -78.5t-63.5 -70.5t-79 -50t-92.5 -18zM184 373q-32 -3 -55 -27.5t-35.5 -57t-14 -65.5t8.5 -53q18 2 42.5 18t47 38.5t39.5 48.5t21.5 47.5t-7 36t-47.5 14.5zM428 -142q-38 -13 -62 -3t-35 33t-10.5 54.5t10.5 62.5t29 56.5t45 36.5l15 -37q-23 -18 -35 -49
t-12 -58.5t12 -43.5t35 -4h1z" />
    <glyph glyph-name="gbreve" unicode="&#x11f;" horiz-adv-x="590" 
d="M374 -2q-18 -193 -50.5 -320.5t-71 -200t-78.5 -96.5t-72.5 -10.5t-53.5 59t-21.5 112t24 148t82.5 166.5q45 48 76 79t50.5 49t29 27t12.5 14.5t0.5 10.5l-7.5 15q-20 -19 -50.5 -33t-65 -21t-68 -4.5t-60 16t-41 40.5t-10.5 69q0 55 18 110.5t51.5 100.5t81.5 73
t108 28q75 1 112.5 -26.5t47.5 -74.5t-3 -109.5t-38 -130.5q1 0 2.5 -1.5t3.5 -0.5q31 1 65 17.5t64 40.5t53.5 51.5t32.5 51.5q14 13 24.5 13.5t16.5 -7t7.5 -21t-3.5 -28.5q-17 -50 -52 -80t-75 -51t-78.5 -37.5t-63.5 -38.5zM74 -455q9 -67 26.5 -90t39.5 -15t46 42
t46 81.5t40 103.5t27.5 108.5t9.5 95t-15 64.5q-41 -35 -82 -77t-72.5 -91t-50 -105t-15.5 -117zM52 123q7 -51 31.5 -69.5t57 -13.5t68.5 30t67 61t52 78t24 82q0 23 -10 38t-25 23.5t-34 12t-37 3.5q-47 0 -83 -23t-60.5 -58.5t-37.5 -79t-13 -84.5zM151 615
q38 -50 71 -69t61 -14.5t50.5 27.5t40.5 56q5 5 14.5 6t19.5 -0.5t17.5 -5.5t8.5 -10v-2q-8 -24 -25 -49.5t-41 -45t-54.5 -29.5t-65.5 -4t-74 32t-80 79q-2 8 3.5 13.5t14.5 9t19.5 5t19.5 1.5z" />
    <glyph glyph-name="gcircumflex" unicode="&#x11d;" horiz-adv-x="590" 
d="M374 -2q-18 -193 -50.5 -320.5t-71 -200t-78.5 -96.5t-72.5 -10.5t-53.5 59t-21.5 112t24 148t82.5 166.5q45 48 76 79t50.5 49t29 27t12.5 14.5t0.5 10.5l-7.5 15q-20 -19 -50.5 -33t-65 -21t-68 -4.5t-60 16t-41 40.5t-10.5 69q0 55 18 110.5t51.5 100.5t81.5 73
t108 28q75 1 112.5 -26.5t47.5 -74.5t-3 -109.5t-38 -130.5q1 0 2.5 -1.5t3.5 -0.5q31 1 65 17.5t64 40.5t53.5 51.5t32.5 51.5q14 13 24.5 13.5t16.5 -7t7.5 -21t-3.5 -28.5q-17 -50 -52 -80t-75 -51t-78.5 -37.5t-63.5 -38.5zM74 -455q9 -67 26.5 -90t39.5 -15t46 42
t46 81.5t40 103.5t27.5 108.5t9.5 95t-15 64.5q-41 -35 -82 -77t-72.5 -91t-50 -105t-15.5 -117zM52 123q7 -51 31.5 -69.5t57 -13.5t68.5 30t67 61t52 78t24 82q0 23 -10 38t-25 23.5t-34 12t-37 3.5q-47 0 -83 -23t-60.5 -58.5t-37.5 -79t-13 -84.5zM202 486
q-9 0 -16.5 0.5t-12 4t-7 10.5t-0.5 20l110 131q31 24 61 -18l90 -119v-4q-1 -9 -9 -15t-18.5 -8.5t-20.5 -0.5t-15 10l-72 84z" />
    <glyph glyph-name="gcommaaccent" unicode="&#x123;" horiz-adv-x="590" 
d="M374 -2q-18 -193 -50.5 -320.5t-71 -200t-78.5 -96.5t-72.5 -10.5t-53.5 59t-21.5 112t24 148t82.5 166.5q45 48 76 79t50.5 49t29 27t12.5 14.5t0.5 10.5l-7.5 15q-20 -19 -50.5 -33t-65 -21t-68 -4.5t-60 16t-41 40.5t-10.5 69q0 55 18 110.5t51.5 100.5t81.5 73
t108 28q75 1 112.5 -26.5t47.5 -74.5t-3 -109.5t-38 -130.5q1 0 2.5 -1.5t3.5 -0.5q31 1 65 17.5t64 40.5t53.5 51.5t32.5 51.5q14 13 24.5 13.5t16.5 -7t7.5 -21t-3.5 -28.5q-17 -50 -52 -80t-75 -51t-78.5 -37.5t-63.5 -38.5zM74 -455q9 -67 26.5 -90t39.5 -15t46 42
t46 81.5t40 103.5t27.5 108.5t9.5 95t-15 64.5q-41 -35 -82 -77t-72.5 -91t-50 -105t-15.5 -117zM52 123q7 -51 31.5 -69.5t57 -13.5t68.5 30t67 61t52 78t24 82q0 23 -10 38t-25 23.5t-34 12t-37 3.5q-47 0 -83 -23t-60.5 -58.5t-37.5 -79t-13 -84.5zM284 489
q-14 7 -22 27.5t-8.5 44t7.5 44t27 26.5h5q5 -2 11.5 -5t6.5 -4v-107q0 -2 -3 -5.5t-7.5 -8t-9 -8t-7.5 -4.5z" />
    <glyph glyph-name="gdotaccent" unicode="&#x121;" horiz-adv-x="590" 
d="M374 -2q-18 -193 -50.5 -320.5t-71 -200t-78.5 -96.5t-72.5 -10.5t-53.5 59t-21.5 112t24 148t82.5 166.5q45 48 76 79t50.5 49t29 27t12.5 14.5t0.5 10.5l-7.5 15q-20 -19 -50.5 -33t-65 -21t-68 -4.5t-60 16t-41 40.5t-10.5 69q0 55 18 110.5t51.5 100.5t81.5 73
t108 28q75 1 112.5 -26.5t47.5 -74.5t-3 -109.5t-38 -130.5q1 0 2.5 -1.5t3.5 -0.5q31 1 65 17.5t64 40.5t53.5 51.5t32.5 51.5q14 13 24.5 13.5t16.5 -7t7.5 -21t-3.5 -28.5q-17 -50 -52 -80t-75 -51t-78.5 -37.5t-63.5 -38.5zM74 -455q9 -67 26.5 -90t39.5 -15t46 42
t46 81.5t40 103.5t27.5 108.5t9.5 95t-15 64.5q-41 -35 -82 -77t-72.5 -91t-50 -105t-15.5 -117zM52 123q7 -51 31.5 -69.5t57 -13.5t68.5 30t67 61t52 78t24 82q0 23 -10 38t-25 23.5t-34 12t-37 3.5q-47 0 -83 -23t-60.5 -58.5t-37.5 -79t-13 -84.5zM264 488q-27 1 -36 19
t-5.5 39t18.5 39.5t38 20.5q22 -1 32.5 -18.5t8 -38.5t-16.5 -39.5t-39 -21.5z" />
    <glyph glyph-name="hbar" unicode="&#x127;" horiz-adv-x="647" 
d="M692 180q-77 -79 -133.5 -124t-96 -63.5t-64 -14t-38 24.5t-18 52t-4 69t3.5 75t5.5 69.5t1.5 54t-9 27.5q-36 14 -70.5 3t-66 -38.5t-59 -67.5t-49 -84t-37 -88t-21.5 -79q-8 -9 -16.5 -14t-16 -5t-12 4.5t-3.5 14.5q20 123 35 230.5t29.5 197t31.5 159.5t41 117.5
t57 71t81 20.5q40 -15 56.5 -43t17 -63.5t-11 -75.5t-26 -79t-29 -73.5t-20.5 -58.5q55 22 87.5 17.5t49.5 -27t21.5 -57.5t3.5 -74t-3.5 -77t0 -66t14 -41t38.5 -1.5t73.5 51.5t119.5 118q8 9 21 15.5t22 2t9.5 -22.5t-15.5 -57zM98 303q28 37 60.5 87.5t61 103.5t49 102
t23.5 83t-15.5 48t-66.5 -4q-32 -29 -51.5 -76.5t-30.5 -104.5t-17.5 -119t-12.5 -120zM-14.1641 489.23q-19.8838 9.57129 -21.748 25.5234t11.8066 30.8408h77.6709q34.1748 0 67.1074 -1.06348t68.3506 -2.6582q35.418 -1.5957 82.6416 -5.84961
q21.127 -8.50781 22.9912 -24.46t-11.8066 -31.9043q-42.2529 0 -75.8066 0.532227q-33.5537 0.53125 -66.4863 1.59473t-69.5928 3.19043q-36.6611 2.12695 -85.1279 4.25391z" />
    <glyph glyph-name="hcircumflex" unicode="&#x125;" horiz-adv-x="647" 
d="M692 180q-77 -79 -133.5 -124t-96 -63.5t-64 -14t-38 24.5t-18 52t-4 69t3.5 75t5.5 69.5t1.5 54t-9 27.5q-36 14 -70.5 3t-66 -38.5t-59 -67.5t-49 -84t-37 -88t-21.5 -79q-8 -9 -16.5 -14t-16 -5t-12 4.5t-3.5 14.5q20 123 35 230.5t29.5 197t31.5 159.5t41 117.5
t57 71t81 20.5q40 -15 56.5 -43t17 -63.5t-11 -75.5t-26 -79t-29 -73.5t-20.5 -58.5q55 22 87.5 17.5t49.5 -27t21.5 -57.5t3.5 -74t-3.5 -77t0 -66t14 -41t38.5 -1.5t73.5 51.5t119.5 118q8 9 21 15.5t22 2t9.5 -22.5t-15.5 -57zM98 303q28 37 60.5 87.5t61 103.5t49 102
t23.5 83t-15.5 48t-66.5 -4q-32 -29 -51.5 -76.5t-30.5 -104.5t-17.5 -119t-12.5 -120zM79 830q-9 0 -16.5 0.5t-12 4t-7 10.5t-0.5 20l110 131q31 24 61 -18l90 -119v-4q-1 -9 -9 -15t-18.5 -8.5t-20.5 -0.5t-15 10l-72 84z" />
    <glyph glyph-name="iacute" unicode="&#xed;" horiz-adv-x="307" 
d="M336 205q-19 -33 -50.5 -70t-68.5 -69.5t-75.5 -55.5t-70.5 -27.5t-54 14.5t-26 69.5t14 138t65 221.5q7 0 18 0.5t21.5 -0.5t18 -3.5t7.5 -8.5q-32 -67 -54 -133t-30 -117.5t0.5 -81.5t38 -24.5t83 54t134.5 154.5q11 11 21 7t16 -15.5t5 -26.5t-13 -26zM218 628
q-27 -45 -43.5 -64t-26 -26.5t-15.5 -9.5t-12 -11q-16 0 -24.5 9.5t-8.5 21.5q9 31 36.5 58t59.5 54q16 2 25 -10t9 -22z" />
    <glyph glyph-name="icircumflex" unicode="&#xee;" horiz-adv-x="307" 
d="M336 205q-19 -33 -50.5 -70t-68.5 -69.5t-75.5 -55.5t-70.5 -27.5t-54 14.5t-26 69.5t14 138t65 221.5q7 0 18 0.5t21.5 -0.5t18 -3.5t7.5 -8.5q-32 -67 -54 -133t-30 -117.5t0.5 -81.5t38 -24.5t83 54t134.5 154.5q11 11 21 7t16 -15.5t5 -26.5t-13 -26zM58 543
q-9 0 -16.5 0.5t-12 4t-7 10.5t-0.5 20l110 131q31 24 61 -18l90 -119v-4q-1 -9 -9 -15t-18.5 -8.5t-20.5 -0.5t-15 10l-72 84z" />
    <glyph glyph-name="ibreve" unicode="&#x12d;" horiz-adv-x="307" 
d="M336 205q-19 -33 -50.5 -70t-68.5 -69.5t-75.5 -55.5t-70.5 -27.5t-54 14.5t-26 69.5t14 138t65 221.5q7 0 18 0.5t21.5 -0.5t18 -3.5t7.5 -8.5q-32 -67 -54 -133t-30 -117.5t0.5 -81.5t38 -24.5t83 54t134.5 154.5q11 11 21 7t16 -15.5t5 -26.5t-13 -26zM32 644
q38 -50 71 -69t61 -14.5t50.5 27.5t40.5 56q5 5 14.5 6t19.5 -0.5t17.5 -5.5t8.5 -10v-2q-8 -24 -25 -49.5t-41 -45t-54.5 -29.5t-65.5 -4t-74 32t-80 79q-2 8 3.5 13.5t14.5 9t19.5 5t19.5 1.5z" />
    <glyph glyph-name="idieresis" unicode="&#xef;" horiz-adv-x="307" 
d="M336 205q-19 -33 -50.5 -70t-68.5 -69.5t-75.5 -55.5t-70.5 -27.5t-54 14.5t-26 69.5t14 138t65 221.5q7 0 18 0.5t21.5 -0.5t18 -3.5t7.5 -8.5q-32 -67 -54 -133t-30 -117.5t0.5 -81.5t38 -24.5t83 54t134.5 154.5q11 11 21 7t16 -15.5t5 -26.5t-13 -26zM76 528
q-13 -4 -23.5 3.5t-15 20t-1 27t18.5 23.5q21 17 34.5 8.5t17.5 -25.5t-3 -35.5t-28 -21.5zM239 524q-13 -4 -23.5 3.5t-15 20t-1 27t18.5 23.5q21 17 34.5 8.5t17.5 -25.5t-3 -35.5t-28 -21.5z" />
    <glyph glyph-name="igrave" unicode="&#xec;" horiz-adv-x="307" 
d="M336 205q-19 -33 -50.5 -70t-68.5 -69.5t-75.5 -55.5t-70.5 -27.5t-54 14.5t-26 69.5t14 138t65 221.5q7 0 18 0.5t21.5 -0.5t18 -3.5t7.5 -8.5q-32 -67 -54 -133t-30 -117.5t0.5 -81.5t38 -24.5t83 54t134.5 154.5q11 11 21 7t16 -15.5t5 -26.5t-13 -26zM95 623
q0 10 7.5 22.5t20.5 10.5q27 -28 50 -55.5t31 -59.5q0 -12 -7 -22t-21 -10q-5 10 -10 11.5t-13 9t-22 27.5t-36 66z" />
    <glyph glyph-name="imacron" unicode="&#x12b;" horiz-adv-x="307" 
d="M336 205q-19 -33 -50.5 -70t-68.5 -69.5t-75.5 -55.5t-70.5 -27.5t-54 14.5t-26 69.5t14 138t65 221.5q7 0 18 0.5t21.5 -0.5t18 -3.5t7.5 -8.5q-32 -67 -54 -133t-30 -117.5t0.5 -81.5t38 -24.5t83 54t134.5 154.5q11 11 21 7t16 -15.5t5 -26.5t-13 -26zM40 492
q-16 9 -17.5 24t9.5 29h62.5t54 -1t55 -2.5t66.5 -5.5q17 -8 18.5 -23t-9.5 -30q-34 0 -61 0.5t-53.5 1.5t-56 3t-68.5 4z" />
    <glyph glyph-name="iogonek" unicode="&#x12f;" horiz-adv-x="307" 
d="M336 205q-19 -33 -50.5 -70t-68.5 -69.5t-75.5 -55.5t-70.5 -27.5t-54 14.5t-26 69.5t14 138t65 221.5q7 0 18 0.5t21.5 -0.5t18 -3.5t7.5 -8.5q-32 -67 -54 -133t-30 -117.5t0.5 -81.5t38 -24.5t83 54t134.5 154.5q11 11 21 7t16 -15.5t5 -26.5t-13 -26zM151 555
q-23 0 -32.5 14t-8 30.5t14 28.5t35.5 8q17 0 21 -8t4 -23q0 -16 -9.5 -33t-24.5 -17zM87 -198q-38 -13 -62 -3t-35 33t-10.5 54.5t10.5 62.5t29 56.5t45 36.5l15 -37q-23 -18 -35 -49t-12 -58.5t12 -43.5t35 -4h1z" />
    <glyph glyph-name="itilde" unicode="&#x129;" horiz-adv-x="307" 
d="M336 205q-19 -33 -50.5 -70t-68.5 -69.5t-75.5 -55.5t-70.5 -27.5t-54 14.5t-26 69.5t14 138t65 221.5q7 0 18 0.5t21.5 -0.5t18 -3.5t7.5 -8.5q-32 -67 -54 -133t-30 -117.5t0.5 -81.5t38 -24.5t83 54t134.5 154.5q11 11 21 7t16 -15.5t5 -26.5t-13 -26zM132 527
q-11 31 -25 47t-29 15.5t-29 -19t-23 -55.5q1 -6 -3.5 -12t-12.5 -8.5t-17.5 0t-18.5 14.5q-3 33 7 60.5t28 46t41.5 27.5t47 4t44.5 -25t35 -58q16 -31 35 -32t35 12t26.5 31t10.5 26q5 10 15.5 14.5t20 2t15.5 -12.5t2 -28q-13 -40 -44 -65t-64 -32.5t-61.5 3.5t-35.5 44z
" />
    <glyph glyph-name="dotlessj" unicode="&#x237;" horiz-adv-x="323" 
d="M-201 -632q-74 21 -108 67t-35.5 105t25.5 125.5t74.5 128t111.5 112t137 78.5l41 380q1 24 18 43t34.5 24.5t27.5 -8.5t-4 -56q-24 -67 -34 -127.5t-11.5 -107t2.5 -74.5t6 -29q9 0 26.5 12.5t39 32t45.5 43t45 45t37 37.5l22 22q29 31 45.5 32t21 -13t-2 -36.5
t-23.5 -39.5q-102 -96 -173 -161.5t-119 -107.5q-19 -48 -31 -106t-23 -117t-24 -114t-34.5 -98t-54 -68t-82.5 -24zM-23 -103q-51 -12 -95.5 -48.5t-78 -84.5t-53.5 -102t-21 -101.5t19.5 -83t67.5 -46.5q11 0 21 5.5t20.5 23t22 49t25.5 83.5t31.5 126.5t40.5 178.5z" />
    <glyph glyph-name="jcircumflex" unicode="&#x135;" horiz-adv-x="323" 
d="M-201 -632q-74 21 -108 67t-35.5 105t25.5 125.5t74.5 128t111.5 112t137 78.5l41 380q1 24 18 43t34.5 24.5t27.5 -8.5t-4 -56q-24 -67 -34 -127.5t-11.5 -107t2.5 -74.5t6 -29q9 0 26.5 12.5t39 32t45.5 43t45 45t37 37.5l22 22q29 31 45.5 32t21 -13t-2 -36.5
t-23.5 -39.5q-102 -96 -173 -161.5t-119 -107.5q-19 -48 -31 -106t-23 -117t-24 -114t-34.5 -98t-54 -68t-82.5 -24zM-23 -103q-51 -12 -95.5 -48.5t-78 -84.5t-53.5 -102t-21 -101.5t19.5 -83t67.5 -46.5q11 0 21 5.5t20.5 23t22 49t25.5 83.5t31.5 126.5t40.5 178.5z
M16 491q-9 0 -16.5 0.5t-12 4t-7 10.5t-0.5 20l110 131q31 24 61 -18l90 -119v-4q-1 -9 -9 -15t-18.5 -8.5t-20.5 -0.5t-15 10l-72 84z" />
    <glyph glyph-name="kcommaaccent" unicode="&#x137;" horiz-adv-x="536" 
d="M167 182q0 14 12 20t30 10t38.5 9t38.5 16t30 31t12 55q-18 45 -40 61t-46 10.5t-48.5 -28.5t-47.5 -56.5t-43.5 -74t-35 -80.5t-23 -76t-7.5 -61q-9 -12 -21.5 -17t-24 -5t-17.5 5t-1 14q2 -2 9 16.5t15.5 49t17 67.5t15.5 73t10.5 66t1.5 45q-11 88 -0.5 168t33.5 145
t53.5 111t59 66.5t51 11.5t29 -54t-6.5 -129.5t-56 -215.5q32 8 60.5 16.5t51.5 1.5t39.5 -37t25.5 -98q0 -33 -11.5 -55t-31 -38.5t-45 -29t-52.5 -27.5q8 -66 28 -98.5t47 -38.5t59.5 10.5t65 49.5t64 78.5t56.5 96.5q13 0 23.5 -6t15.5 -15.5t4 -20t-11 -19.5
q-78 -116 -147.5 -172t-125.5 -57t-96 51.5t-58 154.5zM192 741q-30 -31 -49 -69.5t-30 -79t-16 -80.5t-6 -74t-0.5 -58.5t-0.5 -33.5q15 22 33.5 56.5t36.5 75t32 82.5t20.5 78.5t2.5 64t-23 38.5zM137 -266q6 23 14 46.5t13.5 47.5t5.5 49t-10 50q0 16 14.5 18.5t26.5 2.5
q12 -16 17.5 -41t4.5 -52.5t-8 -53.5t-18 -44.5t-26.5 -25.5t-33.5 3z" />
    <glyph glyph-name="lacute" unicode="&#x13a;" horiz-adv-x="389" 
d="M123 -12q-56 15 -86 67.5t-38 127.5t4 163.5t40 175t69.5 163t92.5 126.5q28 17 49 15.5t35 -14.5t21.5 -34.5t7.5 -45.5q-6 -86 -27 -168t-54 -156t-77.5 -139t-98.5 -117q0 -54 20.5 -75t52.5 -19t71 22.5t77.5 50.5t72 64t54.5 63q22 -16 12.5 -43.5t-37.5 -58.5
t-68 -62.5t-79 -56t-71 -38.5t-43 -11zM236 750q-27 -13 -52 -52.5t-46 -92.5t-37.5 -112.5t-27 -112t-14 -92t1.5 -52.5q19 10 40.5 38t42.5 67t41 85.5t36 93t27 89.5t14 75t-3 50.5t-23 15.5zM259 955q-27 -45 -43.5 -64t-26 -26.5t-15.5 -9.5t-12 -11q-16 0 -24.5 9.5
t-8.5 21.5q9 31 36.5 58t59.5 54q16 2 25 -10t9 -22z" />
    <glyph glyph-name="lcaron" unicode="&#x13e;" horiz-adv-x="369" 
d="M123 -12q-56 15 -86 67.5t-38 127.5t4 163.5t40 175t69.5 163t92.5 126.5q28 17 49 15.5t35 -14.5t21.5 -34.5t7.5 -45.5q-6 -86 -27 -168t-54 -156t-77.5 -139t-98.5 -117q0 -54 20.5 -75t52.5 -19t71 22.5t77.5 50.5t72 64t54.5 63q22 -16 12.5 -43.5t-37.5 -58.5
t-68 -62.5t-79 -56t-71 -38.5t-43 -11zM236 750q-27 -13 -52 -52.5t-46 -92.5t-37.5 -112.5t-27 -112t-14 -92t1.5 -52.5q19 10 40.5 38t42.5 67t41 85.5t36 93t27 89.5t14 75t-3 50.5t-23 15.5zM381 693q-14 7 -22 27.5t-8.5 44t7.5 44t27 26.5h5q5 -2 11.5 -5t6.5 -4v-107
q0 -2 -3 -5.5t-7.5 -8t-9 -8t-7.5 -4.5z" />
    <glyph glyph-name="lcommaaccent" unicode="&#x13c;" horiz-adv-x="389" 
d="M123 -12q-56 15 -86 67.5t-38 127.5t4 163.5t40 175t69.5 163t92.5 126.5q28 17 49 15.5t35 -14.5t21.5 -34.5t7.5 -45.5q-6 -86 -27 -168t-54 -156t-77.5 -139t-98.5 -117q0 -54 20.5 -75t52.5 -19t71 22.5t77.5 50.5t72 64t54.5 63q22 -16 12.5 -43.5t-37.5 -58.5
t-68 -62.5t-79 -56t-71 -38.5t-43 -11zM236 750q-27 -13 -52 -52.5t-46 -92.5t-37.5 -112.5t-27 -112t-14 -92t1.5 -52.5q19 10 40.5 38t42.5 67t41 85.5t36 93t27 89.5t14 75t-3 50.5t-23 15.5zM137 -263q6 23 14 46.5t13.5 47.5t5.5 49t-10 50q0 16 14.5 18.5t26.5 2.5
q12 -16 17.5 -41t4.5 -52.5t-8 -53.5t-18 -44.5t-26.5 -25.5t-33.5 3z" />
    <glyph glyph-name="ldot" unicode="&#x140;" horiz-adv-x="389" 
d="M123 -12q-56 15 -86 67.5t-38 127.5t4 163.5t40 175t69.5 163t92.5 126.5q28 17 49 15.5t35 -14.5t21.5 -34.5t7.5 -45.5q-6 -86 -27 -168t-54 -156t-77.5 -139t-98.5 -117q0 -54 20.5 -75t52.5 -19t71 22.5t77.5 50.5t72 64t54.5 63q22 -16 12.5 -43.5t-37.5 -58.5
t-68 -62.5t-79 -56t-71 -38.5t-43 -11zM236 750q-27 -13 -52 -52.5t-46 -92.5t-37.5 -112.5t-27 -112t-14 -92t1.5 -52.5q19 10 40.5 38t42.5 67t41 85.5t36 93t27 89.5t14 75t-3 50.5t-23 15.5zM318 333q-27 1 -36 19t-5.5 39t18.5 39.5t38 20.5q22 -1 32.5 -18.5t8 -38.5
t-16.5 -39.5t-39 -21.5z" />
    <glyph glyph-name="lslash" unicode="&#x142;" horiz-adv-x="389" 
d="M123 -12q-56 15 -86 67.5t-38 127.5t4 163.5t40 175t69.5 163t92.5 126.5q28 17 49 15.5t35 -14.5t21.5 -34.5t7.5 -45.5q-6 -86 -27 -168t-54 -156t-77.5 -139t-98.5 -117q0 -54 20.5 -75t52.5 -19t71 22.5t77.5 50.5t72 64t54.5 63q22 -16 12.5 -43.5t-37.5 -58.5
t-68 -62.5t-79 -56t-71 -38.5t-43 -11zM236 750q-27 -13 -52 -52.5t-46 -92.5t-37.5 -112.5t-27 -112t-14 -92t1.5 -52.5q19 10 40.5 38t42.5 67t41 85.5t36 93t27 89.5t14 75t-3 50.5t-23 15.5zM-31 251q-16 9 -17.5 24t9.5 29h62.5t54 -1t55 -2.5t66.5 -5.5
q17 -8 18.5 -23t-9.5 -30q-34 0 -61 0.5t-53.5 1.5t-56 3t-68.5 4z" />
    <glyph glyph-name="nacute" unicode="&#x144;" horiz-adv-x="889" 
d="M646 5q-32 18 -46.5 38t-18.5 42.5t0 46t9.5 47t9.5 47t0 46t-18.5 42.5t-45.5 38q-33 0 -61 -16.5t-52 -43t-43.5 -59.5t-35.5 -66t-28.5 -63.5t-21.5 -50.5q-10 -23 -17.5 -33t-15 -10.5t-15.5 7t-17 20.5q40 136 45.5 214t-11 111t-49.5 28t-71 -33.5t-74.5 -75
t-60.5 -95.5q-32 -6 -36 13t10.5 50.5t42.5 69.5t60 70.5t64.5 53t55.5 16.5q45 0 70.5 -14.5t37.5 -40t15 -60t3 -73.5q37 53 80 87t84.5 47t77.5 4t58.5 -41t28 -87.5t-14.5 -136.5q6 -48 23.5 -62t41.5 -5t52.5 34.5t57 55.5t54.5 58t45 43q30 -8 26.5 -32t-28 -55.5
t-63 -65.5t-79 -60.5t-76 -41.5t-53.5 -8zM509 566q-27 -45 -43.5 -64t-26 -26.5t-15.5 -9.5t-12 -11q-16 0 -24.5 9.5t-8.5 21.5q9 31 36.5 58t59.5 54q16 2 25 -10t9 -22z" />
    <glyph glyph-name="napostrophe" unicode="&#x149;" horiz-adv-x="889" 
d="M646 5q-32 18 -46.5 38t-18.5 42.5t0 46t9.5 47t9.5 47t0 46t-18.5 42.5t-45.5 38q-33 0 -61 -16.5t-52 -43t-43.5 -59.5t-35.5 -66t-28.5 -63.5t-21.5 -50.5q-10 -23 -17.5 -33t-15 -10.5t-15.5 7t-17 20.5q40 136 45.5 214t-11 111t-49.5 28t-71 -33.5t-74.5 -75
t-60.5 -95.5q-32 -6 -36 13t10.5 50.5t42.5 69.5t60 70.5t64.5 53t55.5 16.5q45 0 70.5 -14.5t37.5 -40t15 -60t3 -73.5q37 53 80 87t84.5 47t77.5 4t58.5 -41t28 -87.5t-14.5 -136.5q6 -48 23.5 -62t41.5 -5t52.5 34.5t57 55.5t54.5 58t45 43q30 -8 26.5 -32t-28 -55.5
t-63 -65.5t-79 -60.5t-76 -41.5t-53.5 -8zM364 471q6 23 14 46.5t13.5 47.5t5.5 49t-10 50q0 16 14.5 18.5t26.5 2.5q12 -16 17.5 -41t4.5 -52.5t-8 -53.5t-18 -44.5t-26.5 -25.5t-33.5 3z" />
    <glyph glyph-name="ncaron" unicode="&#x148;" horiz-adv-x="889" 
d="M646 5q-32 18 -46.5 38t-18.5 42.5t0 46t9.5 47t9.5 47t0 46t-18.5 42.5t-45.5 38q-33 0 -61 -16.5t-52 -43t-43.5 -59.5t-35.5 -66t-28.5 -63.5t-21.5 -50.5q-10 -23 -17.5 -33t-15 -10.5t-15.5 7t-17 20.5q40 136 45.5 214t-11 111t-49.5 28t-71 -33.5t-74.5 -75
t-60.5 -95.5q-32 -6 -36 13t10.5 50.5t42.5 69.5t60 70.5t64.5 53t55.5 16.5q45 0 70.5 -14.5t37.5 -40t15 -60t3 -73.5q37 53 80 87t84.5 47t77.5 4t58.5 -41t28 -87.5t-14.5 -136.5q6 -48 23.5 -62t41.5 -5t52.5 34.5t57 55.5t54.5 58t45 43q30 -8 26.5 -32t-28 -55.5
t-63 -65.5t-79 -60.5t-76 -41.5t-53.5 -8zM443 531q1 0 2 -2.5t7 2.5t20 22t41 57q4 5 13 6.5t18 0t16 -5.5t8 -10v-3q-6 -18 -17.5 -32.5t-24 -28l-25 -27t-20.5 -28.5q-14 -14 -26.5 -10.5t-25.5 11.5l-105 115q-2 17 7 20.5t24 3.5z" />
    <glyph glyph-name="ncommaaccent" unicode="&#x146;" horiz-adv-x="889" 
d="M646 5q-32 18 -46.5 38t-18.5 42.5t0 46t9.5 47t9.5 47t0 46t-18.5 42.5t-45.5 38q-33 0 -61 -16.5t-52 -43t-43.5 -59.5t-35.5 -66t-28.5 -63.5t-21.5 -50.5q-10 -23 -17.5 -33t-15 -10.5t-15.5 7t-17 20.5q40 136 45.5 214t-11 111t-49.5 28t-71 -33.5t-74.5 -75
t-60.5 -95.5q-32 -6 -36 13t10.5 50.5t42.5 69.5t60 70.5t64.5 53t55.5 16.5q45 0 70.5 -14.5t37.5 -40t15 -60t3 -73.5q37 53 80 87t84.5 47t77.5 4t58.5 -41t28 -87.5t-14.5 -136.5q6 -48 23.5 -62t41.5 -5t52.5 34.5t57 55.5t54.5 58t45 43q30 -8 26.5 -32t-28 -55.5
t-63 -65.5t-79 -60.5t-76 -41.5t-53.5 -8zM387 -263q6 23 14 46.5t13.5 47.5t5.5 49t-10 50q0 16 14.5 18.5t26.5 2.5q12 -16 17.5 -41t4.5 -52.5t-8 -53.5t-18 -44.5t-26.5 -25.5t-33.5 3z" />
    <glyph glyph-name="ntilde" unicode="&#xf1;" horiz-adv-x="889" 
d="M646 5q-32 18 -46.5 38t-18.5 42.5t0 46t9.5 47t9.5 47t0 46t-18.5 42.5t-45.5 38q-33 0 -61 -16.5t-52 -43t-43.5 -59.5t-35.5 -66t-28.5 -63.5t-21.5 -50.5q-10 -23 -17.5 -33t-15 -10.5t-15.5 7t-17 20.5q40 136 45.5 214t-11 111t-49.5 28t-71 -33.5t-74.5 -75
t-60.5 -95.5q-32 -6 -36 13t10.5 50.5t42.5 69.5t60 70.5t64.5 53t55.5 16.5q45 0 70.5 -14.5t37.5 -40t15 -60t3 -73.5q37 53 80 87t84.5 47t77.5 4t58.5 -41t28 -87.5t-14.5 -136.5q6 -48 23.5 -62t41.5 -5t52.5 34.5t57 55.5t54.5 58t45 43q30 -8 26.5 -32t-28 -55.5
t-63 -65.5t-79 -60.5t-76 -41.5t-53.5 -8zM520 527q-11 31 -25 47t-29 15.5t-29 -19t-23 -55.5q1 -6 -3.5 -12t-12.5 -8.5t-17.5 0t-18.5 14.5q-3 33 7 60.5t28 46t41.5 27.5t47 4t44.5 -25t35 -58q16 -31 35 -32t35 12t26.5 31t10.5 26q5 10 15.5 14.5t20 2t15.5 -12.5
t2 -28q-13 -40 -44 -65t-64 -32.5t-61.5 3.5t-35.5 44z" />
    <glyph glyph-name="oacute" unicode="&#xf3;" horiz-adv-x="667" 
d="M459 106q-51 -71 -109.5 -101t-115 -29.5t-105.5 26.5t-81 67t-42.5 92.5t10 103t77 97.5t159.5 77q63 -6 102 -32t62.5 -65t35.5 -85.5t23 -92.5q36 -7 66.5 3t56 28t47 40t39.5 39q24 -6 25.5 -22.5t-13 -37.5t-41.5 -43.5t-60 -39t-69 -24.5t-67 -1zM272 375
q-66 -8 -109 -34t-65.5 -61t-26 -74.5t9 -74t40 -60t67.5 -32t90.5 9.5t109.5 65q-38 11 -62.5 37.5t-38 61.5t-17 77t1.5 85zM329 353q-9 -5 -11 -22t1 -38.5t11 -44t19 -39t23.5 -23.5t25.5 3q-2 15 -11.5 43t-21 55.5t-22 47.5t-14.5 18zM370 616q-27 -45 -43.5 -64
t-26 -26.5t-15.5 -9.5t-12 -11q-16 0 -24.5 9.5t-8.5 21.5q9 31 36.5 58t59.5 54q16 2 25 -10t9 -22z" />
    <glyph glyph-name="obreve" unicode="&#x14f;" horiz-adv-x="667" 
d="M459 106q-51 -71 -109.5 -101t-115 -29.5t-105.5 26.5t-81 67t-42.5 92.5t10 103t77 97.5t159.5 77q63 -6 102 -32t62.5 -65t35.5 -85.5t23 -92.5q36 -7 66.5 3t56 28t47 40t39.5 39q24 -6 25.5 -22.5t-13 -37.5t-41.5 -43.5t-60 -39t-69 -24.5t-67 -1zM272 375
q-66 -8 -109 -34t-65.5 -61t-26 -74.5t9 -74t40 -60t67.5 -32t90.5 9.5t109.5 65q-38 11 -62.5 37.5t-38 61.5t-17 77t1.5 85zM329 353q-9 -5 -11 -22t1 -38.5t11 -44t19 -39t23.5 -23.5t25.5 3q-2 15 -11.5 43t-21 55.5t-22 47.5t-14.5 18zM156 648q38 -50 71 -69t61 -14.5
t50.5 27.5t40.5 56q5 5 14.5 6t19.5 -0.5t17.5 -5.5t8.5 -10v-2q-8 -24 -25 -49.5t-41 -45t-54.5 -29.5t-65.5 -4t-74 32t-80 79q-2 8 3.5 13.5t14.5 9t19.5 5t19.5 1.5z" />
    <glyph glyph-name="ocircumflex" unicode="&#xf4;" horiz-adv-x="667" 
d="M459 106q-51 -71 -109.5 -101t-115 -29.5t-105.5 26.5t-81 67t-42.5 92.5t10 103t77 97.5t159.5 77q63 -6 102 -32t62.5 -65t35.5 -85.5t23 -92.5q36 -7 66.5 3t56 28t47 40t39.5 39q24 -6 25.5 -22.5t-13 -37.5t-41.5 -43.5t-60 -39t-69 -24.5t-67 -1zM272 375
q-66 -8 -109 -34t-65.5 -61t-26 -74.5t9 -74t40 -60t67.5 -32t90.5 9.5t109.5 65q-38 11 -62.5 37.5t-38 61.5t-17 77t1.5 85zM329 353q-9 -5 -11 -22t1 -38.5t11 -44t19 -39t23.5 -23.5t25.5 3q-2 15 -11.5 43t-21 55.5t-22 47.5t-14.5 18zM179 486q-9 0 -16.5 0.5t-12 4
t-7 10.5t-0.5 20l110 131q31 24 61 -18l90 -119v-4q-1 -9 -9 -15t-18.5 -8.5t-20.5 -0.5t-15 10l-72 84z" />
    <glyph glyph-name="odieresis" unicode="&#xf6;" horiz-adv-x="667" 
d="M459 106q-51 -71 -109.5 -101t-115 -29.5t-105.5 26.5t-81 67t-42.5 92.5t10 103t77 97.5t159.5 77q63 -6 102 -32t62.5 -65t35.5 -85.5t23 -92.5q36 -7 66.5 3t56 28t47 40t39.5 39q24 -6 25.5 -22.5t-13 -37.5t-41.5 -43.5t-60 -39t-69 -24.5t-67 -1zM272 375
q-66 -8 -109 -34t-65.5 -61t-26 -74.5t9 -74t40 -60t67.5 -32t90.5 9.5t109.5 65q-38 11 -62.5 37.5t-38 61.5t-17 77t1.5 85zM329 353q-9 -5 -11 -22t1 -38.5t11 -44t19 -39t23.5 -23.5t25.5 3q-2 15 -11.5 43t-21 55.5t-22 47.5t-14.5 18zM255 495q-13 -4 -23.5 3.5
t-15 20t-1 27t18.5 23.5q21 17 34.5 8.5t17.5 -25.5t-3 -35.5t-28 -21.5zM418 491q-13 -4 -23.5 3.5t-15 20t-1 27t18.5 23.5q21 17 34.5 8.5t17.5 -25.5t-3 -35.5t-28 -21.5z" />
    <glyph glyph-name="ograve" unicode="&#xf2;" horiz-adv-x="667" 
d="M459 106q-51 -71 -109.5 -101t-115 -29.5t-105.5 26.5t-81 67t-42.5 92.5t10 103t77 97.5t159.5 77q63 -6 102 -32t62.5 -65t35.5 -85.5t23 -92.5q36 -7 66.5 3t56 28t47 40t39.5 39q24 -6 25.5 -22.5t-13 -37.5t-41.5 -43.5t-60 -39t-69 -24.5t-67 -1zM272 375
q-66 -8 -109 -34t-65.5 -61t-26 -74.5t9 -74t40 -60t67.5 -32t90.5 9.5t109.5 65q-38 11 -62.5 37.5t-38 61.5t-17 77t1.5 85zM329 353q-9 -5 -11 -22t1 -38.5t11 -44t19 -39t23.5 -23.5t25.5 3q-2 15 -11.5 43t-21 55.5t-22 47.5t-14.5 18zM238 598q0 10 7.5 22.5
t20.5 10.5q27 -28 50 -55.5t31 -59.5q0 -12 -7 -22t-21 -10q-5 10 -10 11.5t-13 9t-22 27.5t-36 66z" />
    <glyph glyph-name="ohungarumlaut" unicode="&#x151;" horiz-adv-x="667" 
d="M459 106q-51 -71 -109.5 -101t-115 -29.5t-105.5 26.5t-81 67t-42.5 92.5t10 103t77 97.5t159.5 77q63 -6 102 -32t62.5 -65t35.5 -85.5t23 -92.5q36 -7 66.5 3t56 28t47 40t39.5 39q24 -6 25.5 -22.5t-13 -37.5t-41.5 -43.5t-60 -39t-69 -24.5t-67 -1zM272 375
q-66 -8 -109 -34t-65.5 -61t-26 -74.5t9 -74t40 -60t67.5 -32t90.5 9.5t109.5 65q-38 11 -62.5 37.5t-38 61.5t-17 77t1.5 85zM329 353q-9 -5 -11 -22t1 -38.5t11 -44t19 -39t23.5 -23.5t25.5 3q-2 15 -11.5 43t-21 55.5t-22 47.5t-14.5 18zM280 602q-27 -45 -43.5 -64
t-26 -26.5t-15.5 -9.5t-12 -11q-16 0 -24.5 9.5t-8.5 21.5q9 31 36.5 58t59.5 54q16 2 25 -10t9 -22zM410 587q-27 -45 -43.5 -64t-26 -26.5t-15.5 -9.5t-12 -11q-16 0 -24.5 9.5t-8.5 21.5q9 31 36.5 58t59.5 54q16 2 25 -10t9 -22z" />
    <glyph glyph-name="oslashacute" unicode="&#x1ff;" horiz-adv-x="667" 
d="M459 106q-51 -71 -109.5 -101t-115 -29.5t-105.5 26.5t-81 67t-42.5 92.5t10 103t77 97.5t159.5 77q63 -6 102 -32t62.5 -65t35.5 -85.5t23 -92.5q36 -7 66.5 3t56 28t47 40t39.5 39q24 -6 25.5 -22.5t-13 -37.5t-41.5 -43.5t-60 -39t-69 -24.5t-67 -1zM272 375
q-66 -8 -109 -34t-65.5 -61t-26 -74.5t9 -74t40 -60t67.5 -32t90.5 9.5t109.5 65q-38 11 -62.5 37.5t-38 61.5t-17 77t1.5 85zM329 353q-9 -5 -11 -22t1 -38.5t11 -44t19 -39t23.5 -23.5t25.5 3q-2 15 -11.5 43t-21 55.5t-22 47.5t-14.5 18zM97.8867 7.25977
q0 -2.36621 -7.65137 -3.5498t-16.3223 -0.236328q-8.6709 0.946289 -15.8125 4.7334q-7.14062 3.78613 -5.10059 11.833l338.688 407.535q12.2412 5.67969 23.4629 5.67969t19.8926 -2.83984t13.2617 -7.57324t3.57031 -8.99316l-353.988 -406.589v0zM398 566
q-27 -45 -43.5 -64t-26 -26.5t-15.5 -9.5t-12 -11q-16 0 -24.5 9.5t-8.5 21.5q9 31 36.5 58t59.5 54q16 2 25 -10t9 -22z" />
    <glyph glyph-name="oslash" unicode="&#xf8;" horiz-adv-x="667" 
d="M459 106q-51 -71 -109.5 -101t-115 -29.5t-105.5 26.5t-81 67t-42.5 92.5t10 103t77 97.5t159.5 77q63 -6 102 -32t62.5 -65t35.5 -85.5t23 -92.5q36 -7 66.5 3t56 28t47 40t39.5 39q24 -6 25.5 -22.5t-13 -37.5t-41.5 -43.5t-60 -39t-69 -24.5t-67 -1zM272 375
q-66 -8 -109 -34t-65.5 -61t-26 -74.5t9 -74t40 -60t67.5 -32t90.5 9.5t109.5 65q-38 11 -62.5 37.5t-38 61.5t-17 77t1.5 85zM329 353q-9 -5 -11 -22t1 -38.5t11 -44t19 -39t23.5 -23.5t25.5 3q-2 15 -11.5 43t-21 55.5t-22 47.5t-14.5 18zM68.9873 12.1064
q0 -2.28125 -8.35059 -3.42188q-8.34961 -1.14062 -17.8135 -0.228516q-9.46289 0.913086 -17.2568 4.56348q-7.79297 3.65039 -5.56641 11.4072l369.63 392.873q13.3604 5.47559 25.6064 5.47559q12.2471 0 21.71 -2.7373q9.46387 -2.73828 14.4736 -7.30078
q5.00977 -4.56348 3.89648 -8.66992l-386.329 -391.961v0z" />
    <glyph glyph-name="omacron" unicode="&#x14d;" horiz-adv-x="667" 
d="M459 106q-51 -71 -109.5 -101t-115 -29.5t-105.5 26.5t-81 67t-42.5 92.5t10 103t77 97.5t159.5 77q63 -6 102 -32t62.5 -65t35.5 -85.5t23 -92.5q36 -7 66.5 3t56 28t47 40t39.5 39q24 -6 25.5 -22.5t-13 -37.5t-41.5 -43.5t-60 -39t-69 -24.5t-67 -1zM272 375
q-66 -8 -109 -34t-65.5 -61t-26 -74.5t9 -74t40 -60t67.5 -32t90.5 9.5t109.5 65q-38 11 -62.5 37.5t-38 61.5t-17 77t1.5 85zM329 353q-9 -5 -11 -22t1 -38.5t11 -44t19 -39t23.5 -23.5t25.5 3q-2 15 -11.5 43t-21 55.5t-22 47.5t-14.5 18zM124 504q-16 9 -17.5 24t9.5 29
h62.5t54 -1t55 -2.5t66.5 -5.5q17 -8 18.5 -23t-9.5 -30q-34 0 -61 0.5t-53.5 1.5t-56 3t-68.5 4z" />
    <glyph glyph-name="o.end" horiz-adv-x="667" 
d="M459 106q-51 -71 -109.5 -101t-115 -29.5t-105.5 26.5t-81 67t-42.5 92.5t10 103t77 97.5t159.5 77q63 -6 102 -32t62.5 -65t35.5 -85.5t23 -92.5q36 -7 66.5 3t56 28t47 40t39.5 39q24 -6 25.5 -22.5t-13 -37.5t-41.5 -43.5t-60 -39t-69 -24.5t-67 -1zM272 375
q-66 -8 -109 -34t-65.5 -61t-26 -74.5t9 -74t40 -60t67.5 -32t90.5 9.5t109.5 65q-38 11 -62.5 37.5t-38 61.5t-17 77t1.5 85zM329 353q-9 -5 -11 -22t1 -38.5t11 -44t19 -39t23.5 -23.5t25.5 3q-2 15 -11.5 43t-21 55.5t-22 47.5t-14.5 18z" />
    <glyph glyph-name="otilde" unicode="&#xf5;" horiz-adv-x="667" 
d="M459 106q-51 -71 -109.5 -101t-115 -29.5t-105.5 26.5t-81 67t-42.5 92.5t10 103t77 97.5t159.5 77q63 -6 102 -32t62.5 -65t35.5 -85.5t23 -92.5q36 -7 66.5 3t56 28t47 40t39.5 39q24 -6 25.5 -22.5t-13 -37.5t-41.5 -43.5t-60 -39t-69 -24.5t-67 -1zM272 375
q-66 -8 -109 -34t-65.5 -61t-26 -74.5t9 -74t40 -60t67.5 -32t90.5 9.5t109.5 65q-38 11 -62.5 37.5t-38 61.5t-17 77t1.5 85zM329 353q-9 -5 -11 -22t1 -38.5t11 -44t19 -39t23.5 -23.5t25.5 3q-2 15 -11.5 43t-21 55.5t-22 47.5t-14.5 18zM265 524q-11 31 -25 47t-29 15.5
t-29 -19t-23 -55.5q1 -6 -3.5 -12t-12.5 -8.5t-17.5 0t-18.5 14.5q-3 33 7 60.5t28 46t41.5 27.5t47 4t44.5 -25t35 -58q16 -31 35 -32t35 12t26.5 31t10.5 26q5 10 15.5 14.5t20 2t15.5 -12.5t2 -28q-13 -40 -44 -65t-64 -32.5t-61.5 3.5t-35.5 44z" />
    <glyph glyph-name="oe" unicode="&#x153;" horiz-adv-x="876" 
d="M659 -4q-93 -11 -148 12t-80 64q-52 -58 -109 -79.5t-110 -15.5t-98.5 34t-74 69t-36 91t14.5 99.5t78.5 94t155.5 74.5q39 -4 68.5 -16t51.5 -30t37.5 -41.5t26.5 -50.5q13 29 30.5 54t37 43t40.5 27t42 7q63 2 93.5 -17.5t36.5 -51.5t-10.5 -71.5t-47.5 -76.5
t-73.5 -67t-89.5 -44q31 -43 72 -57.5t84.5 -9t85 26.5t74 50.5t51.5 63t18 63.5q10 19 22.5 26.5t23 3.5t15.5 -18.5t0 -39.5q-19 -39 -47 -78.5t-63.5 -70.5t-79 -50t-92.5 -18zM272 375q-66 -8 -109 -34t-65.5 -61t-26 -74.5t9 -74t40 -60t67.5 -32t90.5 9.5t109.5 65
q-38 11 -62.5 37.5t-38 61.5t-17 77t1.5 85zM589 377q-32 -3 -55 -27.5t-35.5 -57t-14 -65.5t8.5 -53q18 2 42.5 18t47 38.5t39.5 48.5t21.5 47.5t-7 36t-47.5 14.5zM329 353q-9 -5 -11 -22t1 -38.5t11 -44t19 -39t23.5 -23.5t25.5 3q-2 15 -11.5 43t-21 55.5t-22 47.5
t-14.5 18z" />
    <glyph glyph-name="racute" unicode="&#x155;" horiz-adv-x="517" 
d="M546 155q-59 -77 -108 -113t-86.5 -39t-62.5 22t-36.5 68.5t-8 101t22.5 119.5q-15 0 -30.5 5.5t-30.5 11.5t-29.5 11.5t-28.5 5.5h-4q-18 5 -25.5 -5t-15.5 -33t-22.5 -59t-47.5 -83q-12 -14 -25 -15.5t-21 5.5t-8 20.5t14 28.5q8 9 22.5 38t31 63.5t33 68t28.5 51.5
q6 12 14 16t22 2q16 -29 41.5 -48t54 -25.5t57.5 0.5t54 30q12 0 13 -14.5t-3.5 -32t-12.5 -33t-15 -17.5q-14 -50 -22 -97t-7 -81.5t12.5 -53.5t36.5 -13t64 40.5t96 106.5q28 17 38 7t-5 -60zM323 566q-27 -45 -43.5 -64t-26 -26.5t-15.5 -9.5t-12 -11q-16 0 -24.5 9.5
t-8.5 21.5q9 31 36.5 58t59.5 54q16 2 25 -10t9 -22z" />
    </font>
</defs>
</svg>
